<?xml version="1.0" standalone="no"?>
<!DOCTYPE svg PUBLIC "-//W3C//DTD SVG 1.1//EN" "http://www.w3.org/Graphics/SVG/1.1/DTD/svg11.dtd" >
<svg xmlns="http://www.w3.org/2000/svg" xmlns:xlink="http://www.w3.org/1999/xlink" version="1.1">
<metadata>
Created by FontForge 20170731 at Wed Nov  9 22:13:05 2016
 By Aleksey,,,
Copyright (c) 2015, 2016 by Jakob Runge, under exclusive license to TypeMates. All rights reserved.
</metadata>
<defs>
<font id="CeraPRO-Light" horiz-adv-x="560" >
  <font-face 
    font-family="Cera PRO Light"
    font-weight="300"
    font-stretch="normal"
    units-per-em="1000"
    panose-1="0 0 4 0 0 0 0 0 0 0"
    ascent="808"
    descent="-192"
    x-height="483"
    cap-height="660"
    bbox="-119 -246 1276 1000"
    underline-thickness="45"
    underline-position="-188"
    unicode-range="U+0020-FB02"
  />
<missing-glyph horiz-adv-x="704" 
d="M98 660h509v-660h-509v660zM564 39v582h-426z" />
    <glyph glyph-name="fi" unicode="fi" horiz-adv-x="535" 
d="M101 615q0 75 39.5 110t106.5 35q29 0 55 -6v-44q-23 4 -46 4q-105 0 -105 -101v-130h127v-46h-127v-437h-50v437h-71v46h71v132zM417 713q19 0 31.5 -13t12.5 -31t-12.5 -31t-31.5 -13q-18 0 -31 13t-13 31t13 31t31 13zM392 0v483h50v-483h-50z" />
    <glyph glyph-name="fl" unicode="fl" horiz-adv-x="535" 
d="M101 615q0 75 39.5 110t106.5 35q29 0 55 -6v-44q-23 4 -46 4q-105 0 -105 -101v-130h127v-46h-127v-437h-50v437h-71v46h71v132zM392 750h50v-750h-50v750z" />
    <glyph glyph-name=".notdef" horiz-adv-x="704" 
d="M98 660h509v-660h-509v660zM564 39v582h-426z" />
    <glyph glyph-name=".null" horiz-adv-x="0" 
 />
    <glyph glyph-name="nonmarkingreturn" horiz-adv-x="333" 
 />
    <glyph glyph-name="space" unicode=" " horiz-adv-x="280" 
 />
    <glyph glyph-name="exclam" unicode="!" horiz-adv-x="285" 
d="M173 660l-9 -466h-43l-10 466h62zM142 88q20 0 35 -14t15 -36q0 -21 -15 -34.5t-35 -13.5t-34.5 13.5t-14.5 34.5q0 22 14.5 36t34.5 14z" />
    <glyph glyph-name="quotedbl" unicode="&#x22;" horiz-adv-x="430" 
d="M178 660l-37 -247h-41l17 247h61zM337 660l-37 -247h-41l17 247h61z" />
    <glyph glyph-name="numbersign" unicode="#" horiz-adv-x="581" 
d="M551 436h-96l-28 -212h102v-44h-108l-25 -180h-44l24 180h-211l-25 -180h-45l24 180h-89v44h95l29 212h-101v44h107l24 180h46l-25 -180h211l24 180h46l-25 -180h90v-44zM171 224h211l28 212h-211z" />
    <glyph glyph-name="dollar" unicode="$" horiz-adv-x="535" 
d="M464 180q0 -67 -48.5 -109.5t-123.5 -47.5v-115h-51v116q-125 13 -197 136l39 27q63 -102 158 -116v255l-14 6q-29 13 -49.5 25t-42 30.5t-33 43.5t-11.5 56q0 61 42.5 99t107.5 46v119h51v-118q101 -8 161 -102l-36 -28q-51 75 -125 82v-229l30 -13q68 -31 105 -68.5
t37 -94.5zM144 489q0 -41 24.5 -64t72.5 -46v205q-97 -16 -97 -95zM292 70q53 5 86 33.5t33 75.5q0 43 -28 69t-84 52l-7 3v-233z" />
    <glyph glyph-name="percent" unicode="%" horiz-adv-x="801" 
d="M215 670q66 0 113 -46t47 -113t-47 -113t-113 -46q-67 0 -113.5 46t-46.5 113t46.5 113t113.5 46zM615 660l-380 -660h-47l379 660h48zM215 629q-49 0 -81.5 -34t-32.5 -84t32.5 -84t81.5 -34t81.5 34t32.5 84t-32.5 84t-81.5 34zM586 309q66 0 113 -46t47 -113t-47 -113
t-113 -46t-113 46t-47 113t47 113t113 46zM586 268q-49 0 -81 -33.5t-32 -84.5t32 -84.5t81 -33.5t81.5 34t32.5 84t-32.5 84t-81.5 34z" />
    <glyph glyph-name="ampersand" unicode="&#x26;" horiz-adv-x="604" 
d="M583 291q-80 -124 -109 -162l108 -129h-64l-76 90q-89 -100 -195 -100q-81 0 -138 46t-57 120q0 63 40.5 109.5t117.5 100.5q-39 49 -58.5 86.5t-19.5 79.5q0 58 36.5 98t100.5 40q62 0 99.5 -37.5t37.5 -92.5q0 -87 -126 -181l162 -192q23 32 99 151zM269 622
q-42 0 -64 -25t-22 -65q0 -35 16.5 -65.5t51.5 -73.5q104 77 104 146q0 36 -22 59.5t-64 23.5zM247 39q87 0 163 89l-171 203q-41 -31 -56.5 -44t-38.5 -36t-31 -44t-8 -46q0 -55 41.5 -88.5t100.5 -33.5z" />
    <glyph glyph-name="quotesingle" unicode="'" horiz-adv-x="272" 
d="M178 660l-37 -247h-41l17 247h61z" />
    <glyph glyph-name="parenleft" unicode="(" horiz-adv-x="323" 
d="M273 731l21 -36q-161 -94 -161 -395q0 -168 46.5 -262t114.5 -133l-21 -36q-81 39 -135.5 142t-54.5 289q0 98 16.5 175.5t45.5 127t60 80t68 48.5z" />
    <glyph glyph-name="parenright" unicode=")" horiz-adv-x="323" 
d="M51 731q37 -18 68 -48.5t59.5 -80t45 -127t16.5 -175.5t-16.5 -175.5t-45 -127t-59.5 -80t-68 -48.5l-22 36q68 39 114.5 133t46.5 262q0 301 -161 395z" />
    <glyph glyph-name="asterisk" unicode="*" horiz-adv-x="384" 
d="M335 658l-97 -62l97 -63l-18 -30l-102 53l-6 -115h-34l-6 115l-102 -53l-17 30l96 63l-96 62l17 30l102 -53l6 115h34l6 -115l102 53z" />
    <glyph glyph-name="plus" unicode="+" 
d="M497 289h-191v-199h-50v199h-194v45h194v198h50v-198h191v-45z" />
    <glyph glyph-name="comma" unicode="," horiz-adv-x="270" 
d="M174 75l-36 -255h-43l17 255h62z" />
    <glyph glyph-name="hyphen" unicode="-" horiz-adv-x="343" 
d="M285 333v-44h-228v44h228z" />
    <glyph glyph-name="period" unicode="." horiz-adv-x="270" 
d="M134 88q21 0 35.5 -13.5t14.5 -36.5q0 -21 -14.5 -34.5t-35.5 -13.5q-19 0 -33.5 13.5t-14.5 34.5q0 22 14 36t34 14z" />
    <glyph glyph-name="slash" unicode="/" horiz-adv-x="598" 
d="M589 780l-523 -901h-57l523 901h57z" />
    <glyph glyph-name="zero" unicode="0" horiz-adv-x="607" 
d="M303 670q117 0 174.5 -90.5t57.5 -243.5q0 -152 -57 -249t-175 -97t-175 97t-57 249t57.5 243t174.5 91zM303 622q-177 0 -177 -286q0 -135 42.5 -216t134.5 -81q93 0 135.5 81t42.5 216q0 286 -178 286z" />
    <glyph glyph-name="one" unicode="1" horiz-adv-x="370" 
d="M232 660h21v-660h-52v601l-153 -50l-12 45z" />
    <glyph glyph-name="two" unicode="2" horiz-adv-x="549" 
d="M144 47h351v-47h-447v15l239 248q63 65 92.5 111.5t29.5 99.5q0 61 -39 104.5t-105 43.5q-68 0 -108.5 -45.5t-40.5 -105.5q0 -27 7 -58h-54q-7 27 -7 60q0 78 55.5 137.5t146.5 59.5q87 0 143.5 -55.5t56.5 -137.5q0 -65 -34.5 -118t-105.5 -127z" />
    <glyph glyph-name="three" unicode="3" horiz-adv-x="532" 
d="M264 406q83 0 147 -52t64 -149q0 -98 -67 -156.5t-160 -58.5q-137 0 -217 130l38 27q68 -108 179 -108q76 0 124.5 46t48.5 120q0 72 -48.5 114t-134.5 42h-56v16l190 235h-299v48h383v-17z" />
    <glyph glyph-name="four" unicode="4" horiz-adv-x="534" 
d="M509 175v-46h-101v-129h-52v129h-332v17l221 514h54l-209 -485h266v238h52v-238h101z" />
    <glyph glyph-name="five" unicode="5" horiz-adv-x="550" 
d="M266 407q97 0 162 -51.5t65 -150.5t-67 -157.5t-158 -58.5q-141 0 -221 130l37 27q69 -109 184 -109q74 0 122.5 47t48.5 121q0 73 -48.5 114.5t-135.5 41.5h-146v299h322v-47h-270v-212q51 6 105 6z" />
    <glyph glyph-name="six" unicode="6" horiz-adv-x="546" 
d="M277 418q89 0 151 -62t62 -151q0 -91 -62.5 -153t-154.5 -62t-154.5 62t-62.5 154q0 14 1 26.5t5 26t6.5 23t10 23.5t10.5 21t13 23t13.5 21.5t16 23.5t15.5 23l164 243h62l-179 -262q37 20 83 20zM273 37q70 0 117.5 48t47.5 119t-47.5 119.5t-117.5 48.5t-118 -48.5
t-48 -119.5q0 -72 47.5 -119.5t118.5 -47.5z" />
    <glyph glyph-name="seven" unicode="7" horiz-adv-x="490" 
d="M33 660h431v-17l-349 -643h-56l334 613h-360v47z" />
    <glyph glyph-name="eight" unicode="8" horiz-adv-x="572" 
d="M341 347q170 -59 170 -182q0 -77 -61.5 -126t-163.5 -49t-163.5 49t-61.5 127q0 123 170 181q-138 57 -138 165q0 74 55 116t138 42t138 -42t55 -117q0 -110 -138 -164zM144 510q0 -49 35.5 -80t106.5 -58q70 27 105.5 57.5t35.5 80.5q0 53 -40 84t-101 31t-101.5 -31
t-40.5 -84zM286 35q81 0 126.5 36t45.5 95q0 60 -43.5 93.5t-128.5 62.5q-85 -29 -128.5 -62.5t-43.5 -93.5q0 -59 45.5 -95t126.5 -36z" />
    <glyph glyph-name="nine" unicode="9" horiz-adv-x="546" 
d="M273 670q92 0 154.5 -62t62.5 -154q0 -12 -1.5 -24.5t-3 -22t-6.5 -22.5t-7 -20t-9.5 -21t-10.5 -19.5t-13 -20.5t-12.5 -19t-14.5 -21t-14 -21l-164 -243h-61l180 263q-34 -20 -84 -20q-89 0 -151 61.5t-62 150.5q0 91 62.5 153t154.5 62zM273 288q70 0 117.5 48.5
t47.5 119.5q0 72 -47 119.5t-118 47.5t-118.5 -47.5t-47.5 -119.5q0 -71 48 -119.5t118 -48.5z" />
    <glyph glyph-name="colon" unicode=":" horiz-adv-x="270" 
d="M134 486q21 0 35.5 -13.5t14.5 -36.5q0 -21 -14.5 -34.5t-35.5 -13.5q-19 0 -33.5 13.5t-14.5 34.5q0 22 14 36t34 14zM134 88q21 0 35.5 -13.5t14.5 -36.5q0 -21 -14.5 -34.5t-35.5 -13.5q-19 0 -33.5 13.5t-14.5 34.5q0 22 14 36t34 14z" />
    <glyph glyph-name="semicolon" unicode=";" horiz-adv-x="270" 
d="M134 486q21 0 35.5 -13.5t14.5 -36.5q0 -21 -14.5 -34.5t-35.5 -13.5q-19 0 -33.5 13.5t-14.5 34.5q0 22 14 36t34 14zM174 75l-36 -255h-43l17 255h62z" />
    <glyph glyph-name="less" unicode="&#x3c;" 
d="M484 500v-49l-335 -139l335 -139v-49l-426 180v17z" />
    <glyph glyph-name="equal" unicode="=" 
d="M488 436v-46h-416v46h416zM488 232v-45h-416v45h416z" />
    <glyph glyph-name="greater" unicode="&#x3e;" 
d="M76 500l426 -179v-17l-426 -180v49l335 139l-335 139v49z" />
    <glyph glyph-name="question" unicode="?" horiz-adv-x="442" 
d="M224 670q71 0 119.5 -46t48.5 -116q0 -49 -25 -86t-77 -84q-26 -24 -38.5 -37t-22 -31.5t-9.5 -37.5q0 -14 6 -38h-46q-10 18 -10 43q0 34 19.5 61t62.5 66q34 32 48.5 48.5t26.5 41t12 51.5q0 52 -33 85t-82 33q-44 0 -77 -26.5t-48 -77.5l-44 17q17 62 62 98t107 36z
M209 88q20 0 35 -13.5t15 -35.5t-15 -35.5t-35 -13.5t-35 13.5t-15 35.5t15 35.5t35 13.5z" />
    <glyph glyph-name="at" unicode="@" horiz-adv-x="912" 
d="M466 652q167 0 280 -106t113 -257q0 -114 -67.5 -181.5t-174.5 -67.5h-14v78q-22 -41 -66 -65t-96 -24q-85 0 -142 60.5t-57 149.5q0 88 57 148.5t143 60.5q50 0 93 -22t65 -60v74h48v-355q73 6 117.5 59.5t44.5 143.5q0 135 -97 227t-245 92q-156 0 -261 -101.5
t-105 -254.5q0 -152 105.5 -254.5t259.5 -102.5q73 0 138 24l11 -40q-72 -29 -154 -29q-171 0 -290 116.5t-119 285.5q0 170 120 285.5t293 115.5zM448 76q62 0 106 41.5t44 122.5q0 80 -44 121t-106 41q-67 0 -110 -46t-43 -117q0 -70 43.5 -116.5t109.5 -46.5z" />
    <glyph glyph-name="A" unicode="A" horiz-adv-x="664" 
d="M570 0l-65 157h-347l-65 -157h-54l283 670h21l282 -670h-55zM332 577l-154 -373h307z" />
    <glyph glyph-name="B" unicode="B" horiz-adv-x="613" 
d="M424 365q67 -16 104 -63t37 -114q0 -82 -54.5 -135t-150.5 -53h-262v660h224q83 0 130.5 -45t47.5 -116q0 -91 -76 -134zM317 614l-167 -1v-234h167q63 0 96 32.5t33 84.5q0 54 -33 86t-96 32zM355 47q75 0 116 39.5t41 102.5t-41 103t-116 40h-205v-285h205z" />
    <glyph glyph-name="C" unicode="C" horiz-adv-x="712" 
d="M391 670q83 0 153 -36t114 -98l-39 -31q-83 117 -227 117q-121 0 -202.5 -83.5t-81.5 -207.5q0 -125 81 -208.5t203 -83.5q145 0 227 116l39 -31q-44 -62 -114 -98t-153 -36q-142 0 -240 98t-98 242t98 242t240 98z" />
    <glyph glyph-name="D" unicode="D" horiz-adv-x="696" 
d="M284 660q169 0 264 -91.5t95 -237.5q0 -145 -95.5 -238t-263.5 -93h-186v660h186zM284 613h-134v-566h134q143 0 224 80.5t81 203.5q0 124 -81 203t-224 79z" />
    <glyph glyph-name="E" unicode="E" horiz-adv-x="563" 
d="M511 660v-47h-361v-233h281v-47h-281v-286h373v-47h-425v660h413z" />
    <glyph glyph-name="F" unicode="F" horiz-adv-x="518" 
d="M501 660v-47h-351v-255h292v-47h-292v-311h-52v660h403z" />
    <glyph glyph-name="G" unicode="G" horiz-adv-x="745" 
d="M391 670q81 0 150 -34.5t114 -96.5l-39 -31q-83 114 -224 114q-122 0 -203 -83.5t-81 -207.5q0 -125 81 -209t205 -84q77 0 140 35t100 95v109h-243v48h295v-168q-43 -78 -122 -122.5t-173 -44.5q-142 0 -240 98.5t-98 241.5q0 144 98 242t240 98z" />
    <glyph glyph-name="H" unicode="H" horiz-adv-x="706" 
d="M608 660v-660h-52v333h-406v-333h-52v660h52v-280h406v280h52z" />
    <glyph glyph-name="I" unicode="I" horiz-adv-x="247" 
d="M150 660v-660h-52v660h52z" />
    <glyph glyph-name="J" unicode="J" horiz-adv-x="366" 
d="M269 660v-517q0 -78 -43.5 -115.5t-116.5 -37.5q-39 0 -82 10v46q38 -7 75 -7q55 0 85 23t30 84v514h52z" />
    <glyph glyph-name="K" unicode="K" horiz-adv-x="613" 
d="M98 0v660h52v-660h-52zM233 356l344 -356h-67l-346 357l320 303h69z" />
    <glyph glyph-name="L" unicode="L" horiz-adv-x="499" 
d="M150 660v-613h325v-47h-377v660h52z" />
    <glyph glyph-name="M" unicode="M" horiz-adv-x="785" 
d="M667 670h20v-670h-52v536l-232 -330h-20l-233 330v-536h-52v670h20l275 -392z" />
    <glyph glyph-name="N" unicode="N" horiz-adv-x="706" 
d="M556 660h52v-670h-21l-437 559v-549h-52v670h20l438 -563v553z" />
    <glyph glyph-name="O" unicode="O" horiz-adv-x="783" 
d="M391 670q141 0 240 -98t99 -242q0 -143 -99 -241.5t-240 -98.5q-142 0 -240 98.5t-98 241.5q0 144 98 242t240 98zM392 622q-122 0 -203 -83.5t-81 -207.5t81 -208t203 -84q121 0 202 84t81 208q0 123 -81.5 207t-201.5 84z" />
    <glyph glyph-name="P" unicode="P" horiz-adv-x="564" 
d="M322 660q92 0 146 -51t54 -131t-54 -131t-146 -51h-172v-296h-52v660h224zM320 613h-170v-270h170q71 0 109.5 37.5t38.5 97.5t-38.5 97.5t-109.5 37.5z" />
    <glyph glyph-name="Q" unicode="Q" horiz-adv-x="783" 
d="M935 -150q49 0 98 6v-42q-57 -10 -102 -10q-248 0 -403 214q-65 -28 -137 -28q-142 0 -240 98.5t-98 241.5q0 144 98 242t240 98q141 0 240 -98t99 -242q0 -91 -43 -167.5t-116 -121.5q144 -191 364 -191zM108 331q0 -124 81 -208t203 -84q121 0 202 84t81 208t-81 207.5
t-203 83.5q-121 0 -202 -83.5t-81 -207.5z" />
    <glyph glyph-name="R" unicode="R" horiz-adv-x="614" 
d="M594 0h-61l-222 296h-161v-296h-52v660h224q92 0 146 -51t54 -131q0 -68 -40 -116.5t-111 -61.5zM150 613v-270h170q71 0 109.5 37.5t38.5 97.5t-38.5 97.5t-109.5 37.5h-170z" />
    <glyph glyph-name="S" unicode="S" horiz-adv-x="556" 
d="M283 670q63 0 114.5 -28.5t83.5 -76.5l-38 -29q-60 86 -160 86q-56 0 -97 -28t-41 -84q0 -25 8 -44.5t26.5 -34.5t35 -24.5t47.5 -24.5l74 -36q79 -38 115.5 -77.5t36.5 -103.5q0 -78 -58.5 -126.5t-146.5 -48.5q-75 0 -136.5 37.5t-100.5 102.5l39 29q76 -120 199 -120
q66 0 108 33.5t42 91.5q0 49 -28 76.5t-94 59.5l-75 36q-70 33 -108 70t-38 101q0 75 55.5 119t136.5 44z" />
    <glyph glyph-name="T" unicode="T" horiz-adv-x="583" 
d="M559 660v-47h-242v-613h-52v613h-241v47h535z" />
    <glyph glyph-name="U" unicode="U" horiz-adv-x="683" 
d="M595 660v-404q0 -124 -69.5 -195t-183.5 -71q-116 0 -185 71t-69 195v404h52v-406q0 -103 55.5 -159t146.5 -56q90 0 145.5 56t55.5 159v406h52z" />
    <glyph glyph-name="V" unicode="V" horiz-adv-x="664" 
d="M569 660h56l-282 -670h-21l-283 670h56l237 -571z" />
    <glyph glyph-name="W" unicode="W" horiz-adv-x="1072" 
d="M966 660h55l-244 -670h-21l-220 577l-220 -577h-21l-244 670h56l200 -563l219 573h20l220 -573z" />
    <glyph glyph-name="X" unicode="X" horiz-adv-x="588" 
d="M552 0h-60l-198 296l-198 -296h-60l229 340l-213 320h60l183 -279l180 279h60l-210 -322z" />
    <glyph glyph-name="Y" unicode="Y" horiz-adv-x="613" 
d="M562 660l-230 -381v-279h-52v281l-229 379h57l199 -331l198 331h57z" />
    <glyph glyph-name="Z" unicode="Z" horiz-adv-x="590" 
d="M118 47h434v-47h-514v17l432 596h-389v47h470v-17z" />
    <glyph glyph-name="bracketleft" unicode="[" horiz-adv-x="340" 
d="M284 729v-45h-127v-769h127v-46h-177v860h177z" />
    <glyph glyph-name="backslash" unicode="\" horiz-adv-x="598" 
d="M9 780h57l523 -901h-57z" />
    <glyph glyph-name="bracketright" unicode="]" horiz-adv-x="340" 
d="M232 729v-860h-176v46h127v769h-127v45h176z" />
    <glyph glyph-name="asciicircum" unicode="^" horiz-adv-x="501" 
d="M436 289h-53l-132 289l-132 -289h-54l175 381h21z" />
    <glyph glyph-name="underscore" unicode="_" horiz-adv-x="503" 
d="M455 -80v-44h-408v44h408z" />
    <glyph glyph-name="grave" unicode="`" horiz-adv-x="213" 
d="M92 780l91 -216h-40l-113 207v9h62z" />
    <glyph glyph-name="a" unicode="a" horiz-adv-x="521" 
d="M255 493q82 0 131.5 -49t49.5 -141v-303h-48v76q-56 -86 -173 -86q-70 0 -118 34.5t-48 96.5q0 59 46 94t122 35h168v55q0 69 -36 105t-97 36q-84 0 -147 -81l-35 28q70 100 185 100zM220 34q68 0 116.5 42t48.5 104v27h-163q-59 0 -90 -21.5t-31 -61.5q0 -44 35 -67
t84 -23z" />
    <glyph glyph-name="b" unicode="b" horiz-adv-x="634" 
d="M338 493q102 0 171 -73t69 -179t-69 -178.5t-171 -72.5q-63 0 -116.5 29t-80.5 78v-97h-48v750h50v-360q28 47 80.5 75t114.5 28zM333 37q84 0 138.5 58.5t54.5 146.5q0 87 -54.5 145.5t-138.5 58.5q-79 0 -134.5 -52t-55.5 -153q0 -100 55.5 -152t134.5 -52z" />
    <glyph glyph-name="c" unicode="c" horiz-adv-x="552" 
d="M306 493q122 0 195 -99l-36 -29q-62 81 -159 81q-84 0 -141 -59t-57 -145q0 -87 56.5 -146t140.5 -59q97 0 160 81l36 -29q-73 -99 -196 -99q-104 0 -176.5 73.5t-72.5 178.5t72.5 178t177.5 73z" />
    <glyph glyph-name="d" unicode="d" horiz-adv-x="634" 
d="M491 750h50v-750h-48v98q-27 -50 -80.5 -79t-116.5 -29q-102 0 -171 72.5t-69 178.5t68.5 179t171.5 73q62 0 114.5 -28t80.5 -76v361zM301 37q79 0 134.5 52t55.5 152q0 101 -55.5 153t-134.5 52q-84 0 -138.5 -58.5t-54.5 -145.5q0 -88 54.5 -146.5t138.5 -58.5z" />
    <glyph glyph-name="e" unicode="e" horiz-adv-x="572" 
d="M516 278q0 -29 -4 -49h-404q4 -84 60 -138t139 -54q96 0 161 76l32 -33q-77 -90 -194 -90q-105 0 -177.5 72.5t-72.5 178.5q0 105 71 178.5t173 73.5q91 0 153.5 -59.5t62.5 -155.5zM298 447q-73 0 -125 -48.5t-63 -123.5h354q3 78 -46 125t-120 47z" />
    <glyph glyph-name="f" unicode="f" horiz-adv-x="284" 
d="M256 714q-105 0 -105 -101v-130h127v-46h-127v-437h-50v437h-71v46h71v132q0 75 39.5 110t106.5 35q29 0 55 -6v-44q-23 4 -46 4z" />
    <glyph glyph-name="g" unicode="g" horiz-adv-x="640" 
d="M499 483h48v-440q0 -108 -64 -170.5t-167 -62.5q-68 0 -126 26t-96 68l31 34q81 -81 190 -81q82 0 132 48t50 136v64q-28 -47 -81 -75t-115 -28q-102 0 -170.5 71t-68.5 175q0 103 69 174.5t170 71.5q63 0 117 -29t81 -78v96zM308 49q78 0 133.5 51t55.5 148t-56 147.5
t-133 50.5q-84 0 -139 -57t-55 -142t55 -141.5t139 -56.5z" />
    <glyph glyph-name="h" unicode="h" horiz-adv-x="558" 
d="M296 493q82 0 129 -52t47 -136v-305h-50v301q0 65 -36.5 105t-98.5 40q-63 0 -103.5 -41t-40.5 -104v-301h-50v750h50v-333q52 76 153 76z" />
    <glyph glyph-name="i" unicode="i" horiz-adv-x="236" 
d="M118 713q19 0 31.5 -13t12.5 -31t-12.5 -31t-31.5 -13q-18 0 -31 13t-13 31t13 31t31 13zM143 483v-483h-50v483h50z" />
    <glyph glyph-name="j" unicode="j" horiz-adv-x="236" 
d="M118 713q19 0 31.5 -13t12.5 -31t-12.5 -31t-31.5 -13q-18 0 -31 13t-13 31t13 31t31 13zM143 483v-528q0 -75 -39.5 -110t-106.5 -35q-29 0 -55 6v44q23 -4 46 -4q105 0 105 101v526h50z" />
    <glyph glyph-name="k" unicode="k" horiz-adv-x="482" 
d="M93 0v750h50v-750h-50zM222 271l243 -271h-66l-241 272l217 211h68z" />
    <glyph glyph-name="l" unicode="l" horiz-adv-x="236" 
d="M143 750v-750h-50v750h50z" />
    <glyph glyph-name="m" unicode="m" horiz-adv-x="866" 
d="M609 493q81 0 126.5 -51.5t45.5 -136.5v-305h-51v301q0 65 -34 105t-94 40q-61 0 -100.5 -40t-39.5 -97v-309h-50v301q0 65 -34.5 105t-94.5 40q-62 0 -101 -41t-39 -104v-301h-50v483h48v-63q51 73 149 73q112 0 152 -94q53 94 167 94z" />
    <glyph glyph-name="n" unicode="n" horiz-adv-x="558" 
d="M295 493q83 0 130 -52t47 -136v-305h-50v302q0 64 -36.5 104t-98.5 40q-63 0 -103.5 -41t-40.5 -103v-302h-50v483h48v-65q53 75 154 75z" />
    <glyph glyph-name="o" unicode="o" horiz-adv-x="612" 
d="M306 493q104 0 177 -72.5t73 -178.5t-73 -179t-178 -73q-104 0 -176.5 73t-72.5 179t72.5 178.5t177.5 72.5zM306 446q-85 0 -141.5 -59t-56.5 -146t56.5 -145.5t140.5 -58.5t141.5 59t57.5 145q0 87 -57 146t-141 59z" />
    <glyph glyph-name="p" unicode="p" horiz-adv-x="634" 
d="M338 493q102 0 171 -72.5t69 -178.5t-69 -179t-171 -73q-61 0 -114 27.5t-81 75.5v-273h-50v663h48v-97q27 49 80.5 78t116.5 29zM333 37q84 0 138.5 58.5t54.5 145.5q0 88 -54.5 146.5t-138.5 58.5q-79 0 -134.5 -52t-55.5 -152q0 -101 55.5 -153t134.5 -52z" />
    <glyph glyph-name="q" unicode="q" horiz-adv-x="634" 
d="M493 483h48v-663h-50v273q-28 -48 -81 -75.5t-114 -27.5q-103 0 -171.5 73t-68.5 179t69 178.5t171 72.5q63 0 116.5 -29t80.5 -79v98zM301 37q79 0 134.5 52t55.5 153q0 100 -55.5 152t-134.5 52q-83 0 -138 -59t-55 -146t54.5 -145.5t138.5 -58.5z" />
    <glyph glyph-name="r" unicode="r" horiz-adv-x="350" 
d="M301 486q4 0 31 -3v-44h-25q-65 0 -114.5 -42t-49.5 -113v-284h-50v483h48v-82q26 42 68 63.5t92 21.5z" />
    <glyph glyph-name="s" unicode="s" horiz-adv-x="455" 
d="M232 493q96 0 156 -77l-33 -32q-55 62 -126 62q-42 0 -70 -19.5t-28 -56.5q0 -31 21 -48.5t70 -38.5l45 -20q62 -27 93.5 -58t31.5 -81q0 -64 -47 -99t-114 -35q-115 0 -185 100l35 33q67 -86 150 -86q46 0 77.5 22t31.5 63q0 19 -6.5 33.5t-24 26.5t-29.5 18.5t-39 18.5
l-44 19q-58 25 -88.5 53.5t-30.5 75.5q0 58 45 92t109 34z" />
    <glyph glyph-name="t" unicode="t" horiz-adv-x="363" 
d="M268 36q29 0 67 8v-44q-38 -10 -75 -10q-68 0 -108 35t-40 110v302h-84v46h84v137h51v-137h156v-46h-156v-300q0 -101 105 -101z" />
    <glyph glyph-name="u" unicode="u" horiz-adv-x="551" 
d="M465 483v-300q0 -87 -54 -140t-135 -53q-82 0 -136 53t-54 140v300h50v-302q0 -66 40 -105t100 -39q59 0 99 39t40 105v302h50z" />
    <glyph glyph-name="v" unicode="v" horiz-adv-x="527" 
d="M441 483h54l-220 -493h-21l-222 493h54l178 -407z" />
    <glyph glyph-name="w" unicode="w" horiz-adv-x="845" 
d="M759 483h54l-194 -493h-21l-176 407l-175 -407h-20l-195 493h54l152 -401l174 411h21l175 -409z" />
    <glyph glyph-name="x" unicode="x" horiz-adv-x="480" 
d="M454 0h-60l-154 215l-154 -215h-60l184 254l-169 229h60l138 -192l140 192h60l-170 -231z" />
    <glyph glyph-name="y" unicode="y" horiz-adv-x="527" 
d="M441 483h54l-241 -562q-48 -111 -151 -111q-35 0 -68 9v44q32 -7 61 -7q76 0 112 83l31 71l-207 473h55l179 -416z" />
    <glyph glyph-name="z" unicode="z" horiz-adv-x="450" 
d="M110 46h308v-46h-385v17l303 420h-280v46h357v-17z" />
    <glyph glyph-name="braceleft" unicode="{" horiz-adv-x="395" 
d="M291 684q-91 0 -91 -94q0 -31 14 -105.5t14 -101.5q0 -36 -14 -55t-42 -29q56 -22 56 -84q0 -27 -14 -101t-14 -105q0 -95 91 -95h48v-45h-54q-134 0 -134 130q0 37 14 114t14 99q0 64 -65 64h-57v46h57q65 0 65 64q0 21 -14 99.5t-14 114.5q0 129 134 129h54v-45h-48z
" />
    <glyph glyph-name="bar" unicode="|" horiz-adv-x="332" 
d="M189 780v-901h-46v901h46z" />
    <glyph glyph-name="braceright" unicode="}" horiz-adv-x="395" 
d="M281 322h57v-46h-57q-66 0 -66 -64q0 -22 14 -99t14 -114q0 -130 -134 -130h-53v45h48q91 0 91 95q0 31 -14 105t-14 101q0 64 56 84q-28 10 -42 29t-14 55q0 27 14 101.5t14 105.5q0 94 -91 94h-48v45h53q134 0 134 -129q0 -36 -14 -114.5t-14 -99.5q0 -64 66 -64z" />
    <glyph glyph-name="asciitilde" unicode="~" 
d="M155 389q37 0 84 -29l97 -59q42 -24 64 -24q20 0 31 13.5t11 33.5v21h44q2 -4 2 -24q0 -37 -23 -63.5t-61 -26.5q-37 0 -84 29l-97 58q-39 25 -64 25q-20 0 -31 -13.5t-11 -34.5v-20h-44l-1 9v15q0 37 22.5 63.5t60.5 26.5z" />
    <glyph glyph-name="exclamdown" unicode="&#xa1;" horiz-adv-x="285" 
d="M142 493q20 0 35 -13.5t15 -34.5q0 -22 -15 -36t-35 -14t-34.5 14t-14.5 36q0 21 14.5 34.5t34.5 13.5zM164 289l10 -469h-63l10 469h43z" />
    <glyph glyph-name="cent" unicode="&#xa2;" horiz-adv-x="554" 
d="M303 125q85 6 144 81l35 -29q-67 -93 -179 -99v-170h-51v171q-92 13 -153.5 84t-61.5 166t61.5 166t153.5 84v172h51v-170q113 -7 180 -100l-36 -29q-57 75 -144 81v-408zM90 329q0 -76 45.5 -132.5t116.5 -69.5v404q-71 -12 -116.5 -68.5t-45.5 -133.5z" />
    <glyph glyph-name="sterling" unicode="&#xa3;" horiz-adv-x="509" 
d="M249 209q0 -102 -78 -163h293v-46h-401v15q134 78 134 193q0 21 -5 44h-119v46h104q-7 18 -30 60t-34.5 75.5t-11.5 69.5q0 75 50 121t129 46q72 0 121 -40t71 -115l-47 -16q-39 123 -144 123q-59 0 -92.5 -36t-33.5 -90q0 -32 12.5 -64t33.5 -71t30 -63h161v-46h-147
q4 -28 4 -43z" />
    <glyph glyph-name="currency" unicode="&#xa4;" horiz-adv-x="657" 
d="M551 330q0 -82 -51 -144l125 -124l-31 -32l-126 126q-62 -51 -143 -51q-79 0 -141 49l-121 -124l-31 31l121 124q-52 61 -52 145q0 85 52 145l-121 124l31 31l121 -124q62 49 142 49q81 0 142 -50l125 125l32 -31l-125 -126q51 -61 51 -143zM325 152q74 0 123.5 51.5
t49.5 126.5q0 76 -49.5 127.5t-122.5 51.5q-74 0 -123 -51.5t-49 -127.5t49 -127t122 -51z" />
    <glyph glyph-name="yen" unicode="&#xa5;" horiz-adv-x="532" 
d="M522 660l-222 -312h194v-45h-202v-109h202v-45h-202v-149h-52v149h-201v45h201v109h-201v45h194l-222 312h57l198 -280l198 280h58z" />
    <glyph glyph-name="brokenbar" unicode="&#xa6;" horiz-adv-x="332" 
d="M189 780v-300h-46v300h46zM189 179v-300h-46v300h46z" />
    <glyph glyph-name="section" unicode="&#xa7;" horiz-adv-x="561" 
d="M523 172q0 -50 -34 -84.5t-93 -41.5q2 -18 2 -26q0 -57 -39.5 -95t-104.5 -38q-92 0 -152 83l37 30q52 -65 117 -65q41 0 65 23t24 61q0 34 -22 61.5t-68 64.5l-97 76q-64 49 -92 86t-28 81q0 51 34.5 85t93.5 41q-2 18 -2 26q0 57 39.5 95t103.5 38q91 0 153 -82
l-38 -30q-52 65 -117 65q-40 0 -64.5 -23t-24.5 -61q0 -35 22 -63t69 -63l97 -77q64 -49 91.5 -86t27.5 -81zM379 87q42 5 67 26.5t25 57.5q0 30 -20 56.5t-68 64.5l-100 80q-77 59 -101 101q-41 -6 -66.5 -27t-25.5 -57q0 -30 20.5 -56.5t67.5 -63.5l97 -77
q81 -65 104 -105z" />
    <glyph glyph-name="dieresis" unicode="&#xa8;" horiz-adv-x="346" 
d="M73 712q18 0 30.5 -12.5t12.5 -30.5q0 -17 -12.5 -29.5t-30.5 -12.5q-17 0 -30 12.5t-13 29.5q0 18 13 30.5t30 12.5zM273 712q18 0 31 -12.5t13 -30.5q0 -17 -13 -29.5t-31 -12.5q-17 0 -30 12.5t-13 29.5q0 18 13 30.5t30 12.5z" />
    <glyph glyph-name="copyright" unicode="&#xa9;" horiz-adv-x="783" 
d="M391 670q141 0 240 -98t99 -242q0 -143 -99.5 -241.5t-239.5 -98.5q-141 0 -239.5 98.5t-98.5 241.5q0 144 98.5 242t239.5 98zM391 630q-124 0 -209 -85.5t-85 -213.5t85 -214.5t209 -86.5t209.5 86.5t85.5 214.5q0 127 -85.5 213t-209.5 86zM400 527q94 0 153 -77
l-33 -29q-48 61 -120 61q-63 0 -104.5 -43.5t-41.5 -108.5q0 -63 41.5 -107t103.5 -44q72 0 121 60l33 -28q-59 -77 -154 -77q-81 0 -138 57t-57 139q0 83 57 140t139 57z" />
    <glyph glyph-name="ordfeminine" unicode="&#xaa;" horiz-adv-x="362" 
d="M178 557q55 0 87.5 -32t32.5 -91v-190h-43v41q-36 -47 -104 -47q-46 0 -75.5 22.5t-29.5 62.5q0 39 29.5 62t79.5 23h97v28q0 39 -21 59t-57 20q-47 0 -89 -45l-26 29q52 58 119 58zM160 276q39 0 65.5 23t26.5 58v15h-92q-66 0 -66 -48q0 -24 19 -36t47 -12z" />
    <glyph glyph-name="guillemotleft" unicode="&#xab;" horiz-adv-x="460" 
d="M212 457l34 -30l-144 -157l144 -159l-34 -29l-169 179v17zM382 457l34 -30l-144 -157l144 -159l-34 -29l-169 179v17z" />
    <glyph glyph-name="logicalnot" unicode="&#xac;" 
d="M467 334v-242h-50v197h-356v45h406z" />
    <glyph glyph-name="uni00AD" unicode="&#xad;" horiz-adv-x="343" 
d="M285 333v-44h-228v44h228z" />
    <glyph glyph-name="registered" unicode="&#xae;" horiz-adv-x="569" 
d="M285 675q98 0 167 -70.5t69 -169.5t-69 -169t-167 -70q-97 0 -167 70.5t-70 168.5q0 99 69.5 169.5t167.5 70.5zM285 235q83 0 140.5 58t57.5 142q0 85 -57.5 143.5t-140.5 58.5t-140.5 -58.5t-57.5 -143.5q0 -83 57.5 -141.5t140.5 -58.5zM378 483q0 -51 -46 -70
l78 -103h-50l-73 95h-50v-95h-42l-1 251h97q39 0 63 -21.5t24 -56.5zM236 442h54q21 0 33 11.5t12 28.5q0 19 -12 30.5t-33 11.5h-54v-82z" />
    <glyph glyph-name="macron" unicode="&#xaf;" horiz-adv-x="322" 
d="M292 691v-43h-262v43h262z" />
    <glyph glyph-name="degree" unicode="&#xb0;" horiz-adv-x="360" 
d="M180 670q61 0 103 -42t42 -101q0 -60 -42 -102t-103 -42t-103 42t-42 102q0 59 42 101t103 42zM180 628q-41 0 -70 -29.5t-29 -71.5q0 -43 29 -72t70 -29q42 0 70.5 29t28.5 72q0 42 -28.5 71.5t-70.5 29.5z" />
    <glyph glyph-name="plusminus" unicode="&#xb1;" 
d="M305 531v-175h183v-46h-183v-176h-50v176h-183v46h183v175h50zM488 46v-46h-416v46h416z" />
    <glyph glyph-name="uni00B2" unicode="&#xb2;" horiz-adv-x="363" 
d="M119 406h203v-42h-286v12l150 157q37 39 54 67t17 59q0 35 -22.5 60t-59.5 25q-39 0 -62.5 -26t-23.5 -63q0 -15 3 -33h-45q-4 16 -4 36q0 52 36 90t96 38q57 0 93.5 -35t36.5 -89q0 -29 -14 -58t-29.5 -48t-45.5 -51z" />
    <glyph glyph-name="uni00B3" unicode="&#xb3;" horiz-adv-x="352" 
d="M186 623q49 -4 86 -36.5t37 -91.5q0 -62 -43 -99.5t-103 -37.5q-90 0 -140 84l33 24q43 -66 107 -66q43 0 70.5 26.5t27.5 68.5t-28 65t-79 23h-38v13l111 142h-177v42h248v-14z" />
    <glyph glyph-name="acute" unicode="&#xb4;" horiz-adv-x="213" 
d="M183 780v-9l-113 -207h-40l91 216h62z" />
    <glyph glyph-name="uni00B5" unicode="&#xb5;" horiz-adv-x="584" 
d="M530 41q10 0 30 3v-44q-25 -5 -42 -5q-73 0 -90 71q-48 -76 -144 -76q-93 0 -141 73v-243h-50v663h50v-294q0 -67 39.5 -109.5t99.5 -42.5q61 0 100.5 42t39.5 110v294h50v-364q0 -78 58 -78z" />
    <glyph glyph-name="paragraph" unicode="&#xb6;" horiz-adv-x="542" 
d="M336 660v-416h-60q-101 0 -167 58t-66 152t65.5 150t167.5 56h60zM445 660v-695q0 -155 -151 -155q-36 0 -74 10v45q40 -8 66 -8q51 0 79.5 24t28.5 86v693h51z" />
    <glyph glyph-name="periodcentered" unicode="&#xb7;" horiz-adv-x="270" 
d="M134 360q21 0 35.5 -13.5t14.5 -36.5q0 -21 -14.5 -34.5t-35.5 -13.5q-19 0 -33.5 13.5t-14.5 34.5q0 22 14 36t34 14z" />
    <glyph glyph-name="cedilla" unicode="&#xb8;" horiz-adv-x="247" 
d="M146 19q71 -33 71 -101q0 -46 -32.5 -77t-87.5 -31q-32 0 -67 10v39q32 -7 60 -7q35 0 57.5 18t22.5 54q0 43 -43 80z" />
    <glyph glyph-name="uni00B9" unicode="&#xb9;" horiz-adv-x="346" 
d="M205 780v-374h96v-42h-252v42h109v332h-107v42h154z" />
    <glyph glyph-name="ordmasculine" unicode="&#xba;" horiz-adv-x="412" 
d="M205 556q67 0 114 -46t47 -113t-47 -113t-114 -46q-66 0 -112.5 46t-46.5 113t46.5 113t112.5 46zM205 514q-49 0 -81 -33.5t-32 -83.5t32 -83.5t81 -33.5t81.5 33.5t32.5 83.5t-32.5 83.5t-81.5 33.5z" />
    <glyph glyph-name="guillemotright" unicode="&#xbb;" horiz-adv-x="460" 
d="M78 457l169 -179v-17l-169 -179l-34 29l144 159l-144 157zM248 457l169 -179v-17l-169 -179l-34 29l144 159l-144 157z" />
    <glyph glyph-name="onequarter" unicode="&#xbc;" horiz-adv-x="866" 
d="M301 286v-42h-252v42h109v332h-107v42h154v-374h96zM627 660h48l-380 -660h-47zM848 118v-40h-61v-78h-44v78h-208v14l135 324h48l-125 -298h150v142h44v-142h61z" />
    <glyph glyph-name="onehalf" unicode="&#xbd;" horiz-adv-x="905" 
d="M301 286v-42h-252v42h109v332h-107v42h154v-374h96zM627 660h48l-380 -660h-47zM661 42h203v-42h-286v12l150 157q37 39 54 67t17 59q0 35 -22.5 60t-59.5 25q-39 0 -62.5 -26t-23.5 -63q0 -15 3 -33h-45q-4 16 -4 36q0 52 36 90t96 38q57 0 93.5 -35t36.5 -89
q0 -29 -14 -58t-29.5 -48t-45.5 -51z" />
    <glyph glyph-name="threequarters" unicode="&#xbe;" horiz-adv-x="837" 
d="M309 375q0 -62 -43 -99.5t-103 -37.5q-90 0 -140 84l33 24q43 -66 107 -66q43 0 70.5 26.5t27.5 68.5t-28 65t-79 23h-38v13l111 142h-177v42h248v-14l-112 -143q49 -4 86 -36.5t37 -91.5zM598 660h48l-380 -660h-47zM819 118v-40h-61v-78h-44v78h-208v14l135 324h48
l-125 -298h150v142h44v-142h61z" />
    <glyph glyph-name="questiondown" unicode="&#xbf;" horiz-adv-x="442" 
d="M232 493q20 0 34.5 -13t14.5 -35q0 -23 -14.5 -37t-34.5 -14t-35 14.5t-15 36.5q0 21 15 34.5t35 13.5zM262 289q10 -22 10 -43q0 -34 -20 -61.5t-62 -66.5q-33 -32 -48.5 -49t-27.5 -42t-12 -52q0 -52 33.5 -85t82.5 -33q44 0 77 26.5t48 77.5l44 -17q-17 -62 -62 -98
t-107 -36q-71 0 -119.5 46.5t-48.5 116.5q0 35 15.5 67t33.5 52.5t52 51.5q39 36 55 57.5t16 49.5q0 14 -6 38h46z" />
    <glyph glyph-name="Agrave" unicode="&#xc0;" horiz-adv-x="664" 
d="M353 724h-40l-113 177v9h62zM570 0l-65 157h-347l-65 -157h-54l283 670h21l282 -670h-55zM332 577l-154 -373h307z" />
    <glyph glyph-name="Aacute" unicode="&#xc1;" horiz-adv-x="664" 
d="M465 901l-113 -177h-40l91 186h62v-9zM570 0l-65 157h-347l-65 -157h-54l283 670h21l282 -670h-55zM332 577l-154 -373h307z" />
    <glyph glyph-name="Acircumflex" unicode="&#xc2;" horiz-adv-x="664" 
d="M332 853l-119 -129h-42l146 186h30l146 -186h-42zM570 0l-65 157h-347l-65 -157h-54l283 670h21l282 -670h-55zM332 577l-154 -373h307z" />
    <glyph glyph-name="Atilde" unicode="&#xc3;" horiz-adv-x="664" 
d="M230 759h-45q-1 6 -1 22q0 35 19 60.5t53 25.5q28 0 68 -27l36 -24q30 -21 45 -21q32 0 32 42v20h44q1 -7 1 -22q0 -36 -18.5 -61t-52.5 -25q-29 0 -69 27l-35 23q-32 21 -45 21q-32 0 -32 -42v-19zM570 0l-65 157h-347l-65 -157h-54l283 670h21l282 -670h-55zM332 577
l-154 -373h307z" />
    <glyph glyph-name="Adieresis" unicode="&#xc4;" horiz-adv-x="664" 
d="M219 765q-17 0 -30 12.5t-13 30.5t12.5 30t30.5 12t30.5 -12t12.5 -30t-12.5 -30.5t-30.5 -12.5zM445 765q-17 0 -30 12.5t-13 29.5q0 18 13 30.5t30 12.5q18 0 30.5 -12.5t12.5 -30.5q0 -17 -12.5 -29.5t-30.5 -12.5zM570 0l-65 157h-347l-65 -157h-54l283 670h21
l282 -670h-55zM332 577l-154 -373h307z" />
    <glyph glyph-name="Aring" unicode="&#xc5;" horiz-adv-x="664" 
d="M332 708q-43 0 -73 29.5t-30 72.5t30 72.5t73 29.5q44 0 74 -29.5t30 -72.5t-30 -72.5t-74 -29.5zM333 871q-26 0 -43.5 -17.5t-17.5 -43.5t17.5 -43.5t43.5 -17.5q25 0 42.5 17.5t17.5 43.5t-17 43.5t-43 17.5zM570 0l-65 157h-347l-65 -157h-54l283 670h21l282 -670
h-55zM332 577l-154 -373h307z" />
    <glyph glyph-name="AE" unicode="&#xc6;" horiz-adv-x="807" 
d="M520 47h247v-47h-293l-27 158h-291l-83 -158h-56l344 660h394v-47h-334l41 -233h213v-47h-205zM374 583l-194 -378h259z" />
    <glyph glyph-name="Ccedilla" unicode="&#xc7;" horiz-adv-x="712" 
d="M392 39q145 0 227 116l39 -31q-38 -54 -96.5 -88.5t-129.5 -43.5q32 -30 32 -74q0 -46 -32.5 -77t-87.5 -31q-32 0 -67 10v39q32 -7 60 -7q35 0 57.5 18t22.5 54t-28 66q-141 1 -238.5 99t-97.5 241q0 144 98 242t240 98q83 0 153 -36t114 -98l-39 -31q-83 117 -227 117
q-121 0 -202.5 -83.5t-81.5 -207.5q0 -125 81 -208.5t203 -83.5z" />
    <glyph glyph-name="Egrave" unicode="&#xc8;" horiz-adv-x="563" 
d="M231 910l91 -186h-40l-113 177v9h62zM511 660v-47h-361v-233h281v-47h-281v-286h373v-47h-425v660h413z" />
    <glyph glyph-name="Eacute" unicode="&#xc9;" horiz-adv-x="563" 
d="M434 910v-9l-113 -177h-40l91 186h62zM511 660v-47h-361v-233h281v-47h-281v-286h373v-47h-425v660h413z" />
    <glyph glyph-name="Ecircumflex" unicode="&#xca;" horiz-adv-x="563" 
d="M301 853l-119 -129h-42l146 186h30l146 -186h-42zM150 47h373v-47h-425v660h413v-47h-361v-233h281v-47h-281v-286z" />
    <glyph glyph-name="Edieresis" unicode="&#xcb;" horiz-adv-x="563" 
d="M188 850q18 0 30.5 -12t12.5 -30t-12.5 -30.5t-30.5 -12.5q-17 0 -30 12.5t-13 30.5t12.5 30t30.5 12zM414 850q18 0 30.5 -12.5t12.5 -30.5q0 -17 -12.5 -29.5t-30.5 -12.5q-17 0 -30 12.5t-13 29.5q0 18 13 30.5t30 12.5zM511 660v-47h-361v-233h281v-47h-281v-286h373
v-47h-425v660h413z" />
    <glyph glyph-name="Igrave" unicode="&#xcc;" horiz-adv-x="247" 
d="M53 910l91 -186h-40l-113 177v9h62zM150 660v-660h-52v660h52z" />
    <glyph glyph-name="Iacute" unicode="&#xcd;" horiz-adv-x="247" 
d="M256 910v-9l-113 -177h-40l91 186h62zM150 660v-660h-52v660h52z" />
    <glyph glyph-name="Icircumflex" unicode="&#xce;" horiz-adv-x="247" 
d="M138 910l146 -186h-42l-119 129l-119 -129h-42l146 186h30zM98 0v660h52v-660h-52z" />
    <glyph glyph-name="Idieresis" unicode="&#xcf;" horiz-adv-x="247" 
d="M10 850q18 0 30.5 -12t12.5 -30t-12.5 -30.5t-30.5 -12.5q-17 0 -30 12.5t-13 30.5t12.5 30t30.5 12zM236 850q18 0 30.5 -12.5t12.5 -30.5q0 -17 -12.5 -29.5t-30.5 -12.5q-17 0 -30 12.5t-13 29.5q0 18 13 30.5t30 12.5zM150 660v-660h-52v660h52z" />
    <glyph glyph-name="Eth" unicode="&#xd0;" horiz-adv-x="696" 
d="M284 660q169 0 264 -91.5t95 -237.5q0 -145 -95.5 -238t-263.5 -93h-186v281h-100v45h100v334h186zM284 47q143 0 224 80.5t81 203.5q0 124 -81 203t-224 79h-134v-287h142v-45h-142v-234h134z" />
    <glyph glyph-name="Ntilde" unicode="&#xd1;" horiz-adv-x="706" 
d="M250 759h-45q-1 6 -1 22q0 35 19 60.5t53 25.5q28 0 68 -27l36 -24q30 -21 45 -21q32 0 32 42v20h44q1 -7 1 -22q0 -36 -18.5 -61t-52.5 -25q-29 0 -69 27l-35 23q-31 21 -45 21q-32 0 -32 -42v-19zM556 660h52v-670h-21l-437 559v-549h-52v670h20l438 -563v553z" />
    <glyph glyph-name="Ograve" unicode="&#xd2;" horiz-adv-x="783" 
d="M321 910l91 -186h-40l-113 177v9h62zM391 670q141 0 240 -98t99 -242q0 -143 -99 -241.5t-240 -98.5q-142 0 -240 98.5t-98 241.5q0 144 98 242t240 98zM392 622q-122 0 -203 -83.5t-81 -207.5t81 -208t203 -84q121 0 202 84t81 208q0 123 -81.5 207t-201.5 84z" />
    <glyph glyph-name="Oacute" unicode="&#xd3;" horiz-adv-x="783" 
d="M524 910v-9l-113 -177h-40l91 186h62zM391 670q141 0 240 -98t99 -242q0 -143 -99 -241.5t-240 -98.5q-142 0 -240 98.5t-98 241.5q0 144 98 242t240 98zM392 622q-122 0 -203 -83.5t-81 -207.5t81 -208t203 -84q121 0 202 84t81 208q0 123 -81.5 207t-201.5 84z" />
    <glyph glyph-name="Ocircumflex" unicode="&#xd4;" horiz-adv-x="783" 
d="M391 853l-119 -129h-42l146 186h30l146 -186h-42zM391 670q141 0 240 -98t99 -242q0 -143 -99 -241.5t-240 -98.5q-142 0 -240 98.5t-98 241.5q0 144 98 242t240 98zM392 39q121 0 202 84t81 208q0 123 -81.5 207t-201.5 84q-122 0 -203 -83.5t-81 -207.5t81 -208
t203 -84z" />
    <glyph glyph-name="Otilde" unicode="&#xd5;" horiz-adv-x="783" 
d="M315 867q27 0 68 -27l36 -24q30 -21 45 -21q32 0 32 42v20h44q1 -7 1 -22q0 -36 -18.5 -61t-52.5 -25q-28 0 -69 27l-35 23q-32 21 -45 21q-32 0 -32 -42v-19h-45q-1 6 -1 22q0 35 19 60.5t53 25.5zM391 670q141 0 240 -98t99 -242q0 -143 -99 -241.5t-240 -98.5
q-142 0 -240 98.5t-98 241.5q0 144 98 242t240 98zM392 622q-122 0 -203 -83.5t-81 -207.5t81 -208t203 -84q121 0 202 84t81 208q0 123 -81.5 207t-201.5 84z" />
    <glyph glyph-name="Odieresis" unicode="&#xd6;" horiz-adv-x="783" 
d="M278 850q18 0 30.5 -12t12.5 -30t-12.5 -30.5t-30.5 -12.5q-17 0 -30 12.5t-13 30.5t12.5 30t30.5 12zM504 850q18 0 30.5 -12.5t12.5 -30.5q0 -17 -12.5 -29.5t-30.5 -12.5q-17 0 -30 12.5t-13 29.5q0 18 13 30.5t30 12.5zM391 670q141 0 240 -98t99 -242
q0 -143 -99 -241.5t-240 -98.5q-142 0 -240 98.5t-98 241.5q0 144 98 242t240 98zM392 622q-122 0 -203 -83.5t-81 -207.5t81 -208t203 -84q121 0 202 84t81 208q0 123 -81.5 207t-201.5 84z" />
    <glyph glyph-name="multiply" unicode="&#xd7;" 
d="M441 504l31 -31l-160 -161l160 -161l-30 -32l-161 161l-161 -161l-32 31l161 162l-161 161l31 31l161 -160z" />
    <glyph glyph-name="Oslash" unicode="&#xd8;" horiz-adv-x="783" 
d="M735 641l-87 -87q82 -95 82 -224q0 -143 -99 -241.5t-240 -98.5q-129 0 -223 83l-87 -87l-33 33l87 87q-82 95 -82 224q0 144 98 242t240 98q128 0 224 -83l87 87zM106 331q0 -108 64 -190l410 411q-77 71 -188 71q-123 0 -204.5 -84t-81.5 -208zM676 331q0 109 -64 187
l-410 -411q80 -70 190 -70q121 0 202.5 84.5t81.5 209.5z" />
    <glyph glyph-name="Ugrave" unicode="&#xd9;" horiz-adv-x="683" 
d="M270 910l91 -186h-40l-113 177v9h62zM595 660v-404q0 -124 -69.5 -195t-183.5 -71q-116 0 -185 71t-69 195v404h52v-406q0 -103 55.5 -159t146.5 -56q90 0 145.5 56t55.5 159v406h52z" />
    <glyph glyph-name="Uacute" unicode="&#xda;" horiz-adv-x="683" 
d="M473 910v-9l-113 -177h-40l91 186h62zM595 660v-404q0 -124 -69.5 -195t-183.5 -71q-116 0 -185 71t-69 195v404h52v-406q0 -103 55.5 -159t146.5 -56q90 0 145.5 56t55.5 159v406h52z" />
    <glyph glyph-name="Ucircumflex" unicode="&#xdb;" horiz-adv-x="683" 
d="M340 853l-119 -129h-42l146 186h30l146 -186h-42zM543 660h52v-404q0 -124 -69.5 -195t-183.5 -71q-116 0 -185 71t-69 195v404h52v-406q0 -103 55.5 -159t146.5 -56q90 0 145.5 56t55.5 159v406z" />
    <glyph glyph-name="Udieresis" unicode="&#xdc;" horiz-adv-x="683" 
d="M227 850q18 0 30.5 -12t12.5 -30t-12.5 -30.5t-30.5 -12.5q-17 0 -30 12.5t-13 30.5t12.5 30t30.5 12zM453 850q18 0 30.5 -12.5t12.5 -30.5q0 -17 -12.5 -29.5t-30.5 -12.5q-17 0 -30 12.5t-13 29.5q0 18 13 30.5t30 12.5zM595 660v-404q0 -124 -69.5 -195t-183.5 -71
q-116 0 -185 71t-69 195v404h52v-406q0 -103 55.5 -159t146.5 -56q90 0 145.5 56t55.5 159v406h52z" />
    <glyph glyph-name="Yacute" unicode="&#xdd;" horiz-adv-x="613" 
d="M437 901l-113 -177h-40l91 186h62v-9zM562 660l-230 -381v-279h-52v281l-229 379h57l199 -331l198 331h57z" />
    <glyph glyph-name="Thorn" unicode="&#xde;" horiz-adv-x="564" 
d="M150 660v-126h172q93 0 146.5 -52t53.5 -135t-53.5 -135t-146.5 -52h-172v-160h-52v660h52zM320 487h-170v-280h170q71 0 109.5 38t38.5 101t-38.5 102t-109.5 39z" />
    <glyph glyph-name="germandbls" unicode="&#xdf;" horiz-adv-x="593" 
d="M288 760q68 0 110 -36t42 -100q0 -40 -14 -79l-45 -138q-17 -53 -17 -71q0 -24 16.5 -39t56.5 -39q7 -4 11 -6q40 -23 60.5 -38t37.5 -41t17 -57q0 -60 -47 -94t-114 -34q-94 0 -160 73l29 35q58 -61 136 -61q46 0 75 20.5t29 59.5q0 31 -20 49.5t-74 49.5
q-56 31 -80.5 55t-24.5 61q0 30 18 81l45 135q13 40 13 72q0 44 -27.5 69.5t-75.5 25.5q-63 0 -102.5 -43t-39.5 -123v-547h-50v548q0 99 54.5 155.5t140.5 56.5z" />
    <glyph glyph-name="agrave" unicode="&#xe0;" horiz-adv-x="521" 
d="M276 564h-40l-113 207v9h62zM255 493q82 0 131.5 -49t49.5 -141v-303h-48v76q-56 -86 -173 -86q-70 0 -118 34.5t-48 96.5q0 59 46 94t122 35h168v55q0 69 -36 105t-97 36q-84 0 -147 -81l-35 28q70 100 185 100zM220 34q68 0 116.5 42t48.5 104v27h-163q-59 0 -90 -21.5
t-31 -61.5q0 -44 35 -67t84 -23z" />
    <glyph glyph-name="aacute" unicode="&#xe1;" horiz-adv-x="521" 
d="M388 771l-113 -207h-40l91 216h62v-9zM255 493q82 0 131.5 -49t49.5 -141v-303h-48v76q-56 -86 -173 -86q-70 0 -118 34.5t-48 96.5q0 59 46 94t122 35h168v55q0 69 -36 105t-97 36q-84 0 -147 -81l-35 28q70 100 185 100zM220 34q68 0 116.5 42t48.5 104v27h-163
q-59 0 -90 -21.5t-31 -61.5q0 -44 35 -67t84 -23z" />
    <glyph glyph-name="acircumflex" unicode="&#xe2;" horiz-adv-x="521" 
d="M254 716l-110 -152h-41l136 216h29l136 -216h-41zM255 493q82 0 131.5 -49t49.5 -141v-303h-48v76q-56 -86 -173 -86q-70 0 -118 34.5t-48 96.5q0 59 46 94t122 35h168v55q0 69 -36 105t-97 36q-84 0 -147 -81l-35 28q70 100 185 100zM220 34q68 0 116.5 42t48.5 104v27
h-163q-59 0 -90 -21.5t-31 -61.5q0 -44 35 -67t84 -23z" />
    <glyph glyph-name="atilde" unicode="&#xe3;" horiz-adv-x="521" 
d="M158 617h-44q-1 8 -1 22q0 38 18.5 64t53.5 26q33 0 65 -30l25 -25q24 -24 42 -24q32 0 32 46v19h44q1 -7 1 -22q0 -38 -18 -64t-53 -26t-65 30l-26 25q-24 24 -42 24q-32 0 -32 -45v-20zM255 493q82 0 131.5 -49t49.5 -141v-303h-48v76q-56 -86 -173 -86
q-70 0 -118 34.5t-48 96.5q0 59 46 94t122 35h168v55q0 69 -36 105t-97 36q-84 0 -147 -81l-35 28q70 100 185 100zM220 34q68 0 116.5 42t48.5 104v27h-163q-59 0 -90 -21.5t-31 -61.5q0 -44 35 -67t84 -23z" />
    <glyph glyph-name="adieresis" unicode="&#xe4;" horiz-adv-x="521" 
d="M153 627q-17 0 -30 12.5t-13 29.5q0 18 13 30.5t30 12.5q18 0 30.5 -12.5t12.5 -30.5q0 -17 -12.5 -29.5t-30.5 -12.5zM353 627q-17 0 -30 12.5t-13 29.5q0 18 13 30.5t30 12.5q18 0 31 -12.5t13 -30.5q0 -17 -13 -29.5t-31 -12.5zM255 493q82 0 131.5 -49t49.5 -141
v-303h-48v76q-56 -86 -173 -86q-70 0 -118 34.5t-48 96.5q0 59 46 94t122 35h168v55q0 69 -36 105t-97 36q-84 0 -147 -81l-35 28q70 100 185 100zM220 34q68 0 116.5 42t48.5 104v27h-163q-59 0 -90 -21.5t-31 -61.5q0 -44 35 -67t84 -23z" />
    <glyph glyph-name="aring" unicode="&#xe5;" horiz-adv-x="521" 
d="M253 565q-43 0 -73 29.5t-30 72.5t30 72.5t73 29.5q44 0 74 -29.5t30 -72.5t-30 -72.5t-74 -29.5zM254 728q-26 0 -43.5 -17.5t-17.5 -43.5t17.5 -43.5t43.5 -17.5t43 17.5t17 43.5t-17.5 43.5t-42.5 17.5zM255 493q82 0 131.5 -49t49.5 -141v-303h-48v76
q-56 -86 -173 -86q-70 0 -118 34.5t-48 96.5q0 59 46 94t122 35h168v55q0 69 -36 105t-97 36q-84 0 -147 -81l-35 28q70 100 185 100zM220 34q68 0 116.5 42t48.5 104v27h-163q-59 0 -90 -21.5t-31 -61.5q0 -44 35 -67t84 -23z" />
    <glyph glyph-name="ae" unicode="&#xe6;" horiz-adv-x="902" 
d="M842 221h-403q7 -81 62.5 -132.5t135.5 -51.5q95 0 160 76l33 -33q-76 -90 -194 -90q-71 0 -129 35.5t-89 95.5q-21 -61 -76 -96t-125 -35q-73 0 -120.5 36.5t-47.5 101.5q0 63 46 100t122 37h168v40q0 69 -36 105t-96 36q-86 0 -147 -81l-35 28q70 100 185 100
q62 0 106.5 -30.5t61.5 -87.5q32 54 86.5 86t119.5 32q91 0 153.5 -59.5t62.5 -156.5q0 -36 -4 -56zM439 265h355q5 81 -44.5 131.5t-123.5 50.5t-126.5 -51.5t-60.5 -130.5zM222 34q66 0 114.5 42t48.5 104v41h-163q-121 0 -121 -88q0 -49 35.5 -74t85.5 -25z" />
    <glyph glyph-name="ccedilla" unicode="&#xe7;" horiz-adv-x="552" 
d="M305 37q97 0 160 81l36 -29q-60 -83 -160 -96q32 -32 32 -75q0 -46 -32.5 -77t-87.5 -31q-32 0 -67 10v39q32 -7 60 -7q35 0 57.5 18t22.5 54q0 34 -28 66q-102 3 -172 76t-70 176q0 105 72.5 178t177.5 73q122 0 195 -99l-36 -29q-62 81 -159 81q-84 0 -141 -59
t-57 -145q0 -87 56.5 -146t140.5 -59z" />
    <glyph glyph-name="egrave" unicode="&#xe8;" horiz-adv-x="572" 
d="M321 564h-40l-113 207v9h62zM516 278q0 -29 -4 -49h-404q4 -84 60 -138t139 -54q96 0 161 76l32 -33q-77 -90 -194 -90q-105 0 -177.5 72.5t-72.5 178.5q0 105 71 178.5t173 73.5q91 0 153.5 -59.5t62.5 -155.5zM298 447q-73 0 -125 -48.5t-63 -123.5h354q3 78 -46 125
t-120 47z" />
    <glyph glyph-name="eacute" unicode="&#xe9;" horiz-adv-x="572" 
d="M433 771l-113 -207h-40l91 216h62v-9zM516 278q0 -29 -4 -49h-404q4 -84 60 -138t139 -54q96 0 161 76l32 -33q-77 -90 -194 -90q-105 0 -177.5 72.5t-72.5 178.5q0 105 71 178.5t173 73.5q91 0 153.5 -59.5t62.5 -155.5zM298 447q-73 0 -125 -48.5t-63 -123.5h354
q3 78 -46 125t-120 47z" />
    <glyph glyph-name="ecircumflex" unicode="&#xea;" horiz-adv-x="572" 
d="M299 716l-110 -152h-41l136 216h29l136 -216h-41zM516 278q0 -29 -4 -49h-404q4 -84 60 -138t139 -54q96 0 161 76l32 -33q-77 -90 -194 -90q-105 0 -177.5 72.5t-72.5 178.5q0 105 71 178.5t173 73.5q91 0 153.5 -59.5t62.5 -155.5zM298 447q-73 0 -125 -48.5
t-63 -123.5h354q3 78 -46 125t-120 47z" />
    <glyph glyph-name="edieresis" unicode="&#xeb;" horiz-adv-x="572" 
d="M198 627q-17 0 -30 12.5t-13 29.5q0 18 13 30.5t30 12.5q18 0 30.5 -12.5t12.5 -30.5q0 -17 -12.5 -29.5t-30.5 -12.5zM398 627q-17 0 -30 12.5t-13 29.5q0 18 13 30.5t30 12.5q18 0 31 -12.5t13 -30.5q0 -17 -13 -29.5t-31 -12.5zM516 278q0 -29 -4 -49h-404
q4 -84 60 -138t139 -54q96 0 161 76l32 -33q-77 -90 -194 -90q-105 0 -177.5 72.5t-72.5 178.5q0 105 71 178.5t173 73.5q91 0 153.5 -59.5t62.5 -155.5zM298 447q-73 0 -125 -48.5t-63 -123.5h354q3 78 -46 125t-120 47z" />
    <glyph glyph-name="igrave" unicode="&#xec;" horiz-adv-x="236" 
d="M79 780l61 -216h-40l-83 207v9h62zM143 483v-483h-50v483h50z" />
    <glyph glyph-name="iacute" unicode="&#xed;" horiz-adv-x="236" 
d="M220 780v-9l-83 -207h-40l61 216h62zM143 483v-483h-50v483h50z" />
    <glyph glyph-name="icircumflex" unicode="&#xee;" horiz-adv-x="236" 
d="M132 780l136 -216h-41l-109 152l-110 -152h-41l136 216h29zM93 0v483h50v-483h-50z" />
    <glyph glyph-name="idieresis" unicode="&#xef;" horiz-adv-x="236" 
d="M32 712q18 0 30.5 -12.5t12.5 -30.5q0 -17 -12.5 -29.5t-30.5 -12.5q-17 0 -30 12.5t-13 29.5q0 18 13 30.5t30 12.5zM202 712q18 0 31 -12.5t13 -30.5q0 -17 -13 -29.5t-31 -12.5q-17 0 -30 12.5t-13 29.5q0 18 13 30.5t30 12.5zM143 483v-483h-50v483h50z" />
    <glyph glyph-name="eth" unicode="&#xf0;" horiz-adv-x="567" 
d="M407 449q39 -53 56 -79t32.5 -67t15.5 -83q0 -98 -64.5 -164t-163.5 -66t-163 65t-64 160q0 96 64 161t156 65q48 0 89 -19l-124 172l-155 -73l-19 39l148 70l-74 102l39 28l80 -109l153 72l19 -38l-147 -69zM283 37q75 0 125 51t50 128q0 76 -50.5 127t-125.5 51
q-74 0 -124 -51t-50 -128q0 -76 50 -127t125 -51z" />
    <glyph glyph-name="ntilde" unicode="&#xf1;" horiz-adv-x="558" 
d="M188 617h-44q-1 8 -1 22q0 38 18.5 64t53.5 26q33 0 65 -30l25 -25q24 -24 42 -24q32 0 32 46v19h44q1 -7 1 -22q0 -38 -18 -64t-53 -26t-65 30l-26 25q-24 24 -42 24q-32 0 -32 -45v-20zM295 493q83 0 130 -52t47 -136v-305h-50v302q0 64 -36.5 104t-98.5 40
q-63 0 -103.5 -41t-40.5 -103v-302h-50v483h48v-65q53 75 154 75z" />
    <glyph glyph-name="ograve" unicode="&#xf2;" horiz-adv-x="612" 
d="M237 780l91 -216h-40l-113 207v9h62zM306 493q104 0 177 -72.5t73 -178.5t-73 -179t-178 -73q-104 0 -176.5 73t-72.5 179t72.5 178.5t177.5 72.5zM306 446q-85 0 -141.5 -59t-56.5 -146t56.5 -145.5t140.5 -58.5t141.5 59t57.5 145q0 87 -57 146t-141 59z" />
    <glyph glyph-name="oacute" unicode="&#xf3;" horiz-adv-x="612" 
d="M440 780v-9l-113 -207h-40l91 216h62zM306 493q104 0 177 -72.5t73 -178.5t-73 -179t-178 -73q-104 0 -176.5 73t-72.5 179t72.5 178.5t177.5 72.5zM306 446q-85 0 -141.5 -59t-56.5 -146t56.5 -145.5t140.5 -58.5t141.5 59t57.5 145q0 87 -57 146t-141 59z" />
    <glyph glyph-name="ocircumflex" unicode="&#xf4;" horiz-adv-x="612" 
d="M306 716l-110 -152h-41l136 216h29l136 -216h-41zM306 493q104 0 177 -72.5t73 -178.5t-73 -179t-178 -73q-104 0 -176.5 73t-72.5 179t72.5 178.5t177.5 72.5zM305 37q84 0 141.5 59t57.5 145q0 87 -57 146t-141 59q-85 0 -141.5 -59t-56.5 -146t56.5 -145.5
t140.5 -58.5z" />
    <glyph glyph-name="otilde" unicode="&#xf5;" horiz-adv-x="612" 
d="M237 729q33 0 65 -30l25 -25q24 -24 42 -24q32 0 32 46v19h44q1 -7 1 -22q0 -38 -18 -64t-53 -26t-65 30l-26 25q-24 24 -42 24q-32 0 -32 -45v-20h-44q-1 8 -1 22q0 38 18.5 64t53.5 26zM306 493q104 0 177 -72.5t73 -178.5t-73 -179t-178 -73q-104 0 -176.5 73
t-72.5 179t72.5 178.5t177.5 72.5zM306 446q-85 0 -141.5 -59t-56.5 -146t56.5 -145.5t140.5 -58.5t141.5 59t57.5 145q0 87 -57 146t-141 59z" />
    <glyph glyph-name="odieresis" unicode="&#xf6;" horiz-adv-x="612" 
d="M205 712q18 0 30.5 -12.5t12.5 -30.5q0 -17 -12.5 -29.5t-30.5 -12.5q-17 0 -30 12.5t-13 29.5q0 18 13 30.5t30 12.5zM405 712q18 0 31 -12.5t13 -30.5q0 -17 -13 -29.5t-31 -12.5q-17 0 -30 12.5t-13 29.5q0 18 13 30.5t30 12.5zM306 493q104 0 177 -72.5t73 -178.5
t-73 -179t-178 -73q-104 0 -176.5 73t-72.5 179t72.5 178.5t177.5 72.5zM306 446q-85 0 -141.5 -59t-56.5 -146t56.5 -145.5t140.5 -58.5t141.5 59t57.5 145q0 87 -57 146t-141 59z" />
    <glyph glyph-name="divide" unicode="&#xf7;" 
d="M277 527q18 0 31 -12.5t13 -30.5q0 -17 -13 -29.5t-31 -12.5t-30.5 12.5t-12.5 29.5q0 18 12.5 30.5t30.5 12.5zM497 334v-45h-435v45h435zM277 179q18 0 31 -12t13 -30t-13 -30.5t-31 -12.5t-30.5 12.5t-12.5 30.5t12.5 30t30.5 12z" />
    <glyph glyph-name="oslash" unicode="&#xf8;" horiz-adv-x="625" 
d="M567 464l-62 -62q57 -72 57 -161q0 -104 -73.5 -177.5t-177.5 -73.5q-91 0 -160 58l-61 -62l-33 33l62 61q-57 70 -57 161q0 106 73 179t177 73q91 0 160 -59l62 62zM312 448q-86 0 -143 -59.5t-57 -147.5q0 -73 41 -128l288 288q-53 47 -129 47zM311 35q85 0 143 59.5
t58 146.5q0 73 -41 128l-288 -288q56 -46 128 -46z" />
    <glyph glyph-name="ugrave" unicode="&#xf9;" horiz-adv-x="551" 
d="M206 780l91 -216h-40l-113 207v9h62zM465 483v-300q0 -87 -54 -140t-135 -53q-82 0 -136 53t-54 140v300h50v-302q0 -66 40 -105t100 -39q59 0 99 39t40 105v302h50z" />
    <glyph glyph-name="uacute" unicode="&#xfa;" horiz-adv-x="551" 
d="M409 780v-9l-113 -207h-40l91 216h62zM465 483v-300q0 -87 -54 -140t-135 -53q-82 0 -136 53t-54 140v300h50v-302q0 -66 40 -105t100 -39q59 0 99 39t40 105v302h50z" />
    <glyph glyph-name="ucircumflex" unicode="&#xfb;" horiz-adv-x="551" 
d="M275 716l-110 -152h-41l136 216h29l136 -216h-41zM415 483h50v-300q0 -87 -54 -140t-135 -53q-82 0 -136 53t-54 140v300h50v-302q0 -66 40 -105t100 -39q59 0 99 39t40 105v302z" />
    <glyph glyph-name="udieresis" unicode="&#xfc;" horiz-adv-x="551" 
d="M174 712q18 0 30.5 -12.5t12.5 -30.5q0 -17 -12.5 -29.5t-30.5 -12.5q-17 0 -30 12.5t-13 29.5q0 18 13 30.5t30 12.5zM374 712q18 0 31 -12.5t13 -30.5q0 -17 -13 -29.5t-31 -12.5q-17 0 -30 12.5t-13 29.5q0 18 13 30.5t30 12.5zM465 483v-300q0 -87 -54 -140t-135 -53
q-82 0 -136 53t-54 140v300h50v-302q0 -66 40 -105t100 -39q59 0 99 39t40 105v302h50z" />
    <glyph glyph-name="yacute" unicode="&#xfd;" horiz-adv-x="527" 
d="M396 771l-113 -207h-40l91 216h62v-9zM441 483h54l-241 -562q-48 -111 -151 -111q-35 0 -68 9v44q32 -7 61 -7q76 0 112 83l31 71l-207 473h55l179 -416z" />
    <glyph glyph-name="thorn" unicode="&#xfe;" horiz-adv-x="634" 
d="M338 493q102 0 171 -72.5t69 -178.5t-69 -179t-171 -73q-61 0 -114 27.5t-81 75.5v-273h-50v930h50v-360q28 48 80.5 75.5t114.5 27.5zM333 37q84 0 138.5 58.5t54.5 145.5q0 88 -54.5 146.5t-138.5 58.5q-79 0 -134.5 -52t-55.5 -152q0 -101 55.5 -153t134.5 -52z" />
    <glyph glyph-name="ydieresis" unicode="&#xff;" horiz-adv-x="527" 
d="M161 627q-17 0 -30 12.5t-13 29.5q0 18 13 30.5t30 12.5q18 0 30.5 -12.5t12.5 -30.5q0 -17 -12.5 -29.5t-30.5 -12.5zM361 627q-17 0 -30 12.5t-13 29.5q0 18 13 30.5t30 12.5q18 0 31 -12.5t13 -30.5q0 -17 -13 -29.5t-31 -12.5zM441 483h54l-241 -562
q-48 -111 -151 -111q-35 0 -68 9v44q32 -7 61 -7q76 0 112 83l31 71l-207 473h55l179 -416z" />
    <glyph glyph-name="Amacron" unicode="&#x100;" horiz-adv-x="664" 
d="M474 820v-43h-282v43h282zM570 0l-65 157h-347l-65 -157h-54l283 670h21l282 -670h-55zM332 577l-154 -373h307z" />
    <glyph glyph-name="amacron" unicode="&#x101;" horiz-adv-x="521" 
d="M385 691v-43h-262v43h262zM255 493q82 0 131.5 -49t49.5 -141v-303h-48v76q-56 -86 -173 -86q-70 0 -118 34.5t-48 96.5q0 59 46 94t122 35h168v55q0 69 -36 105t-97 36q-84 0 -147 -81l-35 28q70 100 185 100zM220 34q68 0 116.5 42t48.5 104v27h-163q-59 0 -90 -21.5
t-31 -61.5q0 -44 35 -67t84 -23z" />
    <glyph glyph-name="Abreve" unicode="&#x102;" horiz-adv-x="664" 
d="M333 744q-61 0 -102 41t-41 102h45q0 -46 28 -73.5t70 -27.5t69.5 27.5t27.5 73.5h45q0 -61 -40.5 -102t-101.5 -41zM570 0l-65 157h-347l-65 -157h-54l283 670h21l282 -670h-55zM332 577l-154 -373h307z" />
    <glyph glyph-name="abreve" unicode="&#x103;" horiz-adv-x="521" 
d="M254 586q-61 0 -102 41t-41 102h45q0 -46 28 -73.5t70 -27.5t69.5 27.5t27.5 73.5h45q0 -61 -40.5 -102t-101.5 -41zM255 493q82 0 131.5 -49t49.5 -141v-303h-48v76q-56 -86 -173 -86q-70 0 -118 34.5t-48 96.5q0 59 46 94t122 35h168v55q0 69 -36 105t-97 36
q-84 0 -147 -81l-35 28q70 100 185 100zM220 34q68 0 116.5 42t48.5 104v27h-163q-59 0 -90 -21.5t-31 -61.5q0 -44 35 -67t84 -23z" />
    <glyph glyph-name="Aogonek" unicode="&#x104;" horiz-adv-x="664" 
d="M511 -103q0 -21 15.5 -33t41.5 -12q19 0 57 8v-40q-34 -10 -65 -10q-44 0 -72.5 21.5t-28.5 58.5q0 31 25 56.5t84 58.5l-63 152h-347l-65 -157h-54l283 670h21l282 -670l-54 -35q-24 -16 -33 -23t-18 -19t-9 -26zM332 577l-154 -373h307z" />
    <glyph glyph-name="aogonek" unicode="&#x105;" horiz-adv-x="521" 
d="M382 -35q-24 -16 -33 -23t-18 -19t-9 -26q0 -21 15.5 -33t41.5 -12q19 0 57 8v-40q-34 -10 -65 -10q-44 0 -72.5 21.5t-28.5 58.5q0 32 26.5 58t91.5 63v65q-56 -86 -173 -86q-70 0 -118 34.5t-48 96.5q0 59 46 94t122 35h168v55q0 69 -36 105t-97 36q-84 0 -147 -81
l-35 28q70 100 185 100q82 0 131.5 -49t49.5 -141v-303zM220 34q68 0 116.5 42t48.5 104v27h-163q-59 0 -90 -21.5t-31 -61.5q0 -44 35 -67t84 -23z" />
    <glyph glyph-name="Cacute" unicode="&#x106;" horiz-adv-x="712" 
d="M524 910v-9l-113 -177h-40l91 186h62zM391 670q83 0 153 -36t114 -98l-39 -31q-83 117 -227 117q-121 0 -202.5 -83.5t-81.5 -207.5q0 -125 81 -208.5t203 -83.5q145 0 227 116l39 -31q-44 -62 -114 -98t-153 -36q-142 0 -240 98t-98 242t98 242t240 98z" />
    <glyph glyph-name="cacute" unicode="&#x107;" horiz-adv-x="552" 
d="M439 780v-9l-113 -207h-40l91 216h62zM306 493q122 0 195 -99l-36 -29q-62 81 -159 81q-84 0 -141 -59t-57 -145q0 -87 56.5 -146t140.5 -59q97 0 160 81l36 -29q-73 -99 -196 -99q-104 0 -176.5 73.5t-72.5 178.5t72.5 178t177.5 73z" />
    <glyph glyph-name="Ccircumflex" unicode="&#x108;" horiz-adv-x="712" 
d="M391 853l-119 -129h-42l146 186h30l146 -186h-42zM392 39q145 0 227 116l39 -31q-44 -62 -114 -98t-153 -36q-142 0 -240 98t-98 242t98 242t240 98q83 0 153 -36t114 -98l-39 -31q-83 117 -227 117q-121 0 -202.5 -83.5t-81.5 -207.5q0 -125 81 -208.5t203 -83.5z" />
    <glyph glyph-name="ccircumflex" unicode="&#x109;" horiz-adv-x="552" 
d="M305 716l-110 -152h-41l136 216h29l136 -216h-41zM305 37q97 0 160 81l36 -29q-73 -99 -196 -99q-104 0 -176.5 73.5t-72.5 178.5t72.5 178t177.5 73q122 0 195 -99l-36 -29q-62 81 -159 81q-84 0 -141 -59t-57 -145q0 -87 56.5 -146t140.5 -59z" />
    <glyph glyph-name="Cdotaccent" unicode="&#x10a;" horiz-adv-x="712" 
d="M392 851q19 0 31.5 -12.5t12.5 -30.5q0 -19 -12.5 -31.5t-31.5 -12.5q-18 0 -31 12.5t-13 31.5q0 18 13 30.5t31 12.5zM391 670q83 0 153 -36t114 -98l-39 -31q-83 117 -227 117q-121 0 -202.5 -83.5t-81.5 -207.5q0 -125 81 -208.5t203 -83.5q145 0 227 116l39 -31
q-44 -62 -114 -98t-153 -36q-142 0 -240 98t-98 242t98 242t240 98z" />
    <glyph glyph-name="cdotaccent" unicode="&#x10b;" horiz-adv-x="552" 
d="M305 713q19 0 31.5 -13t12.5 -31t-12.5 -31t-31.5 -13q-18 0 -31 13t-13 31t13 31t31 13zM306 493q122 0 195 -99l-36 -29q-62 81 -159 81q-84 0 -141 -59t-57 -145q0 -87 56.5 -146t140.5 -59q97 0 160 81l36 -29q-73 -99 -196 -99q-104 0 -176.5 73.5t-72.5 178.5
t72.5 178t177.5 73z" />
    <glyph glyph-name="Ccaron" unicode="&#x10c;" horiz-adv-x="712" 
d="M406 724h-30l-146 186h42l119 -129l119 129h42zM392 39q145 0 227 116l39 -31q-44 -62 -114 -98t-153 -36q-142 0 -240 98t-98 242t98 242t240 98q83 0 153 -36t114 -98l-39 -31q-83 117 -227 117q-121 0 -202.5 -83.5t-81.5 -207.5q0 -125 81 -208.5t203 -83.5z" />
    <glyph glyph-name="ccaron" unicode="&#x10d;" horiz-adv-x="552" 
d="M319 564h-29l-136 216h41l110 -152l109 152h41zM305 37q97 0 160 81l36 -29q-73 -99 -196 -99q-104 0 -176.5 73.5t-72.5 178.5t72.5 178t177.5 73q122 0 195 -99l-36 -29q-62 81 -159 81q-84 0 -141 -59t-57 -145q0 -87 56.5 -146t140.5 -59z" />
    <glyph glyph-name="Dcaron" unicode="&#x10e;" horiz-adv-x="696" 
d="M297 724h-30l-146 186h42l119 -129l119 129h42zM284 660q169 0 264 -91.5t95 -237.5q0 -145 -95.5 -238t-263.5 -93h-186v660h186zM284 47q143 0 224 80.5t81 203.5q0 124 -81 203t-224 79h-134v-566h134z" />
    <glyph glyph-name="dcaron" unicode="&#x10f;" horiz-adv-x="737" 
d="M491 389v361h50v-750h-48v98q-27 -50 -80.5 -79t-116.5 -29q-102 0 -171 72.5t-69 178.5t68.5 179t171.5 73q62 0 114.5 -28t80.5 -76zM665 750h58l-35 -210h-40zM301 37q79 0 134.5 52t55.5 152q0 101 -55.5 153t-134.5 52q-84 0 -138.5 -58.5t-54.5 -145.5
q0 -88 54.5 -146.5t138.5 -58.5z" />
    <glyph glyph-name="Dcroat" unicode="&#x110;" horiz-adv-x="696" 
d="M284 660q169 0 264 -91.5t95 -237.5q0 -145 -95.5 -238t-263.5 -93h-186v281h-100v45h100v334h186zM284 47q143 0 224 80.5t81 203.5q0 124 -81 203t-224 79h-134v-287h142v-45h-142v-234h134z" />
    <glyph glyph-name="dcroat" unicode="&#x111;" horiz-adv-x="633" 
d="M624 638v-44h-85v-594h-48v98q-27 -50 -81 -79t-117 -29q-101 0 -170 72t-69 176q0 105 68.5 177.5t170.5 72.5q62 0 115 -28.5t81 -76.5v211h-225v44h225v112h50v-112h85zM299 36q79 0 134.5 51t55.5 151t-55.5 151.5t-134.5 51.5q-84 0 -138 -58t-54 -145
q0 -86 54.5 -144t137.5 -58z" />
    <glyph glyph-name="Emacron" unicode="&#x112;" horiz-adv-x="563" 
d="M443 820v-43h-282v43h282zM511 660v-47h-361v-233h281v-47h-281v-286h373v-47h-425v660h413z" />
    <glyph glyph-name="emacron" unicode="&#x113;" horiz-adv-x="572" 
d="M430 691v-43h-262v43h262zM516 278q0 -29 -4 -49h-404q4 -84 60 -138t139 -54q96 0 161 76l32 -33q-77 -90 -194 -90q-105 0 -177.5 72.5t-72.5 178.5q0 105 71 178.5t173 73.5q91 0 153.5 -59.5t62.5 -155.5zM298 447q-73 0 -125 -48.5t-63 -123.5h354q3 78 -46 125
t-120 47z" />
    <glyph glyph-name="Ebreve" unicode="&#x114;" horiz-adv-x="563" 
d="M444 887q0 -61 -40.5 -102t-101.5 -41t-102 41t-41 102h45q0 -46 28 -73.5t70 -27.5t69.5 27.5t27.5 73.5h45zM511 660v-47h-361v-233h281v-47h-281v-286h373v-47h-425v660h413z" />
    <glyph glyph-name="ebreve" unicode="&#x115;" horiz-adv-x="572" 
d="M299 586q-61 0 -102 41t-41 102h45q0 -46 28 -73.5t70 -27.5t69.5 27.5t27.5 73.5h45q0 -61 -40.5 -102t-101.5 -41zM516 278q0 -29 -4 -49h-404q4 -84 60 -138t139 -54q96 0 161 76l32 -33q-77 -90 -194 -90q-105 0 -177.5 72.5t-72.5 178.5q0 105 71 178.5t173 73.5
q91 0 153.5 -59.5t62.5 -155.5zM298 447q-73 0 -125 -48.5t-63 -123.5h354q3 78 -46 125t-120 47z" />
    <glyph glyph-name="Edotaccent" unicode="&#x116;" horiz-adv-x="563" 
d="M302 851q19 0 31.5 -12.5t12.5 -30.5q0 -19 -12.5 -31.5t-31.5 -12.5q-18 0 -31 12.5t-13 31.5q0 18 13 30.5t31 12.5zM511 660v-47h-361v-233h281v-47h-281v-286h373v-47h-425v660h413z" />
    <glyph glyph-name="edotaccent" unicode="&#x117;" horiz-adv-x="572" 
d="M299 625q-18 0 -31 13t-13 31t13 31t31 13q19 0 31.5 -13t12.5 -31t-12.5 -31t-31.5 -13zM516 278q0 -29 -4 -49h-404q4 -84 60 -138t139 -54q96 0 161 76l32 -33q-77 -90 -194 -90q-105 0 -177.5 72.5t-72.5 178.5q0 105 71 178.5t173 73.5q91 0 153.5 -59.5
t62.5 -155.5zM298 447q-73 0 -125 -48.5t-63 -123.5h354q3 78 -46 125t-120 47z" />
    <glyph glyph-name="Eogonek" unicode="&#x118;" horiz-adv-x="563" 
d="M469 -35q-24 -16 -33 -23t-18 -19t-9 -26q0 -21 15.5 -33t41.5 -12q19 0 57 8v-40q-34 -10 -65 -10q-44 0 -72.5 21.5t-28.5 58.5q0 30 22.5 54t76.5 56h-358v660h413v-47h-361v-233h281v-47h-281v-286h373v-47z" />
    <glyph glyph-name="eogonek" unicode="&#x119;" horiz-adv-x="572" 
d="M516 278q0 -29 -4 -49h-404q4 -84 60 -138t139 -54q98 0 162 77l31 -33q-12 -15 -29.5 -30.5t-30.5 -25t-36 -24.5t-34 -23q-31 -22 -46.5 -40.5t-15.5 -39.5q0 -46 59 -46q27 0 57 8v-39q-29 -11 -66 -11q-43 0 -71.5 21t-28.5 59q0 51 77 102q-20 -2 -31 -2
q-104 0 -176 72.5t-72 178.5q0 105 71 178.5t173 73.5q91 0 153.5 -59.5t62.5 -155.5zM298 447q-73 0 -125 -48.5t-63 -123.5h354q3 78 -46 125t-120 47z" />
    <glyph glyph-name="Ecaron" unicode="&#x11a;" horiz-adv-x="563" 
d="M316 724h-30l-146 186h42l119 -129l119 129h42zM150 47h373v-47h-425v660h413v-47h-361v-233h281v-47h-281v-286z" />
    <glyph glyph-name="ecaron" unicode="&#x11b;" horiz-adv-x="572" 
d="M313 564h-29l-136 216h41l110 -152l109 152h41zM516 278q0 -29 -4 -49h-404q4 -84 60 -138t139 -54q96 0 161 76l32 -33q-77 -90 -194 -90q-105 0 -177.5 72.5t-72.5 178.5q0 105 71 178.5t173 73.5q91 0 153.5 -59.5t62.5 -155.5zM298 447q-73 0 -125 -48.5t-63 -123.5
h354q3 78 -46 125t-120 47z" />
    <glyph glyph-name="Gcircumflex" unicode="&#x11c;" horiz-adv-x="745" 
d="M391 853l-119 -129h-42l146 186h30l146 -186h-42zM391 325h295v-168q-43 -78 -122 -122.5t-173 -44.5q-142 0 -240 98.5t-98 241.5q0 144 98 242t240 98q81 0 150 -34.5t114 -96.5l-39 -31q-83 114 -224 114q-122 0 -203 -83.5t-81 -207.5q0 -125 81 -209t205 -84
q77 0 140 35t100 95v109h-243v48z" />
    <glyph glyph-name="gcircumflex" unicode="&#x11d;" horiz-adv-x="640" 
d="M311 716l-110 -152h-41l136 216h29l136 -216h-41zM499 483h48v-440q0 -108 -64 -170.5t-167 -62.5q-68 0 -126 26t-96 68l31 34q81 -81 190 -81q82 0 132 48t50 136v64q-28 -47 -81 -75t-115 -28q-102 0 -170.5 71t-68.5 175q0 103 69 174.5t170 71.5q63 0 117 -29
t81 -78v96zM308 49q78 0 133.5 51t55.5 148t-56 147.5t-133 50.5q-84 0 -139 -57t-55 -142t55 -141.5t139 -56.5z" />
    <glyph glyph-name="Gbreve" unicode="&#x11e;" horiz-adv-x="745" 
d="M534 887q0 -61 -40.5 -102t-101.5 -41t-102 41t-41 102h45q0 -46 28 -73.5t70 -27.5t69.5 27.5t27.5 73.5h45zM391 670q81 0 150 -34.5t114 -96.5l-39 -31q-83 114 -224 114q-122 0 -203 -83.5t-81 -207.5q0 -125 81 -209t205 -84q77 0 140 35t100 95v109h-243v48h295
v-168q-43 -78 -122 -122.5t-173 -44.5q-142 0 -240 98.5t-98 241.5q0 144 98 242t240 98z" />
    <glyph glyph-name="gbreve" unicode="&#x11f;" horiz-adv-x="640" 
d="M311 586q-61 0 -102 41t-41 102h45q0 -46 28 -73.5t70 -27.5t69.5 27.5t27.5 73.5h45q0 -61 -40.5 -102t-101.5 -41zM499 483h48v-440q0 -108 -64 -170.5t-167 -62.5q-68 0 -126 26t-96 68l31 34q81 -81 190 -81q82 0 132 48t50 136v64q-28 -47 -81 -75t-115 -28
q-102 0 -170.5 71t-68.5 175q0 103 69 174.5t170 71.5q63 0 117 -29t81 -78v96zM308 49q78 0 133.5 51t55.5 148t-56 147.5t-133 50.5q-84 0 -139 -57t-55 -142t55 -141.5t139 -56.5z" />
    <glyph glyph-name="Gdotaccent" unicode="&#x120;" horiz-adv-x="745" 
d="M392 851q19 0 31.5 -12.5t12.5 -30.5q0 -19 -12.5 -31.5t-31.5 -12.5q-18 0 -31 12.5t-13 31.5q0 18 13 30.5t31 12.5zM391 670q81 0 150 -34.5t114 -96.5l-39 -31q-83 114 -224 114q-122 0 -203 -83.5t-81 -207.5q0 -125 81 -209t205 -84q77 0 140 35t100 95v109h-243
v48h295v-168q-43 -78 -122 -122.5t-173 -44.5q-142 0 -240 98.5t-98 241.5q0 144 98 242t240 98z" />
    <glyph glyph-name="gdotaccent" unicode="&#x121;" horiz-adv-x="640" 
d="M311 625q-18 0 -31 13t-13 31t13 31t31 13q19 0 31.5 -13t12.5 -31t-12.5 -31t-31.5 -13zM499 483h48v-440q0 -108 -64 -170.5t-167 -62.5q-68 0 -126 26t-96 68l31 34q81 -81 190 -81q82 0 132 48t50 136v64q-28 -47 -81 -75t-115 -28q-102 0 -170.5 71t-68.5 175
q0 103 69 174.5t170 71.5q63 0 117 -29t81 -78v96zM308 49q78 0 133.5 51t55.5 148t-56 147.5t-133 50.5q-84 0 -139 -57t-55 -142t55 -141.5t139 -56.5z" />
    <glyph glyph-name="Gcommaaccent" unicode="&#x122;" horiz-adv-x="745" 
d="M391 670q81 0 150 -34.5t114 -96.5l-39 -31q-83 114 -224 114q-122 0 -203 -83.5t-81 -207.5q0 -125 81 -209t205 -84q77 0 140 35t100 95v109h-243v48h295v-168q-43 -78 -122 -122.5t-173 -44.5q-142 0 -240 98.5t-98 241.5q0 144 98 242t240 98zM418 -51l-24 -169h-41
l12 169h53z" />
    <glyph glyph-name="gcommaaccent" unicode="&#x123;" horiz-adv-x="640" 
d="M354 780l-17 -216h-54l31 216h40zM499 483h48v-440q0 -108 -64 -170.5t-167 -62.5q-68 0 -126 26t-96 68l31 34q81 -81 190 -81q82 0 132 48t50 136v64q-28 -47 -81 -75t-115 -28q-102 0 -170.5 71t-68.5 175q0 103 69 174.5t170 71.5q63 0 117 -29t81 -78v96zM308 49
q78 0 133.5 51t55.5 148t-56 147.5t-133 50.5q-84 0 -139 -57t-55 -142t55 -141.5t139 -56.5z" />
    <glyph glyph-name="Hcircumflex" unicode="&#x124;" horiz-adv-x="706" 
d="M352 853l-119 -129h-42l146 186h30l146 -186h-42zM556 660h52v-660h-52v333h-406v-333h-52v660h52v-280h406v280z" />
    <glyph glyph-name="hcircumflex" unicode="&#x125;" horiz-adv-x="558" 
d="M261 814l-119 129l-119 -129h-42l146 186h30l146 -186h-42zM296 493q82 0 129 -52t47 -136v-305h-50v301q0 65 -36.5 105t-98.5 40q-63 0 -103.5 -41t-40.5 -104v-301h-50v750h50v-333q52 76 153 76z" />
    <glyph glyph-name="Hbar" unicode="&#x126;" horiz-adv-x="714" 
d="M612 660v-144h103v-45h-103v-471h-52v272h-407v-272h-52v471h-103v45h103v144h52v-144h407v144h52zM560 471h-407v-152h407v152z" />
    <glyph glyph-name="hbar" unicode="&#x127;" horiz-adv-x="559" 
d="M297 488q82 0 129.5 -52t47.5 -136v-300h-51v296q0 64 -36 104t-98 40q-63 0 -104 -41t-41 -103v-296h-50v593h-84v46h84v111h50v-111h207v-46h-207v-183q50 78 153 78z" />
    <glyph glyph-name="Itilde" unicode="&#x128;" horiz-adv-x="247" 
d="M47 867q27 0 68 -27l36 -24q30 -21 45 -21q32 0 32 42v20h44q1 -7 1 -22q0 -36 -18.5 -61t-52.5 -25q-28 0 -69 27l-35 23q-31 21 -45 21q-32 0 -32 -42v-19h-45q-1 6 -1 22q0 35 19 60.5t53 25.5zM150 660v-660h-52v660h52z" />
    <glyph glyph-name="itilde" unicode="&#x129;" horiz-adv-x="236" 
d="M55 729q34 0 62 -32l20 -22q23 -25 37 -25q30 0 30 46v19h44v-8q1 -8 1 -13q0 -37 -17.5 -64t-51.5 -27q-31 0 -61 33l-20 22q-22 24 -38 24q-31 0 -31 -45v-20h-44v8q-1 8 -1 13q0 37 18 64t52 27zM143 483v-483h-50v483h50z" />
    <glyph glyph-name="Imacron" unicode="&#x12a;" horiz-adv-x="247" 
d="M265 820v-43h-282v43h282zM150 660v-660h-52v660h52z" />
    <glyph glyph-name="imacron" unicode="&#x12b;" horiz-adv-x="236" 
d="M220 691v-44h-204v44h204zM143 483v-483h-50v483h50z" />
    <glyph glyph-name="Ibreve" unicode="&#x12c;" horiz-adv-x="247" 
d="M266 887q0 -61 -40.5 -102t-101.5 -41t-102 41t-41 102h45q0 -46 28 -73.5t70 -27.5t69.5 27.5t27.5 73.5h45zM150 660v-660h-52v660h52z" />
    <glyph glyph-name="ibreve" unicode="&#x12d;" horiz-adv-x="236" 
d="M260 729q0 -61 -40.5 -102t-101.5 -41t-102 41t-41 102h45q0 -46 28 -73.5t70 -27.5t69.5 27.5t27.5 73.5h45zM143 483v-483h-50v483h50z" />
    <glyph glyph-name="Iogonek" unicode="&#x12e;" horiz-adv-x="247" 
d="M96 -35q-24 -16 -33 -23t-18 -19t-9 -26q0 -21 15.5 -33t41.5 -12q19 0 57 8v-40q-34 -10 -65 -10q-44 0 -72.5 21.5t-28.5 58.5q0 31 26 57t88 61v652h52v-660z" />
    <glyph glyph-name="iogonek" unicode="&#x12f;" horiz-adv-x="236" 
d="M118 713q19 0 31.5 -13t12.5 -31t-12.5 -31t-31.5 -13q-18 0 -31 13t-13 31t13 31t31 13zM93 10v473h50v-483l-54 -35q-24 -16 -33 -23t-18 -19t-9 -26q0 -21 15.5 -33t41.5 -12q19 0 57 8v-40q-34 -10 -65 -10q-44 0 -72.5 21.5t-28.5 58.5q0 32 26 58t90 62z" />
    <glyph glyph-name="Idotaccent" unicode="&#x130;" horiz-adv-x="247" 
d="M124 851q19 0 31.5 -12.5t12.5 -30.5q0 -19 -12.5 -31.5t-31.5 -12.5q-18 0 -31 12.5t-13 31.5q0 18 13 30.5t31 12.5zM150 660v-660h-52v660h52z" />
    <glyph glyph-name="dotlessi" unicode="&#x131;" horiz-adv-x="236" 
d="M143 483v-483h-50v483h50z" />
    <glyph glyph-name="IJ" unicode="&#x132;" horiz-adv-x="613" 
d="M150 660v-660h-52v660h52zM516 660v-517q0 -78 -43.5 -115.5t-116.5 -37.5q-39 0 -82 10v46q38 -7 75 -7q55 0 85 23t30 84v514h52z" />
    <glyph glyph-name="ij" unicode="&#x133;" horiz-adv-x="472" 
d="M118 713q19 0 31.5 -13t12.5 -31t-12.5 -31t-31.5 -13q-18 0 -31 13t-13 31t13 31t31 13zM354 713q19 0 31.5 -13t12.5 -31t-12.5 -31t-31.5 -13q-18 0 -31 13t-13 31t13 31t31 13zM143 483v-483h-50v483h50zM379 483v-528q0 -75 -39.5 -110t-106.5 -35q-29 0 -55 6v44
q23 -4 46 -4q105 0 105 101v526h50z" />
    <glyph glyph-name="Jcircumflex" unicode="&#x134;" horiz-adv-x="366" 
d="M251 910l146 -186h-42l-119 129l-119 -129h-42l146 186h30zM217 146v514h52v-517q0 -78 -43.5 -115.5t-116.5 -37.5q-39 0 -82 10v46q38 -7 75 -7q55 0 85 23t30 84z" />
    <glyph glyph-name="jcircumflex" unicode="&#x135;" horiz-adv-x="236" 
d="M132 780l136 -216h-41l-109 152l-110 -152h-41l136 216h29zM93 -43v526h50v-528q0 -75 -39.5 -110t-106.5 -35q-29 0 -55 6v44q23 -4 46 -4q105 0 105 101z" />
    <glyph glyph-name="Kcommaaccent" unicode="&#x136;" horiz-adv-x="613" 
d="M98 0v660h52v-660h-52zM233 356l344 -356h-67l-346 357l320 303h69zM252 -220l12 169h53l-24 -169h-41z" />
    <glyph glyph-name="kcommaaccent" unicode="&#x137;" horiz-adv-x="482" 
d="M93 0v750h50v-750h-50zM222 271l243 -271h-66l-241 272l217 211h68zM202 -220l12 169h53l-24 -169h-41z" />
    <glyph glyph-name="Lacute" unicode="&#x139;" horiz-adv-x="499" 
d="M256 910v-9l-113 -177h-40l91 186h62zM150 660v-613h325v-47h-377v660h52z" />
    <glyph glyph-name="lacute" unicode="&#x13a;" horiz-adv-x="236" 
d="M250 1000v-9l-113 -177h-40l91 186h62zM143 750v-750h-50v750h50z" />
    <glyph glyph-name="Lcommaaccent" unicode="&#x13b;" horiz-adv-x="499" 
d="M150 660v-613h325v-47h-377v660h52zM307 -51l-24 -169h-41l12 169h53z" />
    <glyph glyph-name="lcommaaccent" unicode="&#x13c;" horiz-adv-x="236" 
d="M143 750v-750h-50v750h50zM144 -51l-24 -169h-41l12 169h53z" />
    <glyph glyph-name="Lcaron" unicode="&#x13d;" horiz-adv-x="499" 
d="M441 720l-35 -210h-40l17 210h58zM150 660v-613h325v-47h-377v660h52z" />
    <glyph glyph-name="lcaron" unicode="&#x13e;" horiz-adv-x="333" 
d="M143 750v-750h-50v750h50zM319 750l-35 -210h-40l17 210h58z" />
    <glyph glyph-name="Ldot" unicode="&#x13f;" horiz-adv-x="499" 
d="M150 660v-613h325v-47h-377v660h52zM372 413q21 0 35.5 -13.5t14.5 -36.5q0 -21 -14.5 -34.5t-35.5 -13.5q-19 0 -33.5 13.5t-14.5 34.5q0 22 14 36t34 14z" />
    <glyph glyph-name="ldot" unicode="&#x140;" horiz-adv-x="238" 
d="M143 750v-750h-50v750h50zM250 360q21 0 35.5 -13.5t14.5 -36.5q0 -21 -14.5 -34.5t-35.5 -13.5q-19 0 -33.5 13.5t-14.5 34.5q0 22 14 36t34 14z" />
    <glyph glyph-name="Lslash" unicode="&#x141;" horiz-adv-x="499" 
d="M150 47h325v-47h-377v276l-81 -37v49l81 37v335h52v-315l232 105v-49l-232 -105v-249z" />
    <glyph glyph-name="lslash" unicode="&#x142;" horiz-adv-x="286" 
d="M251 448v-49l-86 -40v-359h-51v341l-82 -38v49l82 38v360h51v-342z" />
    <glyph glyph-name="Nacute" unicode="&#x143;" horiz-adv-x="706" 
d="M485 901l-113 -177h-40l91 186h62v-9zM556 660h52v-670h-21l-437 559v-549h-52v670h20l438 -563v553z" />
    <glyph glyph-name="nacute" unicode="&#x144;" horiz-adv-x="558" 
d="M418 771l-113 -207h-40l91 216h62v-9zM295 493q83 0 130 -52t47 -136v-305h-50v302q0 64 -36.5 104t-98.5 40q-63 0 -103.5 -41t-40.5 -103v-302h-50v483h48v-65q53 75 154 75z" />
    <glyph glyph-name="Ncommaaccent" unicode="&#x145;" horiz-adv-x="706" 
d="M556 660h52v-670h-21l-437 559v-549h-52v670h20l438 -563v553zM314 -220l12 169h53l-24 -169h-41z" />
    <glyph glyph-name="ncommaaccent" unicode="&#x146;" horiz-adv-x="558" 
d="M295 493q83 0 130 -52t47 -136v-305h-50v302q0 64 -36.5 104t-98.5 40q-63 0 -103.5 -41t-40.5 -103v-302h-50v483h48v-65q53 75 154 75zM245 -220l12 169h53l-24 -169h-41z" />
    <glyph glyph-name="Ncaron" unicode="&#x147;" horiz-adv-x="706" 
d="M367 724h-30l-146 186h42l119 -129l119 129h42zM556 660h52v-670h-21l-437 559v-549h-52v670h20l438 -563v553z" />
    <glyph glyph-name="ncaron" unicode="&#x148;" horiz-adv-x="558" 
d="M298 564h-29l-136 216h41l110 -152l109 152h41zM295 493q83 0 130 -52t47 -136v-305h-50v302q0 64 -36.5 104t-98.5 40q-63 0 -103.5 -41t-40.5 -103v-302h-50v483h48v-65q53 75 154 75z" />
    <glyph glyph-name="Eng" unicode="&#x14a;" horiz-adv-x="706" 
d="M556 660h52v-705q0 -75 -39.5 -110t-106.5 -35q-30 0 -55 6v44q23 -4 46 -4q103 0 103 101v46l-406 541v-544h-52v670h20l438 -583v573z" />
    <glyph glyph-name="eng" unicode="&#x14b;" horiz-adv-x="558" 
d="M295 493q83 0 130 -52t47 -136v-350q0 -75 -39.5 -110t-106.5 -35q-30 0 -55 6v44q23 -4 46 -4q105 0 105 101v344q0 65 -36.5 105t-98.5 40q-63 0 -103.5 -41t-40.5 -104v-301h-50v483h48v-65q53 75 154 75z" />
    <glyph glyph-name="Omacron" unicode="&#x14c;" horiz-adv-x="783" 
d="M533 820v-43h-282v43h282zM391 670q141 0 240 -98t99 -242q0 -143 -99 -241.5t-240 -98.5q-142 0 -240 98.5t-98 241.5q0 144 98 242t240 98zM392 622q-122 0 -203 -83.5t-81 -207.5t81 -208t203 -84q121 0 202 84t81 208q0 123 -81.5 207t-201.5 84z" />
    <glyph glyph-name="omacron" unicode="&#x14d;" horiz-adv-x="612" 
d="M437 691v-43h-262v43h262zM306 493q104 0 177 -72.5t73 -178.5t-73 -179t-178 -73q-104 0 -176.5 73t-72.5 179t72.5 178.5t177.5 72.5zM306 446q-85 0 -141.5 -59t-56.5 -146t56.5 -145.5t140.5 -58.5t141.5 59t57.5 145q0 87 -57 146t-141 59z" />
    <glyph glyph-name="Obreve" unicode="&#x14e;" horiz-adv-x="783" 
d="M534 887q0 -61 -40.5 -102t-101.5 -41t-102 41t-41 102h45q0 -46 28 -73.5t70 -27.5t69.5 27.5t27.5 73.5h45zM391 670q141 0 240 -98t99 -242q0 -143 -99 -241.5t-240 -98.5q-142 0 -240 98.5t-98 241.5q0 144 98 242t240 98zM392 622q-122 0 -203 -83.5t-81 -207.5
t81 -208t203 -84q121 0 202 84t81 208q0 123 -81.5 207t-201.5 84z" />
    <glyph glyph-name="obreve" unicode="&#x14f;" horiz-adv-x="612" 
d="M448 729q0 -61 -40.5 -102t-101.5 -41t-102 41t-41 102h45q0 -46 28 -73.5t70 -27.5t69.5 27.5t27.5 73.5h45zM306 493q104 0 177 -72.5t73 -178.5t-73 -179t-178 -73q-104 0 -176.5 73t-72.5 179t72.5 178.5t177.5 72.5zM306 446q-85 0 -141.5 -59t-56.5 -146
t56.5 -145.5t140.5 -58.5t141.5 59t57.5 145q0 87 -57 146t-141 59z" />
    <glyph glyph-name="Ohungarumlaut" unicode="&#x150;" horiz-adv-x="783" 
d="M428 910v-9l-109 -177h-39l91 186h57zM595 910v-9l-110 -177h-39l92 186h57zM391 670q141 0 240 -98t99 -242q0 -143 -99 -241.5t-240 -98.5q-142 0 -240 98.5t-98 241.5q0 144 98 242t240 98zM392 622q-122 0 -203 -83.5t-81 -207.5t81 -208t203 -84q121 0 202 84
t81 208q0 123 -81.5 207t-201.5 84z" />
    <glyph glyph-name="ohungarumlaut" unicode="&#x151;" horiz-adv-x="612" 
d="M360 780v-9l-109 -207h-39l91 216h57zM507 780v-9l-110 -207h-39l92 216h57zM306 493q104 0 177 -72.5t73 -178.5t-73 -179t-178 -73q-104 0 -176.5 73t-72.5 179t72.5 178.5t177.5 72.5zM306 446q-85 0 -141.5 -59t-56.5 -146t56.5 -145.5t140.5 -58.5t141.5 59
t57.5 145q0 87 -57 146t-141 59z" />
    <glyph glyph-name="OE" unicode="&#x152;" horiz-adv-x="1141" 
d="M727 47h374v-47h-426v158q-38 -77 -115 -122.5t-170 -45.5q-142 0 -239.5 98.5t-97.5 241.5q0 144 98 242t240 98q94 0 170 -45.5t114 -122.5v158h414v-47h-362v-234h281v-45h-281v-287zM391 39q122 0 203 84t81 208t-81 207.5t-203 83.5q-121 0 -202 -83.5t-81 -207.5
t80.5 -208t202.5 -84z" />
    <glyph glyph-name="oe" unicode="&#x153;" horiz-adv-x="1000" 
d="M944 278q0 -33 -4 -49h-396q4 -84 57 -138t134 -54q97 0 160 76l33 -33q-78 -91 -194 -91q-72 0 -129.5 38t-85.5 102q-29 -64 -86 -101.5t-129 -37.5q-104 0 -176 73t-72 178q0 106 72.5 179t176.5 73q72 0 128.5 -38t84.5 -101q28 63 84 101t127 38q89 0 152 -59.5
t63 -155.5zM304 37q84 0 137 58.5t53 145.5q0 88 -53 146.5t-136 58.5q-84 0 -140.5 -59t-56.5 -146q0 -86 56 -145t140 -59zM726 446q-71 0 -120.5 -47.5t-59.5 -123.5h346q3 78 -46 124.5t-120 46.5z" />
    <glyph glyph-name="Racute" unicode="&#x154;" horiz-adv-x="614" 
d="M395 901l-113 -177h-40l91 186h62v-9zM594 0h-61l-222 296h-161v-296h-52v660h224q92 0 146 -51t54 -131q0 -68 -40 -116.5t-111 -61.5zM150 613v-270h170q71 0 109.5 37.5t38.5 97.5t-38.5 97.5t-109.5 37.5h-170z" />
    <glyph glyph-name="racute" unicode="&#x155;" horiz-adv-x="350" 
d="M292 771l-113 -207h-40l91 216h62v-9zM301 486q4 0 31 -3v-44h-25q-65 0 -114.5 -42t-49.5 -113v-284h-50v483h48v-82q26 42 68 63.5t92 21.5z" />
    <glyph glyph-name="Rcommaaccent" unicode="&#x156;" horiz-adv-x="614" 
d="M371 300l223 -300h-61l-222 296h-161v-296h-52v660h224q92 0 146 -51t54 -131q0 -68 -40 -116.5t-111 -61.5zM150 613v-270h170q71 0 109.5 37.5t38.5 97.5t-38.5 97.5t-109.5 37.5h-170zM258 -220l12 169h53l-24 -169h-41z" />
    <glyph glyph-name="rcommaaccent" unicode="&#x157;" horiz-adv-x="350" 
d="M301 486q4 0 31 -3v-44h-25q-65 0 -114.5 -42t-49.5 -113v-284h-50v483h48v-82q26 42 68 63.5t92 21.5zM79 -220l12 169h53l-24 -169h-41z" />
    <glyph glyph-name="Rcaron" unicode="&#x158;" horiz-adv-x="614" 
d="M277 724h-30l-146 186h42l119 -129l119 129h42zM594 0h-61l-222 296h-161v-296h-52v660h224q92 0 146 -51t54 -131q0 -68 -40 -116.5t-111 -61.5zM150 613v-270h170q71 0 109.5 37.5t38.5 97.5t-38.5 97.5t-109.5 37.5h-170z" />
    <glyph glyph-name="rcaron" unicode="&#x159;" horiz-adv-x="350" 
d="M172 564h-29l-136 216h41l110 -152l109 152h41zM301 486q4 0 31 -3v-44h-25q-65 0 -114.5 -42t-49.5 -113v-284h-50v483h48v-82q26 42 68 63.5t92 21.5z" />
    <glyph glyph-name="Sacute" unicode="&#x15a;" horiz-adv-x="556" 
d="M415 910v-9l-113 -177h-40l91 186h62zM283 670q63 0 114.5 -28.5t83.5 -76.5l-38 -29q-60 86 -160 86q-56 0 -97 -28t-41 -84q0 -25 8 -44.5t26.5 -34.5t35 -24.5t47.5 -24.5l74 -36q79 -38 115.5 -77.5t36.5 -103.5q0 -78 -58.5 -126.5t-146.5 -48.5q-75 0 -136.5 37.5
t-100.5 102.5l39 29q76 -120 199 -120q66 0 108 33.5t42 91.5q0 49 -28 76.5t-94 59.5l-75 36q-70 33 -108 70t-38 101q0 75 55.5 119t136.5 44z" />
    <glyph glyph-name="sacute" unicode="&#x15b;" horiz-adv-x="455" 
d="M365 780v-9l-113 -207h-40l91 216h62zM232 493q96 0 156 -77l-33 -32q-55 62 -126 62q-42 0 -70 -19.5t-28 -56.5q0 -31 21 -48.5t70 -38.5l45 -20q62 -27 93.5 -58t31.5 -81q0 -64 -47 -99t-114 -35q-115 0 -185 100l35 33q67 -86 150 -86q46 0 77.5 22t31.5 63
q0 19 -6.5 33.5t-24 26.5t-29.5 18.5t-39 18.5l-44 19q-58 25 -88.5 53.5t-30.5 75.5q0 58 45 92t109 34z" />
    <glyph glyph-name="Scircumflex" unicode="&#x15c;" horiz-adv-x="556" 
d="M282 853l-119 -129h-42l146 186h30l146 -186h-42zM336 346q79 -38 115.5 -77.5t36.5 -103.5q0 -78 -58.5 -126.5t-146.5 -48.5q-75 0 -136.5 37.5t-100.5 102.5l39 29q76 -120 199 -120q66 0 108 33.5t42 91.5q0 49 -28 76.5t-94 59.5l-75 36q-70 33 -108 70t-38 101
q0 75 55.5 119t136.5 44q63 0 114.5 -28.5t83.5 -76.5l-38 -29q-60 86 -160 86q-56 0 -97 -28t-41 -84q0 -25 8 -44.5t26.5 -34.5t35 -24.5t47.5 -24.5z" />
    <glyph glyph-name="scircumflex" unicode="&#x15d;" horiz-adv-x="455" 
d="M231 716l-110 -152h-41l136 216h29l136 -216h-41zM267 263q62 -27 93.5 -58t31.5 -81q0 -64 -47 -99t-114 -35q-115 0 -185 100l35 33q67 -86 150 -86q46 0 77.5 22t31.5 63q0 19 -6.5 33.5t-24 26.5t-29.5 18.5t-39 18.5l-44 19q-58 25 -88.5 53.5t-30.5 75.5
q0 58 45 92t109 34q96 0 156 -77l-33 -32q-55 62 -126 62q-42 0 -70 -19.5t-28 -56.5q0 -31 21 -48.5t70 -38.5z" />
    <glyph glyph-name="Scedilla" unicode="&#x15e;" horiz-adv-x="556" 
d="M488 165q0 -69 -45.5 -115t-119.5 -57q32 -30 32 -75q0 -46 -32.5 -77t-87.5 -31q-32 0 -67 10v39q32 -7 60 -7q35 0 57.5 18t22.5 54t-28 66q-75 1 -135 38t-99 102l39 29q76 -120 199 -120q66 0 108 33.5t42 91.5q0 49 -28 76.5t-94 59.5l-75 36q-70 33 -108 70
t-38 101q0 75 55.5 119t136.5 44q63 0 114.5 -28.5t83.5 -76.5l-38 -29q-60 86 -160 86q-56 0 -97 -28t-41 -84q0 -25 8 -44.5t26.5 -34.5t35 -24.5t47.5 -24.5l74 -36q79 -38 115.5 -77.5t36.5 -103.5z" />
    <glyph glyph-name="scedilla" unicode="&#x15f;" horiz-adv-x="455" 
d="M392 124q0 -52 -33 -86t-85 -44q34 -31 34 -76q0 -46 -32.5 -77t-87.5 -31q-32 0 -67 10v39q32 -7 60 -7q35 0 57.5 18t22.5 54t-28 66h-2q-115 0 -185 100l35 33q67 -86 150 -86q46 0 77.5 22t31.5 63q0 19 -6.5 33.5t-24 26.5t-29.5 18.5t-39 18.5l-44 19
q-58 25 -88.5 53.5t-30.5 75.5q0 58 45 92t109 34q96 0 156 -77l-33 -32q-55 62 -126 62q-42 0 -70 -19.5t-28 -56.5q0 -31 21 -48.5t70 -38.5l45 -20q62 -27 93.5 -58t31.5 -81z" />
    <glyph glyph-name="Scaron" unicode="&#x160;" horiz-adv-x="556" 
d="M297 724h-30l-146 186h42l119 -129l119 129h42zM336 346q79 -38 115.5 -77.5t36.5 -103.5q0 -78 -58.5 -126.5t-146.5 -48.5q-75 0 -136.5 37.5t-100.5 102.5l39 29q76 -120 199 -120q66 0 108 33.5t42 91.5q0 49 -28 76.5t-94 59.5l-75 36q-70 33 -108 70t-38 101
q0 75 55.5 119t136.5 44q63 0 114.5 -28.5t83.5 -76.5l-38 -29q-60 86 -160 86q-56 0 -97 -28t-41 -84q0 -25 8 -44.5t26.5 -34.5t35 -24.5t47.5 -24.5z" />
    <glyph glyph-name="scaron" unicode="&#x161;" horiz-adv-x="455" 
d="M245 564h-29l-136 216h41l110 -152l109 152h41zM267 263q62 -27 93.5 -58t31.5 -81q0 -64 -47 -99t-114 -35q-115 0 -185 100l35 33q67 -86 150 -86q46 0 77.5 22t31.5 63q0 19 -6.5 33.5t-24 26.5t-29.5 18.5t-39 18.5l-44 19q-58 25 -88.5 53.5t-30.5 75.5q0 58 45 92
t109 34q96 0 156 -77l-33 -32q-55 62 -126 62q-42 0 -70 -19.5t-28 -56.5q0 -31 21 -48.5t70 -38.5z" />
    <glyph glyph-name="uni0162" unicode="&#x162;" horiz-adv-x="583" 
d="M559 613h-242v-611q43 -33 43 -84q0 -46 -32.5 -77t-87.5 -31q-32 0 -67 10v39q32 -7 60 -7q35 0 57.5 18t22.5 54q0 42 -38 76h-10v613h-241v47h535v-47z" />
    <glyph glyph-name="uni0163" unicode="&#x163;" horiz-adv-x="363" 
d="M335 0q-38 -10 -75 -10h-8q30 -30 30 -72q0 -46 -32.5 -77t-87.5 -31q-32 0 -67 10v39q32 -7 60 -7q35 0 57.5 18t22.5 54q0 41 -38 75q-85 28 -85 136v302h-84v46h84v137h51v-137h156v-46h-156v-300q0 -101 105 -101q29 0 67 8v-44z" />
    <glyph glyph-name="Tcaron" unicode="&#x164;" horiz-adv-x="583" 
d="M306 724h-30l-146 186h42l119 -129l119 129h42zM24 660h535v-47h-242v-613h-52v613h-241v47z" />
    <glyph glyph-name="tcaron" unicode="&#x165;" horiz-adv-x="363" 
d="M339 750l-35 -210h-40l17 210h58zM163 137q0 -101 105 -101q29 0 67 8v-44q-38 -10 -75 -10q-68 0 -108 35t-40 110v302h-84v46h84v137h51v-137h156v-46h-156v-300z" />
    <glyph glyph-name="Tbar" unicode="&#x166;" horiz-adv-x="583" 
d="M559 660v-47h-242v-294h204v-44h-204v-275h-52v275h-203v44h203v294h-241v47h535z" />
    <glyph glyph-name="tbar" unicode="&#x167;" horiz-adv-x="377" 
d="M276 36q30 0 68 8v-44q-38 -10 -75 -10q-67 0 -107 35t-40 110v94h-85v44h85v165h-85v45h85v137h50v-137h156v-45h-156v-165h156v-44h-156v-92q0 -101 104 -101z" />
    <glyph glyph-name="Utilde" unicode="&#x168;" horiz-adv-x="683" 
d="M264 867q28 0 68 -27l36 -24q30 -21 45 -21q32 0 32 42v20h44q1 -7 1 -22q0 -36 -18.5 -61t-52.5 -25q-29 0 -69 27l-35 23q-31 21 -45 21q-32 0 -32 -42v-19h-45q-1 6 -1 22q0 35 19 60.5t53 25.5zM595 660v-404q0 -124 -69.5 -195t-183.5 -71q-116 0 -185 71t-69 195
v404h52v-406q0 -103 55.5 -159t146.5 -56q90 0 145.5 56t55.5 159v406h52z" />
    <glyph glyph-name="utilde" unicode="&#x169;" horiz-adv-x="551" 
d="M206 729q33 0 65 -30l25 -25q24 -24 42 -24q32 0 32 46v19h44q1 -7 1 -22q0 -38 -18 -64t-53 -26t-65 30l-26 25q-24 24 -42 24q-32 0 -32 -45v-20h-44q-1 8 -1 22q0 38 18.5 64t53.5 26zM465 483v-300q0 -87 -54 -140t-135 -53q-82 0 -136 53t-54 140v300h50v-302
q0 -66 40 -105t100 -39q59 0 99 39t40 105v302h50z" />
    <glyph glyph-name="Umacron" unicode="&#x16a;" horiz-adv-x="683" 
d="M482 820v-43h-282v43h282zM595 660v-404q0 -124 -69.5 -195t-183.5 -71q-116 0 -185 71t-69 195v404h52v-406q0 -103 55.5 -159t146.5 -56q90 0 145.5 56t55.5 159v406h52z" />
    <glyph glyph-name="umacron" unicode="&#x16b;" horiz-adv-x="551" 
d="M406 691v-43h-262v43h262zM465 483v-300q0 -87 -54 -140t-135 -53q-82 0 -136 53t-54 140v300h50v-302q0 -66 40 -105t100 -39q59 0 99 39t40 105v302h50z" />
    <glyph glyph-name="Ubreve" unicode="&#x16c;" horiz-adv-x="683" 
d="M483 887q0 -61 -40.5 -102t-101.5 -41t-102 41t-41 102h45q0 -46 28 -73.5t70 -27.5t69.5 27.5t27.5 73.5h45zM595 660v-404q0 -124 -69.5 -195t-183.5 -71q-116 0 -185 71t-69 195v404h52v-406q0 -103 55.5 -159t146.5 -56q90 0 145.5 56t55.5 159v406h52z" />
    <glyph glyph-name="ubreve" unicode="&#x16d;" horiz-adv-x="551" 
d="M417 729q0 -61 -40.5 -102t-101.5 -41t-102 41t-41 102h45q0 -46 28 -73.5t70 -27.5t69.5 27.5t27.5 73.5h45zM465 483v-300q0 -87 -54 -140t-135 -53q-82 0 -136 53t-54 140v300h50v-302q0 -66 40 -105t100 -39q59 0 99 39t40 105v302h50z" />
    <glyph glyph-name="Uring" unicode="&#x16e;" horiz-adv-x="683" 
d="M340 912q44 0 74 -29.5t30 -72.5t-30 -72.5t-74 -29.5q-43 0 -73 29.5t-30 72.5t30 72.5t73 29.5zM341 871q-26 0 -43.5 -17.5t-17.5 -43.5t17.5 -43.5t43.5 -17.5q25 0 42.5 17.5t17.5 43.5t-17 43.5t-43 17.5zM595 660v-404q0 -124 -69.5 -195t-183.5 -71
q-116 0 -185 71t-69 195v404h52v-406q0 -103 55.5 -159t146.5 -56q90 0 145.5 56t55.5 159v406h52z" />
    <glyph glyph-name="uring" unicode="&#x16f;" horiz-adv-x="551" 
d="M274 769q44 0 74 -29.5t30 -72.5t-30 -72.5t-74 -29.5q-43 0 -73 29.5t-30 72.5t30 72.5t73 29.5zM275 728q-26 0 -43.5 -17.5t-17.5 -43.5t17.5 -43.5t43.5 -17.5t43 17.5t17 43.5t-17.5 43.5t-42.5 17.5zM465 483v-300q0 -87 -54 -140t-135 -53q-82 0 -136 53t-54 140
v300h50v-302q0 -66 40 -105t100 -39q59 0 99 39t40 105v302h50z" />
    <glyph glyph-name="Uhungarumlaut" unicode="&#x170;" horiz-adv-x="683" 
d="M377 910v-9l-109 -177h-39l91 186h57zM544 910v-9l-110 -177h-39l92 186h57zM595 660v-404q0 -124 -69.5 -195t-183.5 -71q-116 0 -185 71t-69 195v404h52v-406q0 -103 55.5 -159t146.5 -56q90 0 145.5 56t55.5 159v406h52z" />
    <glyph glyph-name="uhungarumlaut" unicode="&#x171;" horiz-adv-x="551" 
d="M329 780v-9l-109 -207h-39l91 216h57zM476 780v-9l-110 -207h-39l92 216h57zM465 483v-300q0 -87 -54 -140t-135 -53q-82 0 -136 53t-54 140v300h50v-302q0 -66 40 -105t100 -39q59 0 99 39t40 105v302h50z" />
    <glyph glyph-name="Uogonek" unicode="&#x172;" horiz-adv-x="683" 
d="M543 660h52v-404q0 -28 -4.5 -53.5t-9 -44t-17 -40t-19 -32t-25.5 -30.5t-24.5 -25.5t-29 -26t-27.5 -23.5q-29 -26 -42 -44t-13 -40q0 -45 57 -45q21 0 59 8v-40q-36 -10 -68 -10q-43 0 -71 19.5t-28 58.5q0 58 77 113q-33 -11 -73 -11q-107 0 -178 73t-71 193v404h52
v-406q0 -100 57.5 -157.5t143.5 -57.5q87 0 144.5 57.5t57.5 157.5v406z" />
    <glyph glyph-name="uogonek" unicode="&#x173;" horiz-adv-x="551" 
d="M415 483h50v-300q0 -17 -1.5 -31.5t-6 -28t-7.5 -23t-12.5 -22.5t-13.5 -19t-18 -19.5t-18.5 -18t-22.5 -20.5t-23 -21q-30 -27 -43 -44.5t-13 -38.5q0 -46 58 -46q28 0 58 8v-38q-31 -11 -68 -11q-42 0 -69.5 19.5t-27.5 58.5q0 54 66 104q-18 -2 -27 -2q-82 0 -136 53
t-54 140v300h50v-302q0 -66 40 -105t100 -39q59 0 99 39t40 105v302z" />
    <glyph glyph-name="Wcircumflex" unicode="&#x174;" horiz-adv-x="1072" 
d="M536 853l-119 -129h-42l146 186h30l146 -186h-42zM966 660h55l-244 -670h-21l-220 577l-220 -577h-21l-244 670h56l200 -563l219 573h20l220 -573z" />
    <glyph glyph-name="wcircumflex" unicode="&#x175;" horiz-adv-x="845" 
d="M422 716l-110 -152h-41l136 216h29l136 -216h-41zM759 483h54l-194 -493h-21l-176 407l-175 -407h-20l-195 493h54l152 -401l174 411h21l175 -409z" />
    <glyph glyph-name="Ycircumflex" unicode="&#x176;" horiz-adv-x="613" 
d="M304 853l-119 -129h-42l146 186h30l146 -186h-42zM562 660l-230 -381v-279h-52v281l-229 379h57l199 -331l198 331h57z" />
    <glyph glyph-name="ycircumflex" unicode="&#x177;" horiz-adv-x="527" 
d="M262 716l-110 -152h-41l136 216h29l136 -216h-41zM441 483h54l-241 -562q-48 -111 -151 -111q-35 0 -68 9v44q32 -7 61 -7q76 0 112 83l31 71l-207 473h55l179 -416z" />
    <glyph glyph-name="Ydieresis" unicode="&#x178;" horiz-adv-x="613" 
d="M191 765q-17 0 -30 12.5t-13 30.5t12.5 30t30.5 12t30.5 -12t12.5 -30t-12.5 -30.5t-30.5 -12.5zM417 765q-17 0 -30 12.5t-13 29.5q0 18 13 30.5t30 12.5q18 0 30.5 -12.5t12.5 -30.5q0 -17 -12.5 -29.5t-30.5 -12.5zM562 660l-230 -381v-279h-52v281l-229 379h57
l199 -331l198 331h57z" />
    <glyph glyph-name="Zacute" unicode="&#x179;" horiz-adv-x="590" 
d="M431 901l-113 -177h-40l91 186h62v-9zM118 47h434v-47h-514v17l432 596h-389v47h470v-17z" />
    <glyph glyph-name="zacute" unicode="&#x17a;" horiz-adv-x="450" 
d="M369 771l-113 -207h-40l91 216h62v-9zM110 46h308v-46h-385v17l303 420h-280v46h357v-17z" />
    <glyph glyph-name="Zdotaccent" unicode="&#x17b;" horiz-adv-x="590" 
d="M299 764q-18 0 -31 12.5t-13 31.5q0 18 13 30.5t31 12.5q19 0 31.5 -12.5t12.5 -30.5q0 -19 -12.5 -31.5t-31.5 -12.5zM118 47h434v-47h-514v17l432 596h-389v47h470v-17z" />
    <glyph glyph-name="zdotaccent" unicode="&#x17c;" horiz-adv-x="450" 
d="M235 625q-18 0 -31 13t-13 31t13 31t31 13q19 0 31.5 -13t12.5 -31t-12.5 -31t-31.5 -13zM110 46h308v-46h-385v17l303 420h-280v46h357v-17z" />
    <glyph glyph-name="Zcaron" unicode="&#x17d;" horiz-adv-x="590" 
d="M313 724h-30l-146 186h42l119 -129l119 129h42zM118 47h434v-47h-514v17l432 596h-389v47h470v-17z" />
    <glyph glyph-name="zcaron" unicode="&#x17e;" horiz-adv-x="450" 
d="M249 564h-29l-136 216h41l110 -152l109 152h41zM110 46h308v-46h-385v17l303 420h-280v46h357v-17z" />
    <glyph glyph-name="uni018F" unicode="&#x18f;" horiz-adv-x="757" 
d="M350 670q139 0 233 -98t94 -240q0 -144 -96 -243t-234 -99q-122 0 -208 80t-86 212q0 11 4 59h566q-3 121 -81 201t-193 80q-68 0 -128.5 -30.5t-99.5 -84.5l-36 31q45 61 115 96.5t150 35.5zM349 39q107 0 183 72.5t89 182.5h-515q-6 -115 66 -185t177 -70z" />
    <glyph glyph-name="florin" unicode="&#x192;" horiz-adv-x="439" 
d="M378 670q28 0 52 -6v-42q-36 2 -44 2q-49 0 -76 -22t-34 -79l-16 -129h111v-46h-117l-41 -336q-18 -145 -152 -145q-28 0 -52 6v43q27 -3 44 -3q49 0 76 22.5t34 78.5l41 334h-80v46h86l16 131q17 145 152 145z" />
    <glyph glyph-name="uni01D4" unicode="&#x1d4;" horiz-adv-x="551" 
d="M289 564h-29l-136 216h41l110 -152l109 152h41zM415 483h50v-300q0 -87 -54 -140t-135 -53q-82 0 -136 53t-54 140v300h50v-302q0 -66 40 -105t100 -39q59 0 99 39t40 105v302z" />
    <glyph glyph-name="AEacute" unicode="&#x1fc;" horiz-adv-x="807" 
d="M535 901l-113 -177h-40l91 186h62v-9zM520 47h247v-47h-293l-27 158h-291l-83 -158h-56l344 660h394v-47h-334l41 -233h213v-47h-205zM374 583l-194 -378h259z" />
    <glyph glyph-name="aeacute" unicode="&#x1fd;" horiz-adv-x="902" 
d="M563 771l-113 -207h-40l91 216h62v-9zM842 221h-403q7 -81 62.5 -132.5t135.5 -51.5q95 0 160 76l33 -33q-76 -90 -194 -90q-71 0 -129 35.5t-89 95.5q-21 -61 -76 -96t-125 -35q-73 0 -120.5 36.5t-47.5 101.5q0 63 46 100t122 37h168v40q0 69 -36 105t-96 36
q-86 0 -147 -81l-35 28q70 100 185 100q62 0 106.5 -30.5t61.5 -87.5q32 54 86.5 86t119.5 32q91 0 153.5 -59.5t62.5 -156.5q0 -36 -4 -56zM439 265h355q5 81 -44.5 131.5t-123.5 50.5t-126.5 -51.5t-60.5 -130.5zM222 34q66 0 114.5 42t48.5 104v41h-163q-121 0 -121 -88
q0 -49 35.5 -74t85.5 -25z" />
    <glyph glyph-name="Oslashacute" unicode="&#x1fe;" horiz-adv-x="783" 
d="M524 901l-113 -177h-40l91 186h62v-9zM735 641l-87 -87q82 -95 82 -224q0 -143 -99 -241.5t-240 -98.5q-129 0 -223 83l-87 -87l-33 33l87 87q-82 95 -82 224q0 144 98 242t240 98q128 0 224 -83l87 87zM106 331q0 -108 64 -190l410 411q-77 71 -188 71
q-123 0 -204.5 -84t-81.5 -208zM676 331q0 109 -64 187l-410 -411q80 -70 190 -70q121 0 202.5 84.5t81.5 209.5z" />
    <glyph glyph-name="oslashacute" unicode="&#x1ff;" horiz-adv-x="625" 
d="M447 771l-113 -207h-40l91 216h62v-9zM567 464l-62 -62q57 -72 57 -161q0 -104 -73.5 -177.5t-177.5 -73.5q-91 0 -160 58l-61 -62l-33 33l62 61q-57 70 -57 161q0 106 73 179t177 73q91 0 160 -59l62 62zM312 448q-86 0 -143 -59.5t-57 -147.5q0 -73 41 -128l288 288
q-53 47 -129 47zM311 35q85 0 143 59.5t58 146.5q0 73 -41 128l-288 -288q56 -46 128 -46z" />
    <glyph glyph-name="Scommaaccent" unicode="&#x218;" horiz-adv-x="556" 
d="M283 670q63 0 114.5 -28.5t83.5 -76.5l-38 -29q-60 86 -160 86q-56 0 -97 -28t-41 -84q0 -25 8 -44.5t26.5 -34.5t35 -24.5t47.5 -24.5l74 -36q79 -38 115.5 -77.5t36.5 -103.5q0 -78 -58.5 -126.5t-146.5 -48.5q-75 0 -136.5 37.5t-100.5 102.5l39 29q76 -120 199 -120
q66 0 108 33.5t42 91.5q0 49 -28 76.5t-94 59.5l-75 36q-70 33 -108 70t-38 101q0 75 55.5 119t136.5 44zM313 -51l-24 -169h-41l12 169h53z" />
    <glyph glyph-name="scommaaccent" unicode="&#x219;" horiz-adv-x="455" 
d="M232 493q96 0 156 -77l-33 -32q-55 62 -126 62q-42 0 -70 -19.5t-28 -56.5q0 -31 21 -48.5t70 -38.5l45 -20q62 -27 93.5 -58t31.5 -81q0 -64 -47 -99t-114 -35q-115 0 -185 100l35 33q67 -86 150 -86q46 0 77.5 22t31.5 63q0 19 -6.5 33.5t-24 26.5t-29.5 18.5t-39 18.5
l-44 19q-58 25 -88.5 53.5t-30.5 75.5q0 58 45 92t109 34zM266 -51l-24 -169h-41l12 169h53z" />
    <glyph glyph-name="uni021A" unicode="&#x21a;" horiz-adv-x="583" 
d="M559 660v-47h-242v-613h-52v613h-241v47h535zM318 -51l-24 -169h-41l12 169h53z" />
    <glyph glyph-name="uni021B" unicode="&#x21b;" horiz-adv-x="363" 
d="M268 36q29 0 67 8v-44q-38 -10 -75 -10q-68 0 -108 35t-40 110v302h-84v46h84v137h51v-137h156v-46h-156v-300q0 -101 105 -101zM175 -220l12 169h53l-24 -169h-41z" />
    <glyph glyph-name="uni0237" unicode="&#x237;" horiz-adv-x="236" 
d="M143 483v-528q0 -75 -39.5 -110t-106.5 -35q-29 0 -55 6v44q23 -4 46 -4q105 0 105 101v526h50z" />
    <glyph glyph-name="uni0259" unicode="&#x259;" horiz-adv-x="572" 
d="M274 493q102 0 172 -72.5t70 -177.5q0 -106 -70.5 -179.5t-172.5 -73.5q-91 0 -154 59.5t-63 155.5q0 32 4 48h404q-4 84 -57.5 138.5t-132.5 54.5q-95 0 -160 -76l-32 33q77 90 192 90zM275 36q72 0 124 48t63 124h-354q-3 -78 46 -125t121 -47z" />
    <glyph glyph-name="circumflex" unicode="&#x2c6;" horiz-adv-x="361" 
d="M331 564h-41l-109 152l-110 -152h-41l136 216h29z" />
    <glyph glyph-name="caron" unicode="&#x2c7;" horiz-adv-x="361" 
d="M290 780h41l-136 -216h-29l-136 216h41l110 -152z" />
    <glyph glyph-name="breve" unicode="&#x2d8;" horiz-adv-x="345" 
d="M315 729q0 -61 -40.5 -102t-101.5 -41t-102 41t-41 102h45q0 -46 28 -73.5t70 -27.5t69.5 27.5t27.5 73.5h45z" />
    <glyph glyph-name="dotaccent" unicode="&#x2d9;" horiz-adv-x="148" 
d="M74 713q19 0 31.5 -13t12.5 -31t-12.5 -31t-31.5 -13q-18 0 -31 13t-13 31t13 31t31 13z" />
    <glyph glyph-name="ring" unicode="&#x2da;" horiz-adv-x="267" 
d="M133 769q44 0 74 -29.5t30 -72.5t-30 -72.5t-74 -29.5q-43 0 -73 29.5t-30 72.5t30 72.5t73 29.5zM134 728q-26 0 -43.5 -17.5t-17.5 -43.5t17.5 -43.5t43.5 -17.5t43 17.5t17 43.5t-17.5 43.5t-42.5 17.5z" />
    <glyph glyph-name="ogonek" unicode="&#x2db;" horiz-adv-x="226" 
d="M171 27l18 -27l-54 -35q-24 -16 -33 -23t-18 -19t-9 -26q0 -21 15.5 -33t41.5 -12q19 0 57 8v-40q-34 -10 -65 -10q-44 0 -72.5 21.5t-28.5 58.5q0 35 32.5 64t115.5 73z" />
    <glyph glyph-name="tilde" unicode="&#x2dc;" horiz-adv-x="341" 
d="M102 729q33 0 65 -30l25 -25q24 -24 42 -24q32 0 32 46v19h44q1 -7 1 -22q0 -38 -18 -64t-53 -26t-65 30l-26 25q-24 24 -42 24q-32 0 -32 -45v-20h-44q-1 8 -1 22q0 38 18.5 64t53.5 26z" />
    <glyph glyph-name="hungarumlaut" unicode="&#x2dd;" horiz-adv-x="355" 
d="M178 780v-9l-109 -207h-39l91 216h57zM325 780v-9l-110 -207h-39l92 216h57z" />
    <glyph glyph-name="uni030C" unicode="&#x30c;" horiz-adv-x="0" 
d="M-30 750l-35 -210h-40l17 210h58z" />
    <glyph glyph-name="uni0326" unicode="&#x326;" horiz-adv-x="0" 
d="M-30 -51l-24 -169h-41l12 169h53z" />
    <glyph glyph-name="dieresistonos" unicode="&#x385;" horiz-adv-x="434" 
d="M253 780v-9l-21 -207h-40v216h61zM84 712q18 0 30.5 -12.5t12.5 -30.5q0 -17 -12.5 -29.5t-30.5 -12.5q-17 0 -30 12.5t-13 29.5q0 18 13 30.5t30 12.5zM352 712q18 0 30.5 -12.5t12.5 -30.5q0 -17 -12.5 -29.5t-30.5 -12.5t-30.5 12.5t-12.5 29.5q0 18 12.5 30.5
t30.5 12.5z" />
    <glyph glyph-name="Alphatonos" unicode="&#x386;" horiz-adv-x="664" 
d="M117 720l-35 -210h-40l17 210h58zM570 0l-65 157h-347l-65 -157h-54l283 670h21l282 -670h-55zM332 577l-154 -373h307z" />
    <glyph glyph-name="Epsilontonos" unicode="&#x388;" horiz-adv-x="563" 
d="M0 720l-35 -210h-40l17 210h58zM511 660v-47h-361v-233h281v-47h-281v-286h373v-47h-425v660h413z" />
    <glyph glyph-name="Etatonos" unicode="&#x389;" horiz-adv-x="706" 
d="M0 720l-35 -210h-40l17 210h58zM608 660v-660h-52v333h-406v-333h-52v660h52v-280h406v280h52z" />
    <glyph glyph-name="Iotatonos" unicode="&#x38a;" horiz-adv-x="247" 
d="M0 720l-35 -210h-40l17 210h58zM150 660v-660h-52v660h52z" />
    <glyph glyph-name="Omicrontonos" unicode="&#x38c;" horiz-adv-x="783" 
d="M39 720l-35 -210h-40l17 210h58zM391 670q141 0 240 -98t99 -242q0 -143 -99 -241.5t-240 -98.5q-142 0 -240 98.5t-98 241.5q0 144 98 242t240 98zM392 622q-122 0 -203 -83.5t-81 -207.5t81 -208t203 -84q121 0 202 84t81 208q0 123 -81.5 207t-201.5 84z" />
    <glyph glyph-name="Upsilontonos" unicode="&#x38e;" horiz-adv-x="613" 
d="M-119 510l17 210h58l-35 -210h-40zM562 660l-230 -381v-279h-52v281l-229 379h57l199 -331l198 331h57z" />
    <glyph glyph-name="Omegatonos" unicode="&#x38f;" horiz-adv-x="793" 
d="M-35 510l17 210h58l-35 -210h-40zM735 341q0 -176 -184 -294h174v-47h-261v46q216 102 216 294q0 123 -80.5 202.5t-203.5 79.5q-122 0 -202.5 -79.5t-80.5 -201.5q0 -192 216 -295v-46h-261v47h171q-181 114 -181 294q0 142 97.5 235.5t240.5 93.5q142 0 240.5 -93.5
t98.5 -235.5z" />
    <glyph glyph-name="iotadieresistonos" unicode="&#x390;" horiz-adv-x="271" 
d="M154 780v-9l-21 -207h-40v216h61zM-15 712q18 0 30.5 -12.5t12.5 -30.5q0 -17 -12.5 -29.5t-30.5 -12.5q-17 0 -30 12.5t-13 29.5q0 18 13 30.5t30 12.5zM253 712q18 0 30.5 -12.5t12.5 -30.5q0 -17 -12.5 -29.5t-30.5 -12.5t-30.5 12.5t-12.5 29.5q0 18 12.5 30.5
t30.5 12.5zM140 483v-355q0 -92 71 -92q16 0 37 3v-44q-18 -5 -47 -5q-112 0 -112 135v358h51z" />
    <glyph glyph-name="Alpha" unicode="&#x391;" horiz-adv-x="664" 
d="M570 0l-65 157h-347l-65 -157h-54l283 670h21l282 -670h-55zM332 577l-154 -373h307z" />
    <glyph glyph-name="Beta" unicode="&#x392;" horiz-adv-x="613" 
d="M424 365q67 -16 104 -63t37 -114q0 -82 -54.5 -135t-150.5 -53h-262v660h224q83 0 130.5 -45t47.5 -116q0 -91 -76 -134zM317 614l-167 -1v-234h167q63 0 96 32.5t33 84.5q0 54 -33 86t-96 32zM355 47q75 0 116 39.5t41 102.5t-41 103t-116 40h-205v-285h205z" />
    <glyph glyph-name="Gamma" unicode="&#x393;" horiz-adv-x="499" 
d="M150 0h-52v660h377v-47h-325v-613z" />
    <glyph glyph-name="uni0394" unicode="&#x394;" horiz-adv-x="664" 
d="M343 670l282 -670h-586l283 670h21zM332 573l-219 -526h438z" />
    <glyph glyph-name="Epsilon" unicode="&#x395;" horiz-adv-x="563" 
d="M511 660v-47h-361v-233h281v-47h-281v-286h373v-47h-425v660h413z" />
    <glyph glyph-name="Zeta" unicode="&#x396;" horiz-adv-x="590" 
d="M118 47h434v-47h-514v17l432 596h-389v47h470v-17z" />
    <glyph glyph-name="Eta" unicode="&#x397;" horiz-adv-x="706" 
d="M608 660v-660h-52v333h-406v-333h-52v660h52v-280h406v280h52z" />
    <glyph glyph-name="Theta" unicode="&#x398;" horiz-adv-x="783" 
d="M391 670q141 0 240 -98t99 -242q0 -143 -99 -241.5t-240 -98.5q-142 0 -240 98.5t-98 241.5q0 144 98 242t240 98zM391 623q-122 0 -203.5 -83.5t-81.5 -208.5t81.5 -209.5t203.5 -84.5t204 84.5t82 209.5q0 124 -82 208t-204 84zM537 363v-47h-291v47h291z" />
    <glyph glyph-name="Iota" unicode="&#x399;" horiz-adv-x="247" 
d="M150 660v-660h-52v660h52z" />
    <glyph glyph-name="Kappa" unicode="&#x39a;" horiz-adv-x="613" 
d="M98 0v660h52v-660h-52zM233 356l344 -356h-67l-346 357l320 303h69z" />
    <glyph glyph-name="Lambda" unicode="&#x39b;" horiz-adv-x="664" 
d="M625 0h-55l-238 573l-239 -573h-54l283 670h21z" />
    <glyph glyph-name="Mu" unicode="&#x39c;" horiz-adv-x="785" 
d="M667 670h20v-670h-52v536l-232 -330h-20l-233 330v-536h-52v670h20l275 -392z" />
    <glyph glyph-name="Nu" unicode="&#x39d;" horiz-adv-x="706" 
d="M556 660h52v-670h-21l-437 559v-549h-52v670h20l438 -563v553z" />
    <glyph glyph-name="Xi" unicode="&#x39e;" horiz-adv-x="536" 
d="M496 660v-47h-456v47h456zM484 364v-47h-433v47h433zM496 47v-47h-456v47h456z" />
    <glyph glyph-name="Omicron" unicode="&#x39f;" horiz-adv-x="783" 
d="M391 670q141 0 240 -98t99 -242q0 -143 -99 -241.5t-240 -98.5q-142 0 -240 98.5t-98 241.5q0 144 98 242t240 98zM392 622q-122 0 -203 -83.5t-81 -207.5t81 -208t203 -84q121 0 202 84t81 208q0 123 -81.5 207t-201.5 84z" />
    <glyph glyph-name="Pi" unicode="&#x3a0;" horiz-adv-x="677" 
d="M580 660v-660h-52v613h-378v-613h-52v660h482z" />
    <glyph glyph-name="Rho" unicode="&#x3a1;" horiz-adv-x="564" 
d="M322 660q92 0 146 -51t54 -131t-54 -131t-146 -51h-172v-296h-52v660h224zM320 613h-170v-270h170q71 0 109.5 37.5t38.5 97.5t-38.5 97.5t-109.5 37.5z" />
    <glyph glyph-name="Sigma" unicode="&#x3a3;" horiz-adv-x="556" 
d="M144 47h372v-47h-457v15l245 323l-245 307v15h445v-47h-357l214 -266v-16z" />
    <glyph glyph-name="Tau" unicode="&#x3a4;" horiz-adv-x="583" 
d="M559 660v-47h-242v-613h-52v613h-241v47h535z" />
    <glyph glyph-name="Upsilon" unicode="&#x3a5;" horiz-adv-x="613" 
d="M562 660l-230 -381v-279h-52v281l-229 379h57l199 -331l198 331h57z" />
    <glyph glyph-name="Phi" unicode="&#x3a6;" horiz-adv-x="779" 
d="M726 334q0 -123 -86.5 -195.5t-224.5 -72.5v-96h-52v96q-137 0 -223.5 72.5t-86.5 195.5q0 122 86.5 194.5t223.5 72.5v89h52v-89q137 0 224 -72.5t87 -194.5zM108 334q0 -103 69.5 -161.5t185.5 -58.5v439q-116 0 -185.5 -58t-69.5 -161zM415 114q116 0 186.5 58.5
t70.5 161.5t-70.5 161t-186.5 58v-439z" />
    <glyph glyph-name="Chi" unicode="&#x3a7;" horiz-adv-x="588" 
d="M552 0h-60l-198 296l-198 -296h-60l229 340l-213 320h60l183 -279l180 279h60l-210 -322z" />
    <glyph glyph-name="Psi" unicode="&#x3a8;" horiz-adv-x="801" 
d="M427 680v-478q113 0 177.5 52t64.5 159v247h52v-250q0 -126 -78 -190.5t-216 -64.5v-155h-52v155q-139 0 -217 64.5t-78 190.5v250h52v-247q0 -107 64.5 -159t178.5 -52v478h52z" />
    <glyph glyph-name="uni03A9" unicode="&#x3a9;" horiz-adv-x="793" 
d="M735 341q0 -176 -184 -294h174v-47h-261v46q216 102 216 294q0 123 -80.5 202.5t-203.5 79.5q-122 0 -202.5 -79.5t-80.5 -201.5q0 -192 216 -295v-46h-261v47h171q-181 114 -181 294q0 142 97.5 235.5t240.5 93.5q142 0 240.5 -93.5t98.5 -235.5z" />
    <glyph glyph-name="Iotadieresis" unicode="&#x3aa;" horiz-adv-x="247" 
d="M10 850q18 0 30.5 -12t12.5 -30t-12.5 -30.5t-30.5 -12.5q-17 0 -30 12.5t-13 30.5t12.5 30t30.5 12zM236 850q18 0 30.5 -12.5t12.5 -30.5q0 -17 -12.5 -29.5t-30.5 -12.5q-17 0 -30 12.5t-13 29.5q0 18 13 30.5t30 12.5zM150 660v-660h-52v660h52z" />
    <glyph glyph-name="Upsilondieresis" unicode="&#x3ab;" horiz-adv-x="613" 
d="M161 765q-17 0 -30 12.5t-13 30.5t12.5 30t30.5 12t30.5 -12t12.5 -30t-12.5 -30.5t-30.5 -12.5zM387 765q-17 0 -30 12.5t-13 29.5q0 18 13 30.5t30 12.5q18 0 30.5 -12.5t12.5 -30.5q0 -17 -12.5 -29.5t-30.5 -12.5zM562 660l-230 -381v-279h-52v281l-229 379h57
l199 -331l198 331h57z" />
    <glyph glyph-name="alphatonos" unicode="&#x3ac;" horiz-adv-x="645" 
d="M350 771l-21 -207h-41v216h62v-9zM591 41q11 0 30 3v-44q-25 -5 -43 -5q-87 0 -94 99q-27 -48 -79 -76t-113 -28q-101 0 -168.5 73t-67.5 179t67 178.5t169 72.5q65 0 118.5 -31t78.5 -83q3 48 6 104h48q-10 -190 -10 -233v-135q0 -74 58 -74zM297 37q77 0 131.5 53
t54.5 151t-54 151.5t-132 53.5q-83 0 -136 -58.5t-53 -145.5q0 -88 53 -146.5t136 -58.5z" />
    <glyph glyph-name="epsilontonos" unicode="&#x3ad;" horiz-adv-x="492" 
d="M290 771l-21 -207h-41v216h62v-9zM405 114l36 -29q-63 -95 -186 -95q-83 0 -134.5 40.5t-51.5 103.5q0 42 25 75.5t70 49.5q-72 31 -72 110q0 57 44 90.5t120 33.5q118 0 174 -81l-34 -30q-48 64 -138 64q-54 0 -84 -21t-30 -60q0 -36 26 -59t76 -23h92v-47h-87
q-62 0 -96 -27.5t-34 -69.5q0 -45 36 -73.5t99 -28.5q96 0 149 77z" />
    <glyph glyph-name="etatonos" unicode="&#x3ae;" horiz-adv-x="577" 
d="M326 771l-21 -207h-41v216h62v-9zM314 493q83 0 130.5 -52t47.5 -136v-485h-51v481q0 65 -36.5 105t-97.5 40q-64 0 -104.5 -41t-40.5 -104v-301h-50v368q0 74 -58 74q-15 0 -30 -1v42q25 5 44 5q73 0 90 -73q51 78 156 78z" />
    <glyph glyph-name="iotatonos" unicode="&#x3af;" horiz-adv-x="271" 
d="M152 780v-9l-21 -207h-41v216h62zM140 483v-355q0 -92 71 -92q16 0 37 3v-44q-18 -5 -47 -5q-112 0 -112 135v358h51z" />
    <glyph glyph-name="upsilondieresistonos" unicode="&#x3b0;" horiz-adv-x="542" 
d="M297 780v-9l-21 -207h-40v216h61zM128 712q18 0 30.5 -12.5t12.5 -30.5q0 -17 -12.5 -29.5t-30.5 -12.5q-17 0 -30 12.5t-13 29.5q0 18 13 30.5t30 12.5zM396 712q18 0 30.5 -12.5t12.5 -30.5q0 -17 -12.5 -29.5t-30.5 -12.5t-30.5 12.5t-12.5 29.5q0 18 12.5 30.5
t30.5 12.5zM421 483q52 -127 52 -257q0 -121 -54 -178.5t-140 -57.5q-85 0 -139 52.5t-54 149.5v291h50v-293q0 -72 40.5 -112.5t103.5 -40.5t102 44t39 142q0 132 -52 260h52z" />
    <glyph glyph-name="alpha" unicode="&#x3b1;" horiz-adv-x="645" 
d="M591 41q11 0 30 3v-44q-25 -5 -43 -5q-87 0 -94 99q-27 -48 -79 -76t-113 -28q-101 0 -168.5 73t-67.5 179t67 178.5t169 72.5q65 0 118.5 -31t78.5 -83q3 48 6 104h48q-10 -190 -10 -233v-135q0 -74 58 -74zM297 37q77 0 131.5 53t54.5 151t-54 151.5t-132 53.5
q-83 0 -136 -58.5t-53 -145.5q0 -88 53 -146.5t136 -58.5z" />
    <glyph glyph-name="beta" unicode="&#x3b2;" horiz-adv-x="600" 
d="M370 423q77 -16 125.5 -71.5t48.5 -140.5q0 -100 -65.5 -160.5t-162.5 -60.5q-101 0 -173 64v-234h-50v746q0 91 54.5 142.5t137.5 51.5t131 -50.5t48 -126.5q0 -54 -25 -96t-69 -64zM313 37q78 0 128.5 47t50.5 127q0 82 -52.5 130t-134.5 48h-65v45h28q66 0 104.5 39.5
t38.5 106.5q0 65 -36 99t-93 34q-61 0 -100 -39t-39 -113v-450q67 -74 170 -74z" />
    <glyph glyph-name="gamma" unicode="&#x3b3;" horiz-adv-x="527" 
d="M495 483l-206 -462v-201h-50v203l-207 460h54l178 -407l177 407h54z" />
    <glyph glyph-name="delta" unicode="&#x3b4;" horiz-adv-x="612" 
d="M456 448q100 -93 100 -202q0 -110 -73 -183t-178 -73q-104 0 -176.5 73.5t-72.5 178.5t72.5 177.5t175.5 72.5q18 0 35 -3l-262 244v17h455v-45h-351zM306 37q84 0 141 59t57 145t-57 145t-141 59q-85 0 -141.5 -59t-56.5 -145t56.5 -145t141.5 -59z" />
    <glyph glyph-name="epsilon" unicode="&#x3b5;" horiz-adv-x="492" 
d="M405 114l36 -29q-63 -95 -186 -95q-83 0 -134.5 40.5t-51.5 103.5q0 42 25 75.5t70 49.5q-72 31 -72 110q0 57 44 90.5t120 33.5q118 0 174 -81l-34 -30q-48 64 -138 64q-54 0 -84 -21t-30 -60q0 -36 26 -59t76 -23h92v-47h-87q-62 0 -96 -27.5t-34 -69.5q0 -45 36 -73.5
t99 -28.5q96 0 149 77z" />
    <glyph glyph-name="zeta" unicode="&#x3b6;" horiz-adv-x="494" 
d="M341 41q135 -37 135 -141q0 -41 -21 -80h-51q20 44 20 76q0 71 -100 98l-78 21q-91 23 -140.5 73.5t-49.5 125.5q0 89 91 202l238 289h-289v45h372v-17l-281 -344q-41 -50 -60 -89.5t-19 -81.5q0 -60 38.5 -97.5t114.5 -58.5z" />
    <glyph glyph-name="eta" unicode="&#x3b7;" horiz-adv-x="577" 
d="M314 493q83 0 130.5 -52t47.5 -136v-485h-51v481q0 65 -36.5 105t-97.5 40q-64 0 -104.5 -41t-40.5 -104v-301h-50v368q0 74 -58 74q-15 0 -30 -1v42q25 5 44 5q73 0 90 -73q51 78 156 78z" />
    <glyph glyph-name="theta" unicode="&#x3b8;" horiz-adv-x="606" 
d="M303 760q226 0 226 -385t-226 -385q-225 0 -225 385t225 385zM303 713q-163 0 -172 -300h344q-9 300 -172 300zM303 37q172 0 173 330h-346q1 -330 173 -330z" />
    <glyph glyph-name="iota" unicode="&#x3b9;" horiz-adv-x="271" 
d="M140 483v-355q0 -92 71 -92q16 0 37 3v-44q-18 -5 -47 -5q-112 0 -112 135v358h51z" />
    <glyph glyph-name="kappa" unicode="&#x3ba;" horiz-adv-x="480" 
d="M93 0v483h50v-483h-50zM224 261l239 -261h-65l-240 261l226 222h67z" />
    <glyph glyph-name="lambda" unicode="&#x3bb;" horiz-adv-x="537" 
d="M499 42q11 0 21 1v-43q-16 -4 -31 -4q-30 0 -50.5 18t-34.5 59l-132 359l-188 -432h-55l219 492l-47 131q-20 54 -42 72.5t-61 18.5q-23 0 -48 -4v44q24 6 55 6q51 0 83 -24.5t57 -92.5l202 -548q10 -28 22.5 -40.5t29.5 -12.5z" />
    <glyph glyph-name="uni03BC" unicode="&#x3bc;" horiz-adv-x="584" 
d="M530 41q10 0 30 3v-44q-25 -5 -42 -5q-73 0 -90 71q-48 -76 -144 -76q-93 0 -141 73v-243h-50v663h50v-294q0 -67 39.5 -109.5t99.5 -42.5q61 0 100.5 42t39.5 110v294h50v-364q0 -78 58 -78z" />
    <glyph glyph-name="nu" unicode="&#x3bd;" horiz-adv-x="527" 
d="M441 483h54l-220 -493h-21l-222 493h54l178 -407z" />
    <glyph glyph-name="xi" unicode="&#x3be;" horiz-adv-x="510" 
d="M357 39q65 -12 100.5 -48t35.5 -91q0 -41 -21 -80h-51q19 42 19 76q0 79 -98 96l-69 12q-99 18 -152 75t-53 138q0 72 39.5 125t107.5 74q-49 22 -77.5 64.5t-28.5 96.5q0 78 56 129.5t139 51.5q114 0 181 -100l-36 -30q-59 83 -143 83q-62 0 -103.5 -38.5t-41.5 -97.5
q0 -61 43.5 -101t109.5 -40h92v-45h-104q-78 0 -130 -48t-52 -123q0 -66 44 -108t121 -57z" />
    <glyph glyph-name="omicron" unicode="&#x3bf;" horiz-adv-x="612" 
d="M306 493q104 0 177 -73t73 -179q0 -105 -73.5 -178t-177.5 -73t-176.5 73t-72.5 178q0 107 72.5 179.5t177.5 72.5zM306 446q-85 0 -141.5 -59t-56.5 -146t56.5 -145.5t140.5 -58.5t141.5 59t57.5 145q0 87 -57 146t-141 59z" />
    <glyph glyph-name="pi" unicode="&#x3c0;" horiz-adv-x="572" 
d="M505 -5q-44 0 -70 28t-26 87v327h-266v-437h-50v483h366v-368q0 -74 58 -74q11 0 31 3v-44q-27 -5 -43 -5z" />
    <glyph glyph-name="rho" unicode="&#x3c1;" horiz-adv-x="623" 
d="M321 493q108 0 177 -72t69 -179q0 -106 -68 -179t-169 -73q-60 0 -113 27.5t-81 75.5v-273h-50v420q0 113 65 183t170 70zM323 37q83 0 137.5 58.5t54.5 145.5q0 88 -54.5 146.5t-139.5 58.5q-77 0 -131.5 -51.5t-54.5 -151.5q0 -101 55.5 -153.5t132.5 -52.5z" />
    <glyph glyph-name="uni03C2" unicode="&#x3c2;" horiz-adv-x="524" 
d="M392 -180q21 40 21 79q0 46 -28 65.5t-91 35.5q-38 10 -61.5 18t-61 28t-59.5 44t-39 65.5t-17 93.5q0 113 67.5 178.5t171.5 65.5q126 0 200 -100l-36 -30q-63 83 -164 83q-83 0 -134.5 -52.5t-51.5 -143.5q0 -43 13.5 -76.5t30.5 -52.5t48 -35t51 -22.5t54 -15.5
q39 -10 62.5 -18.5t48.5 -24.5t37 -41t12 -60q0 -46 -23 -84h-51z" />
    <glyph glyph-name="sigma" unicode="&#x3c3;" horiz-adv-x="629" 
d="M617 483v-46h-176q49 -29 78.5 -81t29.5 -117q0 -103 -70 -176t-177 -73t-176.5 73t-69.5 177t71 173.5t177 69.5h313zM497 241q0 86 -55 140.5t-139 54.5t-139.5 -55t-55.5 -141t55 -144.5t139 -58.5q85 0 140 59t55 145z" />
    <glyph glyph-name="tau" unicode="&#x3c4;" horiz-adv-x="433" 
d="M318 36q32 0 86 8v-44q-44 -10 -95 -10q-156 0 -156 145v302h-134v46h375v-46h-191v-300q0 -56 29.5 -78.5t85.5 -22.5z" />
    <glyph glyph-name="upsilon" unicode="&#x3c5;" horiz-adv-x="542" 
d="M421 483q52 -127 52 -257q0 -121 -54 -178.5t-140 -57.5q-85 0 -139 52.5t-54 149.5v291h50v-293q0 -72 40.5 -112.5t103.5 -40.5t102 44t39 142q0 132 -52 260h52z" />
    <glyph glyph-name="phi" unicode="&#x3c6;" horiz-adv-x="723" 
d="M668 241q0 -113 -77.5 -182t-204.5 -69v-170h-50v170q-126 0 -203 69t-77 182q0 112 77 181t203 69v246h50v-246q126 0 204 -69t78 -181zM107 240q0 -93 61.5 -149t167.5 -56h1v411h-1q-106 0 -167.5 -56.5t-61.5 -149.5zM386 35q106 0 168 56.5t62 148.5q0 93 -62 149.5
t-168 56.5h-1v-411h1z" />
    <glyph glyph-name="chi" unicode="&#x3c7;" horiz-adv-x="485" 
d="M452 -139q14 0 22 1v-42q-12 -4 -32 -4q-57 0 -87 62l-115 240l-167 -298h-55l197 345l-114 235q-22 42 -58 42q-13 0 -22 -1v42q12 4 31 4q59 0 91 -67l99 -211l154 274h56l-185 -321l127 -259q20 -42 58 -42z" />
    <glyph glyph-name="psi" unicode="&#x3c8;" horiz-adv-x="747" 
d="M402 660v-625q100 0 162 58.5t62 164.5q0 102 -52 225h53q51 -123 51 -225q0 -126 -76 -198t-200 -72v-168h-50v168q-115 0 -190.5 66.5t-75.5 188.5v240h50v-237q0 -102 62.5 -156.5t153.5 -54.5v625h50z" />
    <glyph glyph-name="omega" unicode="&#x3c9;" horiz-adv-x="831" 
d="M581 489q194 -63 194 -260q0 -114 -58.5 -176.5t-144.5 -62.5q-54 0 -95 26t-61 76q-42 -102 -157 -102q-87 0 -145 62.5t-58 176.5q0 197 194 260l15 -44q-157 -55 -157 -215q0 -92 44.5 -142.5t106.5 -50.5q57 0 94 41t37 112v190h51v-190q0 -71 37 -112t93 -41
q63 0 107.5 50.5t44.5 142.5q0 161 -158 215z" />
    <glyph glyph-name="iotadieresis" unicode="&#x3ca;" horiz-adv-x="271" 
d="M30 712q18 0 30.5 -12.5t12.5 -30.5q0 -17 -12.5 -29.5t-30.5 -12.5q-17 0 -30 12.5t-13 29.5q0 18 13 30.5t30 12.5zM200 712q18 0 31 -12.5t13 -30.5q0 -17 -13 -29.5t-31 -12.5q-17 0 -30 12.5t-13 29.5q0 18 13 30.5t30 12.5zM140 483v-355q0 -92 71 -92q16 0 37 3
v-44q-18 -5 -47 -5q-112 0 -112 135v358h51z" />
    <glyph glyph-name="upsilondieresis" unicode="&#x3cb;" horiz-adv-x="542" 
d="M158 712q18 0 30.5 -12.5t12.5 -30.5q0 -17 -12.5 -29.5t-30.5 -12.5q-17 0 -30 12.5t-13 29.5q0 18 13 30.5t30 12.5zM358 712q18 0 31 -12.5t13 -30.5q0 -17 -13 -29.5t-31 -12.5q-17 0 -30 12.5t-13 29.5q0 18 13 30.5t30 12.5zM421 483q52 -127 52 -257
q0 -121 -54 -178.5t-140 -57.5q-85 0 -139 52.5t-54 149.5v291h50v-293q0 -72 40.5 -112.5t103.5 -40.5t102 44t39 142q0 132 -52 260h52z" />
    <glyph glyph-name="omicrontonos" unicode="&#x3cc;" horiz-adv-x="612" 
d="M342 780v-9l-21 -207h-41v216h62zM306 493q104 0 177 -73t73 -179q0 -105 -73.5 -178t-177.5 -73t-176.5 73t-72.5 178q0 107 72.5 179.5t177.5 72.5zM306 446q-85 0 -141.5 -59t-56.5 -146t56.5 -145.5t140.5 -58.5t141.5 59t57.5 145q0 87 -57 146t-141 59z" />
    <glyph glyph-name="upsilontonos" unicode="&#x3cd;" horiz-adv-x="542" 
d="M295 780v-9l-21 -207h-41v216h62zM421 483q52 -127 52 -257q0 -121 -54 -178.5t-140 -57.5q-85 0 -139 52.5t-54 149.5v291h50v-293q0 -72 40.5 -112.5t103.5 -40.5t102 44t39 142q0 132 -52 260h52z" />
    <glyph glyph-name="omegatonos" unicode="&#x3ce;" horiz-adv-x="831" 
d="M452 771l-21 -207h-41v216h62v-9zM581 489q194 -63 194 -260q0 -114 -58.5 -176.5t-144.5 -62.5q-54 0 -95 26t-61 76q-42 -102 -157 -102q-87 0 -145 62.5t-58 176.5q0 197 194 260l15 -44q-157 -55 -157 -215q0 -92 44.5 -142.5t106.5 -50.5q57 0 94 41t37 112v190h51
v-190q0 -71 37 -112t93 -41q63 0 107.5 50.5t44.5 142.5q0 161 -158 215z" />
    <glyph glyph-name="uni0400" unicode="&#x400;" horiz-adv-x="563" 
d="M231 910l91 -186h-40l-113 177v9h62zM511 660v-47h-361v-233h281v-47h-281v-286h373v-47h-425v660h413z" />
    <glyph glyph-name="uni0401" unicode="&#x401;" horiz-adv-x="563" 
d="M188 850q18 0 30.5 -12t12.5 -30t-12.5 -30.5t-30.5 -12.5q-17 0 -30 12.5t-13 30.5t12.5 30t30.5 12zM414 850q18 0 30.5 -12.5t12.5 -30.5q0 -17 -12.5 -29.5t-30.5 -12.5q-17 0 -30 12.5t-13 29.5q0 18 13 30.5t30 12.5zM511 660v-47h-361v-233h281v-47h-281v-286h373
v-47h-425v660h413z" />
    <glyph glyph-name="uni0402" unicode="&#x402;" horiz-adv-x="752" 
d="M557 660v-47h-242v-216h162q103 0 161 -56t58 -145q0 -93 -61.5 -143.5t-158.5 -62.5l-9 47q175 27 175 160q0 66 -43.5 109.5t-123.5 43.5h-160v-350h-52v613h-241v47h535z" />
    <glyph glyph-name="uni0403" unicode="&#x403;" horiz-adv-x="501" 
d="M386 910v-9l-113 -177h-40l91 186h62zM477 660v-47h-327v-613h-52v660h379z" />
    <glyph glyph-name="uni0404" unicode="&#x404;" horiz-adv-x="712" 
d="M392 39q145 0 227 116l39 -31q-44 -62 -114 -98t-153 -36q-142 0 -240 98t-98 242t98 242t240 98q83 0 153 -36t114 -98l-39 -31q-83 117 -227 117q-109 0 -186.5 -68t-93.5 -174h389v-47h-393v-2q0 -125 81 -208.5t203 -83.5z" />
    <glyph glyph-name="uni0405" unicode="&#x405;" horiz-adv-x="556" 
d="M283 670q63 0 114.5 -28.5t83.5 -76.5l-38 -29q-60 86 -160 86q-56 0 -97 -28t-41 -84q0 -25 8 -44.5t26.5 -34.5t35 -24.5t47.5 -24.5l74 -36q79 -38 115.5 -77.5t36.5 -103.5q0 -78 -58.5 -126.5t-146.5 -48.5q-75 0 -136.5 37.5t-100.5 102.5l39 29q76 -120 199 -120
q66 0 108 33.5t42 91.5q0 49 -28 76.5t-94 59.5l-75 36q-70 33 -108 70t-38 101q0 75 55.5 119t136.5 44z" />
    <glyph glyph-name="uni0406" unicode="&#x406;" horiz-adv-x="247" 
d="M150 660v-660h-52v660h52z" />
    <glyph glyph-name="uni0407" unicode="&#x407;" horiz-adv-x="247" 
d="M10 850q18 0 30.5 -12t12.5 -30t-12.5 -30.5t-30.5 -12.5q-17 0 -30 12.5t-13 30.5t12.5 30t30.5 12zM236 850q18 0 30.5 -12.5t12.5 -30.5q0 -17 -12.5 -29.5t-30.5 -12.5q-17 0 -30 12.5t-13 29.5q0 18 13 30.5t30 12.5zM150 660v-660h-52v660h52z" />
    <glyph glyph-name="uni0408" unicode="&#x408;" horiz-adv-x="366" 
d="M269 660v-517q0 -78 -43.5 -115.5t-116.5 -37.5q-39 0 -82 10v46q38 -7 75 -7q55 0 85 23t30 84v514h52z" />
    <glyph glyph-name="uni0409" unicode="&#x409;" horiz-adv-x="1015" 
d="M543 660v-275h205q99 0 155 -54t56 -138q0 -85 -56 -139t-155 -54h-257v613h-252q0 -203 -31 -335.5t-81.5 -195t-126.5 -84.5v48q187 71 187 531v83h356zM747 338h-204v-291h204q75 0 116.5 41t41.5 104q0 64 -41.5 105t-116.5 41z" />
    <glyph glyph-name="uni040A" unicode="&#x40a;" horiz-adv-x="1061" 
d="M590 660v-278h205q98 0 154 -53.5t56 -137.5t-56 -137.5t-154 -53.5h-257v335h-388v-335h-52v660h52v-278h388v278h52zM793 335h-203v-288h203q75 0 116.5 40t41.5 103t-41.5 104t-116.5 41z" />
    <glyph glyph-name="uni040B" unicode="&#x40b;" horiz-adv-x="788" 
d="M467 396q108 0 165.5 -66t57.5 -183v-147h-52v146q0 201 -175 201q-80 0 -148 -28v-319h-52v613h-241v47h535v-47h-242v-244q76 27 152 27z" />
    <glyph glyph-name="uni040C" unicode="&#x40c;" horiz-adv-x="613" 
d="M439 901l-113 -177h-40l91 186h62v-9zM98 0v660h52v-660h-52zM233 356l344 -356h-67l-346 357l320 303h69z" />
    <glyph glyph-name="uni040D" unicode="&#x40d;" horiz-adv-x="716" 
d="M373 723h-40l-113 177v9h62zM597 670h21v-670h-52v556l-448 -566h-20v670h52v-558z" />
    <glyph glyph-name="uni040E" unicode="&#x40e;" horiz-adv-x="601" 
d="M306 744q-61 0 -102 41t-41 102h45q0 -46 28 -73.5t70 -27.5t69.5 27.5t27.5 73.5h45q0 -61 -40.5 -102t-101.5 -41zM504 660h58l-238 -550q-51 -120 -174 -120q-38 0 -71 9v46q40 -7 65 -7q96 0 134 90l7 17l-233 515h58l202 -459z" />
    <glyph glyph-name="uni040F" unicode="&#x40f;" horiz-adv-x="677" 
d="M580 660v-660h-215v-141h-52v141h-215v660h52v-613h378v613h52z" />
    <glyph glyph-name="uni0410" unicode="&#x410;" horiz-adv-x="664" 
d="M570 0l-65 157h-347l-65 -157h-54l283 670h21l282 -670h-55zM332 577l-154 -373h307z" />
    <glyph glyph-name="uni0411" unicode="&#x411;" horiz-adv-x="613" 
d="M501 660v-47h-351v-235h210q96 0 150.5 -52.5t54.5 -136.5q0 -83 -54.5 -136t-150.5 -53h-262v660h403zM356 331h-206v-284h206q75 0 115.5 39.5t40.5 102.5t-40 102.5t-116 39.5z" />
    <glyph glyph-name="uni0412" unicode="&#x412;" horiz-adv-x="613" 
d="M424 365q67 -16 104 -63t37 -114q0 -82 -54.5 -135t-150.5 -53h-262v660h224q83 0 130.5 -45t47.5 -116q0 -91 -76 -134zM317 614l-167 -1v-234h167q63 0 96 32.5t33 84.5q0 54 -33 86t-96 32zM355 47q75 0 116 39.5t41 102.5t-41 103t-116 40h-205v-285h205z" />
    <glyph glyph-name="uni0413" unicode="&#x413;" horiz-adv-x="501" 
d="M477 660v-47h-327v-613h-52v660h379z" />
    <glyph glyph-name="uni0414" unicode="&#x414;" horiz-adv-x="674" 
d="M561 47h76v-188h-52v141h-509v-141h-52v188h53q147 140 147 548v65h337v-613zM275 613q-1 -227 -35.5 -360.5t-101.5 -205.5h371v566h-234z" />
    <glyph glyph-name="uni0415" unicode="&#x415;" horiz-adv-x="563" 
d="M511 660v-47h-361v-233h281v-47h-281v-286h373v-47h-425v660h413z" />
    <glyph glyph-name="uni0416" unicode="&#x416;" horiz-adv-x="939" 
d="M60 660h69l300 -303l-326 -357h-67l326 356zM443 0v660h52v-660h-52zM577 356l326 -356h-68l-325 357l300 303h69z" />
    <glyph glyph-name="uni0417" unicode="&#x417;" horiz-adv-x="579" 
d="M396 363q62 -18 96.5 -65t34.5 -108q0 -87 -66 -143.5t-165 -56.5q-78 0 -140.5 37t-102.5 104l38 29q77 -121 204 -121q76 0 127.5 42.5t51.5 108.5q0 58 -42 100t-115 42h-141v47h118q63 0 95.5 33.5t32.5 86.5q0 55 -36 89t-101 34q-103 0 -168 -90l-39 29
q76 109 208 109q86 0 138 -48.5t52 -120.5q0 -94 -80 -138z" />
    <glyph glyph-name="uni0418" unicode="&#x418;" horiz-adv-x="716" 
d="M597 670h21v-670h-52v556l-448 -566h-20v670h52v-558z" />
    <glyph glyph-name="uni0419" unicode="&#x419;" horiz-adv-x="716" 
d="M353 743q-61 0 -102 41t-41 102h45q0 -46 28 -73.5t70 -27.5t69.5 27.5t27.5 73.5h45q0 -61 -40.5 -102t-101.5 -41zM597 670h21v-670h-52v556l-448 -566h-20v670h52v-558z" />
    <glyph glyph-name="uni041A" unicode="&#x41a;" horiz-adv-x="613" 
d="M98 0v660h52v-660h-52zM233 356l344 -356h-67l-346 357l320 303h69z" />
    <glyph glyph-name="uni041B" unicode="&#x41b;" horiz-adv-x="641" 
d="M187 660h356v-659h-52v612h-252q0 -154 -17 -267t-49.5 -183.5t-74.5 -109.5t-98 -55v48q187 71 187 531v83z" />
    <glyph glyph-name="uni041C" unicode="&#x41c;" horiz-adv-x="785" 
d="M667 670h20v-670h-52v536l-232 -330h-20l-233 330v-536h-52v670h20l275 -392z" />
    <glyph glyph-name="uni041D" unicode="&#x41d;" horiz-adv-x="706" 
d="M608 660v-660h-52v333h-406v-333h-52v660h52v-280h406v280h52z" />
    <glyph glyph-name="uni041E" unicode="&#x41e;" horiz-adv-x="783" 
d="M391 670q141 0 240 -98t99 -242q0 -143 -99 -241.5t-240 -98.5q-142 0 -240 98.5t-98 241.5q0 144 98 242t240 98zM392 622q-122 0 -203 -83.5t-81 -207.5t81 -208t203 -84q121 0 202 84t81 208q0 123 -81.5 207t-201.5 84z" />
    <glyph glyph-name="uni041F" unicode="&#x41f;" horiz-adv-x="677" 
d="M580 660v-660h-52v613h-378v-613h-52v660h482z" />
    <glyph glyph-name="uni0420" unicode="&#x420;" horiz-adv-x="566" 
d="M322 660q92 0 146 -51t54 -131t-54 -131t-146 -51h-172v-296h-52v660h224zM320 613h-170v-270h170q71 0 109.5 37.5t38.5 97.5t-38.5 97.5t-109.5 37.5z" />
    <glyph glyph-name="uni0421" unicode="&#x421;" horiz-adv-x="712" 
d="M391 670q83 0 153 -36t114 -98l-39 -31q-83 117 -227 117q-121 0 -202.5 -83.5t-81.5 -207.5q0 -125 81 -208.5t203 -83.5q145 0 227 116l39 -31q-44 -62 -114 -98t-153 -36q-142 0 -240 98t-98 242t98 242t240 98z" />
    <glyph glyph-name="uni0422" unicode="&#x422;" horiz-adv-x="577" 
d="M557 660v-47h-242v-613h-52v613h-241v47h535z" />
    <glyph glyph-name="uni0423" unicode="&#x423;" horiz-adv-x="601" 
d="M504 660h58l-238 -550q-51 -120 -174 -120q-38 0 -71 9v46q40 -7 65 -7q96 0 134 90l7 17l-233 515h58l202 -459z" />
    <glyph glyph-name="uni0424" unicode="&#x424;" horiz-adv-x="779" 
d="M726 334q0 -123 -86.5 -195.5t-224.5 -72.5v-96h-52v96q-137 0 -223.5 72.5t-86.5 195.5q0 122 86.5 194t223.5 72v90h52v-90q138 0 224.5 -72t86.5 -194zM108 334q0 -103 69.5 -161.5t185.5 -58.5v439q-116 0 -185.5 -58t-69.5 -161zM415 114q116 0 186.5 58.5
t70.5 161.5t-70.5 161t-186.5 58v-439z" />
    <glyph glyph-name="uni0425" unicode="&#x425;" horiz-adv-x="588" 
d="M552 0h-60l-198 296l-198 -296h-60l229 340l-213 320h60l183 -279l180 279h60l-210 -322z" />
    <glyph glyph-name="uni0426" unicode="&#x426;" horiz-adv-x="684" 
d="M571 660v-613h77v-188h-52v141h-498v660h52v-613h369v613h52z" />
    <glyph glyph-name="uni0427" unicode="&#x427;" horiz-adv-x="614" 
d="M464 660h52v-660h-52v276q-71 -28 -152 -28q-118 0 -188.5 68.5t-70.5 195.5v148h52v-145q0 -108 56.5 -163t152.5 -55q84 0 150 30v333z" />
    <glyph glyph-name="uni0428" unicode="&#x428;" horiz-adv-x="1015" 
d="M918 660v-660h-820v660h52v-613h332v613h52v-613h332v613h52z" />
    <glyph glyph-name="uni0429" unicode="&#x429;" horiz-adv-x="1031" 
d="M918 660v-613h76v-188h-52v141h-844v660h52v-613h332v613h52v-613h332v613h52z" />
    <glyph glyph-name="uni042A" unicode="&#x42a;" horiz-adv-x="636" 
d="M164 660v-275h205q99 0 155 -54t56 -138q0 -85 -56 -139t-155 -54h-257v613h-122v47h174zM368 338h-204v-292h204q75 0 116.5 41.5t41.5 104.5q0 64 -41.5 105t-116.5 41z" />
    <glyph glyph-name="uni042B" unicode="&#x42b;" horiz-adv-x="868" 
d="M150 660v-275h205q98 0 154 -54t56 -138q0 -85 -55.5 -139t-154.5 -54h-257v660h52zM771 660v-660h-52v660h52zM353 338h-203v-291h203q75 0 117 41t42 104q0 64 -42 105t-117 41z" />
    <glyph glyph-name="uni042C" unicode="&#x42c;" horiz-adv-x="621" 
d="M150 660v-275h205q98 0 154 -54t56 -138q0 -85 -55.5 -139t-154.5 -54h-257v660h52zM353 338h-203v-291h203q75 0 117 41t42 104q0 64 -42 105t-117 41z" />
    <glyph glyph-name="uni042D" unicode="&#x42d;" horiz-adv-x="712" 
d="M321 670q142 0 239.5 -98t97.5 -242t-98 -242t-239 -98q-83 0 -153.5 36t-113.5 98l39 31q82 -116 227 -116q121 0 202.5 83.5t81.5 208.5v2h-394v47h390q-16 106 -94 174t-186 68q-144 0 -227 -117l-39 31q44 62 114 98t153 36z" />
    <glyph glyph-name="uni042E" unicode="&#x42e;" horiz-adv-x="1082" 
d="M690 670q141 0 240 -98t99 -242q0 -143 -99 -241.5t-240 -98.5t-238.5 98.5t-97.5 241.5v3h-204v-333h-52v660h52v-280h207q18 126 112 208t221 82zM691 39q121 0 202.5 84t81.5 208q0 123 -81.5 207t-202.5 84t-202 -83.5t-81 -207.5t80.5 -208t202.5 -84z" />
    <glyph glyph-name="uni042F" unicode="&#x42f;" horiz-adv-x="610" 
d="M298 660h215v-660h-52v271h-163q-15 0 -22 1l-184 -272h-61l190 281q-65 19 -100.5 68t-35.5 116q0 86 57 140.5t156 54.5zM461 318v295h-162q-76 0 -118.5 -41.5t-42.5 -105.5q0 -65 42.5 -106.5t118.5 -41.5h162z" />
    <glyph glyph-name="uni0430" unicode="&#x430;" horiz-adv-x="521" 
d="M255 493q82 0 131.5 -49t49.5 -141v-303h-48v76q-56 -86 -173 -86q-70 0 -118 34.5t-48 96.5q0 59 46 94t122 35h168v55q0 69 -36 105t-97 36q-84 0 -147 -81l-35 28q70 100 185 100zM220 34q68 0 116.5 42t48.5 104v27h-163q-59 0 -90 -21.5t-31 -61.5q0 -44 35 -67
t84 -23z" />
    <glyph glyph-name="uni0431" unicode="&#x431;" horiz-adv-x="629" 
d="M332 476q100 0 170.5 -68.5t70.5 -170.5q0 -103 -71.5 -174.5t-178.5 -71.5q-104 0 -174.5 72t-70.5 192v87q0 87 19 149t61 105t93 71t131 55l115 38l14 -45l-117 -39q-94 -32 -148.5 -68t-85.5 -96.5t-31 -151.5q30 52 83.5 84t119.5 32zM326 38q81 0 137.5 57.5
t56.5 141.5q0 83 -56 137.5t-137 54.5q-82 0 -139.5 -57t-57.5 -139t57 -138.5t139 -56.5z" />
    <glyph glyph-name="uni0432" unicode="&#x432;" horiz-adv-x="552" 
d="M397 256q93 -28 93 -117q0 -60 -44 -99.5t-121 -39.5h-226v483h213q68 0 107 -32.5t39 -87.5q0 -73 -61 -107zM150 437v-162h161q48 0 72.5 23.5t24.5 61.5q0 77 -97 77h-161zM322 46q56 0 87 26.5t31 67.5t-30.5 65t-87.5 24h-172v-183h172z" />
    <glyph glyph-name="uni0433" unicode="&#x433;" horiz-adv-x="436" 
d="M425 483v-46h-275v-437h-51v483h326z" />
    <glyph glyph-name="uni0434" unicode="&#x434;" horiz-adv-x="595" 
d="M472 46h77v-187h-50v141h-409v-141h-50v187h50q47 49 72.5 142t25.5 268v27h284v-437zM238 437q-1 -159 -22 -249.5t-68 -141.5h273v391h-183z" />
    <glyph glyph-name="uni0435" unicode="&#x435;" horiz-adv-x="572" 
d="M516 278q0 -29 -4 -49h-404q4 -84 60 -138t139 -54q96 0 161 76l32 -33q-77 -90 -194 -90q-105 0 -177.5 72.5t-72.5 178.5q0 105 71 178.5t173 73.5q91 0 153.5 -59.5t62.5 -155.5zM298 447q-73 0 -125 -48.5t-63 -123.5h354q3 78 -46 125t-120 47z" />
    <glyph glyph-name="uni0436" unicode="&#x436;" horiz-adv-x="743" 
d="M48 483h66l218 -221l-242 -262h-64l242 263zM347 0v483h50v-483h-50zM475 262l242 -262h-64l-241 262l217 221h67z" />
    <glyph glyph-name="uni0437" unicode="&#x437;" horiz-adv-x="492" 
d="M328 259q46 -17 70.5 -50t24.5 -75q0 -63 -52 -103.5t-135 -40.5q-122 0 -185 95l35 29q52 -77 150 -77q63 0 99 28.5t36 73.5q0 42 -34 69.5t-96 27.5h-88v47h93q50 0 75.5 23t25.5 59q0 81 -113 81q-92 0 -138 -64l-34 30q54 81 173 81q76 0 120.5 -33.5t44.5 -90.5
q0 -79 -72 -110z" />
    <glyph glyph-name="uni0438" unicode="&#x438;" horiz-adv-x="593" 
d="M473 493h20v-493h-49v388l-324 -398h-21v493h51v-387z" />
    <glyph glyph-name="uni0439" unicode="&#x439;" horiz-adv-x="593" 
d="M292 586q-61 0 -102 41t-41 102h45q0 -46 28 -73.5t70 -27.5t69.5 27.5t27.5 73.5h45q0 -61 -40.5 -102t-101.5 -41zM473 493h20v-493h-49v388l-324 -398h-21v493h51v-387z" />
    <glyph glyph-name="uni043A" unicode="&#x43a;" horiz-adv-x="498" 
d="M99 0v483h51v-483h-51zM231 263l241 -263h-64l-243 262l219 221h67z" />
    <glyph glyph-name="uni043B" unicode="&#x43b;" horiz-adv-x="547" 
d="M153 483h295v-483h-50v437h-195v-46q0 -98 -13.5 -170.5t-39 -117t-56.5 -69.5t-73 -38v46q67 27 99.5 115t32.5 257v69z" />
    <glyph glyph-name="uni043C" unicode="&#x43c;" horiz-adv-x="699" 
d="M599 493v-493h-50v380l-188 -235h-22l-189 236v-381h-51v493h21l230 -286l229 286h20z" />
    <glyph glyph-name="uni043D" unicode="&#x43d;" horiz-adv-x="578" 
d="M479 483v-483h-50v237h-279v-237h-51v483h51v-199h279v199h50z" />
    <glyph glyph-name="uni043E" unicode="&#x43e;" horiz-adv-x="612" 
d="M306 493q104 0 177 -72.5t73 -178.5t-73 -179t-178 -73q-104 0 -176.5 73t-72.5 179t72.5 178.5t177.5 72.5zM306 446q-85 0 -141.5 -59t-56.5 -146t56.5 -145.5t140.5 -58.5t141.5 59t57.5 145q0 87 -57 146t-141 59z" />
    <glyph glyph-name="uni043F" unicode="&#x43f;" horiz-adv-x="570" 
d="M471 483v-483h-51v437h-270v-437h-51v483h372z" />
    <glyph glyph-name="uni0440" unicode="&#x440;" horiz-adv-x="640" 
d="M345 493q102 0 171 -72.5t69 -178.5t-69 -179t-171 -73q-61 0 -114 27.5t-81 75.5v-273h-50v663h48v-97q27 49 80.5 78t116.5 29zM340 37q84 0 138.5 58.5t54.5 145.5q0 88 -54.5 146.5t-138.5 58.5q-79 0 -134.5 -52t-55.5 -152q0 -101 55.5 -153t134.5 -52z" />
    <glyph glyph-name="uni0441" unicode="&#x441;" horiz-adv-x="552" 
d="M306 493q122 0 195 -99l-36 -29q-62 81 -159 81q-84 0 -141 -59t-57 -145q0 -87 56.5 -146t140.5 -59q97 0 160 81l36 -29q-73 -99 -196 -99q-104 0 -176.5 73.5t-72.5 178.5t72.5 178t177.5 73z" />
    <glyph glyph-name="uni0442" unicode="&#x442;" horiz-adv-x="461" 
d="M436 483v-46h-180v-437h-50v437h-181v46h411z" />
    <glyph glyph-name="uni0443" unicode="&#x443;" horiz-adv-x="527" 
d="M441 483h54l-241 -562q-48 -111 -151 -111q-35 0 -68 9v44q32 -7 61 -7q76 0 112 83l31 71l-207 473h55l179 -416z" />
    <glyph glyph-name="uni0444" unicode="&#x444;" horiz-adv-x="705" 
d="M649 241q0 -112 -76 -181.5t-196 -69.5v-170h-50v170q-121 0 -196 69t-75 182q0 111 75.5 180.5t195.5 69.5v259h50v-259q120 0 196 -69.5t76 -180.5zM108 241q0 -93 59.5 -149t159.5 -56v409q-99 0 -159 -56.5t-60 -147.5zM377 36q100 0 159.5 56t59.5 149
q0 91 -60 147.5t-159 56.5h-1v-409h1z" />
    <glyph glyph-name="uni0445" unicode="&#x445;" horiz-adv-x="480" 
d="M454 0h-59l-155 215l-155 -215h-59l184 254l-169 229h59l139 -193l141 193h59l-170 -231z" />
    <glyph glyph-name="uni0446" unicode="&#x446;" horiz-adv-x="582" 
d="M460 483v-437h76v-187h-50v141h-387v483h51v-437h259v437h51z" />
    <glyph glyph-name="uni0447" unicode="&#x447;" horiz-adv-x="535" 
d="M385 483h50v-483h-50v195q-57 -24 -123 -24q-94 0 -150 53.5t-56 157.5v101h50v-100q0 -164 158 -164q68 0 121 24v240z" />
    <glyph glyph-name="uni0448" unicode="&#x448;" horiz-adv-x="853" 
d="M753 483v-483h-654v483h51v-437h251v437h50v-437h252v437h50z" />
    <glyph glyph-name="uni0449" unicode="&#x449;" horiz-adv-x="876" 
d="M753 483v-437h77v-187h-50v141h-681v483h51v-437h251v437h51v-437h251v437h50z" />
    <glyph glyph-name="uni044A" unicode="&#x44a;" 
d="M169 483v-171h156q82 0 129.5 -43t47.5 -112q0 -70 -47 -113.5t-130 -43.5h-206v437h-113v46h163zM322 266h-153v-220h153q60 0 93.5 30.5t33.5 79.5q0 48 -33.5 79t-93.5 31z" />
    <glyph glyph-name="uni044B" unicode="&#x44b;" horiz-adv-x="766" 
d="M150 483v-171h156q82 0 129 -43t47 -112q0 -70 -47 -113.5t-129 -43.5h-207v483h51zM666 483v-483h-50v483h50zM302 266h-152v-220h152q61 0 94.5 30.5t33.5 79.5q0 48 -34 79t-94 31z" />
    <glyph glyph-name="uni044C" unicode="&#x44c;" horiz-adv-x="540" 
d="M150 483v-171h156q82 0 129 -43t47 -112q0 -70 -47 -113.5t-129 -43.5h-207v483h51zM302 266h-152v-220h152q61 0 94.5 30.5t33.5 79.5q0 48 -34 79t-94 31z" />
    <glyph glyph-name="uni044D" unicode="&#x44d;" horiz-adv-x="552" 
d="M247 493q104 0 176.5 -73t72.5 -178t-72.5 -178.5t-176.5 -73.5q-123 0 -196 99l36 29q62 -81 160 -81q80 0 135.5 54t61.5 136h-267v46h265q-11 75 -65.5 124t-130.5 49q-97 0 -159 -81l-36 29q73 99 196 99z" />
    <glyph glyph-name="uni044E" unicode="&#x44e;" horiz-adv-x="848" 
d="M541 493q104 0 177.5 -73t73.5 -178t-73.5 -178.5t-178.5 -73.5q-102 0 -174 71.5t-74 175.5h-142v-237h-51v485h51v-203h145q14 91 83.5 151t162.5 60zM541 37q85 0 142 59.5t57 145.5t-57 145t-141 59q-85 0 -141.5 -59t-56.5 -146q0 -86 56.5 -145t140.5 -59z" />
    <glyph glyph-name="uni044F" unicode="&#x44f;" horiz-adv-x="558" 
d="M252 483h207v-483h-51v171h-156h-12l-149 -171h-59l155 180q-53 15 -82 53.5t-29 92.5q0 70 47 113.5t129 43.5zM408 217v220h-152q-61 0 -94.5 -30.5t-33.5 -79.5t33.5 -79.5t94.5 -30.5h152z" />
    <glyph glyph-name="uni0450" unicode="&#x450;" horiz-adv-x="572" 
d="M321 564h-40l-113 207v9h62zM516 278q0 -29 -4 -49h-404q4 -84 60 -138t139 -54q96 0 161 76l32 -33q-77 -90 -194 -90q-105 0 -177.5 72.5t-72.5 178.5q0 105 71 178.5t173 73.5q91 0 153.5 -59.5t62.5 -155.5zM298 447q-73 0 -125 -48.5t-63 -123.5h354q3 78 -46 125
t-120 47z" />
    <glyph glyph-name="uni0451" unicode="&#x451;" horiz-adv-x="572" 
d="M198 627q-17 0 -30 12.5t-13 29.5q0 18 13 30.5t30 12.5q18 0 30.5 -12.5t12.5 -30.5q0 -17 -12.5 -29.5t-30.5 -12.5zM398 627q-17 0 -30 12.5t-13 29.5q0 18 13 30.5t30 12.5q18 0 31 -12.5t13 -30.5q0 -17 -13 -29.5t-31 -12.5zM516 278q0 -29 -4 -49h-404
q4 -84 60 -138t139 -54q96 0 161 76l32 -33q-77 -90 -194 -90q-105 0 -177.5 72.5t-72.5 178.5q0 105 71 178.5t173 73.5q91 0 153.5 -59.5t62.5 -155.5zM298 447q-73 0 -125 -48.5t-63 -123.5h354q3 78 -46 125t-120 47z" />
    <glyph glyph-name="uni0452" unicode="&#x452;" horiz-adv-x="572" 
d="M297 488q82 0 129.5 -52t47.5 -136v-345q0 -75 -40 -110t-107 -35q-29 0 -55 6v44q23 -4 46 -4q105 0 105 101v339q0 64 -36 104t-98 40q-63 0 -104 -41t-41 -103v-296h-50v594h-84v45h84v111h50v-111h207v-45h-207v-184q50 78 153 78z" />
    <glyph glyph-name="uni0453" unicode="&#x453;" horiz-adv-x="436" 
d="M375 780v-9l-113 -207h-40l91 216h62zM425 483v-46h-275v-437h-51v483h326z" />
    <glyph glyph-name="uni0454" unicode="&#x454;" horiz-adv-x="557" 
d="M305 37q98 0 160 81l36 -29q-73 -99 -196 -99q-104 0 -176.5 73.5t-72.5 178.5t73 178t177 73q122 0 195 -99l-35 -29q-63 81 -160 81q-76 0 -130.5 -49t-65.5 -124h265v-46h-267q6 -82 61.5 -136t135.5 -54z" />
    <glyph glyph-name="uni0455" unicode="&#x455;" horiz-adv-x="455" 
d="M232 493q96 0 156 -77l-33 -32q-55 62 -126 62q-42 0 -70 -19.5t-28 -56.5q0 -31 21 -48.5t70 -38.5l45 -20q62 -27 93.5 -58t31.5 -81q0 -64 -47 -99t-114 -35q-115 0 -185 100l35 33q67 -86 150 -86q46 0 77.5 22t31.5 63q0 19 -6.5 33.5t-24 26.5t-29.5 18.5t-39 18.5
l-44 19q-58 25 -88.5 53.5t-30.5 75.5q0 58 45 92t109 34z" />
    <glyph glyph-name="uni0456" unicode="&#x456;" horiz-adv-x="263" 
d="M132 713q19 0 31.5 -13t12.5 -31t-12.5 -31t-31.5 -13q-18 0 -31 13t-13 31t13 31t31 13zM157 483v-483h-50v483h50z" />
    <glyph glyph-name="uni0457" unicode="&#x457;" horiz-adv-x="263" 
d="M44 710q18 0 31 -12.5t13 -30.5q0 -17 -13 -29.5t-31 -12.5q-17 0 -30 12.5t-13 29.5q0 18 13 30.5t30 12.5zM219 710q18 0 30.5 -12.5t12.5 -30.5q0 -17 -12.5 -29.5t-30.5 -12.5q-17 0 -30 12.5t-13 29.5q0 18 13 30.5t30 12.5zM157 483v-483h-50v483h50z" />
    <glyph glyph-name="uni0458" unicode="&#x458;" horiz-adv-x="263" 
d="M132 713q19 0 31.5 -13t12.5 -31t-12.5 -31t-31.5 -13q-18 0 -31 13t-13 31t13 31t31 13zM157 483v-528q0 -75 -39.5 -110t-106.5 -35q-30 0 -55 6v44q23 -4 46 -4q105 0 105 101v526h50z" />
    <glyph glyph-name="uni0459" unicode="&#x459;" horiz-adv-x="839" 
d="M604 312q82 0 129.5 -43t47.5 -112q0 -70 -47 -113.5t-130 -43.5h-206v437h-195v-46q0 -98 -13.5 -170.5t-39 -117t-56.5 -69.5t-73 -38v46q67 27 99.5 115t32.5 257v69h295v-171h156zM601 46q60 0 93.5 30.5t33.5 79.5q0 48 -33.5 79t-93.5 31h-153v-220h153z" />
    <glyph glyph-name="uni045A" unicode="&#x45a;" horiz-adv-x="860" 
d="M625 297q83 0 130 -40t47 -107q0 -69 -47 -109.5t-130 -40.5h-206v248h-269v-248h-51v483h51v-190h269v190h51v-186h155zM622 46q61 0 94.5 28t33.5 75t-33.5 74.5t-94.5 27.5h-152v-205h152z" />
    <glyph glyph-name="uni045B" unicode="&#x45b;" horiz-adv-x="572" 
d="M297 488q82 0 129.5 -52t47.5 -136v-300h-51v296q0 64 -36 104t-98 40q-63 0 -104 -41t-41 -103v-296h-50v594h-84v45h84v111h50v-111h207v-45h-207v-184q50 78 153 78z" />
    <glyph glyph-name="uni045C" unicode="&#x45c;" horiz-adv-x="498" 
d="M391 771l-113 -207h-40l91 216h62v-9zM99 0v483h51v-483h-51zM231 263l241 -263h-64l-243 262l219 221h67z" />
    <glyph glyph-name="uni045D" unicode="&#x45d;" horiz-adv-x="593" 
d="M314 564h-40l-113 207v9h62zM473 493h20v-493h-49v388l-324 -398h-21v493h51v-387z" />
    <glyph glyph-name="uni045E" unicode="&#x45e;" horiz-adv-x="527" 
d="M262 586q-61 0 -102 41t-41 102h45q0 -46 28 -73.5t70 -27.5t69.5 27.5t27.5 73.5h45q0 -61 -40.5 -102t-101.5 -41zM441 483h54l-241 -562q-48 -111 -151 -111q-35 0 -68 9v44q32 -7 61 -7q76 0 112 83l31 71l-207 473h55l179 -416z" />
    <glyph glyph-name="uni045F" unicode="&#x45f;" horiz-adv-x="559" 
d="M460 483v-483h-155v-141h-50v141h-156v483h51v-437h260v437h50z" />
    <glyph glyph-name="uni0462" unicode="&#x462;" horiz-adv-x="621" 
d="M150 660v-107h283v-46h-283v-127h205q99 0 154.5 -53t55.5 -137q0 -83 -56 -136.5t-154 -53.5h-257v507h-85v46h85v107h52zM353 333h-203v-286h203q75 0 117 40.5t42 101.5q0 63 -42 103.5t-117 40.5z" />
    <glyph glyph-name="uni0463" unicode="&#x463;" horiz-adv-x="535" 
d="M144 750v-267h208v-46h-208v-128h157q82 0 129 -43t47 -111q0 -69 -47 -112t-129 -43h-207v437h-84v46h84v267h50zM297 264h-153v-218h153q61 0 94.5 30t33.5 78t-33.5 79t-94.5 31z" />
    <glyph glyph-name="uni0472" unicode="&#x472;" horiz-adv-x="783" 
d="M391 670q141 0 240 -98t99 -242q0 -143 -99 -241.5t-240 -98.5q-142 0 -240 98.5t-98 241.5q0 144 98 242t240 98zM391 622q-110 0 -188.5 -71t-92.5 -180q80 35 148 35q52 0 136.5 -25t134.5 -25q63 0 141 30q-17 104 -94.5 170t-184.5 66zM391 39q122 0 203 84t81 208
v7q-75 -32 -146 -32q-53 0 -137.5 25.5t-133.5 25.5q-66 0 -150 -36q4 -121 84 -201.5t199 -80.5z" />
    <glyph glyph-name="uni0473" unicode="&#x473;" horiz-adv-x="612" 
d="M306 493q103 0 176.5 -73.5t73.5 -178.5t-73.5 -178t-177.5 -73t-176.5 73t-72.5 178q0 106 73 179t177 73zM306 446q-77 0 -131.5 -49.5t-64.5 -125.5q50 20 96 20q38 0 100.5 -18.5t99.5 -18.5q45 0 96 19q-11 75 -66 124t-130 49zM305 37q81 0 137.5 55t61.5 137
q-51 -20 -98 -20q-40 0 -102 18.5t-98 18.5q-47 0 -98 -20q5 -81 61 -135t136 -54z" />
    <glyph glyph-name="uni0474" unicode="&#x474;" horiz-adv-x="692" 
d="M655 670q21 0 37 -5v-45q-18 2 -28 2q-54 0 -84 -72l-237 -560h-21l-283 670h56l237 -571l202 485q40 96 121 96z" />
    <glyph glyph-name="uni0475" unicode="&#x475;" horiz-adv-x="539" 
d="M505 487q19 0 34 -4v-43q-12 1 -24 1q-38 0 -63 -53l-177 -398h-21l-222 493h54l177 -407l146 334q35 77 96 77z" />
    <glyph glyph-name="uni0490" unicode="&#x490;" horiz-adv-x="484" 
d="M460 781v-168h-310v-613h-52v660h310v121h52z" />
    <glyph glyph-name="uni0491" unicode="&#x491;" horiz-adv-x="439" 
d="M428 606v-169h-278v-437h-51v483h278v123h51z" />
    <glyph glyph-name="uni0492" unicode="&#x492;" horiz-adv-x="489" 
d="M472 613h-319v-255h272v-47h-272v-311h-52v311h-103v47h103v302h371v-47z" />
    <glyph glyph-name="uni0493" unicode="&#x493;" horiz-adv-x="459" 
d="M439 437h-295v-173h252v-45h-252v-219h-50v219h-84v45h84v219h345v-46z" />
    <glyph glyph-name="uni0496" unicode="&#x496;" horiz-adv-x="928" 
d="M60 660h69l300 -303l-326 -357h-67l326 356zM443 0v660h52v-660h-52zM862 46h53v-187h-52v141h-28l-325 357l300 303h69l-302 -304z" />
    <glyph glyph-name="uni0497" unicode="&#x497;" horiz-adv-x="775" 
d="M48 483h66l218 -221l-242 -262h-64l242 263zM347 0v483h50v-483h-50zM675 46h54v-187h-50v141h-26l-241 262l217 221h67l-221 -221z" />
    <glyph glyph-name="uni0498" unicode="&#x498;" horiz-adv-x="579" 
d="M527 190q0 -77 -53.5 -131.5t-137.5 -65.5q32 -32 32 -75q0 -46 -32.5 -77t-87.5 -31q-32 0 -67 10v39q32 -7 60 -7q35 0 57.5 18t22.5 54t-28 66q-77 1 -139 38t-101 103l38 29q77 -121 204 -121q76 0 127.5 42.5t51.5 108.5q0 58 -42 100t-115 42h-141v47h118
q63 0 95.5 33.5t32.5 86.5q0 55 -36 89t-101 34q-103 0 -168 -90l-39 29q76 109 208 109q86 0 138 -48.5t52 -120.5q0 -94 -80 -138q62 -18 96.5 -65t34.5 -108z" />
    <glyph glyph-name="uni0499" unicode="&#x499;" horiz-adv-x="492" 
d="M423 134q0 -55 -40 -93.5t-107 -47.5q32 -32 32 -75q0 -46 -32.5 -77t-87.5 -31q-32 0 -67 10v39q32 -7 60 -7q35 0 57.5 18t22.5 54t-28 66q-120 1 -182 95l35 29q52 -77 150 -77q63 0 99 28.5t36 73.5q0 42 -34 69.5t-96 27.5h-88v47h93q50 0 75.5 23t25.5 59
q0 81 -113 81q-92 0 -138 -64l-34 30q54 81 173 81q76 0 120.5 -33.5t44.5 -90.5q0 -79 -72 -110q46 -17 70.5 -50t24.5 -75z" />
    <glyph glyph-name="uni049A" unicode="&#x49a;" horiz-adv-x="606" 
d="M98 0v660h52v-660h-52zM533 47h60v-188h-52v141h-31l-346 357l320 303h69l-319 -303z" />
    <glyph glyph-name="uni049B" unicode="&#x49b;" horiz-adv-x="530" 
d="M99 0v483h51v-483h-51zM430 46h54v-187h-50v141h-26l-243 262l219 221h67l-220 -221z" />
    <glyph glyph-name="uni04A0" unicode="&#x4a0;" horiz-adv-x="643" 
d="M6 614v46h173v-660h-52v614h-121zM263 356l344 -356h-68l-345 357l320 303h69z" />
    <glyph glyph-name="uni04A1" unicode="&#x4a1;" horiz-adv-x="518" 
d="M6 437v46h163v-483h-50v437h-113zM250 262l242 -262h-65l-242 262l218 221h67z" />
    <glyph glyph-name="uni04A2" unicode="&#x4a2;" horiz-adv-x="721" 
d="M608 660v-613h77v-188h-52v141h-77v333h-406v-333h-52v660h52v-280h406v280h52z" />
    <glyph glyph-name="uni04A3" unicode="&#x4a3;" horiz-adv-x="603" 
d="M479 483v-437h78v-187h-50v141h-78v237h-279v-237h-51v483h51v-200h279v200h50z" />
    <glyph glyph-name="uni04AA" unicode="&#x4aa;" horiz-adv-x="712" 
d="M392 39q145 0 227 116l39 -31q-38 -54 -96.5 -88.5t-129.5 -43.5q32 -30 32 -74q0 -46 -32.5 -77t-87.5 -31q-32 0 -67 10v39q32 -7 60 -7q35 0 57.5 18t22.5 54t-28 66q-141 1 -238.5 99t-97.5 241q0 144 98 242t240 98q83 0 153 -36t114 -98l-39 -31q-83 117 -227 117
q-121 0 -202.5 -83.5t-81.5 -207.5q0 -125 81 -208.5t203 -83.5z" />
    <glyph glyph-name="uni04AB" unicode="&#x4ab;" horiz-adv-x="552" 
d="M305 37q97 0 160 81l36 -29q-60 -83 -160 -96q32 -32 32 -75q0 -46 -32.5 -77t-87.5 -31q-32 0 -67 10v39q32 -7 60 -7q35 0 57.5 18t22.5 54q0 34 -28 66q-102 3 -172 76t-70 176q0 105 72.5 178t177.5 73q122 0 195 -99l-36 -29q-62 81 -159 81q-84 0 -141 -59
t-57 -145q0 -87 56.5 -146t140.5 -59z" />
    <glyph glyph-name="uni04AE" unicode="&#x4ae;" horiz-adv-x="613" 
d="M562 660l-230 -381v-279h-52v281l-229 379h57l199 -331l198 331h57z" />
    <glyph glyph-name="uni04AF" unicode="&#x4af;" horiz-adv-x="522" 
d="M493 483l-206 -467v-196h-51v196l-207 467h55l178 -412l177 412h54z" />
    <glyph glyph-name="uni04B0" unicode="&#x4b0;" horiz-adv-x="618" 
d="M335 281v-2h206v-47h-206v-232h-52v232h-206v47h206v2l-230 379h58l198 -330l199 330h57z" />
    <glyph glyph-name="uni04B1" unicode="&#x4b1;" horiz-adv-x="543" 
d="M503 483l-193 -437h147v-46h-160v-180h-51v180h-160v46h147l-193 437h54l178 -412l177 412h54z" />
    <glyph glyph-name="uni04B2" unicode="&#x4b2;" horiz-adv-x="584" 
d="M521 46h50v-187h-52v141h-27l-198 296l-198 -296h-60l229 340l-213 320h60l183 -279l180 279h60l-210 -322z" />
    <glyph glyph-name="uni04B3" unicode="&#x4b3;" horiz-adv-x="517" 
d="M420 46h52v-187h-51v141h-26l-155 215l-155 -215h-59l184 254l-169 229h59l139 -193l141 193h59l-170 -231z" />
    <glyph glyph-name="uni04B6" unicode="&#x4b6;" horiz-adv-x="629" 
d="M516 47h76v-188h-52v141h-76v276q-71 -28 -152 -28q-118 0 -188.5 68.5t-70.5 195.5v148h52v-145q0 -108 56.5 -163t152.5 -55q84 0 150 30v333h52v-613z" />
    <glyph glyph-name="uni04B7" unicode="&#x4b7;" horiz-adv-x="558" 
d="M435 46h77v-187h-51v141h-76v195q-57 -24 -123 -24q-94 0 -150 53.5t-56 157.5v101h50v-100q0 -164 158 -164q68 0 121 24v240h50v-437z" />
    <glyph glyph-name="uni04BA" unicode="&#x4ba;" horiz-adv-x="613" 
d="M293 402q108 0 165 -66t57 -183v-153h-52v152q0 201 -174 201q-71 0 -139 -28v-325h-52v660h52v-285q68 27 143 27z" />
    <glyph glyph-name="uni04BB" unicode="&#x4bb;" horiz-adv-x="577" 
d="M303 493q82 0 129 -52t47 -136v-305h-50v301q0 65 -36.5 105t-98.5 40q-63 0 -103.5 -41t-40.5 -104v-301h-50v750h50v-333q52 76 153 76z" />
    <glyph glyph-name="uni04C0" unicode="&#x4c0;" horiz-adv-x="247" 
d="M150 660v-660h-52v660h52z" />
    <glyph glyph-name="uni04C1" unicode="&#x4c1;" horiz-adv-x="939" 
d="M469 744q-61 0 -102 41t-41 102h45q0 -46 28 -73.5t70 -27.5t69.5 27.5t27.5 73.5h45q0 -61 -40.5 -102t-101.5 -41zM60 660h69l300 -303l-326 -357h-67l326 356zM443 0v660h52v-660h-52zM577 356l326 -356h-68l-325 357l300 303h69z" />
    <glyph glyph-name="uni04C2" unicode="&#x4c2;" horiz-adv-x="743" 
d="M372 586q-61 0 -102 41t-41 102h45q0 -46 28 -73.5t70 -27.5t69.5 27.5t27.5 73.5h45q0 -61 -40.5 -102t-101.5 -41zM48 483h66l218 -221l-242 -262h-64l242 263zM347 0v483h50v-483h-50zM475 262l242 -262h-64l-241 262l217 221h67z" />
    <glyph glyph-name="uni04CF" unicode="&#x4cf;" horiz-adv-x="249" 
d="M150 750v-750h-51v750h51z" />
    <glyph glyph-name="uni04D0" unicode="&#x4d0;" horiz-adv-x="664" 
d="M333 744q-61 0 -102 41t-41 102h45q0 -46 28 -73.5t70 -27.5t69.5 27.5t27.5 73.5h45q0 -61 -40.5 -102t-101.5 -41zM570 0l-65 157h-347l-65 -157h-54l283 670h21l282 -670h-55zM332 577l-154 -373h307z" />
    <glyph glyph-name="uni04D1" unicode="&#x4d1;" horiz-adv-x="521" 
d="M254 586q-61 0 -102 41t-41 102h45q0 -46 28 -73.5t70 -27.5t69.5 27.5t27.5 73.5h45q0 -61 -40.5 -102t-101.5 -41zM255 493q82 0 131.5 -49t49.5 -141v-303h-48v76q-56 -86 -173 -86q-70 0 -118 34.5t-48 96.5q0 59 46 94t122 35h168v55q0 69 -36 105t-97 36
q-84 0 -147 -81l-35 28q70 100 185 100zM220 34q68 0 116.5 42t48.5 104v27h-163q-59 0 -90 -21.5t-31 -61.5q0 -44 35 -67t84 -23z" />
    <glyph glyph-name="uni04D4" unicode="&#x4d4;" horiz-adv-x="807" 
d="M520 47h247v-47h-293l-27 158h-291l-83 -158h-56l344 660h394v-47h-334l41 -233h213v-47h-205zM374 583l-194 -378h259z" />
    <glyph glyph-name="uni04D5" unicode="&#x4d5;" horiz-adv-x="902" 
d="M842 221h-403q7 -81 62.5 -132.5t135.5 -51.5q95 0 160 76l33 -33q-76 -90 -194 -90q-71 0 -129 35.5t-89 95.5q-21 -61 -76 -96t-125 -35q-73 0 -120.5 36.5t-47.5 101.5q0 63 46 100t122 37h168v40q0 69 -36 105t-96 36q-86 0 -147 -81l-35 28q70 100 185 100
q62 0 106.5 -30.5t61.5 -87.5q32 54 86.5 86t119.5 32q91 0 153.5 -59.5t62.5 -156.5q0 -36 -4 -56zM439 265h355q5 81 -44.5 131.5t-123.5 50.5t-126.5 -51.5t-60.5 -130.5zM222 34q66 0 114.5 42t48.5 104v41h-163q-121 0 -121 -88q0 -49 35.5 -74t85.5 -25z" />
    <glyph glyph-name="uni04D6" unicode="&#x4d6;" horiz-adv-x="563" 
d="M424 887q0 -61 -40.5 -102t-101.5 -41t-102 41t-41 102h45q0 -46 28 -73.5t70 -27.5t69.5 27.5t27.5 73.5h45zM511 660v-47h-361v-233h281v-47h-281v-286h373v-47h-425v660h413z" />
    <glyph glyph-name="uni04D7" unicode="&#x4d7;" horiz-adv-x="572" 
d="M287 586q-61 0 -102 41t-41 102h45q0 -46 28 -73.5t70 -27.5t69.5 27.5t27.5 73.5h45q0 -61 -40.5 -102t-101.5 -41zM516 278q0 -29 -4 -49h-404q4 -84 60 -138t139 -54q96 0 161 76l32 -33q-77 -90 -194 -90q-105 0 -177.5 72.5t-72.5 178.5q0 105 71 178.5t173 73.5
q91 0 153.5 -59.5t62.5 -155.5zM298 447q-73 0 -125 -48.5t-63 -123.5h354q3 78 -46 125t-120 47z" />
    <glyph glyph-name="uni04D8" unicode="&#x4d8;" horiz-adv-x="730" 
d="M350 670q139 0 233 -98t94 -240q0 -144 -96 -243t-234 -99q-122 0 -208 80t-86 212q0 11 4 59h566q-3 121 -81 201t-193 80q-68 0 -128.5 -30.5t-99.5 -84.5l-36 31q45 61 115 96.5t150 35.5zM349 39q107 0 183 72.5t89 182.5h-515q-6 -115 66 -185t177 -70z" />
    <glyph glyph-name="uni04D9" unicode="&#x4d9;" horiz-adv-x="572" 
d="M266 493q106 0 178 -72.5t72 -178.5q0 -105 -70.5 -178.5t-172.5 -73.5q-91 0 -154 59.5t-63 155.5q0 32 4 48h404q-4 85 -60 139t-138 54q-97 0 -162 -76l-32 33q77 90 194 90zM275 36q72 0 124 48.5t63 123.5h-354q-3 -78 46 -125t121 -47z" />
    <glyph glyph-name="uni04E2" unicode="&#x4e2;" horiz-adv-x="716" 
d="M494 819v-43h-282v43h282zM597 670h21v-670h-52v556l-448 -566h-20v670h52v-558z" />
    <glyph glyph-name="uni04E3" unicode="&#x4e3;" horiz-adv-x="593" 
d="M423 691v-43h-262v43h262zM473 493h20v-493h-49v388l-324 -398h-21v493h51v-387z" />
    <glyph glyph-name="uni04E6" unicode="&#x4e6;" horiz-adv-x="783" 
d="M278 850q18 0 30.5 -12t12.5 -30t-12.5 -30.5t-30.5 -12.5q-17 0 -30 12.5t-13 30.5t12.5 30t30.5 12zM504 850q18 0 30.5 -12.5t12.5 -30.5q0 -17 -12.5 -29.5t-30.5 -12.5q-17 0 -30 12.5t-13 29.5q0 18 13 30.5t30 12.5zM391 670q141 0 240 -98t99 -242
q0 -143 -99 -241.5t-240 -98.5q-142 0 -240 98.5t-98 241.5q0 144 98 242t240 98zM392 622q-122 0 -203 -83.5t-81 -207.5t81 -208t203 -84q121 0 202 84t81 208q0 123 -81.5 207t-201.5 84z" />
    <glyph glyph-name="uni04E7" unicode="&#x4e7;" horiz-adv-x="612" 
d="M205 712q18 0 30.5 -12.5t12.5 -30.5q0 -17 -12.5 -29.5t-30.5 -12.5q-17 0 -30 12.5t-13 29.5q0 18 13 30.5t30 12.5zM405 712q18 0 31 -12.5t13 -30.5q0 -17 -13 -29.5t-31 -12.5q-17 0 -30 12.5t-13 29.5q0 18 13 30.5t30 12.5zM306 493q104 0 177 -72.5t73 -178.5
t-73 -179t-178 -73q-104 0 -176.5 73t-72.5 179t72.5 178.5t177.5 72.5zM306 446q-85 0 -141.5 -59t-56.5 -146t56.5 -145.5t140.5 -58.5t141.5 59t57.5 145q0 87 -57 146t-141 59z" />
    <glyph glyph-name="uni04E8" unicode="&#x4e8;" horiz-adv-x="783" 
d="M391 670q141 0 240 -98t99 -242q0 -143 -99 -241.5t-240 -98.5q-142 0 -240 98.5t-98 241.5q0 144 98 242t240 98zM392 622q-109 0 -186.5 -68t-93.5 -174h559q-16 106 -93.5 174t-185.5 68zM392 39q121 0 202 84t81 208v2h-567v-2q0 -124 81 -208t203 -84z" />
    <glyph glyph-name="uni04E9" unicode="&#x4e9;" horiz-adv-x="612" 
d="M306 493q104 0 177 -73t73 -178t-73.5 -178.5t-177.5 -73.5t-176.5 73.5t-72.5 178.5t72.5 178t177.5 73zM306 446q-77 0 -131 -48.5t-65 -124.5h392q-11 75 -66 124t-130 49zM305 37q80 0 137 54.5t62 135.5h-396q5 -81 61 -135.5t136 -54.5z" />
    <glyph glyph-name="uni04EE" unicode="&#x4ee;" horiz-adv-x="601" 
d="M447 820v-43h-282v43h282zM504 660h58l-238 -550q-51 -120 -174 -120q-38 0 -71 9v46q40 -7 65 -7q96 0 134 90l7 17l-233 515h58l202 -459z" />
    <glyph glyph-name="uni04EF" unicode="&#x4ef;" horiz-adv-x="527" 
d="M395 691v-43h-262v43h262zM441 483h54l-241 -562q-48 -111 -151 -111q-35 0 -68 9v44q32 -7 61 -7q76 0 112 83l31 71l-207 473h55l179 -416z" />
    <glyph glyph-name="uni04F2" unicode="&#x4f2;" horiz-adv-x="601" 
d="M342 901l-109 -177h-39l91 186h57v-9zM509 901l-110 -177h-39l92 186h57v-9zM504 660h58l-238 -550q-51 -120 -174 -120q-38 0 -71 9v46q40 -7 65 -7q96 0 134 90l7 17l-233 515h58l202 -459z" />
    <glyph glyph-name="uni04F3" unicode="&#x4f3;" horiz-adv-x="527" 
d="M318 771l-109 -207h-39l91 216h57v-9zM355 564h-39l92 216h57v-9zM441 483h54l-241 -562q-48 -111 -151 -111q-35 0 -68 9v44q32 -7 61 -7q76 0 112 83l31 71l-207 473h55l179 -416z" />
    <glyph glyph-name="Wgrave" unicode="&#x1e80;" horiz-adv-x="1072" 
d="M557 724h-40l-113 177v9h62zM966 660h55l-244 -670h-21l-220 577l-220 -577h-21l-244 670h56l200 -563l219 573h20l220 -573z" />
    <glyph glyph-name="wgrave" unicode="&#x1e81;" horiz-adv-x="845" 
d="M444 564h-40l-113 207v9h62zM759 483h54l-194 -493h-21l-176 407l-175 -407h-20l-195 493h54l152 -401l174 411h21l175 -409z" />
    <glyph glyph-name="Wacute" unicode="&#x1e82;" horiz-adv-x="1072" 
d="M669 901l-113 -177h-40l91 186h62v-9zM966 660h55l-244 -670h-21l-220 577l-220 -577h-21l-244 670h56l200 -563l219 573h20l220 -573z" />
    <glyph glyph-name="wacute" unicode="&#x1e83;" horiz-adv-x="845" 
d="M556 771l-113 -207h-40l91 216h62v-9zM759 483h54l-194 -493h-21l-176 407l-175 -407h-20l-195 493h54l152 -401l174 411h21l175 -409z" />
    <glyph glyph-name="Wdieresis" unicode="&#x1e84;" horiz-adv-x="1072" 
d="M423 765q-17 0 -30 12.5t-13 30.5t12.5 30t30.5 12t30.5 -12t12.5 -30t-12.5 -30.5t-30.5 -12.5zM649 765q-17 0 -30 12.5t-13 29.5q0 18 13 30.5t30 12.5q18 0 30.5 -12.5t12.5 -30.5q0 -17 -12.5 -29.5t-30.5 -12.5zM966 660h55l-244 -670h-21l-220 577l-220 -577h-21
l-244 670h56l200 -563l219 573h20l220 -573z" />
    <glyph glyph-name="wdieresis" unicode="&#x1e85;" horiz-adv-x="845" 
d="M321 627q-17 0 -30 12.5t-13 29.5q0 18 13 30.5t30 12.5q18 0 30.5 -12.5t12.5 -30.5q0 -17 -12.5 -29.5t-30.5 -12.5zM521 627q-17 0 -30 12.5t-13 29.5q0 18 13 30.5t30 12.5q18 0 31 -12.5t13 -30.5q0 -17 -13 -29.5t-31 -12.5zM759 483h54l-194 -493h-21l-176 407
l-175 -407h-20l-195 493h54l152 -401l174 411h21l175 -409z" />
    <glyph glyph-name="uni1E9E" unicode="&#x1e9e;" horiz-adv-x="701" 
d="M440 406q86 -6 145.5 -64t59.5 -145q0 -89 -61.5 -148t-148.5 -59q-110 0 -182 85l34 37q56 -73 147 -73q68 0 112.5 44t44.5 113q0 74 -52 119.5t-132 45.5h-43v16l154 236h-368v-613h-52v660h496v-17z" />
    <glyph glyph-name="Ygrave" unicode="&#x1ef2;" horiz-adv-x="613" 
d="M325 724h-40l-113 177v9h62zM562 660l-230 -381v-279h-52v281l-229 379h57l199 -331l198 331h57z" />
    <glyph glyph-name="ygrave" unicode="&#x1ef3;" horiz-adv-x="527" 
d="M284 564h-40l-113 207v9h62zM441 483h54l-241 -562q-48 -111 -151 -111q-35 0 -68 9v44q32 -7 61 -7q76 0 112 83l31 71l-207 473h55l179 -416z" />
    <glyph glyph-name="uni2009" unicode="&#x2009;" horiz-adv-x="146" 
 />
    <glyph glyph-name="endash" unicode="&#x2013;" horiz-adv-x="503" 
d="M455 333v-44h-408v44h408z" />
    <glyph glyph-name="emdash" unicode="&#x2014;" horiz-adv-x="1000" 
d="M950 333v-44h-900v44h900z" />
    <glyph glyph-name="uni2015" unicode="&#x2015;" horiz-adv-x="1000" 
d="M950 333v-44h-900v44h900z" />
    <glyph glyph-name="quoteleft" unicode="&#x2018;" horiz-adv-x="272" 
d="M172 660l-17 -247h-61l37 247h41z" />
    <glyph glyph-name="quoteright" unicode="&#x2019;" horiz-adv-x="272" 
d="M178 660l-37 -247h-41l17 247h61z" />
    <glyph glyph-name="quotesinglbase" unicode="&#x201a;" horiz-adv-x="272" 
d="M178 75l-37 -248h-41l17 248h61z" />
    <glyph glyph-name="quotedblleft" unicode="&#x201c;" horiz-adv-x="430" 
d="M172 660l-17 -247h-61l37 247h41zM331 660l-17 -247h-61l37 247h41z" />
    <glyph glyph-name="quotedblright" unicode="&#x201d;" horiz-adv-x="430" 
d="M178 660l-37 -247h-41l17 247h61zM337 660l-37 -247h-41l17 247h61z" />
    <glyph glyph-name="quotedblbase" unicode="&#x201e;" horiz-adv-x="430" 
d="M178 75l-37 -248h-41l17 248h61zM337 75l-37 -248h-41l17 248h61z" />
    <glyph glyph-name="dagger" unicode="&#x2020;" horiz-adv-x="437" 
d="M243 750v-129h124v-45h-124v-217h-50v217h-123v45h123v129h50z" />
    <glyph glyph-name="daggerdbl" unicode="&#x2021;" horiz-adv-x="437" 
d="M243 750v-99h124v-45h-124v-142h124v-45h-124v-100h-50v100h-123v45h123v142h-123v45h123v99h50z" />
    <glyph glyph-name="bullet" unicode="&#x2022;" horiz-adv-x="355" 
d="M178 382q47 0 82 -33t35 -84t-35 -83.5t-82 -32.5t-82.5 32.5t-35.5 83.5t35.5 84t82.5 33z" />
    <glyph glyph-name="ellipsis" unicode="&#x2026;" horiz-adv-x="758" 
d="M134 88q21 0 35.5 -13.5t14.5 -36.5q0 -21 -14.5 -34.5t-35.5 -13.5q-19 0 -33.5 13.5t-14.5 34.5q0 22 14 36t34 14zM378 88q21 0 35.5 -13.5t14.5 -36.5q0 -21 -14.5 -34.5t-35.5 -13.5q-19 0 -33.5 13.5t-14.5 34.5q0 22 14 36t34 14zM622 88q21 0 35.5 -13.5
t14.5 -36.5q0 -21 -14.5 -34.5t-35.5 -13.5q-19 0 -33.5 13.5t-14.5 34.5q0 22 14 36t34 14z" />
    <glyph glyph-name="perthousand" unicode="&#x2030;" horiz-adv-x="1184" 
d="M215 670q66 0 113 -46t47 -113t-47 -113t-113 -46q-67 0 -113.5 46t-46.5 113t46.5 113t113.5 46zM615 660l-380 -660h-47l379 660h48zM215 629q-49 0 -81.5 -34t-32.5 -84t32.5 -84t81.5 -34t81.5 34t32.5 84t-32.5 84t-81.5 34zM970 310q67 0 114 -46t47 -113t-47 -113
t-114 -46q-66 0 -112.5 46t-46.5 113t46.5 113t112.5 46zM586 309q66 0 113 -46t47 -113t-47 -113t-113 -46t-113 46t-47 113t47 113t113 46zM970 269q-49 0 -81 -34t-32 -84t32 -84t81 -34t82 34t33 84t-33 84t-82 34zM586 268q-49 0 -81 -33.5t-32 -84.5t32 -84.5
t81 -33.5t81.5 34t32.5 84t-32.5 84t-81.5 34z" />
    <glyph glyph-name="minute" unicode="&#x2032;" horiz-adv-x="228" 
d="M176 660l-64 -266h-43l44 266h63z" />
    <glyph glyph-name="second" unicode="&#x2033;" horiz-adv-x="387" 
d="M176 660l-64 -266h-43l44 266h63zM335 660l-64 -266h-43l44 266h63z" />
    <glyph glyph-name="guilsinglleft" unicode="&#x2039;" horiz-adv-x="290" 
d="M212 457l34 -30l-144 -157l144 -159l-34 -29l-169 179v17z" />
    <glyph glyph-name="guilsinglright" unicode="&#x203a;" horiz-adv-x="290" 
d="M78 457l169 -179v-17l-169 -179l-34 29l144 159l-144 157z" />
    <glyph glyph-name="fraction" unicode="&#x2044;" horiz-adv-x="231" 
d="M329 660l-380 -660h-47l379 660h48z" />
    <glyph glyph-name="uni2070" unicode="&#x2070;" horiz-adv-x="406" 
d="M203 786q75 0 112.5 -57t37.5 -153t-37.5 -157t-112.5 -61t-112.5 61t-37.5 157q0 95 37.5 152.5t112.5 57.5zM203 744q-102 0 -102 -168q0 -81 24.5 -129t77.5 -48t78 48t25 129q0 168 -103 168z" />
    <glyph glyph-name="uni2074" unicode="&#x2074;" horiz-adv-x="349" 
d="M331 482v-40h-61v-78h-44v78h-208v14l135 324h48l-125 -298h150v142h44v-142h61z" />
    <glyph glyph-name="uni2075" unicode="&#x2075;" horiz-adv-x="364" 
d="M174 623q65 0 106.5 -32t41.5 -94q0 -64 -43 -101.5t-104 -37.5q-91 0 -141 84l33 24q43 -66 108 -66q43 0 71 26.5t28 68.5t-28 65t-79 23h-93v197h212v-42h-168v-120q33 5 56 5z" />
    <glyph glyph-name="uni2076" unicode="&#x2076;" horiz-adv-x="373" 
d="M192 632q55 0 95 -39.5t40 -97.5t-41 -97.5t-100 -39.5t-99.5 39.5t-40.5 99.5q0 24 9.5 49t17.5 38t30 45l103 151h55l-106 -154q17 6 37 6zM186 400q41 0 67.5 27t26.5 68q0 42 -26.5 69.5t-67.5 27.5q-40 0 -66.5 -27.5t-26.5 -69.5q0 -41 26.5 -68t66.5 -27z" />
    <glyph glyph-name="uni2077" unicode="&#x2077;" horiz-adv-x="320" 
d="M26 780h275v-14l-211 -402h-50l198 374h-212v42z" />
    <glyph glyph-name="uni2078" unicode="&#x2078;" horiz-adv-x="380" 
d="M235 582q99 -36 99 -113q0 -50 -39.5 -80.5t-105.5 -30.5q-65 0 -104 31t-39 81q0 77 99 112q-80 34 -80 103q0 47 35.5 74t88.5 27q55 0 90.5 -27t35.5 -75q0 -67 -80 -102zM108 682q0 -29 21 -47t61 -33q40 15 60.5 33t20.5 47q0 31 -23 48.5t-59 17.5q-35 0 -58 -17.5
t-23 -48.5zM189 396q47 0 73.5 21t26.5 55t-25.5 53.5t-73.5 36.5q-49 -17 -74 -36.5t-25 -53.5t26 -55t72 -21z" />
    <glyph glyph-name="uni2079" unicode="&#x2079;" horiz-adv-x="373" 
d="M187 786q59 0 99.5 -39.5t40.5 -99.5q0 -32 -13 -59t-38 -65q-4 -5 -6 -8l-103 -151h-55l107 155q-15 -7 -38 -7q-55 0 -95 39.5t-40 97.5t41 97.5t100 39.5zM187 552q40 0 66.5 27.5t26.5 69.5q0 41 -26.5 68t-66.5 27q-41 0 -67.5 -27t-26.5 -68q0 -42 26.5 -69.5
t67.5 -27.5z" />
    <glyph glyph-name="uni207A" unicode="&#x207a;" horiz-adv-x="427" 
d="M235 742v-149h145v-41h-145v-148h-44v148h-145v41h145v149h44z" />
    <glyph glyph-name="uni207B" unicode="&#x207b;" horiz-adv-x="427" 
d="M380 592v-38h-334v38h334z" />
    <glyph glyph-name="uni207C" unicode="&#x207c;" horiz-adv-x="427" 
d="M54 630v41h319v-41h-319zM54 475v40h319v-40h-319z" />
    <glyph glyph-name="uni207D" unicode="&#x207d;" horiz-adv-x="248" 
d="M209 900l17 -29q-122 -74 -122 -298q0 -229 122 -298l-17 -31q-147 86 -147 329q0 141 42 219t105 108z" />
    <glyph glyph-name="uni207E" unicode="&#x207e;" horiz-adv-x="248" 
d="M39 900q63 -30 105 -108t42 -219t-42 -220t-105 -109l-17 31q122 69 122 298q0 224 -122 298z" />
    <glyph glyph-name="uni2080" unicode="&#x2080;" horiz-adv-x="406" 
d="M203 302q75 0 112.5 -57t37.5 -153t-37.5 -157t-112.5 -61t-112.5 61t-37.5 157q0 95 37.5 152.5t112.5 57.5zM203 260q-102 0 -102 -168q0 -81 24.5 -129t77.5 -48t78 48t25 129q0 168 -103 168z" />
    <glyph glyph-name="uni2081" unicode="&#x2081;" horiz-adv-x="346" 
d="M205 296v-374h96v-42h-252v42h109v332h-107v42h154z" />
    <glyph glyph-name="uni2082" unicode="&#x2082;" horiz-adv-x="363" 
d="M119 -78h203v-42h-286v12l150 157q37 39 54 67t17 59q0 35 -22.5 60t-59.5 25q-39 0 -62.5 -26t-23.5 -63q0 -15 3 -33h-45q-4 16 -4 36q0 52 36 90t96 38q57 0 93.5 -35t36.5 -89q0 -29 -14 -58t-29.5 -48t-45.5 -51z" />
    <glyph glyph-name="uni2083" unicode="&#x2083;" horiz-adv-x="352" 
d="M186 139q49 -4 86 -36.5t37 -91.5q0 -62 -43 -99.5t-103 -37.5q-90 0 -140 84l33 24q43 -66 107 -66q43 0 70.5 26.5t27.5 68.5t-28 65t-79 23h-38v13l111 142h-177v42h248v-14z" />
    <glyph glyph-name="uni2084" unicode="&#x2084;" horiz-adv-x="349" 
d="M331 -2v-40h-61v-78h-44v78h-208v14l135 324h48l-125 -298h150v142h44v-142h61z" />
    <glyph glyph-name="uni2085" unicode="&#x2085;" horiz-adv-x="364" 
d="M174 139q65 0 106.5 -32t41.5 -94q0 -64 -43 -101.5t-104 -37.5q-91 0 -141 84l33 24q43 -66 108 -66q43 0 71 26.5t28 68.5t-28 65t-79 23h-93v197h212v-42h-168v-120q33 5 56 5z" />
    <glyph glyph-name="uni2086" unicode="&#x2086;" horiz-adv-x="373" 
d="M192 148q55 0 95 -39.5t40 -97.5t-41 -97.5t-100 -39.5t-99.5 39.5t-40.5 99.5q0 24 9.5 49t17.5 38t30 45l103 151h55l-106 -154q17 6 37 6zM186 -84q41 0 67.5 27t26.5 68q0 42 -26.5 69.5t-67.5 27.5q-40 0 -66.5 -27.5t-26.5 -69.5q0 -41 26.5 -68t66.5 -27z" />
    <glyph glyph-name="uni2087" unicode="&#x2087;" horiz-adv-x="320" 
d="M26 296h275v-14l-211 -402h-50l198 374h-212v42z" />
    <glyph glyph-name="uni2088" unicode="&#x2088;" horiz-adv-x="380" 
d="M235 98q99 -36 99 -113q0 -50 -39.5 -80.5t-105.5 -30.5q-65 0 -104 31t-39 81q0 77 99 112q-80 34 -80 103q0 47 35.5 74t88.5 27q55 0 90.5 -27t35.5 -75q0 -67 -80 -102zM108 198q0 -29 21 -47t61 -33q40 15 60.5 33t20.5 47q0 31 -23 48.5t-59 17.5q-35 0 -58 -17.5
t-23 -48.5zM189 -88q47 0 73.5 21t26.5 55t-25.5 53.5t-73.5 36.5q-49 -17 -74 -36.5t-25 -53.5t26 -55t72 -21z" />
    <glyph glyph-name="uni2089" unicode="&#x2089;" horiz-adv-x="373" 
d="M187 302q59 0 99.5 -39.5t40.5 -99.5q0 -32 -13 -59t-38 -65q-4 -5 -6 -8l-103 -151h-55l107 155q-15 -7 -38 -7q-55 0 -95 39.5t-40 97.5t41 97.5t100 39.5zM187 68q40 0 66.5 27.5t26.5 69.5q0 41 -26.5 68t-66.5 27q-41 0 -67.5 -27t-26.5 -68q0 -42 26.5 -69.5
t67.5 -27.5z" />
    <glyph glyph-name="uni208A" unicode="&#x208a;" horiz-adv-x="427" 
d="M235 257v-149h145v-41h-145v-148h-44v148h-145v41h145v149h44z" />
    <glyph glyph-name="uni208B" unicode="&#x208b;" horiz-adv-x="427" 
d="M380 107v-38h-334v38h334z" />
    <glyph glyph-name="uni208C" unicode="&#x208c;" horiz-adv-x="427" 
d="M54 145v41h319v-41h-319zM54 -10v40h319v-40h-319z" />
    <glyph glyph-name="uni208D" unicode="&#x208d;" horiz-adv-x="248" 
d="M209 415l17 -29q-122 -74 -122 -298q0 -229 122 -298l-17 -31q-147 86 -147 329q0 141 42 219t105 108z" />
    <glyph glyph-name="uni208E" unicode="&#x208e;" horiz-adv-x="248" 
d="M39 415q63 -30 105 -108t42 -219t-42 -220t-105 -109l-17 31q122 69 122 298q0 224 -122 298z" />
    <glyph glyph-name="lira" unicode="&#x20a4;" horiz-adv-x="509" 
d="M247 182q-11 -85 -76 -136h293v-46h-401v15q119 70 132 167h-122v45h123q-5 44 -36 105h-87v46h64q-36 68 -36 125q0 75 50 121t129 46q72 0 121 -40t71 -115l-47 -16q-39 123 -144 123q-59 0 -92.5 -36t-33.5 -90q0 -48 37 -118h196v-46h-172q28 -57 32 -105h140v-45
h-141z" />
    <glyph glyph-name="peseta" unicode="&#x20a7;" horiz-adv-x="575" 
d="M575 494v-46h-85q-8 -72 -62.5 -117t-141.5 -45h-122v-286h-52v448h-84v46h84v166h174q88 0 142.5 -46t61.5 -120h85zM284 613h-120v-120h272q-6 55 -45.5 87.5t-106.5 32.5zM284 333q66 0 105 31t46 85h-271v-116h120z" />
    <glyph glyph-name="Euro" unicode="&#x20ac;" horiz-adv-x="683" 
d="M415 39q114 0 177 82l37 -31q-74 -100 -216 -100q-111 0 -190 65.5t-106 173.5h-110v46h101q-3 27 -3 55q0 26 3 51h-99v45h107q26 110 105 177t192 67q142 0 216 -100l-37 -31q-63 83 -177 83q-93 0 -156.5 -53t-86.5 -143h318l-12 -45h-315q-3 -25 -3 -51q0 -31 4 -55
h284l-12 -46h-263q24 -87 87 -138.5t155 -51.5z" />
    <glyph glyph-name="uni20AE" unicode="&#x20ae;" horiz-adv-x="583" 
d="M559 613h-242v-220l190 71v-49l-190 -71v-107l190 71v-49l-190 -72v-187h-52v168l-188 -71v50l188 70v107l-188 -70v49l188 70v240h-241v47h535v-47z" />
    <glyph glyph-name="uni20B4" unicode="&#x20b4;" horiz-adv-x="544" 
d="M516 232h-359q-23 -30 -23 -69q0 -57 40 -90.5t102 -33.5q121 0 197 119l38 -28q-37 -64 -98.5 -102t-136.5 -38q-84 0 -140.5 47.5t-56.5 124.5q0 38 16 70h-67v43h100q26 25 104 71l56 32l3 2h-261v44h330q42 35 42 86q0 57 -40 84.5t-93 27.5q-93 0 -154 -85l-37 28
q29 48 79.5 76.5t113.5 28.5q79 0 132 -43t53 -117q0 -51 -27 -86h86v-44h-134q-17 -12 -70 -43l-55 -33l-48 -29h308v-43z" />
    <glyph glyph-name="uni20B8" unicode="&#x20b8;" horiz-adv-x="583" 
d="M559 660v-47h-535v47h535zM559 508v-47h-242v-461h-52v461h-241v47h535z" />
    <glyph glyph-name="uni20B9" unicode="&#x20b9;" horiz-adv-x="502" 
d="M428 660v-46l-142 1q53 -37 64 -104h78v-46h-75q-5 -76 -58.5 -122.5t-142.5 -46.5h-32l308 -296h-67l-310 296v46h99q68 0 106 33t43 90h-251v46h248q-9 48 -46.5 75.5t-99.5 27.5h-99v46h377z" />
    <glyph glyph-name="uni20BA" unicode="&#x20ba;" horiz-adv-x="509" 
d="M460 285q10 -31 10 -66q0 -79 -46.5 -131.5t-120 -75t-170.5 -22.5v259l-102 -47v49l102 47v107l-102 -47v50l102 46v206h52v-182l197 90v-49l-197 -90v-107l197 90v-49l-197 -90v-235q60 3 111.5 22t88 60.5t36.5 99.5q0 23 -6 65h45z" />
    <glyph glyph-name="uni20BD" unicode="&#x20bd;" horiz-adv-x="568" 
d="M321 660q90 0 142.5 -49.5t52.5 -128.5t-52.5 -129t-142.5 -50h-157v-108h268v-46h-268v-149h-52v149h-84v46h84v108h-84v46h84v311h209zM319 614h-155v-265h155q70 0 107.5 36.5t37.5 95.5t-37.5 96t-107.5 37z" />
    <glyph glyph-name="uni2105" unicode="&#x2105;" horiz-adv-x="802" 
d="M214 670q84 0 127 -66l-32 -26q-38 50 -95 50q-48 0 -80 -33.5t-32 -83.5t32 -83.5t80 -33.5q57 0 95 50l32 -26q-43 -66 -127 -66q-66 0 -112.5 46t-46.5 113t46.5 113t112.5 46zM614 660l-380 -660h-47l379 660h48zM586 309q67 0 114 -46.5t47 -113.5t-47 -113
t-114 -46t-113.5 46t-46.5 113t46.5 113.5t113.5 46.5zM586 265q-49 0 -80.5 -33t-31.5 -83t31.5 -83t80.5 -33t81 33t32 83t-32 83t-81 33z" />
    <glyph glyph-name="uni2113" unicode="&#x2113;" horiz-adv-x="389" 
d="M151 162q0 -126 111 -126q30 0 83 11v-44q-44 -13 -90 -13q-73 0 -113.5 43.5t-40.5 125.5v28q-38 -36 -57 -53l-29 37q40 36 86 82v328q0 179 133 179q56 0 88.5 -33.5t32.5 -104.5q0 -174 -204 -385v-75zM151 584v-279q155 172 155 314q0 96 -69 96q-86 0 -86 -131z
" />
    <glyph glyph-name="uni2116" unicode="&#x2116;" horiz-adv-x="1128" 
d="M556 107v553h52v-670h-21l-437 559v-549h-52v670h20zM911 238q-66 0 -112.5 46t-46.5 113t46.5 113t112.5 46q67 0 114 -46t47 -113t-47 -113t-114 -46zM911 515q-49 0 -81 -34t-32 -84t32 -84t81 -34t82 34t33 84t-33 84t-82 34zM760 113v41h305v-41h-305z" />
    <glyph glyph-name="uni2117" unicode="&#x2117;" horiz-adv-x="783" 
d="M391 670q141 0 240 -98t99 -242q0 -143 -99.5 -241.5t-239.5 -98.5q-141 0 -239.5 98.5t-98.5 241.5q0 144 98.5 242t239.5 98zM391 630q-124 0 -209 -85.5t-85 -213.5t85 -214.5t209 -86.5t209.5 86.5t85.5 214.5q0 127 -85.5 213t-209.5 86zM420 502q56 0 90 -31.5
t34 -80.5t-34 -80.5t-90 -31.5h-92v-130h-46v354h138zM420 463h-91v-145h91q37 0 57.5 20t20.5 52t-20.5 52.5t-57.5 20.5z" />
    <glyph glyph-name="trademark" unicode="&#x2122;" horiz-adv-x="948" 
d="M873 667v-456h-47v340l-149 -209h-17l-149 209v-340h-47v456h17l188 -262l187 262h17zM382 660v-42h-161v-407h-46v407h-161v42h368z" />
    <glyph glyph-name="uni2126" unicode="&#x2126;" horiz-adv-x="793" 
d="M735 341q0 -176 -184 -294h174v-47h-261v46q216 102 216 294q0 123 -80.5 202.5t-203.5 79.5q-122 0 -202.5 -79.5t-80.5 -201.5q0 -192 216 -295v-46h-261v47h171q-181 114 -181 294q0 142 97.5 235.5t240.5 93.5q142 0 240.5 -93.5t98.5 -235.5z" />
    <glyph glyph-name="estimated" unicode="&#x212e;" horiz-adv-x="795" 
d="M731 327h-544v-204q76 -104 220 -104q79 0 146 33t111 87l23 -20q-49 -60 -122 -94.5t-158 -34.5q-149 0 -248 97.5t-99 238.5q0 144 101.5 244t241.5 100q81 0 156 -34.5t125.5 -102.5t50.5 -152zM407 640q-142 0 -220 -104v-180h421v195q-75 89 -201 89z" />
    <glyph glyph-name="uni2150" unicode="&#x2150;" horiz-adv-x="897" 
d="M301 286v-42h-252v42h109v332h-107v42h154v-374h96zM627 660h48l-380 -660h-47zM603 416h275v-14l-211 -402h-50l198 374h-212v42z" />
    <glyph glyph-name="uni2151" unicode="&#x2151;" horiz-adv-x="920" 
d="M301 286v-42h-252v42h109v332h-107v42h154v-374h96zM627 660h48l-380 -660h-47zM734 422q59 0 99.5 -39.5t40.5 -99.5q0 -32 -13 -59t-38 -65q-2 -2 -3.5 -4t-2.5 -4l-103 -151h-55l107 155q-15 -7 -38 -7q-55 0 -95 39.5t-40 97.5t41 97.5t100 39.5zM734 188
q40 0 66.5 27.5t26.5 69.5q0 41 -26.5 68t-66.5 27q-41 0 -67.5 -27t-26.5 -68q0 -42 26.5 -69.5t67.5 -27.5z" />
    <glyph glyph-name="uni2152" unicode="&#x2152;" horiz-adv-x="1329" 
d="M205 660v-374h96v-42h-252v42h109v332h-107v42h154zM675 660l-380 -660h-47l379 660h48zM1126 422q75 0 112.5 -57t37.5 -153t-37.5 -157t-112.5 -61t-112.5 61t-37.5 157q0 95 37.5 152.5t112.5 57.5zM782 416v-374h96v-42h-252v42h109v332h-107v42h154zM1126 380
q-102 0 -102 -168q0 -81 24.5 -129t77.5 -48t78 48t25 129q0 168 -103 168z" />
    <glyph glyph-name="uni2153" unicode="&#x2153;" horiz-adv-x="929" 
d="M301 286v-42h-252v42h109v332h-107v42h154v-374h96zM627 660h48l-380 -660h-47zM763 259q49 -4 86 -36.5t37 -91.5q0 -62 -43 -99.5t-103 -37.5q-90 0 -140 84l33 24q43 -66 107 -66q43 0 70.5 26.5t27.5 68.5t-28 65t-79 23h-38v13l111 142h-177v42h248v-14z" />
    <glyph glyph-name="uni2154" unicode="&#x2154;" horiz-adv-x="946" 
d="M322 286v-42h-286v12l150 157q37 39 54 67t17 59q0 35 -22.5 60t-59.5 25q-39 0 -62.5 -26t-23.5 -63q0 -15 3 -33h-45q-4 16 -4 36q0 52 36 90t96 38q57 0 93.5 -35t36.5 -89q0 -29 -14 -58t-29.5 -48t-45.5 -51l-97 -99h203zM644 660h48l-380 -660h-47zM780 259
q49 -4 86 -36.5t37 -91.5q0 -62 -43 -99.5t-103 -37.5q-90 0 -140 84l33 24q43 -66 107 -66q43 0 70.5 26.5t27.5 68.5t-28 65t-79 23h-38v13l111 142h-177v42h248v-14z" />
    <glyph glyph-name="uni2155" unicode="&#x2155;" horiz-adv-x="933" 
d="M301 286v-42h-252v42h109v332h-107v42h154v-374h96zM627 660h48l-380 -660h-47zM743 259q65 0 106.5 -32t41.5 -94q0 -64 -43 -101.5t-104 -37.5q-91 0 -141 84l33 24q43 -66 108 -66q43 0 71 26.5t28 68.5t-28 65t-79 23h-93v197h212v-42h-168v-120q33 5 56 5z" />
    <glyph glyph-name="uni2156" unicode="&#x2156;" horiz-adv-x="950" 
d="M322 286v-42h-286v12l150 157q37 39 54 67t17 59q0 35 -22.5 60t-59.5 25q-39 0 -62.5 -26t-23.5 -63q0 -15 3 -33h-45q-4 16 -4 36q0 52 36 90t96 38q57 0 93.5 -35t36.5 -89q0 -29 -14 -58t-29.5 -48t-45.5 -51l-97 -99h203zM644 660h48l-380 -660h-47zM760 259
q65 0 106.5 -32t41.5 -94q0 -64 -43 -101.5t-104 -37.5q-91 0 -141 84l33 24q43 -66 108 -66q43 0 71 26.5t28 68.5t-28 65t-79 23h-93v197h212v-42h-168v-120q33 5 56 5z" />
    <glyph glyph-name="uni2157" unicode="&#x2157;" horiz-adv-x="904" 
d="M309 375q0 -62 -43 -99.5t-103 -37.5q-90 0 -140 84l33 24q43 -66 107 -66q43 0 70.5 26.5t27.5 68.5t-28 65t-79 23h-38v13l111 142h-177v42h248v-14l-112 -143q49 -4 86 -36.5t37 -91.5zM598 660h48l-380 -660h-47zM714 259q65 0 106.5 -32t41.5 -94q0 -64 -43 -101.5
t-104 -37.5q-91 0 -141 84l33 24q43 -66 108 -66q43 0 71 26.5t28 68.5t-28 65t-79 23h-93v197h212v-42h-168v-120q33 5 56 5z" />
    <glyph glyph-name="uni2158" unicode="&#x2158;" horiz-adv-x="946" 
d="M270 244h-44v78h-208v14l135 324h48l-125 -298h150v142h44v-142h61v-40h-61v-78zM640 660h48l-380 -660h-47zM756 259q65 0 106.5 -32t41.5 -94q0 -64 -43 -101.5t-104 -37.5q-91 0 -141 84l33 24q43 -66 108 -66q43 0 71 26.5t28 68.5t-28 65t-79 23h-93v197h212v-42
h-168v-120q33 5 56 5z" />
    <glyph glyph-name="uni2159" unicode="&#x2159;" horiz-adv-x="870" 
d="M301 286v-42h-252v42h109v332h-107v42h154v-374h96zM627 660h48l-380 -660h-47zM689 268q55 0 95 -39.5t40 -97.5t-41 -97.5t-100 -39.5t-99.5 39.5t-40.5 99.5q0 24 9.5 49t17.5 38t30 45l103 151h55l-106 -154q16 6 37 6zM683 36q41 0 67.5 27t26.5 68q0 42 -26.5 69.5
t-67.5 27.5q-40 0 -66.5 -27.5t-26.5 -69.5q0 -41 26.5 -68t66.5 -27z" />
    <glyph glyph-name="uni215A" unicode="&#x215a;" horiz-adv-x="853" 
d="M322 377q0 -64 -43 -101.5t-104 -37.5q-91 0 -141 84l33 24q43 -66 108 -66q43 0 71 26.5t28 68.5t-28 65t-79 23h-93v197h212v-42h-168v-120q33 5 56 5q65 0 106.5 -32t41.5 -94zM610 660h48l-380 -660h-47zM672 268q55 0 95 -39.5t40 -97.5t-41 -97.5t-100 -39.5
t-99.5 39.5t-40.5 99.5q0 24 9.5 49t17.5 38t30 45l103 151h55l-106 -154q17 6 37 6zM666 36q41 0 67.5 27t26.5 68q0 42 -26.5 69.5t-67.5 27.5q-40 0 -66.5 -27.5t-26.5 -69.5q0 -41 26.5 -68t66.5 -27z" />
    <glyph glyph-name="oneeighth" unicode="&#x215b;" horiz-adv-x="912" 
d="M301 286v-42h-252v42h109v332h-107v42h154v-374h96zM627 660h48l-380 -660h-47zM767 218q99 -36 99 -113q0 -50 -39.5 -80.5t-105.5 -30.5q-65 0 -104 31t-39 81q0 77 99 112q-80 34 -80 103q0 47 35.5 74t88.5 27q55 0 90.5 -27t35.5 -75q0 -67 -80 -102zM640 318
q0 -29 21 -47t61 -33q40 15 60.5 33t20.5 47q0 31 -23 48.5t-59 17.5q-35 0 -58 -17.5t-23 -48.5zM721 32q47 0 73.5 21t26.5 55t-25.5 53.5t-73.5 36.5q-49 -17 -74 -36.5t-25 -53.5t26 -55t72 -21z" />
    <glyph glyph-name="threeeighths" unicode="&#x215c;" horiz-adv-x="883" 
d="M309 375q0 -62 -43 -99.5t-103 -37.5q-90 0 -140 84l33 24q43 -66 107 -66q43 0 70.5 26.5t27.5 68.5t-28 65t-79 23h-38v13l111 142h-177v42h248v-14l-112 -143q49 -4 86 -36.5t37 -91.5zM598 660h48l-380 -660h-47zM738 218q99 -36 99 -113q0 -50 -39.5 -80.5
t-105.5 -30.5q-65 0 -104 31t-39 81q0 77 99 112q-80 34 -80 103q0 47 35.5 74t88.5 27q55 0 90.5 -27t35.5 -75q0 -67 -80 -102zM611 318q0 -29 21 -47t61 -33q40 15 60.5 33t20.5 47q0 31 -23 48.5t-59 17.5q-35 0 -58 -17.5t-23 -48.5zM692 32q47 0 73.5 21t26.5 55
t-25.5 53.5t-73.5 36.5q-49 -17 -74 -36.5t-25 -53.5t26 -55t72 -21z" />
    <glyph glyph-name="fiveeighths" unicode="&#x215d;" horiz-adv-x="895" 
d="M322 377q0 -64 -43 -101.5t-104 -37.5q-91 0 -141 84l33 24q43 -66 108 -66q43 0 71 26.5t28 68.5t-28 65t-79 23h-93v197h212v-42h-168v-120q33 5 56 5q65 0 106.5 -32t41.5 -94zM610 660h48l-380 -660h-47zM750 218q99 -36 99 -113q0 -50 -39.5 -80.5t-105.5 -30.5
q-65 0 -104 31t-39 81q0 77 99 112q-80 34 -80 103q0 47 35.5 74t88.5 27q55 0 90.5 -27t35.5 -75q0 -67 -80 -102zM623 318q0 -29 21 -47t61 -33q40 15 60.5 33t20.5 47q0 31 -23 48.5t-59 17.5q-35 0 -58 -17.5t-23 -48.5zM704 32q47 0 73.5 21t26.5 55t-25.5 53.5
t-73.5 36.5q-49 -17 -74 -36.5t-25 -53.5t26 -55t72 -21z" />
    <glyph glyph-name="seveneighths" unicode="&#x215e;" horiz-adv-x="788" 
d="M301 660v-14l-211 -402h-50l198 374h-212v42h275zM503 660h48l-380 -660h-47zM643 218q99 -36 99 -113q0 -50 -39.5 -80.5t-105.5 -30.5q-65 0 -104 31t-39 81q0 77 99 112q-80 34 -80 103q0 47 35.5 74t88.5 27q55 0 90.5 -27t35.5 -75q0 -67 -80 -102zM516 318
q0 -29 21 -47t61 -33q40 15 60.5 33t20.5 47q0 31 -23 48.5t-59 17.5q-35 0 -58 -17.5t-23 -48.5zM597 32q47 0 73.5 21t26.5 55t-25.5 53.5t-73.5 36.5q-49 -17 -74 -36.5t-25 -53.5t26 -55t72 -21z" />
    <glyph glyph-name="arrowleft" unicode="&#x2190;" horiz-adv-x="650" 
d="M593 289h-447l202 -203l-30 -30l-249 249v14l249 249l30 -30l-203 -204h448v-45z" />
    <glyph glyph-name="arrowup" unicode="&#x2191;" horiz-adv-x="650" 
d="M579 310l-30 -31l-199 198v-420h-48v422l-200 -200l-31 31l247 247h14z" />
    <glyph glyph-name="arrowright" unicode="&#x2192;" horiz-adv-x="650" 
d="M332 568l250 -249v-14l-250 -249l-30 30l202 203h-447v45h448l-203 204z" />
    <glyph glyph-name="arrowdown" unicode="&#x2193;" horiz-adv-x="650" 
d="M549 345l30 -30l-247 -247h-14l-247 247l31 30l200 -200v423h48v-421z" />
    <glyph glyph-name="arrowboth" unicode="&#x2194;" horiz-adv-x="945" 
d="M627 568l250 -249v-14l-250 -249l-30 30l202 203h-653l202 -203l-30 -30l-249 249v14l249 249l30 -30l-203 -204h655l-203 204z" />
    <glyph glyph-name="arrowupdn" unicode="&#x2195;" horiz-adv-x="642" 
d="M346 25l194 194l31 -31l-243 -243h-14l-243 243l31 31l196 -196v614l-196 -196l-31 31l243 243h14l243 -243l-31 -31l-194 194v-610z" />
    <glyph glyph-name="uni2196" unicode="&#x2196;" horiz-adv-x="650" 
d="M266 395l280 -281l-33 -33l-332 332v-295h-46v366l10 10h364v-45h-298z" />
    <glyph glyph-name="uni2197" unicode="&#x2197;" horiz-adv-x="650" 
d="M505 494l10 -10v-366h-46v295l-332 -332l-33 33l280 281l55 54h-297v45h363z" />
    <glyph glyph-name="uni2198" unicode="&#x2198;" horiz-adv-x="650" 
d="M469 486h46v-365l-10 -10h-363v45h296l-334 335l33 33l332 -332v294z" />
    <glyph glyph-name="uni2199" unicode="&#x2199;" horiz-adv-x="650" 
d="M212 156h297v-45h-364l-10 10v365h46v-294l332 332l33 -33z" />
    <glyph glyph-name="partialdiff" unicode="&#x2202;" horiz-adv-x="562" 
d="M284 672q100 0 161.5 -76.5t61.5 -227.5q0 -166 -72.5 -273t-191.5 -107q-83 0 -140.5 52t-57.5 144q0 95 65 154.5t180 59.5q69 0 164 -20q-1 127 -48 187t-124 60q-91 0 -153 -81l-35 28q31 46 80 73t110 27zM246 34q90 0 145 83.5t62 216.5q-89 19 -161 19
q-98 0 -146 -48.5t-48 -118.5q0 -68 41.5 -110t106.5 -42z" />
    <glyph glyph-name="uni2206" unicode="&#x2206;" horiz-adv-x="664" 
d="M343 670l282 -670h-586l283 670h21zM332 573l-219 -526h438z" />
    <glyph glyph-name="product" unicode="&#x220f;" horiz-adv-x="687" 
d="M590 660v-781h-52v734h-388v-734h-52v781h492z" />
    <glyph glyph-name="summation" unicode="&#x2211;" horiz-adv-x="556" 
d="M139 -74h377v-47h-457v16l250 384l-250 365v16h445v-47h-363l221 -324v-17z" />
    <glyph glyph-name="minus" unicode="&#x2212;" 
d="M497 334v-45h-435v45h435z" />
    <glyph glyph-name="uni2219" unicode="&#x2219;" horiz-adv-x="270" 
d="M134 360q21 0 35.5 -13.5t14.5 -36.5q0 -21 -14.5 -34.5t-35.5 -13.5q-19 0 -33.5 13.5t-14.5 34.5q0 22 14 36t34 14z" />
    <glyph glyph-name="radical" unicode="&#x221a;" horiz-adv-x="732" 
d="M668 750h55l-513 -883h-21v355h-155v45h205v-255z" />
    <glyph glyph-name="infinity" unicode="&#x221e;" horiz-adv-x="797" 
d="M592 465q72 0 119 -44.5t47 -110.5t-46.5 -110t-117.5 -44q-60 0 -104.5 31t-91.5 88q-48 -57 -92 -88t-104 -31q-71 0 -117 44t-46 110t46.5 110.5t117.5 44.5q59 0 103.5 -30.5t91.5 -85.5q47 56 91 86t103 30zM206 204q46 0 81.5 27.5t79.5 80.5q-42 52 -78.5 79
t-81.5 27q-50 0 -83 -29.5t-33 -77.5q0 -49 32.5 -78t82.5 -29zM591 204q50 0 82 29t32 78q0 48 -32.5 77.5t-82.5 29.5q-45 0 -81 -27t-80 -79q29 -35 49 -55t50.5 -36.5t62.5 -16.5z" />
    <glyph glyph-name="integral" unicode="&#x222b;" horiz-adv-x="313" 
d="M250 786q27 0 57 -6v-43q-29 3 -48 3q-112 0 -111 -134q1 -54 35 -274.5t34 -285.5q0 -87 -42 -130t-112 -43q-27 0 -57 6v43q30 -3 49 -3q110 0 110 133q0 60 -35 279.5t-35 281.5q0 86 42.5 129.5t112.5 43.5z" />
    <glyph glyph-name="approxequal" unicode="&#x2248;" 
d="M154 490q37 0 84 -29l97 -59q42 -24 64 -24q20 0 31 13.5t11 33.5v21h44q2 -4 2 -24q0 -37 -23 -63.5t-61 -26.5q-37 0 -84 29l-97 58q-39 25 -64 25q-20 0 -31 -13.5t-11 -34.5v-20h-44v10q-1 9 -1 14q0 37 22.5 63.5t60.5 26.5zM154 285q37 0 84 -29l97 -59
q42 -24 64 -24q20 0 31 13.5t11 33.5v21h44q2 -4 2 -24q0 -37 -23 -63.5t-61 -26.5q-37 0 -84 29l-97 58q-39 25 -64 25q-20 0 -31 -13.5t-11 -34.5v-20h-44v9q-1 10 -1 15q0 37 22.5 63.5t60.5 26.5z" />
    <glyph glyph-name="notequal" unicode="&#x2260;" 
d="M488 390h-132l-101 -158h233v-45h-262l-74 -116h-51l74 116h-103v45h132l101 158h-233v46h263l73 114h51l-73 -114h102v-46z" />
    <glyph glyph-name="lessequal" unicode="&#x2264;" 
d="M484 512v-50l-329 -126l329 -126v-50l-426 168v16zM68 0v46h416v-46h-416z" />
    <glyph glyph-name="greaterequal" unicode="&#x2265;" 
d="M76 512l426 -168v-16l-426 -168v50l329 126l-329 126v50zM76 0v46h416v-46h-416z" />
    <glyph glyph-name="uni24EA" unicode="&#x24ea;" horiz-adv-x="978" 
d="M489 760q178 0 304 -126t126 -304t-126 -304t-304 -126q-179 0 -304.5 126t-125.5 304t125.5 304t304.5 126zM489 717q-161 0 -274 -112.5t-113 -274.5t113 -274.5t274 -112.5t274 113t113 274t-113 274t-274 113zM489 561q81 0 121.5 -62t40.5 -166q0 -103 -40 -169
t-122 -66q-81 0 -121 66t-40 169q0 104 40 166t121 62zM489 519q-114 0 -114 -186q0 -88 27.5 -140.5t86.5 -52.5t87 52.5t28 140.5q0 186 -115 186z" />
    <glyph glyph-name="uni24FF" unicode="&#x24ff;" horiz-adv-x="978" 
d="M489 760q178 0 304 -126t126 -304t-126 -304t-304 -126q-179 0 -304.5 126t-125.5 304t125.5 304t304.5 126zM489 561q-81 0 -121.5 -62t-40.5 -166q0 -103 40 -169t122 -66t122.5 66t40.5 169q0 104 -41 166t-122 62zM489 517q113 0 113 -184q0 -87 -27.5 -139
t-85.5 -52t-85 52t-27 139q0 184 112 184z" />
    <glyph glyph-name="filledbox" unicode="&#x25a0;" horiz-adv-x="730" 
d="M640 605v-550h-550v550h550z" />
    <glyph glyph-name="uni25A1" unicode="&#x25a1;" horiz-adv-x="730" 
d="M640 605v-550h-550v550h550zM589 558h-448v-456h448v456z" />
    <glyph glyph-name="uni25AA" unicode="&#x25aa;" horiz-adv-x="541" 
d="M461 432v-380h-381v380h381z" />
    <glyph glyph-name="uni25AB" unicode="&#x25ab;" horiz-adv-x="541" 
d="M461 432v-380h-381v380h381zM412 386h-283v-289h283v289z" />
    <glyph glyph-name="triagup" unicode="&#x25b2;" horiz-adv-x="730" 
d="M371 660l339 -594l-6 -11h-678l-6 11l339 594h12z" />
    <glyph glyph-name="uni25B3" unicode="&#x25b3;" horiz-adv-x="730" 
d="M371 660l339 -594l-6 -11h-678l-6 11l339 594h12zM631 105l-266 466l-266 -466h532z" />
    <glyph glyph-name="uni25B4" unicode="&#x25b4;" horiz-adv-x="528" 
d="M270 471l233 -408l-5 -11h-468l-5 11l233 408h12z" />
    <glyph glyph-name="uni25B5" unicode="&#x25b5;" horiz-adv-x="528" 
d="M270 471l233 -408l-5 -11h-468l-5 11l233 408h12zM430 96l-166 290l-167 -290h333z" />
    <glyph glyph-name="uni25B6" unicode="&#x25b6;" horiz-adv-x="645" 
d="M101 670l521 -334v-12l-521 -334l-11 5v670z" />
    <glyph glyph-name="uni25B7" unicode="&#x25b7;" horiz-adv-x="645" 
d="M101 670l521 -334v-12l-521 -334l-11 5v670zM540 330l-399 256v-512z" />
    <glyph glyph-name="uni25B8" unicode="&#x25b8;" horiz-adv-x="480" 
d="M91 478l358 -230v-12l-358 -229l-11 5v460z" />
    <glyph glyph-name="uni25B9" unicode="&#x25b9;" horiz-adv-x="480" 
d="M91 478l358 -230v-12l-358 -229l-11 5v460zM373 242l-245 157v-314z" />
    <glyph glyph-name="triagrt" unicode="&#x25ba;" horiz-adv-x="961" 
d="M101 670l830 -334v-12l-830 -334l-11 5v670z" />
    <glyph glyph-name="uni25BB" unicode="&#x25bb;" horiz-adv-x="961" 
d="M101 670l830 -334v-12l-830 -334l-11 5v670zM815 330l-674 271v-542z" />
    <glyph glyph-name="triagdn" unicode="&#x25bc;" horiz-adv-x="730" 
d="M371 0h-12l-339 594l6 11h678l6 -11z" />
    <glyph glyph-name="uni25BD" unicode="&#x25bd;" horiz-adv-x="730" 
d="M704 605l6 -11l-339 -594h-12l-339 594l6 11h678zM631 555h-532l266 -466z" />
    <glyph glyph-name="uni25BE" unicode="&#x25be;" horiz-adv-x="528" 
d="M498 432l5 -12l-233 -407h-12l-233 407l5 12h468z" />
    <glyph glyph-name="uni25BF" unicode="&#x25bf;" horiz-adv-x="528" 
d="M498 432l5 -12l-233 -407h-12l-233 407l5 12h468zM430 387h-332l166 -289z" />
    <glyph glyph-name="uni25C0" unicode="&#x25c0;" horiz-adv-x="645" 
d="M544 670l11 -5v-670l-11 -5l-521 334v12z" />
    <glyph glyph-name="uni25C1" unicode="&#x25c1;" horiz-adv-x="682" 
d="M581 670l11 -5v-670l-11 -5l-521 334v12zM541 74v512l-399 -256z" />
    <glyph glyph-name="uni25C2" unicode="&#x25c2;" horiz-adv-x="480" 
d="M389 478l11 -6v-460l-11 -5l-358 229v12z" />
    <glyph glyph-name="uni25C3" unicode="&#x25c3;" horiz-adv-x="480" 
d="M389 478l11 -6v-460l-11 -5l-358 229v12zM352 399l-245 -157l245 -157v314z" />
    <glyph glyph-name="triaglf" unicode="&#x25c4;" horiz-adv-x="961" 
d="M860 670l11 -5v-670l-11 -5l-830 334v12z" />
    <glyph glyph-name="uni25C5" unicode="&#x25c5;" horiz-adv-x="961" 
d="M860 670l11 -5v-670l-11 -5l-830 334v12zM820 59v542l-674 -271z" />
    <glyph glyph-name="lozenge" unicode="&#x25ca;" horiz-adv-x="665" 
d="M343 670l213 -340l-213 -340h-21l-213 341l213 339h21zM333 66l166 264l-167 265l-166 -264z" />
    <glyph glyph-name="circle" unicode="&#x25cb;" horiz-adv-x="775" 
d="M387 658q136 0 232 -96.5t96 -232.5t-96 -231.5t-232 -95.5t-231.5 95.5t-95.5 231.5t95.5 232.5t231.5 96.5zM387 610q-115 0 -196 -82.5t-81 -198.5t81 -197t196 -81q116 0 197 81t81 197q0 117 -81 199t-197 82z" />
    <glyph glyph-name="uni25CF" unicode="&#x25cf;" horiz-adv-x="775" 
d="M387 658q136 0 232 -96.5t96 -232.5t-96 -231.5t-232 -95.5t-231.5 95.5t-95.5 231.5t95.5 232.5t231.5 96.5z" />
    <glyph glyph-name="uni261C" unicode="&#x261c;" horiz-adv-x="1213" 
d="M1171 273v-18l-85 -73l46 -170l-18 -13l-221 140q-87 -47 -187.5 -76t-166.5 -29q-96 0 -96 65q0 25 15 38q-21 6 -34 21.5t-13 36.5q0 28 24 44q-36 17 -36 53q0 23 18 38l-196 10q-90 5 -127 22.5t-37 58.5q0 44 41.5 59.5t143.5 15.5q82 0 192 -10v1q0 40 21 61.5
t53 21.5t61 -18l234 -138q38 -10 87 -28l224 142l18 -11l-46 -171zM480 482v-2q80 -9 183 -30l-114 67q-22 11 -33 11q-36 0 -36 -46zM485 106q0 -31 54 -31q58 0 159.5 29.5t181.5 75.5v167q-130 48 -309.5 78t-338.5 30q-76 0 -102.5 -7t-26.5 -27t24 -28.5t92 -12.5
l153 -9q138 -7 191 -10v-38l-89 3q-14 1 -23 -6.5t-9 -20.5t7.5 -21.5t20.5 -8.5h104v-38h-92q-12 0 -20 -8t-8 -21q0 -12 7.5 -20.5t20.5 -8.5h103v-38q-14 -1 -53 -1h-19q-12 0 -20 -8t-8 -20zM924 359v-190l147 -91l-33 120l79 66l-79 65l34 123z" />
    <glyph glyph-name="uni261E" unicode="&#x261e;" horiz-adv-x="1213" 
d="M986 496q102 0 143.5 -15.5t41.5 -59.5q0 -41 -37 -58.5t-127 -22.5l-196 -10q18 -15 18 -38q0 -36 -36 -53q24 -16 24 -44q0 -21 -13 -36.5t-34 -21.5q15 -13 15 -38q0 -65 -96 -65q-67 0 -167.5 29.5t-186.5 76.5l-221 -141l-18 13l46 170l-85 73v18l85 73l-46 171
l18 11l225 -142q46 18 86 28l234 138q30 18 61 18q32 0 53 -21.5t21 -61.5v-1q110 10 192 10zM679 517l-115 -68q99 21 184 31v2q0 46 -36 46q-11 0 -33 -11zM1009 380q68 4 92 12.5t24 28.5t-26.5 27t-102.5 7q-159 0 -338.5 -30t-309.5 -78v-167q80 -46 181.5 -75.5
t159.5 -29.5q54 0 54 31q0 12 -8 20t-20 8h-19q-39 0 -53 1v38h103q13 0 21 8.5t8 20.5q0 13 -8.5 21t-20.5 8h-91v38h103q13 0 21 8.5t8 21.5t-9.5 20.5t-23.5 6.5l-89 -3v38q53 3 191 10zM305 169v190l-149 93l34 -123l-79 -65l79 -66l-33 -120z" />
    <glyph glyph-name="uni2661" unicode="&#x2661;" horiz-adv-x="860" 
d="M613 670q81 0 137 -54.5t56 -141.5q0 -50 -24.5 -95t-83.5 -109l-262 -280h-12l-262 280q-60 63 -84 108t-24 96q0 87 56 141.5t137 54.5q64 0 112.5 -35.5t70.5 -92.5q22 57 70.5 92.5t112.5 35.5zM657 301q51 55 73 94.5t22 81.5q0 63 -41 103.5t-101 40.5
q-111 0 -169 -158h-22q-58 158 -170 158q-60 0 -100.5 -40t-40.5 -104q0 -43 22 -82.5t73 -93.5l227 -245z" />
    <glyph glyph-name="heart" unicode="&#x2665;" horiz-adv-x="860" 
d="M613 670q81 0 137 -54.5t56 -141.5q0 -50 -24.5 -95t-83.5 -109l-262 -280h-12l-262 280q-60 63 -84 108t-24 96q0 87 56 141.5t137 54.5q64 0 112.5 -35.5t70.5 -92.5q22 57 70.5 92.5t112.5 35.5z" />
    <glyph glyph-name="uni275B" unicode="&#x275b;" horiz-adv-x="665" 
d="M393 426q90 0 154 -64t64 -154q0 -88 -62 -153t-170 -65q-134 0 -230 99.5t-96 240.5t97 240.5t243 99.5q117 0 205 -69l-23 -36q-77 61 -179 61q-127 0 -210.5 -85.5t-83.5 -211.5q0 -71 28 -132t78 -103q-33 52 -33 114q0 90 64 154t154 64z" />
    <glyph glyph-name="uni275C" unicode="&#x275c;" horiz-adv-x="665" 
d="M285 670q134 0 230 -99.5t96 -240.5q0 -142 -97 -241t-243 -99q-116 0 -205 69l23 36q77 -61 180 -61q127 0 210.5 85.5t83.5 211.5q0 70 -28.5 131.5t-78.5 103.5q33 -52 33 -114q0 -90 -64 -154t-154 -64t-154 64t-64 154q0 88 62.5 153t169.5 65z" />
    <glyph glyph-name="uni275D" unicode="&#x275d;" horiz-adv-x="1285" 
d="M393 426q90 0 154 -64t64 -154q0 -88 -62 -153t-170 -65q-134 0 -230 99.5t-96 240.5t97 240.5t243 99.5q117 0 205 -69l-23 -36q-77 61 -179 61q-127 0 -210.5 -85.5t-83.5 -211.5q0 -71 28 -132t78 -103q-33 52 -33 114q0 90 64 154t154 64zM1013 426q90 0 154 -64
t64 -154q0 -88 -62 -153t-170 -65q-134 0 -230 99.5t-96 240.5t97 240.5t243 99.5q117 0 205 -69l-23 -36q-77 61 -179 61q-127 0 -210.5 -85.5t-83.5 -211.5q0 -71 28 -132t78 -103q-33 52 -33 114q0 90 64 154t154 64z" />
    <glyph glyph-name="uni275E" unicode="&#x275e;" horiz-adv-x="1290" 
d="M285 670q134 0 230 -99.5t96 -240.5q0 -142 -97 -241t-243 -99q-116 0 -205 69l23 36q77 -61 180 -61q127 0 210.5 85.5t83.5 211.5q0 70 -28.5 131.5t-78.5 103.5q33 -52 33 -114q0 -90 -64 -154t-154 -64t-154 64t-64 154q0 88 62.5 153t169.5 65zM911 670
q134 0 230 -99.5t96 -240.5q0 -142 -97 -241t-243 -99q-116 0 -205 69l23 36q77 -61 180 -61q127 0 210.5 85.5t83.5 211.5q0 70 -28.5 131.5t-78.5 103.5q33 -52 33 -114q0 -90 -64 -154t-154 -64t-154 64t-64 154q0 88 62.5 153t169.5 65z" />
    <glyph glyph-name="uni2776" unicode="&#x2776;" horiz-adv-x="978" 
d="M489 760q178 0 304 -126t126 -304t-126 -304t-304 -126q-179 0 -304.5 126t-125.5 304t125.5 304t304.5 126zM517 554h-146v-42h98v-365h-105v-42h250v42h-97v407z" />
    <glyph glyph-name="uni2777" unicode="&#x2777;" horiz-adv-x="978" 
d="M489 760q178 0 304 -126t126 -304t-126 -304t-304 -126q-179 0 -304.5 126t-125.5 304t125.5 304t304.5 126zM484 561q-65 0 -106 -40.5t-41 -96.5q0 -23 5 -46h44q-5 33 -5 42q0 41 27.5 69t73.5 28q44 0 68.5 -25.5t24.5 -64.5q0 -37 -20 -68.5t-59 -71.5l-161 -169
v-13h311v42h-226l114 117q45 45 68 82t23 82q0 58 -39 95.5t-102 37.5z" />
    <glyph glyph-name="uni2778" unicode="&#x2778;" horiz-adv-x="978" 
d="M489 760q178 0 304 -126t126 -304t-126 -304t-304 -126q-179 0 -304.5 126t-125.5 304t125.5 304t304.5 126zM622 554h-268v-43h193l-124 -155v-14h43q56 0 86.5 -25.5t30.5 -70.5q0 -46 -30.5 -75t-77.5 -29q-68 0 -116 72l-35 -25q54 -91 151 -91q65 0 112 40.5
t47 107.5q0 63 -40.5 98t-96.5 38l125 157v15z" />
    <glyph glyph-name="uni2779" unicode="&#x2779;" horiz-adv-x="978" 
d="M489 760q178 0 304 -126t126 -304t-126 -304t-304 -126q-179 0 -304.5 126t-125.5 304t125.5 304t304.5 126zM505 554h-50l-146 -350v-15h226v-84h48v84h66v43h-66v151h-48v-151h-166z" />
    <glyph glyph-name="uni277A" unicode="&#x277a;" horiz-adv-x="978" 
d="M489 760q178 0 304 -126t126 -304t-126 -304t-304 -126q-179 0 -304.5 126t-125.5 304t125.5 304t304.5 126zM605 554h-229v-212h100q56 0 87 -25t31 -71t-30.5 -75.5t-77.5 -29.5q-70 0 -119 73l-35 -25q55 -92 155 -92q64 0 110.5 41t46.5 109q0 67 -44.5 102.5
t-109.5 35.5q-24 0 -68 -4v130h183v43z" />
    <glyph glyph-name="uni277B" unicode="&#x277b;" horiz-adv-x="978" 
d="M489 760q178 0 304 -126t126 -304t-126 -304t-304 -126q-179 0 -304.5 126t-125.5 304t125.5 304t304.5 126zM559 554h-58l-112 -163q-46 -68 -55 -96q-7 -24 -7 -48q0 -63 44.5 -106t107.5 -43t107.5 43t44.5 106q0 58 -39 99t-96 44q-33 3 -58 -11zM479 352
q43 0 73 -30.5t30 -74.5t-30 -74.5t-73 -30.5q-44 0 -73.5 30t-29.5 75q0 44 29.5 74.5t73.5 30.5z" />
    <glyph glyph-name="uni277C" unicode="&#x277c;" horiz-adv-x="978" 
d="M489 760q178 0 304 -126t126 -304t-126 -304t-304 -126q-179 0 -304.5 126t-125.5 304t125.5 304t304.5 126zM650 555h-299v-44h234l-218 -405h53l230 435v14z" />
    <glyph glyph-name="uni277D" unicode="&#x277d;" horiz-adv-x="978" 
d="M489 760q178 0 304 -126t126 -304t-126 -304t-304 -126q-179 0 -304.5 126t-125.5 304t125.5 304t304.5 126zM490 561q-59 0 -97.5 -29t-38.5 -81q0 -73 89 -111q-110 -37 -110 -120q0 -54 43 -88t114 -34q70 0 113 33.5t43 87.5q0 80 -109 122q87 37 87 109
q0 52 -38.5 81.5t-95.5 29.5zM490 520q38 0 62 -19.5t24 -52.5q0 -31 -22 -50.5t-65 -35.5q-43 16 -65 35.5t-22 50.5q0 33 24.5 52.5t63.5 19.5zM489 320q36 -13 55.5 -22.5t36 -29.5t16.5 -47q0 -37 -28.5 -59.5t-78.5 -22.5q-51 0 -79.5 22.5t-28.5 59.5q0 39 26.5 59.5
t80.5 39.5z" />
    <glyph glyph-name="uni277E" unicode="&#x277e;" horiz-adv-x="978" 
d="M489 760q179 0 304.5 -126t125.5 -304t-125.5 -304t-304.5 -126q-178 0 -304 126t-126 304t126 304t304 126zM499 562q-63 0 -107.5 -43t-44.5 -106q0 -58 38.5 -99t95.5 -44q33 -3 59 11l-121 -175h57l112 163q24 35 34 51t19 41.5t9 51.5q0 63 -44 106t-107 43z
M499 518q44 0 73 -30t29 -75q0 -44 -29.5 -74t-72.5 -30q-44 0 -73.5 30t-29.5 74t30 74.5t73 30.5z" />
    <glyph glyph-name="uni2780" unicode="&#x2780;" horiz-adv-x="978" 
d="M489 760q178 0 304 -126t126 -304t-126 -304t-304 -126q-179 0 -304.5 126t-125.5 304t125.5 304t304.5 126zM489 715q-160 0 -272.5 -112t-112.5 -273t112.5 -273t272.5 -112t272 112.5t112 272.5t-112 272.5t-272 112.5zM517 554v-407h97v-42h-250v42h105v365h-98v42
h146z" />
    <glyph glyph-name="uni2781" unicode="&#x2781;" horiz-adv-x="978" 
d="M489 760q178 0 304 -126t126 -304t-126 -304t-304 -126q-179 0 -304.5 126t-125.5 304t125.5 304t304.5 126zM489 715q-160 0 -272.5 -112t-112.5 -273t112.5 -273t272.5 -112t272 112.5t112 272.5t-112 272.5t-272 112.5zM484 561q63 0 102 -37.5t39 -95.5
q0 -31 -14.5 -62t-31 -51t-45.5 -51l-114 -117h226v-42h-311v13l161 169q39 40 59 71.5t20 68.5q0 39 -24.5 64.5t-68.5 25.5q-46 0 -73.5 -28t-27.5 -69q0 -10 5 -42h-44q-5 23 -5 46q0 56 41 96.5t106 40.5z" />
    <glyph glyph-name="uni2782" unicode="&#x2782;" horiz-adv-x="978" 
d="M489 760q178 0 304 -126t126 -304t-126 -304t-304 -126q-179 0 -304.5 126t-125.5 304t125.5 304t304.5 126zM489 715q-160 0 -272.5 -112t-112.5 -273t112.5 -273t272.5 -112t272 112.5t112 272.5t-112 272.5t-272 112.5zM622 554v-15l-125 -157q56 -3 96.5 -38
t40.5 -98q0 -67 -47 -107.5t-112 -40.5q-97 0 -151 91l35 25q48 -72 116 -72q47 0 77.5 29t30.5 75q0 45 -30.5 70.5t-86.5 25.5h-43v14l124 155h-193v43h268z" />
    <glyph glyph-name="uni2783" unicode="&#x2783;" horiz-adv-x="978" 
d="M489 760q178 0 304 -126t126 -304t-126 -304t-304 -126q-179 0 -304.5 126t-125.5 304t125.5 304t304.5 126zM489 715q-160 0 -272.5 -112t-112.5 -273t112.5 -273t272.5 -112t272 112.5t112 272.5t-112 272.5t-272 112.5zM505 554l-136 -322h166v151h48v-151h66v-43h-66
v-84h-48v84h-226v15l146 350h50z" />
    <glyph glyph-name="uni2784" unicode="&#x2784;" horiz-adv-x="978" 
d="M489 760q178 0 304 -126t126 -304t-126 -304t-304 -126q-179 0 -304.5 126t-125.5 304t125.5 304t304.5 126zM489 715q-160 0 -272.5 -112t-112.5 -273t112.5 -273t272.5 -112t272 112.5t112 272.5t-112 272.5t-272 112.5zM605 554v-43h-182v-130q44 4 67 4
q65 0 110 -35.5t45 -102.5q0 -68 -46.5 -109t-111.5 -41q-100 0 -155 92l35 25q51 -73 119 -73q47 0 77.5 29.5t30.5 75.5t-30.5 71t-86.5 25h-101v212h229z" />
    <glyph glyph-name="uni2785" unicode="&#x2785;" horiz-adv-x="978" 
d="M489 760q178 0 304 -126t126 -304t-126 -304t-304 -126q-179 0 -304.5 126t-125.5 304t125.5 304t304.5 126zM489 715q-160 0 -272.5 -112t-112.5 -273t112.5 -273t272.5 -112t272 112.5t112 272.5t-112 272.5t-272 112.5zM559 554l-121 -175q25 14 58 11q57 -3 96 -44
t39 -99q0 -63 -44.5 -106t-107.5 -43t-107.5 43t-44.5 106q0 35 13 63t42 71q2 2 2.5 3t2 3t2.5 4l112 163h58zM479 352q-44 0 -73.5 -30.5t-29.5 -74.5q0 -45 29.5 -75t73.5 -30q43 0 73 30.5t30 74.5t-30 74.5t-73 30.5z" />
    <glyph glyph-name="uni2786" unicode="&#x2786;" horiz-adv-x="978" 
d="M489 760q178 0 304 -126t126 -304t-126 -304t-304 -126q-179 0 -304.5 126t-125.5 304t125.5 304t304.5 126zM489 715q-160 0 -272.5 -112t-112.5 -273t112.5 -273t272.5 -112t272 112.5t112 272.5t-112 272.5t-272 112.5zM649 555v-14l-230 -435h-52l218 405h-234v44
h298z" />
    <glyph glyph-name="uni2787" unicode="&#x2787;" horiz-adv-x="978" 
d="M489 760q178 0 304 -126t126 -304t-126 -304t-304 -126q-179 0 -304.5 126t-125.5 304t125.5 304t304.5 126zM489 715q-160 0 -272.5 -112t-112.5 -273t112.5 -273t272.5 -112t272 112.5t112 272.5t-112 272.5t-272 112.5zM490 561q57 0 95.5 -29.5t38.5 -81.5
q0 -72 -87 -109q109 -42 109 -122q0 -54 -43 -87.5t-113 -33.5q-71 0 -114 34t-43 88q0 83 110 120q-89 38 -89 111q0 52 38.5 81t97.5 29zM490 520q-39 0 -63.5 -19.5t-24.5 -52.5q0 -31 22 -50.5t65 -35.5q43 16 65 35.5t22 50.5q0 33 -24 52.5t-62 19.5zM489 320
q-53 -18 -80 -39t-27 -60q0 -37 28.5 -59.5t79.5 -22.5q50 0 78.5 22.5t28.5 59.5q0 39 -27.5 60t-80.5 39z" />
    <glyph glyph-name="uni2788" unicode="&#x2788;" horiz-adv-x="978" 
d="M489 760q179 0 304.5 -126t125.5 -304t-125.5 -304t-304.5 -126q-178 0 -304 126t-126 304t126 304t304 126zM489 715q-160 0 -272.5 -112.5t-112.5 -272.5t112.5 -272.5t272.5 -112.5t272 112t112 273t-112 273t-272 112zM499 562q63 0 107 -43t44 -106q0 -26 -9 -51.5
t-19 -41.5t-34 -51l-112 -163h-57l121 175q-26 -14 -59 -11q-57 3 -95.5 44t-38.5 99q0 63 44.5 106t107.5 43zM499 518q-43 0 -73 -30.5t-30 -74.5t29.5 -74t73.5 -30q43 0 72.5 30t29.5 74q0 45 -29 75t-73 30z" />
    <glyph glyph-name="uni27F5" unicode="&#x27f5;" horiz-adv-x="1216" 
d="M1171 289h-1017l203 -203l-31 -30l-249 249v14l249 249l31 -30l-204 -204h1018v-45z" />
    <glyph glyph-name="uni27F6" unicode="&#x27f6;" horiz-adv-x="1216" 
d="M890 568l249 -249v-14l-249 -249l-31 30l203 203h-1017v45h1018l-204 204z" />
    <glyph glyph-name="uniF8FF" unicode="&#xf8ff;" horiz-adv-x="722" 
d="M99 0v660h524v-660h-524zM458 123q36 0 58 22.5t22 53.5q0 27 -17 55.5t-45 45.5l-24 -25q45 -43 45 -76q0 -17 -10 -28t-27 -11q-23 0 -43 27t-54 103q82 47 110.5 77.5t28.5 62.5q0 39 -27.5 60.5t-74.5 21.5q-11 0 -33 -2l26 55l-41 7l-33 -71q-46 -9 -103 -36
q-23 -64 -23 -161q0 -80 20 -158l42 -8q23 116 43 186.5t52 147.5q20 4 41 4q70 0 70 -50q0 -24 -26.5 -48t-113.5 -74l-1 -6q39 -99 67 -137t71 -38zM231 202q-2 35 -2 81q0 88 23 157q24 13 51 20q-51 -130 -65 -258h-7z" />
    <glyph glyph-name="Iacute_J.loclNLD" horiz-adv-x="613" 
d="M256 910v-9l-113 -177h-40l91 186h62zM616 910v-9l-113 -177h-40l91 186h62zM150 660v-660h-52v660h52zM516 660v-517q0 -78 -43.5 -115.5t-116.5 -37.5q-39 0 -82 10v46q38 -7 75 -7q55 0 85 23t30 84v514h52z" />
    <glyph glyph-name="Cacute.loclPLK" horiz-adv-x="712" 
d="M372 724l51 186h62v-9l-73 -177h-40zM391 670q83 0 153 -36t114 -98l-39 -31q-83 117 -227 117q-121 0 -202.5 -83.5t-81.5 -207.5q0 -125 81 -208.5t203 -83.5q145 0 227 116l39 -31q-44 -62 -114 -98t-153 -36q-142 0 -240 98t-98 242t98 242t240 98z" />
    <glyph glyph-name="Nacute.loclPLK" horiz-adv-x="706" 
d="M446 901l-73 -177h-40l51 186h62v-9zM556 660h52v-670h-21l-437 559v-549h-52v670h20l438 -563v553z" />
    <glyph glyph-name="Oacute.loclPLK" horiz-adv-x="783" 
d="M372 724l51 186h62v-9l-73 -177h-40zM391 670q141 0 240 -98t99 -242q0 -143 -99 -241.5t-240 -98.5q-142 0 -240 98.5t-98 241.5q0 144 98 242t240 98zM392 622q-122 0 -203 -83.5t-81 -207.5t81 -208t203 -84q121 0 202 84t81 208q0 123 -81.5 207t-201.5 84z" />
    <glyph glyph-name="Sacute.loclPLK" horiz-adv-x="556" 
d="M263 724l51 186h62v-9l-73 -177h-40zM283 670q63 0 114.5 -28.5t83.5 -76.5l-38 -29q-60 86 -160 86q-56 0 -97 -28t-41 -84q0 -25 8 -44.5t26.5 -34.5t35 -24.5t47.5 -24.5l74 -36q79 -38 115.5 -77.5t36.5 -103.5q0 -78 -58.5 -126.5t-146.5 -48.5q-75 0 -136.5 37.5
t-100.5 102.5l39 29q76 -120 199 -120q66 0 108 33.5t42 91.5q0 49 -28 76.5t-94 59.5l-75 36q-70 33 -108 70t-38 101q0 75 55.5 119t136.5 44z" />
    <glyph glyph-name="Zacute.loclPLK" horiz-adv-x="590" 
d="M392 901l-73 -177h-40l51 186h62v-9zM118 47h434v-47h-514v17l432 596h-389v47h470v-17z" />
    <glyph glyph-name="Idotaccent.loclTRK" horiz-adv-x="247" 
d="M124 851q19 0 31.5 -12.5t12.5 -30.5q0 -19 -12.5 -31.5t-31.5 -12.5q-18 0 -31 12.5t-13 31.5q0 18 13 30.5t31 12.5zM150 660v-660h-52v660h52z" />
    <glyph glyph-name="A.ordn" horiz-adv-x="437" 
d="M357 244l-36 88h-206l-34 -88h-51l180 422h17l180 -422h-50zM305 371l-87 211l-87 -211h174z" />
    <glyph glyph-name="C.ordn" horiz-adv-x="465" 
d="M253 666q55 0 100 -23.5t73 -66.5l-36 -25q-50 71 -136 71q-71 0 -118.5 -48.5t-47.5 -121.5t47.5 -122t118.5 -49q85 0 136 72l36 -25q-28 -43 -73 -66.5t-100 -23.5q-90 0 -151.5 61.5t-61.5 152.5t61.5 152.5t151.5 61.5z" />
    <glyph glyph-name="D.ordn" horiz-adv-x="461" 
d="M195 660q105 0 165.5 -57.5t60.5 -149.5q0 -91 -61 -150t-165 -59h-122v416h122zM195 617h-75v-330h75q83 0 130 46.5t47 119.5t-47 118.5t-130 45.5z" />
    <glyph glyph-name="E.ordn" horiz-adv-x="375" 
d="M337 660v-43h-217v-129h173v-40h-173v-161h224v-43h-271v416h264z" />
    <glyph glyph-name="Egrave.ordn" horiz-adv-x="375" 
d="M186 817l55 -117h-34l-75 110v7h54zM337 660v-43h-217v-129h173v-40h-173v-161h224v-43h-271v416h264z" />
    <glyph glyph-name="G.ordn" horiz-adv-x="488" 
d="M256 666q107 0 168 -84l-34 -28q-50 68 -135 68q-73 0 -120 -48t-47 -122q0 -73 48 -122.5t121 -49.5q94 0 140 74v59h-143v40h190v-108q-28 -49 -78.5 -78t-111.5 -29q-90 0 -152 61.5t-62 152.5t62.5 152.5t153.5 61.5z" />
    <glyph glyph-name="H.ordn" horiz-adv-x="475" 
d="M403 660v-416h-48v202h-235v-202h-47v416h47v-171h235v171h48z" />
    <glyph glyph-name="I.ordn" horiz-adv-x="192" 
d="M119 660v-416h-46v416h46z" />
    <glyph glyph-name="L.ordn" horiz-adv-x="332" 
d="M120 660v-373h205v-43h-252v416h47z" />
    <glyph glyph-name="M.ordn" horiz-adv-x="525" 
d="M435 666h17v-422h-46v305l-134 -187h-18l-134 186v-304h-47v422h18l172 -241z" />
    <glyph glyph-name="N.ordn" horiz-adv-x="475" 
d="M355 660h48v-422h-18l-265 321v-315h-47v422h18l264 -322v316z" />
    <glyph glyph-name="O.ordn" horiz-adv-x="509" 
d="M254 666q89 0 152 -61.5t63 -152.5q0 -90 -63 -152t-152 -62q-90 0 -152 61.5t-62 152.5t62 152.5t152 61.5zM255 622q-73 0 -120 -48t-47 -122q0 -73 47.5 -121.5t119.5 -48.5q71 0 118.5 48.5t47.5 121.5t-47.5 121.5t-118.5 48.5z" />
    <glyph glyph-name="R.ordn" horiz-adv-x="409" 
d="M394 244h-54l-130 176h-90v-176h-47v416h145q60 0 95.5 -33.5t35.5 -86.5q0 -42 -23.5 -73t-64.5 -42zM120 618v-156h97q40 0 62 21.5t22 55.5q0 35 -22 57t-62 22h-97z" />
    <glyph glyph-name="S.ordn" horiz-adv-x="361" 
d="M178 666q85 0 127 -69l-33 -26q-39 51 -93 51q-32 0 -54.5 -14.5t-22.5 -46.5q0 -27 16.5 -43t47.5 -29l48 -21q98 -40 98 -117q0 -51 -37.5 -82t-95.5 -31q-101 0 -152 89l34 26q47 -72 119 -72q36 0 59.5 19t23.5 51q0 49 -70 77l-46 20q-94 39 -94 113q0 49 35.5 77
t89.5 28z" />
    <glyph glyph-name="T.ordn" horiz-adv-x="381" 
d="M361 660v-43h-147v-373h-47v373h-147v43h341z" />
    <glyph glyph-name="U.ordn" horiz-adv-x="458" 
d="M392 660v-252q0 -77 -46 -123.5t-117 -46.5t-117 46.5t-46 123.5v252h47v-255q0 -57 33 -90.5t83 -33.5t83 33.5t33 90.5v255h47z" />
    <glyph glyph-name="Uacute.ordn" horiz-adv-x="458" 
d="M319 817v-7l-75 -110h-33l55 117h53zM392 660v-252q0 -77 -46 -123.5t-117 -46.5t-117 46.5t-46 123.5v252h47v-255q0 -57 33 -90.5t83 -33.5t83 33.5t33 90.5v255h47z" />
    <glyph glyph-name="Y.ordn" horiz-adv-x="402" 
d="M367 660l-142 -243v-173h-47v171l-143 245h52l114 -196l115 196h51z" />
    <glyph glyph-name="Z.ordn" horiz-adv-x="384" 
d="M355 660v-14l-253 -359h253v-43h-327v14l253 359h-225v43h299z" />
    <glyph glyph-name="iacute_j.loclNLD" horiz-adv-x="472" 
d="M220 780v-9l-83 -207h-40l61 216h62zM456 780v-9l-83 -207h-40l61 216h62zM143 483v-483h-50v483h50zM379 483v-528q0 -75 -39.5 -110t-106.5 -35q-29 0 -55 6v44q23 -4 46 -4q105 0 105 101v526h50z" />
    <glyph glyph-name="cacute.loclPLK" horiz-adv-x="552" 
d="M284 564l51 216h62v-9l-73 -207h-40zM306 493q122 0 195 -99l-36 -29q-62 81 -159 81q-84 0 -141 -59t-57 -145q0 -87 56.5 -146t140.5 -59q97 0 160 81l36 -29q-73 -99 -196 -99q-104 0 -176.5 73.5t-72.5 178.5t72.5 178t177.5 73z" />
    <glyph glyph-name="nacute.loclPLK" horiz-adv-x="558" 
d="M376 771l-73 -207h-40l51 216h62v-9zM295 493q83 0 130 -52t47 -136v-305h-50v302q0 64 -36.5 104t-98.5 40q-63 0 -103.5 -41t-40.5 -103v-302h-50v483h48v-65q53 75 154 75z" />
    <glyph glyph-name="oacute.loclPLK" horiz-adv-x="612" 
d="M285 564l51 216h62v-9l-73 -207h-40zM306 493q104 0 177 -72.5t73 -178.5t-73 -179t-178 -73q-104 0 -176.5 73t-72.5 179t72.5 178.5t177.5 72.5zM306 446q-85 0 -141.5 -59t-56.5 -146t56.5 -145.5t140.5 -58.5t141.5 59t57.5 145q0 87 -57 146t-141 59z" />
    <glyph glyph-name="sacute.loclPLK" horiz-adv-x="455" 
d="M210 564l51 216h62v-9l-73 -207h-40zM232 493q96 0 156 -77l-33 -32q-55 62 -126 62q-42 0 -70 -19.5t-28 -56.5q0 -31 21 -48.5t70 -38.5l45 -20q62 -27 93.5 -58t31.5 -81q0 -64 -47 -99t-114 -35q-115 0 -185 100l35 33q67 -86 150 -86q46 0 77.5 22t31.5 63
q0 19 -6.5 33.5t-24 26.5t-29.5 18.5t-39 18.5l-44 19q-58 25 -88.5 53.5t-30.5 75.5q0 58 45 92t109 34z" />
    <glyph glyph-name="zacute.loclPLK" horiz-adv-x="450" 
d="M327 771l-73 -207h-40l51 216h62v-9zM110 46h308v-46h-385v17l303 420h-280v46h357v-17z" />
    <glyph glyph-name="i.loclTRK.loclTRK" horiz-adv-x="236" 
d="M118 713q19 0 31.5 -13t12.5 -31t-12.5 -31t-31.5 -13q-18 0 -31 13t-13 31t13 31t31 13zM143 483v-483h-50v483h50z" />
    <glyph glyph-name="c.ordn" horiz-adv-x="371" 
d="M205 557q83 0 127 -67l-32 -25q-37 50 -95 50q-48 0 -80.5 -34t-32.5 -84t32.5 -84t80.5 -34q58 0 95 50l32 -25q-43 -66 -127 -66q-66 0 -112.5 46t-46.5 113t46.5 113.5t112.5 46.5z" />
    <glyph glyph-name="d.ordn" horiz-adv-x="427" 
d="M312 717h46v-473h-44v54q-38 -60 -118 -60q-64 0 -107 46t-43 113q0 68 43 114t107 46q77 0 116 -58v218zM204 279q44 0 76 30t32 88t-31.5 88t-76.5 30q-48 0 -80 -33.5t-32 -84.5q0 -50 32.5 -84t79.5 -34z" />
    <glyph glyph-name="e.ordn" horiz-adv-x="388" 
d="M341 419q0 -27 -4 -35h-245q4 -47 36 -76t78 -29q55 0 98 46l26 -31q-51 -56 -124 -56q-68 0 -114 46t-46 113q0 68 45 114t111 46q59 0 99 -38.5t40 -99.5zM200 516q-40 0 -69.5 -26t-37.5 -68h203q0 43 -28 68.5t-68 25.5z" />
    <glyph glyph-name="egrave.ordn" horiz-adv-x="388" 
d="M222 594h-33l-75 134v7h53zM341 419q0 -27 -4 -35h-245q4 -47 36 -76t78 -29q55 0 98 46l26 -31q-51 -56 -124 -56q-68 0 -114 46t-46 113q0 68 45 114t111 46q59 0 99 -38.5t40 -99.5zM200 516q-40 0 -69.5 -26t-37.5 -68h203q0 43 -28 68.5t-68 25.5z" />
    <glyph glyph-name="g.ordn" horiz-adv-x="427" 
d="M316 551h42v-276q0 -70 -44.5 -110.5t-111.5 -40.5q-83 0 -139 59l27 32q47 -49 109 -49q49 0 81 28.5t32 80.5v29q-38 -56 -115 -56q-65 0 -108 45t-43 110t43 109.5t107 44.5q82 0 120 -60v54zM204 290q44 0 76 29.5t32 84.5q0 54 -32 82.5t-77 28.5q-47 0 -79 -32
t-32 -79q0 -48 32 -81t80 -33z" />
    <glyph glyph-name="h.ordn" horiz-adv-x="382" 
d="M208 557q52 0 81.5 -33.5t29.5 -87.5v-192h-46v188q0 37 -21 59.5t-56 22.5t-58 -23t-23 -59v-188h-46v473h46v-205q32 45 93 45z" />
    <glyph glyph-name="i.ordn" horiz-adv-x="183" 
d="M91 698q15 0 25 -9.5t10 -24.5q0 -13 -10.5 -23t-24.5 -10t-24 9.5t-10 23.5q0 15 10 24.5t24 9.5zM114 550v-306h-45v306h45z" />
    <glyph glyph-name="l.ordn" horiz-adv-x="184" 
d="M115 717v-473h-46v473h46z" />
    <glyph glyph-name="m.ordn" horiz-adv-x="577" 
d="M403 557q52 0 81 -33t29 -88v-192h-46v188q0 37 -19.5 59.5t-53.5 22.5q-35 0 -57.5 -22.5t-22.5 -55.5v-192h-46v188q0 37 -19.5 59.5t-54.5 22.5t-57 -22.5t-22 -59.5v-188h-46v307h44v-36q32 42 91 42q67 0 95 -56q35 56 104 56z" />
    <glyph glyph-name="n.ordn" horiz-adv-x="382" 
d="M206 557q53 0 83 -33t30 -88v-192h-46v188q0 37 -21 59.5t-56 22.5t-58 -23t-23 -59v-188h-46v307h44v-37q33 43 93 43z" />
    <glyph glyph-name="r.ordn" horiz-adv-x="242" 
d="M206 553q11 0 23 -2v-41h-18q-39 0 -67.5 -24.5t-28.5 -66.5v-175h-46v307h44v-48q31 50 93 50z" />
    <glyph glyph-name="s.ordn" horiz-adv-x="309" 
d="M158 557q59 0 100 -48l-27 -30q-33 37 -73 37q-54 0 -54 -41q0 -12 8 -21.5t13.5 -12.5t25.5 -13l29 -13q40 -19 59.5 -38t19.5 -52q0 -41 -29.5 -64t-74.5 -23q-74 0 -117 63l27 27q40 -50 89 -50q26 0 42.5 11.5t16.5 32.5q0 20 -12 31t-38 23l-30 13q-75 32 -75 85
q0 38 28.5 60.5t71.5 22.5z" />
    <glyph glyph-name="y.ss01.ordn" horiz-adv-x="387" 
d="M272 551h46v-293q0 -64 -36.5 -99t-94.5 -35q-74 0 -123 59l26 31q43 -48 96 -48q38 0 62 23t24 68v34q-33 -41 -92 -41q-52 0 -81.5 33.5t-29.5 87.5v180h46v-175q0 -37 20 -60.5t56 -23.5t58.5 23.5t22.5 59.5v176z" />
    <glyph glyph-name="t.ordn" horiz-adv-x="243" 
d="M180 279q9 0 41 4v-39q-22 -6 -49 -6q-46 0 -73.5 24t-27.5 73v175h-50v41h50v74h46v-74h95v-41h-95v-171q0 -60 63 -60z" />
    <glyph glyph-name="u.ordn" horiz-adv-x="376" 
d="M313 551v-186q0 -57 -35.5 -92t-88.5 -35q-54 0 -89.5 35t-35.5 92v186h46v-188q0 -39 22.5 -61t56.5 -22q33 0 55.5 22t22.5 61v188h46z" />
    <glyph glyph-name="uacute.ordn" horiz-adv-x="376" 
d="M281 735v-7l-75 -134h-33l55 141h53zM313 551v-186q0 -57 -35.5 -92t-88.5 -35q-54 0 -89.5 35t-35.5 92v186h46v-188q0 -39 22.5 -61t56.5 -22q33 0 55.5 22t22.5 61v188h46z" />
    <glyph glyph-name="y.ordn" horiz-adv-x="350" 
d="M276 551h50l-150 -351q-34 -76 -102 -76q-24 0 -47 6v40q20 -4 38 -4q47 0 69 49l16 38l-126 298h50l101 -247z" />
    <glyph glyph-name="z.ordn" horiz-adv-x="286" 
d="M87 285h180v-41h-248v14l178 252h-164v41h232v-14z" />
    <glyph glyph-name="a.ss01" horiz-adv-x="634" 
d="M493 483h48v-483h-50v93q-28 -48 -81 -75.5t-114 -27.5q-102 0 -171 73t-69 179t68.5 178.5t171.5 72.5q63 0 116.5 -29t80.5 -79v98zM301 37q79 0 134.5 52t55.5 153q0 100 -55.5 152t-134.5 52q-84 0 -138.5 -58.5t-54.5 -146.5q0 -87 55 -145.5t138 -58.5z" />
    <glyph glyph-name="aacute.ss01" horiz-adv-x="634" 
d="M446 771l-113 -207h-40l91 216h62v-9zM493 483h48v-483h-50v93q-28 -48 -81 -75.5t-114 -27.5q-102 0 -171 73t-69 179t68.5 178.5t171.5 72.5q63 0 116.5 -29t80.5 -79v98zM301 37q79 0 134.5 52t55.5 153q0 100 -55.5 152t-134.5 52q-84 0 -138.5 -58.5t-54.5 -146.5
q0 -87 55 -145.5t138 -58.5z" />
    </font>
</defs>
</svg>
