<?xml version="1.0" standalone="no"?>
<!DOCTYPE svg PUBLIC "-//W3C//DTD SVG 1.1//EN" "http://www.w3.org/Graphics/SVG/1.1/DTD/svg11.dtd" >
<svg xmlns="http://www.w3.org/2000/svg" xmlns:xlink="http://www.w3.org/1999/xlink" version="1.1">
<metadata>
Created by FontForge 20170731 at Tue May 14 15:02:03 2013
 By Aleksey,,,
Copyright (c) 2013 by Fontfabric. All rights reserved.
</metadata>
<defs>
<font id="NexaSlabBookItalic" horiz-adv-x="700" >
  <font-face 
    font-family="Nexa Slab Book Italic"
    font-weight="400"
    font-style="italic"
    font-stretch="normal"
    units-per-em="1000"
    panose-1="2 0 5 0 0 0 0 0 0 0"
    ascent="700"
    descent="-300"
    x-height="494"
    cap-height="700"
    bbox="-212 -294 1226 941"
    underline-thickness="50"
    underline-position="-175"
    unicode-range="U+000D-FB02"
  />
<missing-glyph horiz-adv-x="642" 
d="M37 0l123 700h538l-123 -700h-538zM206 447l48 -1q9 53 50.5 76t93.5 23q123 0 123 -85q0 -26 -7.5 -45t-23 -30.5t-28.5 -17.5t-36 -13q-60 -19 -86 -50.5t-38 -101.5h47q10 57 25 76.5t62 34.5q23 8 30.5 11t29 14.5t31.5 23.5t22 34t16 49q14 76 -33.5 110t-125.5 34
q-74 0 -130.5 -35t-69.5 -107zM279 120q0 -26 27 -28q16 0 28 10.5t12 28.5q0 13 -8 20.5t-20 7.5q-15 0 -27 -10.5t-12 -28.5z" />
    <glyph glyph-name=".notdef" horiz-adv-x="642" 
d="M37 0l123 700h538l-123 -700h-538zM206 447l48 -1q9 53 50.5 76t93.5 23q123 0 123 -85q0 -26 -7.5 -45t-23 -30.5t-28.5 -17.5t-36 -13q-60 -19 -86 -50.5t-38 -101.5h47q10 57 25 76.5t62 34.5q23 8 30.5 11t29 14.5t31.5 23.5t22 34t16 49q14 76 -33.5 110t-125.5 34
q-74 0 -130.5 -35t-69.5 -107zM279 120q0 -26 27 -28q16 0 28 10.5t12 28.5q0 13 -8 20.5t-20 7.5q-15 0 -27 -10.5t-12 -28.5z" />
    <glyph glyph-name=".null" horiz-adv-x="0" 
 />
    <glyph glyph-name="nonmarkingreturn" horiz-adv-x="333" 
 />
    <glyph glyph-name="CR" unicode="&#xd;" horiz-adv-x="296" 
 />
    <glyph glyph-name="space" unicode=" " horiz-adv-x="261" 
 />
    <glyph glyph-name="exclam" unicode="!" horiz-adv-x="270" 
d="M171 700h69l-97 -550h-69zM83 -4q-17 0 -29 10.5t-12 28.5q0 26 17.5 40.5t39.5 14.5q17 0 29 -10.5t12 -28.5q0 -25 -17.5 -40t-39.5 -15z" />
    <glyph glyph-name="quotedbl" unicode="&#x22;" horiz-adv-x="355" 
d="M293 702h58l-45 -258h-58zM145 702h58l-45 -258h-58z" />
    <glyph glyph-name="numbersign" unicode="#" horiz-adv-x="643" 
d="M477 483h-184l-114 -265h185zM321 700h63l-69 -164h186l70 164h63l-70 -164h86l-10 -55h-100l-112 -261h91l-10 -57h-104l-69 -163h-63l69 163h-187l-69 -163h-62l69 163h-80l10 57h93l113 261h-84l10 55h97z" />
    <glyph glyph-name="dollar" unicode="$" horiz-adv-x="643" 
d="M91 109q65 -57 188 -57q37 0 72 6t71.5 20t62.5 43t33 70q5 25 -1 44.5t-23.5 33.5t-33.5 23.5t-46 17t-46 11t-47 8.5q-45 8 -74.5 15.5t-63 22t-51.5 34t-28.5 51t-5.5 72.5q8 63 53 106.5t100.5 61.5t120.5 21l16 92h64l-16 -94q122 -10 191 -77q-1 -8 -25 -137h-61
l16 107q-63 48 -176 48q-86 0 -151 -37.5t-66 -108.5q0 -27 13 -46.5t41 -32t55 -19.5t69 -15q49 -9 80.5 -16.5t69.5 -24t58 -37.5t31 -56t3 -80q-31 -170 -277 -190l-16 -91h-63l16 91q-143 5 -224 94q2 8 13 71t12 69h63z" />
    <glyph glyph-name="percent" unicode="%" horiz-adv-x="748" 
d="M265 707q64 0 97.5 -37t33.5 -91q0 -67 -51 -120t-134 -53q-63 0 -96.5 37t-33.5 90q0 68 50.5 121t133.5 53zM635 702h73l-576 -702h-73zM254 655q-52 0 -84 -35t-32 -78q0 -35 21.5 -58.5t61.5 -23.5q53 0 85.5 34.5t32.5 76.5q0 35 -22.5 59.5t-62.5 24.5zM557 293
q64 0 97.5 -37t33.5 -90q0 -67 -51 -120t-134 -53q-63 0 -96.5 37t-33.5 90q0 68 50.5 120.5t133.5 52.5zM546 241q-52 0 -84 -34.5t-32 -78.5q0 -35 21.5 -58.5t61.5 -23.5q53 0 85.5 34.5t32.5 76.5q0 35 -22.5 59.5t-62.5 24.5z" />
    <glyph glyph-name="ampersand" unicode="&#x26;" horiz-adv-x="690" 
d="M486 189l25 141h-185q-99 0 -159 -48t-60 -110q0 -56 44 -89t126 -33q42 0 83 11.5t79 44.5t47 83zM571 330l-25 -142q-5 -35 -6 -66t17.5 -49.5t56.5 -13.5l-10 -59q-107 -14 -115 81q-44 -55 -99 -74t-122 -19q-231 0 -231 170q0 72 50 127.5t117 77.5q-44 14 -70 48.5
t-26 80.5q0 94 81 154t207 60q47 0 84 -8t68.5 -26.5t44.5 -55.5t4 -89l-62 1q12 69 -29.5 94.5t-121.5 25.5q-100 0 -154 -43t-54 -106q0 -58 50.5 -85.5t114.5 -27.5h304l-10 -56h-64z" />
    <glyph glyph-name="quotesingle" unicode="'" horiz-adv-x="208" 
d="M146 703h59l-46 -259h-59z" />
    <glyph glyph-name="parenleft" unicode="(" horiz-adv-x="332" 
d="M350 735l26 -47q-112 -65 -187 -188t-82 -261q-12 -224 128 -345l-42 -47q-75 55 -114 152.5t-39 206.5q0 157 82 300.5t228 228.5z" />
    <glyph glyph-name="parenright" unicode=")" horiz-adv-x="330" 
d="M93 689l43 47q76 -55 114.5 -152.5t38.5 -207.5q0 -155 -81.5 -298.5t-227.5 -228.5l-25 49q131 85 199.5 209.5t68.5 264.5q0 97 -33.5 181.5t-96.5 135.5z" />
    <glyph glyph-name="asterisk" unicode="*" horiz-adv-x="355" 
d="M307 506l-47 -31l-41 76l-67 -76l-37 30l72 73l-78 22l22 48l78 -27l12 83h52l-17 -84l91 27l6 -48l-91 -21z" />
    <glyph glyph-name="plus" unicode="+" horiz-adv-x="489" 
d="M47 315l10 59h169l29 167h63l-29 -167h170l-10 -59h-170l-30 -171h-63l30 171h-169z" />
    <glyph glyph-name="comma" unicode="," horiz-adv-x="331" 
d="M100 -88h-46l41 84q-29 8 -23 39q5 26 28 37.5t43.5 2.5t20.5 -33q0 -8 -9 -26.5t-28.5 -54t-26.5 -49.5z" />
    <glyph glyph-name="hyphen" unicode="-" horiz-adv-x="495" 
d="M63 256l11 62h354l-11 -62h-354z" />
    <glyph glyph-name="period" unicode="." horiz-adv-x="225" 
d="M62 -7q-16 0 -27.5 10t-11.5 28q0 24 17 38t38 14q15 0 26.5 -10t11.5 -27q0 -25 -16.5 -39t-37.5 -14z" />
    <glyph glyph-name="slash" unicode="/" horiz-adv-x="494" 
d="M-37 -82l513 842h69l-513 -842h-69z" />
    <glyph glyph-name="zero" unicode="0" horiz-adv-x="678" 
d="M59 272l28 156q24 136 115 209t210 73q114 0 182 -74t44 -208l-28 -156q-24 -136 -113 -209t-212 -73q-115 0 -182.5 74t-43.5 208zM157 428l-28 -156q-19 -107 25 -162t143 -54q86 0 155.5 57t88.5 160l30 156q18 106 -29.5 161t-140.5 55q-85 0 -155 -57t-89 -160z" />
    <glyph glyph-name="one" unicode="1" horiz-adv-x="399" 
d="M-5 0l10 59h134l99 557l-133 -33l11 63l205 54l-113 -641h132l-10 -59h-335z" />
    <glyph glyph-name="two" unicode="2" horiz-adv-x="661" 
d="M107 164l-17 -99h404l21 103h63l-30 -168h-540l29 163q10 56 41 96.5t75.5 62t92 31t100.5 9.5q31 0 60 4.5t59 16t52.5 29t36.5 47t14 66.5q0 64 -48.5 93.5t-120.5 29.5q-82 0 -146 -31t-78 -107h-69q14 73 62 119t108 63t134 17q96 0 160.5 -44t64.5 -133
q0 -61 -25.5 -107.5t-69 -73.5t-95.5 -40.5t-109 -13.5q-38 0 -72.5 -6t-68.5 -19.5t-57.5 -41t-30.5 -66.5z" />
    <glyph glyph-name="three" unicode="3" horiz-adv-x="646" 
d="M200 636l-20 -104h-63l29 168h493l-5 -32l-241 -256q87 -8 137.5 -50.5t50.5 -123.5q0 -121 -87.5 -184.5t-228.5 -63.5q-52 0 -95.5 10t-80 31.5t-53 61t-6.5 94.5h68q-7 -39 6.5 -66.5t43 -41t61 -19.5t69.5 -6q99 0 166 46.5t67 132.5q0 42 -17.5 69t-51.5 39t-67 16
t-78 3l-5 22q12 14 115.5 125.5t118.5 129.5z" />
    <glyph glyph-name="four" unicode="4" horiz-adv-x="654" 
d="M393 0l27 153h-417l4 54l497 493h82l-85 -483h104l-11 -64h-104l-27 -153h-70zM94 217h337l70 397z" />
    <glyph glyph-name="five" unicode="5" horiz-adv-x="650" 
d="M165 433h206q111 0 168 -49.5t57 -130.5q0 -110 -86 -184t-229 -74q-54 0 -98 10t-80.5 32t-53 63t-6.5 97h70q-24 -135 179 -135q108 0 170.5 49.5t62.5 129.5q0 60 -36 94t-129 34h-272l58 331h480l-11 -63h-414z" />
    <glyph glyph-name="six" unicode="6" horiz-adv-x="687" 
d="M185 508l-31 -173q86 94 230 94q64 0 117 -18t88.5 -61t35.5 -106q0 -53 -19 -96t-50.5 -72t-73.5 -49t-86 -28.5t-90 -8.5q-53 0 -99 13t-82.5 38.5t-53 69.5t-6.5 101l52 297q17 97 106.5 149t200.5 52q113 0 178.5 -46.5t54.5 -136.5h-70q8 59 -41.5 91.5t-132.5 32.5
q-83 -1 -150 -39t-78 -104zM317 55q59 1 109.5 16t89.5 57t39 105q0 68 -50 100.5t-132 32.5q-51 0 -100.5 -16t-89.5 -52.5t-49 -87.5q-14 -79 42 -117t141 -38z" />
    <glyph glyph-name="seven" unicode="7" horiz-adv-x="564" 
d="M160 636l-21 -104h-62l29 168h513l-2 -47l-466 -653h-78l457 636h-370z" />
    <glyph glyph-name="eight" unicode="8" 
d="M36 160q0 76 53.5 130.5t128.5 71.5q-109 40 -109 134q0 58 29 102t76.5 68.5t100.5 36.5t109 12q64 0 117 -15t91.5 -55t38.5 -99q0 -68 -47 -114.5t-121 -69.5q52 -13 87 -55t35 -95q0 -62 -30 -108.5t-80.5 -71t-105 -36t-114.5 -11.5q-68 0 -123 14.5t-95.5 55.5
t-40.5 105zM600 520q8 47 -22 79t-73.5 44.5t-91.5 12.5q-53 0 -103.5 -13.5t-90.5 -49.5t-40 -88q0 -40 32 -66.5t72 -36.5t84 -10q47 0 93.5 11t89 41.5t50.5 75.5zM357 335q-37 0 -77.5 -8t-80.5 -25.5t-65.5 -51t-25.5 -76.5q0 -44 33.5 -73.5t76 -40.5t88.5 -11
q38 0 78.5 8t80.5 25.5t65.5 50t25.5 74.5q0 44 -35 74.5t-78 42t-86 11.5z" />
    <glyph glyph-name="nine" unicode="9" horiz-adv-x="689" 
d="M391 648q-42 0 -81.5 -10t-75.5 -29.5t-58 -55.5t-22 -84q0 -66 53.5 -99.5t127.5 -33.5q82 0 153.5 40.5t85.5 115.5q7 41 -6.5 72.5t-41.5 49t-62.5 26t-72.5 8.5zM523 194l31 175q-84 -96 -230 -96q-101 0 -171 46.5t-70 138.5q0 53 19 96.5t51 72t74 48.5t86 28.5
t90 8.5q53 0 99 -13t82.5 -38.5t53 -69.5t6.5 -101l-53 -297q-17 -97 -106 -149t-200 -52q-113 0 -181.5 47t-57.5 136h69q-7 -57 45.5 -89.5t135.5 -32.5q82 1 149 38t78 103z" />
    <glyph glyph-name="colon" unicode=":" horiz-adv-x="236" 
d="M117 289q-16 0 -27.5 10.5t-11.5 28.5q0 24 17 38.5t38 14.5q17 0 28.5 -10t11.5 -28q0 -25 -17 -39.5t-39 -14.5zM65 -7q-16 0 -27.5 10t-11.5 28q0 25 17 39.5t38 14.5q17 0 28.5 -10t11.5 -28q0 -25 -17 -39.5t-39 -14.5z" />
    <glyph glyph-name="semicolon" unicode=";" horiz-adv-x="236" 
d="M117 289q-16 0 -27 10t-11 28q0 25 17 39.5t38 14.5q17 0 28 -10t11 -28q0 -25 -17 -39.5t-39 -14.5zM55 -88h-46l41 83q-29 8 -23 40q6 33 40 42q32 8 46 -14q9 -12 5 -30q-2 -8 -63 -121z" />
    <glyph glyph-name="less" unicode="&#x3c;" horiz-adv-x="365" 
d="M57 334l249 195l33 -45l-213 -167l159 -167l-53 -45l-181 195z" />
    <glyph glyph-name="equal" unicode="=" horiz-adv-x="556" 
d="M90 386l11 63h407l-11 -63h-407zM54 182l11 62h407l-11 -62h-407z" />
    <glyph glyph-name="greater" unicode="&#x3e;" horiz-adv-x="364" 
d="M140 529l181 -195l-6 -34l-250 -195l-36 43l219 174l-157 163z" />
    <glyph glyph-name="question" unicode="?" horiz-adv-x="598" 
d="M138 504h-67q19 105 102.5 155.5t192.5 50.5q99 0 165 -43t66 -133q0 -28 -4.5 -52.5t-15 -43.5t-19.5 -33.5t-27.5 -28t-28.5 -21t-33.5 -17t-31.5 -12.5l-32 -12q-67 -21 -91 -51t-37 -108h-69q17 100 56 144t125 70q71 23 106.5 55.5t35.5 102.5q0 35 -16 59.5
t-43.5 37.5t-56.5 18.5t-63 5.5q-76 0 -138 -34t-76 -110zM219 -3q-17 0 -29 10.5t-12 29.5q0 26 17.5 40.5t39.5 14.5q17 0 29 -10.5t12 -28.5q0 -26 -17.5 -41t-39.5 -15z" />
    <glyph glyph-name="at" unicode="@" horiz-adv-x="913" 
d="M511 630q-168 0 -286 -114t-118 -281q0 -126 75.5 -197t210.5 -71q86 0 159 41l21 -48q-90 -50 -191 -50q-155 0 -245.5 86.5t-90.5 231.5q0 192 137 324t337 132q155 0 247.5 -82t92.5 -235q0 -76 -26 -154.5t-75 -117.5q-29 -23 -65 -32t-62.5 10t-20.5 69
q-35 -47 -95 -75.5t-116 -28.5q-94 0 -153 60.5t-59 151.5q0 127 88.5 207.5t211.5 80.5q58 0 105 -28t65 -78l16 82l53 -4l-63 -360q-4 -24 7.5 -32t28.5 -2.5t30 18.5q36 32 54.5 101.5t18.5 128.5q0 132 -76.5 199t-215.5 67zM479 478q-96 0 -161 -61.5t-65 -161.5
q0 -71 43 -114t115 -43q102 0 164 68t62 154q0 67 -40.5 112.5t-117.5 45.5z" />
    <glyph glyph-name="A" unicode="A" horiz-adv-x="806" 
d="M248 270h317l-91 363zM42 63l360 574h-88l11 63h195l171 -637h71l-11 -63h-233l11 63h90l-37 145h-372l-90 -145h89l-11 -63h-238l11 63h71z" />
    <glyph glyph-name="B" unicode="B" horiz-adv-x="734" 
d="M372 0h-374l11 63h90l101 574h-88l11 63h372q90 0 145.5 -39.5t55.5 -119.5q0 -68 -37.5 -117t-102.5 -70q53 -14 80 -52.5t27 -87.5q0 -214 -291 -214zM268 637l-43 -247h221q76 0 129 35t53 105q0 107 -144 107h-216zM214 327l-47 -263h216q211 0 211 146
q0 58 -47 87.5t-112 29.5h-221z" />
    <glyph glyph-name="C" unicode="C" horiz-adv-x="704" 
d="M488 710q130 0 214 -82q-13 -77 -27 -145h-59l18 113q-59 48 -157 48q-141 0 -233 -86t-114 -211q-20 -125 42.5 -206.5t200.5 -81.5q123 0 222 84l41 -49q-121 -103 -274 -103q-151 0 -230.5 84t-76.5 212q2 79 32 154t83 135.5t136 97t182 36.5z" />
    <glyph glyph-name="D" unicode="D" horiz-adv-x="787" 
d="M344 0h-346l11 63h90l101 575h-88l12 63h326q146 0 220.5 -80t76.5 -206q2 -80 -22 -153t-72 -132.5t-127.5 -94.5t-181.5 -35zM169 64h186q80 0 144 30t102 79.5t57.5 108.5t19.5 121q0 49 -12.5 89.5t-39.5 74t-75 52t-113 18.5h-168z" />
    <glyph glyph-name="E" unicode="E" horiz-adv-x="681" 
d="M168 65h360l22 108h62l-31 -173h-583l11 63h90l101 574h-88l11 63h566l-30 -171h-62l17 107h-345l-44 -248h341l-11 -65h-341z" />
    <glyph glyph-name="F" unicode="F" horiz-adv-x="637" 
d="M252 0h-254l11 63h91l101 574h-90l11 63h547l-30 -171h-62l17 109h-325l-45 -257h321l-11 -64h-321l-45 -254h95z" />
    <glyph glyph-name="G" unicode="G" horiz-adv-x="738" 
d="M488 710q145 0 230 -85q-4 -26 -14 -74.5t-13 -67.5h-58l17 111q-65 52 -173 52q-80 0 -148 -29.5t-112 -78.5t-68.5 -111.5t-24.5 -128.5q0 -108 59 -175.5t190 -67.5q120 0 211 79l29 161h-228l10 61h290l-44 -252q-117 -114 -279 -114q-151 0 -228.5 83t-77.5 212
q0 183 123 304t309 121z" />
    <glyph glyph-name="H" unicode="H" horiz-adv-x="828" 
d="M647 63h90l-11 -63h-245l11 63h87l46 262h-411l-46 -262h87l-11 -63h-246l11 63h91l101 574h-90l11 63h245l-11 -63h-87l-44 -250h411l44 250h-87l11 63h244l-11 -63h-89z" />
    <glyph glyph-name="I" unicode="I" horiz-adv-x="351" 
d="M168 63h93l-11 -63h-253l11 63h92l101 574h-90l11 63h249l-11 -63h-91z" />
    <glyph glyph-name="J" unicode="J" horiz-adv-x="673" 
d="M319 636l11 64h317l-74 -428q-21 -131 -109 -207t-222 -76q-123 0 -184 77t-39 204h68q-18 -101 23 -158.5t144 -57.5q96 0 163.5 58t85.5 160l64 364h-248z" />
    <glyph glyph-name="K" unicode="K" horiz-adv-x="714" 
d="M168 63h96l-11 -63h-255l11 63h91l101 574h-90l11 63h239l-11 -63h-81l-52 -298l367 298h-85l11 63h248l-11 -63h-73l-306 -251l186 -323h107l-11 -63h-182l10 59l-164 285l-112 -89z" />
    <glyph glyph-name="L" unicode="L" horiz-adv-x="623" 
d="M200 637h-90l11 63h245l-11 -63h-86l-101 -573h324l22 109h63l-31 -173h-546l11 63h88z" />
    <glyph glyph-name="M" unicode="M" horiz-adv-x="963" 
d="M861 0h-247l11 63h88l95 539l-331 -385h-15l-197 386l-95 -540h87l-11 -63h-248l11 63h92l101 574h-91l11 63h171l191 -385l322 385h177l-11 -63h-90l-101 -574h91z" />
    <glyph glyph-name="N" unicode="N" horiz-adv-x="833" 
d="M247 0h-247l11 63h88l101 574h-90l11 63h137l346 -576l90 513h-90l11 63h246l-11 -63h-88l-112 -637h-49l-344 568l-89 -505h90z" />
    <glyph glyph-name="O" unicode="O" horiz-adv-x="810" 
d="M478 711q86 0 149.5 -31t95.5 -82t45.5 -116.5t-0.5 -135.5q-12 -73 -44 -136.5t-83 -114t-125.5 -79.5t-164.5 -29q-147 0 -224 85.5t-73 213.5q4 111 53 206t146.5 157t224.5 62zM700 349q13 57 4 110.5t-33.5 95.5t-77 67t-126.5 25q-136 0 -226 -86.5t-112 -211.5
q-6 -46 -5 -88.5t18 -80.5t44 -66.5t72.5 -45t104.5 -16.5q69 0 129.5 25.5t102 68t68.5 94.5t37 109z" />
    <glyph glyph-name="P" unicode="P" horiz-adv-x="714" 
d="M99 63l101 573h-90l11 64h396q125 0 176 -93q43 -79 10 -179q-34 -102 -128 -152q-61 -32 -137 -32h-239l-32 -181h90l-11 -63h-247l11 63h89zM210 308h238q102 0 161 82q48 68 35 142q-13 76 -86 97q-22 7 -50 7h-240z" />
    <glyph glyph-name="Q" unicode="Q" horiz-adv-x="810" 
d="M478 711q86 0 149.5 -31t95.5 -82t45.5 -116.5t-0.5 -135.5q-24 -143 -115 -238l74 -84l-56 -44l-73 80q-105 -73 -247 -73q-147 0 -224 85.5t-73 213.5q4 111 53 206t146.5 157t224.5 62zM700 349q13 57 4 110.5t-33.5 95.5t-77 67t-126.5 25q-136 0 -226 -86.5
t-112 -211.5q-6 -46 -5 -88.5t18 -80.5t44 -66.5t72.5 -45t104.5 -16.5q69 0 129.5 25.5t102 68t68.5 94.5t37 109z" />
    <glyph glyph-name="R" unicode="R" horiz-adv-x="750" 
d="M216 331h231q97 0 147.5 49t50.5 130q0 57 -37.5 91.5t-106.5 34.5h-231zM492 63l-121 207h-165l-37 -206h101l-11 -64h-260l11 64h90l101 572h-90l11 64h390q96 0 148 -50t54 -137q2 -105 -67.5 -173t-188.5 -68h-12l126 -208h113l-11 -64h-193z" />
    <glyph glyph-name="S" unicode="S" horiz-adv-x="657" 
d="M397 713q156 0 235 -79q-1 -8 -25 -137h-61l16 107q-61 48 -175 48q-88 0 -152.5 -37.5t-64.5 -109.5q0 -50 45 -73t133 -39q44 -8 73.5 -15t65.5 -21t57 -31t36 -45t15 -64q0 -65 -27 -111.5t-75 -71.5t-102.5 -36t-118.5 -11q-158 0 -247 96q2 8 13 71t12 69h63
l-16 -113q31 -28 82.5 -43.5t104.5 -15.5q37 0 72 6t72 20.5t63 43.5t33 70q5 25 -1 44.5t-23.5 33.5t-33.5 23.5t-46 17t-46 11t-47 8.5q-50 9 -85.5 19.5t-70.5 29.5t-53 49t-18 71q0 57 27 100.5t71.5 67.5t94.5 35.5t104 11.5z" />
    <glyph glyph-name="T" unicode="T" horiz-adv-x="630" 
d="M391 0h-255l11 64h94l101 573h-185l-21 -109h-62l30 172h566l-30 -172h-61l16 109h-185l-101 -573h93z" />
    <glyph glyph-name="U" unicode="U" horiz-adv-x="803" 
d="M364 53q88 0 156.5 58t86.5 161l64 364h-92l12 64h247l-12 -64h-87l-64 -364q-24 -135 -110 -209t-213 -74q-119 0 -186 75.5t-44 207.5l64 364h-86l12 64h246l-12 -64h-92l-64 -364q-19 -104 33 -161.5t141 -57.5z" />
    <glyph glyph-name="V" unicode="V" horiz-adv-x="785" 
d="M302 -2l-152 638h-84l11 64h256l-11 -64h-98l127 -556l325 556h-107l11 64h259l-11 -64h-77l-374 -638h-75z" />
    <glyph glyph-name="W" unicode="W" horiz-adv-x="1171" 
d="M1129 636l-337 -637h-69l-91 552l-293 -552h-71l-112 637h-88l11 64h268l-11 -64h-106l89 -544l313 599h42l97 -599l281 544h-110l11 64h273l-11 -64h-86z" />
    <glyph glyph-name="X" unicode="X" 
d="M370 413l197 223h-91l11 64h253l-11 -64h-81l-244 -279l149 -294h97l-11 -63h-171l10 59l-124 251l-210 -247h91l-11 -63h-264l11 63h88l262 302l-139 271h-93l11 64h168l-10 -59z" />
    <glyph glyph-name="Y" unicode="Y" horiz-adv-x="714" 
d="M347 63h98l-11 -63h-261l11 63h94l39 219l-171 354h-73l11 64h239l-11 -64h-87l134 -289l238 289h-89l11 64h248l-11 -64h-74l-296 -354z" />
    <glyph glyph-name="Z" unicode="Z" horiz-adv-x="611" 
d="M191 636l-20 -105h-64l29 169h485l-5 -30l-518 -604h358l25 113h63l-32 -179h-528l6 35l515 601h-314z" />
    <glyph glyph-name="bracketleft" unicode="[" horiz-adv-x="327" 
d="M15 -169l156 882h194l-11 -61h-126l-134 -760h126l-11 -61h-194z" />
    <glyph glyph-name="backslash" unicode="\" horiz-adv-x="476" 
d="M389 -82h-69l-217 842h69z" />
    <glyph glyph-name="bracketright" unicode="]" horiz-adv-x="327" 
d="M304 714l-156 -882h-194l11 61h126l134 760h-126l11 61h194z" />
    <glyph glyph-name="asciicircum" unicode="^" horiz-adv-x="583" 
d="M139 370h-75v4l274 327h56l160 -327l-3 -4h-64l-127 267z" />
    <glyph glyph-name="underscore" unicode="_" horiz-adv-x="609" 
d="M4 -80l10 59h469l-10 -59h-469z" />
    <glyph glyph-name="grave" unicode="`" horiz-adv-x="234" 
d="M278 573h-60l-73 127h80l53 -123v-4z" />
    <glyph glyph-name="a" unicode="a" horiz-adv-x="662" 
d="M327 439q-92 0 -158.5 -63.5t-66.5 -162.5q0 -75 42 -119t116 -44q89 0 150.5 56.5t77.5 136.5q17 82 -24 139t-137 57zM606 57l-7 -57q-38 -4 -71.5 -4t-53.5 23.5t-14 69.5q-37 -52 -94.5 -75.5t-118.5 -23.5q-95 1 -152.5 58t-57.5 155q0 133 89 216.5t212 83.5
q134 0 176 -104l17 97h62l-68 -389q-7 -42 19.5 -51t61.5 1z" />
    <glyph glyph-name="b" unicode="b" horiz-adv-x="639" 
d="M85 0h-57l113 643h-87l10 57h152l-55 -305q39 54 97 81t118 27q94 0 152 -56t58 -153q0 -135 -89 -218t-213 -83q-62 0 -109.5 27t-66.5 78zM362 442q-96 0 -162 -66.5t-66 -159.5q0 -71 42.5 -116.5t116.5 -45.5q91 0 159 63t68 166q0 75 -42 117t-116 42z" />
    <glyph glyph-name="c" unicode="c" horiz-adv-x="533" 
d="M421 113l36 -47q-86 -73 -197 -73q-98 0 -160.5 56.5t-62.5 154.5q0 138 91 218t219 80q88 0 159 -49l-23 -119h-58l15 85q-38 23 -104 23q-97 0 -165.5 -63.5t-68.5 -165.5q0 -74 47 -116t122 -42q83 0 150 58z" />
    <glyph glyph-name="d" unicode="d" horiz-adv-x="665" 
d="M332 442q-94 0 -161 -62t-67 -164q0 -77 42 -119.5t118 -42.5q98 0 162 67t64 162q0 71 -42 115t-116 44zM607 57l-7 -57q-39 -4 -72.5 -2.5t-53 26t-12.5 70.5q-37 -51 -94 -76t-119 -25q-98 0 -155 56t-57 154q0 136 88.5 218t212.5 82q61 0 111 -28t64 -80l44 248h-86
l11 57h152l-106 -588q-5 -30 5 -44t29.5 -14t44.5 3z" />
    <glyph glyph-name="e" unicode="e" horiz-adv-x="590" 
d="M443 125l37 -44q-43 -44 -105 -66t-124 -22q-100 0 -157.5 56t-57.5 154q0 128 88.5 214t213.5 86q117 0 176 -72t21 -210h-434q-7 -80 36 -124t126 -44q47 0 98 19.5t82 52.5zM111 275h373q13 83 -26.5 126t-128.5 43q-75 0 -135 -45t-83 -124z" />
    <glyph glyph-name="f" unicode="f" horiz-adv-x="340" 
d="M127 0h-64l77 435h-99l9 56h99l8 43q15 81 62 126t125 45q52 0 88 -27l-32 -51q-30 21 -66 21q-92 0 -113 -114l-8 -43h145l-9 -56h-145z" />
    <glyph glyph-name="g" unicode="g" horiz-adv-x="663" 
d="M332 439q-95 0 -162.5 -64t-67.5 -161q0 -76 42.5 -119.5t120.5 -43.5q105 0 166.5 69.5t61.5 158.5q0 68 -42 114t-119 46zM506 -13q-21 -125 -98 -183.5t-189 -58.5q-107 0 -162.5 48t-44.5 132h62q-6 -62 36.5 -91.5t119.5 -29.5q76 0 136.5 46t76.5 137l18 98
q-71 -96 -212 -94q-94 0 -153 57t-59 155q0 136 89 217t213 81q61 0 109.5 -28t64.5 -79q16 76 20 100h147l-10 -58h-85z" />
    <glyph glyph-name="h" unicode="h" horiz-adv-x="627" 
d="M93 0h-65l114 643h-87l10 58h152l-51 -284q35 40 86.5 62.5t104.5 22.5q86 0 137 -56.5t31 -165.5l-29 -168q-2 -11 -2 -20t1.5 -15t6 -10.5t7.5 -7t11 -3t12 -1t14 1t14 2t15 2.5l-7 -60q-46 -4 -80.5 -1.5t-50.5 30t-7 82.5l31 167q27 158 -121 160q-72 0 -129.5 -48.5
t-68.5 -120.5z" />
    <glyph glyph-name="i" unicode="i" horiz-adv-x="277" 
d="M193 605q-16 0 -27.5 9.5t-11.5 27.5q0 25 17 39t38 14q16 0 27 -9.5t11 -27.5q0 -26 -16.5 -39.5t-37.5 -13.5zM72 112l58 326h-86l10 58h151q-12 -65 -34 -192t-34 -192q-2 -10 -2.5 -18.5t2 -14t4 -10.5t7 -7t8 -4t11 -2t11 -0.5t13.5 1t13 2t14 2.5l-7 -60
q-47 -4 -82 -1.5t-51 30t-6 82.5z" />
    <glyph glyph-name="j" unicode="j" horiz-adv-x="251" 
d="M194 607q-16 0 -27 9.5t-11 27.5q0 25 17 39t38 14q16 0 27 -9.5t11 -27.5q0 -26 -16.5 -39.5t-38.5 -13.5zM51 494h155l-99 -563q-15 -87 -51.5 -130.5t-116.5 -43.5q-49 0 -90 25l30 53q31 -18 68 -18q47 1 66.5 29t29.5 85l89 505h-92z" />
    <glyph glyph-name="k" unicode="k" horiz-adv-x="535" 
d="M142 641h-86l11 59h151l-77 -433l88 70l145 105l9 54h144l-9 -57h-62l-203 -152l104 -175q27 -44 47 -52.5t69 4.5l-10 -60q-53 -17 -89.5 -1t-69.5 73l-104 174l-71 -51l-35 -199h-66z" />
    <glyph glyph-name="l" unicode="l" horiz-adv-x="253" 
d="M50 112l95 531h-87l10 57h152l-105 -588q-2 -10 -2 -18.5t2 -14t3.5 -10.5t7 -7t8 -4t11 -2t11 -0.5t13 1t13 2t13.5 2.5l-6 -60q-46 -4 -81 -1.5t-51 30t-7 82.5z" />
    <glyph glyph-name="m" unicode="m" horiz-adv-x="981" 
d="M119 0h-68l78 436h-85l10 59h149l-13 -81q59 90 171 90q62 0 103.5 -29.5t47.5 -88.5q34 59 88 88.5t112 29.5q98 0 143 -58.5t27 -155.5q-9 -49 -31 -178q-2 -10 -2.5 -18.5t2 -14t3.5 -10.5t7 -7t8 -4t11 -2t11 -0.5t13 1t13 2t14 2.5l-7 -60q-46 -4 -81 -1.5t-51 30
t-6 82.5l31 178q12 69 -18.5 110t-98.5 41q-64 0 -113 -43.5t-60 -110.5l-51 -287h-64l51 287q11 69 -21.5 112t-100.5 42q-64 0 -112 -43.5t-59 -110.5z" />
    <glyph glyph-name="n" unicode="n" horiz-adv-x="656" 
d="M163 272l-48 -272h-64l78 437h-87l11 59h144l-12 -88q76 96 194 96q104 0 148.5 -58.5t25.5 -165.5q-16 -104 -29 -168q-5 -31 4.5 -44.5t28.5 -12t42 4.5q3 1 5 1l-7 -60q-46 -4 -80.5 -1.5t-50.5 30t-7 82.5l29 167q15 83 -16 123t-110 40q-73 0 -129.5 -48t-69.5 -122
z" />
    <glyph glyph-name="o" unicode="o" horiz-adv-x="607" 
d="M36 204q0 130 90 215t214 85q97 0 155.5 -59t58.5 -156q0 -131 -88 -214t-216 -83q-95 0 -154.5 58t-59.5 154zM485 245q16 88 -29 143.5t-126 55.5q-93 0 -160.5 -66.5t-67.5 -165.5q0 -73 42 -116t116 -43q85 0 147 52.5t78 139.5z" />
    <glyph glyph-name="p" unicode="p" horiz-adv-x="661" 
d="M315 50q93 0 159.5 64t66.5 167q0 75 -44 115.5t-116 40.5q-98 0 -160.5 -67t-62.5 -160q0 -69 42 -114.5t115 -45.5zM70 -238h-63l119 675h-85l10 58h148l-15 -99q37 52 95 78.5t120 25.5q94 -2 151 -57.5t57 -151.5q0 -132 -85.5 -216.5t-214.5 -84.5
q-60 0 -109.5 27.5t-68.5 80.5z" />
    <glyph glyph-name="q" unicode="q" horiz-adv-x="641" 
d="M467 -238h-62l58 331q-36 -53 -95 -78t-121 -25q-96 0 -153 57.5t-57 154.5q0 132 87.5 216t211.5 84q61 0 110 -29t68 -81l19 102h62zM264 53q96 0 160 66.5t64 159.5q0 71 -40.5 116t-115.5 45q-95 0 -161.5 -62.5t-66.5 -166.5q0 -75 41 -116.5t119 -41.5z" />
    <glyph glyph-name="r" unicode="r" horiz-adv-x="454" 
d="M117 0h-65l77 436h-86l10 58h143l-8 -82q29 44 77 67t100 23q55 0 104 -33l-39 -55q-38 25 -81 25q-72 -1 -121 -44t-61 -113z" />
    <glyph glyph-name="s" unicode="s" horiz-adv-x="509" 
d="M469 462l-23 -113h-56l11 76q-44 26 -118 26q-65 0 -108 -24.5t-43 -71.5q0 -34 33 -49t91 -22q102 -15 139 -40q54 -36 42 -109q-8 -52 -45.5 -85.5t-84.5 -46.5t-103 -13q-102 0 -193 58l21 116h55l-11 -79q59 -35 140 -35q34 0 64 6t59.5 27t35.5 54q8 44 -27.5 62.5
t-106.5 26.5q-39 6 -66 13.5t-55.5 22.5t-41.5 41.5t-9 62.5q9 72 74 106.5t150 34.5q101 0 176 -45z" />
    <glyph glyph-name="t" unicode="t" horiz-adv-x="377" 
d="M174 634l66 7l-26 -148h161l-10 -55h-162l-50 -281q-9 -52 5 -78.5t62 -26.5q36 0 79 20l12 -55q-52 -22 -102 -24q-78 -1 -106.5 41t-13.5 123l50 281h-102l10 55h102z" />
    <glyph glyph-name="u" unicode="u" horiz-adv-x="653" 
d="M583 495l-69 -381q-5 -30 6 -43.5t31 -12.5t44 4l-7 -57q-37 -4 -69 -4t-52 21t-17 63q-77 -92 -197 -92q-105 -1 -150 58.5t-26 165.5l39 220h-81l9 58h147l-49 -277q-15 -83 15.5 -124t115.5 -41q74 1 129 50t69 124l37 210h-86l9 58h152z" />
    <glyph glyph-name="v" unicode="v" horiz-adv-x="588" 
d="M509 495q18 -70 22 -139.5t-9.5 -135t-43.5 -115.5t-86.5 -80.5t-132.5 -30.5q-98 0 -150 63.5t-32 174.5l37 205h-81l9 58h147l-47 -262q-16 -90 19 -134t113 -44q60 3 102.5 34.5t62.5 79t26.5 106.5t0.5 115t-21 105h64z" />
    <glyph glyph-name="w" unicode="w" horiz-adv-x="942" 
d="M863 495q18 -70 22 -139.5t-9.5 -135t-43.5 -115.5t-86.5 -80.5t-132.5 -30.5q-63 0 -106 29t-58 87q-46 -65 -96 -91t-111 -26q-99 -1 -142.5 58.5t-24.5 165.5l39 220h-81l9 58h147l-49 -277q-15 -83 14 -124t108 -41q57 1 108.5 49.5t68.5 128.5l45 264h66l-45 -262
q-32 -178 123 -178q60 3 102.5 34.5t62.5 79t26.5 106.5t0.5 115t-21 105h64z" />
    <glyph glyph-name="x" unicode="x" horiz-adv-x="556" 
d="M331 76q-15 25 -38 70t-34 64l-134 -152l-11 -58h-139l9 58h65l180 200q-10 19 -30 60t-32 62q-24 43 -42.5 52t-66.5 3l11 58q58 12 89.5 -3.5t62.5 -74.5q8 -14 56 -116l124 142l9 55h141l-11 -58h-67l-165 -185q14 -24 38 -70.5t37 -68.5q27 -45 45.5 -53.5t65.5 1.5
l-10 -58q-57 -14 -89 0.5t-64 71.5z" />
    <glyph glyph-name="y" unicode="y" horiz-adv-x="629" 
d="M432 -18l18 98q-38 -51 -85.5 -69.5t-109.5 -19.5q-98 0 -146.5 60t-29.5 165l39 220h-84l11 58h149l-49 -277q-14 -81 17 -123.5t116 -41.5q71 1 126 50.5t68 122.5l37 211h-85l11 58h149l-90 -512q-20 -118 -91 -177t-174 -59q-100 0 -149.5 47.5t-41.5 130.5h62
q-4 -59 29.5 -87.5t109.5 -28.5q71 0 124 44t69 130z" />
    <glyph glyph-name="z" unicode="z" horiz-adv-x="490" 
d="M125 359h-57l24 135h375l-6 -32l-363 -401h241l19 91h57l-27 -152h-400l4 23l371 412h-222z" />
    <glyph glyph-name="braceleft" unicode="{" horiz-adv-x="321" 
d="M42 318q77 0 96 110l26 145q16 88 62.5 122.5t129.5 16.5l-9 -53q-54 12 -80 -6.5t-38 -81.5l-26 -143q-5 -29 -9 -43.5t-13.5 -36.5t-27 -35t-43.5 -20q19 -5 31 -16.5t17 -23t5 -30.5t-1.5 -31.5t-5.5 -33.5l-26 -144q-11 -63 8.5 -81t79.5 -9l-11 -52
q-90 -16 -124 17.5t-18 121.5l26 147q19 109 -58 109z" />
    <glyph glyph-name="bar" unicode="|" horiz-adv-x="259" 
d="M172 718h64l-146 -829h-64z" />
    <glyph glyph-name="braceright" unicode="}" horiz-adv-x="318" 
d="M284 315l-8 -50q-78 0 -97 -110l-26 -147q-15 -87 -60.5 -120.5t-130.5 -17.5l9 50q56 -10 82 8t37 81l25 145q4 24 6.5 34t9.5 30.5t15.5 31.5t24.5 22.5t37 16.5q-19 5 -31 16.5t-17 23t-5 31t1.5 31t5.5 34.5l25 142q11 64 -8.5 83.5t-77.5 8.5l9 50q89 17 123 -17.5
t19 -122.5l-25 -144q-19 -110 57 -110z" />
    <glyph glyph-name="asciitilde" unicode="~" horiz-adv-x="631" 
d="M518 354l48 -20q-29 -68 -80.5 -90t-126.5 10l-103 58q-89 45 -142 -50l-45 21q21 42 52.5 68.5t73.5 32.5t90 -21l102 -56q89 -48 131 47z" />
    <glyph glyph-name="uni00A0" unicode="&#xa0;" horiz-adv-x="260" 
 />
    <glyph glyph-name="exclamdown" unicode="&#xa1;" horiz-adv-x="250" 
d="M199 454q0 -26 -17.5 -40.5t-40.5 -14.5q-17 0 -28 10t-11 29q0 26 17.5 40.5t39.5 14.5q17 0 28.5 -10t11.5 -29zM71 -210h-69l97 549h69z" />
    <glyph glyph-name="cent" unicode="&#xa2;" horiz-adv-x="530" 
d="M204 -87l12 72q-83 9 -134 65t-51 144q0 119 77.5 199.5t196.5 94.5l11 62h62l-11 -62q86 -11 139 -71l-50 -42q-46 55 -129 55q-94 0 -162 -62t-68 -166q0 -75 45 -117t117 -42q77 0 149 59l34 -46q-75 -63 -164 -71l-12 -72h-62z" />
    <glyph glyph-name="sterling" unicode="&#xa3;" horiz-adv-x="648" 
d="M4 0l13 62q77 60 105 119t28 125h-91l10 57h78q-6 78 -6 91q0 123 81 188t203 65q101 0 156.5 -44t38.5 -143h-61q11 70 -31 98.5t-114 28.5q-93 0 -150 -49.5t-57 -142.5q0 -7 3 -91h251l-10 -56h-238q2 -151 -119 -247h391l21 110h62l-30 -171h-534z" />
    <glyph glyph-name="currency" unicode="&#xa4;" horiz-adv-x="568" 
d="M140 154l-69 -60l-39 47l69 59q-29 54 -16.5 123t60.5 123l-49 59l55 47l49 -60q56 35 125 35q67 0 112 -35l70 60l39 -47l-69 -59q29 -54 16.5 -123.5t-61.5 -122.5l50 -59l-55 -47l-51 60q-53 -33 -124 -33q-66 0 -112 33zM262 175q79 0 127.5 52.5t48.5 119.5
q0 53 -31.5 90t-91.5 37q-78 0 -127 -53.5t-49 -120.5q0 -53 31.5 -89t91.5 -36z" />
    <glyph glyph-name="yen" unicode="&#xa5;" horiz-adv-x="749" 
d="M186 290l9 53h112l-140 293h-74l11 64h240l-11 -64h-85l135 -291l240 291h-86l11 64h239l-11 -64h-73l-246 -293h111l-9 -53h-146l-8 -12l-9 -48h154l-9 -53h-154l-20 -114h93l-11 -63h-255l11 63h93l20 114h-151l9 53h151l9 48l-3 12h-147z" />
    <glyph glyph-name="brokenbar" unicode="&#xa6;" horiz-adv-x="268" 
d="M177 342h-69l64 365h69zM96 275h69l-64 -363h-69z" />
    <glyph glyph-name="section" unicode="&#xa7;" horiz-adv-x="553" 
d="M274 267q66 0 115 23.5t49 66.5q0 38 -39.5 58t-93.5 22q-70 0 -117 -24t-47 -72q0 -33 39 -53.5t94 -20.5zM356 715q122 0 180 -69l-50 -38q-48 48 -142 50q-64 1 -111.5 -23.5t-47.5 -67.5q0 -59 129 -75q43 -4 74 -10.5t64 -21t47 -43t5 -68.5q-9 -43 -44 -71t-81 -37
q48 -15 71 -45.5t14 -72.5q-8 -40 -34.5 -69t-62.5 -44t-72 -21.5t-73 -6.5q-69 0 -125 25t-81 72l53 43q46 -80 165 -80q25 0 49.5 4t49 12.5t42 26t22.5 41.5q8 39 -31 58t-107 26q-79 7 -131 36.5t-52 86.5q0 41 34.5 80t89.5 50q-45 12 -66.5 40.5t-14.5 70.5
q13 70 82 105.5t155 35.5z" />
    <glyph glyph-name="dieresis" unicode="&#xa8;" horiz-adv-x="467" 
d="M218 628q-17 0 -28 10t-11 27q0 25 17 39t38 14q17 0 28 -10t11 -27q0 -25 -17 -39t-38 -14zM440 628q-17 0 -28 10t-11 27q0 25 17 39t38 14q17 0 28 -10t11 -27q0 -25 -17 -39t-38 -14z" />
    <glyph glyph-name="copyright" unicode="&#xa9;" horiz-adv-x="834" 
d="M492 715q143 0 223 -87t80 -219q0 -180 -120 -303t-312 -123q-145 0 -225 87t-80 219q0 83 31.5 160t86.5 136t137.5 94.5t178.5 35.5zM121 295q0 -114 64.5 -185t187.5 -71q159 0 259.5 107t100.5 258q0 113 -63.5 183.5t-187.5 70.5q-158 0 -259.5 -106.5
t-101.5 -256.5zM602 490l-45 -41q-33 41 -92 41q-67 0 -117 -45.5t-50 -115.5q0 -51 33.5 -83.5t84.5 -32.5q56 0 106 42l33 -40q-69 -58 -149 -58q-75 0 -121 45t-46 119q0 97 69.5 162t165.5 65q81 0 128 -58z" />
    <glyph glyph-name="ordfeminine" unicode="&#xaa;" horiz-adv-x="500" 
d="M304 652q-55 0 -95 -37.5t-40 -95.5q0 -43 26.5 -69t67.5 -26q74 0 114 65q34 55 15 107q-20 56 -88 56zM427 377h-53l9 59q-52 -65 -134 -65q-61 0 -100 37t-39 101q0 89 59 143.5t141 54.5q36 0 66.5 -17t44.5 -47l10 58h53zM77 258l10 54h339l-10 -54h-339z" />
    <glyph glyph-name="guillemotleft" unicode="&#xab;" horiz-adv-x="423" 
d="M264 76l-99 221l177 220h70l-175 -220l97 -221h-70zM49 297l177 220h70l-175 -220l97 -221h-70z" />
    <glyph glyph-name="logicalnot" unicode="&#xac;" horiz-adv-x="510" 
d="M444 366l-35 -196h-60l24 136h-297l11 60h357z" />
    <glyph glyph-name="registered" unicode="&#xae;" horiz-adv-x="832" 
d="M490 713q145 0 224 -86t79 -218q0 -83 -30.5 -159.5t-84.5 -136t-137 -95t-180 -35.5q-145 0 -224 86t-79 218q0 112 50.5 208t151 157t230.5 61zM120 291q0 -112 65.5 -181.5t185.5 -69.5q159 0 259.5 106.5t100.5 256.5q0 112 -65.5 184t-184.5 72q-160 0 -260.5 -108
t-100.5 -260zM344 350h112q54 0 79 47q21 40 0 70q-16 22 -51 22h-115zM255 164l67 378h171q77 0 101.5 -55.5t-11.5 -114t-109 -66.5l93 -132l-2 -10h-63l-90 137h-77l-24 -137h-56z" />
    <glyph glyph-name="macron" unicode="&#xaf;" horiz-adv-x="545" 
d="M173 645l10 57h320l-10 -57h-320z" />
    <glyph glyph-name="degree" unicode="&#xb0;" horiz-adv-x="319" 
d="M200 517q-72 0 -89 55q-15 50 21 99q38 52 103 52q67 0 84 -55q16 -50 -18 -99q-36 -52 -101 -52zM227 681q-45 0 -67 -42q-19 -38 3 -64q14 -17 43 -17q45 0 65 42q18 38 -4 64q-13 17 -40 17z" />
    <glyph glyph-name="plusminus" unicode="&#xb1;" horiz-adv-x="520" 
d="M81 340l10 60h159l29 160h62l-29 -160h158l-10 -60h-158l-29 -162h-62l29 162h-159zM34 41l10 59h369l-10 -59h-369z" />
    <glyph glyph-name="twosuperior" unicode="&#xb2;" horiz-adv-x="354" 
d="M162 684h-53q10 57 53.5 82.5t100.5 25.5q52 0 86.5 -21.5t34.5 -68.5q0 -30 -10.5 -51.5t-24 -33.5t-37.5 -20.5t-40 -11t-42 -5.5q-20 -2 -32.5 -4.5t-29 -9.5t-26 -21t-13.5 -35l-5 -31h171l10 53h50l-18 -103h-276l14 82q18 101 150 114q34 2 54 7t35.5 20.5
t15.5 41.5q0 50 -75 50q-82 0 -93 -60z" />
    <glyph glyph-name="threesuperior" unicode="&#xb3;" horiz-adv-x="354" 
d="M169 732l-10 -46h-47l16 93h264l-4 -20l-115 -129q40 -3 63.5 -24t23.5 -59q0 -72 -49.5 -105t-118.5 -33q-58 0 -93.5 27t-26.5 84h53q-6 -60 77 -60q41 0 71.5 17t30.5 60q0 55 -76 55h-31l-1 16l111 124h-138z" />
    <glyph glyph-name="acute" unicode="&#xb4;" horiz-adv-x="227" 
d="M186 573h-60l1 4l96 123h80z" />
    <glyph glyph-name="_181" unicode="&#xb5;" horiz-adv-x="613" 
d="M521 0h-58l9 77q-30 -47 -81.5 -71t-102.5 -22q-53 0 -96 22t-53 66l-52 -296h-61l127 718h63l-51 -291q-13 -74 28.5 -117.5t106.5 -44.5q67 0 124 45t72 131l49 277h64z" />
    <glyph glyph-name="paragraph" unicode="&#xb6;" horiz-adv-x="794" 
d="M652 639h-257l-150 -855h-64l71 406q-77 1 -127 39t-66 94t-4 121q19 103 99.5 179t197.5 76h476l-11 -60h-103l-150 -855h-62z" />
    <glyph glyph-name="periodcentered" unicode="&#xb7;" horiz-adv-x="242" 
d="M175 322q0 -26 -18.5 -41t-41.5 -15q-18 0 -30 10.5t-12 29.5q0 27 18 42.5t41 15.5q18 0 30.5 -11.5t12.5 -30.5z" />
    <glyph glyph-name="cedilla" unicode="&#xb8;" horiz-adv-x="315" 
d="M86 -76l-12 8l39 90h50l-24 -57q59 2 78.5 -31t2.5 -74q-32 -75 -126 -75q-76 2 -98 57l36 29q20 -37 71 -37q50 0 67 37q14 30 -10.5 48.5t-73.5 4.5z" />
    <glyph glyph-name="onesuperior" unicode="&#xb9;" horiz-adv-x="235" 
d="M54 422l8 47h65l44 247l-59 -15l9 49l115 27l-55 -308h66l-8 -47h-185z" />
    <glyph glyph-name="ordmasculine" unicode="&#xba;" horiz-adv-x="482" 
d="M253 370q-62 0 -101 37t-39 102q0 90 58.5 143.5t141.5 53.5q63 0 102 -36.5t39 -100.5q0 -90 -59.5 -144.5t-141.5 -54.5zM263 424q57 0 95 38t38 97q0 43 -25.5 69.5t-66.5 26.5q-55 0 -94 -38.5t-39 -98.5q0 -43 24.5 -68.5t67.5 -25.5zM74 254l9 53h322l-9 -53h-322z
" />
    <glyph glyph-name="guillemotright" unicode="&#xbb;" horiz-adv-x="422" 
d="M258 298l-177 -220h-69l175 220l-98 219h69zM274 517l100 -219l-177 -220h-69l174 220l-97 219h69z" />
    <glyph glyph-name="onequarter" unicode="&#xbc;" horiz-adv-x="725" 
d="M144 -2h-62l499 706h63zM55 348l8 47h63l44 246l-56 -12l8 47l112 26l-54 -307h66l-8 -47h-183zM587 358h73l-41 -231h42l-9 -49h-42l-13 -77h-53l13 77h-191l4 43zM432 127h134l32 180z" />
    <glyph glyph-name="onehalf" unicode="&#xbd;" horiz-adv-x="779" 
d="M142 -2h-62l500 706h62zM54 348l8 47h63l44 247l-57 -13l8 48l114 26l-55 -308h66l-8 -47h-183zM510 255h-53q10 56 53 81.5t100 25.5q52 0 86.5 -21.5t34.5 -68.5q0 -30 -10.5 -51.5t-24 -33.5t-37.5 -20.5t-40 -11t-42 -5.5q-20 -2 -32 -4.5t-28.5 -9t-26 -20.5
t-13.5 -35l-5 -31h170l11 52h50l-19 -103h-276l15 83q18 100 149 113q27 3 42 6t32 10t24.5 20t7.5 34q0 50 -76 50q-82 0 -92 -60z" />
    <glyph glyph-name="threequarters" unicode="&#xbe;" horiz-adv-x="791" 
d="M198 -3h-62l514 709h63zM163 660l-10 -44h-46l17 91h258l-4 -19l-114 -125q38 -2 62.5 -25t24.5 -58q0 -71 -48.5 -103t-115.5 -32q-58 0 -92.5 27t-25.5 82h52q-5 -32 18.5 -45.5t57.5 -13.5q40 0 70 16.5t30 58.5q0 26 -20 40.5t-56 14.5h-30l-1 15l108 120h-135z
M638 364h73l-42 -236h58l-8 -49h-58l-14 -80h-53l14 80h-191l3 43zM482 128h134l33 184z" />
    <glyph glyph-name="questiondown" unicode="&#xbf;" horiz-adv-x="595" 
d="M365 508q17 0 28.5 -10.5t11.5 -29.5q0 -26 -17.5 -40.5t-39.5 -14.5q-20 0 -32 12.5t-7 34.5q4 23 20 35.5t36 12.5zM443 1l69 -1q-19 -105 -103.5 -155.5t-193.5 -50.5q-100 0 -167 41.5t-67 131.5q0 44 13.5 79.5t31.5 57t48 40t50.5 27t51.5 19.5q68 22 91.5 52
t36.5 109h69q-17 -101 -56.5 -147t-125.5 -73q-69 -22 -103.5 -54t-34.5 -100q0 -65 51 -92.5t124 -27.5q76 0 138 34t77 110z" />
    <glyph glyph-name="Agrave" unicode="&#xc0;" horiz-adv-x="806" 
d="M456 753l-72 128h80l53 -124l-1 -4h-60zM248 270h317l-91 363zM42 63l360 574h-88l11 63h195l171 -637h71l-11 -63h-233l11 63h90l-37 145h-372l-90 -145h89l-11 -63h-238l11 63h71z" />
    <glyph glyph-name="Aacute" unicode="&#xc1;" horiz-adv-x="806" 
d="M507 753h-60l1 4l96 123h80zM248 270h317l-91 363zM42 63l360 574h-88l11 63h195l171 -637h71l-11 -63h-233l11 63h90l-37 145h-372l-90 -145h89l-11 -63h-238l11 63h71z" />
    <glyph glyph-name="Acircumflex" unicode="&#xc2;" horiz-adv-x="806" 
d="M478 874h46l115 -123l-1 -5l-66 1l-76 81l-103 -82h-71l1 5zM248 270h317l-91 363zM42 63l360 574h-88l11 63h195l171 -637h71l-11 -63h-233l11 63h90l-37 145h-372l-90 -145h89l-11 -63h-238l11 63h71z" />
    <glyph glyph-name="Atilde" unicode="&#xc3;" horiz-adv-x="806" 
d="M380 769l-40 21q18 43 53 60t72 0q4 -1 24 -12.5t24 -12.5q40 -20 64 27l41 -18q-20 -47 -55.5 -63.5t-68.5 1.5q-4 1 -24 13t-23 12q-43 21 -67 -28zM248 270h317l-91 363zM42 63l360 574h-88l11 63h195l171 -637h71l-11 -63h-233l11 63h90l-37 145h-372l-90 -145h89
l-11 -63h-238l11 63h71z" />
    <glyph glyph-name="Adieresis" unicode="&#xc4;" horiz-adv-x="806" 
d="M333 791q0 25 17 39t38 14q16 0 27 -10t11 -27q0 -25 -16.5 -39t-37.5 -14q-17 0 -28 10t-11 27zM555 791q0 25 17 39t38 14q16 0 27 -10t11 -27q0 -25 -16.5 -39t-37.5 -14q-17 0 -28 10t-11 27zM248 270h317l-91 363zM42 63l360 574h-88l11 63h195l171 -637h71l-11 -63
h-233l11 63h90l-37 145h-372l-90 -145h89l-11 -63h-238l11 63h71z" />
    <glyph glyph-name="Aring" unicode="&#xc5;" horiz-adv-x="806" 
d="M504 817q-32 0 -52.5 -19.5t-20.5 -47.5q0 -22 14.5 -36t37.5 -14q29 0 49 17t25 42q3 25 -11 41.5t-42 16.5zM245 270h317q-4 14 -40 168.5t-49 204.5zM423 668q-40 22 -40 77q0 52 39.5 84t89.5 32q39 0 66.5 -23t27.5 -63q0 -38 -21 -66t-56 -42l162 -604h71l-11 -63
h-235l11 63h90q-7 25 -19 73.5t-19 71.5h-372l-90 -145h89l-11 -63h-235l11 63h71z" />
    <glyph glyph-name="AE" unicode="&#xc6;" horiz-adv-x="969" 
d="M297 287h210l61 340zM415 637l11 63h551l-30 -171h-62l17 108h-268l-44 -249h267l-11 -64h-267l-46 -259h283l22 108h62l-31 -173h-499l11 64h86l30 166h-244l-133 -166h91l-11 -64h-245l11 64h77l463 573h-91z" />
    <glyph glyph-name="Ccedilla" unicode="&#xc7;" horiz-adv-x="705" 
d="M595 142l41 -46q-119 -102 -269 -105l-26 -55q59 2 78 -31t1 -74q-16 -37 -51 -56.5t-74 -19.5q-33 0 -59.5 14t-38.5 40l38 31q19 -36 68 -36q50 2 66 37q14 30 -10 48t-74 5l-9 9l43 91q-87 8 -148 50.5t-88.5 104.5t-27.5 139q0 79 29.5 153.5t83 135t137.5 97
t183 36.5q129 0 214 -82q-1 -6 -11 -61.5t-16 -83.5h-62l18 113q-60 48 -154 48q-141 0 -233 -86t-114 -211q-20 -125 43 -207.5t200 -82.5q122 0 222 85z" />
    <glyph glyph-name="Egrave" unicode="&#xc8;" horiz-adv-x="681" 
d="M486 754h-60l-72 128h79l54 -124zM168 65h360l22 108h62l-31 -173h-583l11 63h90l101 574h-88l11 63h566l-30 -171h-62l17 107h-345l-44 -248h341l-11 -65h-341z" />
    <glyph glyph-name="Eacute" unicode="&#xc9;" horiz-adv-x="681" 
d="M475 753h-60v4l97 123h80zM168 65h360l22 108h62l-31 -173h-583l11 63h90l101 574h-88l11 63h566l-30 -171h-62l17 107h-345l-44 -248h341l-11 -65h-341z" />
    <glyph glyph-name="Ecircumflex" unicode="&#xca;" horiz-adv-x="681" 
d="M283 752v5l159 128h47l114 -127l-1 -6h-68l-78 84l-105 -84h-68zM168 65h360l22 108h62l-31 -173h-583l11 63h90l101 574h-88l11 63h566l-30 -171h-62l17 107h-345l-44 -248h341l-11 -65h-341z" />
    <glyph glyph-name="Edieresis" unicode="&#xcb;" horiz-adv-x="681" 
d="M334 759q-17 0 -28 10t-11 27q0 25 17 39t38 14q16 0 27.5 -10t11.5 -27q0 -25 -17 -39t-38 -14zM556 759q-17 0 -28 10t-11 27q0 25 17 39t38 14q16 0 27.5 -10t11.5 -27q0 -25 -17 -39t-38 -14zM168 65h360l22 108h62l-31 -173h-583l11 63h90l101 574h-88l11 63h566
l-30 -171h-62l17 107h-345l-44 -248h341l-11 -65h-341z" />
    <glyph glyph-name="Igrave" unicode="&#xcc;" horiz-adv-x="351" 
d="M292 750h-60l-72 128h80l53 -124zM168 63h93l-11 -63h-253l11 63h92l101 574h-90l11 63h249l-11 -63h-91z" />
    <glyph glyph-name="Iacute" unicode="&#xcd;" horiz-adv-x="351" 
d="M282 750h-60l1 5l96 123h81zM168 63h93l-11 -63h-253l11 63h92l101 574h-90l11 63h249l-11 -63h-91z" />
    <glyph glyph-name="Icircumflex" unicode="&#xce;" horiz-adv-x="351" 
d="M105 748l1 5l151 133h44l105 -132l-1 -6h-65l-71 87l-100 -87h-64zM168 63h93l-11 -63h-253l11 63h92l101 574h-90l11 63h249l-11 -63h-91z" />
    <glyph glyph-name="Idieresis" unicode="&#xcf;" horiz-adv-x="351" 
d="M164 754q-17 0 -28 9.5t-11 26.5q0 25 17 39.5t38 14.5q16 0 27 -10t11 -27q0 -25 -16.5 -39t-37.5 -14zM353 753q-17 0 -28 10t-11 27q0 25 17 39.5t38 14.5q16 0 27 -10t11 -28q0 -25 -16.5 -39t-37.5 -14zM168 63h93l-11 -63h-253l11 63h92l101 574h-90l11 63h249
l-11 -63h-91z" />
    <glyph glyph-name="Eth" unicode="&#xd0;" horiz-adv-x="788" 
d="M345 0h-346l11 63h90l45 257h-81l11 60h80l46 258h-88l12 63h326q146 0 220.5 -80t76.5 -206q2 -80 -22 -153t-72 -132.5t-127.5 -94.5t-181.5 -35zM170 64h186q80 0 144 30t102 79.5t57.5 108.5t19.5 121q0 49 -12.5 89.5t-39.5 74t-75 52t-113 18.5h-168l-46 -257h146
l-11 -60h-145z" />
    <glyph glyph-name="Ntilde" unicode="&#xd1;" horiz-adv-x="833" 
d="M344 796q20 44 57.5 62t77.5 1q5 -1 26 -13.5t25 -13.5q44 -21 68 28l44 -19q-20 -47 -58 -64.5t-73 1.5q-5 1 -26.5 13t-24.5 12q-45 22 -72 -28zM247 0h-247l11 63h88l101 574h-90l11 63h137l347 -571l89 508h-90l11 63h246l-11 -63h-88l-112 -637h-49l-344 565
l-89 -502h90z" />
    <glyph glyph-name="Ograve" unicode="&#xd2;" horiz-adv-x="810" 
d="M533 776h-60l-73 128h81l53 -123zM478 711q86 0 149.5 -31t95.5 -82t45.5 -116.5t-0.5 -135.5q-12 -73 -44 -136.5t-83 -114t-125.5 -79.5t-164.5 -29q-147 0 -224 85.5t-73 213.5q4 111 53 206t146.5 157t224.5 62zM700 349q13 57 4 110.5t-33.5 95.5t-77 67t-126.5 25
q-136 0 -226 -86.5t-112 -211.5q-6 -46 -5 -88.5t18 -80.5t44 -66.5t72.5 -45t104.5 -16.5q69 0 129.5 25.5t102 68t68.5 94.5t37 109z" />
    <glyph glyph-name="Oacute" unicode="&#xd3;" horiz-adv-x="810" 
d="M517 774h-60v4l97 124h80zM478 711q86 0 149.5 -31t95.5 -82t45.5 -116.5t-0.5 -135.5q-12 -73 -44 -136.5t-83 -114t-125.5 -79.5t-164.5 -29q-147 0 -224 85.5t-73 213.5q4 111 53 206t146.5 157t224.5 62zM700 349q13 57 4 110.5t-33.5 95.5t-77 67t-126.5 25
q-136 0 -226 -86.5t-112 -211.5q-6 -46 -5 -88.5t18 -80.5t44 -66.5t72.5 -45t104.5 -16.5q69 0 129.5 25.5t102 68t68.5 94.5t37 109z" />
    <glyph glyph-name="Ocircumflex" unicode="&#xd4;" horiz-adv-x="810" 
d="M543 912l119 -134l-1 -5h-68l-82 90l-113 -90h-69l1 5l167 134h46zM478 711q86 0 149.5 -31t95.5 -82t45.5 -116.5t-0.5 -135.5q-12 -73 -44 -136.5t-83 -114t-125.5 -79.5t-164.5 -29q-147 0 -224 85.5t-73 213.5q4 111 53 206t146.5 157t224.5 62zM700 349
q13 57 4 110.5t-33.5 95.5t-77 67t-126.5 25q-136 0 -226 -86.5t-112 -211.5q-6 -46 -5 -88.5t18 -80.5t44 -66.5t72.5 -45t104.5 -16.5q69 0 129.5 25.5t102 68t68.5 94.5t37 109z" />
    <glyph glyph-name="Otilde" unicode="&#xd5;" horiz-adv-x="810" 
d="M492 871q2 -1 22 -12.5t24 -12.5q43 -21 67 28l41 -19q-19 -47 -55 -63.5t-70 1.5q-4 1 -24 13t-24 13q-43 21 -67 -28l-41 19q18 43 53 60.5t74 0.5zM478 711q86 0 149.5 -31t95.5 -82t45.5 -116.5t-0.5 -135.5q-12 -73 -44 -136.5t-83 -114t-125.5 -79.5t-164.5 -29
q-147 0 -224 85.5t-73 213.5q4 111 53 206t146.5 157t224.5 62zM700 349q13 57 4 110.5t-33.5 95.5t-77 67t-126.5 25q-136 0 -226 -86.5t-112 -211.5q-6 -46 -5 -88.5t18 -80.5t44 -66.5t72.5 -45t104.5 -16.5q69 0 129.5 25.5t102 68t68.5 94.5t37 109z" />
    <glyph glyph-name="Odieresis" unicode="&#xd6;" horiz-adv-x="810" 
d="M440 829q0 -25 -16.5 -38.5t-38.5 -13.5q-16 0 -26.5 10t-10.5 27q0 24 16.5 38t37.5 14q15 0 26.5 -10t11.5 -27zM660 828q0 -23 -16 -36.5t-37 -14.5q-17 -1 -28 8.5t-11 27.5q0 24 16.5 38t37.5 14q15 0 26.5 -10t11.5 -27zM478 711q86 0 149.5 -31t95.5 -82
t45.5 -116.5t-0.5 -135.5q-12 -73 -44 -136.5t-83 -114t-125.5 -79.5t-164.5 -29q-147 0 -224 85.5t-73 213.5q4 111 53 206t146.5 157t224.5 62zM700 349q13 57 4 110.5t-33.5 95.5t-77 67t-126.5 25q-136 0 -226 -86.5t-112 -211.5q-6 -46 -5 -88.5t18 -80.5t44 -66.5
t72.5 -45t104.5 -16.5q69 0 129.5 25.5t102 68t68.5 94.5t37 109z" />
    <glyph glyph-name="multiply" unicode="&#xd7;" horiz-adv-x="452" 
d="M91 440l50 41l97 -117l137 116l35 -41l-140 -118l100 -120l-48 -40l-99 119l-141 -121l-35 42l142 122z" />
    <glyph glyph-name="Oslash" unicode="&#xd8;" horiz-adv-x="813" 
d="M133 349q-13 -74 5 -139t67 -104l395 512q-55 29 -129 29q-138 0 -228 -87.5t-110 -210.5zM709 400q0 124 -64 185l-395 -510q48 -21 116 -21q80 0 146.5 30.5t108.5 80.5t65 111t23 124zM481 712q95 0 161 -38l66 87h71l-91 -117q58 -50 78.5 -128.5t5.5 -166.5
q-13 -71 -46.5 -134.5t-85 -115t-125.5 -82t-160 -30.5q-83 0 -147 29l-73 -94h-69l95 124q-51 37 -77.5 102.5t-26.5 140.5q0 77 28.5 151.5t80.5 135.5t134.5 98.5t180.5 37.5z" />
    <glyph glyph-name="Ugrave" unicode="&#xd9;" horiz-adv-x="803" 
d="M523 751h-60l-73 127h80l53 -123v-4zM364 53q88 0 156.5 58t86.5 161l64 364h-92l12 64h247l-12 -64h-87l-64 -364q-24 -135 -110 -209t-213 -74q-119 0 -186 75.5t-44 207.5l64 364h-86l12 64h246l-12 -64h-92l-64 -364q-19 -104 33 -161.5t141 -57.5z" />
    <glyph glyph-name="Uacute" unicode="&#xda;" horiz-adv-x="803" 
d="M504 749h-62l1 5l98 121h83zM364 53q88 0 156.5 58t86.5 161l64 364h-92l12 64h247l-12 -64h-87l-64 -364q-24 -135 -110 -209t-213 -74q-119 0 -186 75.5t-44 207.5l64 364h-86l12 64h246l-12 -64h-92l-64 -364q-19 -104 33 -161.5t141 -57.5z" />
    <glyph glyph-name="Ucircumflex" unicode="&#xdb;" horiz-adv-x="803" 
d="M320 759l1 6l159 128h47l114 -128l-1 -6h-69l-77 85l-105 -85h-69zM364 53q88 0 156.5 58t86.5 161l64 364h-92l12 64h247l-12 -64h-87l-64 -364q-24 -135 -110 -209t-213 -74q-119 0 -186 75.5t-44 207.5l64 364h-86l12 64h246l-12 -64h-92l-64 -364q-19 -104 33 -161.5
t141 -57.5z" />
    <glyph glyph-name="Udieresis" unicode="&#xdc;" horiz-adv-x="803" 
d="M340 764q-17 0 -27.5 9.5t-10.5 26.5q0 25 16.5 39.5t37.5 14.5q16 0 27.5 -10t11.5 -27q0 -25 -17 -39t-38 -14zM628 763q-16 0 -27 10t-11 27q0 25 16.5 39.5t37.5 14.5q17 0 28 -10t11 -28q0 -25 -17 -39t-38 -14zM364 53q88 0 156.5 58t86.5 161l64 364h-92l12 64
h247l-12 -64h-87l-64 -364q-24 -135 -110 -209t-213 -74q-119 0 -186 75.5t-44 207.5l64 364h-86l12 64h246l-12 -64h-92l-64 -364q-19 -104 33 -161.5t141 -57.5z" />
    <glyph glyph-name="Yacute" unicode="&#xdd;" horiz-adv-x="714" 
d="M400 756l1 4l96 123h81l-118 -127h-60zM347 63h98l-11 -63h-261l11 63h94l39 219l-171 354h-73l11 64h239l-11 -64h-87l134 -289l238 289h-89l11 64h248l-11 -64h-74l-296 -354z" />
    <glyph glyph-name="Thorn" unicode="&#xde;" horiz-adv-x="703" 
d="M201 639h-90l11 62h253l-11 -62h-95l-15 -84h234q94 0 144 -49.5t50 -122.5q0 -93 -72.5 -162.5t-193.5 -69.5h-233l-16 -89h95l-11 -62h-253l11 62h90zM427 212q86 0 136.5 48.5t50.5 114.5q0 51 -35 85.5t-102 34.5h-233l-50 -283h233z" />
    <glyph glyph-name="germandbls" unicode="&#xdf;" horiz-adv-x="642" 
d="M148 517q16 94 87 144.5t162 50.5q86 0 137.5 -37.5t51.5 -113.5q0 -60 -34 -106t-89 -64q-25 -5 -41 -6q27 -2 39 -4q58 -17 88 -58t30 -97q0 -117 -76 -177.5t-184 -60.5q-62 0 -127 25l13 60q55 -26 115 -26q83 0 137 45.5t54 127.5q0 133 -179 133h-77l11 59h73
q30 0 58.5 6t58 20t47 43t17.5 70q0 100 -132 100q-145 0 -174 -135l-91 -516h-153l10 57h87z" />
    <glyph glyph-name="agrave" unicode="&#xe0;" horiz-adv-x="662" 
d="M345 576l-65 121h77l47 -117l-1 -4h-58zM327 439q96 0 137 -57t24 -139q-16 -80 -77.5 -136.5t-150.5 -56.5q-74 0 -116 44t-42 119q0 99 66.5 162.5t158.5 63.5zM606 57q-35 -10 -61.5 -1t-19.5 51l68 389h-62l-17 -97q-42 104 -176 104q-123 0 -212 -83.5t-89 -216.5
q0 -98 57.5 -155t152.5 -58q61 0 118.5 23.5t94.5 75.5q-6 -46 14 -69.5t53.5 -23.5t71.5 4z" />
    <glyph glyph-name="aacute" unicode="&#xe1;" horiz-adv-x="662" 
d="M376 576h-59l1 4l87 117h77zM327 439q96 0 137 -57t24 -139q-16 -80 -77.5 -136.5t-150.5 -56.5q-74 0 -116 44t-42 119q0 99 66.5 162.5t158.5 63.5zM606 57q-35 -10 -61.5 -1t-19.5 51l68 389h-62l-17 -97q-42 104 -176 104q-123 0 -212 -83.5t-89 -216.5
q0 -98 57.5 -155t152.5 -58q61 0 118.5 23.5t94.5 75.5q-6 -46 14 -69.5t53.5 -23.5t71.5 4z" />
    <glyph glyph-name="acircumflex" unicode="&#xe2;" horiz-adv-x="662" 
d="M221 568v5l155 128h44l111 -127l-1 -6h-66l-75 84l-102 -84h-66zM327 439q96 0 137 -57t24 -139q-16 -80 -77.5 -136.5t-150.5 -56.5q-74 0 -116 44t-42 119q0 99 66.5 162.5t158.5 63.5zM606 57q-35 -10 -61.5 -1t-19.5 51l68 389h-62l-17 -97q-42 104 -176 104
q-123 0 -212 -83.5t-89 -216.5q0 -98 57.5 -155t152.5 -58q61 0 118.5 23.5t94.5 75.5q-6 -46 14 -69.5t53.5 -23.5t71.5 4z" />
    <glyph glyph-name="atilde" unicode="&#xe3;" horiz-adv-x="662" 
d="M291 602l-41 20q18 42 53 59t73 0q4 -1 24.5 -12.5t24.5 -12.5q41 -21 65 26l42 -17q-20 -46 -56 -62t-70 2q-4 1 -24 12t-24 12q-42 20 -67 -27zM327 439q96 0 137 -57t24 -139q-16 -80 -77.5 -136.5t-150.5 -56.5q-74 0 -116 44t-42 119q0 99 66.5 162.5t158.5 63.5z
M606 57q-35 -10 -61.5 -1t-19.5 51l68 389h-62l-17 -97q-42 104 -176 104q-123 0 -212 -83.5t-89 -216.5q0 -98 57.5 -155t152.5 -58q61 0 118.5 23.5t94.5 75.5q-6 -46 14 -69.5t53.5 -23.5t71.5 4z" />
    <glyph glyph-name="adieresis" unicode="&#xe4;" horiz-adv-x="662" 
d="M271 601q-17 0 -27.5 9.5t-10.5 26.5q0 25 16.5 39.5t37.5 14.5q17 0 28 -10t11 -27q0 -25 -17 -39t-38 -14zM493 600q-16 0 -27 10t-11 27q0 25 16.5 39.5t37.5 14.5q17 0 28 -10t11 -28q0 -25 -17 -39t-38 -14zM327 439q96 0 137 -57t24 -139q-16 -80 -77.5 -136.5
t-150.5 -56.5q-74 0 -116 44t-42 119q0 99 66.5 162.5t158.5 63.5zM606 57q-35 -10 -61.5 -1t-19.5 51l68 389h-62l-17 -97q-42 104 -176 104q-123 0 -212 -83.5t-89 -216.5q0 -98 57.5 -155t152.5 -58q61 0 118.5 23.5t94.5 75.5q-6 -46 14 -69.5t53.5 -23.5t71.5 4z" />
    <glyph glyph-name="aring" unicode="&#xe5;" horiz-adv-x="662" 
d="M372 552q-38 0 -63.5 21t-25.5 56q0 48 37 76.5t85 28.5q37 0 64 -21t27 -57q0 -49 -37 -76.5t-87 -27.5zM398 694q-30 0 -49.5 -16.5t-19.5 -40.5q0 -19 14 -31t37 -12q31 0 51 16.5t20 40.5q0 19 -14.5 31t-38.5 12zM327 439q96 0 137 -57t24 -139
q-16 -80 -77.5 -136.5t-150.5 -56.5q-74 0 -116 44t-42 119q0 99 66.5 162.5t158.5 63.5zM606 57q-35 -10 -61.5 -1t-19.5 51l68 389h-62l-17 -97q-42 104 -176 104q-123 0 -212 -83.5t-89 -216.5q0 -98 57.5 -155t152.5 -58q61 0 118.5 23.5t94.5 75.5q-6 -46 14 -69.5
t53.5 -23.5t71.5 4z" />
    <glyph glyph-name="ae" unicode="&#xe6;" horiz-adv-x="1028" 
d="M551 274l370 -1q13 80 -29 124.5t-125 44.5q-74 0 -133.5 -44.5t-82.5 -123.5zM329 438q-93 0 -160.5 -63.5t-67.5 -163.5q0 -75 44.5 -119t115.5 -44q105 0 168 69t63 159q0 70 -42.5 116t-120.5 46zM496 0h-52l18 102q-36 -55 -95.5 -84t-118.5 -29q-94 0 -153 57.5
t-59 155.5q0 133 89 216t212 83q63 0 113 -30t64 -85l19 109h51l-18 -100q85 109 216 107q71 -1 122.5 -31.5t74.5 -93t-7 -157.5h-432q-7 -79 38.5 -123.5t122.5 -44.5q48 0 98.5 18.5t81.5 51.5l37 -39q-43 -44 -105.5 -67.5t-123.5 -23.5q-65 0 -111 27.5t-65 77.5z" />
    <glyph glyph-name="ccedilla" unicode="&#xe7;" horiz-adv-x="534" 
d="M422 111l35 -43q-86 -74 -188 -74h-5l-4 -1l-19 -45q58 1 76.5 -30t1.5 -73q-16 -37 -49.5 -54.5t-72.5 -15.5q-70 2 -97 52l36 30q20 -32 69 -35q47 -2 64 33q13 28 -10.5 46t-71.5 6l-10 9l36 81q-81 12 -128.5 64.5t-47.5 139.5q0 140 90.5 220.5t219.5 80.5
q88 0 159 -49l-23 -119h-58l15 85q-38 23 -103 23q-97 0 -165.5 -63.5t-68.5 -166.5q0 -75 46.5 -116t121.5 -41q88 0 151 56z" />
    <glyph glyph-name="egrave" unicode="&#xe8;" horiz-adv-x="590" 
d="M346 577l-73 127h80l54 -123l-1 -4h-60zM443 125l37 -44q-43 -44 -105 -66t-124 -22q-100 0 -157.5 56t-57.5 154q0 128 88.5 214t213.5 86q117 0 176 -72t21 -210h-434q-7 -80 36 -124t126 -44q47 0 98 19.5t82 52.5zM111 275h373q13 83 -26.5 126t-128.5 43
q-75 0 -135 -45t-83 -124z" />
    <glyph glyph-name="eacute" unicode="&#xe9;" horiz-adv-x="590" 
d="M312 582l96 123h81l-118 -128h-60zM443 125l37 -44q-43 -44 -105 -66t-124 -22q-100 0 -157.5 56t-57.5 154q0 128 88.5 214t213.5 86q117 0 176 -72t21 -210h-434q-7 -80 36 -124t126 -44q47 0 98 19.5t82 52.5zM111 275h373q13 83 -26.5 126t-128.5 43q-75 0 -135 -45
t-83 -124z" />
    <glyph glyph-name="ecircumflex" unicode="&#xea;" horiz-adv-x="590" 
d="M196 573l163 130h45l117 -130l-1 -6h-64l-80 88l-111 -88h-70zM443 125l37 -44q-43 -44 -105 -66t-124 -22q-100 0 -157.5 56t-57.5 154q0 128 88.5 214t213.5 86q117 0 176 -72t21 -210h-434q-7 -80 36 -124t126 -44q47 0 98 19.5t82 52.5zM111 275h373q13 83 -26.5 126
t-128.5 43q-75 0 -135 -45t-83 -124z" />
    <glyph glyph-name="edieresis" unicode="&#xeb;" horiz-adv-x="590" 
d="M225 646q0 24 16.5 38t36.5 14q16 0 26.5 -10t10.5 -27q0 -23 -16.5 -37t-36.5 -14q-16 0 -26.5 9.5t-10.5 26.5zM523 661q0 -24 -15.5 -37.5t-36.5 -13.5q-16 0 -27 9.5t-11 26.5q0 24 16 38t37 14q16 0 26.5 -10t10.5 -27zM443 125l37 -44q-43 -44 -105 -66t-124 -22
q-100 0 -157.5 56t-57.5 154q0 128 88.5 214t213.5 86q117 0 176 -72t21 -210h-434q-7 -80 36 -124t126 -44q47 0 98 19.5t82 52.5zM111 275h373q13 83 -26.5 126t-128.5 43q-75 0 -135 -45t-83 -124z" />
    <glyph glyph-name="igrave" unicode="&#xec;" horiz-adv-x="277" 
d="M162 568l-52 129h73l37 -125l-1 -4h-57zM72 112l58 326h-86l10 58h151q-12 -65 -34 -192t-34 -192q-2 -10 -2.5 -18.5t2 -14t4 -10.5t7 -7t8 -4t11 -2t11 -0.5t13.5 1t13 2t14 2.5l-7 -60q-47 -4 -82 -1.5t-51 30t-6 82.5z" />
    <glyph glyph-name="iacute" unicode="&#xed;" horiz-adv-x="277" 
d="M145 571l81 125h72l-97 -129h-57zM72 112l58 326h-86l10 58h151q-12 -65 -34 -192t-34 -192q-2 -10 -2.5 -18.5t2 -14t4 -10.5t7 -7t8 -4t11 -2t11 -0.5t13.5 1t13 2t14 2.5l-7 -60q-47 -4 -82 -1.5t-51 30t-6 82.5z" />
    <glyph glyph-name="icircumflex" unicode="&#xee;" horiz-adv-x="277" 
d="M50 564l2 9l128 124h38l82 -124l-2 -9h-56l-53 75l-82 -75h-57zM72 112l58 326h-86l10 58h151q-12 -65 -34 -192t-34 -192q-2 -10 -2.5 -18.5t2 -14t4 -10.5t7 -7t8 -4t11 -2t11 -0.5t13.5 1t13 2t14 2.5l-7 -60q-47 -4 -82 -1.5t-51 30t-6 82.5z" />
    <glyph glyph-name="idieresis" unicode="&#xef;" horiz-adv-x="277" 
d="M265 592q-16 0 -27 10t-11 28q0 25 16.5 39t37.5 14q17 0 28 -10t11 -27q0 -25 -17 -39.5t-38 -14.5zM108 592q-16 0 -27 10t-11 28q0 25 16.5 39t37.5 14q17 0 28 -10t11 -27q0 -25 -16.5 -39.5t-38.5 -14.5zM72 112l58 326h-86l10 58h151q-12 -65 -34 -192t-34 -192
q-2 -10 -2.5 -18.5t2 -14t4 -10.5t7 -7t8 -4t11 -2t11 -0.5t13.5 1t13 2t14 2.5l-7 -60q-47 -4 -82 -1.5t-51 30t-6 82.5z" />
    <glyph glyph-name="eth" unicode="&#xf0;" horiz-adv-x="608" 
d="M390 653l55 62l33 -26l-53 -59q165 -135 125 -377q-19 -117 -101 -189.5t-199 -72.5q-105 0 -160 60.5t-55 148.5q0 108 78 194.5t207 92.5q56 2 104.5 -20t75.5 -68q-14 105 -120 184l-49 -54l-31 24l45 53q-35 24 -90 39l25 54q57 -16 110 -46zM260 50q101 0 165 67
t64 151q0 67 -42 114.5t-120 47.5q-100 0 -162.5 -68t-62.5 -154q0 -67 40.5 -112.5t117.5 -45.5z" />
    <glyph glyph-name="ntilde" unicode="&#xf1;" horiz-adv-x="656" 
d="M374 698q4 -1 24.5 -12.5t23.5 -12.5q40 -20 64 27l40 -18q-19 -47 -54.5 -63.5t-68.5 1.5q-3 1 -23 12.5t-24 12.5q-42 21 -67 -28l-40 21q18 43 52.5 60t72.5 0zM163 272l-48 -272h-64l78 437h-87l11 59h144l-12 -88q76 96 194 96q104 0 148.5 -58.5t25.5 -165.5
q-16 -104 -29 -168q-5 -31 4.5 -44.5t28.5 -12t42 4.5q3 1 5 1l-7 -60q-46 -4 -80.5 -1.5t-50.5 30t-7 82.5l29 167q15 83 -16 123t-110 40q-73 0 -129.5 -48t-69.5 -122z" />
    <glyph glyph-name="ograve" unicode="&#xf2;" horiz-adv-x="607" 
d="M329 575l-73 127h80l54 -123l-1 -4h-60zM36 204q0 130 90 215t214 85q97 0 155.5 -59t58.5 -156q0 -131 -88 -214t-216 -83q-95 0 -154.5 58t-59.5 154zM485 245q16 88 -29 143.5t-126 55.5q-93 0 -160.5 -66.5t-67.5 -165.5q0 -73 42 -116t116 -43q85 0 147 52.5
t78 139.5z" />
    <glyph glyph-name="oacute" unicode="&#xf3;" horiz-adv-x="607" 
d="M370 575h-59l1 5l95 120h79zM36 204q0 130 90 215t214 85q97 0 155.5 -59t58.5 -156q0 -131 -88 -214t-216 -83q-95 0 -154.5 58t-59.5 154zM485 245q16 88 -29 143.5t-126 55.5q-93 0 -160.5 -66.5t-67.5 -165.5q0 -73 42 -116t116 -43q85 0 147 52.5t78 139.5z" />
    <glyph glyph-name="ocircumflex" unicode="&#xf4;" horiz-adv-x="607" 
d="M399 704l114 -131l-1 -6h-64l-78 88l-108 -88h-70l1 6l161 131h45zM36 204q0 130 90 215t214 85q97 0 155.5 -59t58.5 -156q0 -131 -88 -214t-216 -83q-95 0 -154.5 58t-59.5 154zM485 245q16 88 -29 143.5t-126 55.5q-93 0 -160.5 -66.5t-67.5 -165.5q0 -73 42 -116
t116 -43q85 0 147 52.5t78 139.5z" />
    <glyph glyph-name="otilde" unicode="&#xf5;" horiz-adv-x="607" 
d="M356 691q3 -1 24 -12t25 -12q42 -19 64 28l40 -18q-19 -46 -54.5 -62.5t-68.5 1.5q-4 1 -14 6.5t-20.5 11.5t-12.5 7q-45 18 -69 -28l-40 19q18 42 53 59t73 0zM36 204q0 130 90 215t214 85q97 0 155.5 -59t58.5 -156q0 -131 -88 -214t-216 -83q-95 0 -154.5 58
t-59.5 154zM485 245q16 88 -29 143.5t-126 55.5q-93 0 -160.5 -66.5t-67.5 -165.5q0 -73 42 -116t116 -43q85 0 147 52.5t78 139.5z" />
    <glyph glyph-name="odieresis" unicode="&#xf6;" horiz-adv-x="607" 
d="M313 653q0 -23 -16 -36.5t-37 -13.5q-15 0 -26 9.5t-11 26.5q0 23 16 36.5t36 13.5q16 0 27 -9.5t11 -26.5zM514 653q0 -23 -16.5 -37t-36.5 -14q-15 0 -26 9.5t-11 26.5q0 23 16 37t36 14q16 0 27 -9.5t11 -26.5zM36 204q0 130 90 215t214 85q97 0 155.5 -59t58.5 -156
q0 -131 -88 -214t-216 -83q-95 0 -154.5 58t-59.5 154zM485 245q16 88 -29 143.5t-126 55.5q-93 0 -160.5 -66.5t-67.5 -165.5q0 -73 42 -116t116 -43q85 0 147 52.5t78 139.5z" />
    <glyph glyph-name="divide" unicode="&#xf7;" horiz-adv-x="540" 
d="M351 497q0 -24 -16 -38t-37 -14q-17 0 -28.5 9.5t-11.5 27.5q0 24 17 38.5t38 14.5q16 0 27 -10t11 -28zM67 300l11 64h407l-11 -64h-407zM295 177q0 -24 -16.5 -38t-37.5 -14q-16 0 -27.5 9.5t-11.5 27.5q0 24 16.5 38.5t37.5 14.5q16 0 27.5 -10t11.5 -28z" />
    <glyph glyph-name="oslash" unicode="&#xf8;" horiz-adv-x="602" 
d="M148 95l256 332q-36 17 -76 17q-91 0 -158.5 -66.5t-67.5 -163.5q0 -78 46 -119zM445 396l-253 -328q27 -13 69 -13q93 0 159 63t66 161q0 74 -41 117zM31 -56l74 95q-69 55 -69 164q0 129 89.5 214.5t213.5 85.5q59 0 104 -24l48 63h65l-70 -91q64 -56 64 -163
q0 -129 -88.5 -212.5t-213.5 -83.5q-58 0 -101 20l-52 -68h-64z" />
    <glyph glyph-name="ugrave" unicode="&#xf9;" horiz-adv-x="653" 
d="M385 567h-60l-73 128h80l54 -123zM583 495l-69 -381q-5 -30 6 -43.5t31 -12.5t44 4l-7 -57q-37 -4 -69 -4t-52 21t-17 63q-77 -92 -197 -92q-105 -1 -150 58.5t-26 165.5l39 220h-81l9 58h147l-49 -277q-15 -83 15.5 -124t115.5 -41q74 1 129 50t69 124l37 210h-86l9 58
h152z" />
    <glyph glyph-name="uacute" unicode="&#xfa;" horiz-adv-x="653" 
d="M355 567h-60l1 4l95 123h81zM583 495l-69 -381q-5 -30 6 -43.5t31 -12.5t44 4l-7 -57q-37 -4 -69 -4t-52 21t-17 63q-77 -92 -197 -92q-105 -1 -150 58.5t-26 165.5l39 220h-81l9 58h147l-49 -277q-15 -83 15.5 -124t115.5 -41q74 1 129 50t69 124l37 210h-86l9 58h152z
" />
    <glyph glyph-name="ucircumflex" unicode="&#xfb;" horiz-adv-x="653" 
d="M188 567l1 6l159 128h47l113 -128l-1 -6h-67l-77 85l-106 -85h-69zM583 495l-69 -381q-5 -30 6 -43.5t31 -12.5t44 4l-7 -57q-37 -4 -69 -4t-52 21t-17 63q-77 -92 -197 -92q-105 -1 -150 58.5t-26 165.5l39 220h-81l9 58h147l-49 -277q-15 -83 15.5 -124t115.5 -41
q74 1 129 50t69 124l37 210h-86l9 58h152z" />
    <glyph glyph-name="udieresis" unicode="&#xfc;" horiz-adv-x="653" 
d="M245 596q-17 0 -28 10t-11 27q0 25 17 39t38 14q17 0 28 -10t11 -27q0 -25 -17 -39t-38 -14zM467 595q-17 0 -28 10t-11 27q0 25 17 39.5t38 14.5q16 0 27.5 -10t11.5 -28q0 -25 -17 -39t-38 -14zM583 495l-69 -381q-5 -30 6 -43.5t31 -12.5t44 4l-7 -57q-37 -4 -69 -4
t-52 21t-17 63q-77 -92 -197 -92q-105 -1 -150 58.5t-26 165.5l39 220h-81l9 58h147l-49 -277q-15 -83 15.5 -124t115.5 -41q74 1 129 50t69 124l37 210h-86l9 58h152z" />
    <glyph glyph-name="yacute" unicode="&#xfd;" horiz-adv-x="629" 
d="M375 569h-60l1 5l96 123h80zM432 -18l18 98q-38 -51 -85.5 -69.5t-109.5 -19.5q-98 0 -146.5 60t-29.5 165l39 220h-84l11 58h149l-49 -277q-14 -81 17 -123.5t116 -41.5q71 1 126 50.5t68 122.5l37 211h-85l11 58h149l-90 -512q-20 -118 -91 -177t-174 -59
q-100 0 -149.5 47.5t-41.5 130.5h62q-4 -59 29.5 -87.5t109.5 -28.5q71 0 124 44t69 130z" />
    <glyph glyph-name="thorn" unicode="&#xfe;" horiz-adv-x="642" 
d="M294 52q95 0 161.5 61.5t66.5 168.5q0 75 -44 115.5t-115 40.5q-91 0 -158 -65t-67 -159q0 -71 43.5 -116.5t112.5 -45.5zM57 -206h-65l150 846h-82l10 58h146l-54 -311q37 53 97 83.5t126 30.5q91 -3 147 -57.5t56 -150.5q0 -139 -87.5 -221t-213.5 -82q-60 0 -107 29
t-67 85z" />
    <glyph glyph-name="ydieresis" unicode="&#xff;" horiz-adv-x="629" 
d="M255 595q-17 0 -27.5 9.5t-10.5 26.5q0 25 16.5 39.5t37.5 14.5q17 0 28 -10t11 -27q0 -25 -17 -39t-38 -14zM477 594q-16 0 -27 10t-11 27q0 25 16.5 39.5t37.5 14.5q17 0 28 -10t11 -28q0 -25 -17 -39t-38 -14zM432 -18l18 98q-38 -51 -85.5 -69.5t-109.5 -19.5
q-98 0 -146.5 60t-29.5 165l39 220h-84l11 58h149l-49 -277q-14 -81 17 -123.5t116 -41.5q71 1 126 50.5t68 122.5l37 211h-85l11 58h149l-90 -512q-20 -118 -91 -177t-174 -59q-100 0 -149.5 47.5t-41.5 130.5h62q-4 -59 29.5 -87.5t109.5 -28.5q71 0 124 44t69 130z" />
    <glyph glyph-name="Amacron" unicode="&#x100;" horiz-adv-x="806" 
d="M332 776l10 57h276l-10 -57h-276zM248 270h317l-91 363zM42 63l360 574h-88l11 63h195l171 -637h71l-11 -63h-233l11 63h90l-37 145h-372l-90 -145h89l-11 -63h-238l11 63h71z" />
    <glyph glyph-name="amacron" unicode="&#x101;" horiz-adv-x="662" 
d="M250 624l10 57h261l-10 -57h-261zM327 439q96 0 137 -57t24 -139q-16 -80 -77.5 -136.5t-150.5 -56.5q-74 0 -116 44t-42 119q0 99 66.5 162.5t158.5 63.5zM606 57q-35 -10 -61.5 -1t-19.5 51l68 389h-62l-17 -97q-42 104 -176 104q-123 0 -212 -83.5t-89 -216.5
q0 -98 57.5 -155t152.5 -58q61 0 118.5 23.5t94.5 75.5q-6 -46 14 -69.5t53.5 -23.5t71.5 4z" />
    <glyph glyph-name="Abreve" unicode="&#x102;" horiz-adv-x="806" 
d="M580 874h51q-8 -58 -49 -89t-100 -31q-60 0 -91 31t-19 89h53q-5 -32 12.5 -50t54.5 -18q36 0 59 18.5t29 49.5zM248 270h317l-91 363zM42 63l360 574h-88l11 63h195l171 -637h71l-11 -63h-233l11 63h90l-37 145h-372l-90 -145h89l-11 -63h-238l11 63h71z" />
    <glyph glyph-name="abreve" unicode="&#x103;" horiz-adv-x="662" 
d="M387 626q38 0 60.5 19t27.5 51h52q-8 -57 -50.5 -89t-99.5 -32q-59 -1 -90.5 31t-19.5 90h53q-5 -32 12 -51t55 -19zM327 439q96 0 137 -57t24 -139q-16 -80 -77.5 -136.5t-150.5 -56.5q-74 0 -116 44t-42 119q0 99 66.5 162.5t158.5 63.5zM606 57q-35 -10 -61.5 -1
t-19.5 51l68 389h-62l-17 -97q-42 104 -176 104q-123 0 -212 -83.5t-89 -216.5q0 -98 57.5 -155t152.5 -58q61 0 118.5 23.5t94.5 75.5q-6 -46 14 -69.5t53.5 -23.5t71.5 4z" />
    <glyph glyph-name="Aogonek" unicode="&#x104;" horiz-adv-x="806" 
d="M117 63h89l-11 -63h-235l11 63h71l360 574h-88l11 63h195l171 -637h71l-11 -63q-73 -5 -106.5 -39t-27.5 -62q5 -25 41 -27.5t78 22.5l5 -49q-25 -15 -56 -22t-58.5 -5t-48 17.5t-24.5 42.5q-4 30 19 69t62 53h-120l11 63h90q-6 25 -18.5 73.5t-18.5 71.5h-372zM245 270
h317q-13 52 -42.5 171.5t-48.5 191.5q-177 -282 -226 -363z" />
    <glyph glyph-name="aogonek" unicode="&#x105;" horiz-adv-x="662" 
d="M606 57l-7 -57q-30 -4 -43 -4q-51 -11 -74.5 -40.5t-18.5 -55.5q5 -24 40.5 -24.5t77.5 25.5l5 -48q-38 -22 -77.5 -28.5t-69 8t-34.5 49.5q-4 34 17.5 70.5t70.5 52.5q-41 21 -33 84q-37 -52 -94.5 -75.5t-118.5 -23.5q-95 1 -152.5 58t-57.5 155q0 133 89 216.5
t212 83.5q134 0 176 -104l17 97h62l-68 -389q-7 -42 19.5 -51t61.5 1zM327 439q-92 0 -158.5 -63.5t-66.5 -162.5q0 -75 42 -119t116 -44q89 0 150.5 56.5t77.5 136.5q17 82 -24 139t-137 57z" />
    <glyph glyph-name="Cacute" unicode="&#x106;" horiz-adv-x="705" 
d="M448 777l1 4l95 122h78l-116 -126h-58zM595 142l41 -46q-123 -105 -274 -105t-229 84t-78 212q0 79 29.5 154t83 135.5t137.5 97t183 36.5q130 0 214 -82q-13 -77 -27 -145h-62l18 113q-59 48 -154 48q-141 0 -233 -86t-114 -211q-20 -125 43 -207.5t200 -82.5
q122 0 222 85z" />
    <glyph glyph-name="cacute" unicode="&#x107;" horiz-adv-x="534" 
d="M307 583l1 4l84 107h70l-103 -111h-52zM423 111l34 -43q-88 -75 -197 -75q-98 0 -160.5 56.5t-62.5 154.5q0 138 91 218t219 80q88 0 159 -49l-23 -119h-58l15 85q-38 23 -104 23q-97 0 -165 -63t-68 -165q0 -74 46.5 -116.5t121.5 -42.5q87 0 152 56z" />
    <glyph glyph-name="Ccircumflex" unicode="&#x108;" horiz-adv-x="705" 
d="M334 775l1 4l157 127h46l114 -126l-1 -5h-68l-76 83l-105 -83h-68zM595 142l41 -46q-123 -105 -274 -105t-229 84t-78 212q0 79 29.5 154t83 135.5t137.5 97t183 36.5q130 0 214 -82q-13 -77 -27 -145h-62l18 113q-59 48 -154 48q-141 0 -233 -86t-114 -211
q-20 -125 43 -207.5t200 -82.5q122 0 222 85z" />
    <glyph glyph-name="ccircumflex" unicode="&#x109;" horiz-adv-x="534" 
d="M196 569v5l153 123h44l110 -123v-5h-67l-73 80l-98 -80h-69zM423 111l34 -43q-88 -75 -197 -75q-98 0 -160.5 56.5t-62.5 154.5q0 138 91 218t219 80q88 0 159 -49l-23 -119h-58l15 85q-38 23 -104 23q-97 0 -165 -63t-68 -165q0 -74 46.5 -116.5t121.5 -42.5
q87 0 152 56z" />
    <glyph glyph-name="Cdotaccent" unicode="&#x10a;" horiz-adv-x="705" 
d="M496 782q-17 0 -29 10.5t-12 28.5q0 26 17.5 40.5t40.5 14.5q17 0 29 -10t12 -28q0 -26 -18 -41t-40 -15zM595 142l41 -46q-123 -105 -274 -105t-229 84t-78 212q0 79 29.5 154t83 135.5t137.5 97t183 36.5q130 0 214 -82q-13 -77 -27 -145h-62l18 113q-59 48 -154 48
q-141 0 -233 -86t-114 -211q-20 -125 43 -207.5t200 -82.5q122 0 222 85z" />
    <glyph glyph-name="cdotaccent" unicode="&#x10b;" horiz-adv-x="534" 
d="M361 592q-17 0 -29 10t-12 28q0 24 17.5 38t40.5 14q17 0 28.5 -10t11.5 -28q0 -24 -17.5 -38t-39.5 -14zM423 111l34 -43q-88 -75 -197 -75q-98 0 -160.5 56.5t-62.5 154.5q0 138 91 218t219 80q88 0 159 -49l-23 -119h-58l15 85q-38 23 -104 23q-97 0 -165 -63
t-68 -165q0 -74 46.5 -116.5t121.5 -42.5q87 0 152 56z" />
    <glyph glyph-name="Ccaron" unicode="&#x10c;" horiz-adv-x="705" 
d="M669 903l-1 -6l-154 -122h-46l-112 122l1 6h63l75 -83l105 83h69zM595 142l41 -46q-123 -105 -274 -105t-229 84t-78 212q0 79 29.5 154t83 135.5t137.5 97t183 36.5q130 0 214 -82q-13 -77 -27 -145h-62l18 113q-59 48 -154 48q-141 0 -233 -86t-114 -211
q-20 -125 43 -207.5t200 -82.5q122 0 222 85z" />
    <glyph glyph-name="ccaron" unicode="&#x10d;" horiz-adv-x="534" 
d="M516 696l-1 -5l-147 -117h-43l-104 116l1 6h60l69 -75l95 75h70zM423 111l34 -43q-88 -75 -197 -75q-98 0 -160.5 56.5t-62.5 154.5q0 138 91 218t219 80q88 0 159 -49l-23 -119h-58l15 85q-38 23 -104 23q-97 0 -165 -63t-68 -165q0 -74 46.5 -116.5t121.5 -42.5
q87 0 152 56z" />
    <glyph glyph-name="Dcaron" unicode="&#x10e;" horiz-adv-x="787" 
d="M611 895l-1 -6l-156 -124h-45l-111 124l1 6h65l73 -82l105 82h69zM344 0h-346l11 63h90l101 575h-88l12 63h326q146 0 220.5 -80t76.5 -206q2 -80 -22 -153t-72 -132.5t-127.5 -94.5t-181.5 -35zM169 64h186q80 0 144 30t102 79.5t57.5 108.5t19.5 121q0 49 -12.5 89.5
t-39.5 74t-75 52t-113 18.5h-168z" />
    <glyph glyph-name="dcaron" unicode="&#x10f;" horiz-adv-x="665" 
d="M672 555l58 146h63l-72 -146h-49zM332 442q74 0 116 -44t42 -115q0 -95 -64 -162t-162 -67q-76 0 -118 42.5t-42 119.5q0 102 67 164t161 62zM607 57q-25 -3 -44.5 -3t-29.5 14t-5 44l106 588h-152l-11 -57h86l-44 -248q-14 52 -64 80t-111 28q-124 0 -212.5 -82
t-88.5 -218q0 -98 57 -154t155 -56q62 0 119 25t94 76q-7 -46 12.5 -70.5t53 -26t72.5 2.5z" />
    <glyph glyph-name="Dcroat" unicode="&#x110;" horiz-adv-x="788" 
d="M345 0h-346l11 63h90l45 257h-81l11 60h80l46 258h-88l12 63h326q146 0 220.5 -80t76.5 -206q2 -80 -22 -153t-72 -132.5t-127.5 -94.5t-181.5 -35zM170 64h186q80 0 144 30t102 79.5t57.5 108.5t19.5 121q0 49 -12.5 89.5t-39.5 74t-75 52t-113 18.5h-168l-46 -257h146
l-11 -60h-145z" />
    <glyph glyph-name="dcroat" unicode="&#x111;" horiz-adv-x="665" 
d="M607 57l-7 -57q-39 -4 -72.5 -2.5t-53 26t-12.5 70.5q-37 -51 -94 -76t-119 -25q-98 0 -155 56t-57 154q0 136 88.5 218t212.5 82q61 0 111 -28t64 -80l25 142h-92l9 49h92l10 57h-86l11 57h152l-21 -114h70l-9 -49h-70l-76 -425q-5 -30 5 -44t29.5 -14t44.5 3zM332 442
q-94 0 -161 -62t-67 -164q0 -77 42 -119.5t118 -42.5q98 0 162 67t64 162q0 71 -42 115t-116 44z" />
    <glyph glyph-name="Emacron" unicode="&#x112;" horiz-adv-x="681" 
d="M594 834l-10 -55h-277l10 55h277zM168 65h360l22 108h62l-31 -173h-583l11 63h90l101 574h-88l11 63h566l-30 -171h-62l17 107h-345l-44 -248h341l-11 -65h-341z" />
    <glyph glyph-name="emacron" unicode="&#x113;" horiz-adv-x="590" 
d="M245 675h262l-9 -53h-262zM444 123l36 -39q-43 -44 -105.5 -67.5t-123.5 -23.5q-97 0 -156 56.5t-59 153.5q0 128 88.5 214t213.5 86q117 0 176 -72t21 -210h-434q-7 -78 39.5 -123t122.5 -45q48 0 99 19t82 51zM111 275h373q13 81 -29 125t-126 44q-75 0 -135 -45
t-83 -124z" />
    <glyph glyph-name="Ebreve" unicode="&#x114;" horiz-adv-x="681" 
d="M604 888q-9 -56 -52.5 -88t-99.5 -32q-58 0 -90 31.5t-21 88.5h55q-6 -31 11.5 -51t53.5 -20q35 0 59.5 20t30.5 51h53zM168 65h360l22 108h62l-31 -173h-583l11 63h90l101 574h-88l11 63h566l-30 -171h-62l17 107h-345l-44 -248h341l-11 -65h-341z" />
    <glyph glyph-name="ebreve" unicode="&#x115;" horiz-adv-x="590" 
d="M506 697q-9 -56 -51.5 -88t-99.5 -32q-57 -1 -89.5 31t-21.5 89h53q-5 -31 12.5 -51t54.5 -20q35 0 58.5 20t29.5 52zM444 123l36 -39q-43 -44 -105.5 -67.5t-123.5 -23.5q-97 0 -156 56.5t-59 153.5q0 128 88.5 214t213.5 86q117 0 176 -72t21 -210h-434
q-7 -78 39.5 -123t122.5 -45q48 0 99 19t82 51zM111 275h373q13 81 -29 125t-126 44q-75 0 -135 -45t-83 -124z" />
    <glyph glyph-name="Edotaccent" unicode="&#x116;" horiz-adv-x="681" 
d="M455 767q-17 0 -29 10.5t-12 28.5q0 25 17.5 39t39.5 14q17 0 29 -10t12 -28q0 -25 -17.5 -39.5t-39.5 -14.5zM168 65h360l22 108h62l-31 -173h-583l11 63h90l101 574h-88l11 63h566l-30 -171h-62l17 107h-345l-44 -248h341l-11 -65h-341z" />
    <glyph glyph-name="edotaccent" unicode="&#x117;" horiz-adv-x="590" 
d="M366 595q-17 0 -28.5 10t-11.5 27q0 25 17.5 39t39.5 14q17 0 28.5 -10t11.5 -27q0 -25 -17.5 -39t-39.5 -14zM444 123l36 -39q-43 -44 -105.5 -67.5t-123.5 -23.5q-97 0 -156 56.5t-59 153.5q0 128 88.5 214t213.5 86q117 0 176 -72t21 -210h-434q-7 -78 39.5 -123
t122.5 -45q48 0 99 19t82 51zM111 275h373q13 81 -29 125t-126 44q-75 0 -135 -45t-83 -124z" />
    <glyph glyph-name="Eogonek" unicode="&#x118;" horiz-adv-x="681" 
d="M571 -158q-57 -34 -118.5 -27.5t-68.5 58.5q-4 32 17.5 72t60.5 55h-464l11 63h90l101 574h-88l11 63h566l-30 -171h-62l17 107h-345l-44 -248h341l-11 -65h-341l-46 -258h360l22 108h62l-31 -173q-75 -5 -108.5 -39.5t-27.5 -65.5q5 -26 42 -28t81 24z" />
    <glyph glyph-name="eogonek" unicode="&#x119;" horiz-adv-x="590" 
d="M444 123l38 -39q-48 -49 -120 -74q-36 -14 -54 -44t-15 -56q6 -27 39.5 -29.5t75.5 22.5l4 -47q-39 -19 -76.5 -25t-66 8.5t-33.5 50.5q-3 27 12 59t39 48q-18 -3 -37 -3q-96 2 -155 58.5t-59 152.5q0 127 89 212.5t214 85.5q75 0 127 -30t74 -92.5t-5 -159.5h-432
q-7 -79 38 -123.5t122 -44.5q48 0 99 19t82 51zM112 277h372q13 81 -29 125t-126 44q-74 0 -134 -44.5t-83 -124.5z" />
    <glyph glyph-name="Ecaron" unicode="&#x11a;" horiz-adv-x="681" 
d="M637 890l-1 -5l-158 -122h-45l-114 122l1 5h70l74 -79l104 79h69zM168 65h360l22 108h62l-31 -173h-583l11 63h90l101 574h-88l11 63h566l-30 -171h-62l17 107h-345l-44 -248h341l-11 -65h-341z" />
    <glyph glyph-name="ecaron" unicode="&#x11b;" horiz-adv-x="590" 
d="M534 697l-1 -6l-156 -122h-46l-114 122l1 6h69l75 -82l105 82h67zM444 123l36 -39q-43 -44 -105.5 -67.5t-123.5 -23.5q-97 0 -156 56.5t-59 153.5q0 128 88.5 214t213.5 86q117 0 176 -72t21 -210h-434q-7 -78 39.5 -123t122.5 -45q48 0 99 19t82 51zM111 275h373
q13 81 -29 125t-126 44q-75 0 -135 -45t-83 -124z" />
    <glyph glyph-name="Gcircumflex" unicode="&#x11c;" horiz-adv-x="738" 
d="M339 773l1 5l157 126h45l113 -126l-1 -5h-68l-75 83l-104 -83h-68zM488 710q146 0 230 -85q-4 -21 -13 -68.5t-13 -73.5h-62l18 111q-66 52 -171 52t-187 -50.5t-123.5 -129t-41.5 -169.5q0 -104 63.5 -173t185.5 -69q119 0 211 79l29 161h-228l10 61h289l-44 -250
q-117 -116 -279 -116q-151 0 -228.5 83t-77.5 212q0 182 123 303.5t309 121.5z" />
    <glyph glyph-name="gcircumflex" unicode="&#x11d;" horiz-adv-x="663" 
d="M203 578l1 5l157 124h46l113 -124l-1 -5h-68l-75 82l-104 -82h-69zM332 439q-95 0 -162.5 -64t-67.5 -161q0 -76 42.5 -119.5t120.5 -43.5q105 0 166.5 69.5t61.5 158.5q0 68 -42 114t-119 46zM506 -13q-21 -125 -98 -183.5t-189 -58.5q-107 0 -162.5 48t-44.5 132h62
q-6 -62 36.5 -91.5t119.5 -29.5q76 0 136.5 46t76.5 137l18 98q-71 -96 -212 -94q-94 0 -153 57t-59 155q0 136 89 217t213 81q61 0 109.5 -28t64.5 -79q16 76 20 100h147l-10 -58h-85z" />
    <glyph glyph-name="Gbreve" unicode="&#x11e;" horiz-adv-x="738" 
d="M646 897q-9 -56 -52 -87.5t-100 -31.5q-58 -1 -90.5 30t-20.5 88h54q-6 -31 11 -50.5t55 -20.5q35 1 59.5 20.5t29.5 49.5zM488 710q145 0 230 -85q-4 -26 -14 -74.5t-13 -67.5h-61l17 111q-65 52 -170 52q-80 0 -148 -29.5t-112 -78.5t-68.5 -111.5t-24.5 -128.5
q0 -105 63.5 -174t185.5 -69q120 0 211 79l29 161h-228l10 61h290l-44 -250q-119 -116 -279 -116q-151 0 -228.5 83t-77.5 212q0 183 123 304t309 121z" />
    <glyph glyph-name="gbreve" unicode="&#x11f;" horiz-adv-x="663" 
d="M373 636q35 0 59.5 20t30.5 52h52q-9 -57 -52 -89.5t-99 -32.5q-57 -1 -88.5 31t-20.5 91h53q-6 -32 11.5 -52t53.5 -20zM332 439q-95 0 -162.5 -64t-67.5 -161q0 -76 42.5 -119.5t120.5 -43.5q105 0 166.5 69.5t61.5 158.5q0 68 -42 114t-119 46zM506 -13
q-21 -125 -98 -183.5t-189 -58.5q-107 0 -162.5 48t-44.5 132h62q-6 -62 36.5 -91.5t119.5 -29.5q76 0 136.5 46t76.5 137l18 98q-71 -96 -212 -94q-94 0 -153 57t-59 155q0 136 89 217t213 81q61 0 109.5 -28t64.5 -79q16 76 20 100h147l-10 -58h-85z" />
    <glyph glyph-name="Gdotaccent" unicode="&#x120;" horiz-adv-x="738" 
d="M495 776q-18 0 -30 10t-12 29q0 25 18 39.5t41 14.5q17 0 29.5 -10.5t12.5 -28.5q0 -25 -18 -39.5t-41 -14.5zM488 710q145 0 230 -85q-4 -26 -14 -74.5t-13 -67.5h-61l17 111q-65 52 -170 52q-80 0 -148 -29.5t-112 -78.5t-68.5 -111.5t-24.5 -128.5q0 -105 63.5 -174
t185.5 -69q120 0 211 79l29 161h-228l10 61h290l-44 -250q-119 -116 -279 -116q-151 0 -228.5 83t-77.5 212q0 183 123 304t309 121z" />
    <glyph glyph-name="gdotaccent" unicode="&#x121;" horiz-adv-x="663" 
d="M377 613q-17 0 -29 10t-12 28q0 24 17.5 38t40.5 14q17 0 29 -10t12 -28q0 -24 -17.5 -38t-40.5 -14zM332 439q-95 0 -162.5 -64t-67.5 -161q0 -76 42.5 -119.5t120.5 -43.5q105 0 166.5 69.5t61.5 158.5q0 68 -42 114t-119 46zM506 -13q-21 -125 -98 -183.5t-189 -58.5
q-107 0 -162.5 48t-44.5 132h62q-6 -62 36.5 -91.5t119.5 -29.5q76 0 136.5 46t76.5 137l18 98q-71 -96 -212 -94q-94 0 -153 57t-59 155q0 136 89 217t213 81q61 0 109.5 -28t64.5 -79q16 76 20 100h147l-10 -58h-85z" />
    <glyph glyph-name="Gcommaaccent" unicode="&#x122;" horiz-adv-x="738" 
d="M489 710q145 0 230 -85q-4 -26 -14 -74.5t-13 -67.5h-62l18 111q-65 52 -170 52q-106 0 -188.5 -51t-123.5 -129.5t-41 -168.5q0 -104 63.5 -173t185.5 -69q119 0 211 79l29 161h-228l10 61h289l-44 -250q-117 -116 -279 -116q-151 0 -228.5 83t-77.5 212
q0 182 123 303.5t310 121.5zM314 -236h-46l43 74q-25 5 -25 31q0 37 35 47q31 10 48 -11q7 -9 7 -23q0 -10 -24.5 -55.5t-37.5 -62.5z" />
    <glyph glyph-name="gcommaaccent" unicode="&#x123;" horiz-adv-x="663" 
d="M441 735l-44 -75q26 -5 26 -30q0 -36 -34 -48q-32 -10 -50 11q-8 10 -8 24q0 10 25.5 55t38.5 63h46zM332 439q-95 0 -162.5 -64t-67.5 -161q0 -76 42.5 -119.5t120.5 -43.5q105 0 166.5 69.5t61.5 158.5q0 68 -42 114t-119 46zM506 -13q-21 -125 -98 -183.5t-189 -58.5
q-107 0 -162.5 48t-44.5 132h62q-6 -62 36.5 -91.5t119.5 -29.5q76 0 136.5 46t76.5 137l18 98q-71 -96 -212 -94q-94 0 -153 57t-59 155q0 136 89 217t213 81q61 0 109.5 -28t64.5 -79q16 76 20 100h147l-10 -58h-85z" />
    <glyph glyph-name="Hcircumflex" unicode="&#x124;" horiz-adv-x="828" 
d="M337 772l1 5l158 128h46l112 -127l-1 -6h-68l-75 84l-105 -84h-68zM647 63h90l-11 -63h-245l11 63h87l46 262h-411l-46 -262h87l-11 -63h-246l11 63h91l101 574h-90l11 63h245l-11 -63h-87l-44 -250h411l44 250h-87l11 63h244l-11 -63h-89z" />
    <glyph glyph-name="hcircumflex" unicode="&#x125;" horiz-adv-x="627" 
d="M173 764l1 5l156 125h44l112 -125l-1 -5h-70l-73 81l-100 -81h-69zM93 0h-65l114 643h-87l10 58h152l-51 -284q35 40 86.5 62.5t104.5 22.5q86 0 137 -56.5t31 -165.5l-29 -168q-2 -11 -2 -20t1.5 -15t6 -10.5t7.5 -7t11 -3t12 -1t14 1t14 2t15 2.5l-7 -60
q-46 -4 -80.5 -1.5t-50.5 30t-7 82.5l31 167q27 158 -121 160q-72 0 -129.5 -48.5t-68.5 -120.5z" />
    <glyph glyph-name="Hbar" unicode="&#x126;" horiz-adv-x="831" 
d="M227 387h411l18 103h-411zM649 63h90l-11 -63h-245l11 63h87l46 262h-411l-46 -262h87l-11 -63h-246l11 63h91l75 427h-81l9 49h81l17 98h-90l11 63h245l-11 -63h-87l-17 -98h411l17 98h-87l11 63h244l-11 -63h-89l-17 -98h78l-9 -49h-78z" />
    <glyph glyph-name="hbar" unicode="&#x127;" horiz-adv-x="627" 
d="M93 0h-65l94 533h-66l8 48h67l11 62h-87l10 58h152l-22 -120h96l-8 -48h-96l-21 -116q35 40 86.5 62.5t104.5 22.5q86 0 137 -56.5t31 -165.5l-29 -168q-2 -11 -2 -20t1.5 -15t6 -10.5t7.5 -7t11 -3t12 -1t14 1t14 2t15 2.5l-7 -60q-46 -4 -80.5 -1.5t-50.5 30t-7 82.5
l31 167q27 158 -121 160q-72 0 -129.5 -48.5t-68.5 -120.5z" />
    <glyph glyph-name="Itilde" unicode="&#x128;" horiz-adv-x="351" 
d="M257 848q4 -1 23.5 -12.5t21.5 -12.5q41 -19 63 27l39 -18q-18 -46 -52.5 -63t-67.5 1q-5 1 -24.5 13t-20.5 13q-42 19 -66 -28l-38 20q18 43 52 60t70 0zM168 63h93l-11 -63h-253l11 63h92l101 574h-90l11 63h249l-11 -63h-91z" />
    <glyph glyph-name="itilde" unicode="&#x129;" horiz-adv-x="277" 
d="M179 685q4 -2 18 -12.5t15 -11.5q37 -20 58 27l36 -19q-17 -46 -49.5 -62t-59.5 2q-2 1 -10 6.5t-15 10.5t-9 6q-36 23 -57 -23l-40 17q16 43 49 59.5t64 -0.5zM72 112l58 326h-86l10 58h151q-12 -65 -34 -192t-34 -192q-2 -10 -2.5 -18.5t2 -14t4 -10.5t7 -7t8 -4t11 -2
t11 -0.5t13.5 1t13 2t14 2.5l-7 -60q-47 -4 -82 -1.5t-51 30t-6 82.5z" />
    <glyph glyph-name="Imacron" unicode="&#x12a;" horiz-adv-x="351" 
d="M147 764l10 56h224l-10 -56h-224zM168 63h93l-11 -63h-253l11 63h92l101 574h-90l11 63h249l-11 -63h-91z" />
    <glyph glyph-name="imacron" unicode="&#x12b;" horiz-adv-x="277" 
d="M92 620l10 55h196l-10 -55h-196zM72 112l58 326h-86l10 58h151q-12 -65 -34 -192t-34 -192q-2 -10 -2.5 -18.5t2 -14t4 -10.5t7 -7t8 -4t11 -2t11 -0.5t13.5 1t13 2t14 2.5l-7 -60q-47 -4 -82 -1.5t-51 30t-6 82.5z" />
    <glyph glyph-name="Ibreve" unicode="&#x12c;" horiz-adv-x="352" 
d="M401 871q-8 -57 -47 -86t-98 -29q-56 -1 -86 29t-18 86h52q-5 -31 10.5 -48.5t51.5 -17.5q72 2 85 66h50zM169 63h93l-11 -63h-253l11 63h91l101 574h-90l11 63h250l-11 -63h-91z" />
    <glyph glyph-name="ibreve" unicode="&#x12d;" horiz-adv-x="277" 
d="M267 695h51q-9 -55 -46.5 -84t-87.5 -30q-50 1 -76.5 30.5t-15.5 83.5h50q-5 -28 8 -44.5t44 -16.5q60 0 73 61zM72 112l58 326h-86l10 58h151q-12 -65 -34 -192t-34 -192q-2 -10 -2.5 -18.5t2 -14t4 -10.5t7 -7t8 -4t11 -2t11 -0.5t13.5 1t13 2t14 2.5l-7 -60
q-47 -4 -82 -1.5t-51 30t-6 82.5z" />
    <glyph glyph-name="Iogonek" unicode="&#x12e;" horiz-adv-x="351" 
d="M122 700h249l-11 -63h-91l-101 -574h93l-11 -63q-56 -3 -68 -7q-52 -13 -75 -44.5t-18 -57.5t41.5 -27t82.5 26l4 -50q-58 -34 -121 -28t-70 60q-4 32 19.5 72.5t64.5 55.5h-113l11 63h92l101 574h-90z" />
    <glyph glyph-name="iogonek" unicode="&#x12f;" horiz-adv-x="277" 
d="M192 605q-16 0 -27.5 9.5t-11.5 27.5q0 25 17 39t38 14q16 0 27 -9.5t11 -27.5q0 -26 -16.5 -39.5t-37.5 -13.5zM72 112l58 326h-86l10 58h151q-12 -65 -34 -192t-34 -192q-2 -10 -2.5 -18.5t2 -14t4 -10.5t7 -7t8 -4t11 -2t11 -0.5t13.5 1t13 2t14 2.5l-7 -60
q-18 -2 -25 -2q-57 -11 -81.5 -43.5t-18.5 -59.5q5 -26 41 -28.5t80 23.5l4 -53q-57 -33 -119.5 -25.5t-68.5 61.5q-4 37 18.5 76t65.5 55q-51 21 -35 107z" />
    <glyph glyph-name="Idotaccent" unicode="&#x130;" horiz-adv-x="351" 
d="M216 798q0 25 18 40t40 15q17 0 29.5 -10.5t12.5 -28.5q0 -26 -17.5 -40.5t-40.5 -14.5q-17 0 -29.5 10.5t-12.5 28.5zM168 63h93l-11 -63h-253l11 63h92l101 574h-90l11 63h249l-11 -63h-91z" />
    <glyph glyph-name="dotlessi" unicode="&#x131;" horiz-adv-x="277" 
d="M72 112l58 326h-86l10 58h151q-12 -65 -34 -192t-34 -192q-2 -10 -2.5 -18.5t2 -14t4 -10.5t7 -7t8 -4t11 -2t11 -0.5t13.5 1t13 2t14 2.5l-7 -60q-47 -4 -82 -1.5t-51 30t-6 82.5z" />
    <glyph glyph-name="IJ" unicode="&#x132;" horiz-adv-x="1016" 
d="M168 63h93l-11 -63h-253l11 63h92l101 574h-90l11 63h249l-11 -63h-91zM662 636l11 64h317l-74 -428q-21 -131 -109 -207t-222 -76q-123 0 -184 77t-39 204h68q-18 -101 23 -158.5t144 -57.5q96 0 163.5 58t85.5 160l64 364h-248z" />
    <glyph glyph-name="ij" unicode="&#x133;" horiz-adv-x="528" 
d="M193 605q-16 0 -27.5 9.5t-11.5 27.5q0 25 17 39t38 14q16 0 27 -9.5t11 -27.5q0 -26 -16.5 -39.5t-37.5 -13.5zM72 112l58 326h-86l10 58h151q-12 -65 -34 -192t-34 -192q-2 -10 -2.5 -18.5t2 -14t4 -10.5t7 -7t8 -4t11 -2t11 -0.5t13.5 1t13 2t14 2.5l-7 -60
q-47 -4 -82 -1.5t-51 30t-6 82.5zM471 607q-16 0 -27 9.5t-11 27.5q0 25 17 39t38 14q16 0 27 -9.5t11 -27.5q0 -26 -16.5 -39.5t-38.5 -13.5zM328 494h155l-99 -563q-15 -87 -51.5 -130.5t-116.5 -43.5q-49 0 -90 25l30 53q32 -18 68 -18q47 1 66.5 29t29.5 85l89 505h-92z
" />
    <glyph glyph-name="Jcircumflex" unicode="&#x134;" horiz-adv-x="686" 
d="M321 772v4l158 128h46l113 -127l-1 -5h-68l-76 83l-104 -83h-68zM311 636l11 64h338l-75 -428q-23 -134 -112.5 -209t-220.5 -75q-124 0 -189.5 77.5t-43.5 204.5h67q-18 -100 27 -158t150 -58q97 0 166 58.5t87 159.5l66 364h-271z" />
    <glyph glyph-name="jcircumflex" unicode="&#x135;" horiz-adv-x="251" 
d="M207 700l89 -126l-1 -6h-62l-54 81l-85 -81h-62l1 6l135 126h39zM51 494h155l-99 -563q-15 -85 -53 -129.5t-115 -44.5q-49 0 -89 25l30 53q30 -18 67 -18q47 1 66.5 29t29.5 85l89 505h-92z" />
    <glyph glyph-name="Kcommaaccent" unicode="&#x136;" horiz-adv-x="714" 
d="M274 -227l44 74q-25 5 -25 32q0 39 36 51q33 10 51 -12q8 -10 8 -24q0 -13 -25 -56.5t-41 -64.5h-48zM168 63h96l-11 -63h-255l11 63h91l101 574h-90l11 63h239l-11 -63h-81l-52 -298l367 298h-85l11 63h248l-11 -63h-73l-306 -251l186 -323h107l-11 -63h-182l10 59
l-164 285l-112 -89z" />
    <glyph glyph-name="kcommaaccent" unicode="&#x137;" horiz-adv-x="533" 
d="M158 -214l41 71q-24 5 -24 31q0 36 35 46q31 10 48 -11q7 -9 7 -22q0 -12 -22.5 -52.5t-38.5 -62.5h-46zM142 641h-86l11 59h151l-77 -433l88 70l145 105l9 54h144l-9 -57h-62l-204 -152l104 -175q27 -45 46.5 -53t68.5 5l-10 -60q-53 -17 -88 -1.5t-68 73.5l-103 175
l-73 -52l-35 -199h-66z" />
    <glyph glyph-name="kgreenlandic" unicode="&#x138;" horiz-adv-x="555" 
d="M127 435h-86l11 59h151l-38 -227l88 70l145 105l9 54h144l-9 -57h-62l-204 -152l104 -175q27 -45 45 -53t67 5l-10 -60q-53 -16 -86.5 -1t-66.5 73l-101 177l-75 -54l-35 -199h-66z" />
    <glyph glyph-name="Lacute" unicode="&#x139;" horiz-adv-x="623" 
d="M281 757h-60l1 5l96 120h79zM200 637h-90l11 63h245l-11 -63h-86l-101 -573h324l22 109h63l-31 -173h-546l11 63h88z" />
    <glyph glyph-name="lacute" unicode="&#x13a;" horiz-adv-x="253" 
d="M158 763l88 117h74l-107 -121h-56zM50 112l95 531h-87l10 57h152l-105 -588q-2 -10 -2 -18.5t2 -14t3.5 -10.5t7 -7t8 -4t11 -2t11 -0.5t13 1t13 2t13.5 2.5l-6 -60q-46 -4 -81 -1.5t-51 30t-7 82.5z" />
    <glyph glyph-name="Lcommaaccent" unicode="&#x13b;" horiz-adv-x="623" 
d="M200 637h-90l11 63h245l-11 -63h-86l-101 -573h324l22 109h63l-31 -173h-546l11 63h88zM199 -229l44 74q-25 5 -25 31q0 37 35 49q31 10 48 -12q7 -9 7 -23q0 -10 -24.5 -55t-38.5 -64h-46z" />
    <glyph glyph-name="lcommaaccent" unicode="&#x13c;" horiz-adv-x="253" 
d="M43 -221l41 72q-24 5 -24 31q0 29 22.5 42.5t45.5 4.5t23 -35q0 -10 -24 -52t-39 -63h-45zM50 112l95 531h-87l10 57h152l-105 -588q-2 -10 -2 -18.5t2 -14t3.5 -10.5t7 -7t8 -4t11 -2t11 -0.5t13 1t13 2t13.5 2.5l-6 -60q-46 -4 -81 -1.5t-51 30t-7 82.5z" />
    <glyph glyph-name="Lcaron" unicode="&#x13d;" horiz-adv-x="624" 
d="M200 637h-90l11 63h245l-11 -63h-86l-101 -573h324l22 109h63l-31 -173h-546l11 63h88zM513 547h-55l65 152h71z" />
    <glyph glyph-name="lcaron" unicode="&#x13e;" horiz-adv-x="253" 
d="M265 555l58 146h63l-72 -146h-49zM50 112l95 531h-87l10 57h152l-105 -588q-2 -10 -2 -18.5t2 -14t3.5 -10.5t7 -7t8 -4t11 -2t11 -0.5t13 1t13 2t13.5 2.5l-6 -60q-46 -4 -81 -1.5t-51 30t-7 82.5z" />
    <glyph glyph-name="Ldot" unicode="&#x13f;" horiz-adv-x="623" 
d="M168 64h324l22 109h63l-31 -173h-546l11 63h88l101 574h-90l11 63h245l-11 -63h-86zM390 298q-18 0 -29.5 10.5t-11.5 29.5q0 26 17.5 41t39.5 15q18 0 30 -10.5t12 -29.5q0 -26 -18 -41t-40 -15z" />
    <glyph glyph-name="ldot" unicode="&#x140;" horiz-adv-x="330" 
d="M273 290q-17 0 -28.5 10.5t-11.5 29.5q0 26 17.5 41t39.5 15q18 0 30 -10.5t12 -29.5q0 -26 -18.5 -41t-40.5 -15zM50 112l95 531h-87l10 57h152l-105 -588q-2 -10 -2 -18.5t2 -14t3.5 -10.5t7 -7t8 -4t11 -2t11 -0.5t13 1t13 2t13.5 2.5l-6 -60q-46 -4 -81 -1.5t-51 30
t-7 82.5z" />
    <glyph glyph-name="Lslash" unicode="&#x141;" horiz-adv-x="625" 
d="M202 637h-90l11 63h245l-11 -63h-86l-44 -252l112 44l-11 -59l-111 -42l-47 -264h324l22 109h63l-31 -173h-546l11 63h88l42 236l-82 -31l10 57l82 32z" />
    <glyph glyph-name="lslash" unicode="&#x142;" horiz-adv-x="273" 
d="M66 112l32 183l-75 -29l9 54l76 29l53 294h-87l10 57h152l-58 -323l88 33l-10 -56l-88 -33l-37 -209q-2 -10 -2 -18.5t2 -14t3.5 -10.5t7 -7t8 -4t11 -2t11 -0.5t13 1t13 2t13.5 2.5l-6 -60q-46 -4 -81 -1.5t-51 30t-7 82.5z" />
    <glyph glyph-name="Nacute" unicode="&#x143;" horiz-adv-x="833" 
d="M454 768l93 125h81l-114 -129h-60v4zM247 0h-247l11 63h88l101 574h-90l11 63h137l346 -576l90 513h-90l11 63h246l-11 -63h-88l-112 -637h-49l-344 568l-89 -505h90z" />
    <glyph glyph-name="nacute" unicode="&#x144;" horiz-adv-x="656" 
d="M409 578h-60l1 4l91 114h78zM163 272l-48 -272h-64l78 437h-87l11 59h144l-12 -88q76 96 194 96q104 0 148.5 -58.5t25.5 -165.5q-16 -104 -29 -168q-5 -31 4.5 -44.5t28.5 -12t42 4.5q3 1 5 1l-7 -60q-46 -4 -80.5 -1.5t-50.5 30t-7 82.5l29 167q15 83 -16 123t-110 40
q-73 0 -129.5 -48t-69.5 -122z" />
    <glyph glyph-name="Ncommaaccent" unicode="&#x145;" horiz-adv-x="833" 
d="M294 -220l46 78q-27 5 -27 32q0 38 37 50q34 10 52 -12q9 -10 9 -24q0 -11 -27 -59t-41 -65h-49zM247 0h-247l11 63h88l101 574h-90l11 63h137l346 -576l90 513h-90l11 63h246l-11 -63h-88l-112 -637h-49l-344 568l-89 -505h90z" />
    <glyph glyph-name="ncommaaccent" unicode="&#x146;" horiz-adv-x="656" 
d="M214 -215l42 72q-25 5 -25 30q0 36 35 46q31 10 48 -11q7 -9 7 -22q0 -10 -24.5 -53.5t-37.5 -61.5h-45zM163 272l-48 -272h-64l78 437h-87l11 59h144l-12 -88q76 96 194 96q104 0 148.5 -58.5t25.5 -165.5q-16 -104 -29 -168q-5 -31 4.5 -44.5t28.5 -12t42 4.5q3 1 5 1
l-7 -60q-46 -4 -80.5 -1.5t-50.5 30t-7 82.5l29 167q15 83 -16 123t-110 40q-73 0 -129.5 -48t-69.5 -122z" />
    <glyph glyph-name="Ncaron" unicode="&#x147;" horiz-adv-x="833" 
d="M667 887l-1 -6l-159 -126h-45l-114 126l1 6h65l76 -83l105 83h72zM247 0h-247l11 63h88l101 574h-90l11 63h137l346 -576l90 513h-90l11 63h246l-11 -63h-88l-112 -637h-49l-344 568l-89 -505h90z" />
    <glyph glyph-name="ncaron" unicode="&#x148;" horiz-adv-x="656" 
d="M558 701l-1 -5l-153 -120h-45l-109 120l1 5h64l73 -78l103 78h67zM163 272l-48 -272h-64l78 437h-87l11 59h144l-12 -88q76 96 194 96q104 0 148.5 -58.5t25.5 -165.5q-16 -104 -29 -168q-5 -31 4.5 -44.5t28.5 -12t42 4.5q3 1 5 1l-7 -60q-46 -4 -80.5 -1.5t-50.5 30
t-7 82.5l29 167q15 83 -16 123t-110 40q-73 0 -129.5 -48t-69.5 -122z" />
    <glyph glyph-name="napostrophe" unicode="&#x149;" horiz-adv-x="656" 
d="M163 272l-48 -272h-64l78 437h-87l11 59h144l-12 -88q76 96 194 96q104 0 148.5 -58.5t25.5 -165.5q-16 -104 -29 -168q-5 -31 4.5 -44.5t28.5 -12t42 4.5q3 1 5 1l-7 -60q-46 -4 -80.5 -1.5t-50.5 30t-7 82.5l29 167q15 83 -16 123t-110 40q-73 0 -129.5 -48t-69.5 -122
z" />
    <glyph glyph-name="Eng" unicode="&#x14a;" horiz-adv-x="833" 
d="M247 0h-247l11 63h88l101 574h-90l11 63h137l346 -576l90 513h-90l11 63h246l-11 -63h-88l-114 -667q-13 -89 -53 -131.5t-120 -42.5q-46 0 -89 30l33 53q28 -21 65 -19q48 0 68.5 27.5t29.5 82.5l8 48l-333 550l-89 -505h90z" />
    <glyph glyph-name="eng" unicode="&#x14b;" horiz-adv-x="634" 
d="M115 0h-65l79 435h-86l10 59h146l-14 -89q78 98 196 98q104 0 149 -60t27 -165l-51 -292q-14 -84 -51.5 -127t-113.5 -43q-47 0 -86 26l32 53q28 -19 62 -18q45 1 63 26.5t28 82.5l52 291q29 165 -131 165q-72 -1 -128 -50.5t-69 -121.5z" />
    <glyph glyph-name="Omacron" unicode="&#x14c;" horiz-adv-x="810" 
d="M335 799l10 57h319l-10 -57h-319zM478 711q86 0 149.5 -31t95.5 -82t45.5 -116.5t-0.5 -135.5q-12 -73 -44 -136.5t-83 -114t-125.5 -79.5t-164.5 -29q-147 0 -224 85.5t-73 213.5q4 111 53 206t146.5 157t224.5 62zM700 349q13 57 4 110.5t-33.5 95.5t-77 67t-126.5 25
q-136 0 -226 -86.5t-112 -211.5q-6 -46 -5 -88.5t18 -80.5t44 -66.5t72.5 -45t104.5 -16.5q69 0 129.5 25.5t102 68t68.5 94.5t37 109z" />
    <glyph glyph-name="omacron" unicode="&#x14d;" horiz-adv-x="607" 
d="M217 619l9 54h289l-9 -54h-289zM36 204q0 130 90 215t214 85q97 0 155.5 -59t58.5 -156q0 -131 -88 -214t-216 -83q-95 0 -154.5 58t-59.5 154zM485 245q16 88 -29 143.5t-126 55.5q-93 0 -160.5 -66.5t-67.5 -165.5q0 -73 42 -116t116 -43q85 0 147 52.5t78 139.5z" />
    <glyph glyph-name="Obreve" unicode="&#x14e;" horiz-adv-x="810" 
d="M644 899q-9 -55 -52 -86.5t-100 -31.5q-58 0 -90.5 31.5t-20.5 86.5h53q-5 -31 12 -50t54 -19q35 0 59.5 19.5t30.5 49.5h54zM478 711q86 0 149.5 -31t95.5 -82t45.5 -116.5t-0.5 -135.5q-12 -73 -44 -136.5t-83 -114t-125.5 -79.5t-164.5 -29q-147 0 -224 85.5
t-73 213.5q4 111 53 206t146.5 157t224.5 62zM700 349q13 57 4 110.5t-33.5 95.5t-77 67t-126.5 25q-136 0 -226 -86.5t-112 -211.5q-6 -46 -5 -88.5t18 -80.5t44 -66.5t72.5 -45t104.5 -16.5q69 0 129.5 25.5t102 68t68.5 94.5t37 109z" />
    <glyph glyph-name="obreve" unicode="&#x14f;" horiz-adv-x="607" 
d="M450 698h53q-8 -57 -50.5 -89t-99.5 -32t-89 32t-20 89h52q-5 -31 12.5 -51t54.5 -20q35 0 58.5 20t28.5 51zM36 204q0 130 90 215t214 85q97 0 155.5 -59t58.5 -156q0 -131 -88 -214t-216 -83q-95 0 -154.5 58t-59.5 154zM485 245q16 88 -29 143.5t-126 55.5
q-93 0 -160.5 -66.5t-67.5 -165.5q0 -73 42 -116t116 -43q85 0 147 52.5t78 139.5z" />
    <glyph glyph-name="Ohungarumlaut" unicode="&#x150;" horiz-adv-x="810" 
d="M575 779h-57l94 114h74zM436 780h-58l94 113h73zM478 711q86 0 149.5 -31t95.5 -82t45.5 -116.5t-0.5 -135.5q-12 -73 -44 -136.5t-83 -114t-125.5 -79.5t-164.5 -29q-147 0 -224 85.5t-73 213.5q4 111 53 206t146.5 157t224.5 62zM700 349q13 57 4 110.5t-33.5 95.5
t-77 67t-126.5 25q-136 0 -226 -86.5t-112 -211.5q-6 -46 -5 -88.5t18 -80.5t44 -66.5t72.5 -45t104.5 -16.5q69 0 129.5 25.5t102 68t68.5 94.5t37 109z" />
    <glyph glyph-name="ohungarumlaut" unicode="&#x151;" horiz-adv-x="607" 
d="M244 588l90 106h71l-105 -106h-56zM381 588l90 105h72l-107 -105h-55zM36 204q0 130 90 215t214 85q97 0 155.5 -59t58.5 -156q0 -131 -88 -214t-216 -83q-95 0 -154.5 58t-59.5 154zM485 245q16 88 -29 143.5t-126 55.5q-93 0 -160.5 -66.5t-67.5 -165.5q0 -73 42 -116
t116 -43q85 0 147 52.5t78 139.5z" />
    <glyph glyph-name="OE" unicode="&#x152;" horiz-adv-x="967" 
d="M445 60l102 581q-35 9 -77 9q-137 0 -226 -85t-112 -215q-13 -81 6 -147.5t77.5 -109t149.5 -42.5q43 0 80 9zM867 0h-433q-48 -8 -80 -8q-148 0 -225.5 82.5t-72.5 212.5q3 84 32 158.5t80.5 133.5t132 93.5t179.5 34.5q40 0 80 -7h415l-30 -170h-61l16 108h-290
l-44 -248h286l-11 -63h-286l-47 -263h306l22 108h62z" />
    <glyph glyph-name="oe" unicode="&#x153;" horiz-adv-x="1020" 
d="M545 276l369 -1q14 82 -25 125.5t-128 43.5q-74 0 -133.5 -44.5t-82.5 -123.5zM485 278q0 73 -43.5 118.5t-113.5 45.5q-90 0 -157.5 -68t-67.5 -162q0 -72 42 -116t114 -44q94 0 160 64.5t66 161.5zM874 123l37 -39q-43 -44 -105 -67.5t-123 -23.5q-75 0 -127 33t-67 96
q-78 -129 -240 -129q-100 0 -156 57t-56 154q0 129 89.5 214.5t212.5 85.5q74 0 125 -36.5t66 -101.5q36 63 100.5 100t139.5 37q117 0 174.5 -71.5t19.5 -210.5h-428q-7 -79 37.5 -123.5t121.5 -44.5q48 0 98 18.5t81 51.5z" />
    <glyph glyph-name="Racute" unicode="&#x154;" horiz-adv-x="750" 
d="M400 771l95 122h79l-116 -126h-59zM216 331h231q97 0 147.5 49t50.5 130q0 57 -37.5 91.5t-106.5 34.5h-231zM492 63l-121 207h-165l-37 -206h101l-11 -64h-260l11 64h90l101 572h-90l11 64h390q96 0 148 -50t54 -137q2 -105 -67.5 -173t-188.5 -68h-12l126 -208h113
l-11 -64h-193z" />
    <glyph glyph-name="racute" unicode="&#x155;" horiz-adv-x="454" 
d="M306 582h-54v3l87 112h73zM117 0h-65l77 436h-86l10 58h143l-8 -82q29 44 77 67t100 23q55 0 104 -33l-39 -55q-38 25 -81 25q-72 -1 -121 -44t-61 -113z" />
    <glyph glyph-name="Rcommaaccent" unicode="&#x156;" horiz-adv-x="750" 
d="M275 -224l45 75q-27 5 -27 31q0 29 24.5 43t48.5 5t24 -36q0 -10 -26.5 -55.5t-39.5 -62.5h-49zM216 331h231q97 0 147.5 49t50.5 130q0 57 -37.5 91.5t-106.5 34.5h-231zM492 63l-121 207h-165l-37 -206h101l-11 -64h-260l11 64h90l101 572h-90l11 64h390q96 0 148 -50
t54 -137q2 -105 -67.5 -173t-188.5 -68h-12l126 -208h113l-11 -64h-193z" />
    <glyph glyph-name="rcommaaccent" unicode="&#x157;" horiz-adv-x="454" 
d="M6 -214l40 70q-24 5 -24 29q0 36 34 46q30 9 46 -12q7 -8 7 -21q0 -10 -24 -53t-37 -59h-42zM117 0h-65l77 436h-86l10 58h143l-8 -82q29 44 77 67t100 23q55 0 104 -33l-39 -55q-38 25 -81 25q-72 -1 -121 -44t-61 -113z" />
    <glyph glyph-name="Rcaron" unicode="&#x158;" horiz-adv-x="750" 
d="M291 886v5h67l75 -81l104 81h71v-5l-158 -125h-46zM216 331h231q97 0 147.5 49t50.5 130q0 57 -37.5 91.5t-106.5 34.5h-231zM492 63l-121 207h-165l-37 -206h101l-11 -64h-260l11 64h90l101 572h-90l11 64h390q96 0 148 -50t54 -137q2 -105 -67.5 -173t-188.5 -68h-12
l126 -208h113l-11 -64h-193z" />
    <glyph glyph-name="rcaron" unicode="&#x159;" horiz-adv-x="454" 
d="M461 699v-4l-149 -122h-43l-105 121l1 5h66l69 -76l97 76h64zM117 0h-65l77 436h-86l10 58h143l-8 -82q29 44 77 67t100 23q55 0 104 -33l-39 -55q-38 25 -81 25q-72 -1 -121 -44t-61 -113z" />
    <glyph glyph-name="Sacute" unicode="&#x15a;" horiz-adv-x="657" 
d="M380 785l96 122h79l-116 -126h-60zM397 713q156 0 235 -79q-1 -8 -25 -137h-61l16 107q-61 48 -175 48q-88 0 -152.5 -37.5t-64.5 -109.5q0 -50 45 -73t133 -39q44 -8 73.5 -15t65.5 -21t57 -31t36 -45t15 -64q0 -65 -27 -111.5t-75 -71.5t-102.5 -36t-118.5 -11
q-158 0 -247 96q2 8 13 71t12 69h63l-16 -113q31 -28 82.5 -43.5t104.5 -15.5q37 0 72 6t72 20.5t63 43.5t33 70q5 25 -1 44.5t-23.5 33.5t-33.5 23.5t-46 17t-46 11t-47 8.5q-50 9 -85.5 19.5t-70.5 29.5t-53 49t-18 71q0 57 27 100.5t71.5 67.5t94.5 35.5t104 11.5z" />
    <glyph glyph-name="sacute" unicode="&#x15b;" horiz-adv-x="509" 
d="M351 694h74l-106 -115h-55v3zM469 462l-23 -113h-56l11 76q-44 26 -118 26q-65 0 -108 -24.5t-43 -71.5q0 -34 33 -49t91 -22q102 -15 139 -40q54 -36 42 -109q-8 -52 -45.5 -85.5t-84.5 -46.5t-103 -13q-102 0 -193 58l21 116h55l-11 -79q59 -35 140 -35q34 0 64 6
t59.5 27t35.5 54q8 44 -27.5 62.5t-106.5 26.5q-39 6 -66 13.5t-55.5 22.5t-41.5 41.5t-9 62.5q9 72 74 106.5t150 34.5q101 0 176 -45z" />
    <glyph glyph-name="Scircumflex" unicode="&#x15c;" horiz-adv-x="657" 
d="M264 783l1 5l160 128h46l114 -128l-1 -5h-66l-77 84l-106 -84h-71zM397 713q156 0 235 -79q-1 -8 -25 -137h-61l16 107q-61 48 -175 48q-88 0 -152.5 -37.5t-64.5 -109.5q0 -50 45 -73t133 -39q44 -8 73.5 -15t65.5 -21t57 -31t36 -45t15 -64q0 -65 -27 -111.5t-75 -71.5
t-102.5 -36t-118.5 -11q-158 0 -247 96q2 8 13 71t12 69h63l-16 -113q31 -28 82.5 -43.5t104.5 -15.5q37 0 72 6t72 20.5t63 43.5t33 70q5 25 -1 44.5t-23.5 33.5t-33.5 23.5t-46 17t-46 11t-47 8.5q-50 9 -85.5 19.5t-70.5 29.5t-53 49t-18 71q0 57 27 100.5t71.5 67.5
t94.5 35.5t104 11.5z" />
    <glyph glyph-name="scircumflex" unicode="&#x15d;" horiz-adv-x="509" 
d="M157 572l1 5l151 122h44l108 -122l-1 -5h-65l-72 80l-99 -80h-67zM469 462l-23 -113h-56l11 76q-44 26 -118 26q-65 0 -108 -24.5t-43 -71.5q0 -34 33 -49t91 -22q102 -15 139 -40q54 -36 42 -109q-8 -52 -45.5 -85.5t-84.5 -46.5t-103 -13q-102 0 -193 58l21 116h55
l-11 -79q59 -35 140 -35q34 0 64 6t59.5 27t35.5 54q8 44 -27.5 62.5t-106.5 26.5q-39 6 -66 13.5t-55.5 22.5t-41.5 41.5t-9 62.5q9 72 74 106.5t150 34.5q101 0 176 -45z" />
    <glyph glyph-name="Scedilla" unicode="&#x15e;" horiz-adv-x="656" 
d="M397 713q156 0 235 -79q-1 -8 -25 -137h-61l16 107q-61 48 -175 48q-88 0 -152.5 -37.5t-64.5 -109.5q0 -50 45 -73t133 -39q45 -8 73.5 -14.5t65 -20.5t57.5 -31t36 -45t15 -64q0 -58 -25 -102t-68 -70t-91.5 -39.5t-103.5 -17.5l-21 -50q41 1 64 -15t24 -39.5t-8 -48.5
q-16 -35 -50 -53.5t-74 -18.5q-71 0 -99 51l36 32q22 -36 72 -36q48 0 65 35q14 30 -10 47.5t-75 4.5l-10 10l36 80q-147 3 -232 95q2 8 13 71t12 69h63l-16 -112q66 -59 188 -59q37 0 72 6t71.5 20t62.5 43t33 70q5 25 -1 44.5t-23.5 33.5t-33.5 23.5t-46 17t-46 11
t-47 8.5q-51 9 -86 19.5t-70 29t-53 48.5t-18 71q0 57 27 100.5t71.5 68t94.5 36t104 11.5z" />
    <glyph glyph-name="scedilla" unicode="&#x15f;" horiz-adv-x="509" 
d="M466 456l-21 -113h-56l10 76q-42 24 -117 24q-65 0 -106.5 -23.5t-44.5 -68.5q-1 -18 8.5 -31t29 -20.5t39 -11.5t47.5 -8q34 -5 55 -9.5t51.5 -16t46.5 -26t25.5 -41t2.5 -60.5q-13 -67 -72.5 -101t-140.5 -37l-17 -42q58 3 76.5 -28.5t1.5 -68.5q-28 -63 -115 -63
q-69 0 -96 48l35 28q19 -32 68 -32q46 0 61 31q14 27 -10 43.5t-72 4.5l-8 8l32 70q-88 5 -169 56l22 117h57l-11 -82q51 -30 138 -30q34 0 64 6t58.5 26.5t35.5 52.5q4 23 -4.5 39t-29.5 26t-43.5 15t-56.5 9q-38 6 -65.5 13.5t-55.5 22.5t-41 40.5t-9 60.5
q9 72 73.5 106.5t148.5 34.5q103 0 175 -45z" />
    <glyph glyph-name="Scaron" unicode="&#x160;" horiz-adv-x="657" 
d="M609 898l-1 -5l-156 -118h-51l-117 118l1 5h69l78 -79l108 79h69zM397 713q156 0 235 -79q-1 -8 -25 -137h-61l16 107q-61 48 -175 48q-88 0 -152.5 -37.5t-64.5 -109.5q0 -50 45 -73t133 -39q44 -8 73.5 -15t65.5 -21t57 -31t36 -45t15 -64q0 -65 -27 -111.5t-75 -71.5
t-102.5 -36t-118.5 -11q-158 0 -247 96q2 8 13 71t12 69h63l-16 -113q31 -28 82.5 -43.5t104.5 -15.5q37 0 72 6t72 20.5t63 43.5t33 70q5 25 -1 44.5t-23.5 33.5t-33.5 23.5t-46 17t-46 11t-47 8.5q-50 9 -85.5 19.5t-70.5 29.5t-53 49t-18 71q0 57 27 100.5t71.5 67.5
t94.5 35.5t104 11.5z" />
    <glyph glyph-name="scaron" unicode="&#x161;" horiz-adv-x="509" 
d="M477 683l-1 -5l-147 -118h-43l-104 118l1 5h61l70 -78l99 78h64zM469 462l-23 -113h-56l11 76q-44 26 -118 26q-65 0 -108 -24.5t-43 -71.5q0 -34 33 -49t91 -22q102 -15 139 -40q54 -36 42 -109q-8 -52 -45.5 -85.5t-84.5 -46.5t-103 -13q-102 0 -193 58l21 116h55
l-11 -79q59 -35 140 -35q34 0 64 6t59.5 27t35.5 54q8 44 -27.5 62.5t-106.5 26.5q-39 6 -66 13.5t-55.5 22.5t-41.5 41.5t-9 62.5q9 72 74 106.5t150 34.5q101 0 176 -45z" />
    <glyph glyph-name="Tcommaaccent" unicode="&#x162;" horiz-adv-x="629" 
d="M391 0h-104l-19 -48q42 3 65 -12.5t23.5 -40t-9.5 -50.5q-18 -41 -60.5 -60t-86.5 -11t-70 38l30 38q22 -29 70.5 -30t67.5 35q14 30 -11.5 49t-74.5 5l-8 8l33 79h-101l11 64h93l101 573h-185l-21 -109h-61l30 172h565l-30 -172h-61l16 109h-184l-101 -573h93z" />
    <glyph glyph-name="tcommaaccent" unicode="&#x163;" horiz-adv-x="378" 
d="M37 -165l36 29q23 -35 66 -35q49 0 64 36q9 17 1.5 30.5t-28.5 18t-55 -3.5l-8 9l36 83q-46 15 -58 59.5t2 111.5l47 265h-103l10 55h102l25 141l66 7l-26 -148h161l-10 -55h-161l-47 -265q-5 -36 -5 -63t16.5 -42.5t52.5 -15.5q34 0 79 20l11 -54q-57 -25 -102 -25
q-11 0 -16 1l-19 -45q58 3 76.5 -26t1.5 -68q-14 -33 -45.5 -51t-67.5 -19q-32 -1 -60.5 12.5t-41.5 37.5z" />
    <glyph glyph-name="Tcaron" unicode="&#x164;" horiz-adv-x="630" 
d="M584 895l-1 -6l-160 -128h-47l-114 128l1 6h66l77 -85l108 85h70zM391 0h-255l11 64h94l101 573h-185l-21 -109h-62l30 172h566l-30 -172h-61l16 109h-185l-101 -573h93z" />
    <glyph glyph-name="tcaron" unicode="&#x165;" horiz-adv-x="404" 
d="M414 482h-50l70 159h63zM143 493l25 141l65 7l-27 -148h113l-10 -55h-113l-50 -281q-9 -52 5 -78.5t63 -26.5q35 0 79 21l11 -55q-55 -24 -102 -25q-77 -1 -105.5 41t-13.5 123l50 281h-95l10 55h95z" />
    <glyph glyph-name="Tbar" unicode="&#x166;" horiz-adv-x="632" 
d="M161 315l10 57h124l47 265h-186l-21 -109h-61l30 172h566l-30 -172h-62l17 109h-185l-47 -265h133l-10 -57h-133l-44 -251h93l-11 -64h-255l11 64h94l44 251h-124z" />
    <glyph glyph-name="tbar" unicode="&#x167;" horiz-adv-x="378" 
d="M175 634l66 7l-26 -148h161l-10 -55h-162l-24 -139h120l-9 -49h-120l-16 -93q-9 -52 4.5 -78.5t61.5 -26.5q35 0 80 21l10 -55q-55 -24 -101 -25q-77 -1 -105 41t-14 123l16 93h-77l9 49h77l24 139h-102l10 55h102z" />
    <glyph glyph-name="Utilde" unicode="&#x168;" horiz-adv-x="803" 
d="M395 781l-40 20q18 42 53 59t73 0q4 -1 23.5 -12t23.5 -12q41 -20 63 26l41 -17q-19 -46 -54.5 -62.5t-69.5 0.5q-3 1 -22.5 12.5t-23.5 12.5q-42 21 -67 -27zM364 53q88 0 156.5 58t86.5 161l64 364h-92l12 64h247l-12 -64h-87l-64 -364q-24 -135 -110 -209t-213 -74
q-119 0 -186 75.5t-44 207.5l64 364h-86l12 64h246l-12 -64h-92l-64 -364q-19 -104 33 -161.5t141 -57.5z" />
    <glyph glyph-name="utilde" unicode="&#x169;" horiz-adv-x="653" 
d="M356 689q4 -1 24 -12.5t23 -11.5q41 -19 65 26l40 -18q-19 -45 -54.5 -61t-68.5 2q-3 1 -23.5 12.5t-23.5 12.5q-42 19 -67 -27l-40 19q19 42 52.5 58t72.5 0zM583 495l-69 -381q-5 -30 6 -43.5t31 -12.5t44 4l-7 -57q-37 -4 -69 -4t-52 21t-17 63q-77 -92 -197 -92
q-105 -1 -150 58.5t-26 165.5l39 220h-81l9 58h147l-49 -277q-15 -83 15.5 -124t115.5 -41q74 1 129 50t69 124l37 210h-86l9 58h152z" />
    <glyph glyph-name="Umacron" unicode="&#x16a;" horiz-adv-x="803" 
d="M357 777l10 56h261l-10 -56h-261zM364 53q88 0 156.5 58t86.5 161l64 364h-92l12 64h247l-12 -64h-87l-64 -364q-24 -135 -110 -209t-213 -74q-119 0 -186 75.5t-44 207.5l64 364h-86l12 64h246l-12 -64h-92l-64 -364q-19 -104 33 -161.5t141 -57.5z" />
    <glyph glyph-name="umacron" unicode="&#x16b;" horiz-adv-x="653" 
d="M242 620l10 55h251l-10 -55h-251zM583 495l-69 -381q-5 -30 6 -43.5t31 -12.5t44 4l-7 -57q-37 -4 -69 -4t-52 21t-17 63q-77 -92 -197 -92q-105 -1 -150 58.5t-26 165.5l39 220h-81l9 58h147l-49 -277q-15 -83 15.5 -124t115.5 -41q74 1 129 50t69 124l37 210h-86l9 58
h152z" />
    <glyph glyph-name="Ubreve" unicode="&#x16c;" horiz-adv-x="803" 
d="M594 889h55q-8 -59 -51.5 -90.5t-103.5 -31.5q-61 0 -94.5 31t-22.5 91h57q-6 -33 12 -52t57 -19q37 0 61 19.5t30 51.5zM364 53q88 0 156.5 58t86.5 161l64 364h-92l12 64h247l-12 -64h-87l-64 -364q-24 -135 -110 -209t-213 -74q-119 0 -186 75.5t-44 207.5l64 364h-86
l12 64h246l-12 -64h-92l-64 -364q-19 -104 33 -161.5t141 -57.5z" />
    <glyph glyph-name="ubreve" unicode="&#x16d;" horiz-adv-x="653" 
d="M499 693q-8 -56 -49.5 -87.5t-97.5 -31.5q-57 0 -89.5 31.5t-21.5 88.5h53q-5 -32 12.5 -51.5t53.5 -19.5q35 0 58.5 20t29.5 51zM583 495l-69 -381q-5 -30 6 -43.5t31 -12.5t44 4l-7 -57q-37 -4 -69 -4t-52 21t-17 63q-77 -92 -197 -92q-105 -1 -150 58.5t-26 165.5
l39 220h-81l9 58h147l-49 -277q-15 -83 15.5 -124t115.5 -41q74 1 129 50t69 124l37 210h-86l9 58h152z" />
    <glyph glyph-name="Uring" unicode="&#x16e;" horiz-adv-x="803" 
d="M609 842q0 -49 -38 -77.5t-88 -28.5q-40 0 -66 20.5t-26 57.5q0 49 38 77.5t87 28.5q38 0 65.5 -21t27.5 -57zM561 829q4 23 -9.5 37.5t-42.5 14.5q-30 0 -50.5 -17.5t-20.5 -42.5q0 -20 14 -32.5t38 -12.5q28 0 47.5 15t23.5 38zM364 53q88 0 156.5 58t86.5 161l64 364
h-92l12 64h247l-12 -64h-87l-64 -364q-24 -135 -110 -209t-213 -74q-119 0 -186 75.5t-44 207.5l64 364h-86l12 64h246l-12 -64h-92l-64 -364q-19 -104 33 -161.5t141 -57.5z" />
    <glyph glyph-name="uring" unicode="&#x16f;" horiz-adv-x="653" 
d="M468 652q0 -48 -37.5 -75.5t-87.5 -27.5q-39 0 -64.5 21t-25.5 56q0 48 37.5 76.5t85.5 28.5q38 0 65 -21t27 -58zM422 647q0 19 -14.5 31.5t-38.5 12.5q-30 0 -50 -17t-20 -41q0 -18 14.5 -30.5t37.5 -12.5q31 0 51 16.5t20 40.5zM583 495l-69 -381q-5 -30 6 -43.5
t31 -12.5t44 4l-7 -57q-37 -4 -69 -4t-52 21t-17 63q-77 -92 -197 -92q-105 -1 -150 58.5t-26 165.5l39 220h-81l9 58h147l-49 -277q-15 -83 15.5 -124t115.5 -41q74 1 129 50t69 124l37 210h-86l9 58h152z" />
    <glyph glyph-name="Uhungarumlaut" unicode="&#x170;" horiz-adv-x="803" 
d="M431 771h-57l94 114h72zM570 771h-56l93 113h72zM364 53q88 0 156.5 58t86.5 161l64 364h-92l12 64h247l-12 -64h-87l-64 -364q-24 -135 -110 -209t-213 -74q-119 0 -186 75.5t-44 207.5l64 364h-86l12 64h246l-12 -64h-92l-64 -364q-19 -104 33 -161.5t141 -57.5z" />
    <glyph glyph-name="uhungarumlaut" unicode="&#x171;" horiz-adv-x="653" 
d="M435 590h-57l88 108h73zM303 591h-57l88 107h72zM583 495l-69 -381q-5 -30 6 -43.5t31 -12.5t44 4l-7 -57q-37 -4 -69 -4t-52 21t-17 63q-77 -92 -197 -92q-105 -1 -150 58.5t-26 165.5l39 220h-81l9 58h147l-49 -277q-15 -83 15.5 -124t115.5 -41q74 1 129 50t69 124
l37 210h-86l9 58h152z" />
    <glyph glyph-name="Uogonek" unicode="&#x172;" horiz-adv-x="803" 
d="M362 53q88 0 157.5 58t87.5 161l64 364h-92l12 64h247l-12 -64h-87l-64 -364q-17 -97 -70.5 -164t-131.5 -97q-35 -21 -49 -49.5t-9 -49.5q6 -26 40.5 -29.5t82.5 22.5l4 -51q-35 -21 -76.5 -27t-74.5 9.5t-40 52.5q-4 22 7 51t34 51q-6 0 -20 -1t-19 -1
q-119 0 -186.5 75.5t-44.5 207.5l64 364h-86l12 64h246l-12 -64h-92l-64 -364q-19 -104 32 -161.5t140 -57.5z" />
    <glyph glyph-name="uogonek" unicode="&#x173;" horiz-adv-x="653" 
d="M583 495l-69 -381q-5 -30 6 -43.5t31 -12.5t44 4l-7 -57q-32 -5 -54 -5q-38 -17 -58 -47.5t-15 -50.5q7 -26 38.5 -31t75.5 16l3 -45q-51 -27 -107.5 -19t-64.5 57q-7 30 12.5 67.5t66.5 61.5q-40 19 -35 76q-77 -92 -197 -92q-105 -1 -150 58.5t-26 165.5l39 220h-81
l9 58h147l-49 -277q-15 -83 15.5 -124t115.5 -41q74 1 129 50t69 124l37 210h-86l9 58h152z" />
    <glyph glyph-name="Wcircumflex" unicode="&#x174;" horiz-adv-x="1171" 
d="M499 768l1 5l163 127h47l117 -127l-1 -5h-71l-78 83l-107 -83h-71zM1129 636l-337 -637h-69l-91 552l-293 -552h-71l-112 637h-88l11 64h268l-11 -64h-106l89 -544l313 599h42l97 -599l281 544h-110l11 64h273l-11 -64h-86z" />
    <glyph glyph-name="wcircumflex" unicode="&#x175;" horiz-adv-x="942" 
d="M365 574l1 5l158 124h46l113 -124l-1 -5h-64l-76 82l-106 -82h-71zM863 495q18 -70 22 -139.5t-9.5 -135t-43.5 -115.5t-86.5 -80.5t-132.5 -30.5q-63 0 -106 29t-58 87q-46 -65 -96 -91t-111 -26q-99 -1 -142.5 58.5t-24.5 165.5l39 220h-81l9 58h147l-49 -277
q-15 -83 14 -124t108 -41q57 1 108.5 49.5t68.5 128.5l45 264h66l-45 -262q-32 -178 123 -178q60 3 102.5 34.5t62.5 79t26.5 106.5t0.5 115t-21 105h64z" />
    <glyph glyph-name="Ycircumflex" unicode="&#x176;" horiz-adv-x="714" 
d="M283 776v4l159 125h46l115 -124l-1 -5h-66l-76 82l-104 -82h-73zM347 63h98l-11 -63h-261l11 63h94l39 219l-171 354h-73l11 64h239l-11 -64h-87l134 -289l238 289h-89l11 64h248l-11 -64h-74l-296 -354z" />
    <glyph glyph-name="ycircumflex" unicode="&#x177;" horiz-adv-x="629" 
d="M204 575l1 5l154 124h45l113 -124l-1 -5h-66l-74 81l-102 -81h-70zM432 -18l18 98q-38 -51 -85.5 -69.5t-109.5 -19.5q-98 0 -146.5 60t-29.5 165l39 220h-84l11 58h149l-49 -277q-14 -81 17 -123.5t116 -41.5q71 1 126 50.5t68 122.5l37 211h-85l11 58h149l-90 -512
q-20 -118 -91 -177t-174 -59q-100 0 -149.5 47.5t-41.5 130.5h62q-4 -59 29.5 -87.5t109.5 -28.5q71 0 124 44t69 130z" />
    <glyph glyph-name="Ydieresis" unicode="&#x178;" horiz-adv-x="714" 
d="M310 773q-16 0 -27.5 10t-11.5 27q0 25 17 39t38 14q16 0 27.5 -10t11.5 -27q0 -25 -17 -39t-38 -14zM565 773q-16 0 -27.5 10t-11.5 27q0 25 17 39t38 14q16 0 27 -10t11 -27q0 -25 -16.5 -39t-37.5 -14zM347 63h98l-11 -63h-261l11 63h94l39 219l-171 354h-73l11 64
h239l-11 -64h-87l134 -289l238 289h-89l11 64h248l-11 -64h-74l-296 -354z" />
    <glyph glyph-name="Zacute" unicode="&#x179;" horiz-adv-x="611" 
d="M355 775l97 124h80l-118 -128h-60zM191 636l-20 -105h-64l29 169h485l-5 -30l-521 -604h364l22 113h63l-32 -179h-528l6 35l517 601h-316z" />
    <glyph glyph-name="zacute" unicode="&#x17a;" horiz-adv-x="490" 
d="M313 578h-58l1 5l91 115h77zM141 435l-17 -81h-57l25 140h375l-6 -32l-363 -401h241l19 91h57l-27 -152h-400l4 23l371 412h-222z" />
    <glyph glyph-name="Zdotaccent" unicode="&#x17b;" horiz-adv-x="610" 
d="M402 780q-17 0 -29 10.5t-12 29.5q0 25 17.5 40t40.5 15q17 0 29 -10.5t12 -28.5q0 -26 -17.5 -41t-40.5 -15zM190 636l-20 -105h-64l29 169h485l-5 -30l-520 -604h363l23 113h62l-32 -179h-527l6 35l517 601h-317z" />
    <glyph glyph-name="zdotaccent" unicode="&#x17c;" horiz-adv-x="490" 
d="M305 597q-17 0 -28 10t-11 28q0 25 17 39t39 14q17 0 28 -10t11 -27q0 -25 -17 -39.5t-39 -14.5zM141 435l-17 -81h-57l25 140h375l-6 -32l-363 -401h241l19 91h57l-27 -152h-400l4 23l371 412h-222z" />
    <glyph glyph-name="Zcaron" unicode="&#x17d;" horiz-adv-x="611" 
d="M580 892v-4l-161 -124h-46l-118 123l1 5h68l78 -81l108 81h70zM191 636l-20 -105h-64l29 169h485l-5 -30l-518 -604h358l25 113h63l-32 -179h-528l6 35l515 601h-314z" />
    <glyph glyph-name="zcaron" unicode="&#x17e;" horiz-adv-x="490" 
d="M471 689v-5l-153 -121h-44l-108 121v5h63l73 -81l102 81h67zM125 359h-57l24 135h375l-6 -32l-363 -401h241l19 91h57l-27 -152h-400l4 23l371 412h-222z" />
    <glyph glyph-name="longs" unicode="&#x17f;" horiz-adv-x="331" 
d="M432 689l-26 -54q-25 13 -54 13q-93 0 -113 -114l-84 -476h108l-10 -57h-256l10 57h84l67 377h-99l9 56h99l8 43q15 81 62 126t125 45q39 0 70 -16z" />
    <glyph glyph-name="florin" unicode="&#x192;" horiz-adv-x="433" 
d="M158 -1q-29 -170 -174 -173q-51 0 -93 35l36 47q17 -15 29.5 -20t35.5 -5q42 1 66.5 28.5t34.5 87.5l77 434l-102 -1l10 58h102l8 43q15 81 62 126.5t125 45.5q60 0 100 -33l-38 -48q-31 23 -71 23q-93 0 -114 -114l-8 -43h160l-10 -58h-159z" />
    <glyph glyph-name="Aringacute" unicode="&#x1fa;" horiz-adv-x="807" 
d="M557 941h84l-109 -84h-62l1 4zM547 753q0 18 -13.5 29t-37.5 11q-30 0 -48.5 -15t-18.5 -38q0 -18 13.5 -29t36.5 -11q31 0 49.5 15t18.5 38zM249 270h317q-29 103 -94 365zM593 761q0 -63 -68 -86l167 -612h71l-11 -63h-233l11 63h90q-6 25 -18.5 73.5t-18.5 71.5h-372
l-90 -145h88l-11 -63h-238l11 63h71l384 612q-41 16 -41 62q0 44 36 70.5t82 26.5q37 0 63.5 -19.5t26.5 -53.5z" />
    <glyph glyph-name="aringacute" unicode="&#x1fb;" horiz-adv-x="662" 
d="M370 744l87 91h77l-108 -94h-57zM279 612q0 48 35 74.5t81 26.5q36 0 61 -19.5t25 -53.5q0 -46 -35 -73t-81 -27q-38 0 -62 19t-24 53zM388 676q-28 0 -47 -16.5t-19 -40.5q0 -18 13 -30t35 -12q29 0 48 16t19 40q0 18 -13.5 30.5t-35.5 12.5zM327 439q96 0 137 -57
t24 -139q-16 -80 -77.5 -136.5t-150.5 -56.5q-74 0 -116 44t-42 119q0 99 66.5 162.5t158.5 63.5zM606 57q-35 -10 -61.5 -1t-19.5 51l68 389h-62l-17 -97q-42 104 -176 104q-123 0 -212 -83.5t-89 -216.5q0 -98 57.5 -155t152.5 -58q61 0 118.5 23.5t94.5 75.5
q-6 -46 14 -69.5t53.5 -23.5t71.5 4z" />
    <glyph glyph-name="AEacute" unicode="&#x1fc;" horiz-adv-x="969" 
d="M655 765h-60l1 4l97 124h79zM297 287h210l61 340zM415 637l11 63h551l-30 -171h-62l17 108h-268l-44 -249h267l-11 -64h-267l-46 -259h283l22 108h62l-31 -173h-499l11 64h86l30 166h-244l-133 -166h91l-11 -64h-245l11 64h77l463 573h-91z" />
    <glyph glyph-name="aeacute" unicode="&#x1fd;" horiz-adv-x="1028" 
d="M701 703l-110 -119h-55v5l90 114h75zM551 274l370 -1q13 80 -29 124.5t-125 44.5q-74 0 -133.5 -44.5t-82.5 -123.5zM329 438q-93 0 -160.5 -63.5t-67.5 -163.5q0 -75 44.5 -119t115.5 -44q105 0 168 69t63 159q0 70 -42.5 116t-120.5 46zM496 0h-52l18 102
q-36 -55 -95.5 -84t-118.5 -29q-94 0 -153 57.5t-59 155.5q0 133 89 216t212 83q63 0 113 -30t64 -85l19 109h51l-18 -100q85 109 216 107q71 -1 122.5 -31.5t74.5 -93t-7 -157.5h-432q-7 -79 38.5 -123.5t122.5 -44.5q48 0 98.5 18.5t81.5 51.5l37 -39
q-43 -44 -105.5 -67.5t-123.5 -23.5q-65 0 -111 27.5t-65 77.5z" />
    <glyph glyph-name="Oslashacute" unicode="&#x1fe;" horiz-adv-x="813" 
d="M523 786h-60v4l98 124h79zM133 349q-13 -74 5 -139t67 -104l395 512q-55 29 -129 29q-138 0 -228 -87.5t-110 -210.5zM709 400q0 124 -64 185l-395 -510q48 -21 116 -21q80 0 146.5 30.5t108.5 80.5t65 111t23 124zM481 712q95 0 161 -38l66 87h71l-91 -117
q58 -50 78.5 -128.5t5.5 -166.5q-13 -71 -46.5 -134.5t-85 -115t-125.5 -82t-160 -30.5q-83 0 -147 29l-73 -94h-69l95 124q-51 37 -77.5 102.5t-26.5 140.5q0 77 28.5 151.5t80.5 135.5t134.5 98.5t180.5 37.5z" />
    <glyph glyph-name="oslashacute" unicode="&#x1ff;" horiz-adv-x="602" 
d="M377 584h-54l1 4l87 112h73zM148 95l256 332q-36 17 -76 17q-91 0 -158.5 -66.5t-67.5 -163.5q0 -78 46 -119zM445 396l-253 -328q27 -13 69 -13q93 0 159 63t66 161q0 74 -41 117zM31 -56l74 95q-69 55 -69 164q0 129 89.5 214.5t213.5 85.5q59 0 104 -24l48 63h65
l-70 -91q64 -56 64 -163q0 -129 -88.5 -212.5t-213.5 -83.5q-58 0 -101 20l-52 -68h-64z" />
    <glyph glyph-name="Scommaaccent" unicode="&#x218;" horiz-adv-x="657" 
d="M190 -250l40 79q-24 7 -24 31q0 30 24 44t48 5t24 -36q0 -6 -10.5 -26.5t-28 -51.5t-24.5 -45h-49zM397 713q156 0 235 -79q-1 -8 -25 -137h-61l16 107q-61 48 -175 48q-88 0 -152.5 -37.5t-64.5 -109.5q0 -50 45 -73t133 -39q44 -8 73.5 -15t65.5 -21t57 -31t36 -45
t15 -64q0 -65 -27 -111.5t-75 -71.5t-102.5 -36t-118.5 -11q-158 0 -247 96q2 8 13 71t12 69h63l-16 -113q31 -28 82.5 -43.5t104.5 -15.5q37 0 72 6t72 20.5t63 43.5t33 70q5 25 -1 44.5t-23.5 33.5t-33.5 23.5t-46 17t-46 11t-47 8.5q-50 9 -85.5 19.5t-70.5 29.5t-53 49
t-18 71q0 57 27 100.5t71.5 67.5t94.5 35.5t104 11.5z" />
    <glyph glyph-name="scommaaccent" unicode="&#x219;" horiz-adv-x="509" 
d="M125 -240l37 73q-22 5 -22 30q0 35 33 46q31 10 49 -11q7 -9 7 -22q0 -10 -20.5 -49.5t-38.5 -66.5h-45zM469 462l-23 -113h-56l11 76q-44 26 -118 26q-65 0 -108 -24.5t-43 -71.5q0 -34 33 -49t91 -22q102 -15 139 -40q54 -36 42 -109q-8 -52 -45.5 -85.5t-84.5 -46.5
t-103 -13q-102 0 -193 58l21 116h55l-11 -79q59 -35 140 -35q34 0 64 6t59.5 27t35.5 54q8 44 -27.5 62.5t-106.5 26.5q-39 6 -66 13.5t-55.5 22.5t-41.5 41.5t-9 62.5q9 72 74 106.5t150 34.5q101 0 176 -45z" />
    <glyph glyph-name="uni021A" unicode="&#x21a;" horiz-adv-x="630" 
d="M391 0h-255l11 64h94l101 573h-185l-21 -109h-62l30 172h566l-30 -172h-61l16 109h-185l-101 -573h93zM180 -238l39 76q-25 7 -25 31q0 37 37 49q34 11 53 -10q9 -10 9 -25q0 -7 -10 -26.5t-28.5 -51.5t-24.5 -43h-50z" />
    <glyph glyph-name="uni021B" unicode="&#x21b;" horiz-adv-x="377" 
d="M174 634l66 7l-26 -148h161l-10 -55h-162l-50 -281q-9 -52 5 -78.5t62 -26.5q35 0 80 21l10 -55q-55 -24 -101 -25q-78 -1 -106.5 41t-13.5 123l50 281h-102l10 55h102zM90 -251l41 80q-22 5 -22 29q0 36 34 47q30 9 46 -12q7 -8 7 -21q0 -6 -11 -27.5t-27 -51.5t-23 -44
h-45z" />
    <glyph glyph-name="dotlessj" unicode="&#x237;" horiz-adv-x="252" 
d="M52 494h155l-99 -563q-15 -85 -53.5 -129.5t-115.5 -44.5q-48 0 -89 25l30 53q32 -18 67 -18q47 1 66.5 29t29.5 85l89 505h-91z" />
    <glyph glyph-name="circumflex" unicode="&#x2c6;" horiz-adv-x="422" 
d="M141 571l1 6l159 128h47l113 -128l-1 -6h-66l-77 85l-106 -85h-70z" />
    <glyph glyph-name="caron" unicode="&#x2c7;" horiz-adv-x="404" 
d="M482 701l-1 -6l-160 -128h-46l-115 128l1 6h65l77 -86l108 86h71z" />
    <glyph glyph-name="breve" unicode="&#x2d8;" horiz-adv-x="341" 
d="M417 700q-8 -58 -51.5 -91.5t-99.5 -32.5q-57 -1 -88.5 31.5t-19.5 92.5h53q-6 -32 11 -52.5t53 -20.5q35 0 59 20t30 53h53z" />
    <glyph glyph-name="dotaccent" unicode="&#x2d9;" horiz-adv-x="204" 
d="M201 614q-17 0 -28 10t-11 29q0 25 17 39.5t39 14.5q17 0 28 -10t11 -28q0 -26 -17 -40.5t-39 -14.5z" />
    <glyph glyph-name="ogonek" unicode="&#x2db;" horiz-adv-x="387" 
d="M228 -128l27 -29q-41 -46 -104 -49q-41 -2 -67.5 15.5t-30.5 47.5q-7 47 36.5 92.5t130.5 38.5l4 -33q-54 4 -89 -22.5t-29 -57.5q2 -15 16.5 -24t35.5 -8q37 2 70 29z" />
    <glyph glyph-name="tilde" unicode="&#x2dc;" horiz-adv-x="341" 
d="M270 719q4 -1 24 -12.5t23 -12.5q41 -21 65 27l40 -18q-19 -47 -54.5 -63.5t-68.5 1.5q-4 1 -24 12.5t-24 12.5q-40 21 -67 -28l-39 21q18 43 52.5 60t72.5 0z" />
    <glyph glyph-name="hungarumlaut" unicode="&#x2dd;" horiz-adv-x="370" 
d="M332 584h-58l96 117h76zM189 584h-59l97 117h75z" />
    <glyph glyph-name="commaaccentcomb" unicode="&#x326;" horiz-adv-x="94" 
d="M163 -243h-47l42 83q-29 8 -23 40q5 26 27.5 37.5t43 2.5t20.5 -34q0 -8 -8.5 -26t-28 -54t-26.5 -49z" />
    <glyph glyph-name="_375" unicode="&#x394;" horiz-adv-x="693" 
d="M483 700l196 -700h-687l441 700h50zM445 623l-353 -565h506z" />
    <glyph glyph-name="Omega" unicode="&#x3a9;" horiz-adv-x="821" 
d="M36 0l11 60h135q-59 33 -90 96.5t-31 140.5q0 79 30 153t83.5 132.5t134.5 94t176 35.5q143 0 220.5 -85.5t77.5 -213.5q0 -113 -59.5 -208t-165.5 -146h136l-10 -60h-248l11 61q105 24 173.5 106t87.5 185q22 124 -38 210t-196 86q-155 0 -249.5 -103.5t-94.5 -242.5
q0 -86 42 -153t123 -87l-11 -61h-248z" />
    <glyph glyph-name="mu" unicode="&#x3bc;" horiz-adv-x="647" 
d="M497 0h-61l10 80q-29 -46 -79.5 -71t-101.5 -25q-52 0 -93 23.5t-51 69.5l-53 -301l-66 1l125 711h67l-50 -284q-14 -75 27 -118.5t107 -43.5t120.5 44.5t69.5 130.5l48 271h67z" />
    <glyph glyph-name="pi" unicode="&#x3c0;" horiz-adv-x="677" 
d="M154 0l-65 -1l77 439h-118l10 55h618l-10 -55h-121l-52 -295q-10 -55 7.5 -79t76.5 -15l-6 -52q-89 -16 -122.5 24t-18.5 122l52 295h-251z" />
    <glyph glyph-name="Wgrave" unicode="&#x1e80;" horiz-adv-x="1171" 
d="M638 762l-64 126h78l47 -122l-1 -4h-60zM1129 636l-337 -637h-69l-91 552l-293 -552h-71l-112 637h-88l11 64h268l-11 -64h-106l89 -544l313 599h42l97 -599l281 544h-110l11 64h273l-11 -64h-86z" />
    <glyph glyph-name="wgrave" unicode="&#x1e81;" horiz-adv-x="942" 
d="M552 572h-56l-64 118h74l47 -114zM863 495q18 -70 22 -139.5t-9.5 -135t-43.5 -115.5t-86.5 -80.5t-132.5 -30.5q-63 0 -106 29t-58 87q-46 -65 -96 -91t-111 -26q-99 -1 -142.5 58.5t-24.5 165.5l39 220h-81l9 58h147l-49 -277q-15 -83 14 -124t108 -41q57 1 108.5 49.5
t68.5 128.5l45 264h66l-45 -262q-32 -178 123 -178q60 3 102.5 34.5t62.5 79t26.5 106.5t0.5 115t-21 105h64z" />
    <glyph glyph-name="Wacute" unicode="&#x1e82;" horiz-adv-x="1171" 
d="M800 887l-108 -126h-59l1 5l88 121h78zM1129 636l-337 -637h-69l-91 552l-293 -552h-71l-112 637h-88l11 64h268l-11 -64h-106l89 -544l313 599h42l97 -599l281 544h-110l11 64h273l-11 -64h-86z" />
    <glyph glyph-name="wacute" unicode="&#x1e83;" horiz-adv-x="942" 
d="M552 575h-55l1 3l83 113h73zM863 495q18 -70 22 -139.5t-9.5 -135t-43.5 -115.5t-86.5 -80.5t-132.5 -30.5q-63 0 -106 29t-58 87q-46 -65 -96 -91t-111 -26q-99 -1 -142.5 58.5t-24.5 165.5l39 220h-81l9 58h147l-49 -277q-15 -83 14 -124t108 -41q57 1 108.5 49.5
t68.5 128.5l45 264h66l-45 -262q-32 -178 123 -178q60 3 102.5 34.5t62.5 79t26.5 106.5t0.5 115t-21 105h64z" />
    <glyph glyph-name="Wdieresis" unicode="&#x1e84;" horiz-adv-x="1171" 
d="M809 771q-17 0 -29 10t-12 28q0 25 17.5 39t39.5 14q17 0 29 -10t12 -28q0 -25 -17.5 -39t-39.5 -14zM525 771q-17 0 -29 10t-12 28q0 25 17.5 39t39.5 14q17 0 29 -10t12 -28q0 -25 -17.5 -39t-39.5 -14zM1129 636l-337 -637h-69l-91 552l-293 -552h-71l-112 637h-88
l11 64h268l-11 -64h-106l89 -544l313 599h42l97 -599l281 544h-110l11 64h273l-11 -64h-86z" />
    <glyph glyph-name="wdieresis" unicode="&#x1e85;" horiz-adv-x="942" 
d="M403 599q-17 0 -28 10t-11 27q0 25 17 39.5t38 14.5q16 0 28.5 -11t12.5 -29q0 -24 -17.5 -37.5t-39.5 -13.5zM639 599q-15 0 -26.5 10t-11.5 27q0 25 16.5 39t37.5 14q15 0 27 -11.5t12 -29.5q0 -24 -16.5 -36.5t-38.5 -12.5zM863 495q18 -70 22 -139.5t-9.5 -135
t-43.5 -115.5t-86.5 -80.5t-132.5 -30.5q-63 0 -106 29t-58 87q-46 -65 -96 -91t-111 -26q-99 -1 -142.5 58.5t-24.5 165.5l39 220h-81l9 58h147l-49 -277q-15 -83 14 -124t108 -41q57 1 108.5 49.5t68.5 128.5l45 264h66l-45 -262q-32 -178 123 -178q60 3 102.5 34.5
t62.5 79t26.5 106.5t0.5 115t-21 105h64z" />
    <glyph glyph-name="Ygrave" unicode="&#x1ef2;" horiz-adv-x="714" 
d="M409 751l-62 119h80l43 -115l-1 -4h-60zM347 63h98l-11 -63h-261l11 63h94l39 219l-171 354h-73l11 64h239l-11 -64h-87l134 -289l238 289h-89l11 64h248l-11 -64h-74l-296 -354z" />
    <glyph glyph-name="ygrave" unicode="&#x1ef3;" horiz-adv-x="629" 
d="M384 579h-57l-61 114h76l43 -110zM432 -18l18 98q-38 -51 -85.5 -69.5t-109.5 -19.5q-98 0 -146.5 60t-29.5 165l39 220h-84l11 58h149l-49 -277q-14 -81 17 -123.5t116 -41.5q71 1 126 50.5t68 122.5l37 211h-85l11 58h149l-90 -512q-20 -118 -91 -177t-174 -59
q-100 0 -149.5 47.5t-41.5 130.5h62q-4 -59 29.5 -87.5t109.5 -28.5q71 0 124 44t69 130z" />
    <glyph glyph-name="endash" unicode="&#x2013;" horiz-adv-x="594" 
d="M63 255l11 61h452l-11 -61h-452z" />
    <glyph glyph-name="emdash" unicode="&#x2014;" horiz-adv-x="699" 
d="M63 255l11 61h557l-11 -61h-557z" />
    <glyph glyph-name="quoteleft" unicode="&#x2018;" horiz-adv-x="224" 
d="M190 701h54l-76 -177h-70z" />
    <glyph glyph-name="quoteright" unicode="&#x2019;" horiz-adv-x="223" 
d="M154 522h-55l78 179h71z" />
    <glyph glyph-name="quotesinglbase" unicode="&#x201a;" horiz-adv-x="322" 
d="M74 -112h-53l77 181h70z" />
    <glyph glyph-name="quotedblleft" unicode="&#x201c;" horiz-adv-x="355" 
d="M189 699h55l-77 -178h-71zM321 699h55l-77 -178h-71z" />
    <glyph glyph-name="quotedblright" unicode="&#x201d;" horiz-adv-x="352" 
d="M286 525h-55l77 176h70zM154 525h-55l77 176h70z" />
    <glyph glyph-name="quotedblbase" unicode="&#x201e;" horiz-adv-x="452" 
d="M204 -112h-53l77 181h71zM74 -112h-54l78 181h70z" />
    <glyph glyph-name="dagger" unicode="&#x2020;" horiz-adv-x="557" 
d="M560 505l-10 -59h-211l-101 -575h-67l101 575h-212l10 59h212l35 197h67l-35 -197h211z" />
    <glyph glyph-name="daggerdbl" unicode="&#x2021;" horiz-adv-x="596" 
d="M580 505l-10 -59h-211l-48 -269h211l-10 -59h-211l-44 -249h-68l44 249h-211l10 59h211l48 269h-211l10 59h211l35 195h68l-35 -195h211z" />
    <glyph glyph-name="bullet" unicode="&#x2022;" horiz-adv-x="379" 
d="M178 237q-39 0 -63.5 23.5t-24.5 62.5q0 52 36.5 86t88.5 34q39 0 63 -23.5t24 -62.5q0 -52 -37 -86t-87 -34z" />
    <glyph glyph-name="ellipsis" unicode="&#x2026;" horiz-adv-x="625" 
d="M462 -7q-17 0 -28 10t-11 28q0 24 17 38t38 14q15 0 26.5 -10t11.5 -27q0 -25 -16.5 -39t-37.5 -14zM262 -7q-16 0 -27 10t-11 28q0 24 16.5 38t37.5 14q16 0 27 -10t11 -27q0 -25 -16.5 -39t-37.5 -14zM62 -7q-16 0 -27.5 10t-11.5 28q0 24 17 38t38 14q15 0 26.5 -10
t11.5 -27q0 -25 -16.5 -39t-37.5 -14z" />
    <glyph glyph-name="perthousand" unicode="&#x2030;" horiz-adv-x="1118" 
d="M264 707q64 0 98 -37t34 -91q0 -67 -51 -120t-134 -53q-63 0 -96.5 37t-33.5 90q0 68 50.5 121t132.5 53zM58 0l577 702h72l-575 -702h-74zM254 655q-52 0 -84 -34.5t-32 -78.5q0 -35 21.5 -58.5t61.5 -23.5q46 0 77 28.5t38 68.5q7 39 -14.5 68.5t-67.5 29.5zM560 293
q64 0 97.5 -37t33.5 -90q0 -67 -51 -120t-134 -53q-63 0 -96.5 37t-33.5 90q0 68 50.5 120.5t133.5 52.5zM745 120q0 68 50.5 120.5t133.5 52.5q64 0 97.5 -37t33.5 -90q0 -67 -51 -120t-134 -53q-63 0 -96.5 37t-33.5 90zM549 241q-52 0 -84 -34.5t-32 -78.5
q0 -35 21.5 -58.5t61.5 -23.5q53 0 85.5 34.5t32.5 76.5q0 35 -22.5 59.5t-62.5 24.5zM918 241q-53 0 -84.5 -34.5t-31.5 -78.5q0 -35 21.5 -58.5t61.5 -23.5q53 0 85.5 34.5t32.5 76.5q0 35 -22.5 59.5t-62.5 24.5z" />
    <glyph glyph-name="guilsinglleft" unicode="&#x2039;" horiz-adv-x="306" 
d="M147 78l-99 221l177 219h70l-175 -219l97 -221h-70z" />
    <glyph glyph-name="guilsinglright" unicode="&#x203a;" horiz-adv-x="306" 
d="M13 76l175 220l-97 220h70l98 -220l-176 -220h-70z" />
    <glyph glyph-name="fraction" unicode="&#x2044;" horiz-adv-x="120" 
d="M-150 -3h-62l500 707h62z" />
    <glyph glyph-name="zerosuperior" unicode="&#x2070;" horiz-adv-x="374" 
d="M92 605l10 53q14 75 64.5 117t112.5 42q64 -1 100 -42.5t22 -117.5l-10 -52q-18 -97 -100 -139q-69 -36 -133 -10q-67 28 -69 107q-1 21 3 42zM155 658l-10 -53q-13 -71 36 -97q43 -23 92 4q50 29 62 93l10 53q10 53 -13 81.5t-64 28.5q-40 0 -72 -29t-41 -81z" />
    <glyph glyph-name="foursuperior" unicode="&#x2074;" horiz-adv-x="344" 
d="M288 812h71l-40 -231h45l-9 -49h-45l-14 -78h-53l14 78h-192l4 43zM132 581h134l31 177z" />
    <glyph glyph-name="fivesuperior" unicode="&#x2075;" horiz-adv-x="350" 
d="M164 679l77 -1q62 0 94.5 -25t32.5 -70q0 -60 -45 -98t-121 -38q-59 0 -94.5 24.5t-26.5 80.5h52q-5 -30 17 -43t59 -13q54 0 78.5 23t24.5 56q0 56 -80 56h-129l32 180h253l-9 -48h-201z" />
    <glyph glyph-name="sixsuperior" unicode="&#x2076;" horiz-adv-x="365" 
d="M169 697l-11 -64q38 36 97 36q53 0 88.5 -23t35.5 -72q0 -66 -49.5 -98.5t-114.5 -32.5q-59 0 -96 28.5t-27 85.5l25 140q11 58 56 87t103 29q59 0 93.5 -24t29.5 -71h-53q3 47 -78 47q-39 0 -66 -17t-33 -51zM223 490q36 0 68.5 18.5t32.5 56.5q0 29 -23 43.5t-54 14.5
q-34 0 -65 -18t-37 -49q-6 -34 18 -50t60 -16z" />
    <glyph glyph-name="sevensuperior" unicode="&#x2077;" horiz-adv-x="313" 
d="M387 811v-25l-221 -333h-61l207 308h-150l-13 -54h-50l18 104h270z" />
    <glyph glyph-name="eightsuperior" unicode="&#x2078;" horiz-adv-x="373" 
d="M79 533q0 41 26 67.5t66 35.5q-54 19 -54 68q0 56 48.5 84.5t112.5 28.5q52 0 89.5 -21.5t37.5 -65.5q0 -68 -82 -94q26 -7 42.5 -27.5t16.5 -48.5q0 -61 -51.5 -89.5t-118.5 -28.5q-55 0 -94 21.5t-39 69.5zM349 722q0 26 -23.5 37.5t-55.5 11.5q-38 0 -68.5 -14.5
t-30.5 -47.5q0 -25 23 -37.5t56 -12.5q41 0 70 15t29 48zM326 557q0 27 -25 40.5t-59 13.5q-41 0 -73.5 -18t-32.5 -52q0 -27 26.5 -40t57.5 -13q38 0 72 17t34 52z" />
    <glyph glyph-name="ninesuperior" unicode="&#x2079;" horiz-adv-x="365" 
d="M259 770q-39 0 -69.5 -18.5t-30.5 -57.5q0 -29 22.5 -43t54.5 -14q38 0 70 20t32 56q0 29 -23.5 43t-55.5 14zM313 562l11 65q-36 -36 -97 -36q-53 0 -88 22.5t-35 71.5q0 65 49.5 98.5t113.5 33.5q59 0 96 -29t27 -85l-25 -141q-10 -60 -55 -88t-104 -28t-93.5 24
t-28.5 72h53q-3 -47 78 -47q39 0 65.5 17t32.5 50z" />
    <glyph glyph-name="zeroinferior" unicode="&#x2080;" horiz-adv-x="375" 
d="M-2 67l10 53q14 75 63.5 116.5t111.5 41.5q63 0 99 -41t23 -117l-9 -53q-16 -96 -97 -138q-69 -36 -134 -10q-67 27 -70 105q-1 20 3 43zM59 119l-9 -52q-12 -70 37 -97q44 -24 93 4q50 28 61 93l9 52q9 53 -13.5 81.5t-62.5 28.5q-41 0 -73.5 -29t-41.5 -81z" />
    <glyph glyph-name="oneinferior" unicode="&#x2081;" horiz-adv-x="233" 
d="M-35 -87l8 48h63l44 249l-57 -13l9 48l113 26l-55 -310h64l-8 -48h-181z" />
    <glyph glyph-name="twoinferior" unicode="&#x2082;" horiz-adv-x="355" 
d="M71 171h-52q10 56 53.5 81.5t100.5 25.5q52 0 86 -21t34 -69q0 -30 -10.5 -51.5t-24 -33.5t-37 -20.5t-40 -11t-41.5 -5.5q-20 -2 -32.5 -4.5t-29 -9t-26 -20.5t-13.5 -35l-5 -31h170l11 52h50l-18 -103h-276l15 83q18 100 149 113q26 3 41 6t31.5 10t24 20t7.5 34
q0 50 -74 50q-82 0 -94 -60z" />
    <glyph glyph-name="threeinferior" unicode="&#x2083;" horiz-adv-x="355" 
d="M82 230l-10 -46h-47l16 93h264l-4 -20l-115 -126q40 -3 63.5 -24.5t23.5 -61.5q0 -72 -49.5 -105t-118.5 -33q-58 0 -93.5 27t-26.5 84h53q-6 -60 77 -60q41 0 71.5 17t30.5 60q0 55 -76 55h-31l-1 16l111 124h-138z" />
    <glyph glyph-name="fourinferior" unicode="&#x2084;" horiz-adv-x="346" 
d="M195 272h71l-41 -232h45l-9 -49h-45l-14 -78h-53l14 78h-192l4 44zM37 40h135l31 177z" />
    <glyph glyph-name="fiveinferior" unicode="&#x2085;" horiz-adv-x="353" 
d="M71 139h78q61 0 93.5 -25t32.5 -70q0 -61 -45.5 -99t-121.5 -38q-58 0 -94 25t-27 81h53q-6 -30 16.5 -43t59.5 -13q55 0 79 22.5t24 55.5q0 56 -80 56h-129l32 181h253l-8 -48h-201z" />
    <glyph glyph-name="sixinferior" unicode="&#x2086;" horiz-adv-x="367" 
d="M77 170l-11 -64q38 35 97 35q53 0 88.5 -22.5t35.5 -71.5q0 -66 -49.5 -99t-114.5 -33q-59 0 -96 29t-27 86l25 140q11 58 56 87t102 29q59 0 94 -24t30 -71h-53q3 47 -78 47q-87 0 -99 -68zM131 -37q36 0 68.5 18.5t32.5 56.5q0 29 -23 43t-54 14q-39 0 -71 -20t-32 -56
q0 -28 23.5 -42t55.5 -14z" />
    <glyph glyph-name="seveninferior" unicode="&#x2087;" horiz-adv-x="315" 
d="M293 272v-25l-221 -333h-60l206 308h-149l-14 -54h-50l18 104h270z" />
    <glyph glyph-name="eightinferior" unicode="&#x2088;" horiz-adv-x="375" 
d="M-14 -1q0 41 26 67.5t66 35.5q-54 19 -54 68q0 56 49 84.5t112 28.5q52 0 89.5 -21.5t37.5 -65.5q0 -68 -82 -94q26 -7 42.5 -27.5t16.5 -48.5q0 -42 -28 -70t-64 -38t-79 -10q-54 0 -93 22t-39 69zM256 188q0 26 -24 37.5t-55 11.5q-37 0 -68 -14.5t-31 -48.5
q0 -25 22.5 -37t56.5 -12q41 0 70 15t29 48zM233 23q0 27 -25.5 40.5t-58.5 13.5q-41 0 -73.5 -18t-32.5 -52q0 -27 26 -40t58 -13q38 0 72 17t34 52z" />
    <glyph glyph-name="nineinferior" unicode="&#x2089;" horiz-adv-x="366" 
d="M166 233q-40 0 -70.5 -18t-30.5 -58q0 -29 22.5 -43t54.5 -14q34 0 65 17.5t37 48.5q6 34 -18.5 50.5t-59.5 16.5zM220 26l11 64q-37 -36 -97 -36q-53 0 -88.5 22.5t-35.5 72.5q0 64 49.5 97.5t114.5 33.5q59 0 96 -28.5t27 -84.5l-25 -141q-10 -60 -54.5 -88.5
t-103.5 -28.5t-94 24.5t-29 71.5h53q-3 -47 77 -47q87 0 99 68z" />
    <glyph glyph-name="Euro" unicode="&#x20ac;" horiz-adv-x="610" 
d="M55 381l10 56h68q45 121 146 196.5t248 75.5q48 0 96 -14l-28 -60q-36 10 -77 10q-115 0 -194 -55.5t-118 -152.5h266l-24 -56h-264q-3 -9 -8 -35q-1 -7 -4 -33h252l-23 -56h-229q6 -201 240 -201q52 0 105 19l6 -67q-63 -20 -123 -20q-149 0 -222.5 72t-75.5 195h-69
l10 56h61q0 2 4 34q5 26 8 36h-61z" />
    <glyph glyph-name="afii61289" unicode="&#x2113;" horiz-adv-x="391" 
d="M182 242l-17 -95q-9 -47 22.5 -69.5t95.5 -6.5l-11 -59q-99 -31 -149.5 1.5t-43.5 137.5q0 18 5 28l-54 -24l-6 43q29 11 68 30l57 325q13 76 56.5 119t116.5 43q127 0 75 -186q-41 -150 -215 -287zM189 306q135 118 163 231q6 25 9 42.5t2.5 40t-12.5 34.5t-35 12
q-29 0 -51.5 -31t-31.5 -82q-1 -8 -18.5 -106t-25.5 -141z" />
    <glyph glyph-name="uni2117" unicode="&#x2117;" horiz-adv-x="833" 
d="M490 713q146 0 225 -85t79 -217q0 -84 -31 -161.5t-86 -136.5t-137.5 -94.5t-178.5 -35.5q-145 0 -224 86t-79 218q0 84 31 161t86 136t137 94t178 35zM122 295q0 -113 64.5 -184t184.5 -71q159 0 260 106.5t101 257.5q0 113 -65.5 184.5t-185.5 71.5
q-160 0 -259.5 -105.5t-99.5 -259.5zM357 330h111q54 0 79 48q22 43 1 75q-17 23 -51 24h-114zM349 281l-23 -128h-58l67 379h172q76 0 100 -61q22 -57 -13 -117q-50 -70 -134 -74z" />
    <glyph glyph-name="trademark" unicode="&#x2122;" horiz-adv-x="788" 
d="M187 418l41 235h-109l8 47h275l-8 -47h-111l-41 -235h-55zM405 418l49 283h55l83 -138l133 138h52l-49 -283h-57l36 198l-124 -128h-11l-78 132l-33 -202h-56z" />
    <glyph glyph-name="estimated" unicode="&#x212e;" horiz-adv-x="643" 
d="M493 133l32 -29q-54 -61 -113.5 -86t-133.5 -25q-99 0 -160.5 62.5t-61.5 174.5q0 165 95.5 260.5t230.5 95.5q58 0 103 -16.5t78.5 -54t39 -99.5t-15.5 -153h-402l-30 -170q48 -53 132 -53q125 0 206 93zM478 309l33 188q-49 43 -137 43t-149 -46l-33 -185h286z" />
    <glyph glyph-name="uni2153" unicode="&#x2153;" horiz-adv-x="755" 
d="M56 351l8 47h63l44 247l-57 -13l8 48l114 26l-55 -308h65l-8 -47h-182zM126 -3h-60l498 707h62zM492 318l-10 -46h-46l16 93h263l-3 -20l-115 -128q87 -7 87 -87q0 -71 -49.5 -103t-118.5 -32q-59 0 -94 27t-26 84h54q-5 -33 18 -46.5t57 -13.5q103 0 103 77
q0 61 -107 55l-2 16l111 124h-138z" />
    <glyph glyph-name="uni2154" unicode="&#x2154;" horiz-adv-x="838" 
d="M155 600h-52q10 57 53.5 82.5t100.5 25.5q52 0 86 -21.5t34 -68.5q0 -30 -10.5 -52t-24.5 -34t-37 -20t-40 -11t-41 -5q-20 -2 -32.5 -4.5t-29 -9.5t-26 -21t-13.5 -35l-5 -31h170l11 52h50l-18 -102h-276l14 82q18 100 149 113q27 3 41.5 6t31.5 10t24.5 20.5t7.5 33.5
q0 50 -74 50q-82 0 -94 -60zM213 -3h-61l499 707h61zM575 318l-10 -46h-47l17 93h264l-4 -20l-116 -128q37 -3 62 -23.5t25 -60.5q0 -72 -49.5 -105t-118.5 -33q-58 0 -93 27t-26 84h53q-4 -33 19 -46.5t57 -13.5q41 0 71.5 17t30.5 60q0 55 -76 55h-30l-2 16l111 124h-138z
" />
    <glyph glyph-name="oneeighth" unicode="&#x215b;" horiz-adv-x="767" 
d="M55 351l8 47h63l44 247l-57 -13l8 48l114 26l-55 -308h65l-8 -47h-182zM129 -3h-61l499 707h62zM394 85q0 37 27 66t64 37q-54 19 -54 68q0 56 49.5 84.5t112.5 28.5q52 0 89.5 -21.5t37.5 -65.5q0 -68 -82 -93q27 -8 43 -28.5t16 -47.5q0 -42 -27.5 -70t-64 -38.5
t-78.5 -10.5q-55 0 -94 21.5t-39 69.5zM664 274q0 26 -24 37.5t-55 11.5q-36 0 -67 -15t-31 -48q0 -25 22.5 -37t55.5 -12q40 0 69.5 16t29.5 47zM641 109q0 27 -25 41.5t-59 14.5q-41 0 -73.5 -18t-32.5 -53q0 -26 26.5 -39.5t57.5 -13.5q38 0 72 17t34 51z" />
    <glyph glyph-name="threeeighths" unicode="&#x215c;" horiz-adv-x="823" 
d="M192 -3h-60l499 707h61zM162 658l-10 -46h-47l17 93h263l-4 -20l-115 -125q38 -2 63 -27t25 -60q0 -50 -26.5 -82t-61.5 -43t-78 -11q-59 0 -95.5 27.5t-26.5 83.5h53q-7 -60 77 -60q101 0 101 76q0 69 -106 56l-1 16l109 122h-137zM450 86q0 36 26.5 65t64.5 37
q-54 19 -54 68q0 56 49.5 84.5t111.5 28.5q52 0 89.5 -21.5t37.5 -65.5q0 -69 -80 -93q26 -8 42 -28.5t16 -47.5q0 -42 -27.5 -70t-64 -38.5t-79.5 -10.5q-55 0 -93.5 22t-38.5 70zM719 274q0 26 -24 37.5t-54 11.5q-33 0 -62.5 -13t-34.5 -43q-6 -28 17 -42t60 -14
q40 0 69 16t29 47zM697 109q0 27 -25 41.5t-59 14.5q-41 0 -73.5 -18t-32.5 -53q0 -27 26.5 -40t58.5 -13q37 0 71 17t34 51z" />
    <glyph glyph-name="fiveeighths" unicode="&#x215d;" horiz-adv-x="827" 
d="M196 -3h-60l499 707h62zM149 568h77q61 0 93.5 -25t32.5 -70q0 -61 -44.5 -98.5t-120.5 -37.5q-59 0 -94.5 24.5t-25.5 81.5h52q-10 -57 76 -57q54 0 78 23t24 55q0 57 -80 57h-129l32 180h253l-8 -48h-201zM453 86q0 36 27 65t65 37q-55 19 -55 68q0 56 49.5 84.5
t112.5 28.5q51 0 88.5 -21.5t37.5 -65.5q0 -69 -80 -93q26 -8 42.5 -28.5t16.5 -47.5q0 -42 -28 -70t-64.5 -38.5t-79.5 -10.5q-55 0 -93.5 22t-38.5 70zM722 274q0 26 -24 37.5t-54 11.5q-33 0 -62.5 -13t-33.5 -43q-6 -28 17 -42t60 -14q40 0 68.5 16t28.5 47zM700 109
q0 27 -25 41.5t-58 14.5q-41 0 -73.5 -18t-32.5 -53q0 -27 26 -40t58 -13q37 0 71 17t34 51z" />
    <glyph glyph-name="seveneighths" unicode="&#x215e;" horiz-adv-x="768" 
d="M117 -3h-60l500 707h61zM378 701v-25l-221 -333h-60l205 308h-150l-13 -54h-49l18 104h270zM393 86q0 36 27 65t65 37q-55 19 -55 68q0 56 49.5 84.5t112.5 28.5q51 0 88.5 -21.5t37.5 -65.5q0 -69 -80 -93q26 -8 42.5 -28.5t16.5 -47.5q0 -42 -28 -70t-64.5 -38.5
t-79.5 -10.5q-55 0 -93.5 22t-38.5 70zM662 274q0 26 -24 37.5t-54 11.5q-33 0 -62.5 -13t-33.5 -43q-6 -28 17 -42t60 -14q40 0 68.5 16t28.5 47zM640 109q0 27 -25 41.5t-58 14.5q-41 0 -73.5 -18t-32.5 -53q0 -27 26 -40t58 -13q37 0 71 17t34 51z" />
    <glyph glyph-name="arrowleft" unicode="&#x2190;" horiz-adv-x="639" 
d="M283 135l-178 216l254 216l31 -36l-176 -150h426l-11 -62h-425l121 -151z" />
    <glyph glyph-name="arrowup" unicode="&#x2191;" horiz-adv-x="499" 
d="M105 402l254 216l178 -217l-41 -36l-124 148l-75 -425h-62l75 425l-177 -147z" />
    <glyph glyph-name="arrowright" unicode="&#x2192;" horiz-adv-x="639" 
d="M480 567l178 -216l-254 -216l-31 35l175 151h-425l11 62h424l-120 150z" />
    <glyph glyph-name="arrowdown" unicode="&#x2193;" horiz-adv-x="499" 
d="M517 292l-255 -216l-178 216l42 37l124 -148l75 425h62l-74 -424l175 146z" />
    <glyph glyph-name="uni2196" unicode="&#x2196;" horiz-adv-x="504" 
d="M108 232l54 307h306l-8 -54h-211l248 -301l-52 -44l-248 301l-39 -210z" />
    <glyph glyph-name="uni2197" unicode="&#x2197;" horiz-adv-x="504" 
d="M531 538l-54 -306l-53 -1l37 210l-353 -301l-36 44l353 302l-209 2l9 50h306z" />
    <glyph glyph-name="uni2198" unicode="&#x2198;" horiz-adv-x="533" 
d="M519 468l-54 -307h-306l8 51l211 2l-248 301l52 44l248 -301l37 211z" />
    <glyph glyph-name="uni2199" unicode="&#x2199;" horiz-adv-x="533" 
d="M124 161l54 307l53 1l-37 -211l353 301l37 -44l-354 -301l211 -3l-10 -50h-307z" />
    <glyph glyph-name="partialdiff" unicode="&#x2202;" horiz-adv-x="609" 
d="M551 253q-20 -117 -102 -189.5t-199 -72.5q-105 0 -160 60.5t-55 148.5q0 108 78 194.5t207 92.5q55 2 104.5 -19.5t73.5 -64.5q-14 85 -85 151.5t-158 90.5l25 54q158 -49 228 -162t43 -284zM260 50q101 0 163 67.5t62 152.5q0 67 -40.5 113.5t-117.5 46.5
q-100 0 -162.5 -68t-62.5 -154q0 -67 40.5 -112.5t117.5 -45.5z" />
    <glyph glyph-name="increment" unicode="&#x2206;" horiz-adv-x="760" 
d="M494 700l191 -700h-706l437 700h78zM442 628l-348 -565h496z" />
    <glyph glyph-name="product" unicode="&#x220f;" horiz-adv-x="701" 
d="M513 -188h-71l145 823h-353l-145 -823h-71l157 888h495z" />
    <glyph glyph-name="summation" unicode="&#x2211;" horiz-adv-x="576" 
d="M359 366l-262 -298h389l-12 -68h-490l6 35l291 333l-162 304l5 28h467l-11 -65h-361z" />
    <glyph glyph-name="minus" unicode="&#x2212;" horiz-adv-x="530" 
d="M75 298l11 63h379l-11 -63h-379z" />
    <glyph glyph-name="uni2215" unicode="&#x2215;" horiz-adv-x="440" 
d="M10 -3h-62l500 707h62z" />
    <glyph glyph-name="uni2219" unicode="&#x2219;" horiz-adv-x="241" 
d="M114 263q-18 0 -29.5 10.5t-11.5 29.5q0 26 17.5 41.5t40.5 15.5q17 0 29.5 -10.5t12.5 -29.5q0 -27 -18 -42t-41 -15z" />
    <glyph glyph-name="radical" unicode="&#x221a;" horiz-adv-x="604" 
d="M662 699l-361 -699h-58l-106 357l-100 -41l-11 47l166 69l95 -356l331 636z" />
    <glyph glyph-name="infinity" unicode="&#x221e;" horiz-adv-x="787" 
d="M195 168q-67 0 -102.5 38t-35.5 93q0 72 55 128t144 56q47 0 82 -31t69 -85q115 115 191 115q78 0 114 -46t25 -110q-11 -63 -62 -110t-129 -48q-49 1 -84 31t-70 84q-55 -54 -101.5 -84.5t-95.5 -30.5zM206 223q15 0 30 4.5t26.5 10t27.5 18t24.5 20t27.5 25t27 24.5
q-20 33 -55 68t-71 35q-54 0 -88.5 -31.5t-40.5 -75.5t19 -70t73 -28zM554 223q61 2 96.5 37.5t35.5 81.5q0 38 -24 62t-71 24q-17 0 -38 -9t-41.5 -24t-35 -27t-30 -27t-16.5 -16q1 -1 15 -19.5t23 -28.5t24 -24.5t30.5 -22t31.5 -7.5z" />
    <glyph glyph-name="integral" unicode="&#x222b;" horiz-adv-x="448" 
d="M132 -1l94 532q15 81 62.5 127t125.5 46q55 0 98 -35l-38 -48q-38 25 -71 25q-93 0 -113 -115l-93 -533q-31 -174 -177 -174q-50 0 -93 35l36 46q28 -24 66 -24q43 0 67.5 28.5t35.5 89.5z" />
    <glyph glyph-name="approxequal" unicode="&#x2248;" horiz-adv-x="579" 
d="M486 430l40 -20q-66 -110 -170 -67l-111 43q-33 16 -65.5 3.5t-53.5 -46.5l-39 24q28 49 79 71t99 2l112 -46q34 -15 59.5 -7t49.5 43zM455 255l40 -21q-66 -109 -170 -66l-111 43q-34 16 -66.5 3t-52.5 -46l-39 24q28 49 78 70.5t99 1.5l114 -46q34 -15 59 -6.5t49 43.5
z" />
    <glyph glyph-name="notequal" unicode="&#x2260;" horiz-adv-x="577" 
d="M64 182l11 60h136l116 146h-227l11 61h263l56 70l31 -20l-41 -50h97l-11 -61h-132l-116 -146h223l-11 -60h-259l-58 -74l-32 20l42 54h-99z" />
    <glyph glyph-name="lessequal" unicode="&#x2264;" horiz-adv-x="443" 
d="M102 427l272 170l27 -42l-230 -140l181 -149l-43 -42l-211 179zM38 96l10 55h300l-10 -55h-300z" />
    <glyph glyph-name="greaterequal" unicode="&#x2265;" horiz-adv-x="443" 
d="M180 597l212 -170l-4 -24l-273 -178l-29 41l233 148l-180 142zM350 151l-10 -55h-301l10 55h301z" />
    <glyph glyph-name="lozenge" unicode="&#x25ca;" horiz-adv-x="562" 
d="M536 352l-281 -345h-53l-155 345l277 344h53zM338 632l-217 -281l118 -281l226 281z" />
    <glyph glyph-name="fi" unicode="&#xfb01;" horiz-adv-x="582" 
d="M497 606q-16 0 -27.5 9.5t-11.5 27.5q0 25 17 39t38 14q16 0 27.5 -10t11.5 -28q0 -25 -17 -38.5t-38 -13.5zM378 112l57 325h-231l-77 -437h-64l77 437h-99l10 57h99l7 40q14 81 61 126t125 45q38 0 72 -17l-25 -55q-23 13 -56 13q-94 0 -113 -112l-7 -40h295l-67 -382
q-2 -10 -2 -18.5t2 -14t3.5 -10.5t7.5 -7t8.5 -4t10.5 -2t11 -0.5t13.5 1t13 2t13.5 2.5l-6 -60q-46 -4 -81 -1.5t-51 30t-7 82.5z" />
    <glyph glyph-name="fl" unicode="&#xfb02;" horiz-adv-x="578" 
d="M376 112l93 526q-54 15 -100 15q-127 0 -149 -120l-8 -43h140l-9 -56h-140l-77 -434h-64l77 434h-98l9 56h98l8 43q33 177 226 177q65 1 160 -21l-102 -577q-2 -10 -2 -18.5t2 -14t3.5 -10.5t7.5 -7t8.5 -4t10.5 -2t11 -0.5t13.5 1t13 2t13.5 2.5l-6 -60q-46 -4 -81 -1.5
t-51 30t-7 82.5z" />
    <glyph glyph-name="a.alt" horiz-adv-x="584" 
d="M412 211q-59 40 -173 36q-68 -1 -114.5 -27t-45.5 -84q3 -85 120 -85q73 -1 135 42.5t78 117.5zM537 57l-7 -57q-38 -4 -71 -3.5t-53 23t-15 67.5q-77 -96 -211 -96q-70 0 -116.5 34.5t-49.5 95.5q-4 74 41.5 118.5t112.5 55t136 3t116 -29.5l8 48q12 69 -25 97t-117 28
q-74 0 -123 -22l-12 -70h-60l18 107q78 46 193 46q97 0 152 -45t38 -141l-36 -206q-5 -31 5.5 -44.5t31 -12.5t44.5 4z" />
    <glyph glyph-name="aacute.alt" horiz-adv-x="584" 
d="M340 583h-58l1 4l89 116h79zM412 211q-16 -74 -78 -117.5t-135 -42.5q-117 0 -120 85q-1 58 45.5 84t114.5 27q114 4 173 -36zM537 57q-24 -3 -44.5 -4t-31 12.5t-5.5 44.5l36 206q17 96 -38 141t-152 45q-115 0 -193 -46l-18 -107h60l12 70q50 22 123 22q80 0 117 -28
t25 -97l-8 -48q-47 22 -116 29.5t-136 -3t-112.5 -55t-41.5 -118.5q3 -61 49.5 -95.5t116.5 -34.5q134 0 211 96q-5 -45 15 -67.5t53 -23t71 3.5z" />
    <glyph glyph-name="abreve.alt" horiz-adv-x="584" 
d="M429 704h54q-10 -59 -52 -93t-101 -34q-61 0 -91 34t-17 93h53q-6 -32 8 -54t56 -22q75 0 90 76zM412 211q-16 -74 -78 -117.5t-135 -42.5q-117 0 -120 85q-1 58 45.5 84t114.5 27q114 4 173 -36zM537 57q-24 -3 -44.5 -4t-31 12.5t-5.5 44.5l36 206q17 96 -38 141
t-152 45q-115 0 -193 -46l-18 -107h60l12 70q50 22 123 22q80 0 117 -28t25 -97l-8 -48q-47 22 -116 29.5t-136 -3t-112.5 -55t-41.5 -118.5q3 -61 49.5 -95.5t116.5 -34.5q134 0 211 96q-5 -45 15 -67.5t53 -23t71 3.5z" />
    <glyph glyph-name="acircumflex.alt" horiz-adv-x="584" 
d="M175 572l1 6l159 128h44l114 -128l-1 -6h-64l-77 84l-108 -84h-68zM412 211q-16 -74 -78 -117.5t-135 -42.5q-117 0 -120 85q-1 58 45.5 84t114.5 27q114 4 173 -36zM537 57q-24 -3 -44.5 -4t-31 12.5t-5.5 44.5l36 206q17 96 -38 141t-152 45q-115 0 -193 -46l-18 -107
h60l12 70q50 22 123 22q80 0 117 -28t25 -97l-8 -48q-47 22 -116 29.5t-136 -3t-112.5 -55t-41.5 -118.5q3 -61 49.5 -95.5t116.5 -34.5q134 0 211 96q-5 -45 15 -67.5t53 -23t71 3.5z" />
    <glyph glyph-name="adieresis.alt" horiz-adv-x="584" 
d="M230 602q-17 0 -28 9.5t-11 26.5q0 24 16.5 38t37.5 14q16 0 27 -9.5t11 -26.5q0 -24 -16 -38t-37 -14zM432 601q-16 0 -27 10t-11 27q0 24 16.5 38t37.5 14q16 0 27 -10t11 -27q0 -24 -16.5 -38t-37.5 -14zM412 211q-16 -74 -78 -117.5t-135 -42.5q-117 0 -120 85
q-1 58 45.5 84t114.5 27q114 4 173 -36zM537 57q-24 -3 -44.5 -4t-31 12.5t-5.5 44.5l36 206q17 96 -38 141t-152 45q-115 0 -193 -46l-18 -107h60l12 70q50 22 123 22q80 0 117 -28t25 -97l-8 -48q-47 22 -116 29.5t-136 -3t-112.5 -55t-41.5 -118.5q3 -61 49.5 -95.5
t116.5 -34.5q134 0 211 96q-5 -45 15 -67.5t53 -23t71 3.5z" />
    <glyph glyph-name="agrave.alt" horiz-adv-x="584" 
d="M303 582l-66 120h76l47 -115l-1 -5h-56zM412 211q-16 -74 -78 -117.5t-135 -42.5q-117 0 -120 85q-1 58 45.5 84t114.5 27q114 4 173 -36zM537 57q-24 -3 -44.5 -4t-31 12.5t-5.5 44.5l36 206q17 96 -38 141t-152 45q-115 0 -193 -46l-18 -107h60l12 70q50 22 123 22
q80 0 117 -28t25 -97l-8 -48q-47 22 -116 29.5t-136 -3t-112.5 -55t-41.5 -118.5q3 -61 49.5 -95.5t116.5 -34.5q134 0 211 96q-5 -45 15 -67.5t53 -23t71 3.5z" />
    <glyph glyph-name="amacron.alt" horiz-adv-x="584" 
d="M198 627l10 55h267l-10 -55h-267zM412 211q-16 -74 -78 -117.5t-135 -42.5q-117 0 -120 85q-1 58 45.5 84t114.5 27q114 4 173 -36zM537 57q-24 -3 -44.5 -4t-31 12.5t-5.5 44.5l36 206q17 96 -38 141t-152 45q-115 0 -193 -46l-18 -107h60l12 70q50 22 123 22
q80 0 117 -28t25 -97l-8 -48q-47 22 -116 29.5t-136 -3t-112.5 -55t-41.5 -118.5q3 -61 49.5 -95.5t116.5 -34.5q134 0 211 96q-5 -45 15 -67.5t53 -23t71 3.5z" />
    <glyph glyph-name="aogonek.alt" horiz-adv-x="584" 
d="M537 57l-7 -57q-36 -4 -52 -4q-44 -10 -63.5 -37t-14.5 -51t38.5 -27.5t74.5 20.5l4 -47q-55 -31 -110 -22t-64 59q-5 31 15 64.5t61 52.5q-35 22 -28 79q-77 -96 -211 -96q-70 0 -116.5 34.5t-49.5 95.5q-4 74 41.5 118.5t112.5 55t136 3t116 -29.5l8 48q12 69 -25 97
t-117 28q-74 0 -123 -22l-12 -70h-60l18 107q78 46 193 46q97 0 152 -45t38 -141l-36 -206q-5 -31 5.5 -44.5t31 -12.5t44.5 4zM412 211q-59 40 -173 36q-68 -1 -114.5 -27t-45.5 -84q3 -85 120 -85q73 -1 135 42.5t78 117.5z" />
    <glyph glyph-name="aring.alt" horiz-adv-x="584" 
d="M446 660q0 -47 -36 -73.5t-85 -26.5q-38 0 -63.5 20.5t-25.5 53.5q0 47 36.5 74.5t83.5 27.5q38 0 64 -20t26 -56zM401 655q0 18 -14 29.5t-38 11.5q-29 0 -47.5 -15.5t-18.5 -39.5q0 -18 13 -29t36 -11q30 0 49.5 16t19.5 38zM412 211q-16 -74 -78 -117.5t-135 -42.5
q-117 0 -120 85q-1 58 45.5 84t114.5 27q114 4 173 -36zM537 57q-24 -3 -44.5 -4t-31 12.5t-5.5 44.5l36 206q17 96 -38 141t-152 45q-115 0 -193 -46l-18 -107h60l12 70q50 22 123 22q80 0 117 -28t25 -97l-8 -48q-47 22 -116 29.5t-136 -3t-112.5 -55t-41.5 -118.5
q3 -61 49.5 -95.5t116.5 -34.5q134 0 211 96q-5 -45 15 -67.5t53 -23t71 3.5z" />
    <glyph glyph-name="aringacute.alt" horiz-adv-x="584" 
d="M331 745l86 91h76l-106 -94h-57zM323 543q-38 0 -61.5 18.5t-23.5 52.5q0 45 35 71.5t79 26.5q35 0 60 -19t25 -53q0 -45 -34 -71t-80 -26zM344 672q-25 0 -43 -15t-18 -37q0 -17 12.5 -27.5t33.5 -10.5q27 0 44 15t17 36q0 17 -12.5 28t-33.5 11zM412 211
q-16 -74 -78 -117.5t-135 -42.5q-117 0 -120 85q-1 58 45.5 84t114.5 27q114 4 173 -36zM537 57q-24 -3 -44.5 -4t-31 12.5t-5.5 44.5l36 206q17 96 -38 141t-152 45q-115 0 -193 -46l-18 -107h60l12 70q50 22 123 22q80 0 117 -28t25 -97l-8 -48q-47 22 -116 29.5t-136 -3
t-112.5 -55t-41.5 -118.5q3 -61 49.5 -95.5t116.5 -34.5q134 0 211 96q-5 -45 15 -67.5t53 -23t71 3.5z" />
    <glyph glyph-name="atilde.alt" horiz-adv-x="584" 
d="M326 683l48 -24q42 -16 64 30l40 -17q-17 -47 -51.5 -63.5t-70.5 -0.5q-4 1 -25 12t-25 12q-45 19 -70 -30l-38 19q17 43 53.5 60.5t74.5 1.5zM412 211q-16 -74 -78 -117.5t-135 -42.5q-117 0 -120 85q-1 58 45.5 84t114.5 27q114 4 173 -36zM537 57q-24 -3 -44.5 -4
t-31 12.5t-5.5 44.5l36 206q17 96 -38 141t-152 45q-115 0 -193 -46l-18 -107h60l12 70q50 22 123 22q80 0 117 -28t25 -97l-8 -48q-47 22 -116 29.5t-136 -3t-112.5 -55t-41.5 -118.5q3 -61 49.5 -95.5t116.5 -34.5q134 0 211 96q-5 -45 15 -67.5t53 -23t71 3.5z" />
    <glyph glyph-name="g.alt" horiz-adv-x="619" 
d="M338 446q-96 0 -158.5 -55.5t-73.5 -151.5q-6 -77 41 -119t126 -42q96 0 162 64t66 151q0 73 -47 113t-116 40zM-7 -90h63q-14 -71 34 -107.5t128 -36.5q84 0 147.5 36.5t63.5 108.5q0 55 -48 82t-119 27q-106 0 -164.5 52t-57.5 147q1 70 29 126t73 90t98 52t108 18
q90 0 138 -39l63 62l40 -36l-65 -64q44 -59 44 -127q0 -78 -47.5 -150t-133.5 -99q51 -13 79.5 -49.5t28.5 -84.5q0 -101 -82.5 -156.5t-207.5 -55.5q-109 0 -170 54.5t-42 149.5z" />
    <glyph glyph-name="gbreve.alt" horiz-adv-x="619" 
d="M471 707l53 -1q-9 -59 -51 -93t-102 -34q-62 0 -92 33.5t-18 93.5h53q-12 -77 66 -77q41 0 63 22.5t28 55.5zM338 446q-96 0 -158.5 -55.5t-73.5 -151.5q-6 -77 41 -119t126 -42q96 0 162 64t66 151q0 73 -47 113t-116 40zM-7 -90h63q-14 -71 34 -107.5t128 -36.5
q84 0 147.5 36.5t63.5 108.5q0 55 -48 82t-119 27q-106 0 -164.5 52t-57.5 147q1 70 29 126t73 90t98 52t108 18q90 0 138 -39l63 62l40 -36l-65 -64q44 -59 44 -127q0 -78 -47.5 -150t-133.5 -99q51 -13 79.5 -49.5t28.5 -84.5q0 -101 -82.5 -156.5t-207.5 -55.5
q-109 0 -170 54.5t-42 149.5z" />
    <glyph glyph-name="gcircumflex.alt" horiz-adv-x="619" 
d="M412 714l117 -130l-1 -6h-65l-79 89l-110 -89h-70l1 6l162 130h45zM338 446q-96 0 -158.5 -55.5t-73.5 -151.5q-6 -77 41 -119t126 -42q96 0 162 64t66 151q0 73 -47 113t-116 40zM-7 -90h63q-14 -71 34 -107.5t128 -36.5q84 0 147.5 36.5t63.5 108.5q0 55 -48 82
t-119 27q-106 0 -164.5 52t-57.5 147q1 70 29 126t73 90t98 52t108 18q90 0 138 -39l63 62l40 -36l-65 -64q44 -59 44 -127q0 -78 -47.5 -150t-133.5 -99q51 -13 79.5 -49.5t28.5 -84.5q0 -101 -82.5 -156.5t-207.5 -55.5q-109 0 -170 54.5t-42 149.5z" />
    <glyph glyph-name="gcommaaccent.alt" horiz-adv-x="619" 
d="M379 735h46l-38 -72q30 -8 24 -39q-6 -34 -41 -42q-33 -8 -47 15q-7 12 -4 29q3 12 11.5 27.5t23.5 39t25 42.5zM338 446q-96 0 -158.5 -55.5t-73.5 -151.5q-6 -77 41 -119t126 -42q96 0 162 64t66 151q0 73 -47 113t-116 40zM-7 -90h63q-14 -71 34 -107.5t128 -36.5
q84 0 147.5 36.5t63.5 108.5q0 55 -48 82t-119 27q-106 0 -164.5 52t-57.5 147q1 70 29 126t73 90t98 52t108 18q90 0 138 -39l49 62l54 -36l-65 -64q44 -59 44 -127q0 -78 -47.5 -150t-133.5 -99q51 -13 79.5 -49.5t28.5 -84.5q0 -101 -82.5 -156.5t-207.5 -55.5
q-109 0 -170 54.5t-42 149.5z" />
    <glyph glyph-name="gdotaccent.alt" horiz-adv-x="619" 
d="M377 607q-17 0 -28.5 10t-11.5 28q0 25 17 39.5t39 14.5q17 0 28.5 -10t11.5 -29q0 -25 -17.5 -39.5t-38.5 -13.5zM338 446q-96 0 -158.5 -55.5t-73.5 -151.5q-6 -77 41 -119t126 -42q96 0 162 64t66 151q0 73 -47 113t-116 40zM-7 -90h63q-14 -71 34 -107.5t128 -36.5
q84 0 147.5 36.5t63.5 108.5q0 55 -48 82t-119 27q-106 0 -164.5 52t-57.5 147q1 70 29 126t73 90t98 52t108 18q90 0 138 -39l63 62l40 -36l-65 -64q44 -59 44 -127q0 -78 -47.5 -150t-133.5 -99q51 -13 79.5 -49.5t28.5 -84.5q0 -101 -82.5 -156.5t-207.5 -55.5
q-109 0 -170 54.5t-42 149.5z" />
    <glyph glyph-name="y.alt" horiz-adv-x="613" 
d="M474 436h-80l10 58h221l-10 -58h-67l-344 -582q-44 -80 -104.5 -93.5t-122.5 33.5l36 54q79 -58 133 25l76 133l-107 430h-74l10 58h227l-10 -57h-80l81 -362l82 143z" />
    <glyph glyph-name="yacute.alt" horiz-adv-x="613" 
d="M315 576l1 5l92 121h78l-113 -126h-58zM474 436h-80l10 58h221l-10 -58h-67l-344 -582q-44 -80 -104.5 -93.5t-122.5 33.5l36 54q79 -58 133 25l76 133l-107 430h-74l10 58h227l-10 -57h-80l81 -362l82 143z" />
    <glyph glyph-name="ycircumflex.alt" horiz-adv-x="613" 
d="M403 707l114 -126l-1 -5h-68l-76 84l-107 -84h-67l1 5l159 126h45zM474 436h-80l10 58h221l-10 -58h-67l-344 -582q-44 -80 -104.5 -93.5t-122.5 33.5l36 54q79 -58 133 25l76 133l-107 430h-74l10 58h227l-10 -57h-80l81 -362l82 143z" />
    <glyph glyph-name="ydieresis.alt" horiz-adv-x="613" 
d="M476 614q-17 0 -28 10t-11 28q0 25 17 39t38 14q16 0 27 -10t11 -27q0 -25 -16.5 -39.5t-37.5 -14.5zM252 614q-16 0 -27 10t-11 28q0 25 16.5 39t37.5 14q17 0 28 -10t11 -27q0 -25 -17 -39.5t-38 -14.5zM474 436h-80l10 58h221l-10 -58h-67l-344 -582
q-44 -80 -104.5 -93.5t-122.5 33.5l36 54q79 -58 133 25l76 133l-107 430h-74l10 58h227l-10 -57h-80l81 -362l82 143z" />
    <glyph glyph-name="ygrave.alt" horiz-adv-x="613" 
d="M398 581l-1 -5h-58l-63 126h77zM474 436h-80l10 58h221l-10 -58h-67l-344 -582q-44 -80 -104.5 -93.5t-122.5 33.5l36 54q79 -58 133 25l76 133l-107 430h-74l10 58h227l-10 -57h-80l81 -362l82 143z" />
    <glyph glyph-name="zero.denom" horiz-adv-x="439" 
d="M45 152l10 52q14 75 64 117t112 42q63 0 98.5 -41.5t22.5 -117.5l-9 -52q-17 -97 -98 -139q-69 -36 -133 -10q-67 27 -70 105q-1 21 3 44zM108 204l-10 -53q-13 -71 36 -97q43 -23 92 4q50 29 62 93l10 53q9 52 -13.5 80.5t-63.5 28.5q-40 0 -72 -28.5t-41 -80.5z" />
    <glyph glyph-name="one.denom" horiz-adv-x="280" 
d="M4 0l8 48h63l44 248l-57 -13l8 48l114 26l-55 -309h64l-8 -48h-181z" />
    <glyph glyph-name="two.denom" horiz-adv-x="356" 
d="M87 255h-52q10 57 53.5 82.5t100.5 25.5q52 0 86 -21t34 -69q0 -30 -10.5 -51.5t-24 -33.5t-37 -20.5t-40 -11t-41.5 -5.5q-20 -2 -32.5 -4.5t-29 -9.5t-26 -21t-13.5 -35l-5 -31h170l11 53h50l-18 -103h-276l14 82q18 103 150 114q25 2 40.5 5t32 10t24 20.5t7.5 33.5
q0 50 -74 50q-82 0 -94 -60z" />
    <glyph glyph-name="three.denom" horiz-adv-x="354" 
d="M97 316l-10 -46h-47l16 93h263l-4 -20l-115 -126q40 -2 64 -23.5t24 -62.5q0 -72 -49.5 -105t-118.5 -33q-59 0 -94.5 27t-25.5 84h53q-4 -33 19.5 -46.5t57.5 -13.5q41 0 71.5 17t30.5 60q0 55 -77 55h-30l-1 16l110 124h-137z" />
    <glyph glyph-name="four.denom" horiz-adv-x="344" 
d="M209 358h71l-40 -231h42l-9 -49h-42l-14 -77h-53l14 77h-192l4 43zM52 127h135l31 177z" />
    <glyph glyph-name="five.denom" horiz-adv-x="353" 
d="M86 225h78q61 0 93.5 -25t32.5 -70q0 -61 -45.5 -99t-121.5 -38q-58 0 -94 25t-27 81h53q-6 -30 16.5 -43t59.5 -13q55 0 79 22.5t24 55.5q0 56 -80 56h-129l32 181h253l-8 -48h-201z" />
    <glyph glyph-name="six.denom" horiz-adv-x="368" 
d="M92 249l-11 -64q38 35 97 35q53 0 88.5 -22.5t35.5 -71.5q0 -66 -49.5 -99t-114.5 -33q-59 0 -96 29t-27 86l25 140q11 58 56 87t102 29q59 0 94 -24t30 -71h-53q3 47 -78 47q-87 0 -99 -68zM146 42q36 0 68.5 18.5t32.5 56.5q0 29 -23 43t-54 14q-39 0 -71 -20t-32 -56
q0 -28 23.5 -42t55.5 -14z" />
    <glyph glyph-name="seven.denom" horiz-adv-x="315" 
d="M309 358v-25l-221 -333h-61l206 308h-149l-13 -54h-51l18 104h271z" />
    <glyph glyph-name="eight.denom" horiz-adv-x="375" 
d="M1 82q0 41 26 67.5t66 36.5q-55 17 -55 67q0 56 49.5 84.5t112.5 28.5q52 0 89 -21.5t37 -65.5q0 -69 -81 -93q26 -8 42.5 -28.5t16.5 -47.5q0 -42 -28 -70t-64.5 -38.5t-79.5 -10.5q-54 0 -92.5 21.5t-38.5 69.5zM271 272q0 26 -24 37.5t-55 11.5q-37 0 -68 -14.5
t-31 -48.5q0 -25 22.5 -37t56.5 -12q41 0 70 15t29 48zM247 107q0 27 -25 40.5t-59 13.5q-40 0 -72.5 -18t-32.5 -52q0 -27 26 -40t58 -13q38 0 71.5 17t33.5 52z" />
    <glyph glyph-name="nine.denom" horiz-adv-x="367" 
d="M180 317q-39 0 -70 -19t-31 -57q0 -30 22.5 -43.5t55.5 -13.5q34 0 64.5 17t36.5 48q6 35 -18 51.5t-60 16.5zM234 109l11 64q-37 -35 -97 -35q-53 0 -88.5 22.5t-35.5 71.5q0 65 49.5 98.5t114.5 33.5q59 0 96 -29t27 -85l-25 -141q-10 -60 -54.5 -88t-103.5 -28t-94 24
t-29 71h53q-3 -47 77 -47q87 0 99 68z" />
    <glyph glyph-name="zero.num" horiz-adv-x="376" 
d="M75 500l10 53q14 75 64 116.5t112 41.5q63 0 99.5 -41.5t22.5 -117.5l-10 -52q-18 -98 -100 -140q-70 -35 -133 -9q-67 29 -68 109q-1 19 3 40zM137 553l-10 -53q-13 -70 36 -97q43 -24 93 5q50 28 62 92l10 53q10 52 -13 80.5t-64 28.5t-73 -28.5t-41 -80.5z" />
    <glyph glyph-name="one.num" horiz-adv-x="299" 
d="M76 353l8 48h63l44 248l-57 -12l9 48l113 26l-55 -310h64l-8 -48h-181z" />
    <glyph glyph-name="two.num" horiz-adv-x="356" 
d="M148 601h-52q10 56 53.5 81.5t100.5 25.5q52 0 86 -21.5t34 -68.5q0 -30 -10.5 -51.5t-24 -33.5t-37.5 -20.5t-40 -11t-42 -5.5q-20 -2 -32 -4.5t-28.5 -9t-26 -20.5t-13.5 -35l-5 -31h170l10 52h51l-18 -103h-277l15 83q18 100 150 113q34 3 53.5 7.5t35 20t15.5 42.5
q0 50 -74 50q-82 0 -94 -60z" />
    <glyph glyph-name="three.num" horiz-adv-x="354" 
d="M158 663l-10 -46h-47l16 93h264l-4 -20l-115 -126q40 -3 63.5 -24.5t23.5 -61.5q0 -72 -49.5 -105t-118.5 -33q-58 0 -93.5 27t-26.5 84h53q-6 -60 77 -60q41 0 71.5 17t30.5 60q0 55 -77 55h-30l-1 16l111 124h-138z" />
    <glyph glyph-name="four.num" horiz-adv-x="346" 
d="M270 702h71l-40 -231h44l-9 -49h-44l-14 -78h-53l14 78h-192l4 43zM114 471h134l31 177z" />
    <glyph glyph-name="five.num" horiz-adv-x="351" 
d="M145 568l77 -1q61 0 93.5 -25t32.5 -70q0 -61 -44.5 -98.5t-120.5 -37.5q-59 0 -94.5 24.5t-25.5 81.5h52q-10 -57 76 -57q54 0 78 23t24 55q0 57 -80 57h-129l32 181h253l-8 -49h-201z" />
    <glyph glyph-name="six.num" horiz-adv-x="367" 
d="M152 591l-11 -65q38 36 96 36q53 0 88.5 -22.5t35.5 -71.5q0 -66 -49 -99t-114 -33q-59 0 -96.5 29t-27.5 85l25 141q10 57 55.5 86t103.5 29q59 0 94 -24t29 -71h-53q2 23 -17.5 35t-59.5 12q-39 0 -66 -17t-33 -50zM206 384q36 0 68 18.5t32 56.5q0 29 -23 43t-54 14
q-38 0 -70 -20t-32 -56q0 -29 23 -42.5t56 -13.5z" />
    <glyph glyph-name="seven.num" horiz-adv-x="315" 
d="M369 701l-1 -26l-221 -333h-60l206 308h-149l-14 -54h-50l19 105h270z" />
    <glyph glyph-name="eight.num" horiz-adv-x="375" 
d="M61 423q0 41 26 67.5t66 35.5q-54 19 -54 68q0 56 49 84.5t112 28.5q52 0 89 -21.5t37 -65.5q0 -68 -81 -94q26 -7 42.5 -28t16.5 -48q0 -42 -28 -70t-64 -38t-79 -10q-54 0 -93 22t-39 69zM330 612q0 26 -24 37.5t-54 11.5q-37 0 -68 -14.5t-31 -48.5q0 -25 22.5 -37
t56.5 -12q41 0 69.5 15t28.5 48zM307 447q0 27 -25 40.5t-59 13.5q-41 0 -73.5 -18t-32.5 -52q0 -27 26.5 -40t58.5 -13q38 0 71.5 17t33.5 52z" />
    <glyph glyph-name="nine.num" horiz-adv-x="367" 
d="M241 660q-39 0 -69.5 -18.5t-30.5 -57.5q0 -29 22.5 -43t53.5 -14q39 0 71 20t32 56q0 29 -23.5 43t-55.5 14zM295 453l11 64q-38 -36 -97 -36q-53 0 -88 22.5t-35 72.5q0 64 49.5 97.5t113.5 33.5q59 0 96 -28.5t27 -84.5l-25 -141q-10 -60 -55 -88.5t-104 -28.5
t-93.5 24.5t-28.5 71.5h53q-2 -22 17.5 -34.5t59.5 -12.5q39 0 66 17t33 51z" />
    <glyph glyph-name="zero.tf" 
d="M70 274l27 153q16 91 68 157t118.5 96.5t139.5 30.5q113 0 180 -74.5t44 -209.5l-27 -153q-23 -134 -117 -209t-208 -75t-181.5 74.5t-43.5 209.5zM166 427l-27 -154q-18 -103 32.5 -160t135.5 -57q86 0 156 57.5t88 160.5l26 153q18 103 -31.5 160t-134.5 57
q-86 0 -156.5 -57t-88.5 -160z" />
    <glyph glyph-name="one.tf" 
d="M107 0l10 59h168l99 557l-163 -38l11 63l237 59l-113 -641h176l-10 -59h-415z" />
    <glyph glyph-name="two.tf" 
d="M126 164l-17 -99h403l22 103h63l-30 -168h-540l29 163q13 74 64 120.5t111.5 62.5t133.5 16q39 0 75.5 8t71 25t55 51t20.5 80q0 64 -48.5 93t-120.5 29q-37 0 -70.5 -6t-67 -20.5t-57 -43t-30.5 -68.5h-69q21 106 105 152.5t200 46.5q98 0 162.5 -41.5t64.5 -130.5
q0 -52 -17.5 -94t-46.5 -69t-69 -44.5t-81.5 -25t-87.5 -7.5q-38 0 -72 -6t-68.5 -19.5t-57.5 -41t-30 -66.5z" />
    <glyph glyph-name="three.tf" 
d="M229 636l-21 -104h-63l30 168h493l-6 -32l-242 -254q189 -17 189 -172q0 -118 -91.5 -185t-224.5 -67q-50 0 -94 10.5t-80 32t-53 60.5t-8 91h69q-8 -49 20 -80t68.5 -41t90.5 -10q99 0 166 47t67 133q0 42 -17.5 69t-51 39t-66.5 16t-78 3l-6 22q12 14 115.5 125.5
t118.5 129.5z" />
    <glyph glyph-name="four.tf" 
d="M419 0l27 153h-414l4 75l473 472h103l-84 -481h95l-12 -66h-95l-27 -153h-70zM114 219h344l73 414z" />
    <glyph glyph-name="five.tf" 
d="M188 431h208q113 1 167 -47.5t56 -130.5q4 -115 -82.5 -186.5t-233.5 -71.5q-54 0 -98 10t-80.5 32t-53 63t-6.5 97h69q-6 -35 2.5 -61t25.5 -40t45 -22t52 -10t55 -2q109 0 172 48.5t63 130.5q0 128 -165 128h-273l58 331h491l-11 -65h-424z" />
    <glyph glyph-name="six.tf" 
d="M192 508l-31 -173q86 94 230 94q64 0 117 -18t88.5 -61t35.5 -106q0 -53 -19 -96t-50.5 -72t-73.5 -49t-86 -28.5t-90 -8.5q-53 0 -99 13t-82.5 38.5t-53 69.5t-6.5 101l52 297q17 97 106.5 149t200.5 52q113 0 181 -47t57 -136h-70q8 58 -43.5 91t-135.5 33
q-83 -1 -150 -39t-78 -104zM324 55q59 1 109.5 16t89.5 57t39 105q0 66 -53.5 99.5t-128.5 33.5q-51 0 -100.5 -16t-89.5 -52.5t-49 -87.5q-14 -79 42 -117t141 -38z" />
    <glyph glyph-name="seven.tf" 
d="M228 636l-21 -104h-62l29 168h513l-1 -47l-467 -653h-78l458 636h-371z" />
    <glyph glyph-name="eight.tf" 
d="M37 160q0 76 54 130.5t129 71.5q-110 40 -110 134q0 58 29 102t76.5 68.5t100.5 36.5t108 12q47 0 89 -9t78.5 -28t58.5 -53t22 -79q0 -68 -47 -114.5t-121 -69.5q60 -15 95 -63t25 -109q-10 -57 -43.5 -99t-82 -64t-98.5 -32t-105 -10q-67 0 -122 14.5t-95.5 55.5
t-40.5 105zM602 536q0 60 -58.5 90t-129.5 30q-49 0 -96 -12t-88 -44.5t-49 -79.5q-6 -34 10 -60.5t46.5 -40.5t63 -20.5t66.5 -6.5q37 0 75 7.5t75.5 23t61 45t23.5 68.5zM357 335q-29 0 -60.5 -4.5t-66 -16.5t-61 -29.5t-44 -46.5t-17.5 -64q0 -64 61.5 -94.5t137.5 -30.5
q39 0 79 8t80 25t65 49.5t25 75.5q0 44 -34.5 74.5t-77.5 42t-87 11.5z" />
    <glyph glyph-name="nine.tf" 
d="M397 648q-42 0 -81.5 -9.5t-76 -29.5t-58.5 -56t-22 -83q0 -67 53.5 -100.5t128.5 -33.5q82 0 153.5 40.5t85.5 115.5q7 41 -6.5 72.5t-41.5 49t-62.5 26t-72.5 8.5zM529 194l31 175q-84 -96 -230 -96q-101 0 -171 46.5t-70 138.5q0 53 19 96.5t51 72t74 48.5t86 28.5
t90 8.5q53 0 99 -13t82.5 -38.5t53 -69.5t6.5 -101l-53 -297q-17 -97 -106 -149t-200 -52q-114 0 -182.5 47t-57.5 136h70q-7 -57 45 -89.5t136 -32.5q82 1 149 38t78 103z" />
    <glyph glyph-name="bullet.case" horiz-adv-x="339" 
d="M158 237q-39 0 -63.5 23.5t-24.5 62.5q0 52 36.5 86t88.5 34q39 0 63 -23.5t24 -62.5q0 -52 -37 -86t-87 -34z" />
    <glyph glyph-name="periodcentered.case" horiz-adv-x="245" 
d="M81 329q0 26 17.5 40.5t39.5 14.5q17 0 28 -10t11 -28q0 -25 -16.5 -39.5t-38.5 -15.5q-17 -1 -29 9t-12 29z" />
    <glyph glyph-name="braceleft.case" horiz-adv-x="323" 
d="M54 379q77 0 96 110l26 145q16 88 62 122t129 17l-8 -49q-53 11 -80 -9t-38 -83l-26 -143q-5 -29 -9 -43.5t-13.5 -36.5t-27 -35.5t-43.5 -20.5q19 -5 31 -16t17 -22.5t5 -31t-1.5 -31.5t-5.5 -34l-25 -145q-11 -63 8 -81t78 -8l-9 -49q-91 -16 -125 17t-18 121l26 146
q19 110 -58 110z" />
    <glyph glyph-name="braceright.case" horiz-adv-x="323" 
d="M298 379l-9 -51q-77 0 -96 -109l-26 -147q-16 -88 -61 -121t-130 -17l9 51q57 -10 82.5 7.5t36.5 80.5l25 146q5 28 9 42.5t14 37t27.5 36t43.5 19.5q-24 7 -37 20t-15 35.5t-0.5 36.5t6.5 43l25 143q11 64 -9 84t-78 8l9 49q89 17 123 -17t19 -122l-25 -145
q-19 -110 57 -110z" />
    <glyph glyph-name="bracketleft.case" horiz-adv-x="335" 
d="M34 -94l156 883h194l-11 -61h-127l-134 -761h127l-11 -61h-194z" />
    <glyph glyph-name="bracketright.case" horiz-adv-x="336" 
d="M320 789l-156 -883h-194l11 61h126l134 761h-126l11 61h194z" />
    <glyph glyph-name="parenleft.case" horiz-adv-x="337" 
d="M365 803l25 -47q-103 -66 -169.5 -168.5t-88.5 -223.5q-23 -120 7 -224.5t112 -174.5l-41 -49q-96 72 -133.5 200t-13.5 257q22 128 101 242.5t201 187.5z" />
    <glyph glyph-name="parenright.case" horiz-adv-x="334" 
d="M109 756l42 46q87 -65 125.5 -183.5t22.5 -239.5q-16 -140 -95 -264.5t-208 -199.5l-25 51q106 70 172 173.5t86 224.5q21 122 -9.5 224t-110.5 168z" />
    <glyph glyph-name="emdash.case" horiz-adv-x="708" 
d="M77 309l11 61h556l-11 -61h-556z" />
    <glyph glyph-name="endash.case" horiz-adv-x="601" 
d="M75 307l11 61h452l-11 -61h-452z" />
    <glyph glyph-name="hyphen.case" horiz-adv-x="504" 
d="M76 308l11 63h354l-11 -63h-354z" />
    <glyph glyph-name="guillemotleft.case" horiz-adv-x="426" 
d="M273 111l-99 221l177 219h69l-174 -219l96 -221h-69zM53 332l177 219h69l-175 -219l97 -221h-69z" />
    <glyph glyph-name="guillemotright.case" horiz-adv-x="426" 
d="M290 559l99 -220l-177 -220h-69l175 220l-97 220h69zM267 339l-177 -220h-69l175 220l-97 220h69z" />
    <glyph glyph-name="guilsinglleft.case" horiz-adv-x="331" 
d="M165 125l-99 221l177 219h70l-175 -219l97 -221h-70z" />
    <glyph glyph-name="guilsinglright.case" horiz-adv-x="331" 
d="M283 341l-176 -221h-70l175 221l-97 220h70z" />
    <glyph glyph-name="florin.tf" 
d="M309 -1q-29 -170 -174 -173q-51 0 -92 35l35 47q17 -15 30 -20t36 -5q42 1 66.5 28.5t34.5 87.5l76 433h-143l10 58h143l8 43q15 81 62 126.5t125 45.5q58 0 99 -35l-37 -48q-34 25 -71 25q-93 0 -114 -114l-8 -43h171l-10 -58h-170z" />
    <glyph glyph-name="cent.tf" 
d="M288 -87l13 72q-83 9 -133.5 65t-50.5 144q0 119 78 199.5t195 94.5l11 62h61l-11 -62q87 -11 137 -72l-48 -41q-47 56 -129 56q-94 0 -162 -62.5t-68 -166.5q0 -75 45 -117t117 -42q78 0 150 59l33 -46q-75 -63 -164 -71l-12 -72h-62z" />
    <glyph glyph-name="dollar.tf" 
d="M119 109q65 -57 188 -57q37 0 72 6t71.5 20t62.5 43t33 70q5 25 -1 44.5t-23.5 33.5t-33.5 23.5t-46 17t-46 11t-47 8.5q-45 8 -74.5 15.5t-63 22t-51.5 34t-28.5 51t-5.5 72.5q8 63 53 106.5t100.5 61.5t120.5 21l16 92h64l-16 -94q122 -10 191 -77q-1 -8 -25 -137h-61
l16 107q-63 48 -176 48q-86 0 -151 -37.5t-66 -108.5q0 -27 13 -46.5t41 -32t55 -19.5t69 -15q49 -9 80.5 -16.5t69.5 -24t58 -37.5t31 -56t3 -80q-31 -170 -277 -190l-16 -91h-63l16 91q-143 5 -224 94q2 8 13 71t12 69h63z" />
    <glyph glyph-name="Euro.tf" 
d="M101 381l10 56h68q45 121 146 196.5t248 75.5q47 0 94 -14l-29 -61q-36 10 -76 10q-115 0 -194 -55.5t-118 -151.5h266l-24 -56h-264q-3 -9 -8 -35q-1 -7 -4 -33h252l-23 -56h-227q5 -94 63.5 -147.5t174.5 -53.5q53 0 104 19l8 -67q-63 -20 -123 -20q-151 0 -223.5 71.5
t-75.5 195.5h-67l10 56h60q0 5 2.5 19t2.5 15q5 29 7 36h-60z" />
    <glyph glyph-name="sterling.tf" 
d="M31 0l12 62q77 60 105 118.5t29 125.5h-92l10 57h78q-6 78 -6 91q0 123 81 188t204 65q101 0 156 -44t39 -143h-62q11 70 -31 98.5t-113 28.5q-94 0 -151 -49t-57 -143q0 -7 3 -91h251l-10 -56h-238q4 -150 -119 -247h391l21 110h62l-30 -171h-533z" />
    <glyph glyph-name="yen.tf" 
d="M161 290l9 53h112l-140 293h-74l11 64h240l-11 -64h-86l135 -291l241 291h-87l11 64h240l-11 -64h-74l-245 -293h111l-9 -53h-147l-7 -12l-9 -48h154l-9 -53h-154l-20 -114h93l-11 -63h-255l11 63h93l20 114h-152l9 53h152l9 48l-3 12h-147z" />
    <glyph glyph-name="bar.case" horiz-adv-x="273" 
d="M185 758h66l-146 -830h-66z" />
    <glyph glyph-name="commaaccentcomb.alt" horiz-adv-x="481" 
d="M408 792l-44 -87q23 -7 23 -34q0 -25 -18.5 -39t-41.5 -13q-19 1 -29.5 13t-4.5 33q4 12 16 36t28.5 53t21.5 38h49z" />
    <glyph glyph-name="_0004" horiz-adv-x="0" 
 />
    <glyph glyph-name="asterisk.alt" horiz-adv-x="359" 
d="M222 554l-55 -63q-10 -13 -24.5 -11t-18.5 14.5t7 26.5l59 60l-70 19q-11 6 -10.5 18t11.5 23t22 7l70 -25l9 68q3 19 27 21q22 1 24 -16v-5l-15 -68l79 24q17 5 22 -15q5 -23 -12 -32q-2 0 -4 -1l-78 -18l37 -60q11 -20 -11 -35q-21 -14 -33 0q-2 2 -3 5z" />
    <glyph glyph-name="_127" horiz-adv-x="500" 
 />
    <glyph glyph-name="_129" horiz-adv-x="500" 
 />
    <glyph glyph-name="_141" horiz-adv-x="500" 
 />
    <glyph glyph-name="_143" horiz-adv-x="500" 
 />
    <glyph glyph-name="_144" horiz-adv-x="500" 
 />
    <glyph glyph-name="_157" horiz-adv-x="500" 
 />
    </font>
</defs>
</svg>
