<?xml version="1.0" encoding="utf-8"?>
<!-- Generator: Adobe Illustrator 28.0.0, SVG Export Plug-In . SVG Version: 6.00 Build 0)  -->
<svg version="1.1" xmlns="http://www.w3.org/2000/svg" xmlns:xlink="http://www.w3.org/1999/xlink" x="0px" y="0px"
	 viewBox="0 0 1218.9 651.97" style="enable-background:new 0 0 1218.9 651.97;" xml:space="preserve">
<style type="text/css">
	.st0{fill:#00174B;}
	.st1{fill-rule:evenodd;clip-rule:evenodd;fill:#00174B;}
	.st2{fill:#FF88BD;}
</style>
<g id="Subline">
	<g>
		<path class="st0" d="M147.44,485.93h19.96c4.91,0,8.64,1.09,11.19,3.27c2.55,2.18,3.82,5.24,3.82,9.18c0,2.6-0.55,4.73-1.63,6.4
			c-1.09,1.67-2.7,2.9-4.83,3.69c2.36,0.79,4.15,2.02,5.35,3.69c1.2,1.67,1.81,3.85,1.81,6.54c0,3.94-1.31,7-3.93,9.18
			c-2.62,2.18-6.43,3.27-11.44,3.27h-20.3V485.93z M166.21,505.67c3.2,0,5.45-0.57,6.74-1.7c1.3-1.13,1.95-2.75,1.95-4.83
			c0-2.13-0.65-3.79-1.95-4.97c-1.3-1.18-3.55-1.77-6.74-1.77h-11.54v13.28H166.21z M166.63,524.66c3.24,0,5.55-0.6,6.92-1.81
			c1.37-1.2,2.05-2.85,2.05-4.94c0-2.13-0.68-3.77-2.05-4.9c-1.37-1.13-3.67-1.7-6.92-1.7h-11.96v13.35H166.63z"/>
		<path class="st0" d="M194.15,485.93h31.01v6.47h-23.78v12.86h22.39v6.12h-22.39v13.28h23.78v6.47h-31.01V485.93z"/>
		<path class="st0" d="M269.46,518.75c0,1.95-0.44,3.72-1.32,5.32c-0.88,1.6-2.11,2.98-3.69,4.14c-1.58,1.16-3.49,2.05-5.74,2.68
			c-2.25,0.63-4.72,0.94-7.41,0.94c-2.83,0-5.35-0.34-7.58-1.01c-2.23-0.67-4.13-1.61-5.7-2.82c-1.58-1.2-2.77-2.66-3.58-4.38
			c-0.81-1.72-1.17-3.62-1.08-5.7h7.16c0,1.25,0.25,2.34,0.76,3.27c0.51,0.93,1.27,1.72,2.3,2.36c1.02,0.65,2.26,1.12,3.72,1.42
			c1.46,0.3,3.14,0.45,5.04,0.45c1.62,0,3.04-0.14,4.24-0.42c1.2-0.28,2.21-0.7,3.02-1.25c0.81-0.56,1.4-1.25,1.77-2.09
			c0.37-0.84,0.56-1.81,0.56-2.92c0-1.02-0.21-1.91-0.63-2.68c-0.42-0.76-1.08-1.41-1.98-1.95c-0.9-0.53-2.09-0.97-3.55-1.32
			c-1.46-0.35-3.26-0.61-5.39-0.8c-2.78-0.23-5.21-0.67-7.3-1.32c-2.09-0.65-3.84-1.53-5.25-2.64c-1.41-1.11-2.48-2.43-3.2-3.96
			c-0.72-1.53-1.08-3.29-1.08-5.28c0-2.09,0.43-3.95,1.29-5.6c0.86-1.65,2.06-3.06,3.62-4.24c1.55-1.18,3.44-2.1,5.67-2.75
			c2.23-0.65,4.66-0.97,7.3-0.97c2.6,0,4.94,0.3,7.02,0.9c2.09,0.6,3.89,1.47,5.42,2.61c1.53,1.14,2.72,2.52,3.58,4.14
			c0.86,1.62,1.36,3.43,1.49,5.42h-7.23c-0.32-2.23-1.38-3.9-3.16-5.04c-1.79-1.13-4.28-1.68-7.48-1.63c-1.62,0-3.05,0.15-4.28,0.45
			c-1.23,0.3-2.27,0.75-3.13,1.36c-0.86,0.6-1.51,1.32-1.95,2.16c-0.44,0.83-0.66,1.81-0.66,2.92c0,1.11,0.21,2.1,0.63,2.95
			c0.42,0.86,1.08,1.6,1.98,2.23c0.9,0.63,2.03,1.11,3.37,1.46c1.34,0.35,2.92,0.59,4.73,0.73c2.97,0.23,5.56,0.67,7.79,1.32
			c2.23,0.65,4.07,1.49,5.53,2.54c1.46,1.04,2.55,2.31,3.27,3.79C269.1,515.02,269.46,516.75,269.46,518.75z"/>
		<path class="st0" d="M292.43,492.39h-16.2v-6.47h39.63v6.47h-16.2v38.73h-7.23V492.39z"/>
		<path class="st0" d="M348.33,485.93l10.92,35.46l10.92-35.46h7.02l10.92,35.46l10.99-35.46h7.44l-14.32,45.2h-7.72l-10.78-34.97
			l-10.85,34.97h-7.72l-14.32-45.2H348.33z"/>
		<path class="st0" d="M424.23,485.93h8.41l17.11,45.2h-7.72l-3.69-9.94h-19.82l-3.69,9.94h-7.72L424.23,485.93z M436.12,515.06
			l-7.65-20.72l-7.72,20.72H436.12z"/>
		<path class="st0" d="M465,492.39h-16.2v-6.47h39.63v6.47h-16.2v38.73H465V492.39z"/>
		<path class="st0" d="M497.46,485.93h31.01v6.47h-23.78v12.86h22.39v6.12h-22.39v13.28h23.78v6.47h-31.01V485.93z"/>
		<path class="st0" d="M571.07,489.54c2.87,2.41,4.31,5.77,4.31,10.08c0,3.62-0.97,6.58-2.92,8.9c-1.95,2.32-4.71,3.85-8.27,4.59
			l11.4,18.01h-8.62l-10.5-17.45c-0.19,0-0.75,0-1.7,0c-0.95,0-1.97,0-3.06,0s-2.12,0-3.09,0c-0.97,0-1.55,0-1.74,0v17.45h-7.23
			v-45.2h19.47C564.21,485.93,568.19,487.13,571.07,489.54z M558.14,507.69c3.15,0,5.55-0.73,7.2-2.19
			c1.64-1.46,2.47-3.42,2.47-5.88c0-2.46-0.82-4.28-2.47-5.46c-1.65-1.18-4.05-1.77-7.2-1.77h-11.26v15.3H558.14z"/>
		<path class="st0" d="M618.84,492.39h-16.2v-6.47h39.63v6.47h-16.2v38.73h-7.23V492.39z"/>
		<path class="st0" d="M651.29,485.93h31.01v6.47h-23.78v12.86h22.39v6.12h-22.39v13.28h23.78v6.47h-31.01V485.93z"/>
		<path class="st0" d="M691.87,498.58c1-2.87,2.46-5.3,4.38-7.27c1.92-1.97,4.29-3.48,7.09-4.52c2.8-1.04,5.99-1.56,9.56-1.56
			c6.21,0,11.03,1.38,14.46,4.14c3.43,2.76,5.52,6.92,6.26,12.48h-7.79c-0.56-3.52-1.9-6.11-4.03-7.75
			c-2.13-1.64-5.15-2.47-9.04-2.47c-2.46,0-4.61,0.36-6.47,1.08c-1.85,0.72-3.41,1.78-4.66,3.2c-1.25,1.41-2.2,3.16-2.85,5.25
			c-0.65,2.09-0.97,4.5-0.97,7.23c0,2.78,0.32,5.24,0.97,7.37c0.65,2.13,1.59,3.91,2.82,5.32c1.23,1.41,2.78,2.48,4.66,3.2
			c1.88,0.72,4.04,1.08,6.5,1.08c3.94,0,6.98-0.84,9.11-2.5c2.13-1.67,3.45-4.24,3.96-7.72h7.79c-0.7,5.61-2.77,9.79-6.22,12.55
			c-3.45,2.76-8.29,4.14-14.5,4.14c-3.62,0-6.83-0.52-9.63-1.56c-2.81-1.04-5.16-2.55-7.06-4.52c-1.9-1.97-3.35-4.4-4.35-7.3
			c-1-2.9-1.49-6.22-1.49-9.98C690.38,504.75,690.87,501.46,691.87,498.58z"/>
		<path class="st0" d="M744.15,485.93h7.23v19.33h22.6v-19.33h7.23v45.2h-7.23v-19.68h-22.6v19.68h-7.23V485.93z"/>
		<path class="st0" d="M801.69,497.12v34h-7.23v-45.2h8.55l21.21,34v-34h7.23v45.2h-8.55L801.69,497.12z"/>
		<path class="st0" d="M843.74,498.58c1-2.87,2.46-5.3,4.38-7.27c1.92-1.97,4.28-3.48,7.06-4.52c2.78-1.04,5.98-1.56,9.6-1.56
			c3.57,0,6.73,0.51,9.49,1.53c2.76,1.02,5.09,2.53,6.99,4.52c1.9,1.99,3.35,4.43,4.35,7.3c1,2.87,1.5,6.17,1.5,9.87
			c0,3.75-0.49,7.08-1.46,9.98c-0.97,2.9-2.41,5.34-4.31,7.34c-1.9,1.99-4.24,3.5-7.02,4.52c-2.78,1.02-5.96,1.53-9.53,1.53
			c-3.62,0-6.83-0.52-9.63-1.56c-2.81-1.04-5.16-2.55-7.06-4.52c-1.9-1.97-3.35-4.4-4.35-7.3c-1-2.9-1.49-6.22-1.49-9.98
			C842.25,504.75,842.74,501.46,843.74,498.58z M850.73,515.83c0.65,2.13,1.59,3.91,2.82,5.32c1.23,1.41,2.78,2.48,4.66,3.2
			c1.88,0.72,4.04,1.08,6.5,1.08c2.46,0,4.61-0.36,6.47-1.08c1.85-0.72,3.4-1.78,4.62-3.2c1.23-1.41,2.17-3.19,2.82-5.32
			c0.65-2.13,0.97-4.59,0.97-7.37c0-2.73-0.32-5.15-0.97-7.23c-0.65-2.09-1.6-3.84-2.85-5.25c-1.25-1.41-2.81-2.49-4.66-3.23
			c-1.85-0.74-3.99-1.11-6.4-1.11c-2.46,0-4.61,0.37-6.47,1.11c-1.85,0.74-3.41,1.81-4.66,3.2c-1.25,1.39-2.2,3.14-2.85,5.25
			c-0.65,2.11-0.97,4.53-0.97,7.27C849.76,511.24,850.08,513.69,850.73,515.83z"/>
		<path class="st0" d="M897.89,485.93h7.23v38.73h23.02v6.47h-30.25V485.93z"/>
		<path class="st0" d="M935.43,498.58c1-2.87,2.46-5.3,4.38-7.27c1.92-1.97,4.28-3.48,7.06-4.52c2.78-1.04,5.98-1.56,9.6-1.56
			c3.57,0,6.73,0.51,9.49,1.53c2.76,1.02,5.09,2.53,6.99,4.52c1.9,1.99,3.35,4.43,4.35,7.3c1,2.87,1.5,6.17,1.5,9.87
			c0,3.75-0.49,7.08-1.46,9.98c-0.97,2.9-2.41,5.34-4.31,7.34c-1.9,1.99-4.24,3.5-7.02,4.52c-2.78,1.02-5.96,1.53-9.53,1.53
			c-3.62,0-6.83-0.52-9.63-1.56c-2.81-1.04-5.16-2.55-7.06-4.52c-1.9-1.97-3.35-4.4-4.35-7.3c-1-2.9-1.49-6.22-1.49-9.98
			C933.94,504.75,934.43,501.46,935.43,498.58z M942.42,515.83c0.65,2.13,1.59,3.91,2.82,5.32c1.23,1.41,2.78,2.48,4.66,3.2
			c1.88,0.72,4.04,1.08,6.5,1.08c2.46,0,4.61-0.36,6.47-1.08c1.85-0.72,3.4-1.78,4.62-3.2c1.23-1.41,2.17-3.19,2.82-5.32
			c0.65-2.13,0.97-4.59,0.97-7.37c0-2.73-0.32-5.15-0.97-7.23c-0.65-2.09-1.6-3.84-2.85-5.25c-1.25-1.41-2.81-2.49-4.66-3.23
			c-1.85-0.74-3.99-1.11-6.4-1.11c-2.46,0-4.61,0.37-6.47,1.11c-1.85,0.74-3.41,1.81-4.66,3.2c-1.25,1.39-2.2,3.14-2.85,5.25
			c-0.65,2.11-0.97,4.53-0.97,7.27C941.45,511.24,941.77,513.69,942.42,515.83z"/>
		<path class="st0" d="M1023.17,526.25c-1.58,1.81-3.49,3.19-5.74,4.14c-2.25,0.95-4.88,1.43-7.89,1.43c-3.57,0-6.74-0.52-9.53-1.56
			c-2.78-1.04-5.12-2.55-7.02-4.52c-1.9-1.97-3.35-4.4-4.35-7.3c-1-2.9-1.49-6.22-1.49-9.98c0-3.71,0.5-7,1.49-9.87
			c1-2.87,2.46-5.3,4.38-7.27c1.92-1.97,4.28-3.48,7.06-4.52c2.78-1.04,5.98-1.56,9.6-1.56c2.87,0,5.46,0.3,7.75,0.9
			c2.29,0.6,4.29,1.51,5.98,2.71c1.69,1.21,3.09,2.71,4.21,4.52c1.11,1.81,1.92,3.92,2.43,6.33h-7.93
			c-0.79-2.78-2.21-4.82-4.28-6.12c-2.06-1.3-4.86-1.95-8.38-1.95c-2.46,0-4.6,0.36-6.43,1.08c-1.83,0.72-3.37,1.78-4.62,3.2
			c-1.25,1.41-2.2,3.16-2.85,5.25c-0.65,2.09-0.97,4.5-0.97,7.23c0,2.78,0.32,5.24,0.97,7.37c0.65,2.13,1.59,3.91,2.82,5.32
			c1.23,1.41,2.77,2.48,4.62,3.2c1.85,0.72,4.03,1.08,6.54,1.08c1.39,0,2.77-0.17,4.14-0.52c1.37-0.35,2.65-0.81,3.86-1.39
			c1.2-0.58,2.27-1.29,3.2-2.12c0.93-0.83,1.67-1.71,2.23-2.64v-5.91h-14.18v-6.12h21.42v24.47h-5.7L1023.17,526.25z"/>
		<path class="st0" d="M1043.78,485.93l12.1,21.35l12.1-21.35h8.48l-17.03,28.51v16.69h-7.23V514.3l-16.97-28.37H1043.78z"/>
	</g>
</g>
<g id="BWT">
	<g>
		<polygon class="st1" points="1089.87,217.24 952.59,217.24 927.69,288.63 967.1,288.63 967.1,438.76 1047.64,438.76 
			1047.64,288.63 1089.87,288.63 		"/>
		<polygon class="st1" points="861.21,217.24 826.86,314.83 800.82,217.24 740.15,217.24 714.1,314.83 679.76,217.24 597.91,217.24 
			675.18,438.76 741.85,438.76 770.48,330.96 799.11,438.76 865.79,438.76 943.06,217.24 		"/>
		<path class="st1" d="M575.38,325.05c16.48-10.31,27.44-28.61,27.44-49.47c0-32.21-26.12-58.33-58.33-58.33H423.84v221.39v0.12
			h132.5c32.28,0,58.45-26.17,58.45-58.45C614.78,354.69,598.31,332.95,575.38,325.05z M491.38,272.18h21.56
			c6.43,0,11.64,6.66,11.64,14.89c0,8.22-5.21,14.89-11.64,14.89h-21.56V272.18z M524.32,390.15h-32.73v-32.39h32.73
			c7.18,0,13,7.25,13,16.19S531.5,390.15,524.32,390.15z"/>
	</g>
</g>
<g id="Drop">
	<g>
		<path class="st2" d="M322.98,328c0,40.85-33.12,73.96-73.96,73.96s-73.96-33.12-73.96-73.96V146.73l35.78,20.66V328
			c0,21.08,17.1,38.18,38.18,38.18c21.09,0,38.18-17.1,38.18-38.18c0-14.13-7.68-26.48-19.1-33.08l-0.07-0.04l-36.73-21.2v-41.33
			l19.87,11.47l34.34,19.83l0.49,0.28l0.36,0.2C308.26,276.97,322.98,300.77,322.98,328z"/>
		<path class="st0" d="M369,328c0,66.27-53.72,119.99-119.99,119.99c-66.27,0-119.99-53.72-119.99-119.99V120.15l35.79,20.66V328
			c0,46.51,37.7,84.21,84.2,84.21c46.51,0,84.21-37.7,84.21-84.21c0-16.1-4.51-31.15-12.35-43.93c-7.2-11.74-17.18-21.58-29.04-28.6
			l-0.72-0.42h-0.01l-0.46-0.27l-59.35-34.27v-41.33L309,224.05v0.01C344.87,244.81,369,283.59,369,328z"/>
	</g>
</g>
</svg>
