<?xml version="1.0" standalone="no"?>
<!DOCTYPE svg PUBLIC "-//W3C//DTD SVG 1.1//EN" "http://www.w3.org/Graphics/SVG/1.1/DTD/svg11.dtd" >
<svg xmlns="http://www.w3.org/2000/svg" xmlns:xlink="http://www.w3.org/1999/xlink" version="1.1">
<metadata>
Created by FontForge 20170731 at Wed Nov  9 22:15:26 2016
 By Aleksey,,,
Copyright (c) 2015, 2016 by Jakob Runge, under exclusive license to TypeMates. All rights reserved.
</metadata>
<defs>
<font id="CeraStencilPRO-Regular" horiz-adv-x="560" >
  <font-face 
    font-family="Cera Stencil PRO"
    font-weight="400"
    font-stretch="normal"
    units-per-em="1000"
    panose-1="0 0 5 0 0 0 0 0 0 0"
    ascent="808"
    descent="-192"
    x-height="487"
    cap-height="660"
    bbox="-137 -242 1304 1000"
    underline-thickness="65"
    underline-position="-228"
    unicode-range="U+0020-FB02"
  />
<missing-glyph horiz-adv-x="707" 
d="M91 660l525 -660h-525v660zM616 660v-581l-58 73v455h-363l-42 53h463z" />
    <glyph glyph-name="fi" unicode="fi" horiz-adv-x="564" 
d="M257 761q33 0 62 -8v-65q-26 3 -45 3q-100 0 -100 -93v-111h122v-69h-269v69h70v116q0 80 43.5 119t116.5 39zM442 617q-24 0 -41 16t-17 40q0 23 17 39.5t41 16.5q23 0 40 -16.5t17 -39.5q0 -24 -16.5 -40t-40.5 -16zM480 487v-487h-77v487h77zM174 369v-369h-77v369h77
z" />
    <glyph glyph-name="fl" unicode="fl" horiz-adv-x="564" 
d="M257 761q33 0 62 -8v-65q-26 3 -45 3q-100 0 -100 -93v-111h122v-69h-269v69h70v116q0 80 43.5 119t116.5 39zM480 750v-750h-77v750h77zM174 369v-369h-77v369h77z" />
    <glyph glyph-name=".notdef" horiz-adv-x="707" 
d="M91 660l525 -660h-525v660zM616 660v-581l-58 73v455h-363l-42 53h463z" />
    <glyph glyph-name=".null" horiz-adv-x="0" 
 />
    <glyph glyph-name="nonmarkingreturn" horiz-adv-x="333" 
 />
    <glyph glyph-name="space" unicode=" " horiz-adv-x="280" 
 />
    <glyph glyph-name="exclam" unicode="!" horiz-adv-x="305" 
d="M198 660l-14 -451h-64l-15 451h93zM152 115q27 0 45 -18t18 -45t-18 -45t-45 -18q-26 0 -44.5 18t-18.5 45t18.5 45t44.5 18z" />
    <glyph glyph-name="quotedbl" unicode="&#x22;" horiz-adv-x="463" 
d="M198 660l-43 -257h-61l14 257h90zM381 660l-43 -257h-61l14 257h90z" />
    <glyph glyph-name="numbersign" unicode="#" horiz-adv-x="597" 
d="M482 487h86v-66h-517v66h107l23 173h67l-23 -173h190l23 173h67zM29 173v66h517v-66h-107l-22 -173h-67l23 173h-190l-23 -173h-67l23 173h-87z" />
    <glyph glyph-name="dollar" unicode="$" horiz-adv-x="536" 
d="M224 319q-59 22 -99.5 62t-40.5 100q0 59 40.5 99t104.5 51v119h77v-117q98 -13 154 -107l-53 -41q-53 80 -134 80q-45 0 -78 -20.5t-33 -62.5q0 -31 21.5 -54.5t71.5 -44.5l12 -5l-29 -64zM473 185q0 -67 -46.5 -110.5t-120.5 -51.5v-117h-77v118q-123 19 -189 137
l56 40q66 -111 176 -111q53 0 88 25t35 70q0 37 -25.5 60.5t-74.5 44.5l-12 5l30 64l15 -6q145 -60 145 -168z" />
    <glyph glyph-name="percent" unicode="%" horiz-adv-x="811" 
d="M67 442q-17 30 -17 68q0 68 47.5 114.5t115.5 46.5q81 0 125 -58h-118q-50 0 -77.5 -28.5t-27.5 -74.5q0 -37 17 -68h-65zM182 0l378 660h69l-378 -660h-69zM214 349q-81 0 -124 58h118q49 0 77 29t28 74q0 39 -18 68h65q18 -30 18 -69q0 -67 -48 -113.5t-116 -46.5z
M450 83q-17 32 -17 68q0 68 47.5 114.5t115.5 46.5q80 0 125 -58h-118q-49 0 -77 -29t-28 -74q0 -39 18 -68h-66zM597 -10q-80 0 -123 58h117q49 0 77 28.5t28 74.5q0 39 -18 68h66q17 -31 17 -69q0 -67 -48 -113.5t-116 -46.5z" />
    <glyph glyph-name="ampersand" unicode="&#x26;" horiz-adv-x="623" 
d="M506 0l-295 353q-41 50 -62 90t-21 84q0 62 39.5 103t107.5 41q66 0 105.5 -39.5t39.5 -99.5q0 -78 -80 -142l-45 54q49 46 49 88q0 30 -18 49t-51 19q-34 0 -52.5 -20t-18.5 -54q0 -23 10.5 -47t20.5 -38t33 -42l332 -399h-94zM254 -11q-87 0 -145.5 48t-58.5 125
q0 53 28.5 94t82.5 81l43 -54q-36 -30 -54 -56.5t-18 -60.5q0 -47 35 -76t87 -29q57 0 104 39l46 -54q-61 -57 -150 -57zM543 221q-22 0 -37 15.5t-15 37.5t15 37t37 15t37 -15t15 -37t-15 -37.5t-37 -15.5z" />
    <glyph glyph-name="quotesingle" unicode="'" horiz-adv-x="280" 
d="M198 660l-43 -257h-61l14 257h90z" />
    <glyph glyph-name="parenleft" unicode="(" horiz-adv-x="333" 
d="M272 734l33 -53q-151 -98 -151 -380q0 -285 151 -379l-33 -53q-84 41 -139 145.5t-55 286.5q0 183 55 287.5t139 145.5z" />
    <glyph glyph-name="parenright" unicode=")" horiz-adv-x="333" 
d="M62 734q39 -19 71.5 -51t61 -82.5t44.5 -127t16 -172.5q0 -183 -55 -287t-138 -145l-34 53q152 94 152 379q0 281 -152 380z" />
    <glyph glyph-name="asterisk" unicode="*" horiz-adv-x="410" 
d="M364 644l-94 -64l94 -64l-25 -41l-102 49l-8 -113h-48l-9 113l-102 -49l-24 41l94 64l-94 64l24 42l102 -49l9 113h48l8 -113l102 49z" />
    <glyph glyph-name="plus" unicode="+" 
d="M244 88v193h-188v68h188v190h76v-190h183v-68h-183v-193h-76z" />
    <glyph glyph-name="comma" unicode="," horiz-adv-x="270" 
d="M189 90l-41 -269h-63l13 269h91z" />
    <glyph glyph-name="hyphen" unicode="-" horiz-adv-x="346" 
d="M292 347v-65h-239v65h239z" />
    <glyph glyph-name="period" unicode="." horiz-adv-x="270" 
d="M135 115q26 0 44.5 -18t18.5 -45t-18.5 -45t-44.5 -18t-44.5 18t-18.5 45t18.5 45t44.5 18z" />
    <glyph glyph-name="slash" unicode="/" horiz-adv-x="628" 
d="M621 780l-523 -901h-91l523 901h91z" />
    <glyph glyph-name="zero" unicode="0" horiz-adv-x="615" 
d="M468 57v269q0 273 -160 273q-67 0 -111 -46v86q47 32 111 32q120 0 180.5 -93.5t60.5 -248.5q0 -182 -81 -272zM308 -11q-121 0 -181.5 93.5t-60.5 248.5q0 180 81 272v-269q0 -273 161 -273q67 0 111 46v-86q-47 -32 -111 -32z" />
    <glyph glyph-name="one" unicode="1" horiz-adv-x="379" 
d="M271 660v-67l-222 -70l-19 67l212 70h29zM271 543v-543h-78v518z" />
    <glyph glyph-name="two" unicode="2" 
d="M271 671q91 0 149.5 -57t58.5 -143q0 -35 -10 -67t-33.5 -65.5t-41.5 -55t-54 -59.5l-99 -105h-101l142 151q41 43 61 67t37.5 59.5t17.5 70.5q0 55 -34.5 93.5t-92.5 38.5q-60 0 -96 -40t-36 -96q0 -28 6 -55h-79q-8 30 -8 60q0 80 59 141.5t154 61.5zM506 70v-70h-459
v20l47 50h412z" />
    <glyph glyph-name="three" unicode="3" horiz-adv-x="538" 
d="M467 660v-23l-230 -293h-66v24l173 220h-273v72h396zM343 401q61 -21 101 -70t40 -124q0 -97 -68.5 -157.5t-164.5 -60.5q-77 0 -134.5 39t-90.5 98l55 39q66 -104 168 -104q68 0 111 40.5t43 106.5q0 97 -104 135z" />
    <glyph glyph-name="four" unicode="4" horiz-adv-x="548" 
d="M238 660h80l-198 -469h183v-68h-282v22zM526 191v-68h-96v-123h-78v411h78v-220h96z" />
    <glyph glyph-name="five" unicode="5" horiz-adv-x="555" 
d="M444 660v-70h-264v-245h-77v315h341zM275 413q95 0 160.5 -52.5t65.5 -151.5t-69 -159.5t-165 -60.5q-79 0 -136.5 38t-91.5 98l54 40q66 -104 173 -104q67 0 110.5 40.5t43.5 106.5q0 64 -40 100.5t-113 36.5h-37v68h45z" />
    <glyph glyph-name="six" unicode="6" horiz-adv-x="551" 
d="M276 -11q-95 0 -160.5 64t-65.5 159q0 12 1.5 24t3 22t6 22t7 20t9.5 21t10.5 19t12.5 20.5t12.5 19.5t14.5 21t14 21l164 238h93l-204 -297q-23 -34 -35 -53.5t-22 -47.5t-10 -54q0 -62 43 -105t106 -43t105 43.5t42 109.5q0 72 -50 112t-120 36l43 63q77 0 140.5 -58
t63.5 -154t-65 -159.5t-159 -63.5z" />
    <glyph glyph-name="seven" unicode="7" horiz-adv-x="501" 
d="M476 660v-23l-25 -47h-416v70h441zM426 541l-284 -541h-85l288 541h81z" />
    <glyph glyph-name="eight" unicode="8" horiz-adv-x="578" 
d="M289 -11q-105 0 -169 49.5t-64 129.5q0 90 94 146l67 -30q-40 -26 -61 -50.5t-21 -61.5q0 -52 40.5 -84t112.5 -32t112.5 32t40.5 84q0 24 -9.5 43t-29 33t-41.5 25.5t-55 25.5q-12 5 -19 8l-59 26q-141 60 -141 173q0 78 57 121.5t144 43.5t144 -43.5t57 -121.5
q0 -77 -66 -127l-67 30q19 17 28 26.5t18.5 28.5t9.5 40q0 47 -35 73.5t-89 26.5t-89 -26.5t-35 -73.5q0 -42 29.5 -66t96.5 -53l64 -28q79 -35 122.5 -76.5t43.5 -110.5q0 -82 -63 -131.5t-168 -49.5z" />
    <glyph glyph-name="nine" unicode="9" horiz-adv-x="551" 
d="M153 0l203 297q35 49 51 83t16 72q0 62 -42.5 105t-105.5 43t-105.5 -43.5t-42.5 -109.5q0 -72 50.5 -112t120.5 -36l-43 -63q-77 0 -141 58t-64 154t65.5 159.5t159.5 63.5t159.5 -64t65.5 -159q0 -38 -15 -78t-28 -60t-48 -72l-164 -238h-92z" />
    <glyph glyph-name="colon" unicode=":" horiz-adv-x="270" 
d="M135 492q26 0 44.5 -18t18.5 -45t-18.5 -45t-44.5 -18t-44.5 18t-18.5 45t18.5 45t44.5 18zM135 115q26 0 44.5 -18t18.5 -45t-18.5 -45t-44.5 -18t-44.5 18t-18.5 45t18.5 45t44.5 18z" />
    <glyph glyph-name="semicolon" unicode=";" horiz-adv-x="270" 
d="M135 492q26 0 44.5 -18t18.5 -45t-18.5 -45t-44.5 -18t-44.5 18t-18.5 45t18.5 45t44.5 18zM189 90l-41 -269h-63l13 269h91z" />
    <glyph glyph-name="less" unicode="&#x3c;" 
d="M264 346l-84 36l310 132v-73zM490 116l-438 187v24l54 23l384 -162v-72z" />
    <glyph glyph-name="equal" unicode="=" 
d="M494 453v-69h-428v69h428zM494 245v-68h-428v68h428z" />
    <glyph glyph-name="greater" unicode="&#x3e;" 
d="M70 514l439 -187v-24l-55 -23l-384 162v72zM296 284l84 -36l-310 -132v73z" />
    <glyph glyph-name="question" unicode="?" horiz-adv-x="445" 
d="M110 504l-65 27q19 66 65.5 103t110.5 37q30 0 51 -8v-74q-24 11 -51 11q-81 0 -111 -96zM172 209q-10 24 -10 45q0 33 19 59t62 64q46 42 62 67.5t16 64.5v133q36 -18 57.5 -54t21.5 -83q0 -34 -14.5 -65t-31 -49.5t-49.5 -48.5q-50 -46 -59 -63q-11 -18 -11 -39
q0 -16 4 -31h-67zM211 -11q-26 0 -45 18t-19 45t19 45t45 18t44.5 -18t18.5 -45t-18.5 -45t-44.5 -18z" />
    <glyph glyph-name="at" unicode="@" horiz-adv-x="922" 
d="M462 -163q-174 0 -294 117.5t-120 291.5q0 176 123 293.5t302 117.5q171 0 286 -108.5t115 -265.5q0 -138 -84 -246h-72q86 116 86 244q0 135 -92 222.5t-237 87.5q-153 0 -254 -97t-101 -247q0 -149 100.5 -247t248.5 -98q69 0 130 22l14 -60q-69 -27 -151 -27zM444 25
q-85 0 -143 60.5t-58 152.5q0 93 57.5 152.5t143.5 59.5q63 0 109 -35v-69q-47 34 -97 34q-58 0 -96 -39t-38 -103t38 -103.5t97 -39.5q47 0 96 34v-69q-48 -35 -109 -35zM594 36v406h67v-406h-67z" />
    <glyph glyph-name="A" unicode="A" horiz-adv-x="663" 
d="M549 0l-260 608l28 63h29l286 -671h-83zM31 0l232 545l41 -97l-105 -244h210l30 -70h-270l-56 -134h-82z" />
    <glyph glyph-name="B" unicode="B" horiz-adv-x="616" 
d="M499 336q73 -52 73 -146q0 -84 -56.5 -137t-152.5 -53h-272v660h227q85 0 136.5 -47.5t51.5 -122.5t-51.5 -125.5t-136.5 -50.5h-100v71h94q55 0 84.5 28.5t29.5 74.5t-29.5 74t-84.5 28h-143v-520h189q64 0 99 34t35 89q0 56 -46 96z" />
    <glyph glyph-name="C" unicode="C" horiz-adv-x="715" 
d="M607 483q-79 116 -216 116q-64 0 -119 -26.5t-93 -67.5v92q87 74 212 74q88 0 160 -38.5t114 -103.5zM391 -11q-144 0 -243.5 98.5t-99.5 245.5q0 129 81 215v-215q0 -116 75.5 -194t186.5 -78q137 0 216 116l58 -46q-41 -65 -113.5 -103.5t-160.5 -38.5z" />
    <glyph glyph-name="D" unicode="D" horiz-adv-x="694" 
d="M169 660v-660h-78v660h78zM287 660q165 0 262 -91t97 -237t-97 -239t-262 -93h-69v70h69q129 0 204 73.5t75 188.5q0 114 -75 186t-204 72h-69v70h69z" />
    <glyph glyph-name="E" unicode="E" horiz-adv-x="566" 
d="M91 0v660h423v-70h-345v-520h357v-70h-435zM218 320v67h216v-67h-216z" />
    <glyph glyph-name="F" unicode="F" horiz-adv-x="524" 
d="M91 0v660h413v-70h-335v-590h-78zM218 291v72h229v-72h-229z" />
    <glyph glyph-name="G" unicode="G" horiz-adv-x="746" 
d="M601 490q-79 109 -210 109q-64 0 -119 -26.5t-93 -67.5v92q87 74 211 74q84 0 154 -35.5t116 -99.5zM393 -11q-146 0 -245.5 98.5t-99.5 243.5q0 131 81 217v-215q0 -118 75.5 -195.5t189.5 -77.5q69 0 127 30t94 80v47h78v-62q-44 -77 -125 -121.5t-175 -44.5zM390 266
v70h303v-70h-303z" />
    <glyph glyph-name="H" unicode="H" horiz-adv-x="708" 
d="M169 660v-660h-78v660h78zM617 660v-660h-78v318h-321v70h321v272h78z" />
    <glyph glyph-name="I" unicode="I" horiz-adv-x="259" 
d="M91 0v660h78v-660h-78z" />
    <glyph glyph-name="J" unicode="J" horiz-adv-x="373" 
d="M283 660v-507q0 -83 -46.5 -123.5t-126.5 -40.5q-38 0 -86 11v67q41 -6 72 -6q53 0 81 21.5t28 77.5v500h78z" />
    <glyph glyph-name="K" unicode="K" horiz-adv-x="633" 
d="M91 0v660h78v-660h-78zM305 355l298 -355h-97l-299 354l272 306h96z" />
    <glyph glyph-name="L" unicode="L" horiz-adv-x="506" 
d="M169 660v-541h-78v541h78zM482 70v-70h-391v70h391z" />
    <glyph glyph-name="M" unicode="M" horiz-adv-x="789" 
d="M698 671v-91l-289 -393h-28l-290 393v91h28l275 -382l276 382h28zM91 497l78 -106v-391h-78v497zM698 497v-497h-78v391z" />
    <glyph glyph-name="N" unicode="N" horiz-adv-x="708" 
d="M589 -11l-498 601v81h28l498 -600v-82h-28zM617 150l-78 92v418h78v-510zM91 0v511l78 -94v-417h-78z" />
    <glyph glyph-name="O" unicode="O" horiz-adv-x="781" 
d="M390 671q144 0 243.5 -98.5t99.5 -245.5q0 -130 -80 -215v215q0 117 -75.5 194.5t-186.5 77.5q-64 0 -119 -26.5t-93 -67.5v92q87 74 211 74zM129 548v-215q0 -116 75 -194t186 -78q63 0 118.5 26.5t94.5 67.5v-92q-88 -74 -212 -74q-144 0 -243.5 98.5t-99.5 245.5
q0 129 81 215z" />
    <glyph glyph-name="P" unicode="P" horiz-adv-x="573" 
d="M323 660q96 0 153.5 -53.5t57.5 -137.5q0 -85 -57.5 -138.5t-153.5 -53.5h-105v68h104q63 0 97.5 34t34.5 89t-34.5 89.5t-97.5 34.5h-153v-592h-78v660h232z" />
    <glyph glyph-name="Q" unicode="Q" horiz-adv-x="781" 
d="M391 599q-64 0 -119 -26.5t-93 -67.5v92q87 74 211 74q143 0 243 -98.5t100 -243.5q0 -153 -110 -250l-51 54q81 79 81 198q0 114 -75.5 191t-186.5 77zM943 -136q42 0 97 5v-62q-53 -10 -107 -10q-252 0 -418 216q-59 -24 -126 -24q-143 0 -242 99t-99 245q0 129 81 215
v-217q0 -116 74 -193t187 -77q78 0 143 41q100 -126 191.5 -182t218.5 -56z" />
    <glyph glyph-name="R" unicode="R" horiz-adv-x="622" 
d="M91 0v660h232q96 0 153.5 -53.5t57.5 -137.5q0 -85 -57.5 -138.5t-153.5 -53.5h-105v70h104q63 0 97 33.5t34 87.5t-34.5 88t-96.5 34h-153v-590h-78zM515 0l-168 227l81 14l178 -241h-91z" />
    <glyph glyph-name="S" unicode="S" horiz-adv-x="558" 
d="M432 516q-55 83 -149 83q-38 0 -70 -13v74q35 11 72 11q64 0 118.5 -31t85.5 -81zM416 26v135q0 26 -7 45t-24.5 33.5t-33 24t-45.5 23.5l-74 35q-70 34 -109.5 73.5t-39.5 102.5q0 90 81 139v-124q0 -25 7 -43.5t24.5 -33t31.5 -22.5t43 -22l73 -35q78 -37 116 -79
t38 -105q0 -95 -81 -147zM282 -11q-76 0 -139 38t-102 104l58 43q74 -113 184 -113q41 0 84 15v-73q-40 -14 -85 -14z" />
    <glyph glyph-name="T" unicode="T" horiz-adv-x="581" 
d="M19 590v70h543v-70h-543zM251 0v541h78v-541h-78z" />
    <glyph glyph-name="U" unicode="U" horiz-adv-x="689" 
d="M345 -11q-119 0 -191 74t-72 199v398h78v-403q0 -92 50.5 -144t134.5 -52q70 0 134 41v-79q-53 -34 -134 -34zM528 60v600h78v-398q0 -132 -78 -202z" />
    <glyph glyph-name="V" unicode="V" horiz-adv-x="663" 
d="M117 660l257 -605l-28 -66h-29l-286 671h86zM632 660l-231 -542l-42 99l187 443h86z" />
    <glyph glyph-name="W" unicode="W" horiz-adv-x="1066" 
d="M547 671l247 -618l-23 -64h-29l-209 523l-154 -386l-37 102l177 443h28zM131 660l221 -603l-28 -68h-28l-251 671h86zM1020 660l-200 -537l-42 103l157 434h85z" />
    <glyph glyph-name="X" unicode="X" horiz-adv-x="599" 
d="M136 660l433 -660h-91l-432 660h90zM553 660l-178 -276l-44 68l132 208h90zM228 295l43 -67l-150 -228h-91z" />
    <glyph glyph-name="Y" unicode="Y" horiz-adv-x="616" 
d="M128 660l219 -370v-290h-78v274l-229 386h88zM576 660l-199 -327l-41 71l153 256h87z" />
    <glyph glyph-name="Z" unicode="Z" horiz-adv-x="589" 
d="M32 0v23l449 637h73v-23l-449 -637h-73zM75 590v70h345l-46 -70h-299zM166 0l47 70h342v-70h-389z" />
    <glyph glyph-name="bracketleft" unicode="[" horiz-adv-x="343" 
d="M101 661v68h191v-68h-191zM101 -131v743h75v-673h116v-70h-191z" />
    <glyph glyph-name="backslash" unicode="\" horiz-adv-x="628" 
d="M7 780h91l523 -901h-91z" />
    <glyph glyph-name="bracketright" unicode="]" horiz-adv-x="343" 
d="M167 -14v673h-117v70h191v-743h-74zM50 -131v68h191v-68h-191z" />
    <glyph glyph-name="asciicircum" unicode="^" horiz-adv-x="512" 
d="M270 670l182 -386h-80l-156 331l26 55h28zM188 557l40 -85l-88 -188h-80z" />
    <glyph glyph-name="underscore" unicode="_" horiz-adv-x="506" 
d="M462 -75v-65h-419v65h419z" />
    <glyph glyph-name="grave" unicode="`" horiz-adv-x="239" 
d="M150 566l-120 200v14h94l85 -214h-59z" />
    <glyph glyph-name="a" unicode="a" horiz-adv-x="528" 
d="M260 498q86 0 138 -51t52 -147v-300h-77v304q0 60 -31.5 91.5t-86.5 31.5q-82 0 -142 -78l-51 42q67 107 198 107zM324 262v-63h-97q-104 0 -104 -70q0 -38 29.5 -57t74.5 -19q47 0 97 28v-63q-46 -29 -114 -29q-70 0 -118 37.5t-48 99.5q0 61 48 98.5t128 37.5h104z" />
    <glyph glyph-name="b" unicode="b" horiz-adv-x="632" 
d="M85 0v750h77v-750h-77zM342 -11q-72 0 -131 37v77q59 -43 123 -43q72 0 120.5 52.5t48.5 131.5t-48.5 131t-120.5 52q-64 0 -123 -43v77q62 37 131 37q103 0 171.5 -73t68.5 -181t-68.5 -181.5t-171.5 -73.5z" />
    <glyph glyph-name="c" unicode="c" horiz-adv-x="551" 
d="M451 348q-59 79 -145 79q-68 0 -127 -43v79q55 35 126 35q130 0 201 -106zM305 -11q-107 0 -181 74t-74 182q0 111 79 180v-180q0 -80 50.5 -132.5t126.5 -52.5q86 0 144 78l55 -43q-71 -106 -200 -106z" />
    <glyph glyph-name="d" unicode="d" horiz-adv-x="632" 
d="M471 0v750h77v-750h-77zM290 -11q-102 0 -171 73.5t-69 181.5t68.5 181t171.5 73q69 0 131 -37v-77q-59 43 -123 43q-72 0 -120.5 -52t-48.5 -131t48.5 -131.5t120.5 -52.5q64 0 123 43v-77q-59 -37 -131 -37z" />
    <glyph glyph-name="e" unicode="e" horiz-adv-x="571" 
d="M182 220v68h260q-1 65 -42.5 102.5t-102.5 37.5q-72 0 -120 -52t-48 -132q0 -82 50.5 -133t129.5 -51q83 0 149 66l45 -52q-80 -85 -195 -85q-110 0 -184 73t-74 181q0 107 72 181t177 74q95 0 158.5 -62t63.5 -158q0 -31 -6 -58h-333z" />
    <glyph glyph-name="f" unicode="f" horiz-adv-x="303" 
d="M257 761q33 0 62 -8v-65q-26 3 -45 3q-100 0 -100 -93v-111h122v-69h-269v69h70v116q0 80 43.5 119t116.5 39zM174 369v-369h-77v369h77z" />
    <glyph glyph-name="g" unicode="g" horiz-adv-x="637" 
d="M294 5q-102 0 -170 70.5t-68 176.5q0 105 68 175.5t170 70.5q73 0 132 -37v-72q-58 42 -123 42q-74 0 -121.5 -50.5t-47.5 -128.5q0 -79 47.5 -130t121.5 -51q66 0 123 43v-72q-59 -37 -132 -37zM316 -191q-135 0 -229 94l45 54q88 -77 182 -77q76 0 119 42t43 121v444
h77v-440q0 -111 -64.5 -174.5t-172.5 -63.5z" />
    <glyph glyph-name="h" unicode="h" horiz-adv-x="566" 
d="M85 0v750h77v-750h-77zM411 0v297q0 60 -32.5 95t-88.5 35q-41 0 -79 -20v66q42 25 98 25q83 0 131 -53t48 -139v-306h-77z" />
    <glyph glyph-name="i" unicode="i" horiz-adv-x="246" 
d="M124 617q-24 0 -41 16t-17 40q0 23 17 39.5t41 16.5q23 0 40 -16.5t17 -39.5q0 -24 -16.5 -40t-40.5 -16zM162 487v-487h-77v487h77z" />
    <glyph glyph-name="j" unicode="j" horiz-adv-x="246" 
d="M124 617q-24 0 -41 16t-17 40q0 23 17 39.5t41 16.5q23 0 40 -16.5t17 -39.5q0 -24 -16.5 -40t-40.5 -16zM162 487v-520q0 -80 -43.5 -119t-116.5 -39q-33 0 -62 8v65q25 -3 45 -3q100 0 100 93v515h77z" />
    <glyph glyph-name="k" unicode="k" horiz-adv-x="506" 
d="M85 0v750h77v-750h-77zM287 270l206 -270h-95l-198 270l179 217h95z" />
    <glyph glyph-name="l" unicode="l" horiz-adv-x="246" 
d="M162 750v-750h-77v750h77z" />
    <glyph glyph-name="m" unicode="m" horiz-adv-x="874" 
d="M402 0v297q0 59 -29.5 94.5t-83.5 35.5q-42 0 -78 -20v66q42 25 97 25q79 0 125 -53.5t46 -138.5v-306h-77zM719 0v297q0 59 -31 94.5t-84 35.5q-46 0 -87 -31l-24 58q54 44 127 44q84 0 130 -52.5t46 -139.5v-306h-77zM85 0v487h77v-487h-77z" />
    <glyph glyph-name="n" unicode="n" horiz-adv-x="566" 
d="M309 498q83 0 131 -53t48 -139v-306h-77v297q0 60 -32.5 95t-88.5 35q-41 0 -79 -20v66q42 25 98 25zM162 487v-487h-77v487h77z" />
    <glyph glyph-name="o" unicode="o" horiz-adv-x="610" 
d="M305 498q107 0 181 -74t74 -182q0 -113 -79 -180v180q0 80 -50.5 132.5t-126.5 52.5q-68 0 -125 -43v79q55 35 126 35zM129 425v-180q0 -80 51 -132.5t127 -52.5q65 0 125 42v-78q-54 -35 -126 -35q-107 0 -181.5 74t-74.5 182q0 111 79 180z" />
    <glyph glyph-name="p" unicode="p" horiz-adv-x="632" 
d="M342 498q103 0 171.5 -73t68.5 -181t-68.5 -181.5t-171.5 -73.5q-72 0 -131 37v77q57 -43 123 -43q72 0 120.5 52.5t48.5 131.5t-48.5 131t-120.5 52q-64 0 -123 -43v77q62 37 131 37zM162 487v-667h-77v667h77z" />
    <glyph glyph-name="q" unicode="q" horiz-adv-x="632" 
d="M290 -11q-102 0 -171 73.5t-69 181.5t68.5 181t171.5 73q69 0 131 -37v-77q-59 43 -123 43q-72 0 -120.5 -52t-48.5 -131t48.5 -131.5t120.5 -52.5q66 0 123 43v-77q-59 -37 -131 -37zM471 -180v667h77v-667h-77z" />
    <glyph glyph-name="r" unicode="r" horiz-adv-x="326" 
d="M263 498q22 0 37 -15.5t15 -37.5t-15 -37.5t-37 -15.5t-37 15.5t-15 37.5t15 37.5t37 15.5zM162 487v-487h-77v487h77z" />
    <glyph glyph-name="s" unicode="s" horiz-adv-x="454" 
d="M348 373q-51 54 -119 54q-12 0 -34 -4v69q19 6 43 6q96 0 157 -77zM321 9v110q0 35 -20 52.5t-65 35.5l-47 20q-61 25 -91 56t-30 80q0 41 21 71t57 44v-92q0 -38 17.5 -55t62.5 -36l45 -19q70 -30 99.5 -62t29.5 -82q0 -86 -79 -123zM225 -11q-58 0 -106 26.5t-80 68.5
l49 51q70 -75 140 -75q22 0 45 5v-69q-21 -7 -48 -7z" />
    <glyph glyph-name="t" unicode="t" horiz-adv-x="381" 
d="M183 620v-133h152v-69h-311v69h82v133h77zM183 369v-217q0 -52 26.5 -72.5t76.5 -20.5q28 0 65 6v-65q-44 -11 -82 -11q-75 0 -119 39t-44 119v222h77z" />
    <glyph glyph-name="u" unicode="u" 
d="M281 -11q-87 0 -144.5 56.5t-57.5 148.5v293h77v-298q0 -59 35.5 -93.5t90.5 -34.5q40 0 75 19v-74q-36 -17 -76 -17zM405 34v453h77v-293q0 -111 -77 -160z" />
    <glyph glyph-name="v" unicode="v" horiz-adv-x="539" 
d="M108 487l203 -440l-27 -58h-28l-230 498h82zM513 487l-175 -380l-39 86l132 294h82z" />
    <glyph glyph-name="w" unicode="w" horiz-adv-x="851" 
d="M591 -11l-166 368l-111 -247l-35 86l132 302h29l203 -449l-24 -60h-28zM233 -11l-207 498h82l178 -439l-26 -59h-27zM669 111l-39 86l112 290h82z" />
    <glyph glyph-name="x" unicode="x" horiz-adv-x="497" 
d="M387 0l-352 487h89l352 -487h-89zM322 295l-43 60l94 132h89zM20 0l153 212l43 -61l-106 -151h-90z" />
    <glyph glyph-name="y" unicode="y" horiz-adv-x="539" 
d="M200 80l-174 407h83l132 -311zM108 -191q-35 0 -75 10v65q38 -5 60 -5q38 0 64.5 17t44.5 61l229 530h82l-239 -554q-54 -124 -166 -124z" />
    <glyph glyph-name="z" unicode="z" horiz-adv-x="454" 
d="M424 487v-23l-327 -464h-70v23l326 464h71zM293 487l-49 -69h-194v69h243zM427 68v-68h-270l48 68h222z" />
    <glyph glyph-name="braceleft" unicode="{" horiz-adv-x="397" 
d="M53 265v68h59q59 0 59 58q0 19 -13 94t-13 111q0 133 138 133h63v-68h-49q-78 0 -78 -84q0 -27 12.5 -97t12.5 -96q0 -54 -35 -87t-98 -32h-58zM283 -131q-138 0 -138 133q0 36 13 110t13 90q0 15 -5 30l69 20q9 -16 9 -43q0 -26 -12.5 -93.5t-12.5 -95.5q0 -83 78 -83
h49v-68h-63z" />
    <glyph glyph-name="bar" unicode="|" horiz-adv-x="332" 
d="M199 780v-901h-66v901h66z" />
    <glyph glyph-name="braceright" unicode="}" horiz-adv-x="397" 
d="M162 348q-9 16 -9 43q0 26 12.5 93.5t12.5 95.5q0 83 -78 83h-50v68h64q137 0 137 -133q0 -36 -12.5 -110t-12.5 -90q0 -15 5 -30zM50 -129v68h50q78 0 78 84q0 28 -12.5 97.5t-12.5 95.5q0 54 34.5 87t98.5 32h58v-68h-59q-59 0 -59 -58q0 -19 12.5 -94t12.5 -111
q0 -133 -137 -133h-64z" />
    <glyph glyph-name="asciitilde" unicode="~" 
d="M156 403q40 0 84 -27l94 -57q45 -25 62 -25q18 0 28 12.5t10 31.5v19h63q2 -8 2 -27q0 -45 -26.5 -75.5t-70.5 -30.5q-39 0 -83 26l-94 57q-42 26 -61 26q-18 0 -28.5 -12.5t-10.5 -32.5v-19h-63q0 1 -0.5 11t-0.5 16q0 44 26 75.5t69 31.5z" />
    <glyph glyph-name="exclamdown" unicode="&#xa1;" horiz-adv-x="305" 
d="M152 498q27 0 45 -18t18 -45q0 -28 -18 -45.5t-45 -17.5q-26 0 -44.5 17.5t-18.5 45.5q0 27 18.5 45t44.5 18zM184 278l15 -458h-94l15 458h64z" />
    <glyph glyph-name="cent" unicode="&#xa2;" horiz-adv-x="553" 
d="M291 511q-70 0 -119 -45t-57 -113h-79q8 84 64.5 146t138.5 78v173h77v-169q110 -12 174 -105l-53 -43q-59 78 -146 78zM291 144q86 0 145 79l53 -44q-64 -93 -173 -105v-168h-77v172q-83 17 -139.5 79t-63.5 147h79q8 -69 57 -114.5t119 -45.5z" />
    <glyph glyph-name="sterling" unicode="&#xa3;" horiz-adv-x="529" 
d="M404 311v-67h-337v67h95q-6 14 -20.5 42.5t-22.5 45.5t-15 44t-7 53q0 78 53.5 126.5t136.5 48.5q76 0 129 -42t76 -121l-69 -25q-37 116 -132 116q-52 0 -83 -33t-31 -78q0 -30 10 -58t29.5 -65t26.5 -54h161zM266 195q-4 -76 -59 -127h277v-68h-427v20q123 76 131 175
h78z" />
    <glyph glyph-name="currency" unicode="&#xa4;" horiz-adv-x="643" 
d="M92 355q6 62 45 114l-110 110l47 46l111 -111q59 42 135 42q78 0 137 -42l112 111l47 -46l-110 -110q39 -52 45 -114h-79q-7 58 -49.5 94t-101.5 36t-100.5 -36.5t-49.5 -93.5h-79zM551 306q-6 -64 -45 -114l110 -110l-46 -46l-112 111q-61 -43 -138 -43q-76 0 -135 42
l-111 -110l-47 46l109 110q-38 51 -44 114h79q7 -59 49 -95t100 -36q60 0 102 36.5t50 94.5h79z" />
    <glyph glyph-name="yen" unicode="&#xa5;" horiz-adv-x="553" 
d="M545 660l-217 -307h183v-61h-467v61h182l-217 307h88l180 -259l180 259h88zM44 131v69h467v-69h-195v-131h-78v131h-194z" />
    <glyph glyph-name="brokenbar" unicode="&#xa6;" horiz-adv-x="332" 
d="M199 780v-300h-66v300h66zM199 179v-300h-66v300h66z" />
    <glyph glyph-name="section" unicode="&#xa7;" horiz-adv-x="579" 
d="M482 80l-46 44q29 22 29 60q0 39 -70 89l-108 78q-65 48 -96.5 88.5t-31.5 91.5q0 61 44 102t118 41q102 0 170 -88l-57 -46q-56 63 -117 63q-36 0 -57.5 -18t-21.5 -51q0 -34 23.5 -61t77.5 -65l108 -79q51 -37 73.5 -69.5t22.5 -73.5q0 -71 -61 -106zM258 -119
q-102 0 -170 88l57 47q54 -63 117 -63q37 0 57.5 18t20.5 51q0 34 -23 60.5t-77 65.5l-108 78q-51 37 -74 70t-23 74q0 71 61 106l47 -44q-29 -22 -29 -60q0 -19 13.5 -39t55.5 -50l109 -79q65 -48 96 -88t31 -91q0 -62 -43.5 -103t-117.5 -41z" />
    <glyph glyph-name="dieresis" unicode="&#xa8;" horiz-adv-x="381" 
d="M85 620q-21 0 -38 16t-17 37q0 22 17 38t38 16q23 0 39 -15.5t16 -38.5q0 -22 -16 -37.5t-39 -15.5zM297 620q-21 0 -38 16t-17 37q0 22 17 38t38 16q23 0 39 -15.5t16 -38.5q0 -22 -16 -37.5t-39 -15.5z" />
    <glyph glyph-name="copyright" unicode="&#xa9;" horiz-adv-x="781" 
d="M390 -11q-141 0 -241.5 98.5t-100.5 242.5t100.5 242.5t241.5 98.5t242 -98.5t101 -242.5t-101 -242.5t-242 -98.5zM503 402l49 42q-58 78 -152 78q-43 0 -82 -18v-72q37 25 82 25q61 0 103 -55zM399 139q94 0 153 77l-49 42q-41 -54 -102 -54q-51 0 -85.5 36.5
t-34.5 89.5v151q-72 -57 -72 -151q0 -81 55 -136t135 -55z" />
    <glyph glyph-name="ordfeminine" unicode="&#xaa;" horiz-adv-x="364" 
d="M239 244v192q0 65 -67 65q-42 0 -85 -38l-34 43q54 54 126 54q58 0 92 -33t34 -95v-188h-66zM149 237q-49 0 -78.5 25t-29.5 66q0 42 30.5 65.5t82.5 23.5h54v-48h-44q-54 0 -54 -39q0 -40 55 -40q23 0 43 9v-49q-25 -13 -59 -13z" />
    <glyph glyph-name="guillemotleft" unicode="&#xab;" horiz-adv-x="503" 
d="M216 471l50 -45l-141 -155l141 -157l-50 -43l-178 188v23zM413 471l50 -45l-141 -155l141 -157l-50 -43l-178 188v23z" />
    <glyph glyph-name="logicalnot" unicode="&#xac;" 
d="M473 349v-253h-77v185h-341v68h418z" />
    <glyph glyph-name="uni00AD" unicode="&#xad;" horiz-adv-x="346" 
d="M292 347v-65h-239v65h239z" />
    <glyph glyph-name="registered" unicode="&#xae;" horiz-adv-x="570" 
d="M286 188q-100 0 -171.5 72.5t-71.5 174.5q0 103 71.5 175.5t171.5 72.5t170.5 -72.5t70.5 -175.5q0 -102 -70.5 -174.5t-170.5 -72.5zM190 310h57v200h42q15 0 24.5 -9.5t9.5 -24.5q0 -14 -9.5 -23t-24.5 -9h-8v-50h6q42 0 68.5 23t26.5 60q0 38 -26 61t-66 23h-101z
M346 310h65l-52 71l-54 -15z" />
    <glyph glyph-name="macron" unicode="&#xaf;" horiz-adv-x="335" 
d="M30 642v62h275v-62h-275z" />
    <glyph glyph-name="degree" unicode="&#xb0;" horiz-adv-x="360" 
d="M265 403v110q0 46 -24.5 71t-60.5 25q-18 0 -36 -8v64q18 5 36 5q63 0 106 -42.5t43 -103.5q0 -36 -17.5 -68.5t-46.5 -52.5zM180 377q-63 0 -106 42.5t-43 103.5q0 76 64 122v-111q0 -46 24.5 -71t60.5 -25q18 0 36 8v-63q-22 -6 -36 -6z" />
    <glyph glyph-name="plusminus" unicode="&#xb1;" 
d="M319 536v-158h175v-68h-175v-160h-77v160h-176v68h176v158h77zM494 68v-68h-428v68h428z" />
    <glyph glyph-name="uni00B2" unicode="&#xb2;" horiz-adv-x="368" 
d="M110 460l73 78q33 36 48.5 62t15.5 53q0 31 -19 52t-50 21q-32 0 -51.5 -21t-19.5 -55q0 -8 2 -32h-65q-4 16 -4 36q0 53 38 93t100 40q59 0 97.5 -36.5t38.5 -92.5q0 -42 -22 -77t-67 -82l-36 -39h-79zM35 364v14l42 46h251v-60h-293z" />
    <glyph glyph-name="uni00B3" unicode="&#xb3;" horiz-adv-x="354" 
d="M110 571v18l97 131h-159v60h257v-19l-140 -190h-55zM164 357q-98 0 -145 90l46 33q38 -62 97 -62q38 0 61 21.5t23 58.5q0 45 -42 65l34 51q76 -31 76 -117q0 -63 -43.5 -101.5t-106.5 -38.5z" />
    <glyph glyph-name="acute" unicode="&#xb4;" horiz-adv-x="239" 
d="M30 566l85 214h94v-14l-120 -200h-59z" />
    <glyph glyph-name="uni00B5" unicode="&#xb5;" horiz-adv-x="592" 
d="M85 -180v667h77v-667h-77zM542 62q10 0 29 3v-65q-28 -7 -52 -7q-69 0 -94 59q-48 -63 -135 -63q-46 0 -79 18v75q38 -22 76 -22q53 0 88.5 37.5t35.5 98.5v291h77v-351q0 -74 54 -74z" />
    <glyph glyph-name="paragraph" unicode="&#xb6;" horiz-adv-x="564" 
d="M337 660v-424h-59q-104 0 -171.5 59t-67.5 154q0 96 67 153.5t172 57.5h59zM474 660v-685q0 -85 -44 -125.5t-121 -40.5q-37 0 -81 11v66q50 -6 66 -6q50 0 76.5 22.5t26.5 78.5v679h77z" />
    <glyph glyph-name="periodcentered" unicode="&#xb7;" horiz-adv-x="270" 
d="M135 377q26 0 44.5 -18t18.5 -45t-18.5 -45t-44.5 -18t-44.5 18t-18.5 45t18.5 45t44.5 18z" />
    <glyph glyph-name="cedilla" unicode="&#xb8;" horiz-adv-x="260" 
d="M99 -191q-34 0 -69 10v55q31 -4 55 -4q35 0 57 15t22 42q0 11 -1 19h64q3 -8 3 -23q0 -48 -35.5 -81t-95.5 -33z" />
    <glyph glyph-name="uni00B9" unicode="&#xb9;" horiz-adv-x="353" 
d="M219 780v-320h-67v260h-100v60h167zM309 424v-60h-262v60h262z" />
    <glyph glyph-name="ordmasculine" unicode="&#xba;" horiz-adv-x="407" 
d="M301 268v120q0 56 -26 84.5t-72 28.5q-33 0 -61 -14v60q27 13 61 13q68 0 116 -47t48 -115q0 -83 -66 -130zM204 237q-68 0 -116 46.5t-48 114.5q0 84 66 130v-120q0 -55 26.5 -83.5t71.5 -28.5q31 0 61 13v-59q-27 -13 -61 -13z" />
    <glyph glyph-name="guillemotright" unicode="&#xbb;" horiz-adv-x="503" 
d="M90 471l177 -189v-23l-177 -188l-51 43l142 157l-142 155zM287 471l177 -189v-23l-177 -188l-51 43l142 157l-142 155z" />
    <glyph glyph-name="onequarter" unicode="&#xbc;" horiz-adv-x="887" 
d="M152 340v260h-100v60h167v-320h-67zM626 660h69l-378 -660h-69zM677 416h67l-116 -288h90v-55h-171v18zM309 304v-60h-262v60h262zM871 128v-55h-56v-73h-61v258h61v-130h56z" />
    <glyph glyph-name="onehalf" unicode="&#xbd;" horiz-adv-x="924" 
d="M219 660v-320h-67v260h-100v60h167zM695 660l-378 -660h-69l378 660h69zM666 96l73 78q33 36 48.5 62t15.5 53q0 31 -19 52t-50 21q-32 0 -51.5 -21t-19.5 -55q0 -8 2 -32h-65q-4 16 -4 36q0 53 38 93t100 40q59 0 97.5 -36.5t38.5 -92.5q0 -42 -22 -77t-67 -82l-36 -39
h-79zM309 304v-60h-262v60h262zM591 0v14l42 46h251v-60h-293z" />
    <glyph glyph-name="threequarters" unicode="&#xbe;" horiz-adv-x="853" 
d="M110 469l97 131h-159v60h257v-19l-140 -190h-55v18zM592 660h69l-378 -660h-69zM314 377q0 -63 -43.5 -101.5t-106.5 -38.5q-98 0 -145 90l46 33q38 -62 97 -62q38 0 61 21.5t23 58.5q0 45 -42 65l34 51q76 -31 76 -117zM643 416h67l-116 -288h90v-55h-171v18zM837 128
v-55h-56v-73h-61v258h61v-130h56z" />
    <glyph glyph-name="questiondown" unicode="&#xbf;" horiz-adv-x="445" 
d="M234 372q-26 0 -44.5 17.5t-18.5 45.5q0 27 18.5 45t44.5 18t45 -18t19 -45q0 -28 -19 -45.5t-45 -17.5zM123 -162q-36 18 -57.5 54t-21.5 83q0 51 23.5 86.5t72.5 81.5q30 28 40 38.5t20.5 28t10.5 36.5q0 17 -4 32h67q10 -24 10 -45q0 -23 -12.5 -46t-26.5 -38t-43 -41
q-45 -41 -62 -69.5t-17 -67.5v-133zM224 -191q-30 0 -51 8v74q24 -11 51 -11q81 0 111 96l65 -27q-19 -66 -65.5 -103t-110.5 -37z" />
    <glyph glyph-name="Agrave" unicode="&#xc0;" horiz-adv-x="663" 
d="M303 724l-121 172v14h94l85 -186h-58zM549 0l-260 608l28 63h29l286 -671h-83zM31 0l232 545l41 -97l-105 -244h210l30 -70h-270l-56 -134h-82z" />
    <glyph glyph-name="Aacute" unicode="&#xc1;" horiz-adv-x="663" 
d="M303 724l85 186h94v-14l-120 -172h-59zM549 0l-260 608l28 63h29l286 -671h-83zM31 0l232 545l41 -97l-105 -244h210l30 -70h-270l-56 -134h-82z" />
    <glyph glyph-name="Acircumflex" unicode="&#xc2;" horiz-adv-x="663" 
d="M332 832l-110 -108h-61l147 186h48l147 -186h-61zM346 671l286 -671h-83l-260 608l28 63h29zM199 204h210l30 -70h-270l-56 -134h-82l232 545l41 -97z" />
    <glyph glyph-name="Atilde" unicode="&#xc3;" horiz-adv-x="663" 
d="M412 742q-34 0 -73 24l-33 20q-32 20 -43 20q-30 0 -30 -38v-16h-64q-2 14 -2 25q0 43 23.5 72t63.5 29q34 0 70 -23l34 -22q31 -20 44 -20q29 0 29 37v18h65q1 -8 1 -26q0 -43 -23.5 -71.5t-61.5 -28.5zM549 0l-260 608l28 63h29l286 -671h-83zM31 0l232 545l41 -97
l-105 -244h210l30 -70h-270l-56 -134h-82z" />
    <glyph glyph-name="Adieresis" unicode="&#xc4;" horiz-adv-x="663" 
d="M215 757q-22 0 -38.5 15.5t-16.5 37.5t16.5 37.5t38.5 15.5q23 0 39 -15.5t16 -37.5t-16 -37.5t-39 -15.5zM448 756q-22 0 -38.5 15.5t-16.5 37.5t16.5 38t38.5 16q23 0 39 -16t16 -38t-16 -37.5t-39 -15.5zM549 0l-260 608l28 63h29l286 -671h-83zM31 0l232 545l41 -97
l-105 -244h210l30 -70h-270l-56 -134h-82z" />
    <glyph glyph-name="Aring" unicode="&#xc5;" horiz-adv-x="663" 
d="M308 700q-37 7 -61.5 37t-24.5 68q0 46 32 77.5t78 31.5q48 0 80 -31.5t32 -77.5q0 -38 -24.5 -68t-61.5 -37v61q25 15 25 44q0 22 -14.5 37t-35.5 15t-35.5 -15t-14.5 -37q0 -29 25 -44v-61zM549 0l-260 608l28 63h29l286 -671h-83zM31 0l232 545l41 -97l-105 -244h210
l30 -70h-270l-56 -134h-82z" />
    <glyph glyph-name="AE" unicode="&#xc6;" horiz-adv-x="821" 
d="M535 70h246v-70h-314l-112 660h414v-70h-322zM383 204l12 -70h-228l-70 -134h-84l305 586l21 -120l-136 -262h180zM689 318h-146l-11 70h157v-70z" />
    <glyph glyph-name="Ccedilla" unicode="&#xc7;" horiz-adv-x="715" 
d="M607 483q-79 116 -216 116q-64 0 -119 -26.5t-93 -67.5v92q87 74 212 74q88 0 160 -38.5t114 -103.5zM391 -11q-144 0 -243.5 98.5t-99.5 245.5q0 129 81 215v-215q0 -116 75.5 -194t186.5 -78q137 0 216 116l58 -46q-41 -65 -113.5 -103.5t-160.5 -38.5zM329 -191
q-34 0 -69 10v55q31 -4 55 -4q35 0 57 15t22 42q0 11 -1 19h64q3 -8 3 -23q0 -48 -35.5 -81t-95.5 -33z" />
    <glyph glyph-name="Egrave" unicode="&#xc8;" horiz-adv-x="566" 
d="M268 724l-121 172v14h94l85 -186h-58zM91 0v660h423v-70h-345v-520h357v-70h-435zM218 320v67h216v-67h-216z" />
    <glyph glyph-name="Eacute" unicode="&#xc9;" horiz-adv-x="566" 
d="M268 724l85 186h94v-14l-120 -172h-59zM91 0v660h423v-70h-345v-520h357v-70h-435zM218 320v67h216v-67h-216z" />
    <glyph glyph-name="Ecircumflex" unicode="&#xca;" horiz-adv-x="566" 
d="M297 832l-110 -108h-61l147 186h48l147 -186h-61zM169 70h357v-70h-435v660h423v-70h-345v-520zM434 320h-216v67h216v-67z" />
    <glyph glyph-name="Edieresis" unicode="&#xcb;" horiz-adv-x="566" 
d="M180 757q-22 0 -38.5 15.5t-16.5 37.5t16.5 37.5t38.5 15.5q23 0 39 -15.5t16 -37.5t-16 -37.5t-39 -15.5zM413 756q-22 0 -38.5 15.5t-16.5 37.5t16.5 38t38.5 16q23 0 39 -16t16 -38t-16 -37.5t-39 -15.5zM91 0v660h423v-70h-345v-520h357v-70h-435zM218 320v67h216
v-67h-216z" />
    <glyph glyph-name="Igrave" unicode="&#xcc;" horiz-adv-x="259" 
d="M101 724l-121 172v14h94l85 -186h-58zM91 0v660h78v-660h-78z" />
    <glyph glyph-name="Iacute" unicode="&#xcd;" horiz-adv-x="259" 
d="M101 724l85 186h94v-14l-120 -172h-59zM91 0v660h78v-660h-78z" />
    <glyph glyph-name="Icircumflex" unicode="&#xce;" horiz-adv-x="259" 
d="M154 910l147 -186h-61l-110 108l-110 -108h-61l147 186h48zM91 0v660h78v-660h-78z" />
    <glyph glyph-name="Idieresis" unicode="&#xcf;" horiz-adv-x="259" 
d="M13 757q-22 0 -38.5 15.5t-16.5 37.5t16.5 37.5t38.5 15.5q23 0 39 -15.5t16 -37.5t-16 -37.5t-39 -15.5zM246 756q-22 0 -38.5 15.5t-16.5 37.5t16.5 38t38.5 16q23 0 39 -16t16 -38t-16 -37.5t-39 -15.5zM91 0v660h78v-660h-78z" />
    <glyph glyph-name="Eth" unicode="&#xd0;" horiz-adv-x="694" 
d="M286 660q166 0 263 -91.5t97 -237.5q0 -145 -97.5 -238t-262.5 -93h-195v224h78v-154h117q129 0 204 73.5t75 187.5q0 116 -74.5 187t-204.5 71h-117v-200h-78v271h195zM300 340v-66h-304v66h304z" />
    <glyph glyph-name="Ntilde" unicode="&#xd1;" horiz-adv-x="708" 
d="M434 742q-34 0 -73 24l-33 20q-32 20 -43 20q-30 0 -30 -38v-16h-64q-2 14 -2 25q0 43 23.5 72t63.5 29q34 0 70 -23l34 -22q31 -20 44 -20q29 0 29 37v18h65q1 -8 1 -26q0 -43 -23.5 -71.5t-61.5 -28.5zM589 -11l-498 601v81h28l498 -600v-82h-28zM617 150l-78 92v418
h78v-510zM91 0v511l78 -94v-417h-78z" />
    <glyph glyph-name="Ograve" unicode="&#xd2;" horiz-adv-x="781" 
d="M362 724l-121 172v14h94l85 -186h-58zM390 671q144 0 243.5 -98.5t99.5 -245.5q0 -130 -80 -215v215q0 117 -75.5 194.5t-186.5 77.5q-64 0 -119 -26.5t-93 -67.5v92q87 74 211 74zM129 548v-215q0 -116 75 -194t186 -78q63 0 118.5 26.5t94.5 67.5v-92q-88 -74 -212 -74
q-144 0 -243.5 98.5t-99.5 245.5q0 129 81 215z" />
    <glyph glyph-name="Oacute" unicode="&#xd3;" horiz-adv-x="781" 
d="M362 724l85 186h94v-14l-120 -172h-59zM390 671q144 0 243.5 -98.5t99.5 -245.5q0 -130 -80 -215v215q0 117 -75.5 194.5t-186.5 77.5q-64 0 -119 -26.5t-93 -67.5v92q87 74 211 74zM129 548v-215q0 -116 75 -194t186 -78q63 0 118.5 26.5t94.5 67.5v-92
q-88 -74 -212 -74q-144 0 -243.5 98.5t-99.5 245.5q0 129 81 215z" />
    <glyph glyph-name="Ocircumflex" unicode="&#xd4;" horiz-adv-x="781" 
d="M391 832l-110 -108h-61l147 186h48l147 -186h-61zM733 327q0 -130 -80 -215v215q0 117 -75.5 194.5t-186.5 77.5q-64 0 -119 -26.5t-93 -67.5v92q87 74 211 74q144 0 243.5 -98.5t99.5 -245.5zM390 61q63 0 118.5 26.5t94.5 67.5v-92q-88 -74 -212 -74
q-144 0 -243.5 98.5t-99.5 245.5q0 129 81 215v-215q0 -116 75 -194t186 -78z" />
    <glyph glyph-name="Otilde" unicode="&#xd5;" horiz-adv-x="781" 
d="M471 742q-34 0 -73 24l-33 20q-32 20 -43 20q-30 0 -30 -38v-16h-64q-2 14 -2 25q0 43 23.5 72t63.5 29q34 0 70 -23l34 -22q31 -20 44 -20q29 0 29 37v18h65q1 -8 1 -26q0 -43 -23.5 -71.5t-61.5 -28.5zM390 671q144 0 243.5 -98.5t99.5 -245.5q0 -130 -80 -215v215
q0 117 -75.5 194.5t-186.5 77.5q-64 0 -119 -26.5t-93 -67.5v92q87 74 211 74zM129 548v-215q0 -116 75 -194t186 -78q63 0 118.5 26.5t94.5 67.5v-92q-88 -74 -212 -74q-144 0 -243.5 98.5t-99.5 245.5q0 129 81 215z" />
    <glyph glyph-name="Odieresis" unicode="&#xd6;" horiz-adv-x="781" 
d="M274 757q-22 0 -38.5 15.5t-16.5 37.5t16.5 37.5t38.5 15.5q23 0 39 -15.5t16 -37.5t-16 -37.5t-39 -15.5zM507 756q-22 0 -38.5 15.5t-16.5 37.5t16.5 38t38.5 16q23 0 39 -16t16 -38t-16 -37.5t-39 -15.5zM390 671q144 0 243.5 -98.5t99.5 -245.5q0 -130 -80 -215v215
q0 117 -75.5 194.5t-186.5 77.5q-64 0 -119 -26.5t-93 -67.5v92q87 74 211 74zM129 548v-215q0 -116 75 -194t186 -78q63 0 118.5 26.5t94.5 67.5v-92q-88 -74 -212 -74q-144 0 -243.5 98.5t-99.5 245.5q0 129 81 215z" />
    <glyph glyph-name="multiply" unicode="&#xd7;" 
d="M436 519l47 -47l-156 -156l156 -158l-46 -46l-157 156l-156 -156l-47 46l156 158l-156 156l47 47l156 -156z" />
    <glyph glyph-name="Oslash" unicode="&#xd8;" horiz-adv-x="782" 
d="M739 631l-84 -84q78 -96 78 -218q0 -143 -100.5 -241.5t-243.5 -98.5q-97 0 -173 48l51 52q62 -31 124 -31q112 0 188 78t76 194q0 94 -53 164l-512 -513l-48 48l84 84q-78 96 -78 218q0 143 100.5 241.5t243.5 98.5q97 0 174 -48l-52 -52q-62 31 -124 31
q-112 0 -188 -78t-76 -194q0 -94 53 -164l512 513z" />
    <glyph glyph-name="Ugrave" unicode="&#xd9;" horiz-adv-x="689" 
d="M315 724l-121 172v14h94l85 -186h-58zM345 -11q-119 0 -191 74t-72 199v398h78v-403q0 -92 50.5 -144t134.5 -52q70 0 134 41v-79q-53 -34 -134 -34zM528 60v600h78v-398q0 -132 -78 -202z" />
    <glyph glyph-name="Uacute" unicode="&#xda;" horiz-adv-x="689" 
d="M315 724l85 186h94v-14l-120 -172h-59zM345 -11q-119 0 -191 74t-72 199v398h78v-403q0 -92 50.5 -144t134.5 -52q70 0 134 41v-79q-53 -34 -134 -34zM528 60v600h78v-398q0 -132 -78 -202z" />
    <glyph glyph-name="Ucircumflex" unicode="&#xdb;" horiz-adv-x="689" 
d="M320 910h48l147 -186h-61l-110 108l-110 -108h-61zM160 257q0 -92 50.5 -144t134.5 -52q70 0 134 41v-79q-53 -34 -134 -34q-119 0 -191 74t-72 199v398h78v-403zM528 660h78v-398q0 -132 -78 -202v600z" />
    <glyph glyph-name="Udieresis" unicode="&#xdc;" horiz-adv-x="689" 
d="M227 757q-22 0 -38.5 15.5t-16.5 37.5t16.5 37.5t38.5 15.5q23 0 39 -15.5t16 -37.5t-16 -37.5t-39 -15.5zM460 756q-22 0 -38.5 15.5t-16.5 37.5t16.5 38t38.5 16q23 0 39 -16t16 -38t-16 -37.5t-39 -15.5zM345 -11q-119 0 -191 74t-72 199v398h78v-403q0 -92 50.5 -144
t134.5 -52q70 0 134 41v-79q-53 -34 -134 -34zM528 60v600h78v-398q0 -132 -78 -202z" />
    <glyph glyph-name="Yacute" unicode="&#xdd;" horiz-adv-x="616" 
d="M279 724l85 186h94v-14l-120 -172h-59zM128 660l219 -370v-290h-78v274l-229 386h88zM576 660l-199 -327l-41 71l153 256h87z" />
    <glyph glyph-name="Thorn" unicode="&#xde;" horiz-adv-x="573" 
d="M169 660v-660h-78v660h78zM323 542q97 0 154 -54t57 -142q0 -87 -57.5 -142t-153.5 -55h-105v70h104q63 0 97 34.5t34 91.5t-34 92t-97 35h-104v70h105z" />
    <glyph glyph-name="germandbls" unicode="&#xdf;" horiz-adv-x="611" 
d="M85 0v540q0 103 57 162t150 59q78 0 125 -40.5t47 -106.5q0 -35 -18 -88l-55 -160l-67 31l45 134q16 47 16 71q0 40 -25 64t-70 24q-57 0 -93 -39t-36 -114v-537h-76zM413 -12q-98 0 -165 69l43 56q56 -54 127 -54q40 0 63.5 17t23.5 51q0 14 -3.5 23.5t-18.5 21
t-23.5 16.5t-41.5 22l-135 72l25 69l152 -77q60 -31 91.5 -64.5t31.5 -84.5q0 -64 -48 -100.5t-122 -36.5z" />
    <glyph glyph-name="agrave" unicode="&#xe0;" horiz-adv-x="528" 
d="M232 566l-120 200v14h94l85 -214h-59zM260 498q86 0 138 -51t52 -147v-300h-77v304q0 60 -31.5 91.5t-86.5 31.5q-82 0 -142 -78l-51 42q67 107 198 107zM324 262v-63h-97q-104 0 -104 -70q0 -38 29.5 -57t74.5 -19q47 0 97 28v-63q-46 -29 -114 -29q-70 0 -118 37.5
t-48 99.5q0 61 48 98.5t128 37.5h104z" />
    <glyph glyph-name="aacute" unicode="&#xe1;" horiz-adv-x="528" 
d="M230 566l85 214h94v-14l-120 -200h-59zM260 498q86 0 138 -51t52 -147v-300h-77v304q0 60 -31.5 91.5t-86.5 31.5q-82 0 -142 -78l-51 42q67 107 198 107zM324 262v-63h-97q-104 0 -104 -70q0 -38 29.5 -57t74.5 -19q47 0 97 28v-63q-46 -29 -114 -29q-70 0 -118 37.5
t-48 99.5q0 61 48 98.5t128 37.5h104z" />
    <glyph glyph-name="acircumflex" unicode="&#xe2;" horiz-adv-x="528" 
d="M260 693l-100 -127h-60l136 214h48l135 -214h-59zM260 498q86 0 138 -51t52 -147v-300h-77v304q0 60 -31.5 91.5t-86.5 31.5q-82 0 -142 -78l-51 42q67 107 198 107zM44 126q0 61 48 98.5t128 37.5h104v-63h-97q-104 0 -104 -70q0 -38 29.5 -57t74.5 -19q47 0 97 28v-63
q-46 -29 -114 -29q-70 0 -118 37.5t-48 99.5z" />
    <glyph glyph-name="atilde" unicode="&#xe3;" horiz-adv-x="528" 
d="M331 596q-37 0 -68 26l-26 22q-28 23 -42 23q-28 0 -28 -41v-17h-64q-1 9 -1 25q0 46 23 75t62 29q37 0 68 -26l26 -22q26 -23 42 -23q28 0 28 41v17h64q1 -9 1 -25q0 -45 -23 -74.5t-62 -29.5zM260 498q86 0 138 -51t52 -147v-300h-77v304q0 60 -31.5 91.5t-86.5 31.5
q-82 0 -142 -78l-51 42q67 107 198 107zM324 262v-63h-97q-104 0 -104 -70q0 -38 29.5 -57t74.5 -19q47 0 97 28v-63q-46 -29 -114 -29q-70 0 -118 37.5t-48 99.5q0 61 48 98.5t128 37.5h104z" />
    <glyph glyph-name="adieresis" unicode="&#xe4;" horiz-adv-x="528" 
d="M152 620q-21 0 -38 16t-17 37q0 22 17 38t38 16q23 0 39 -15.5t16 -38.5q0 -22 -16 -37.5t-39 -15.5zM364 620q-21 0 -38 16t-17 37q0 22 17 38t38 16q23 0 39 -15.5t16 -38.5q0 -22 -16 -37.5t-39 -15.5zM260 498q86 0 138 -51t52 -147v-300h-77v304q0 60 -31.5 91.5
t-86.5 31.5q-82 0 -142 -78l-51 42q67 107 198 107zM324 262v-63h-97q-104 0 -104 -70q0 -38 29.5 -57t74.5 -19q47 0 97 28v-63q-46 -29 -114 -29q-70 0 -118 37.5t-48 99.5q0 61 48 98.5t128 37.5h104z" />
    <glyph glyph-name="aring" unicode="&#xe5;" horiz-adv-x="528" 
d="M235 562q-38 8 -62 37.5t-24 68.5q0 46 31.5 77t78.5 31q48 0 80 -31t32 -77q0 -39 -24 -68.5t-62 -37.5v62q25 13 25 44q0 22 -14.5 37t-35.5 15t-35.5 -15t-14.5 -37q0 -31 25 -44v-62zM260 498q86 0 138 -51t52 -147v-300h-77v304q0 60 -31.5 91.5t-86.5 31.5
q-82 0 -142 -78l-51 42q67 107 198 107zM324 262v-63h-97q-104 0 -104 -70q0 -38 29.5 -57t74.5 -19q47 0 97 28v-63q-46 -29 -114 -29q-70 0 -118 37.5t-48 99.5q0 61 48 98.5t128 37.5h104z" />
    <glyph glyph-name="ae" unicode="&#xe6;" horiz-adv-x="895" 
d="M632 60q82 0 147 65l46 -51q-76 -85 -192 -85q-106 0 -180.5 71.5t-74.5 179.5v64q0 59 -33 91t-90 32q-82 0 -142 -78l-51 42q67 107 198 107q88 0 140.5 -51t52.5 -143v-60q0 -81 50 -132.5t129 -51.5zM624 498q94 0 157 -62t63 -159q0 -43 -7 -66h-336v63h263
q4 71 -38 112.5t-106 41.5q-75 0 -124 -54l-35 59q68 65 163 65zM229 54q73 0 126 60l36 -49q-61 -76 -174 -76q-77 0 -125 38.5t-48 103.5t49.5 104t129.5 39h106v-63h-100q-106 0 -106 -75q0 -42 31.5 -62t74.5 -20z" />
    <glyph glyph-name="ccedilla" unicode="&#xe7;" horiz-adv-x="551" 
d="M451 348q-59 79 -145 79q-68 0 -127 -43v79q55 35 126 35q130 0 201 -106zM305 -11q-107 0 -181 74t-74 182q0 111 79 180v-180q0 -80 50.5 -132.5t126.5 -52.5q86 0 144 78l55 -43q-71 -106 -200 -106zM242 -191q-34 0 -69 10v55q31 -4 55 -4q35 0 57 15t22 42
q0 11 -1 19h64q3 -8 3 -23q0 -48 -35.5 -81t-95.5 -33z" />
    <glyph glyph-name="egrave" unicode="&#xe8;" horiz-adv-x="571" 
d="M332 566h-59l-120 200v14h94zM182 220v68h260q-1 65 -42.5 102.5t-102.5 37.5q-72 0 -120 -52t-48 -132q0 -82 50.5 -133t129.5 -51q83 0 149 66l45 -52q-80 -85 -195 -85q-110 0 -184 73t-74 181q0 107 72 181t177 74q95 0 158.5 -62t63.5 -158q0 -31 -6 -58h-333z" />
    <glyph glyph-name="eacute" unicode="&#xe9;" horiz-adv-x="571" 
d="M450 766l-120 -200h-59l85 214h94v-14zM182 220v68h260q-1 65 -42.5 102.5t-102.5 37.5q-72 0 -120 -52t-48 -132q0 -82 50.5 -133t129.5 -51q83 0 149 66l45 -52q-80 -85 -195 -85q-110 0 -184 73t-74 181q0 107 72 181t177 74q95 0 158.5 -62t63.5 -158q0 -31 -6 -58
h-333z" />
    <glyph glyph-name="ecircumflex" unicode="&#xea;" horiz-adv-x="571" 
d="M301 693l-100 -127h-60l136 214h48l135 -214h-59zM182 220v68h260q-1 65 -42.5 102.5t-102.5 37.5q-72 0 -120 -52t-48 -132q0 -82 50.5 -133t129.5 -51q83 0 149 66l45 -52q-80 -85 -195 -85q-110 0 -184 73t-74 181q0 107 72 181t177 74q95 0 158.5 -62t63.5 -158
q0 -31 -6 -58h-333z" />
    <glyph glyph-name="edieresis" unicode="&#xeb;" horiz-adv-x="571" 
d="M193 620q-21 0 -38 16t-17 37q0 22 17 38t38 16q23 0 39 -15.5t16 -38.5q0 -22 -16 -37.5t-39 -15.5zM405 620q-21 0 -38 16t-17 37q0 22 17 38t38 16q23 0 39 -15.5t16 -38.5q0 -22 -16 -37.5t-39 -15.5zM182 220v68h260q-1 65 -42.5 102.5t-102.5 37.5q-72 0 -120 -52
t-48 -132q0 -82 50.5 -133t129.5 -51q83 0 149 66l45 -52q-80 -85 -195 -85q-110 0 -184 73t-74 181q0 107 72 181t177 74q95 0 158.5 -62t63.5 -158q0 -31 -6 -58h-333z" />
    <glyph glyph-name="igrave" unicode="&#xec;" horiz-adv-x="246" 
d="M97 566l-90 200v14h94l55 -214h-59zM162 487v-487h-77v487h77z" />
    <glyph glyph-name="iacute" unicode="&#xed;" horiz-adv-x="246" 
d="M94 566l55 214h94v-14l-90 -200h-59zM162 487v-487h-77v487h77z" />
    <glyph glyph-name="icircumflex" unicode="&#xee;" horiz-adv-x="246" 
d="M149 780l135 -214h-59l-100 127l-100 -127h-60l136 214h48zM85 0v487h77v-487h-77z" />
    <glyph glyph-name="idieresis" unicode="&#xef;" horiz-adv-x="246" 
d="M32 620q-22 0 -38.5 15.5t-16.5 37.5t16.5 38t38.5 16q23 0 39 -15.5t16 -38.5q0 -22 -16 -37.5t-39 -15.5zM214 620q-21 0 -38 16t-17 37q0 22 17 38t38 16q23 0 39 -15.5t16 -38.5q0 -22 -16 -37.5t-39 -15.5zM162 487v-487h-77v487h77z" />
    <glyph glyph-name="eth" unicode="&#xf0;" horiz-adv-x="569" 
d="M435 424q83 -111 83 -204q0 -99 -66.5 -165t-168.5 -66q-101 0 -167 66t-66 164q0 69 35.5 121.5t84 76t97.5 22.5l46 -64q-70 7 -127 -35.5t-57 -120.5q0 -68 43.5 -113.5t110.5 -45.5q66 0 111 45t45 113t-56 146l-153 208l-145 -70l-27 57l134 64l-68 92l63 46
l76 -104l155 74l28 -55l-145 -70z" />
    <glyph glyph-name="ntilde" unicode="&#xf1;" horiz-adv-x="566" 
d="M354 596q-37 0 -68 26l-26 22q-28 23 -42 23q-28 0 -28 -41v-17h-64q-1 9 -1 25q0 46 23 75t62 29q37 0 68 -26l26 -22q26 -23 42 -23q28 0 28 41v17h64q1 -9 1 -25q0 -45 -23 -74.5t-62 -29.5zM309 498q83 0 131 -53t48 -139v-306h-77v297q0 60 -32.5 95t-88.5 35
q-41 0 -79 -20v66q42 25 98 25zM162 487v-487h-77v487h77z" />
    <glyph glyph-name="ograve" unicode="&#xf2;" horiz-adv-x="610" 
d="M279 566l-120 200v14h94l85 -214h-59zM305 498q107 0 181 -74t74 -182q0 -113 -79 -180v180q0 80 -50.5 132.5t-126.5 52.5q-68 0 -125 -43v79q55 35 126 35zM129 425v-180q0 -80 51 -132.5t127 -52.5q65 0 125 42v-78q-54 -35 -126 -35q-107 0 -181.5 74t-74.5 182
q0 111 79 180z" />
    <glyph glyph-name="oacute" unicode="&#xf3;" horiz-adv-x="610" 
d="M277 566l85 214h94v-14l-120 -200h-59zM305 498q107 0 181 -74t74 -182q0 -113 -79 -180v180q0 80 -50.5 132.5t-126.5 52.5q-68 0 -125 -43v79q55 35 126 35zM129 425v-180q0 -80 51 -132.5t127 -52.5q65 0 125 42v-78q-54 -35 -126 -35q-107 0 -181.5 74t-74.5 182
q0 111 79 180z" />
    <glyph glyph-name="ocircumflex" unicode="&#xf4;" horiz-adv-x="610" 
d="M307 693l-100 -127h-60l136 214h48l135 -214h-59zM305 498q107 0 181 -74t74 -182q0 -113 -79 -180v180q0 80 -50.5 132.5t-126.5 52.5q-68 0 -125 -43v79q55 35 126 35zM129 245q0 -80 51 -132.5t127 -52.5q65 0 125 42v-78q-54 -35 -126 -35q-107 0 -181.5 74
t-74.5 182q0 111 79 180v-180z" />
    <glyph glyph-name="otilde" unicode="&#xf5;" horiz-adv-x="610" 
d="M378 596q-37 0 -68 26l-26 22q-28 23 -42 23q-28 0 -28 -41v-17h-64q-1 9 -1 25q0 46 23 75t62 29q37 0 68 -26l26 -22q26 -23 42 -23q28 0 28 41v17h64q1 -9 1 -25q0 -45 -23 -74.5t-62 -29.5zM305 498q107 0 181 -74t74 -182q0 -113 -79 -180v180q0 80 -50.5 132.5
t-126.5 52.5q-68 0 -125 -43v79q55 35 126 35zM129 425v-180q0 -80 51 -132.5t127 -52.5q65 0 125 42v-78q-54 -35 -126 -35q-107 0 -181.5 74t-74.5 182q0 111 79 180z" />
    <glyph glyph-name="odieresis" unicode="&#xf6;" horiz-adv-x="610" 
d="M199 620q-21 0 -38 16t-17 37q0 22 17 38t38 16q23 0 39 -15.5t16 -38.5q0 -22 -16 -37.5t-39 -15.5zM411 620q-21 0 -38 16t-17 37q0 22 17 38t38 16q23 0 39 -15.5t16 -38.5q0 -22 -16 -37.5t-39 -15.5zM305 498q107 0 181 -74t74 -182q0 -113 -79 -180v180
q0 80 -50.5 132.5t-126.5 52.5q-68 0 -125 -43v79q55 35 126 35zM129 425v-180q0 -80 51 -132.5t127 -52.5q65 0 125 42v-78q-54 -35 -126 -35q-107 0 -181.5 74t-74.5 182q0 111 79 180z" />
    <glyph glyph-name="divide" unicode="&#xf7;" 
d="M278 438q-23 0 -39 15.5t-16 37.5q0 23 16 38.5t39 15.5t39 -15.5t16 -38.5q0 -22 -16 -37.5t-39 -15.5zM56 281v68h447v-68h-447zM278 82q-23 0 -39 15.5t-16 37.5q0 23 16 38t39 15t39 -15t16 -38q0 -22 -16 -37.5t-39 -15.5z" />
    <glyph glyph-name="oslash" unicode="&#xf8;" horiz-adv-x="621" 
d="M572 458l-60 -60q53 -67 53 -155q0 -106 -72 -180t-176 -74q-59 0 -115 27l50 52q39 -13 69 -13q69 0 119.5 53.5t50.5 131.5q0 61 -30 107l-364 -366l-48 48l60 60q-53 65 -53 155q0 106 71.5 180t175.5 74q61 0 116 -28l-51 -51q-34 12 -68 12q-69 0 -119.5 -53
t-50.5 -131q0 -60 29 -108l365 365z" />
    <glyph glyph-name="ugrave" unicode="&#xf9;" 
d="M254 566l-120 200v14h94l85 -214h-59zM281 -11q-87 0 -144.5 56.5t-57.5 148.5v293h77v-298q0 -59 35.5 -93.5t90.5 -34.5q40 0 75 19v-74q-36 -17 -76 -17zM405 34v453h77v-293q0 -111 -77 -160z" />
    <glyph glyph-name="uacute" unicode="&#xfa;" 
d="M252 566l85 214h94v-14l-120 -200h-59zM281 -11q-87 0 -144.5 56.5t-57.5 148.5v293h77v-298q0 -59 35.5 -93.5t90.5 -34.5q40 0 75 19v-74q-36 -17 -76 -17zM405 34v453h77v-293q0 -111 -77 -160z" />
    <glyph glyph-name="ucircumflex" unicode="&#xfb;" 
d="M306 780l135 -214h-59l-100 127l-100 -127h-60l136 214h48zM156 189q0 -59 35.5 -93.5t90.5 -34.5q40 0 75 19v-74q-36 -17 -76 -17q-87 0 -144.5 56.5t-57.5 148.5v293h77v-298zM405 487h77v-293q0 -111 -77 -160v453z" />
    <glyph glyph-name="udieresis" unicode="&#xfc;" 
d="M174 620q-21 0 -38 16t-17 37q0 22 17 38t38 16q23 0 39 -15.5t16 -38.5q0 -22 -16 -37.5t-39 -15.5zM386 620q-21 0 -38 16t-17 37q0 22 17 38t38 16q23 0 39 -15.5t16 -38.5q0 -22 -16 -37.5t-39 -15.5zM281 -11q-87 0 -144.5 56.5t-57.5 148.5v293h77v-298
q0 -59 35.5 -93.5t90.5 -34.5q40 0 75 19v-74q-36 -17 -76 -17zM405 34v453h77v-293q0 -111 -77 -160z" />
    <glyph glyph-name="yacute" unicode="&#xfd;" horiz-adv-x="539" 
d="M240 566l85 214h94v-14l-120 -200h-59zM200 80l-174 407h83l132 -311zM108 -191q-35 0 -75 10v65q38 -5 60 -5q38 0 64.5 17t44.5 61l229 530h82l-239 -554q-54 -124 -166 -124z" />
    <glyph glyph-name="thorn" unicode="&#xfe;" horiz-adv-x="632" 
d="M85 -180v930h77v-930h-77zM342 -11q-72 0 -131 37v77q57 -43 123 -43q72 0 120.5 52.5t48.5 131.5t-48.5 131t-120.5 52q-64 0 -123 -43v77q62 37 131 37q103 0 171.5 -73t68.5 -181t-68.5 -181.5t-171.5 -73.5z" />
    <glyph glyph-name="ydieresis" unicode="&#xff;" horiz-adv-x="539" 
d="M162 620q-21 0 -38 16t-17 37q0 22 17 38t38 16q23 0 39 -15.5t16 -38.5q0 -22 -16 -37.5t-39 -15.5zM374 620q-21 0 -38 16t-17 37q0 22 17 38t38 16q23 0 39 -15.5t16 -38.5q0 -22 -16 -37.5t-39 -15.5zM200 80l-174 407h83l132 -311zM108 -191q-35 0 -75 10v65
q38 -5 60 -5q38 0 64.5 17t44.5 61l229 530h82l-239 -554q-54 -124 -166 -124z" />
    <glyph glyph-name="Amacron" unicode="&#x100;" horiz-adv-x="663" 
d="M184 770v63h295v-63h-295zM549 0l-260 608l28 63h29l286 -671h-83zM31 0l232 545l41 -97l-105 -244h210l30 -70h-270l-56 -134h-82z" />
    <glyph glyph-name="amacron" unicode="&#x101;" horiz-adv-x="528" 
d="M121 642v62h275v-62h-275zM260 498q86 0 138 -51t52 -147v-300h-77v304q0 60 -31.5 91.5t-86.5 31.5q-82 0 -142 -78l-51 42q67 107 198 107zM324 262v-63h-97q-104 0 -104 -70q0 -38 29.5 -57t74.5 -19q47 0 97 28v-63q-46 -29 -114 -29q-70 0 -118 37.5t-48 99.5
q0 61 48 98.5t128 37.5h104z" />
    <glyph glyph-name="Abreve" unicode="&#x102;" horiz-adv-x="663" 
d="M332 739q-66 0 -109 43.5t-43 109.5h65q0 -42 24.5 -67t62.5 -25t62.5 25t24.5 67h65q0 -66 -43 -109.5t-109 -43.5zM549 0l-260 608l28 63h29l286 -671h-83zM31 0l232 545l41 -97l-105 -244h210l30 -70h-270l-56 -134h-82z" />
    <glyph glyph-name="abreve" unicode="&#x103;" horiz-adv-x="528" 
d="M259 584q-66 0 -109 43.5t-43 108.5h65q0 -41 24.5 -66t62.5 -25t63 25t25 66h64q0 -65 -43 -108.5t-109 -43.5zM260 498q86 0 138 -51t52 -147v-300h-77v304q0 60 -31.5 91.5t-86.5 31.5q-82 0 -142 -78l-51 42q67 107 198 107zM324 262v-63h-97q-104 0 -104 -70
q0 -38 29.5 -57t74.5 -19q47 0 97 28v-63q-46 -29 -114 -29q-70 0 -118 37.5t-48 99.5q0 61 48 98.5t128 37.5h104z" />
    <glyph glyph-name="Aogonek" unicode="&#x104;" horiz-adv-x="663" 
d="M531 -92q0 -37 48 -37q21 0 53 7v-58q-35 -11 -72 -11q-48 0 -77.5 24t-29.5 63q0 30 21.5 55t72.5 54l-258 603l28 63h29l286 -671l-49 -33q-20 -13 -28.5 -19t-16 -17t-7.5 -23zM199 204h210l30 -70h-270l-56 -134h-82l232 545l41 -97z" />
    <glyph glyph-name="aogonek" unicode="&#x105;" horiz-adv-x="528" 
d="M260 498q86 0 138 -51t52 -147v-300h-2l-49 -33q-20 -13 -28.5 -19t-16 -17t-7.5 -23q0 -37 48 -37q21 0 53 7v-58q-35 -11 -72 -11q-48 0 -77.5 24t-29.5 63q0 31 23.5 57t80.5 58v293q0 60 -31.5 91.5t-86.5 31.5q-82 0 -142 -78l-51 42q67 107 198 107zM324 81v-63
q-46 -29 -114 -29q-70 0 -118 37.5t-48 99.5q0 61 48 98.5t128 37.5h104v-63h-97q-104 0 -104 -70q0 -38 29.5 -57t74.5 -19q47 0 97 28z" />
    <glyph glyph-name="Cacute" unicode="&#x106;" horiz-adv-x="715" 
d="M363 724l85 186h94v-14l-120 -172h-59zM607 483q-79 116 -216 116q-64 0 -119 -26.5t-93 -67.5v92q87 74 212 74q88 0 160 -38.5t114 -103.5zM391 -11q-144 0 -243.5 98.5t-99.5 245.5q0 129 81 215v-215q0 -116 75.5 -194t186.5 -78q137 0 216 116l58 -46
q-41 -65 -113.5 -103.5t-160.5 -38.5z" />
    <glyph glyph-name="cacute" unicode="&#x107;" horiz-adv-x="551" 
d="M276 566l85 214h94v-14l-120 -200h-59zM451 348q-59 79 -145 79q-68 0 -127 -43v79q55 35 126 35q130 0 201 -106zM305 -11q-107 0 -181 74t-74 182q0 111 79 180v-180q0 -80 50.5 -132.5t126.5 -52.5q86 0 144 78l55 -43q-71 -106 -200 -106z" />
    <glyph glyph-name="Ccircumflex" unicode="&#x108;" horiz-adv-x="715" 
d="M392 832l-110 -108h-61l147 186h48l147 -186h-61zM391 599q-64 0 -119 -26.5t-93 -67.5v92q87 74 212 74q88 0 160 -38.5t114 -103.5l-58 -46q-79 116 -216 116zM391 61q137 0 216 116l58 -46q-41 -65 -113.5 -103.5t-160.5 -38.5q-144 0 -243.5 98.5t-99.5 245.5
q0 129 81 215v-215q0 -116 75.5 -194t186.5 -78z" />
    <glyph glyph-name="ccircumflex" unicode="&#x109;" horiz-adv-x="551" 
d="M306 693l-100 -127h-60l136 214h48l135 -214h-59zM179 463q55 35 126 35q130 0 201 -106l-55 -44q-59 79 -145 79q-68 0 -127 -43v79zM306 60q86 0 144 78l55 -43q-71 -106 -200 -106q-107 0 -181 74t-74 182q0 111 79 180v-180q0 -80 50.5 -132.5t126.5 -52.5z" />
    <glyph glyph-name="Cdotaccent" unicode="&#x10a;" horiz-adv-x="715" 
d="M392 754q-24 0 -41 16t-17 40q0 23 17 39.5t41 16.5q23 0 40 -16.5t17 -39.5q0 -24 -16.5 -40t-40.5 -16zM607 483q-79 116 -216 116q-64 0 -119 -26.5t-93 -67.5v92q87 74 212 74q88 0 160 -38.5t114 -103.5zM391 -11q-144 0 -243.5 98.5t-99.5 245.5q0 129 81 215v-215
q0 -116 75.5 -194t186.5 -78q137 0 216 116l58 -46q-41 -65 -113.5 -103.5t-160.5 -38.5z" />
    <glyph glyph-name="cdotaccent" unicode="&#x10b;" horiz-adv-x="551" 
d="M305 617q-24 0 -41 16t-17 40q0 23 17 39.5t41 16.5q23 0 40 -16.5t17 -39.5q0 -24 -16.5 -40t-40.5 -16zM451 348q-59 79 -145 79q-68 0 -127 -43v79q55 35 126 35q130 0 201 -106zM305 -11q-107 0 -181 74t-74 182q0 111 79 180v-180q0 -80 50.5 -132.5t126.5 -52.5
q86 0 144 78l55 -43q-71 -106 -200 -106z" />
    <glyph glyph-name="Ccaron" unicode="&#x10c;" horiz-adv-x="715" 
d="M416 724h-48l-147 186h61l110 -107l110 107h61zM391 599q-64 0 -119 -26.5t-93 -67.5v92q87 74 212 74q88 0 160 -38.5t114 -103.5l-58 -46q-79 116 -216 116zM391 61q137 0 216 116l58 -46q-41 -65 -113.5 -103.5t-160.5 -38.5q-144 0 -243.5 98.5t-99.5 245.5
q0 129 81 215v-215q0 -116 75.5 -194t186.5 -78z" />
    <glyph glyph-name="ccaron" unicode="&#x10d;" horiz-adv-x="551" 
d="M330 566h-48l-136 214h60l100 -127l100 127h59zM179 463q55 35 126 35q130 0 201 -106l-55 -44q-59 79 -145 79q-68 0 -127 -43v79zM306 60q86 0 144 78l55 -43q-71 -106 -200 -106q-107 0 -181 74t-74 182q0 111 79 180v-180q0 -80 50.5 -132.5t126.5 -52.5z" />
    <glyph glyph-name="Dcaron" unicode="&#x10e;" horiz-adv-x="694" 
d="M304 724h-48l-147 186h61l110 -107l110 107h61zM91 0v660h78v-660h-78zM287 660q165 0 262 -91t97 -237t-97 -239t-262 -93h-69v70h69q129 0 204 73.5t75 188.5q0 114 -75 186t-204 72h-69v70h69z" />
    <glyph glyph-name="dcaron" unicode="&#x10f;" horiz-adv-x="754" 
d="M471 0v750h77v-750h-77zM648 539l13 211h83l-38 -211h-58zM290 -11q-102 0 -171 73.5t-69 181.5t68.5 181t171.5 73q69 0 131 -37v-77q-59 43 -123 43q-72 0 -120.5 -52t-48.5 -131t48.5 -131.5t120.5 -52.5q64 0 123 43v-77q-59 -37 -131 -37z" />
    <glyph glyph-name="Dcroat" unicode="&#x110;" horiz-adv-x="694" 
d="M286 660q166 0 263 -91.5t97 -237.5q0 -145 -97.5 -238t-262.5 -93h-195v224h78v-154h117q129 0 204 73.5t75 187.5q0 116 -74.5 187t-204.5 71h-117v-200h-78v271h195zM300 340v-66h-304v66h304z" />
    <glyph glyph-name="dcroat" unicode="&#x111;" horiz-adv-x="634" 
d="M629 645v-64h-83v-581h-76v581h-219v64h219v105h76v-105h83zM49 236q0 106 69 177t171 71q71 0 131 -36v-76q-57 43 -123 43q-73 0 -121 -51t-48 -128t48 -128t121 -51q64 0 123 43v-75q-59 -37 -131 -37q-102 0 -171 71t-69 177z" />
    <glyph glyph-name="Emacron" unicode="&#x112;" horiz-adv-x="566" 
d="M149 770v63h295v-63h-295zM91 0v660h423v-70h-345v-520h357v-70h-435zM218 320v67h216v-67h-216z" />
    <glyph glyph-name="emacron" unicode="&#x113;" horiz-adv-x="571" 
d="M437 704v-62h-275v62h275zM182 220v68h260q-1 65 -42.5 102.5t-102.5 37.5q-72 0 -120 -52t-48 -132q0 -82 50.5 -133t129.5 -51q83 0 149 66l45 -52q-80 -85 -195 -85q-110 0 -184 73t-74 181q0 107 72 181t177 74q95 0 158.5 -62t63.5 -158q0 -31 -6 -58h-333z" />
    <glyph glyph-name="Ebreve" unicode="&#x114;" horiz-adv-x="566" 
d="M297 739q-66 0 -109 43.5t-43 109.5h65q0 -42 24.5 -67t62.5 -25t62.5 25t24.5 67h65q0 -66 -43 -109.5t-109 -43.5zM91 0v660h423v-70h-345v-520h357v-70h-435zM218 320v67h216v-67h-216z" />
    <glyph glyph-name="ebreve" unicode="&#x115;" horiz-adv-x="571" 
d="M300 584q-66 0 -109 43.5t-43 108.5h65q0 -41 24.5 -66t62.5 -25t63 25t25 66h64q0 -65 -43 -108.5t-109 -43.5zM182 220v68h260q-1 65 -42.5 102.5t-102.5 37.5q-72 0 -120 -52t-48 -132q0 -82 50.5 -133t129.5 -51q83 0 149 66l45 -52q-80 -85 -195 -85q-110 0 -184 73
t-74 181q0 107 72 181t177 74q95 0 158.5 -62t63.5 -158q0 -31 -6 -58h-333z" />
    <glyph glyph-name="Edotaccent" unicode="&#x116;" horiz-adv-x="566" 
d="M297 754q-24 0 -41 16t-17 40q0 23 17 39.5t41 16.5q23 0 40 -16.5t17 -39.5q0 -24 -16.5 -40t-40.5 -16zM91 0v660h423v-70h-345v-520h357v-70h-435zM218 320v67h216v-67h-216z" />
    <glyph glyph-name="edotaccent" unicode="&#x117;" horiz-adv-x="571" 
d="M300 617q-24 0 -41 16t-17 40q0 23 17 39.5t41 16.5q23 0 40 -16.5t17 -39.5q0 -24 -16.5 -40t-40.5 -16zM182 220v68h260q-1 65 -42.5 102.5t-102.5 37.5q-72 0 -120 -52t-48 -132q0 -82 50.5 -133t129.5 -51q83 0 149 66l45 -52q-80 -85 -195 -85q-110 0 -184 73
t-74 181q0 107 72 181t177 74q95 0 158.5 -62t63.5 -158q0 -31 -6 -58h-333z" />
    <glyph glyph-name="Eogonek" unicode="&#x118;" horiz-adv-x="566" 
d="M477 -33q-20 -13 -28.5 -19t-16 -17t-7.5 -23q0 -37 48 -37q21 0 53 7v-58q-35 -11 -72 -11q-48 0 -77.5 24t-29.5 63q0 29 19.5 53t65.5 51h-341v660h423v-70h-345v-520h357v-70zM434 320h-216v67h216v-67z" />
    <glyph glyph-name="eogonek" unicode="&#x119;" horiz-adv-x="571" 
d="M182 220v68h260q-1 65 -42.5 102.5t-102.5 37.5q-72 0 -120 -52t-48 -132q0 -82 50.5 -133t129.5 -51q86 0 152 68l41 -53q-11 -12 -25 -24t-24 -19.5t-31 -21t-31 -20.5q-63 -43 -63 -80q0 -40 51 -40q21 0 53 7v-55q-32 -13 -71 -13q-49 0 -78.5 23.5t-29.5 63.5
q0 50 62 93h-13q-105 0 -178.5 73.5t-73.5 180.5t72 181t177 74q95 0 158.5 -62t63.5 -158q0 -31 -6 -58h-333z" />
    <glyph glyph-name="Ecaron" unicode="&#x11a;" horiz-adv-x="566" 
d="M321 724h-48l-147 186h61l110 -107l110 107h61zM169 70h357v-70h-435v660h423v-70h-345v-520zM434 320h-216v67h216v-67z" />
    <glyph glyph-name="ecaron" unicode="&#x11b;" horiz-adv-x="571" 
d="M325 566h-48l-136 214h60l100 -127l100 127h59zM182 220v68h260q-1 65 -42.5 102.5t-102.5 37.5q-72 0 -120 -52t-48 -132q0 -82 50.5 -133t129.5 -51q83 0 149 66l45 -52q-80 -85 -195 -85q-110 0 -184 73t-74 181q0 107 72 181t177 74q95 0 158.5 -62t63.5 -158
q0 -31 -6 -58h-333z" />
    <glyph glyph-name="Gcircumflex" unicode="&#x11c;" horiz-adv-x="746" 
d="M391 832l-110 -108h-61l147 186h48l147 -186h-61zM391 599q-64 0 -119 -26.5t-93 -67.5v92q87 74 211 74q84 0 154 -35.5t116 -99.5l-59 -46q-79 109 -210 109zM615 170v47h78v-62q-44 -77 -125 -121.5t-175 -44.5q-146 0 -245.5 98.5t-99.5 243.5q0 131 81 217v-215
q0 -118 75.5 -195.5t189.5 -77.5q69 0 127 30t94 80zM390 336h303v-70h-303v70z" />
    <glyph glyph-name="gcircumflex" unicode="&#x11d;" horiz-adv-x="637" 
d="M313 693l-100 -127h-60l136 214h48l135 -214h-59zM294 5q-102 0 -170 70.5t-68 176.5q0 105 68 175.5t170 70.5q73 0 132 -37v-72q-58 42 -123 42q-74 0 -121.5 -50.5t-47.5 -128.5q0 -79 47.5 -130t121.5 -51q66 0 123 43v-72q-59 -37 -132 -37zM476 487h77v-440
q0 -111 -64.5 -174.5t-172.5 -63.5q-135 0 -229 94l45 54q88 -77 182 -77q76 0 119 42t43 121v444z" />
    <glyph glyph-name="Gbreve" unicode="&#x11e;" horiz-adv-x="746" 
d="M391 739q-66 0 -109 43.5t-43 109.5h65q0 -42 24.5 -67t62.5 -25t62.5 25t24.5 67h65q0 -66 -43 -109.5t-109 -43.5zM601 490q-79 109 -210 109q-64 0 -119 -26.5t-93 -67.5v92q87 74 211 74q84 0 154 -35.5t116 -99.5zM393 -11q-146 0 -245.5 98.5t-99.5 243.5
q0 131 81 217v-215q0 -118 75.5 -195.5t189.5 -77.5q69 0 127 30t94 80v47h78v-62q-44 -77 -125 -121.5t-175 -44.5zM390 266v70h303v-70h-303z" />
    <glyph glyph-name="gbreve" unicode="&#x11f;" horiz-adv-x="637" 
d="M312 584q-66 0 -109 43.5t-43 108.5h65q0 -41 24.5 -66t62.5 -25t63 25t25 66h64q0 -65 -43 -108.5t-109 -43.5zM294 5q-102 0 -170 70.5t-68 176.5q0 105 68 175.5t170 70.5q73 0 132 -37v-72q-58 42 -123 42q-74 0 -121.5 -50.5t-47.5 -128.5q0 -79 47.5 -130
t121.5 -51q66 0 123 43v-72q-59 -37 -132 -37zM316 -191q-135 0 -229 94l45 54q88 -77 182 -77q76 0 119 42t43 121v444h77v-440q0 -111 -64.5 -174.5t-172.5 -63.5z" />
    <glyph glyph-name="Gdotaccent" unicode="&#x120;" horiz-adv-x="746" 
d="M391 754q-24 0 -41 16t-17 40q0 23 17 39.5t41 16.5q23 0 40 -16.5t17 -39.5q0 -24 -16.5 -40t-40.5 -16zM601 490q-79 109 -210 109q-64 0 -119 -26.5t-93 -67.5v92q87 74 211 74q84 0 154 -35.5t116 -99.5zM393 -11q-146 0 -245.5 98.5t-99.5 243.5q0 131 81 217v-215
q0 -118 75.5 -195.5t189.5 -77.5q69 0 127 30t94 80v47h78v-62q-44 -77 -125 -121.5t-175 -44.5zM390 266v70h303v-70h-303z" />
    <glyph glyph-name="gdotaccent" unicode="&#x121;" horiz-adv-x="637" 
d="M312 617q-24 0 -41 16t-17 40q0 23 17 39.5t41 16.5q23 0 40 -16.5t17 -39.5q0 -24 -16.5 -40t-40.5 -16zM294 5q-102 0 -170 70.5t-68 176.5q0 105 68 175.5t170 70.5q73 0 132 -37v-72q-58 42 -123 42q-74 0 -121.5 -50.5t-47.5 -128.5q0 -79 47.5 -130t121.5 -51
q66 0 123 43v-72q-59 -37 -132 -37zM316 -191q-135 0 -229 94l45 54q88 -77 182 -77q76 0 119 42t43 121v444h77v-440q0 -111 -64.5 -174.5t-172.5 -63.5z" />
    <glyph glyph-name="Gcommaaccent" unicode="&#x122;" horiz-adv-x="746" 
d="M601 490q-79 109 -210 109q-64 0 -119 -26.5t-93 -67.5v92q87 74 211 74q84 0 154 -35.5t116 -99.5zM393 -11q-146 0 -245.5 98.5t-99.5 243.5q0 131 81 217v-215q0 -118 75.5 -195.5t189.5 -77.5q69 0 127 30t94 80v47h78v-62q-44 -77 -125 -121.5t-175 -44.5zM390 266
v70h303v-70h-303zM345 -220l9 171h76l-24 -171h-61z" />
    <glyph glyph-name="gcommaaccent" unicode="&#x123;" horiz-adv-x="637" 
d="M270 566l32 214h59l-15 -214h-76zM294 5q-102 0 -170 70.5t-68 176.5q0 105 68 175.5t170 70.5q73 0 132 -37v-72q-58 42 -123 42q-74 0 -121.5 -50.5t-47.5 -128.5q0 -79 47.5 -130t121.5 -51q66 0 123 43v-72q-59 -37 -132 -37zM316 -191q-135 0 -229 94l45 54
q88 -77 182 -77q76 0 119 42t43 121v444h77v-440q0 -111 -64.5 -174.5t-172.5 -63.5z" />
    <glyph glyph-name="Hcircumflex" unicode="&#x124;" horiz-adv-x="708" 
d="M354 832l-110 -108h-61l147 186h48l147 -186h-61zM91 0v660h78v-660h-78zM539 660h78v-660h-78v318h-321v70h321v272z" />
    <glyph glyph-name="hcircumflex" unicode="&#x125;" horiz-adv-x="566" 
d="M272 814l-110 108l-110 -108h-61l147 186h48l147 -186h-61zM85 0v750h77v-750h-77zM309 498q83 0 131 -53t48 -139v-306h-77v297q0 60 -32.5 95t-88.5 35q-41 0 -79 -20v66q42 25 98 25z" />
    <glyph glyph-name="Hbar" unicode="&#x126;" horiz-adv-x="719" 
d="M-4 460v66h99v134h78v-134h371v134h78v-134h100v-66h-726zM95 0v411h78v-411h-78zM544 0v254h-321v70h321v87h78v-411h-78z" />
    <glyph glyph-name="hbar" unicode="&#x127;" horiz-adv-x="571" 
d="M366 581h-200v-581h-77v581h-84v64h84v105h77v-105h200v-64zM314 484q83 0 131 -52.5t48 -138.5v-293h-77v284q0 59 -32.5 94t-88.5 35q-43 0 -79 -19v65q42 25 98 25z" />
    <glyph glyph-name="Itilde" unicode="&#x128;" horiz-adv-x="259" 
d="M210 742q-34 0 -73 24l-33 20q-32 20 -43 20q-30 0 -30 -38v-16h-64q-2 14 -2 25q0 43 23.5 72t63.5 29q34 0 70 -23l34 -22q31 -20 44 -20q29 0 29 37v18h65q1 -8 1 -26q0 -43 -23.5 -71.5t-61.5 -28.5zM91 0v660h78v-660h-78z" />
    <glyph glyph-name="itilde" unicode="&#x129;" horiz-adv-x="246" 
d="M189 596q-33 0 -65 30l-19 18q-23 23 -36 23q-28 0 -28 -41v-17h-63q-2 8 -2 24q0 45 22 75t62 30q36 0 65 -29l19 -19q23 -23 36 -23q26 0 26 41v17h63q2 -10 2 -24q0 -45 -22 -75t-60 -30zM162 487v-487h-77v487h77z" />
    <glyph glyph-name="Imacron" unicode="&#x12a;" horiz-adv-x="259" 
d="M-18 770v63h295v-63h-295zM91 0v660h78v-660h-78z" />
    <glyph glyph-name="imacron" unicode="&#x12b;" horiz-adv-x="246" 
d="M14 641v64h221v-64h-221zM162 487v-487h-77v487h77z" />
    <glyph glyph-name="Ibreve" unicode="&#x12c;" horiz-adv-x="259" 
d="M130 739q-66 0 -109 43.5t-43 109.5h65q0 -42 24.5 -67t62.5 -25t62.5 25t24.5 67h65q0 -66 -43 -109.5t-109 -43.5zM91 0v660h78v-660h-78z" />
    <glyph glyph-name="ibreve" unicode="&#x12d;" horiz-adv-x="246" 
d="M124 584q-66 0 -109 43.5t-43 108.5h65q0 -41 24.5 -66t62.5 -25t63 25t25 66h64q0 -65 -43 -108.5t-109 -43.5zM162 487v-487h-77v487h77z" />
    <glyph glyph-name="Iogonek" unicode="&#x12e;" horiz-adv-x="259" 
d="M120 -33q-20 -13 -28.5 -19t-16 -17t-7.5 -23q0 -37 48 -37q21 0 53 7v-58q-35 -11 -72 -11q-48 0 -77.5 24t-29.5 63q0 31 23 56.5t78 57.5v650h78v-660z" />
    <glyph glyph-name="iogonek" unicode="&#x12f;" horiz-adv-x="246" 
d="M124 729q23 0 40 -16.5t17 -39.5q0 -24 -16.5 -40t-40.5 -16t-41 16t-17 40q0 23 17 39.5t41 16.5zM85 10v477h77v-487l-49 -33q-20 -13 -28.5 -19t-16 -17t-7.5 -23q0 -37 48 -37q21 0 53 7v-58q-35 -11 -72 -11q-48 0 -77.5 24t-29.5 63q0 31 23 57t79 57z" />
    <glyph glyph-name="Idotaccent" unicode="&#x130;" horiz-adv-x="259" 
d="M130 754q-24 0 -41 16t-17 40q0 23 17 39.5t41 16.5q23 0 40 -16.5t17 -39.5q0 -24 -16.5 -40t-40.5 -16zM91 0v660h78v-660h-78z" />
    <glyph glyph-name="dotlessi" unicode="&#x131;" horiz-adv-x="246" 
d="M162 487v-487h-77v487h77z" />
    <glyph glyph-name="IJ" unicode="&#x132;" horiz-adv-x="632" 
d="M91 0v660h78v-660h-78zM542 660v-507q0 -83 -46.5 -123.5t-126.5 -40.5q-38 0 -86 11v67q41 -6 72 -6q53 0 81 21.5t28 77.5v500h78z" />
    <glyph glyph-name="ij" unicode="&#x133;" horiz-adv-x="492" 
d="M124 617q-24 0 -41 16t-17 40q0 23 17 39.5t41 16.5q23 0 40 -16.5t17 -39.5q0 -24 -16.5 -40t-40.5 -16zM370 617q-24 0 -41 16t-17 40q0 23 17 39.5t41 16.5q23 0 40 -16.5t17 -39.5q0 -24 -16.5 -40t-40.5 -16zM162 487v-487h-77v487h77zM408 487v-520
q0 -80 -43.5 -119t-116.5 -39q-33 0 -62 8v65q25 -3 45 -3q100 0 100 93v515h77z" />
    <glyph glyph-name="Jcircumflex" unicode="&#x134;" horiz-adv-x="373" 
d="M258 910l147 -186h-61l-110 108l-110 -108h-61l147 186h48zM205 160v500h78v-507q0 -83 -46.5 -123.5t-126.5 -40.5q-38 0 -86 11v67q41 -6 72 -6q53 0 81 21.5t28 77.5z" />
    <glyph glyph-name="jcircumflex" unicode="&#x135;" horiz-adv-x="246" 
d="M149 780l135 -214h-59l-100 127l-100 -127h-60l136 214h48zM85 -28v515h77v-520q0 -80 -43.5 -119t-116.5 -39q-33 0 -62 8v65q25 -3 45 -3q100 0 100 93z" />
    <glyph glyph-name="Kcommaaccent" unicode="&#x136;" horiz-adv-x="633" 
d="M91 0v660h78v-660h-78zM305 355l298 -355h-97l-299 354l272 306h96zM251 -220l9 171h76l-24 -171h-61z" />
    <glyph glyph-name="kcommaaccent" unicode="&#x137;" horiz-adv-x="506" 
d="M85 0v750h77v-750h-77zM287 270l206 -270h-95l-198 270l179 217h95zM209 -220l9 171h76l-24 -171h-61z" />
    <glyph glyph-name="Lacute" unicode="&#x139;" horiz-adv-x="506" 
d="M101 724l85 186h94v-14l-120 -172h-59zM169 660v-541h-78v541h78zM482 70v-70h-391v70h391z" />
    <glyph glyph-name="lacute" unicode="&#x13a;" horiz-adv-x="246" 
d="M95 814l85 186h94v-14l-120 -172h-59zM162 750v-750h-77v750h77z" />
    <glyph glyph-name="Lcommaaccent" unicode="&#x13b;" horiz-adv-x="506" 
d="M169 660v-541h-78v541h78zM482 70v-70h-391v70h391zM237 -220l9 171h76l-24 -171h-61z" />
    <glyph glyph-name="lcommaaccent" unicode="&#x13c;" horiz-adv-x="246" 
d="M162 750v-750h-77v750h77zM78 -220l9 171h76l-24 -171h-61z" />
    <glyph glyph-name="Lcaron" unicode="&#x13d;" horiz-adv-x="506" 
d="M364 509l13 211h83l-38 -211h-58zM169 660v-541h-78v541h78zM482 70v-70h-391v70h391z" />
    <glyph glyph-name="lcaron" unicode="&#x13e;" horiz-adv-x="364" 
d="M162 750v-750h-77v750h77zM258 539l13 211h83l-38 -211h-58z" />
    <glyph glyph-name="Ldot" unicode="&#x13f;" horiz-adv-x="506" 
d="M169 660v-541h-78v541h78zM383 432q26 0 44.5 -18t18.5 -45t-18.5 -45t-44.5 -18t-44.5 18t-18.5 45t18.5 45t44.5 18zM482 70v-70h-391v70h391z" />
    <glyph glyph-name="ldot" unicode="&#x140;" horiz-adv-x="247" 
d="M162 750v-750h-77v750h77zM279 377q26 0 44.5 -18t18.5 -45t-18.5 -45t-44.5 -18t-44.5 18t-18.5 45t18.5 45t44.5 18z" />
    <glyph glyph-name="Lslash" unicode="&#x141;" horiz-adv-x="506" 
d="M391 459v-73l-379 -167v73l79 35v333h78v-299zM169 70h313v-70h-391v198l78 35v-163z" />
    <glyph glyph-name="lslash" unicode="&#x142;" horiz-adv-x="360" 
d="M211 419l87 40v-74l-242 -111v73l78 36v367h77v-331zM134 0v250l77 35v-285h-77z" />
    <glyph glyph-name="Nacute" unicode="&#x143;" horiz-adv-x="708" 
d="M325 724l85 186h94v-14l-120 -172h-59zM589 -11l-498 601v81h28l498 -600v-82h-28zM617 150l-78 92v418h78v-510zM91 0v511l78 -94v-417h-78z" />
    <glyph glyph-name="nacute" unicode="&#x144;" horiz-adv-x="566" 
d="M253 566l85 214h94v-14l-120 -200h-59zM309 498q83 0 131 -53t48 -139v-306h-77v297q0 60 -32.5 95t-88.5 35q-41 0 -79 -20v66q42 25 98 25zM162 487v-487h-77v487h77z" />
    <glyph glyph-name="Ncommaaccent" unicode="&#x145;" horiz-adv-x="708" 
d="M589 -11l-498 601v81h28l498 -600v-82h-28zM617 150l-78 92v418h78v-510zM91 0v511l78 -94v-417h-78zM308 -220l9 171h76l-24 -171h-61z" />
    <glyph glyph-name="ncommaaccent" unicode="&#x146;" horiz-adv-x="566" 
d="M309 498q83 0 131 -53t48 -139v-306h-77v297q0 60 -32.5 95t-88.5 35q-41 0 -79 -20v66q42 25 98 25zM162 487v-487h-77v487h77zM245 -220l9 171h76l-24 -171h-61z" />
    <glyph glyph-name="Ncaron" unicode="&#x147;" horiz-adv-x="708" 
d="M378 724h-48l-147 186h61l110 -107l110 107h61zM91 671h28l498 -600v-82h-28l-498 601v81zM539 660h78v-510l-78 92v418zM91 0v511l78 -94v-417h-78z" />
    <glyph glyph-name="ncaron" unicode="&#x148;" horiz-adv-x="566" 
d="M307 566h-48l-136 214h60l100 -127l100 127h59zM309 498q83 0 131 -53t48 -139v-306h-77v297q0 60 -32.5 95t-88.5 35q-41 0 -79 -20v66q42 25 98 25zM85 0v487h77v-487h-77z" />
    <glyph glyph-name="Eng" unicode="&#x14a;" horiz-adv-x="708" 
d="M119 671l498 -641v-63q0 -80 -43 -119t-118 -39q-31 0 -60 8v65q24 -3 45 -3q48 0 73 21t25 71v35l-448 581v84h28zM617 660v-568l-78 100v468h78zM91 525l78 -93v-432h-78v525z" />
    <glyph glyph-name="eng" unicode="&#x14b;" horiz-adv-x="566" 
d="M309 498q83 0 131 -53t48 -139v-339q0 -80 -43.5 -119t-116.5 -39q-35 0 -62 8v65q24 -3 46 -3q48 0 73.5 21t25.5 72v325q0 58 -32.5 94t-88.5 36q-41 0 -79 -20v66q42 25 98 25zM162 487v-487h-77v487h77z" />
    <glyph glyph-name="Omacron" unicode="&#x14c;" horiz-adv-x="781" 
d="M243 770v63h295v-63h-295zM390 671q144 0 243.5 -98.5t99.5 -245.5q0 -130 -80 -215v215q0 117 -75.5 194.5t-186.5 77.5q-64 0 -119 -26.5t-93 -67.5v92q87 74 211 74zM129 548v-215q0 -116 75 -194t186 -78q63 0 118.5 26.5t94.5 67.5v-92q-88 -74 -212 -74
q-144 0 -243.5 98.5t-99.5 245.5q0 129 81 215z" />
    <glyph glyph-name="omacron" unicode="&#x14d;" horiz-adv-x="610" 
d="M168 642v62h275v-62h-275zM305 498q107 0 181 -74t74 -182q0 -113 -79 -180v180q0 80 -50.5 132.5t-126.5 52.5q-68 0 -125 -43v79q55 35 126 35zM129 425v-180q0 -80 51 -132.5t127 -52.5q65 0 125 42v-78q-54 -35 -126 -35q-107 0 -181.5 74t-74.5 182q0 111 79 180z
" />
    <glyph glyph-name="Obreve" unicode="&#x14e;" horiz-adv-x="781" 
d="M391 739q-66 0 -109 43.5t-43 109.5h65q0 -42 24.5 -67t62.5 -25t62.5 25t24.5 67h65q0 -66 -43 -109.5t-109 -43.5zM390 671q144 0 243.5 -98.5t99.5 -245.5q0 -130 -80 -215v215q0 117 -75.5 194.5t-186.5 77.5q-64 0 -119 -26.5t-93 -67.5v92q87 74 211 74zM129 548
v-215q0 -116 75 -194t186 -78q63 0 118.5 26.5t94.5 67.5v-92q-88 -74 -212 -74q-144 0 -243.5 98.5t-99.5 245.5q0 129 81 215z" />
    <glyph glyph-name="obreve" unicode="&#x14f;" horiz-adv-x="610" 
d="M306 584q-66 0 -109 43.5t-43 108.5h65q0 -41 24.5 -66t62.5 -25t63 25t25 66h64q0 -65 -43 -108.5t-109 -43.5zM305 498q107 0 181 -74t74 -182q0 -113 -79 -180v180q0 80 -50.5 132.5t-126.5 52.5q-68 0 -125 -43v79q55 35 126 35zM129 425v-180q0 -80 51 -132.5
t127 -52.5q65 0 125 42v-78q-54 -35 -126 -35q-107 0 -181.5 74t-74.5 182q0 111 79 180z" />
    <glyph glyph-name="Ohungarumlaut" unicode="&#x150;" horiz-adv-x="781" 
d="M265 724l85 186h83v-14l-113 -172h-55zM447 724l85 186h83v-14l-112 -172h-56zM390 671q144 0 243.5 -98.5t99.5 -245.5q0 -130 -80 -215v215q0 117 -75.5 194.5t-186.5 77.5q-64 0 -119 -26.5t-93 -67.5v92q87 74 211 74zM129 548v-215q0 -116 75 -194t186 -78
q63 0 118.5 26.5t94.5 67.5v-92q-88 -74 -212 -74q-144 0 -243.5 98.5t-99.5 245.5q0 129 81 215z" />
    <glyph glyph-name="ohungarumlaut" unicode="&#x151;" horiz-adv-x="610" 
d="M196 566l85 214h83v-14l-113 -200h-55zM358 566l85 214h83v-14l-112 -200h-56zM305 498q107 0 181 -74t74 -182q0 -113 -79 -180v180q0 80 -50.5 132.5t-126.5 52.5q-68 0 -125 -43v79q55 35 126 35zM129 425v-180q0 -80 51 -132.5t127 -52.5q65 0 125 42v-78
q-54 -35 -126 -35q-107 0 -181.5 74t-74.5 182q0 111 79 180z" />
    <glyph glyph-name="OE" unicode="&#x152;" horiz-adv-x="1127" 
d="M389 -11q-144 0 -242.5 98.5t-98.5 242.5t98.5 242.5t242.5 98.5q129 0 214 -79v-84q-39 39 -94.5 65t-117.5 26q-113 0 -187.5 -77t-74.5 -192t74.5 -192t187.5 -77q62 0 118 26t94 66v-85q-85 -79 -214 -79zM652 0v660h423v-70h-345v-520h357v-70h-435zM779 320v66h215
v-66h-215z" />
    <glyph glyph-name="oe" unicode="&#x153;" horiz-adv-x="981" 
d="M719 60q84 0 147 65l47 -51q-80 -85 -195 -85q-104 0 -175.5 72t-71.5 181q0 81 -46 133t-120 52q-75 0 -125.5 -53t-50.5 -131q0 -77 50.5 -130t124.5 -53q78 0 131 65l43 -57q-66 -79 -175 -79q-105 0 -179 74.5t-74 180.5t74.5 180t181.5 74q104 0 172 -72t68 -179
q0 -85 47.5 -136t125.5 -51zM712 497q92 0 155.5 -62t63.5 -158q0 -31 -6 -58h-331v68h258q-1 65 -42.5 102.5t-101.5 37.5q-71 0 -125 -56l-35 59q70 67 164 67z" />
    <glyph glyph-name="Racute" unicode="&#x154;" horiz-adv-x="622" 
d="M236 724l85 186h94v-14l-120 -172h-59zM91 0v660h232q96 0 153.5 -53.5t57.5 -137.5q0 -85 -57.5 -138.5t-153.5 -53.5h-105v70h104q63 0 97 33.5t34 87.5t-34.5 88t-96.5 34h-153v-590h-78zM515 0l-168 227l81 14l178 -241h-91z" />
    <glyph glyph-name="racute" unicode="&#x155;" horiz-adv-x="326" 
d="M136 566l85 214h94v-14l-120 -200h-59zM263 498q22 0 37 -15.5t15 -37.5t-15 -37.5t-37 -15.5t-37 15.5t-15 37.5t15 37.5t37 15.5zM162 487v-487h-77v487h77z" />
    <glyph glyph-name="Rcommaaccent" unicode="&#x156;" horiz-adv-x="622" 
d="M91 0v660h232q96 0 153.5 -53.5t57.5 -137.5q0 -85 -57.5 -138.5t-153.5 -53.5h-105v70h104q63 0 97 33.5t34 87.5t-34.5 88t-96.5 34h-153v-590h-78zM515 0l-168 227l81 14l178 -241h-91zM259 -220l9 171h76l-24 -171h-61z" />
    <glyph glyph-name="rcommaaccent" unicode="&#x157;" horiz-adv-x="326" 
d="M263 498q22 0 37 -15.5t15 -37.5t-15 -37.5t-37 -15.5t-37 15.5t-15 37.5t15 37.5t37 15.5zM162 487v-487h-77v487h77zM78 -220l9 171h76l-24 -171h-61z" />
    <glyph glyph-name="Rcaron" unicode="&#x158;" horiz-adv-x="622" 
d="M289 724h-48l-147 186h61l110 -107l110 107h61zM534 469q0 -85 -57.5 -138.5t-153.5 -53.5h-105v70h104q63 0 97 33.5t34 87.5t-34.5 88t-96.5 34h-153v-590h-78v660h232q96 0 153.5 -53.5t57.5 -137.5zM428 241l178 -241h-91l-168 227z" />
    <glyph glyph-name="rcaron" unicode="&#x159;" horiz-adv-x="326" 
d="M266 780h59l-135 -214h-48l-136 214h60l100 -127zM263 498q22 0 37 -15.5t15 -37.5t-15 -37.5t-37 -15.5t-37 15.5t-15 37.5t15 37.5t37 15.5zM85 0v487h77v-487h-77z" />
    <glyph glyph-name="Sacute" unicode="&#x15a;" horiz-adv-x="558" 
d="M253 724l85 186h94v-14l-120 -172h-59zM432 516q-55 83 -149 83q-38 0 -70 -13v74q35 11 72 11q64 0 118.5 -31t85.5 -81zM416 26v135q0 26 -7 45t-24.5 33.5t-33 24t-45.5 23.5l-74 35q-70 34 -109.5 73.5t-39.5 102.5q0 90 81 139v-124q0 -25 7 -43.5t24.5 -33
t31.5 -22.5t43 -22l73 -35q78 -37 116 -79t38 -105q0 -95 -81 -147zM282 -11q-76 0 -139 38t-102 104l58 43q74 -113 184 -113q41 0 84 15v-73q-40 -14 -85 -14z" />
    <glyph glyph-name="sacute" unicode="&#x15b;" horiz-adv-x="454" 
d="M204 566l85 214h94v-14l-120 -200h-59zM348 373q-51 54 -119 54q-12 0 -34 -4v69q19 6 43 6q96 0 157 -77zM321 9v110q0 35 -20 52.5t-65 35.5l-47 20q-61 25 -91 56t-30 80q0 41 21 71t57 44v-92q0 -38 17.5 -55t62.5 -36l45 -19q70 -30 99.5 -62t29.5 -82
q0 -86 -79 -123zM225 -11q-58 0 -106 26.5t-80 68.5l49 51q70 -75 140 -75q22 0 45 5v-69q-21 -7 -48 -7z" />
    <glyph glyph-name="Scircumflex" unicode="&#x15c;" horiz-adv-x="558" 
d="M282 832l-110 -108h-61l147 186h48l147 -186h-61zM213 660q35 11 72 11q64 0 118.5 -31t85.5 -81l-57 -43q-55 83 -149 83q-38 0 -70 -13v74zM343 357q78 -37 116 -79t38 -105q0 -95 -81 -147v135q0 26 -7 45t-24.5 33.5t-33 24t-45.5 23.5l-74 35q-70 34 -109.5 73.5
t-39.5 102.5q0 90 81 139v-124q0 -25 7 -43.5t24.5 -33t31.5 -22.5t43 -22zM99 174q74 -113 184 -113q41 0 84 15v-73q-40 -14 -85 -14q-76 0 -139 38t-102 104z" />
    <glyph glyph-name="scircumflex" unicode="&#x15d;" horiz-adv-x="454" 
d="M234 693l-100 -127h-60l136 214h48l135 -214h-59zM238 498q96 0 157 -77l-47 -48q-51 54 -119 54q-12 0 -34 -4v69q19 6 43 6zM271 276q70 -30 99.5 -62t29.5 -82q0 -86 -79 -123v110q0 35 -20 52.5t-65 35.5l-47 20q-61 25 -91 56t-30 80q0 41 21 71t57 44v-92
q0 -38 17.5 -55t62.5 -36zM88 135q70 -75 140 -75q22 0 45 5v-69q-21 -7 -48 -7q-58 0 -106 26.5t-80 68.5z" />
    <glyph glyph-name="Scedilla" unicode="&#x15e;" horiz-adv-x="558" 
d="M432 516q-55 83 -149 83q-38 0 -70 -13v74q35 11 72 11q64 0 118.5 -31t85.5 -81zM416 26v135q0 26 -7 45t-24.5 33.5t-33 24t-45.5 23.5l-74 35q-70 34 -109.5 73.5t-39.5 102.5q0 90 81 139v-124q0 -25 7 -43.5t24.5 -33t31.5 -22.5t43 -22l73 -35q78 -37 116 -79
t38 -105q0 -95 -81 -147zM282 -11q-76 0 -139 38t-102 104l58 43q74 -113 184 -113q41 0 84 15v-73q-40 -14 -85 -14zM219 -191q-34 0 -69 10v55q31 -4 55 -4q35 0 57 15t22 42q0 11 -1 19h64q3 -8 3 -23q0 -48 -35.5 -81t-95.5 -33z" />
    <glyph glyph-name="scedilla" unicode="&#x15f;" horiz-adv-x="454" 
d="M348 373q-51 54 -119 54q-12 0 -34 -4v69q19 6 43 6q96 0 157 -77zM321 9v110q0 35 -20 52.5t-65 35.5l-47 20q-61 25 -91 56t-30 80q0 41 21 71t57 44v-92q0 -38 17.5 -55t62.5 -36l45 -19q70 -30 99.5 -62t29.5 -82q0 -86 -79 -123zM225 -11q-58 0 -106 26.5t-80 68.5
l49 51q70 -75 140 -75q22 0 45 5v-69q-21 -7 -48 -7zM175 -191q-34 0 -69 10v55q31 -4 55 -4q35 0 57 15t22 42q0 11 -1 19h64q3 -8 3 -23q0 -48 -35.5 -81t-95.5 -33z" />
    <glyph glyph-name="Scaron" unicode="&#x160;" horiz-adv-x="558" 
d="M306 724h-48l-147 186h61l110 -107l110 107h61zM213 660q35 11 72 11q64 0 118.5 -31t85.5 -81l-57 -43q-55 83 -149 83q-38 0 -70 -13v74zM343 357q78 -37 116 -79t38 -105q0 -95 -81 -147v135q0 26 -7 45t-24.5 33.5t-33 24t-45.5 23.5l-74 35q-70 34 -109.5 73.5
t-39.5 102.5q0 90 81 139v-124q0 -25 7 -43.5t24.5 -33t31.5 -22.5t43 -22zM99 174q74 -113 184 -113q41 0 84 15v-73q-40 -14 -85 -14q-76 0 -139 38t-102 104z" />
    <glyph glyph-name="scaron" unicode="&#x161;" horiz-adv-x="454" 
d="M258 566h-48l-136 214h60l100 -127l100 127h59zM238 498q96 0 157 -77l-47 -48q-51 54 -119 54q-12 0 -34 -4v69q19 6 43 6zM271 276q70 -30 99.5 -62t29.5 -82q0 -86 -79 -123v110q0 35 -20 52.5t-65 35.5l-47 20q-61 25 -91 56t-30 80q0 41 21 71t57 44v-92
q0 -38 17.5 -55t62.5 -36zM88 135q70 -75 140 -75q22 0 45 5v-69q-21 -7 -48 -7q-58 0 -106 26.5t-80 68.5z" />
    <glyph glyph-name="uni0162" unicode="&#x162;" horiz-adv-x="581" 
d="M19 590v70h543v-70h-543zM251 0v541h78v-541h-78zM230 -191q-34 0 -69 10v55q31 -4 55 -4q35 0 57 15t22 42q0 11 -1 19h64q3 -8 3 -23q0 -48 -35.5 -81t-95.5 -33z" />
    <glyph glyph-name="uni0163" unicode="&#x163;" horiz-adv-x="381" 
d="M183 620v-133h152v-69h-311v69h82v133h77zM183 369v-217q0 -52 26.5 -72.5t76.5 -20.5q28 0 65 6v-65q-44 -11 -82 -11q-75 0 -119 39t-44 119v222h77zM154 -191q-34 0 -69 10v55q31 -4 55 -4q35 0 57 15t22 42q0 11 -1 19h64q3 -8 3 -23q0 -48 -35.5 -81t-95.5 -33z" />
    <glyph glyph-name="Tcaron" unicode="&#x164;" horiz-adv-x="581" 
d="M317 724h-48l-147 186h61l110 -107l110 107h61zM19 660h543v-70h-543v70zM251 0v541h78v-541h-78z" />
    <glyph glyph-name="tcaron" unicode="&#x165;" horiz-adv-x="381" 
d="M280 539l13 211h83l-38 -211h-58zM183 620v-133h152v-69h-311v69h82v133h77zM183 369v-217q0 -52 26.5 -72.5t76.5 -20.5q28 0 65 6v-65q-44 -11 -82 -11q-75 0 -119 39t-44 119v222h77z" />
    <glyph glyph-name="Tbar" unicode="&#x166;" horiz-adv-x="581" 
d="M19 660h543v-70h-543v70zM329 541v-215h196v-66h-469v66h195v215h78zM251 0v211h78v-211h-78z" />
    <glyph glyph-name="tbar" unicode="&#x167;" horiz-adv-x="394" 
d="M344 487v-67h-311v67h83v133h77v-133h151zM293 59q29 0 67 6v-65q-44 -11 -81 -11q-75 0 -119 39t-44 119v72h-83v66h311v-66h-151v-67q0 -93 100 -93z" />
    <glyph glyph-name="Utilde" unicode="&#x168;" horiz-adv-x="689" 
d="M424 742q-34 0 -73 24l-33 20q-32 20 -43 20q-30 0 -30 -38v-16h-64q-2 14 -2 25q0 43 23.5 72t63.5 29q34 0 70 -23l34 -22q31 -20 44 -20q29 0 29 37v18h65q1 -8 1 -26q0 -43 -23.5 -71.5t-61.5 -28.5zM345 -11q-119 0 -191 74t-72 199v398h78v-403q0 -92 50.5 -144
t134.5 -52q70 0 134 41v-79q-53 -34 -134 -34zM528 60v600h78v-398q0 -132 -78 -202z" />
    <glyph glyph-name="utilde" unicode="&#x169;" 
d="M353 596q-37 0 -68 26l-26 22q-28 23 -42 23q-28 0 -28 -41v-17h-64q-1 9 -1 25q0 46 23 75t62 29q37 0 68 -26l26 -22q26 -23 42 -23q28 0 28 41v17h64q1 -9 1 -25q0 -45 -23 -74.5t-62 -29.5zM281 -11q-87 0 -144.5 56.5t-57.5 148.5v293h77v-298q0 -59 35.5 -93.5
t90.5 -34.5q40 0 75 19v-74q-36 -17 -76 -17zM405 34v453h77v-293q0 -111 -77 -160z" />
    <glyph glyph-name="Umacron" unicode="&#x16a;" horiz-adv-x="689" 
d="M196 770v63h295v-63h-295zM345 -11q-119 0 -191 74t-72 199v398h78v-403q0 -92 50.5 -144t134.5 -52q70 0 134 41v-79q-53 -34 -134 -34zM528 60v600h78v-398q0 -132 -78 -202z" />
    <glyph glyph-name="umacron" unicode="&#x16b;" 
d="M143 642v62h275v-62h-275zM281 -11q-87 0 -144.5 56.5t-57.5 148.5v293h77v-298q0 -59 35.5 -93.5t90.5 -34.5q40 0 75 19v-74q-36 -17 -76 -17zM405 34v453h77v-293q0 -111 -77 -160z" />
    <glyph glyph-name="Ubreve" unicode="&#x16c;" horiz-adv-x="689" 
d="M344 739q-66 0 -109 43.5t-43 109.5h65q0 -42 24.5 -67t62.5 -25t62.5 25t24.5 67h65q0 -66 -43 -109.5t-109 -43.5zM345 -11q-119 0 -191 74t-72 199v398h78v-403q0 -92 50.5 -144t134.5 -52q70 0 134 41v-79q-53 -34 -134 -34zM528 60v600h78v-398q0 -132 -78 -202z
" />
    <glyph glyph-name="ubreve" unicode="&#x16d;" 
d="M281 584q-66 0 -109 43.5t-43 108.5h65q0 -41 24.5 -66t62.5 -25t63 25t25 66h64q0 -65 -43 -108.5t-109 -43.5zM281 -11q-87 0 -144.5 56.5t-57.5 148.5v293h77v-298q0 -59 35.5 -93.5t90.5 -34.5q40 0 75 19v-74q-36 -17 -76 -17zM405 34v453h77v-293q0 -111 -77 -160z
" />
    <glyph glyph-name="Uring" unicode="&#x16e;" horiz-adv-x="689" 
d="M320 700q-37 7 -61.5 37t-24.5 68q0 46 32 77.5t78 31.5q48 0 80 -31.5t32 -77.5q0 -38 -24.5 -68t-61.5 -37v61q25 15 25 44q0 22 -14.5 37t-35.5 15t-35.5 -15t-14.5 -37q0 -29 25 -44v-61zM345 -11q-119 0 -191 74t-72 199v398h78v-403q0 -92 50.5 -144t134.5 -52
q70 0 134 41v-79q-53 -34 -134 -34zM528 60v600h78v-398q0 -132 -78 -202z" />
    <glyph glyph-name="uring" unicode="&#x16f;" 
d="M257 562q-38 8 -62 37.5t-24 68.5q0 46 31.5 77t78.5 31q48 0 80 -31t32 -77q0 -39 -24 -68.5t-62 -37.5v62q25 13 25 44q0 22 -14.5 37t-35.5 15t-35.5 -15t-14.5 -37q0 -31 25 -44v-62zM281 -11q-87 0 -144.5 56.5t-57.5 148.5v293h77v-298q0 -59 35.5 -93.5
t90.5 -34.5q40 0 75 19v-74q-36 -17 -76 -17zM405 34v453h77v-293q0 -111 -77 -160z" />
    <glyph glyph-name="Uhungarumlaut" unicode="&#x170;" horiz-adv-x="689" 
d="M218 724l85 186h83v-14l-113 -172h-55zM400 724l85 186h83v-14l-112 -172h-56zM345 -11q-119 0 -191 74t-72 199v398h78v-403q0 -92 50.5 -144t134.5 -52q70 0 134 41v-79q-53 -34 -134 -34zM528 60v600h78v-398q0 -132 -78 -202z" />
    <glyph glyph-name="uhungarumlaut" unicode="&#x171;" 
d="M171 566l85 214h83v-14l-113 -200h-55zM333 566l85 214h83v-14l-112 -200h-56zM281 -11q-87 0 -144.5 56.5t-57.5 148.5v293h77v-298q0 -59 35.5 -93.5t90.5 -34.5q40 0 75 19v-74q-36 -17 -76 -17zM405 34v453h77v-293q0 -111 -77 -160z" />
    <glyph glyph-name="Uogonek" unicode="&#x172;" horiz-adv-x="689" 
d="M382 -91q0 -19 14.5 -30t38.5 -11q21 0 52 7v-53q-41 -13 -72 -13q-46 0 -76.5 23.5t-30.5 64.5q0 26 14 46t45 47q-8 -1 -25 -1q-116 0 -188 74.5t-72 198.5v398h78v-403q0 -92 50.5 -144t135.5 -52q72 0 133 41v-78l-55 -52q-42 -39 -42 -63zM528 660h78v-398
q0 -132 -78 -202v600z" />
    <glyph glyph-name="uogonek" unicode="&#x173;" 
d="M290 -88q0 -44 53 -44q21 0 52 7v-53q-39 -13 -73 -13q-48 0 -76.5 22.5t-28.5 62.5q0 48 51 95q-79 2 -134 58.5t-55 146.5v293h77v-298q0 -59 35.5 -93.5t90.5 -34.5q40 0 75 19v-73l-32 -31q-35 -34 -35 -64zM405 487h77v-293q0 -111 -77 -160v453z" />
    <glyph glyph-name="Wcircumflex" unicode="&#x174;" horiz-adv-x="1066" 
d="M533 832l-110 -108h-61l147 186h48l147 -186h-61zM519 671h28l247 -618l-23 -64h-29l-209 523l-154 -386l-37 102zM45 660h86l221 -603l-28 -68h-28zM935 660h85l-200 -537l-42 103z" />
    <glyph glyph-name="wcircumflex" unicode="&#x175;" horiz-adv-x="851" 
d="M427 693l-100 -127h-60l136 214h48l135 -214h-59zM411 498h29l203 -449l-24 -60h-28l-166 368l-111 -247l-35 86zM26 487h82l178 -439l-26 -59h-27zM742 487h82l-155 -376l-39 86z" />
    <glyph glyph-name="Ycircumflex" unicode="&#x176;" horiz-adv-x="616" 
d="M308 832l-110 -108h-61l147 186h48l147 -186h-61zM40 660h88l219 -370v-290h-78v274zM489 660h87l-199 -327l-41 71z" />
    <glyph glyph-name="ycircumflex" unicode="&#x177;" horiz-adv-x="539" 
d="M270 693l-100 -127h-60l136 214h48l135 -214h-59zM241 176l-41 -96l-174 407h83zM431 487h82l-239 -554q-54 -124 -166 -124q-35 0 -75 10v65q38 -5 60 -5q38 0 64.5 17t44.5 61z" />
    <glyph glyph-name="Ydieresis" unicode="&#x178;" horiz-adv-x="616" 
d="M191 757q-22 0 -38.5 15.5t-16.5 37.5t16.5 37.5t38.5 15.5q23 0 39 -15.5t16 -37.5t-16 -37.5t-39 -15.5zM424 756q-22 0 -38.5 15.5t-16.5 37.5t16.5 38t38.5 16q23 0 39 -16t16 -38t-16 -37.5t-39 -15.5zM128 660l219 -370v-290h-78v274l-229 386h88zM576 660
l-199 -327l-41 71l153 256h87z" />
    <glyph glyph-name="Zacute" unicode="&#x179;" horiz-adv-x="589" 
d="M269 724l85 186h94v-14l-120 -172h-59zM32 0v23l449 637h73v-23l-449 -637h-73zM75 590v70h345l-46 -70h-299zM166 0l47 70h342v-70h-389z" />
    <glyph glyph-name="zacute" unicode="&#x17a;" horiz-adv-x="454" 
d="M207 566l85 214h94v-14l-120 -200h-59zM424 487v-23l-327 -464h-70v23l326 464h71zM293 487l-49 -69h-194v69h243zM427 68v-68h-270l48 68h222z" />
    <glyph glyph-name="Zdotaccent" unicode="&#x17b;" horiz-adv-x="589" 
d="M298 754q-24 0 -41 16t-17 40q0 23 17 39.5t41 16.5q23 0 40 -16.5t17 -39.5q0 -24 -16.5 -40t-40.5 -16zM32 0v23l449 637h73v-23l-449 -637h-73zM75 590v70h345l-46 -70h-299zM166 0l47 70h342v-70h-389z" />
    <glyph glyph-name="zdotaccent" unicode="&#x17c;" horiz-adv-x="454" 
d="M236 617q-24 0 -41 16t-17 40q0 23 17 39.5t41 16.5q23 0 40 -16.5t17 -39.5q0 -24 -16.5 -40t-40.5 -16zM424 487v-23l-327 -464h-70v23l326 464h71zM293 487l-49 -69h-194v69h243zM427 68v-68h-270l48 68h222z" />
    <glyph glyph-name="Zcaron" unicode="&#x17d;" horiz-adv-x="589" 
d="M322 724h-48l-147 186h61l110 -107l110 107h61zM554 660v-23l-449 -637h-73v23l449 637h73zM420 660l-46 -70h-299v70h345zM213 70h342v-70h-389z" />
    <glyph glyph-name="zcaron" unicode="&#x17e;" horiz-adv-x="454" 
d="M261 566h-48l-136 214h60l100 -127l100 127h59zM424 487v-23l-327 -464h-70v23l326 464h71zM293 487l-49 -69h-194v69h243zM205 68h222v-68h-270z" />
    <glyph glyph-name="uni018F" unicode="&#x18f;" horiz-adv-x="731" 
d="M683 328q0 -129 -80 -217v218q0 117 -72.5 193t-180.5 76q-65 0 -121 -29t-94 -81l-55 45q46 64 116.5 101t153.5 37q141 0 237 -99.5t96 -243.5zM349 61q121 0 206 94v-92q-87 -74 -207 -74q-127 0 -213.5 82t-86.5 216q0 35 6 65h496v-67h-424q-4 -102 62 -163t161 -61
z" />
    <glyph glyph-name="florin" unicode="&#x192;" horiz-adv-x="443" 
d="M379 671q32 0 58 -8v-64q-34 2 -44 2q-48 0 -73 -21t-31 -72l-13 -109h104v-69h-267v69h86l14 114q19 158 166 158zM154 30l31 252h77l-32 -258q-20 -157 -167 -157q-28 0 -58 7v65q25 -3 44 -3q47 0 72.5 21.5t32.5 72.5z" />
    <glyph glyph-name="uni01D4" unicode="&#x1d4;" 
d="M306 566h-48l-136 214h60l100 -127l100 127h59zM156 189q0 -59 35.5 -93.5t90.5 -34.5q40 0 75 19v-74q-36 -17 -76 -17q-87 0 -144.5 56.5t-57.5 148.5v293h77v-298zM405 487h77v-293q0 -111 -77 -160v453z" />
    <glyph glyph-name="AEacute" unicode="&#x1fc;" horiz-adv-x="821" 
d="M553 896l-120 -172h-59l85 186h94v-14zM535 70h246v-70h-314l-112 660h414v-70h-322zM383 204l12 -70h-228l-70 -134h-84l305 586l21 -120l-136 -262h180zM689 318h-146l-11 70h157v-70z" />
    <glyph glyph-name="aeacute" unicode="&#x1fd;" horiz-adv-x="895" 
d="M580 766l-120 -200h-59l85 214h94v-14zM632 60q82 0 147 65l46 -51q-76 -85 -192 -85q-106 0 -180.5 71.5t-74.5 179.5v64q0 59 -33 91t-90 32q-82 0 -142 -78l-51 42q67 107 198 107q88 0 140.5 -51t52.5 -143v-60q0 -81 50 -132.5t129 -51.5zM624 498q94 0 157 -62
t63 -159q0 -43 -7 -66h-336v63h263q4 71 -38 112.5t-106 41.5q-75 0 -124 -54l-35 59q68 65 163 65zM229 54q73 0 126 60l36 -49q-61 -76 -174 -76q-77 0 -125 38.5t-48 103.5t49.5 104t129.5 39h106v-63h-100q-106 0 -106 -75q0 -42 31.5 -62t74.5 -20z" />
    <glyph glyph-name="Oslashacute" unicode="&#x1fe;" horiz-adv-x="782" 
d="M541 896l-120 -172h-59l85 186h94v-14zM739 631l-84 -84q78 -96 78 -218q0 -143 -100.5 -241.5t-243.5 -98.5q-97 0 -173 48l51 52q62 -31 124 -31q112 0 188 78t76 194q0 94 -53 164l-512 -513l-48 48l84 84q-78 96 -78 218q0 143 100.5 241.5t243.5 98.5q97 0 174 -48
l-52 -52q-62 31 -124 31q-112 0 -188 -78t-76 -194q0 -94 53 -164l512 513z" />
    <glyph glyph-name="oslashacute" unicode="&#x1ff;" horiz-adv-x="621" 
d="M461 766l-120 -200h-59l85 214h94v-14zM572 458l-60 -60q53 -67 53 -155q0 -106 -72 -180t-176 -74q-59 0 -115 27l50 52q39 -13 69 -13q69 0 119.5 53.5t50.5 131.5q0 61 -30 107l-364 -366l-48 48l60 60q-53 65 -53 155q0 106 71.5 180t175.5 74q61 0 116 -28l-51 -51
q-34 12 -68 12q-69 0 -119.5 -53t-50.5 -131q0 -60 29 -108l365 365z" />
    <glyph glyph-name="Scommaaccent" unicode="&#x218;" horiz-adv-x="558" 
d="M432 516q-55 83 -149 83q-38 0 -70 -13v74q35 11 72 11q64 0 118.5 -31t85.5 -81zM416 26v135q0 26 -7 45t-24.5 33.5t-33 24t-45.5 23.5l-74 35q-70 34 -109.5 73.5t-39.5 102.5q0 90 81 139v-124q0 -25 7 -43.5t24.5 -33t31.5 -22.5t43 -22l73 -35q78 -37 116 -79
t38 -105q0 -95 -81 -147zM282 -11q-76 0 -139 38t-102 104l58 43q74 -113 184 -113q41 0 84 15v-73q-40 -14 -85 -14zM236 -220l9 171h76l-24 -171h-61z" />
    <glyph glyph-name="scommaaccent" unicode="&#x219;" horiz-adv-x="454" 
d="M348 373q-51 54 -119 54q-12 0 -34 -4v69q19 6 43 6q96 0 157 -77zM321 9v110q0 35 -20 52.5t-65 35.5l-47 20q-61 25 -91 56t-30 80q0 41 21 71t57 44v-92q0 -38 17.5 -55t62.5 -36l45 -19q70 -30 99.5 -62t29.5 -82q0 -86 -79 -123zM225 -11q-58 0 -106 26.5t-80 68.5
l49 51q70 -75 140 -75q22 0 45 5v-69q-21 -7 -48 -7zM192 -220l9 171h76l-24 -171h-61z" />
    <glyph glyph-name="uni021A" unicode="&#x21a;" horiz-adv-x="581" 
d="M19 590v70h543v-70h-543zM251 0v541h78v-541h-78zM247 -220l9 171h76l-24 -171h-61z" />
    <glyph glyph-name="uni021B" unicode="&#x21b;" horiz-adv-x="381" 
d="M183 620v-133h152v-69h-311v69h82v133h77zM183 369v-217q0 -52 26.5 -72.5t76.5 -20.5q28 0 65 6v-65q-44 -11 -82 -11q-75 0 -119 39t-44 119v222h77zM171 -220l9 171h76l-24 -171h-61z" />
    <glyph glyph-name="uni0237" unicode="&#x237;" horiz-adv-x="246" 
d="M162 487v-520q0 -80 -43.5 -119t-116.5 -39q-33 0 -62 8v65q25 -3 45 -3q100 0 100 93v515h77z" />
    <glyph glyph-name="uni0259" unicode="&#x259;" horiz-adv-x="571" 
d="M272 498q106 0 177.5 -73t71.5 -180t-72 -181.5t-177 -74.5q-94 0 -158 62t-64 158q0 28 6 58h334v-68h-261q1 -65 42.5 -103t102.5 -38q73 0 120.5 52t47.5 134t-48 132.5t-124 50.5q-81 0 -147 -66l-45 52q80 85 194 85z" />
    <glyph glyph-name="circumflex" unicode="&#x2c6;" horiz-adv-x="379" 
d="M349 566h-59l-100 127l-100 -127h-60l136 214h48z" />
    <glyph glyph-name="caron" unicode="&#x2c7;" horiz-adv-x="379" 
d="M290 780h59l-135 -214h-48l-136 214h60l100 -127z" />
    <glyph glyph-name="breve" unicode="&#x2d8;" horiz-adv-x="364" 
d="M182 584q-66 0 -109 43.5t-43 108.5h65q0 -41 24.5 -66t62.5 -25t63 25t25 66h64q0 -65 -43 -108.5t-109 -43.5z" />
    <glyph glyph-name="dotaccent" unicode="&#x2d9;" horiz-adv-x="175" 
d="M88 617q-24 0 -41 16t-17 40q0 23 17 39.5t41 16.5q23 0 40 -16.5t17 -39.5q0 -24 -16.5 -40t-40.5 -16z" />
    <glyph glyph-name="ring" unicode="&#x2da;" horiz-adv-x="282" 
d="M116 562q-38 8 -62 37.5t-24 68.5q0 46 31.5 77t78.5 31q48 0 80 -31t32 -77q0 -39 -24 -68.5t-62 -37.5v62q25 13 25 44q0 22 -14.5 37t-35.5 15t-35.5 -15t-14.5 -37q0 -31 25 -44v-62z" />
    <glyph glyph-name="ogonek" unicode="&#x2db;" horiz-adv-x="239" 
d="M131 -191q-48 0 -77.5 24t-29.5 63q0 37 33 67t116 72l30 -35l-49 -33q-20 -13 -28.5 -19t-16 -17t-7.5 -23q0 -37 48 -37q22 0 53 7v-58q-35 -11 -72 -11z" />
    <glyph glyph-name="tilde" unicode="&#x2dc;" horiz-adv-x="374" 
d="M259 596q-37 0 -68 26l-26 22q-28 23 -42 23q-28 0 -28 -41v-17h-64q-1 9 -1 25q0 46 23 75t62 29q37 0 68 -26l26 -22q26 -23 42 -23q28 0 28 41v17h64q1 -9 1 -25q0 -45 -23 -74.5t-62 -29.5z" />
    <glyph glyph-name="hungarumlaut" unicode="&#x2dd;" horiz-adv-x="390" 
d="M30 566l85 214h83v-14l-113 -200h-55zM192 566l85 214h83v-14l-112 -200h-56z" />
    <glyph glyph-name="uni030C" unicode="&#x30c;" horiz-adv-x="0" 
d="M-126 539l13 211h83l-38 -211h-58z" />
    <glyph glyph-name="uni0326" unicode="&#x326;" horiz-adv-x="0" 
d="M-115 -220l9 171h76l-24 -171h-61z" />
    <glyph glyph-name="dieresistonos" unicode="&#x385;" horiz-adv-x="493" 
d="M207 566v214h92v-14l-34 -200h-58zM96 620q-21 0 -38 16t-17 37q0 22 17 38t38 16q23 0 39 -15.5t16 -38.5q0 -22 -16 -37.5t-39 -15.5zM398 620q-22 0 -38.5 15.5t-16.5 37.5t16.5 38t38.5 16q23 0 39.5 -16t16.5 -38t-16.5 -37.5t-39.5 -15.5z" />
    <glyph glyph-name="Alphatonos" unicode="&#x386;" horiz-adv-x="663" 
d="M28 509l13 211h83l-38 -211h-58zM549 0l-260 608l28 63h29l286 -671h-83zM31 0l232 545l41 -97l-105 -244h210l30 -70h-270l-56 -134h-82z" />
    <glyph glyph-name="Epsilontonos" unicode="&#x388;" horiz-adv-x="566" 
d="M-87 509l13 211h83l-38 -211h-58zM91 0v660h423v-70h-345v-520h357v-70h-435zM218 320v67h216v-67h-216z" />
    <glyph glyph-name="Etatonos" unicode="&#x389;" horiz-adv-x="708" 
d="M-87 509l13 211h83l-38 -211h-58zM169 660v-660h-78v660h78zM617 660v-660h-78v318h-321v70h321v272h78z" />
    <glyph glyph-name="Iotatonos" unicode="&#x38a;" horiz-adv-x="259" 
d="M-87 509l13 211h83l-38 -211h-58zM169 660v-660h-78v660h78z" />
    <glyph glyph-name="Omicrontonos" unicode="&#x38c;" horiz-adv-x="781" 
d="M-50 509l13 211h83l-38 -211h-58zM390 671q144 0 243.5 -98.5t99.5 -245.5q0 -130 -80 -215v215q0 117 -75.5 194.5t-186.5 77.5q-64 0 -119 -26.5t-93 -67.5v92q87 74 211 74zM129 548v-215q0 -116 75 -194t186 -78q63 0 118.5 26.5t94.5 67.5v-92q-88 -74 -212 -74
q-144 0 -243.5 98.5t-99.5 245.5q0 129 81 215z" />
    <glyph glyph-name="Upsilontonos" unicode="&#x38e;" horiz-adv-x="616" 
d="M-137 509l13 211h83l-38 -211h-58zM128 660l219 -370v-290h-78v274l-229 386h88zM576 660l-199 -327l-41 71l153 256h87z" />
    <glyph glyph-name="Omegatonos" unicode="&#x38f;" horiz-adv-x="792" 
d="M-50 509l13 211h83l-38 -211h-58zM657 342q0 113 -74.5 185t-185.5 72q-129 0 -214 -94v92q85 74 212 74q143 0 243 -94t100 -234q0 -127 -100 -224h-91q110 103 110 223zM134 344q0 -179 198 -274v-70h-269v70h149q-159 107 -159 273q0 123 80 206zM459 0v70h269v-70
h-269z" />
    <glyph glyph-name="iotadieresistonos" unicode="&#x390;" horiz-adv-x="285" 
d="M87 566v214h92v-14l-34 -200h-58zM-24 620q-21 0 -38 16t-17 37q0 22 17 38t38 16q23 0 39 -15.5t16 -38.5q0 -22 -16 -37.5t-39 -15.5zM278 620q-22 0 -38.5 15.5t-16.5 37.5t16.5 38t38.5 16q23 0 39.5 -16t16.5 -38t-16.5 -37.5t-39.5 -15.5zM159 487v-341
q0 -47 16 -67t49 -20q11 0 39 2v-65q-28 -7 -55 -7q-126 0 -126 148v350h77z" />
    <glyph glyph-name="Alpha" unicode="&#x391;" horiz-adv-x="663" 
d="M549 0l-260 608l28 63h29l286 -671h-83zM31 0l232 545l41 -97l-105 -244h210l30 -70h-270l-56 -134h-82z" />
    <glyph glyph-name="Beta" unicode="&#x392;" horiz-adv-x="616" 
d="M499 336q73 -52 73 -146q0 -84 -56.5 -137t-152.5 -53h-272v660h227q85 0 136.5 -47.5t51.5 -122.5t-51.5 -125.5t-136.5 -50.5h-100v71h94q55 0 84.5 28.5t29.5 74.5t-29.5 74t-84.5 28h-143v-520h189q64 0 99 34t35 89q0 56 -46 96z" />
    <glyph glyph-name="Gamma" unicode="&#x393;" horiz-adv-x="506" 
d="M482 660v-70h-391v70h391zM169 541v-541h-78v541h78z" />
    <glyph glyph-name="uni0394" unicode="&#x394;" horiz-adv-x="663" 
d="M346 671l286 -671h-83l-260 608l28 63h29zM263 545l41 -97l-161 -378h323l29 -70h-464z" />
    <glyph glyph-name="Epsilon" unicode="&#x395;" horiz-adv-x="566" 
d="M91 0v660h423v-70h-345v-520h357v-70h-435zM218 320v67h216v-67h-216z" />
    <glyph glyph-name="Zeta" unicode="&#x396;" horiz-adv-x="589" 
d="M32 0v23l449 637h73v-23l-449 -637h-73zM75 590v70h345l-46 -70h-299zM166 0l47 70h342v-70h-389z" />
    <glyph glyph-name="Eta" unicode="&#x397;" horiz-adv-x="708" 
d="M169 660v-660h-78v660h78zM617 660v-660h-78v318h-321v70h321v272h78z" />
    <glyph glyph-name="Theta" unicode="&#x398;" horiz-adv-x="781" 
d="M653 112v215q0 117 -75.5 194.5t-186.5 77.5q-64 0 -119 -26.5t-93 -67.5v92q87 74 211 74q144 0 243.5 -98.5t99.5 -245.5q0 -130 -80 -215zM391 -11q-144 0 -243.5 98.5t-99.5 245.5q0 129 81 215v-215q0 -116 75 -194t186 -78q63 0 118.5 26.5t94.5 67.5v-92
q-88 -74 -212 -74zM253 306v65h276v-65h-276z" />
    <glyph glyph-name="Iota" unicode="&#x399;" horiz-adv-x="259" 
d="M169 660v-660h-78v660h78z" />
    <glyph glyph-name="Kappa" unicode="&#x39a;" horiz-adv-x="633" 
d="M91 0v660h78v-660h-78zM305 355l298 -355h-97l-299 354l272 306h96z" />
    <glyph glyph-name="Lambda" unicode="&#x39b;" horiz-adv-x="662" 
d="M346 671l286 -671h-84l-259 607l28 64h29zM263 544l41 -97l-191 -447h-82z" />
    <glyph glyph-name="Mu" unicode="&#x39c;" horiz-adv-x="789" 
d="M698 671v-91l-289 -393h-28l-290 393v91h28l275 -382l276 382h28zM91 497l78 -106v-391h-78v497zM698 497v-497h-78v391z" />
    <glyph glyph-name="Nu" unicode="&#x39d;" horiz-adv-x="708" 
d="M589 -11l-498 601v81h28l498 -600v-82h-28zM617 150l-78 92v418h78v-510zM91 0v511l78 -94v-417h-78z" />
    <glyph glyph-name="Xi" unicode="&#x39e;" horiz-adv-x="545" 
d="M505 660v-70h-465v70h465zM494 378v-70h-442v70h442zM505 70v-70h-465v70h465z" />
    <glyph glyph-name="Omicron" unicode="&#x39f;" horiz-adv-x="781" 
d="M390 671q144 0 243.5 -98.5t99.5 -245.5q0 -130 -80 -215v215q0 117 -75.5 194.5t-186.5 77.5q-64 0 -119 -26.5t-93 -67.5v92q87 74 211 74zM129 548v-215q0 -116 75 -194t186 -78q63 0 118.5 26.5t94.5 67.5v-92q-88 -74 -212 -74q-144 0 -243.5 98.5t-99.5 245.5
q0 129 81 215z" />
    <glyph glyph-name="Pi" unicode="&#x3a0;" horiz-adv-x="682" 
d="M591 660v-660h-78v590h-422v70h500zM169 541v-541h-78v541h78z" />
    <glyph glyph-name="Rho" unicode="&#x3a1;" horiz-adv-x="573" 
d="M323 660q96 0 153.5 -53.5t57.5 -137.5q0 -85 -57.5 -138.5t-153.5 -53.5h-105v68h104q63 0 97.5 34t34.5 89t-34.5 89.5t-97.5 34.5h-153v-592h-78v660h232z" />
    <glyph glyph-name="Sigma" unicode="&#x3a3;" horiz-adv-x="574" 
d="M142 660l239 -311v-20l-152 -210h-92l159 219l-231 302v20h77zM522 660v-70h-263l-54 70h317zM534 70v-70h-469v20l37 50h432z" />
    <glyph glyph-name="Tau" unicode="&#x3a4;" horiz-adv-x="581" 
d="M19 590v70h543v-70h-543zM251 0v541h78v-541h-78z" />
    <glyph glyph-name="Upsilon" unicode="&#x3a5;" horiz-adv-x="616" 
d="M128 660l219 -370v-290h-78v274l-229 386h88zM576 660l-199 -327l-41 71l153 256h87z" />
    <glyph glyph-name="Phi" unicode="&#x3a6;" horiz-adv-x="798" 
d="M437 691v-722h-78v722h78zM310 602v-72q-84 -11 -132.5 -63t-48.5 -134q0 -83 48.5 -134t132.5 -62v-72q-119 11 -190.5 83t-71.5 187q0 114 71.5 185t190.5 82zM487 602q118 -11 190 -82t72 -185t-72 -186.5t-190 -83.5v72q84 11 132.5 62t48.5 134q0 82 -48.5 134
t-132.5 63v72z" />
    <glyph glyph-name="Chi" unicode="&#x3a7;" horiz-adv-x="599" 
d="M136 660l433 -660h-91l-432 660h90zM553 660l-178 -276l-44 68l132 208h90zM228 295l43 -67l-150 -228h-91z" />
    <glyph glyph-name="Psi" unicode="&#x3a8;" horiz-adv-x="821" 
d="M371 0v681h78v-681h-78zM322 154q-117 11 -184 74.5t-67 179.5v252h78v-248q0 -84 47 -130.5t126 -56.5v-71zM498 154v71q80 10 127 56.5t47 130.5v248h78v-252q0 -116 -67 -179.5t-185 -74.5z" />
    <glyph glyph-name="uni03A9" unicode="&#x3a9;" horiz-adv-x="792" 
d="M657 342q0 113 -74.5 185t-185.5 72q-129 0 -214 -94v92q85 74 212 74q143 0 243 -94t100 -234q0 -127 -100 -224h-91q110 103 110 223zM134 344q0 -179 198 -274v-70h-269v70h149q-159 107 -159 273q0 123 80 206zM459 0v70h269v-70h-269z" />
    <glyph glyph-name="Iotadieresis" unicode="&#x3aa;" horiz-adv-x="259" 
d="M13 757q-22 0 -38.5 15.5t-16.5 37.5t16.5 37.5t38.5 15.5q23 0 39 -15.5t16 -37.5t-16 -37.5t-39 -15.5zM246 756q-22 0 -38.5 15.5t-16.5 37.5t16.5 38t38.5 16q23 0 39 -16t16 -38t-16 -37.5t-39 -15.5zM169 660v-660h-78v660h78z" />
    <glyph glyph-name="Upsilondieresis" unicode="&#x3ab;" horiz-adv-x="616" 
d="M166 757q-22 0 -38.5 15.5t-16.5 37.5t16.5 37.5t38.5 15.5q23 0 39 -15.5t16 -37.5t-16 -37.5t-39 -15.5zM399 756q-22 0 -38.5 15.5t-16.5 37.5t16.5 38t38.5 16q23 0 39 -16t16 -38t-16 -37.5t-39 -15.5zM128 660l219 -370v-290h-78v274l-229 386h88zM576 660
l-199 -327l-41 71l153 256h87z" />
    <glyph glyph-name="alphatonos" unicode="&#x3ac;" horiz-adv-x="644" 
d="M275 566v214h93v-14l-33 -200h-60zM293 -11q-106 0 -174.5 73t-68.5 182q0 108 66.5 181t167.5 73q67 0 129 -37v-77q-59 43 -121 43q-69 0 -116 -52t-47 -131q0 -80 48 -132t121 -52q68 0 116.5 47.5t48.5 135.5v244h77v-240q0 -116 -71 -187t-176 -71zM572 -7
q-55 0 -78 44l48 59q17 -34 52 -34q12 0 29 3v-65q-33 -7 -51 -7z" />
    <glyph glyph-name="epsilontonos" unicode="&#x3ad;" horiz-adv-x="498" 
d="M220 566v214h93v-14l-33 -200h-60zM245 224q-68 0 -114.5 39t-46.5 100t47 98t129 37q122 0 184 -85l-52 -46q-49 60 -132 60q-50 0 -73.5 -18.5t-23.5 -49.5q0 -30 22.5 -48.5t63.5 -18.5h90v-68h-94zM256 -11q-86 0 -140 40.5t-54 106.5q0 56 38 91l60 -29
q-19 -22 -19 -55q0 -37 31 -60t86 -23q90 0 142 69l52 -46q-65 -94 -196 -94z" />
    <glyph glyph-name="etatonos" unicode="&#x3ae;" horiz-adv-x="586" 
d="M258 566v214h93v-14l-33 -200h-60zM326 498q81 0 131.5 -53.5t50.5 -138.5v-486h-77v477q0 59 -33 94.5t-89 35.5q-37 0 -77 -22l-14 61q49 32 108 32zM75 494q107 0 107 -135v-359h-77v354q0 69 -55 69q-14 0 -29 -1v65q30 7 54 7z" />
    <glyph glyph-name="iotatonos" unicode="&#x3af;" horiz-adv-x="285" 
d="M81 566v214h93v-14l-33 -200h-60zM159 487v-341q0 -47 16 -67t49 -20q11 0 39 2v-65q-28 -7 -55 -7q-126 0 -126 148v350h77z" />
    <glyph glyph-name="upsilondieresistonos" unicode="&#x3b0;" horiz-adv-x="552" 
d="M231 566v214h92v-14l-34 -200h-58zM120 620q-21 0 -38 16t-17 37q0 22 17 38t38 16q23 0 39 -15.5t16 -38.5q0 -22 -16 -37.5t-39 -15.5zM422 620q-22 0 -38.5 15.5t-16.5 37.5t16.5 38t38.5 16q23 0 39.5 -16t16.5 -38t-16.5 -37.5t-39.5 -15.5zM156 487v-454
q-77 49 -77 161v293h77zM441 487q49 -128 49 -254q0 -123 -57.5 -183.5t-148.5 -60.5q-44 0 -79 16v75q39 -21 79 -21q57 0 92 41t35 130q0 125 -47 257h77z" />
    <glyph glyph-name="alpha" unicode="&#x3b1;" horiz-adv-x="644" 
d="M293 -11q-106 0 -174.5 73t-68.5 182q0 108 66.5 181t167.5 73q67 0 129 -37v-77q-59 43 -121 43q-69 0 -116 -52t-47 -131q0 -80 48 -132t121 -52q68 0 116.5 47.5t48.5 135.5v244h77v-240q0 -116 -71 -187t-176 -71zM572 -7q-55 0 -78 44l48 59q17 -34 52 -34
q12 0 29 3v-65q-33 -7 -51 -7z" />
    <glyph glyph-name="beta" unicode="&#x3b2;" horiz-adv-x="610" 
d="M292 761q89 0 139.5 -52.5t50.5 -134.5q0 -88 -55.5 -143.5t-149.5 -55.5h-19v68h19q58 0 92 35t34 94q0 57 -32.5 87.5t-82.5 30.5q-56 0 -91 -35.5t-35 -101.5v-733h-77v735q0 96 58 151t149 55zM463 396q97 -68 97 -181q0 -102 -67.5 -164t-167.5 -62q-62 0 -115 24
v77q56 -29 110 -29q70 0 115.5 42.5t45.5 113.5q0 87 -75 136z" />
    <glyph glyph-name="gamma" unicode="&#x3b3;" horiz-adv-x="539" 
d="M108 487l200 -435v-232h-76v222l-206 445h82zM513 487l-176 -384l-39 85l133 299h82z" />
    <glyph glyph-name="delta" unicode="&#x3b4;" horiz-adv-x="610" 
d="M533 750v-67h-307l225 -224q57 -57 83 -108t26 -108q0 -106 -74.5 -180t-181.5 -74t-180.5 74t-73.5 181q0 92 57 159.5t143 83.5l49 -59q-65 -7 -117.5 -54.5t-52.5 -128.5q0 -79 50.5 -132t124.5 -53q75 0 126 53.5t51 129.5q0 50 -23.5 88t-70.5 85l-314 311v23h460z
" />
    <glyph glyph-name="epsilon" unicode="&#x3b5;" horiz-adv-x="498" 
d="M245 224q-68 0 -114.5 39t-46.5 100t47 98t129 37q122 0 184 -85l-52 -46q-49 60 -132 60q-50 0 -73.5 -18.5t-23.5 -49.5q0 -30 22.5 -48.5t63.5 -18.5h90v-68h-94zM256 -11q-86 0 -140 40.5t-54 106.5q0 56 38 91l60 -29q-19 -22 -19 -55q0 -37 31 -60t86 -23
q90 0 142 69l52 -46q-65 -94 -196 -94z" />
    <glyph glyph-name="zeta" unicode="&#x3b6;" horiz-adv-x="503" 
d="M481 750v-23l-37 -45h-358v68h395zM405 633l-204 -252q-37 -47 -54.5 -82.5t-17.5 -73.5q0 -105 142 -143l75 -21q143 -37 143 -151q0 -44 -22 -90h-77q20 44 20 81q0 70 -91 92l-74 18q-96 24 -145.5 77.5t-49.5 128.5q0 92 91 204l174 212h90z" />
    <glyph glyph-name="eta" unicode="&#x3b7;" horiz-adv-x="586" 
d="M326 498q81 0 131.5 -53.5t50.5 -138.5v-486h-77v477q0 59 -33 94.5t-89 35.5q-37 0 -77 -22l-14 61q49 32 108 32zM75 494q107 0 107 -135v-359h-77v354q0 69 -55 69q-14 0 -29 -1v65q30 7 54 7z" />
    <glyph glyph-name="theta" unicode="&#x3b8;" horiz-adv-x="617" 
d="M309 761q238 0 238 -385q0 -387 -238 -387t-238 387q0 385 238 385zM309 60q152 0 158 294h-267v68h266q-10 267 -157 267q-80 0 -119.5 -76t-39.5 -237q0 -316 159 -316z" />
    <glyph glyph-name="iota" unicode="&#x3b9;" horiz-adv-x="285" 
d="M159 487v-341q0 -47 16 -67t49 -20q11 0 39 2v-65q-28 -7 -55 -7q-126 0 -126 148v350h77z" />
    <glyph glyph-name="kappa" unicode="&#x3ba;" horiz-adv-x="508" 
d="M85 0v487h77v-487h-77zM288 271l207 -271h-95l-200 270l185 217h94z" />
    <glyph glyph-name="lambda" unicode="&#x3bb;" horiz-adv-x="548" 
d="M112 761q57 0 93.5 -27.5t63.5 -100.5l193 -519q18 -50 51 -50h22v-64q-21 -6 -39 -6q-36 0 -59.5 20t-39.5 66l-195 524q-19 52 -41 69.5t-62 17.5q-19 0 -49 -3v65q27 8 62 8zM210 432l37 -108l-138 -324h-82z" />
    <glyph glyph-name="uni03BC" unicode="&#x3bc;" horiz-adv-x="592" 
d="M85 -180v667h77v-667h-77zM542 62q10 0 29 3v-65q-28 -7 -52 -7q-69 0 -94 59q-48 -63 -135 -63q-46 0 -79 18v75q38 -22 76 -22q53 0 88.5 37.5t35.5 98.5v291h77v-351q0 -74 54 -74z" />
    <glyph glyph-name="nu" unicode="&#x3bd;" horiz-adv-x="539" 
d="M108 487l203 -440l-27 -58h-28l-230 498h82zM513 487l-175 -380l-39 86l132 294h82z" />
    <glyph glyph-name="xi" unicode="&#x3be;" horiz-adv-x="517" 
d="M315 372q-93 0 -155.5 57.5t-62.5 141.5q0 82 58.5 136t145.5 54q126 0 193 -108l-54 -44q-56 81 -134 81q-55 0 -92.5 -35t-37.5 -88q0 -54 38.5 -90.5t97.5 -36.5h99v-68h-96zM404 -180q20 48 20 82q0 74 -90 90l-63 11q-105 18 -157.5 75.5t-52.5 138.5q0 108 82 163
l55 -42q-58 -42 -58 -117q0 -58 38.5 -95t110.5 -51l67 -13q147 -29 147 -152q0 -46 -23 -90h-76z" />
    <glyph glyph-name="omicron" unicode="&#x3bf;" horiz-adv-x="610" 
d="M305 498q107 0 181 -74t74 -182q0 -113 -79 -180v180q0 80 -50.5 132.5t-126.5 52.5q-68 0 -125 -43v79q55 35 126 35zM129 425v-180q0 -80 51 -132.5t127 -52.5q65 0 125 42v-78q-54 -35 -126 -35q-107 0 -181.5 74t-74.5 182q0 111 79 180z" />
    <glyph glyph-name="pi" unicode="&#x3c0;" horiz-adv-x="584" 
d="M508 -7q-51 0 -79.5 32.5t-28.5 95.5v297h-315v69h392v-361q0 -64 53 -64q10 0 30 3v-65q-30 -7 -52 -7zM85 0v369h77v-369h-77z" />
    <glyph glyph-name="rho" unicode="&#x3c1;" horiz-adv-x="621" 
d="M79 -180v421q0 115 66.5 186t175.5 71q111 0 180.5 -72.5t69.5 -181.5t-67 -182t-169 -73q-71 0 -130 37v77q57 -43 121 -43q69 0 117.5 52.5t48.5 131.5t-48.5 131t-123.5 52q-71 0 -117.5 -47.5t-46.5 -137.5v-422h-77z" />
    <glyph glyph-name="uni03C2" unicode="&#x3c2;" horiz-adv-x="527" 
d="M447 345q-60 82 -146 82q-65 0 -122 -42v78q55 35 125 35q124 0 197 -109zM371 -180q23 48 23 85q0 43 -24 60t-81 32q-36 10 -60.5 18.5t-61.5 29.5t-60 46t-40 67t-17 95q0 115 80 179v-176q0 -39 12.5 -69.5t28.5 -48.5t44 -33.5t45.5 -21.5t47.5 -15q41 -11 63 -19
t49.5 -25t40 -43.5t12.5 -64.5q0 -52 -26 -96h-76z" />
    <glyph glyph-name="sigma" unicode="&#x3c3;" horiz-adv-x="634" 
d="M309 418q-78 0 -129 -49t-51 -127q0 -77 49 -129.5t124 -52.5t123.5 52.5t48.5 129.5q0 73 -48 130h86q41 -61 41 -135q0 -106 -71 -177t-179 -71q-110 0 -181.5 73.5t-71.5 179.5t72.5 175.5t182.5 69.5h315v-69h-311z" />
    <glyph glyph-name="tau" unicode="&#x3c4;" horiz-adv-x="448" 
d="M408 487v-69h-393v69h393zM223 372v-220q0 -52 27.5 -72.5t82.5 -20.5q34 0 85 6v-65q-50 -11 -101 -11q-170 0 -170 158v225h76z" />
    <glyph glyph-name="upsilon" unicode="&#x3c5;" horiz-adv-x="552" 
d="M156 487v-454q-77 49 -77 161v293h77zM441 487q49 -128 49 -254q0 -123 -57.5 -183.5t-148.5 -60.5q-44 0 -79 16v75q39 -21 79 -21q57 0 92 41t35 130q0 125 -47 257h77z" />
    <glyph glyph-name="phi" unicode="&#x3c6;" horiz-adv-x="747" 
d="M412 720v-900h-77v900h77zM286 493v-69q-76 -12 -117.5 -59.5t-41.5 -121.5q0 -75 41.5 -123t117.5 -60v-68q-107 12 -171.5 79.5t-64.5 171.5q0 103 64 169.5t172 80.5zM461 493q108 -14 172 -80.5t64 -169.5q0 -104 -64.5 -171.5t-171.5 -79.5v68q76 12 118 60t42 123
q0 74 -42 121.5t-118 59.5v69z" />
    <glyph glyph-name="chi" unicode="&#x3c7;" horiz-adv-x="504" 
d="M60 493q35 0 59.5 -18t45.5 -60l247 -491q20 -41 58 -41q15 0 24 1v-64q-17 -6 -41 -6q-64 0 -99 69l-251 499q-21 41 -59 41q-15 0 -24 -1v65q16 6 40 6zM476 487l-152 -268l-40 74l107 194h85zM178 111l40 -73l-120 -218h-85z" />
    <glyph glyph-name="psi" unicode="&#x3c8;" horiz-adv-x="773" 
d="M428 660v-840h-77v840h77zM156 487v-237q0 -79 40.5 -126.5t105.5 -60.5v-71q-101 13 -162 78.5t-61 174.5v242h77zM662 487q49 -128 49 -227q0 -114 -63 -184.5t-171 -83.5v71q71 12 112.5 63t41.5 137q0 98 -47 224h78z" />
    <glyph glyph-name="omega" unicode="&#x3c9;" horiz-adv-x="835" 
d="M252 494l22 -68q-145 -50 -145 -193q0 -83 39.5 -128t96.5 -45q42 0 82 32l34 -58q-48 -45 -119 -45q-90 0 -151 64.5t-61 180.5q0 200 202 260zM583 494q201 -58 201 -261q0 -116 -60.5 -180t-151.5 -64q-85 0 -139 55.5t-54 151.5v184h77v-183q0 -64 32 -100.5
t83 -36.5q56 0 95 45t39 127t-39.5 126t-106.5 68z" />
    <glyph glyph-name="iotadieresis" unicode="&#x3ca;" horiz-adv-x="285" 
d="M28 620q-22 0 -38.5 15.5t-16.5 37.5t16.5 38t38.5 16q23 0 39 -15.5t16 -38.5q0 -22 -16 -37.5t-39 -15.5zM210 620q-21 0 -38 16t-17 37q0 22 17 38t38 16q23 0 39 -15.5t16 -38.5q0 -22 -16 -37.5t-39 -15.5zM159 487v-341q0 -47 16 -67t49 -20q11 0 39 2v-65
q-28 -7 -55 -7q-126 0 -126 148v350h77z" />
    <glyph glyph-name="upsilondieresis" unicode="&#x3cb;" horiz-adv-x="552" 
d="M157 620q-21 0 -38 16t-17 37q0 22 17 38t38 16q23 0 39 -15.5t16 -38.5q0 -22 -16 -37.5t-39 -15.5zM369 620q-21 0 -38 16t-17 37q0 22 17 38t38 16q23 0 39 -15.5t16 -38.5q0 -22 -16 -37.5t-39 -15.5zM156 487v-454q-77 49 -77 161v293h77zM441 487q49 -128 49 -254
q0 -123 -57.5 -183.5t-148.5 -60.5q-44 0 -79 16v75q39 -21 79 -21q57 0 92 41t35 130q0 125 -47 257h77z" />
    <glyph glyph-name="omicrontonos" unicode="&#x3cc;" horiz-adv-x="610" 
d="M267 566v214h93v-14l-33 -200h-60zM305 498q107 0 181 -74t74 -182q0 -113 -79 -180v180q0 80 -50.5 132.5t-126.5 52.5q-68 0 -125 -43v79q55 35 126 35zM129 425v-180q0 -80 51 -132.5t127 -52.5q65 0 125 42v-78q-54 -35 -126 -35q-107 0 -181.5 74t-74.5 182
q0 111 79 180z" />
    <glyph glyph-name="upsilontonos" unicode="&#x3cd;" horiz-adv-x="552" 
d="M225 566v214h93v-14l-33 -200h-60zM156 487v-454q-77 49 -77 161v293h77zM441 487q49 -128 49 -254q0 -123 -57.5 -183.5t-148.5 -60.5q-44 0 -79 16v75q39 -21 79 -21q57 0 92 41t35 130q0 125 -47 257h77z" />
    <glyph glyph-name="omegatonos" unicode="&#x3ce;" horiz-adv-x="835" 
d="M380 566v214h93v-14l-33 -200h-60zM252 494l22 -68q-145 -50 -145 -193q0 -83 39.5 -128t96.5 -45q42 0 82 32l34 -58q-48 -45 -119 -45q-90 0 -151 64.5t-61 180.5q0 200 202 260zM583 494q201 -58 201 -261q0 -116 -60.5 -180t-151.5 -64q-85 0 -139 55.5t-54 151.5
v184h77v-183q0 -64 32 -100.5t83 -36.5q56 0 95 45t39 127t-39.5 126t-106.5 68z" />
    <glyph glyph-name="uni0400" unicode="&#x400;" horiz-adv-x="566" 
d="M268 724l-121 172v14h94l85 -186h-58zM91 0v660h423v-70h-345v-520h357v-70h-435zM218 320v67h216v-67h-216z" />
    <glyph glyph-name="uni0401" unicode="&#x401;" horiz-adv-x="566" 
d="M180 757q-22 0 -38.5 15.5t-16.5 37.5t16.5 37.5t38.5 15.5q23 0 39 -15.5t16 -37.5t-16 -37.5t-39 -15.5zM413 756q-22 0 -38.5 15.5t-16.5 37.5t16.5 38t38.5 16q23 0 39 -16t16 -38t-16 -37.5t-39 -15.5zM91 0v660h423v-70h-345v-520h357v-70h-435zM218 320v67h216
v-67h-216z" />
    <glyph glyph-name="uni0402" unicode="&#x402;" horiz-adv-x="757" 
d="M562 660v-70h-543v70h543zM329 541v-540h-78v540h78zM480 403q105 0 165.5 -56.5t60.5 -146.5q0 -95 -64 -147t-162 -64l-15 71q160 25 160 142q0 56 -39 93t-107 37h-101v71h102z" />
    <glyph glyph-name="uni0403" unicode="&#x403;" horiz-adv-x="508" 
d="M232 724l85 186h94v-14l-120 -172h-59zM484 660v-70h-393v70h393zM169 541v-541h-78v541h78z" />
    <glyph glyph-name="uni0404" unicode="&#x404;" horiz-adv-x="715" 
d="M607 483q-79 116 -216 116q-64 0 -119 -26.5t-93 -67.5v92q87 74 212 74q88 0 160 -38.5t114 -103.5zM391 -11q-144 0 -243.5 98.5t-99.5 245.5q0 129 81 215v-215q0 -116 75.5 -194t186.5 -78q137 0 216 116l58 -46q-41 -65 -113.5 -103.5t-160.5 -38.5zM181 320v67h314
v-67h-314z" />
    <glyph glyph-name="uni0405" unicode="&#x405;" horiz-adv-x="558" 
d="M432 516q-55 83 -149 83q-38 0 -70 -13v74q35 11 72 11q64 0 118.5 -31t85.5 -81zM416 26v135q0 26 -7 45t-24.5 33.5t-33 24t-45.5 23.5l-74 35q-70 34 -109.5 73.5t-39.5 102.5q0 90 81 139v-124q0 -25 7 -43.5t24.5 -33t31.5 -22.5t43 -22l73 -35q78 -37 116 -79
t38 -105q0 -95 -81 -147zM282 -11q-76 0 -139 38t-102 104l58 43q74 -113 184 -113q41 0 84 15v-73q-40 -14 -85 -14z" />
    <glyph glyph-name="uni0406" unicode="&#x406;" horiz-adv-x="259" 
d="M169 660v-660h-78v660h78z" />
    <glyph glyph-name="uni0407" unicode="&#x407;" horiz-adv-x="259" 
d="M13 757q-22 0 -38.5 15.5t-16.5 37.5t16.5 37.5t38.5 15.5q23 0 39 -15.5t16 -37.5t-16 -37.5t-39 -15.5zM246 756q-22 0 -38.5 15.5t-16.5 37.5t16.5 38t38.5 16q23 0 39 -16t16 -38t-16 -37.5t-39 -15.5zM169 660v-660h-78v660h78z" />
    <glyph glyph-name="uni0408" unicode="&#x408;" horiz-adv-x="373" 
d="M283 660v-507q0 -83 -46.5 -123.5t-126.5 -40.5q-38 0 -86 11v67q41 -6 72 -6q53 0 81 21.5t28 77.5v500h78z" />
    <glyph glyph-name="uni0409" unicode="&#x409;" horiz-adv-x="1010" 
d="M479 0v590h-301v70h379v-590h183q66 0 102.5 36.5t36.5 93.5q0 58 -36.5 94t-102.5 36h-134v70h135q100 0 159.5 -56t59.5 -144t-59.5 -144t-159.5 -56h-262zM0 -3v73q178 48 178 459v12h78q-2 -266 -68.5 -394t-187.5 -150z" />
    <glyph glyph-name="uni040A" unicode="&#x40a;" horiz-adv-x="1055" 
d="M91 0v660h78v-660h-78zM523 0v320h-305v71h305v269h78v-590h182q68 0 104 34.5t36 90.5t-37 91t-103 35h-133v70h134q101 0 160.5 -54.5t59.5 -140.5q0 -88 -59.5 -142t-160.5 -54h-261z" />
    <glyph glyph-name="uni040B" unicode="&#x40b;" horiz-adv-x="791" 
d="M562 660v-70h-543v70h543zM329 541v-541h-78v541h78zM468 402q112 0 173 -68.5t61 -187.5v-146h-78v143q0 186 -163 186q-38 0 -83 -9v71q41 11 90 11z" />
    <glyph glyph-name="uni040C" unicode="&#x40c;" horiz-adv-x="633" 
d="M447 896l-120 -172h-59l85 186h94v-14zM91 0v660h78v-660h-78zM305 355l298 -355h-97l-299 354l272 306h96z" />
    <glyph glyph-name="uni040D" unicode="&#x40d;" horiz-adv-x="718" 
d="M326 724l-121 172v14h94l85 -186h-58zM627 671v-76l-508 -606h-28v76l508 606h28zM169 660v-426l-78 -92v518h78zM627 518v-518h-78v426z" />
    <glyph glyph-name="uni040E" unicode="&#x40e;" horiz-adv-x="610" 
d="M318 739q-66 0 -109 43.5t-43 109.5h65q0 -42 24.5 -67t62.5 -25t62.5 25t24.5 67h65q0 -66 -43 -109.5t-109 -43.5zM131 660l157 -350l-41 -94l-204 444h88zM580 660l-235 -541q-55 -130 -189 -130q-38 0 -78 10v68q46 -6 64 -6q91 0 128 87l222 512h88z" />
    <glyph glyph-name="uni040F" unicode="&#x40f;" horiz-adv-x="682" 
d="M169 660v-590h421v-70h-210v-141h-78v141h-211v660h78zM513 660h78v-541h-78v541z" />
    <glyph glyph-name="uni0410" unicode="&#x410;" horiz-adv-x="663" 
d="M549 0l-260 608l28 63h29l286 -671h-83zM31 0l232 545l41 -97l-105 -244h210l30 -70h-270l-56 -134h-82z" />
    <glyph glyph-name="uni0411" unicode="&#x411;" horiz-adv-x="616" 
d="M504 660v-70h-335v-520h189q64 0 99 34t35 88q0 55 -36 88.5t-100 33.5h-138v71h145q96 0 152.5 -53.5t56.5 -139.5q0 -85 -56.5 -138.5t-152.5 -53.5h-272v660h413z" />
    <glyph glyph-name="uni0412" unicode="&#x412;" horiz-adv-x="616" 
d="M499 336q73 -52 73 -146q0 -84 -56.5 -137t-152.5 -53h-272v660h227q85 0 136.5 -47.5t51.5 -122.5t-51.5 -125.5t-136.5 -50.5h-100v71h94q55 0 84.5 28.5t29.5 74.5t-29.5 74t-84.5 28h-143v-520h189q64 0 99 34t35 89q0 56 -46 96z" />
    <glyph glyph-name="uni0413" unicode="&#x413;" horiz-adv-x="508" 
d="M484 660v-70h-393v70h393zM169 541v-541h-78v541h78z" />
    <glyph glyph-name="uni0414" unicode="&#x414;" horiz-adv-x="691" 
d="M500 119v471h-282v70h360v-541h-78zM163 70h494v-211h-78v141h-478v-141h-78v211h52q143 130 143 471h75q0 -326 -130 -471z" />
    <glyph glyph-name="uni0415" unicode="&#x415;" horiz-adv-x="566" 
d="M91 0v660h423v-70h-345v-520h357v-70h-435zM218 320v67h216v-67h-216z" />
    <glyph glyph-name="uni0416" unicode="&#x416;" horiz-adv-x="966" 
d="M30 0l280 355l-253 305h97l252 -306l-280 -354h-96zM444 0v660h78v-660h-78zM840 0l-280 354l252 306h97l-253 -305l280 -355h-96z" />
    <glyph glyph-name="uni0417" unicode="&#x417;" horiz-adv-x="582" 
d="M182 314v71h113q55 0 83.5 29t28.5 75q0 49 -31.5 79.5t-88.5 30.5q-98 0 -161 -90l-56 42q33 55 90 87.5t127 32.5q89 0 145 -51t56 -128q0 -76 -53 -127t-141 -51h-112zM298 -11q-82 0 -146.5 39t-103.5 106l57 42q74 -115 192 -115q67 0 112 37.5t45 95.5q0 59 -46 93
l58 42q68 -49 68 -138q0 -88 -67.5 -145t-168.5 -57z" />
    <glyph glyph-name="uni0418" unicode="&#x418;" horiz-adv-x="718" 
d="M627 671v-76l-508 -606h-28v76l508 606h28zM169 660v-426l-78 -92v518h78zM627 518v-518h-78v426z" />
    <glyph glyph-name="uni0419" unicode="&#x419;" horiz-adv-x="718" 
d="M355 739q-66 0 -109 43.5t-43 109.5h65q0 -42 24.5 -67t62.5 -25t62.5 25t24.5 67h65q0 -66 -43 -109.5t-109 -43.5zM627 671v-76l-508 -606h-28v76l508 606h28zM169 660v-426l-78 -92v518h78zM627 518v-518h-78v426z" />
    <glyph glyph-name="uni041A" unicode="&#x41a;" horiz-adv-x="633" 
d="M91 0v660h78v-660h-78zM305 355l298 -355h-97l-299 354l272 306h96z" />
    <glyph glyph-name="uni041B" unicode="&#x41b;" horiz-adv-x="648" 
d="M557 660v-659h-78v589h-301v70h379zM256 541q-2 -266 -68.5 -394t-187.5 -150v73q178 48 178 459v12h78z" />
    <glyph glyph-name="uni041C" unicode="&#x41c;" horiz-adv-x="789" 
d="M698 671v-91l-289 -393h-28l-290 393v91h28l275 -382l276 382h28zM91 497l78 -106v-391h-78v497zM698 497v-497h-78v391z" />
    <glyph glyph-name="uni041D" unicode="&#x41d;" horiz-adv-x="708" 
d="M169 660v-660h-78v660h78zM617 660v-660h-78v318h-321v70h321v272h78z" />
    <glyph glyph-name="uni041E" unicode="&#x41e;" horiz-adv-x="781" 
d="M390 671q144 0 243.5 -98.5t99.5 -245.5q0 -130 -80 -215v215q0 117 -75.5 194.5t-186.5 77.5q-64 0 -119 -26.5t-93 -67.5v92q87 74 211 74zM129 548v-215q0 -116 75 -194t186 -78q63 0 118.5 26.5t94.5 67.5v-92q-88 -74 -212 -74q-144 0 -243.5 98.5t-99.5 245.5
q0 129 81 215z" />
    <glyph glyph-name="uni041F" unicode="&#x41f;" horiz-adv-x="682" 
d="M591 660v-660h-78v590h-422v70h500zM169 541v-541h-78v541h78z" />
    <glyph glyph-name="uni0420" unicode="&#x420;" horiz-adv-x="573" 
d="M323 660q96 0 153.5 -53.5t57.5 -137.5q0 -85 -57.5 -138.5t-153.5 -53.5h-105v68h104q63 0 97.5 34t34.5 89t-34.5 89.5t-97.5 34.5h-153v-592h-78v660h232z" />
    <glyph glyph-name="uni0421" unicode="&#x421;" horiz-adv-x="715" 
d="M607 483q-79 116 -216 116q-64 0 -119 -26.5t-93 -67.5v92q87 74 212 74q88 0 160 -38.5t114 -103.5zM391 -11q-144 0 -243.5 98.5t-99.5 245.5q0 129 81 215v-215q0 -116 75.5 -194t186.5 -78q137 0 216 116l58 -46q-41 -65 -113.5 -103.5t-160.5 -38.5z" />
    <glyph glyph-name="uni0422" unicode="&#x422;" horiz-adv-x="581" 
d="M19 590v70h543v-70h-543zM251 0v541h78v-541h-78z" />
    <glyph glyph-name="uni0423" unicode="&#x423;" horiz-adv-x="610" 
d="M131 660l157 -350l-41 -94l-204 444h88zM580 660l-235 -541q-55 -130 -189 -130q-38 0 -78 10v68q46 -6 64 -6q91 0 128 87l222 512h88z" />
    <glyph glyph-name="uni0424" unicode="&#x424;" horiz-adv-x="798" 
d="M359 -31v722h78v-722h-78zM310 65q-119 11 -190.5 83t-71.5 187q0 114 71.5 184.5t190.5 82.5v-72q-84 -11 -132.5 -63t-48.5 -134q0 -83 48 -134t133 -62v-72zM487 65v72q85 11 133 62t48 134q0 82 -48.5 134t-132.5 63v72q119 -12 190.5 -83t71.5 -184
q0 -114 -72 -186.5t-190 -83.5z" />
    <glyph glyph-name="uni0425" unicode="&#x425;" horiz-adv-x="599" 
d="M136 660l433 -660h-91l-432 660h90zM553 660l-178 -276l-44 68l132 208h90zM228 295l43 -67l-150 -228h-91z" />
    <glyph glyph-name="uni0426" unicode="&#x426;" horiz-adv-x="697" 
d="M169 660v-590h495v-211h-78v141h-495v660h78zM584 660v-541h-78v541h78z" />
    <glyph glyph-name="uni0427" unicode="&#x427;" horiz-adv-x="623" 
d="M126 660v-154q0 -97 52 -147.5t141 -50.5q45 0 87 9v-72q-52 -10 -93 -10q-120 0 -192.5 69t-72.5 196v160h78zM533 660v-660h-78v660h78z" />
    <glyph glyph-name="uni0428" unicode="&#x428;" horiz-adv-x="1022" 
d="M931 660v-660h-840v660h78v-590h684v590h78zM551 660v-541h-78v541h78z" />
    <glyph glyph-name="uni0429" unicode="&#x429;" horiz-adv-x="1045" 
d="M169 660v-590h843v-211h-78v141h-843v660h78zM551 660v-541h-78v541h78zM932 660v-541h-78v541h78z" />
    <glyph glyph-name="uni042A" unicode="&#x42a;" horiz-adv-x="639" 
d="M185 660v-590h183q65 0 102 36.5t37 92.5q0 57 -36.5 94t-102.5 37h-133v70h134q101 0 160 -55.5t59 -144.5t-59 -144.5t-160 -55.5h-262v590h-117v70h195z" />
    <glyph glyph-name="uni042B" unicode="&#x42b;" horiz-adv-x="882" 
d="M169 660v-590h182q66 0 103.5 36.5t37.5 92.5q0 57 -37.5 94t-103.5 37h-133v70h134q101 0 160.5 -55.5t59.5 -144.5t-59.5 -144.5t-160.5 -55.5h-261v660h78zM714 0v660h78v-660h-78z" />
    <glyph glyph-name="uni042C" unicode="&#x42c;" horiz-adv-x="623" 
d="M169 660v-590h182q66 0 103.5 36.5t37.5 92.5q0 57 -37.5 94t-103.5 37h-133v70h134q101 0 160.5 -55.5t59.5 -144.5t-59.5 -144.5t-160.5 -55.5h-261v660h78z" />
    <glyph glyph-name="uni042D" unicode="&#x42d;" horiz-adv-x="715" 
d="M585 112v215q0 116 -75 194t-186 78q-137 0 -216 -116l-59 46q42 65 114.5 103.5t160.5 38.5q144 0 243 -98.5t99 -245.5q0 -131 -81 -215zM221 320v67h314v-67h-314zM324 -11q-88 0 -160 38.5t-115 103.5l59 46q79 -116 216 -116q64 0 119 26.5t93 67.5v-92
q-87 -74 -212 -74z" />
    <glyph glyph-name="uni042E" unicode="&#x42e;" horiz-adv-x="1075" 
d="M946 112v215q0 117 -75 194.5t-186 77.5q-63 0 -118 -26.5t-93 -67.5v92q87 74 210 74q144 0 243 -98.5t99 -245.5q0 -130 -80 -215zM91 0v660h78v-272h130v-70h-130v-318h-78zM686 -11q-144 0 -243.5 98.5t-99.5 245.5q0 130 82 215v-215q0 -116 74.5 -194t185.5 -78
q63 0 118 26.5t93 67.5v-92q-87 -74 -210 -74z" />
    <glyph glyph-name="uni042F" unicode="&#x42f;" horiz-adv-x="618" 
d="M528 660v-660h-78v590h-143q-68 0 -106.5 -38t-38.5 -97q0 -60 38 -97.5t107 -37.5h94v-70h-94q-104 0 -165 57t-61 148t61.5 148t164.5 57h221zM174 216l80 -15l-136 -201h-89z" />
    <glyph glyph-name="uni0430" unicode="&#x430;" horiz-adv-x="539" 
d="M260 498q86 0 138 -51t52 -147v-300h-77v304q0 60 -31.5 91.5t-86.5 31.5q-82 0 -142 -78l-51 42q67 107 198 107zM324 262v-63h-97q-104 0 -104 -70q0 -38 29.5 -57t74.5 -19q47 0 97 28v-63q-46 -29 -114 -29q-70 0 -118 37.5t-48 99.5q0 61 48 98.5t128 37.5h104z" />
    <glyph glyph-name="uni0431" unicode="&#x431;" horiz-adv-x="623" 
d="M498 761l19 -68l-128 -40q-101 -32 -155 -74.5t-73 -122.5l-88 -44q16 130 88 199t211 112zM327 480q102 0 174 -70.5t72 -172.5q0 -108 -79 -174v169q0 77 -50 127t-122 50q-69 0 -123 -49v79q57 41 128 41zM150 400v-165q0 -76 49 -125.5t122 -49.5q67 0 124 42v-78
q-53 -35 -126 -35q-104 0 -176 70t-72 168q0 52 22 98t57 75z" />
    <glyph glyph-name="uni0432" unicode="&#x432;" horiz-adv-x="549" 
d="M310 487q71 0 113 -34t42 -95q0 -62 -42.5 -100t-112.5 -38h-93v68h89q85 0 85 66q0 64 -85 64h-138v-350h155q48 0 75 21.5t27 56.5q0 27 -20 48l55 36q38 -35 38 -86q0 -64 -45.5 -104t-122.5 -40h-239v487h219z" />
    <glyph glyph-name="uni0433" unicode="&#x433;" horiz-adv-x="442" 
d="M430 487v-68h-339v68h339zM168 369v-369h-77v369h77z" />
    <glyph glyph-name="uni0434" unicode="&#x434;" horiz-adv-x="621" 
d="M423 117v301h-237v69h314v-370h-77zM179 68h402v-209h-77v141h-387v-141h-77v209h51q95 93 95 301h77q0 -211 -84 -301z" />
    <glyph glyph-name="uni0435" unicode="&#x435;" horiz-adv-x="571" 
d="M182 220v68h260q-1 65 -42.5 102.5t-102.5 37.5q-72 0 -120 -52t-48 -132q0 -82 50.5 -133t129.5 -51q83 0 149 66l45 -52q-80 -85 -195 -85q-110 0 -184 73t-74 181q0 107 72 181t177 74q95 0 158.5 -62t63.5 -158q0 -31 -6 -58h-333z" />
    <glyph glyph-name="uni0436" unicode="&#x436;" horiz-adv-x="775" 
d="M39 487h93l179 -218l-199 -269h-92l202 273zM349 0v487h77v-487h-77zM553 273l201 -273h-92l-199 269l179 218h94z" />
    <glyph glyph-name="uni0437" unicode="&#x437;" horiz-adv-x="498" 
d="M159 224v68h90q41 0 63.5 18.5t22.5 48.5q0 31 -24 49.5t-73 18.5q-84 0 -133 -60l-51 46q60 85 184 85q81 0 128.5 -37t47.5 -98t-46.5 -100t-114.5 -39h-94zM242 -11q-130 0 -197 94l52 46q52 -69 143 -69q55 0 86 23t31 60q0 33 -19 55l59 29q39 -34 39 -91
q0 -66 -54 -106.5t-140 -40.5z" />
    <glyph glyph-name="uni0438" unicode="&#x438;" horiz-adv-x="598" 
d="M507 498v-69l-388 -440h-28v68l388 441h28zM168 487v-266l-77 -87v353h77zM507 353v-353h-77v266z" />
    <glyph glyph-name="uni0439" unicode="&#x439;" horiz-adv-x="598" 
d="M297 584q-66 0 -109 43.5t-43 108.5h65q0 -41 24.5 -66t62.5 -25t63 25t25 66h64q0 -65 -43 -108.5t-109 -43.5zM507 498v-69l-388 -440h-28v68l388 441h28zM168 487v-266l-77 -87v353h77zM507 353v-353h-77v266z" />
    <glyph glyph-name="uni043A" unicode="&#x43a;" horiz-adv-x="519" 
d="M91 0v487h77v-487h-77zM293 270l206 -270h-95l-198 270l179 217h95z" />
    <glyph glyph-name="uni043B" unicode="&#x43b;" horiz-adv-x="558" 
d="M468 487l-1 -487h-76v418h-249v69h326zM219 369v-12q0 -182 -53 -263.5t-151 -98.5v69q64 22 95.5 92t31.5 207v6h77z" />
    <glyph glyph-name="uni043C" unicode="&#x43c;" horiz-adv-x="698" 
d="M607 498v-72l-243 -295h-30l-243 295v72h28l230 -274l231 274h27zM91 368l77 -92v-276h-77v368zM607 368v-368h-77v276z" />
    <glyph glyph-name="uni043D" unicode="&#x43d;" horiz-adv-x="585" 
d="M168 487v-487h-77v487h77zM494 487v-487h-78l1 225h-200v68h200v194h77z" />
    <glyph glyph-name="uni043E" unicode="&#x43e;" horiz-adv-x="610" 
d="M305 498q107 0 181 -74t74 -182q0 -113 -79 -180v180q0 80 -50.5 132.5t-126.5 52.5q-68 0 -125 -43v79q55 35 126 35zM129 425v-180q0 -80 51 -132.5t127 -52.5q65 0 125 42v-78q-54 -35 -126 -35q-107 0 -181.5 74t-74.5 182q0 111 79 180z" />
    <glyph glyph-name="uni043F" unicode="&#x43f;" horiz-adv-x="578" 
d="M488 487v-487h-77v418h-320v69h397zM168 369v-369h-77v369h77z" />
    <glyph glyph-name="uni0440" unicode="&#x440;" horiz-adv-x="638" 
d="M348 498q103 0 171.5 -73t68.5 -181t-68.5 -181.5t-171.5 -73.5q-72 0 -131 37v77q57 -43 123 -43q72 0 120.5 52.5t48.5 131.5t-48.5 131t-120.5 52q-64 0 -123 -43v77q62 37 131 37zM168 487v-667h-77v667h77z" />
    <glyph glyph-name="uni0441" unicode="&#x441;" horiz-adv-x="551" 
d="M451 348q-59 79 -145 79q-68 0 -127 -43v79q55 35 126 35q130 0 201 -106zM305 -11q-107 0 -181 74t-74 182q0 111 79 180v-180q0 -80 50.5 -132.5t126.5 -52.5q86 0 144 78l55 -43q-71 -106 -200 -106z" />
    <glyph glyph-name="uni0442" unicode="&#x442;" horiz-adv-x="464" 
d="M443 487v-69h-423v69h423zM271 369v-369h-77v369h77z" />
    <glyph glyph-name="uni0443" unicode="&#x443;" horiz-adv-x="539" 
d="M200 80l-174 407h83l132 -311zM108 -191q-35 0 -75 10v65q38 -5 60 -5q38 0 64.5 17t44.5 61l229 530h82l-239 -554q-54 -124 -166 -124z" />
    <glyph glyph-name="uni0444" unicode="&#x444;" horiz-adv-x="730" 
d="M326 -180v930h77v-930h-77zM277 -7q-102 12 -164.5 80t-62.5 170t62.5 169.5t164.5 80.5v-72q-71 -14 -109.5 -59.5t-38.5 -118.5t38.5 -120.5t109.5 -58.5v-71zM452 -7v71q71 11 110 58.5t39 120.5t-39 118.5t-110 59.5v72q102 -13 165 -80.5t63 -169.5t-63 -170
t-165 -80z" />
    <glyph glyph-name="uni0445" unicode="&#x445;" horiz-adv-x="497" 
d="M387 0l-352 487h89l352 -487h-89zM322 295l-43 60l94 132h89zM20 0l153 212l43 -61l-106 -151h-90z" />
    <glyph glyph-name="uni0446" unicode="&#x446;" horiz-adv-x="594" 
d="M168 487v-419h386v-209h-77v141h-386v487h77zM475 487v-370h-77v370h77z" />
    <glyph glyph-name="uni0447" unicode="&#x447;" horiz-adv-x="544" 
d="M127 487v-99q0 -149 145 -149q32 0 56 5v-71q-35 -7 -63 -7q-96 0 -155.5 56.5t-59.5 161.5v103h77zM454 487v-487h-77v487h77z" />
    <glyph glyph-name="uni0448" unicode="&#x448;" horiz-adv-x="861" 
d="M771 487v-487h-680v487h77v-419h526v419h77zM469 487v-369h-77v369h77z" />
    <glyph glyph-name="uni0449" unicode="&#x449;" horiz-adv-x="891" 
d="M167 487l1 -419h682v-209h-77v141h-682v487h76zM469 487l1 -370h-77l-1 370h77zM770 487l1 -370h-77l-1 370h77z" />
    <glyph glyph-name="uni044A" unicode="&#x44a;" horiz-adv-x="566" 
d="M110 0v418h-110v69h187v-419h131q53 0 83 26t30 70t-30 70.5t-83 26.5h-82v69h88q85 0 135.5 -45t50.5 -120t-50.5 -120t-135.5 -45h-214z" />
    <glyph glyph-name="uni044B" unicode="&#x44b;" horiz-adv-x="779" 
d="M91 0v487h77v-419h131q53 0 83 26t30 70t-30 70.5t-83 26.5h-82v69h88q85 0 135.5 -45t50.5 -120t-50.5 -120t-135.5 -45h-214zM611 0v487h77v-487h-77z" />
    <glyph glyph-name="uni044C" unicode="&#x44c;" horiz-adv-x="547" 
d="M168 487v-419h131q53 0 83 26t30 70t-30 70.5t-83 26.5h-82v69h88q85 0 135.5 -45t50.5 -120t-50.5 -120t-135.5 -45h-214v487h77z" />
    <glyph glyph-name="uni044D" unicode="&#x44d;" horiz-adv-x="551" 
d="M246 -11q-129 0 -200 106l54 43q58 -78 145 -78q76 0 126.5 53t50.5 131q0 77 -50.5 130t-126.5 53q-87 0 -146 -79l-54 44q73 106 201 106q107 0 181 -74t74 -180q0 -107 -74 -181t-181 -74zM180 216v68h196v-68h-196z" />
    <glyph glyph-name="uni044E" unicode="&#x44e;" horiz-adv-x="850" 
d="M721 62v180q0 80 -50.5 132.5t-126.5 52.5q-67 0 -126 -43v79q57 35 127 35q107 0 180.5 -74t73.5 -182q0 -112 -78 -180zM91 0v488h77v-195h88v-68h-88v-225h-77zM546 -11q-107 0 -181.5 74t-74.5 182q0 113 79 180v-180q0 -80 51 -132.5t127 -52.5q66 0 124 42v-78
q-53 -35 -125 -35z" />
    <glyph glyph-name="uni044F" unicode="&#x44f;" horiz-adv-x="562" 
d="M471 487v-487h-77v418h-131q-53 0 -83.5 -26t-30.5 -70t30.5 -70.5t83.5 -26.5h82v-68h-88q-85 0 -136 45t-51 119q0 75 51 120.5t136 45.5h214zM133 126l77 -14l-98 -112h-86z" />
    <glyph glyph-name="uni0450" unicode="&#x450;" horiz-adv-x="571" 
d="M332 566h-59l-120 200v14h94zM182 220v68h260q-1 65 -42.5 102.5t-102.5 37.5q-72 0 -120 -52t-48 -132q0 -82 50.5 -133t129.5 -51q83 0 149 66l45 -52q-80 -85 -195 -85q-110 0 -184 73t-74 181q0 107 72 181t177 74q95 0 158.5 -62t63.5 -158q0 -31 -6 -58h-333z" />
    <glyph glyph-name="uni0451" unicode="&#x451;" horiz-adv-x="571" 
d="M193 620q-21 0 -38 16t-17 37q0 22 17 38t38 16q23 0 39 -15.5t16 -38.5q0 -22 -16 -37.5t-39 -15.5zM405 620q-21 0 -38 16t-17 37q0 22 17 38t38 16q23 0 39 -15.5t16 -38.5q0 -22 -16 -37.5t-39 -15.5zM182 220v68h260q-1 65 -42.5 102.5t-102.5 37.5q-72 0 -120 -52
t-48 -132q0 -82 50.5 -133t129.5 -51q83 0 149 66l45 -52q-80 -85 -195 -85q-110 0 -184 73t-74 181q0 107 72 181t177 74q95 0 158.5 -62t63.5 -158q0 -31 -6 -58h-333z" />
    <glyph glyph-name="uni0452" unicode="&#x452;" horiz-adv-x="580" 
d="M366 581h-200v-581h-77v581h-84v64h84v105h77v-105h200v-64zM313 484q83 0 131 -52.5t48 -138.5v-326q0 -80 -43.5 -119t-116.5 -39q-34 0 -61 8v65q24 -3 45 -3q100 0 100 93v313q0 57 -33 92.5t-89 35.5q-41 0 -79 -20v67q43 24 98 24z" />
    <glyph glyph-name="uni0453" unicode="&#x453;" horiz-adv-x="442" 
d="M213 566l85 214h94v-14l-120 -200h-59zM430 487v-68h-339v68h339zM168 369v-369h-77v369h77z" />
    <glyph glyph-name="uni0454" unicode="&#x454;" horiz-adv-x="556" 
d="M305 -11q-107 0 -181 74t-74 181q0 106 74 180t181 74q130 0 201 -106l-54 -44q-59 79 -146 79q-76 0 -126.5 -53t-50.5 -130q0 -78 50.5 -131t126.5 -53q86 0 145 78l54 -43q-71 -106 -200 -106zM175 216v68h196v-68h-196z" />
    <glyph glyph-name="uni0455" unicode="&#x455;" horiz-adv-x="454" 
d="M348 373q-51 54 -119 54q-12 0 -34 -4v69q19 6 43 6q96 0 157 -77zM321 9v110q0 35 -20 52.5t-65 35.5l-47 20q-61 25 -91 56t-30 80q0 41 21 71t57 44v-92q0 -38 17.5 -55t62.5 -36l45 -19q70 -30 99.5 -62t29.5 -82q0 -86 -79 -123zM225 -11q-58 0 -106 26.5t-80 68.5
l49 51q70 -75 140 -75q22 0 45 5v-69q-21 -7 -48 -7z" />
    <glyph glyph-name="uni0456" unicode="&#x456;" horiz-adv-x="268" 
d="M135 617q-24 0 -41 16t-17 40q0 23 17 39.5t41 16.5q23 0 40 -16.5t17 -39.5q0 -24 -16.5 -40t-40.5 -16zM173 487v-487h-77v487h77z" />
    <glyph glyph-name="uni0457" unicode="&#x457;" horiz-adv-x="268" 
d="M38 722q23 0 39 -16t16 -38t-16 -37.5t-39 -15.5q-22 0 -38.5 15.5t-16.5 37.5t16.5 38t38.5 16zM230 722q23 0 39 -15.5t16 -38.5q0 -22 -16 -37.5t-39 -15.5q-22 0 -38.5 15.5t-16.5 37.5t16.5 38t38.5 16zM173 487v-487h-77v487h77z" />
    <glyph glyph-name="uni0458" unicode="&#x458;" horiz-adv-x="268" 
d="M135 617q-24 0 -41 16t-17 40q0 23 17 39.5t41 16.5q23 0 40 -16.5t17 -39.5q0 -24 -16.5 -40t-40.5 -16zM173 487v-520q0 -80 -43.5 -119t-116.5 -39q-33 0 -62 8v65q25 -3 45 -3q100 0 100 93v515h77z" />
    <glyph glyph-name="uni0459" unicode="&#x459;" horiz-adv-x="847" 
d="M392 0v418h-250v69h326v-419h132q53 0 83 26t30 70t-30 70.5t-83 26.5h-82v69h88q85 0 135.5 -45t50.5 -120t-50.5 -120t-135.5 -45h-214zM15 -5v69q65 22 96 91.5t31 209.5v4h77v-10q0 -183 -53 -265t-151 -99z" />
    <glyph glyph-name="uni045A" unicode="&#x45a;" horiz-adv-x="866" 
d="M91 0v487h77v-487h-77zM409 0v236h-192v68h192v183h77v-419h132q54 0 83.5 23t29.5 65q0 40 -30 64t-83 24h-83v68h88q86 0 136.5 -42t50.5 -113q0 -74 -50 -115.5t-137 -41.5h-214z" />
    <glyph glyph-name="uni045B" unicode="&#x45b;" horiz-adv-x="580" 
d="M365 580h-200v-580h-77v580h-83v68h83v102h77v-102h200v-68zM310 484q81 0 131.5 -53.5t50.5 -137.5v-293h-77v285q0 57 -33 92.5t-88 35.5q-42 0 -80 -20v67q43 24 96 24z" />
    <glyph glyph-name="uni045C" unicode="&#x45c;" horiz-adv-x="519" 
d="M419 766l-120 -200h-59l85 214h94v-14zM91 0v487h77v-487h-77zM293 270l206 -270h-95l-198 270l179 217h95z" />
    <glyph glyph-name="uni045D" unicode="&#x45d;" horiz-adv-x="598" 
d="M270 566l-120 200v14h94l85 -214h-59zM507 498v-69l-388 -440h-28v68l388 441h28zM168 487v-266l-77 -87v353h77zM507 353v-353h-77v266z" />
    <glyph glyph-name="uni045E" unicode="&#x45e;" horiz-adv-x="539" 
d="M269 584q-66 0 -109 43.5t-43 108.5h65q0 -41 24.5 -66t62.5 -25t63 25t25 66h64q0 -65 -43 -108.5t-109 -43.5zM200 80l-174 407h83l132 -311zM108 -191q-35 0 -75 10v65q38 -5 60 -5q38 0 64.5 17t44.5 61l229 530h82l-239 -554q-54 -124 -166 -124z" />
    <glyph glyph-name="uni045F" unicode="&#x45f;" horiz-adv-x="566" 
d="M168 487v-419h308v-68h-154v-141h-77v141h-154v487h77zM399 487h77v-370h-77v370z" />
    <glyph glyph-name="uni0462" unicode="&#x462;" horiz-adv-x="623" 
d="M169 660v-93h277v-68h-438v68h83v93h78zM169 451v-381h183q66 0 103 34.5t37 88.5q0 55 -37 90.5t-103 35.5h-134v70h135q103 0 161 -54.5t58 -141.5t-58 -140t-162 -53h-261v451h78z" />
    <glyph glyph-name="uni0463" unicode="&#x463;" horiz-adv-x="544" 
d="M164 750v-263h206v-69h-365v69h83v263h76zM165 369v-301h132q54 0 83.5 25.5t29.5 67.5q0 43 -29.5 69t-83.5 26h-83v68h89q85 0 135.5 -44t50.5 -118q0 -73 -50.5 -117.5t-135.5 -44.5h-215v369h77z" />
    <glyph glyph-name="uni0472" unicode="&#x472;" horiz-adv-x="781" 
d="M733 327q0 -130 -80 -215v192q-36 -9 -71 -9q-49 0 -126.5 23t-122.5 23q-65 0 -150 -38v69q81 39 150 39q48 0 125.5 -23t123.5 -23q28 0 68 7q-15 100 -87 163.5t-172 63.5q-64 0 -119 -26.5t-93 -67.5v92q87 74 211 74q144 0 243.5 -98.5t99.5 -245.5zM390 61
q63 0 118.5 26.5t94.5 67.5v-92q-88 -74 -212 -74q-144 0 -243.5 98.5t-99.5 245.5q0 129 81 215v-215q0 -116 75 -194t186 -78z" />
    <glyph glyph-name="uni0473" unicode="&#x473;" horiz-adv-x="610" 
d="M305 498q107 0 181 -74t74 -182q0 -113 -79 -180v144q-5 -1 -14 -1q-36 0 -92.5 17.5t-89.5 17.5q-49 0 -108 -28v55q56 28 108 28q35 0 91.5 -17t90.5 -17h13q-6 73 -55 119.5t-121 46.5q-68 0 -125 -43v79q55 35 126 35zM129 245q0 -80 51 -132.5t127 -52.5
q65 0 125 42v-78q-54 -35 -126 -35q-107 0 -181.5 74t-74.5 182q0 111 79 180v-180z" />
    <glyph glyph-name="uni0474" unicode="&#x474;" horiz-adv-x="687" 
d="M641 671q21 0 47 -8v-67q-16 3 -30 3q-51 0 -82 -69l-175 -412l-42 99l147 350q45 104 135 104zM117 660l257 -605l-28 -66h-29l-286 671h86z" />
    <glyph glyph-name="uni0475" unicode="&#x475;" horiz-adv-x="548" 
d="M338 107l-39 86l98 213q39 87 108 87q23 0 43 -6v-66q-13 1 -25 1q-39 0 -63 -49zM256 -11l-230 498h82l203 -440l-27 -58h-28z" />
    <glyph glyph-name="uni0490" unicode="&#x490;" horiz-adv-x="489" 
d="M465 781v-191h-374v70h296v121h78zM169 541v-541h-78v541h78z" />
    <glyph glyph-name="uni0491" unicode="&#x491;" horiz-adv-x="448" 
d="M436 612v-194h-345v69h268v125h77zM168 370v-370h-77v370h77z" />
    <glyph glyph-name="uni0492" unicode="&#x492;" horiz-adv-x="497" 
d="M96 660h382v-70h-382v70zM174 541v-178h255v-71h-255v-292h-78v292h-100v71h100v178h78z" />
    <glyph glyph-name="uni0493" unicode="&#x493;" horiz-adv-x="465" 
d="M88 487h358v-69h-358v69zM165 369v-100h239v-69h-239v-200h-77v200h-83v69h83v100h77z" />
    <glyph glyph-name="uni0496" unicode="&#x496;" horiz-adv-x="954" 
d="M30 0l280 355l-253 305h97l252 -306l-280 -354h-96zM444 0v660h78v-660h-78zM865 -141l-1 141h-24l-280 354l252 306h97l-253 -305l226 -287h60v-209h-77z" />
    <glyph glyph-name="uni0497" unicode="&#x497;" horiz-adv-x="805" 
d="M20 0l202 273l-183 214h93l179 -218l-199 -269h-92zM349 0v487h77v-487h-77zM687 -141v141h-25l-199 269l179 218h94l-183 -214l151 -205h60v-209h-77z" />
    <glyph glyph-name="uni0498" unicode="&#x498;" horiz-adv-x="582" 
d="M182 314v71h113q55 0 83.5 29t28.5 75q0 49 -31.5 79.5t-88.5 30.5q-98 0 -161 -90l-56 42q33 55 90 87.5t127 32.5q89 0 145 -51t56 -128q0 -76 -53 -127t-141 -51h-112zM298 -11q-82 0 -146.5 39t-103.5 106l57 42q74 -115 192 -115q67 0 112 37.5t45 95.5q0 59 -46 93
l58 42q68 -49 68 -138q0 -88 -67.5 -145t-168.5 -57zM228 -191q-34 0 -69 10v55q31 -4 55 -4q35 0 57 15t22 42q0 11 -1 19h64q3 -8 3 -23q0 -48 -35.5 -81t-95.5 -33z" />
    <glyph glyph-name="uni0499" unicode="&#x499;" horiz-adv-x="498" 
d="M159 224v68h90q41 0 63.5 18.5t22.5 48.5q0 31 -24 49.5t-73 18.5q-84 0 -133 -60l-51 46q60 85 184 85q81 0 128.5 -37t47.5 -98t-46.5 -100t-114.5 -39h-94zM242 -11q-130 0 -197 94l52 46q52 -69 143 -69q55 0 86 23t31 60q0 33 -19 55l59 29q39 -34 39 -91
q0 -66 -54 -106.5t-140 -40.5zM185 -191q-34 0 -69 10v55q31 -4 55 -4q35 0 57 15t22 42q0 11 -1 19h64q3 -8 3 -23q0 -48 -35.5 -81t-95.5 -33z" />
    <glyph glyph-name="uni049A" unicode="&#x49a;" horiz-adv-x="629" 
d="M169 660v-660h-78v660h78zM575 660l-271 -305l239 -285h74v-211h-78v141h-34l-298 354l273 306h95z" />
    <glyph glyph-name="uni049B" unicode="&#x49b;" horiz-adv-x="549" 
d="M91 0v487h77v-487h-77zM432 -141v141h-29l-198 270l179 217h95l-186 -217l154 -203l62 -1v-207h-77z" />
    <glyph glyph-name="uni04A0" unicode="&#x4a0;" horiz-adv-x="661" 
d="M118 0v592h-118v68h197v-660h-79zM534 0l-300 354l272 306h96l-270 -305l298 -355h-96z" />
    <glyph glyph-name="uni04A1" unicode="&#x4a1;" horiz-adv-x="540" 
d="M0 418v69h187v-487h-77v418h-110zM314 270l206 -270h-95l-198 270l179 217h95z" />
    <glyph glyph-name="uni04A2" unicode="&#x4a2;" horiz-adv-x="730" 
d="M169 660v-660h-78v660h78zM617 660v-590h80v-211h-78v141h-80v318h-321v70h321v272h78z" />
    <glyph glyph-name="uni04A3" unicode="&#x4a3;" horiz-adv-x="617" 
d="M168 487v-487h-77v487h77zM494 487v-419h83v-209h-77v141h-83v225h-200v68h200v194h77z" />
    <glyph glyph-name="uni04AA" unicode="&#x4aa;" horiz-adv-x="715" 
d="M607 483q-79 116 -216 116q-64 0 -119 -26.5t-93 -67.5v92q87 74 212 74q88 0 160 -38.5t114 -103.5zM391 -11q-144 0 -243.5 98.5t-99.5 245.5q0 129 81 215v-215q0 -116 75.5 -194t186.5 -78q137 0 216 116l58 -46q-41 -65 -113.5 -103.5t-160.5 -38.5zM329 -191
q-34 0 -69 10v55q31 -4 55 -4q35 0 57 15t22 42q0 11 -1 19h64q3 -8 3 -23q0 -48 -35.5 -81t-95.5 -33z" />
    <glyph glyph-name="uni04AB" unicode="&#x4ab;" horiz-adv-x="551" 
d="M451 348q-59 79 -145 79q-68 0 -127 -43v79q55 35 126 35q130 0 201 -106zM305 -11q-107 0 -181 74t-74 182q0 111 79 180v-180q0 -80 50.5 -132.5t126.5 -52.5q86 0 144 78l55 -43q-71 -106 -200 -106zM242 -191q-34 0 -69 10v55q31 -4 55 -4q35 0 57 15t22 42
q0 11 -1 19h64q3 -8 3 -23q0 -48 -35.5 -81t-95.5 -33z" />
    <glyph glyph-name="uni04AE" unicode="&#x4ae;" horiz-adv-x="616" 
d="M128 660l219 -370v-290h-78v274l-229 386h88zM576 660l-199 -327l-41 71l153 256h87z" />
    <glyph glyph-name="uni04AF" unicode="&#x4af;" horiz-adv-x="533" 
d="M105 487l201 -444v-223h-77v209l-206 458h82zM510 487l-174 -391l-39 86l131 305h82z" />
    <glyph glyph-name="uni04B0" unicode="&#x4b0;" horiz-adv-x="625" 
d="M132 660l219 -379h199v-70h-198v-211h-78v211h-198v70h189l-220 379h87zM581 660l-200 -339l-42 71l155 268h87z" />
    <glyph glyph-name="uni04B1" unicode="&#x4b1;" horiz-adv-x="551" 
d="M114 487l188 -419h169v-68h-156v-180h-77v180h-158v68h140l-187 419h81zM519 487l-173 -388l-39 88l130 300h82z" />
    <glyph glyph-name="uni04B2" unicode="&#x4b2;" horiz-adv-x="596" 
d="M136 660l387 -592h61v-209h-77v141h-29l-432 660h90zM553 660l-178 -276l-44 68l132 208h90zM228 295l43 -67l-150 -228h-91z" />
    <glyph glyph-name="uni04B3" unicode="&#x4b3;" horiz-adv-x="535" 
d="M426 68h68v-209h-77v141h-28l-354 487h87zM462 487l-141 -193l-42 60l95 133h88zM20 0l153 213l43 -61l-108 -152h-88z" />
    <glyph glyph-name="uni04B6" unicode="&#x4b6;" horiz-adv-x="646" 
d="M126 660v-154q0 -97 52 -147.5t141 -50.5q45 0 87 9v-72q-52 -10 -93 -10q-120 0 -192.5 69t-72.5 196v160h78zM533 660v-590h79v-211h-78v141h-79v660h78z" />
    <glyph glyph-name="uni04B7" unicode="&#x4b7;" horiz-adv-x="573" 
d="M127 487v-99q0 -149 145 -149q32 0 56 5v-71q-35 -7 -63 -7q-96 0 -155.5 56.5t-59.5 161.5v103h77zM454 487v-419h78v-209h-77v141h-78v487h77z" />
    <glyph glyph-name="uni04BA" unicode="&#x4ba;" horiz-adv-x="623" 
d="M169 660v-660h-78v660h78zM300 415q114 0 174.5 -68.5t60.5 -187.5v-159h-78v157q0 185 -162 185q-42 0 -77 -8v71q39 10 82 10z" />
    <glyph glyph-name="uni04BB" unicode="&#x4bb;" horiz-adv-x="583" 
d="M91 0v750h77v-750h-77zM417 0v297q0 60 -32.5 95t-88.5 35q-41 0 -79 -20v66q42 25 98 25q83 0 131 -53t48 -139v-306h-77z" />
    <glyph glyph-name="uni04C0" unicode="&#x4c0;" horiz-adv-x="259" 
d="M169 660v-660h-78v660h78z" />
    <glyph glyph-name="uni04C1" unicode="&#x4c1;" horiz-adv-x="966" 
d="M480 739q-66 0 -109 43.5t-43 109.5h65q0 -42 24.5 -67t62.5 -25t62.5 25t24.5 67h65q0 -66 -43 -109.5t-109 -43.5zM30 0l280 355l-253 305h97l252 -306l-280 -354h-96zM444 0v660h78v-660h-78zM840 0l-280 354l252 306h97l-253 -305l280 -355h-96z" />
    <glyph glyph-name="uni04C2" unicode="&#x4c2;" horiz-adv-x="775" 
d="M388 584q-66 0 -109 43.5t-43 108.5h65q0 -41 24.5 -66t62.5 -25t63 25t25 66h64q0 -65 -43 -108.5t-109 -43.5zM39 487h93l179 -218l-199 -269h-92l202 273zM349 0v487h77v-487h-77zM553 273l201 -273h-92l-199 269l179 218h94z" />
    <glyph glyph-name="uni04CF" unicode="&#x4cf;" horiz-adv-x="258" 
d="M168 750v-750h-77v750h77z" />
    <glyph glyph-name="uni04D0" unicode="&#x4d0;" horiz-adv-x="663" 
d="M332 739q-66 0 -109 43.5t-43 109.5h65q0 -42 24.5 -67t62.5 -25t62.5 25t24.5 67h65q0 -66 -43 -109.5t-109 -43.5zM549 0l-260 608l28 63h29l286 -671h-83zM31 0l232 545l41 -97l-105 -244h210l30 -70h-270l-56 -134h-82z" />
    <glyph glyph-name="uni04D1" unicode="&#x4d1;" horiz-adv-x="539" 
d="M259 584q-66 0 -109 43.5t-43 108.5h65q0 -41 24.5 -66t62.5 -25t63 25t25 66h64q0 -65 -43 -108.5t-109 -43.5zM260 498q86 0 138 -51t52 -147v-300h-77v304q0 60 -31.5 91.5t-86.5 31.5q-82 0 -142 -78l-51 42q67 107 198 107zM324 262v-63h-97q-104 0 -104 -70
q0 -38 29.5 -57t74.5 -19q47 0 97 28v-63q-46 -29 -114 -29q-70 0 -118 37.5t-48 99.5q0 61 48 98.5t128 37.5h104z" />
    <glyph glyph-name="uni04D4" unicode="&#x4d4;" horiz-adv-x="821" 
d="M535 70h246v-70h-314l-112 660h414v-70h-322zM383 204l12 -70h-228l-70 -134h-84l305 586l21 -120l-136 -262h180zM689 318h-146l-11 70h157v-70z" />
    <glyph glyph-name="uni04D5" unicode="&#x4d5;" horiz-adv-x="895" 
d="M632 60q82 0 147 65l46 -51q-76 -85 -192 -85q-106 0 -180.5 71.5t-74.5 179.5v64q0 59 -33 91t-90 32q-82 0 -142 -78l-51 42q67 107 198 107q88 0 140.5 -51t52.5 -143v-60q0 -81 50 -132.5t129 -51.5zM624 498q94 0 157 -62t63 -159q0 -43 -7 -66h-336v63h263
q4 71 -38 112.5t-106 41.5q-75 0 -124 -54l-35 59q68 65 163 65zM229 54q73 0 126 60l36 -49q-61 -76 -174 -76q-77 0 -125 38.5t-48 103.5t49.5 104t129.5 39h106v-63h-100q-106 0 -106 -75q0 -42 31.5 -62t74.5 -20z" />
    <glyph glyph-name="uni04D6" unicode="&#x4d6;" horiz-adv-x="566" 
d="M297 739q-66 0 -109 43.5t-43 109.5h65q0 -42 24.5 -67t62.5 -25t62.5 25t24.5 67h65q0 -66 -43 -109.5t-109 -43.5zM91 0v660h423v-70h-345v-520h357v-70h-435zM218 320v67h216v-67h-216z" />
    <glyph glyph-name="uni04D7" unicode="&#x4d7;" horiz-adv-x="571" 
d="M300 584q-66 0 -109 43.5t-43 108.5h65q0 -41 24.5 -66t62.5 -25t63 25t25 66h64q0 -65 -43 -108.5t-109 -43.5zM182 220v68h260q-1 65 -42.5 102.5t-102.5 37.5q-72 0 -120 -52t-48 -132q0 -82 50.5 -133t129.5 -51q83 0 149 66l45 -52q-80 -85 -195 -85q-110 0 -184 73
t-74 181q0 107 72 181t177 74q95 0 158.5 -62t63.5 -158q0 -31 -6 -58h-333z" />
    <glyph glyph-name="uni04D8" unicode="&#x4d8;" horiz-adv-x="731" 
d="M683 328q0 -129 -80 -217v218q0 117 -72.5 193t-180.5 76q-65 0 -121 -29t-94 -81l-55 45q46 64 116.5 101t153.5 37q141 0 237 -99.5t96 -243.5zM349 61q121 0 206 94v-92q-87 -74 -207 -74q-127 0 -213.5 82t-86.5 216q0 35 6 65h496v-67h-424q-4 -102 62 -163t161 -61
z" />
    <glyph glyph-name="uni04D9" unicode="&#x4d9;" horiz-adv-x="571" 
d="M263 498q110 0 184 -73t74 -181q0 -107 -72 -181t-177 -74q-94 0 -158 62t-64 158q0 28 6 58h335v-68h-262q1 -65 42.5 -103t102.5 -38q73 0 120.5 52t47.5 133q0 82 -50.5 133t-129.5 51q-83 0 -149 -66l-45 52q80 85 195 85z" />
    <glyph glyph-name="uni04E2" unicode="&#x4e2;" horiz-adv-x="718" 
d="M207 770v63h295v-63h-295zM627 671v-76l-508 -606h-28v76l508 606h28zM169 660v-426l-78 -92v518h78zM627 518v-518h-78v426z" />
    <glyph glyph-name="uni04E3" unicode="&#x4e3;" horiz-adv-x="598" 
d="M159 642v62h275v-62h-275zM507 498v-69l-388 -440h-28v68l388 441h28zM168 487v-266l-77 -87v353h77zM507 353v-353h-77v266z" />
    <glyph glyph-name="uni04E6" unicode="&#x4e6;" horiz-adv-x="781" 
d="M274 757q-22 0 -38.5 15.5t-16.5 37.5t16.5 37.5t38.5 15.5q23 0 39 -15.5t16 -37.5t-16 -37.5t-39 -15.5zM507 756q-22 0 -38.5 15.5t-16.5 37.5t16.5 38t38.5 16q23 0 39 -16t16 -38t-16 -37.5t-39 -15.5zM390 671q144 0 243.5 -98.5t99.5 -245.5q0 -130 -80 -215v215
q0 117 -75.5 194.5t-186.5 77.5q-64 0 -119 -26.5t-93 -67.5v92q87 74 211 74zM129 548v-215q0 -116 75 -194t186 -78q63 0 118.5 26.5t94.5 67.5v-92q-88 -74 -212 -74q-144 0 -243.5 98.5t-99.5 245.5q0 129 81 215z" />
    <glyph glyph-name="uni04E7" unicode="&#x4e7;" horiz-adv-x="610" 
d="M199 620q-21 0 -38 16t-17 37q0 22 17 38t38 16q23 0 39 -15.5t16 -38.5q0 -22 -16 -37.5t-39 -15.5zM411 620q-21 0 -38 16t-17 37q0 22 17 38t38 16q23 0 39 -15.5t16 -38.5q0 -22 -16 -37.5t-39 -15.5zM305 498q107 0 181 -74t74 -182q0 -113 -79 -180v180
q0 80 -50.5 132.5t-126.5 52.5q-68 0 -125 -43v79q55 35 126 35zM129 425v-180q0 -80 51 -132.5t127 -52.5q65 0 125 42v-78q-54 -35 -126 -35q-107 0 -181.5 74t-74.5 182q0 111 79 180z" />
    <glyph glyph-name="uni04E8" unicode="&#x4e8;" horiz-adv-x="781" 
d="M733 327q0 -130 -80 -215v206h-473v70h467q-20 94 -90.5 152.5t-165.5 58.5q-64 0 -119 -26.5t-93 -67.5v92q87 74 211 74q144 0 243.5 -98.5t99.5 -245.5zM390 61q63 0 118.5 26.5t94.5 67.5v-92q-88 -74 -212 -74q-144 0 -243.5 98.5t-99.5 245.5q0 129 81 215v-215
q0 -116 75 -194t186 -78z" />
    <glyph glyph-name="uni04E9" unicode="&#x4e9;" horiz-adv-x="610" 
d="M305 498q107 0 181 -74t74 -182q0 -113 -79 -180v154h-300v68h296q-13 64 -60.5 103.5t-112.5 39.5q-68 0 -125 -43v79q55 35 126 35zM129 245q0 -80 51 -132.5t127 -52.5q65 0 125 42v-78q-54 -35 -126 -35q-107 0 -181.5 74t-74.5 182q0 111 79 180v-180z" />
    <glyph glyph-name="uni04EE" unicode="&#x4ee;" horiz-adv-x="610" 
d="M170 770v63h295v-63h-295zM131 660l157 -350l-41 -94l-204 444h88zM580 660l-235 -541q-55 -130 -189 -130q-38 0 -78 10v68q46 -6 64 -6q91 0 128 87l222 512h88z" />
    <glyph glyph-name="uni04EF" unicode="&#x4ef;" horiz-adv-x="539" 
d="M131 642v62h275v-62h-275zM200 80l-174 407h83l132 -311zM108 -191q-35 0 -75 10v65q38 -5 60 -5q38 0 64.5 17t44.5 61l229 530h82l-239 -554q-54 -124 -166 -124z" />
    <glyph glyph-name="uni04F2" unicode="&#x4f2;" horiz-adv-x="610" 
d="M192 724l85 186h83v-14l-113 -172h-55zM374 724l85 186h83v-14l-112 -172h-56zM131 660l157 -350l-41 -94l-204 444h88zM580 660l-235 -541q-55 -130 -189 -130q-38 0 -78 10v68q46 -6 64 -6q91 0 128 87l222 512h88z" />
    <glyph glyph-name="uni04F3" unicode="&#x4f3;" horiz-adv-x="539" 
d="M159 566l85 214h83v-14l-113 -200h-55zM321 566l85 214h83v-14l-112 -200h-56zM200 80l-174 407h83l132 -311zM108 -191q-35 0 -75 10v65q38 -5 60 -5q38 0 64.5 17t44.5 61l229 530h82l-239 -554q-54 -124 -166 -124z" />
    <glyph glyph-name="Wgrave" unicode="&#x1e80;" horiz-adv-x="1066" 
d="M504 724l-121 172v14h94l85 -186h-58zM547 671l247 -618l-23 -64h-29l-209 523l-154 -386l-37 102l177 443h28zM131 660l221 -603l-28 -68h-28l-251 671h86zM1020 660l-200 -537l-42 103l157 434h85z" />
    <glyph glyph-name="wgrave" unicode="&#x1e81;" horiz-adv-x="851" 
d="M399 566l-120 200v14h94l85 -214h-59zM591 -11l-166 368l-111 -247l-35 86l132 302h29l203 -449l-24 -60h-28zM233 -11l-207 498h82l178 -439l-26 -59h-27zM669 111l-39 86l112 290h82z" />
    <glyph glyph-name="Wacute" unicode="&#x1e82;" horiz-adv-x="1066" 
d="M504 724l85 186h94v-14l-120 -172h-59zM547 671l247 -618l-23 -64h-29l-209 523l-154 -386l-37 102l177 443h28zM131 660l221 -603l-28 -68h-28l-251 671h86zM1020 660l-200 -537l-42 103l157 434h85z" />
    <glyph glyph-name="wacute" unicode="&#x1e83;" horiz-adv-x="851" 
d="M397 566l85 214h94v-14l-120 -200h-59zM591 -11l-166 368l-111 -247l-35 86l132 302h29l203 -449l-24 -60h-28zM233 -11l-207 498h82l178 -439l-26 -59h-27zM669 111l-39 86l112 290h82z" />
    <glyph glyph-name="Wdieresis" unicode="&#x1e84;" horiz-adv-x="1066" 
d="M416 757q-22 0 -38.5 15.5t-16.5 37.5t16.5 37.5t38.5 15.5q23 0 39 -15.5t16 -37.5t-16 -37.5t-39 -15.5zM649 756q-22 0 -38.5 15.5t-16.5 37.5t16.5 38t38.5 16q23 0 39 -16t16 -38t-16 -37.5t-39 -15.5zM547 671l247 -618l-23 -64h-29l-209 523l-154 -386l-37 102
l177 443h28zM131 660l221 -603l-28 -68h-28l-251 671h86zM1020 660l-200 -537l-42 103l157 434h85z" />
    <glyph glyph-name="wdieresis" unicode="&#x1e85;" horiz-adv-x="851" 
d="M319 620q-21 0 -38 16t-17 37q0 22 17 38t38 16q23 0 39 -15.5t16 -38.5q0 -22 -16 -37.5t-39 -15.5zM531 620q-21 0 -38 16t-17 37q0 22 17 38t38 16q23 0 39 -15.5t16 -38.5q0 -22 -16 -37.5t-39 -15.5zM591 -11l-166 368l-111 -247l-35 86l132 302h29l203 -449
l-24 -60h-28zM233 -11l-207 498h82l178 -439l-26 -59h-27zM669 111l-39 86l112 290h82z" />
    <glyph glyph-name="uni1E9E" unicode="&#x1e9e;" horiz-adv-x="710" 
d="M358 345v22l137 223h-404v70h518v-23l-179 -292h-72zM91 0v541h78v-541h-78zM444 -11q-111 0 -186 85l47 56q60 -69 136 -69q60 0 99 39.5t39 100.5q0 49 -26.5 83t-72.5 49l36 65q65 -22 104.5 -74t39.5 -123q0 -93 -63 -152.5t-153 -59.5z" />
    <glyph glyph-name="Ygrave" unicode="&#x1ef2;" horiz-adv-x="616" 
d="M279 724l-121 172v14h94l85 -186h-58zM128 660l219 -370v-290h-78v274l-229 386h88zM576 660l-199 -327l-41 71l153 256h87z" />
    <glyph glyph-name="ygrave" unicode="&#x1ef3;" horiz-adv-x="539" 
d="M242 566l-120 200v14h94l85 -214h-59zM200 80l-174 407h83l132 -311zM108 -191q-35 0 -75 10v65q38 -5 60 -5q38 0 64.5 17t44.5 61l229 530h82l-239 -554q-54 -124 -166 -124z" />
    <glyph glyph-name="uni2009" unicode="&#x2009;" horiz-adv-x="147" 
 />
    <glyph glyph-name="endash" unicode="&#x2013;" horiz-adv-x="506" 
d="M462 347v-65h-419v65h419z" />
    <glyph glyph-name="emdash" unicode="&#x2014;" horiz-adv-x="1000" 
d="M950 347v-65h-900v65h900z" />
    <glyph glyph-name="uni2015" unicode="&#x2015;" horiz-adv-x="1000" 
d="M950 347v-65h-900v65h900z" />
    <glyph glyph-name="quoteleft" unicode="&#x2018;" horiz-adv-x="280" 
d="M186 660l-13 -257h-90l42 257h61z" />
    <glyph glyph-name="quoteright" unicode="&#x2019;" horiz-adv-x="280" 
d="M198 660l-43 -257h-61l14 257h90z" />
    <glyph glyph-name="quotesinglbase" unicode="&#x201a;" horiz-adv-x="280" 
d="M198 90l-43 -257h-61l14 257h90z" />
    <glyph glyph-name="quotedblleft" unicode="&#x201c;" horiz-adv-x="463" 
d="M186 660l-13 -257h-90l42 257h61zM369 660l-13 -257h-90l42 257h61z" />
    <glyph glyph-name="quotedblright" unicode="&#x201d;" horiz-adv-x="463" 
d="M198 660l-43 -257h-61l14 257h90zM381 660l-43 -257h-61l14 257h90z" />
    <glyph glyph-name="quotedblbase" unicode="&#x201e;" horiz-adv-x="463" 
d="M198 90l-43 -257h-61l14 257h90zM381 90l-43 -257h-61l14 257h90z" />
    <glyph glyph-name="dagger" unicode="&#x2020;" horiz-adv-x="451" 
d="M263 750v-133h125v-68h-325v68h124v133h76zM263 500v-175h-76v175h76z" />
    <glyph glyph-name="daggerdbl" unicode="&#x2021;" horiz-adv-x="451" 
d="M263 647h125v-68h-125v-86h-76v86h-124v68h124v103h76v-103zM63 375v69h325v-69h-125v-104h-76v104h-124z" />
    <glyph glyph-name="bullet" unicode="&#x2022;" horiz-adv-x="377" 
d="M189 397q53 0 92 -37t39 -93t-39 -92.5t-92 -36.5t-92.5 36.5t-39.5 92.5t39.5 93t92.5 37z" />
    <glyph glyph-name="ellipsis" unicode="&#x2026;" horiz-adv-x="766" 
d="M135 115q26 0 44.5 -18t18.5 -45t-18.5 -45t-44.5 -18t-44.5 18t-18.5 45t18.5 45t44.5 18zM384 115q26 0 44.5 -18t18.5 -45t-18.5 -45t-44.5 -18t-44.5 18t-18.5 45t18.5 45t44.5 18zM631 115q26 0 44.5 -18t18.5 -45t-18.5 -45t-44.5 -18t-44.5 18t-18.5 45t18.5 45
t44.5 18z" />
    <glyph glyph-name="perthousand" unicode="&#x2030;" horiz-adv-x="1192" 
d="M67 442q-17 30 -17 68q0 68 47.5 114.5t115.5 46.5q81 0 125 -58h-118q-50 0 -77.5 -28.5t-27.5 -74.5q0 -37 17 -68h-65zM182 0l378 660h69l-378 -660h-69zM214 349q-81 0 -124 58h118q49 0 77 29t28 74q0 39 -18 68h65q18 -30 18 -69q0 -67 -48 -113.5t-116 -46.5z
M450 83q-17 32 -17 68q0 68 47.5 114.5t115.5 46.5q80 0 125 -58h-118q-49 0 -77 -29t-28 -74q0 -39 18 -68h-66zM832 83q-16 31 -16 68q0 68 47 114.5t115 46.5q80 0 125 -58h-118q-49 0 -77 -29t-28 -74q0 -39 18 -68h-66zM597 -10q-80 0 -123 58h117q49 0 77 28.5
t28 74.5q0 39 -18 68h66q17 -31 17 -69q0 -67 -48 -113.5t-116 -46.5zM979 -10q-80 0 -123 58h117q49 0 77 28.5t28 74.5q0 39 -18 68h66q17 -31 17 -69q0 -67 -48 -113.5t-116 -46.5z" />
    <glyph glyph-name="minute" unicode="&#x2032;" horiz-adv-x="248" 
d="M201 660l-71 -272h-62l41 272h92z" />
    <glyph glyph-name="second" unicode="&#x2033;" horiz-adv-x="431" 
d="M201 660l-71 -272h-62l41 272h92zM384 660l-71 -272h-62l41 272h92z" />
    <glyph glyph-name="guilsinglleft" unicode="&#x2039;" horiz-adv-x="306" 
d="M216 471l50 -45l-141 -155l141 -157l-50 -43l-178 188v23z" />
    <glyph glyph-name="guilsinglright" unicode="&#x203a;" horiz-adv-x="306" 
d="M90 471l177 -189v-23l-177 -188l-51 43l142 157l-142 155z" />
    <glyph glyph-name="fraction" unicode="&#x2044;" horiz-adv-x="238" 
d="M342 660l-378 -660h-69l378 660h69z" />
    <glyph glyph-name="uni2070" unicode="&#x2070;" horiz-adv-x="410" 
d="M293 387v188q0 151 -88 151q-28 0 -52 -13v64q25 10 55 10q75 0 113.5 -58.5t38.5 -154.5q0 -133 -67 -187zM202 357q-75 0 -114 58.5t-39 154.5q0 132 68 187v-188q0 -151 88 -151q28 0 52 13v-63q-24 -11 -55 -11z" />
    <glyph glyph-name="uni2074" unicode="&#x2074;" horiz-adv-x="356" 
d="M146 780h67l-116 -288h90v-55h-171v18zM340 492v-55h-56v-73h-61v258h61v-130h56z" />
    <glyph glyph-name="uni2075" unicode="&#x2075;" horiz-adv-x="366" 
d="M69 571v209h226v-60h-162v-149h-64zM174 357q-50 0 -87.5 25t-58.5 65l46 33q38 -62 99 -62q38 0 62 22t24 58q0 34 -22.5 53.5t-59.5 19.5h-8v58h10q64 0 106 -34t42 -95q0 -64 -44.5 -103.5t-108.5 -39.5z" />
    <glyph glyph-name="uni2076" unicode="&#x2076;" horiz-adv-x="373" 
d="M277 780l-131 -189q-39 -59 -39 -91q0 -36 22.5 -59t57.5 -23q34 0 56.5 23t22.5 60q0 39 -23.5 59.5t-53.5 25.5l32 50q48 -8 80 -45.5t32 -89.5q0 -61 -43 -102.5t-103 -41.5t-103 41t-43 103q0 34 13 61t43 70l103 148h77z" />
    <glyph glyph-name="uni2077" unicode="&#x2077;" horiz-adv-x="327" 
d="M308 780v-18l-20 -42h-260v60h280zM271 685l-161 -321h-71l163 321h69z" />
    <glyph glyph-name="uni2078" unicode="&#x2078;" horiz-adv-x="382" 
d="M191 357q-67 0 -108 31.5t-41 83.5q0 49 51 84l50 -22q-36 -29 -36 -59q0 -29 22 -46.5t61 -17.5q40 0 62.5 17.5t22.5 46.5q0 26 -18.5 40.5t-63.5 35.5l-44 20q-44 21 -66 46.5t-22 62.5q0 51 36 79t93 28q58 0 94.5 -28.5t36.5 -77.5q0 -42 -36 -73l-49 23
q24 23 24 46q0 26 -20 41.5t-50 15.5t-49 -15t-19 -41q0 -24 17 -38t55 -30l50 -23q46 -21 71 -47.5t25 -66.5q0 -53 -41 -84.5t-108 -31.5z" />
    <glyph glyph-name="uni2079" unicode="&#x2079;" horiz-adv-x="373" 
d="M96 364l131 189q39 59 39 91q0 36 -22.5 59t-57.5 23q-34 0 -56.5 -23t-22.5 -60q0 -38 23.5 -59t54.5 -26l-33 -50q-48 8 -80 45.5t-32 89.5q0 61 43 102.5t103 41.5t103 -41t43 -103q0 -24 -8.5 -47.5t-17.5 -38.5t-29 -45l-104 -148h-77z" />
    <glyph glyph-name="uni207A" unicode="&#x207a;" horiz-adv-x="427" 
d="M245 745v-144h140v-57h-140v-144h-63v144h-140v57h140v144h63z" />
    <glyph glyph-name="uni207B" unicode="&#x207b;" horiz-adv-x="427" 
d="M42 547v52h343v-52h-343z" />
    <glyph glyph-name="uni207C" unicode="&#x207c;" horiz-adv-x="427" 
d="M49 623v57h329v-57h-329zM49 465v57h329v-57h-329z" />
    <glyph glyph-name="uni207D" unicode="&#x207d;" horiz-adv-x="255" 
d="M208 901l25 -40q-117 -75 -117 -289q0 -215 117 -288l-25 -41q-68 45 -109 120.5t-41 208.5q0 139 42.5 218.5t107.5 110.5z" />
    <glyph glyph-name="uni207E" unicode="&#x207e;" horiz-adv-x="255" 
d="M46 901q65 -31 107.5 -110.5t42.5 -218.5q0 -138 -42.5 -218t-107.5 -111l-25 41q117 73 117 288q0 214 -117 289z" />
    <glyph glyph-name="uni2080" unicode="&#x2080;" horiz-adv-x="410" 
d="M293 -97v188q0 151 -88 151q-28 0 -52 -13v64q25 10 55 10q75 0 113.5 -58.5t38.5 -154.5q0 -133 -67 -187zM202 -127q-75 0 -114 58.5t-39 154.5q0 132 68 187v-188q0 -151 88 -151q28 0 52 13v-63q-24 -11 -55 -11z" />
    <glyph glyph-name="uni2081" unicode="&#x2081;" horiz-adv-x="353" 
d="M219 296v-320h-67v260h-100v60h167zM309 -60v-60h-262v60h262z" />
    <glyph glyph-name="uni2082" unicode="&#x2082;" horiz-adv-x="368" 
d="M110 -24l73 78q33 36 48.5 62t15.5 53q0 31 -19 52t-50 21q-32 0 -51.5 -21t-19.5 -55q0 -8 2 -32h-65q-4 16 -4 36q0 53 38 93t100 40q59 0 97.5 -36.5t38.5 -92.5q0 -42 -22 -77t-67 -82l-36 -39h-79zM35 -120v14l42 46h251v-60h-293z" />
    <glyph glyph-name="uni2083" unicode="&#x2083;" horiz-adv-x="354" 
d="M110 87v18l97 131h-159v60h257v-19l-140 -190h-55zM164 -127q-98 0 -145 90l46 33q38 -62 97 -62q38 0 61 21.5t23 58.5q0 45 -42 65l34 51q76 -31 76 -117q0 -63 -43.5 -101.5t-106.5 -38.5z" />
    <glyph glyph-name="uni2084" unicode="&#x2084;" horiz-adv-x="356" 
d="M146 296h67l-116 -288h90v-55h-171v18zM340 8v-55h-56v-73h-61v258h61v-130h56z" />
    <glyph glyph-name="uni2085" unicode="&#x2085;" horiz-adv-x="366" 
d="M69 87v209h226v-60h-162v-149h-64zM174 -127q-50 0 -87.5 25t-58.5 65l46 33q38 -62 99 -62q38 0 62 22t24 58q0 34 -22.5 53.5t-59.5 19.5h-8v58h10q64 0 106 -34t42 -95q0 -64 -44.5 -103.5t-108.5 -39.5z" />
    <glyph glyph-name="uni2086" unicode="&#x2086;" horiz-adv-x="373" 
d="M277 296l-131 -189q-39 -59 -39 -91q0 -36 22.5 -59t57.5 -23q34 0 56.5 23t22.5 60q0 39 -23.5 59.5t-53.5 25.5l32 50q48 -8 80 -45.5t32 -89.5q0 -61 -43 -102.5t-103 -41.5t-103 41t-43 103q0 34 13 61t43 70l103 148h77z" />
    <glyph glyph-name="uni2087" unicode="&#x2087;" horiz-adv-x="327" 
d="M308 296v-18l-20 -42h-260v60h280zM271 201l-161 -321h-71l163 321h69z" />
    <glyph glyph-name="uni2088" unicode="&#x2088;" horiz-adv-x="382" 
d="M191 -127q-67 0 -108 31.5t-41 83.5q0 49 51 84l50 -22q-36 -29 -36 -59q0 -29 22 -46.5t61 -17.5q40 0 62.5 17.5t22.5 46.5q0 26 -18.5 40.5t-63.5 35.5l-44 20q-44 21 -66 46.5t-22 62.5q0 51 36 79t93 28q58 0 94.5 -28.5t36.5 -77.5q0 -42 -36 -73l-49 23
q24 23 24 46q0 26 -20 41.5t-50 15.5t-49 -15t-19 -41q0 -24 17 -38t55 -30l50 -23q46 -21 71 -47.5t25 -66.5q0 -53 -41 -84.5t-108 -31.5z" />
    <glyph glyph-name="uni2089" unicode="&#x2089;" horiz-adv-x="373" 
d="M96 -120l131 189q39 59 39 91q0 36 -22.5 59t-57.5 23q-34 0 -56.5 -23t-22.5 -60q0 -38 23.5 -59t54.5 -26l-33 -50q-48 8 -80 45.5t-32 89.5q0 61 43 102.5t103 41.5t103 -41t43 -103q0 -24 -8.5 -47.5t-17.5 -38.5t-29 -45l-104 -148h-77z" />
    <glyph glyph-name="uni208A" unicode="&#x208a;" horiz-adv-x="427" 
d="M245 260v-144h140v-57h-140v-144h-63v144h-140v57h140v144h63z" />
    <glyph glyph-name="uni208B" unicode="&#x208b;" horiz-adv-x="427" 
d="M42 62v52h343v-52h-343z" />
    <glyph glyph-name="uni208C" unicode="&#x208c;" horiz-adv-x="427" 
d="M49 138v57h329v-57h-329zM49 -20v57h329v-57h-329z" />
    <glyph glyph-name="uni208D" unicode="&#x208d;" horiz-adv-x="255" 
d="M208 416l25 -40q-117 -75 -117 -289q0 -215 117 -288l-25 -41q-68 45 -109 120.5t-41 208.5q0 139 42.5 218.5t107.5 110.5z" />
    <glyph glyph-name="uni208E" unicode="&#x208e;" horiz-adv-x="255" 
d="M46 416q65 -31 107.5 -110.5t42.5 -218.5q0 -138 -42.5 -218t-107.5 -111l-25 41q117 73 117 288q0 214 -117 289z" />
    <glyph glyph-name="lira" unicode="&#x20a4;" horiz-adv-x="529" 
d="M395 392v-68h-328v68h56q-27 58 -27 105q0 77 54 125.5t139 48.5q156 0 203 -163l-69 -26q-37 117 -133 117q-53 0 -83.5 -33t-30.5 -82q0 -36 26 -92h193zM264 173q-11 -63 -56 -105h276v-68h-427v20q109 69 129 153h-119v68h328v-68h-131z" />
    <glyph glyph-name="peseta" unicode="&#x20a7;" horiz-adv-x="590" 
d="M591 488v-67h-83q-12 -76 -71.5 -122t-147.5 -46h-55v70h54q56 0 92 26t46 72h-143v67h144q-9 48 -46 75t-96 27h-101v-590h-78v421h-82v67h82v172h180q92 0 152 -47.5t71 -124.5h82z" />
    <glyph glyph-name="Euro" unicode="&#x20ac;" horiz-adv-x="681" 
d="M487 439l-16 -68h-464v68h105q28 105 106.5 168.5t188.5 63.5q73 0 131.5 -28.5t93.5 -79.5l-56 -45q-60 81 -166 81q-79 0 -135 -43t-80 -117h292zM410 61q106 0 166 81l56 -45q-35 -51 -93.5 -79.5t-131.5 -28.5q-109 0 -187 62.5t-107 165.5h-108v68h440l-17 -68h-232
q25 -72 80.5 -114t133.5 -42z" />
    <glyph glyph-name="uni20AE" unicode="&#x20ae;" horiz-adv-x="581" 
d="M562 590h-232v-178l182 68v-73l-442 -166v73l182 68v208h-233v70h543v-70zM70 78v74l442 166v-73l-182 -69v-176h-78v147z" />
    <glyph glyph-name="uni20B4" unicode="&#x20b4;" horiz-adv-x="542" 
d="M440 433h81v-64h-497v64h325q34 31 34 71q0 48 -33.5 71t-79.5 23q-85 0 -145 -80l-55 41q29 52 81 82t118 30q83 0 138.5 -45.5t55.5 -120.5q0 -42 -23 -72zM22 222v64h499v-64h-358q-13 -24 -13 -53q0 -51 35 -79.5t90 -28.5q111 0 183 112l57 -42
q-35 -65 -98.5 -103.5t-141.5 -38.5q-90 0 -148 49.5t-58 128.5q0 31 11 55h-58z" />
    <glyph glyph-name="uni20B8" unicode="&#x20b8;" horiz-adv-x="581" 
d="M562 660v-70h-543v70h543zM562 504v-70h-232v-434h-78v434h-233v70h543z" />
    <glyph glyph-name="uni20B9" unicode="&#x20b9;" horiz-adv-x="513" 
d="M55 660h384v-68h-384v68zM53 443v68h386v-68h-76q-8 -76 -63.5 -120.5t-145.5 -45.5l285 -277h-97l-287 277v68h92q59 0 93 25.5t41 72.5h-228z" />
    <glyph glyph-name="uni20BA" unicode="&#x20ba;" horiz-adv-x="518" 
d="M388 589v-73l-363 -165v73l97 44v192h78v-156zM474 290q9 -31 9 -64q0 -81 -47.5 -135.5t-126.5 -78t-187 -23.5v244l-97 -45v73l363 167v-73l-188 -86v-207q89 7 151 48.5t62 117.5q0 29 -5 62h66z" />
    <glyph glyph-name="uni20BD" unicode="&#x20bd;" horiz-adv-x="576" 
d="M330 660q91 0 145 -50.5t54 -132.5t-54 -132t-145 -50h-306v68h82v297h224zM325 592h-141v-229h141q59 0 93.5 31t34.5 82q0 52 -34 84t-94 32zM447 202v-68h-263v-134h-78v134h-82v68h423z" />
    <glyph glyph-name="uni2105" unicode="&#x2105;" horiz-adv-x="809" 
d="M299 565q-34 48 -86 48q-33 0 -61 -14v60q27 13 61 13q88 0 131 -72zM630 660l-382 -660h-65l381 660h66zM213 349q-67 0 -115 46.5t-48 114.5q0 83 66 129v-119q0 -55 26 -83.5t71 -28.5q51 0 86 49l45 -35q-44 -73 -131 -73zM693 20v120q0 56 -26 84.5t-72 28.5
q-33 0 -61 -14v60q27 13 61 13q68 0 116 -47t48 -115q0 -83 -66 -130zM596 -11q-68 0 -116 46.5t-48 114.5q0 84 66 130v-120q0 -55 26.5 -83.5t71.5 -28.5q31 0 61 13v-59q-27 -13 -61 -13z" />
    <glyph glyph-name="uni2113" unicode="&#x2113;" horiz-adv-x="422" 
d="M254 761q135 0 135 -151q0 -121 -86 -235.5t-253 -246.5l-41 58q161 130 236 225.5t75 194.5q0 89 -63 89q-77 0 -77 -121v-175l-76 -66v237q0 191 150 191zM180 169q3 -110 106 -110q25 0 87 10v-65q-50 -15 -99 -15q-69 0 -112 33t-52 91z" />
    <glyph glyph-name="uni2116" unicode="&#x2116;" horiz-adv-x="1126" 
d="M119 671l498 -600v-82h-28l-498 601v81h28zM617 660v-510l-78 93v417h78zM912 559q68 0 116 -46.5t48 -114.5q0 -39 -17.5 -73t-46.5 -54v126q0 46 -28 75t-72 29q-36 0 -64 -20v63q26 15 64 15zM813 525v-126q0 -45 28.5 -74.5t71.5 -29.5q37 0 64 21v-64
q-26 -15 -64 -15q-68 0 -116 46.5t-48 114.5q0 39 17.5 73.5t46.5 53.5zM91 511l78 -93v-418h-78v511zM1072 162v-57h-318v57h318z" />
    <glyph glyph-name="uni2117" unicode="&#x2117;" horiz-adv-x="781" 
d="M390 -11q-141 0 -241.5 98.5t-100.5 242.5t100.5 242.5t241.5 98.5t242 -98.5t101 -242.5t-101 -242.5t-242 -98.5zM277 150h66l1 296h74q31 0 48 -16t17 -42q0 -28 -17 -45t-48 -17h-38v-56h38q59 0 95 33t36 85q0 51 -36 83t-95 32h-141v-353z" />
    <glyph glyph-name="trademark" unicode="&#x2122;" horiz-adv-x="960" 
d="M886 667v-71l-200 -270h-23l-200 270v71h23l189 -254l187 254h24zM387 660v-61h-374v61h374zM233 563v-352h-66v352h66zM463 536l68 -91v-234h-68v325zM887 536v-325h-67v234z" />
    <glyph glyph-name="uni2126" unicode="&#x2126;" horiz-adv-x="792" 
d="M657 342q0 113 -74.5 185t-185.5 72q-129 0 -214 -94v92q85 74 212 74q143 0 243 -94t100 -234q0 -127 -100 -224h-91q110 103 110 223zM134 344q0 -179 198 -274v-70h-269v70h149q-159 107 -159 273q0 123 80 206zM459 0v70h269v-70h-269z" />
    <glyph glyph-name="estimated" unicode="&#x212e;" horiz-adv-x="795" 
d="M238 358h370v191q-75 89 -201 89q-142 0 -220 -104v-409q76 -104 220 -104q78 0 145 32.5t111 86.5l24 -21q-49 -60 -122 -94.5t-158 -34.5q-149 0 -248 97.5t-99 238.5q0 144 101.5 244t241.5 100q81 0 156.5 -35t125.5 -102.5t50 -151.5l-4 -54h-493v31z" />
    <glyph glyph-name="uni2150" unicode="&#x2150;" horiz-adv-x="918" 
d="M219 660v-320h-67v260h-100v60h167zM695 660l-378 -660h-69l378 660h69zM899 416v-18l-20 -42h-260v60h280zM862 321l-161 -321h-71l163 321h69zM309 304v-60h-262v60h262z" />
    <glyph glyph-name="uni2151" unicode="&#x2151;" horiz-adv-x="934" 
d="M219 660v-320h-67v260h-100v60h167zM695 660l-378 -660h-69l378 660h69zM657 0l131 189q39 59 39 91q0 36 -22.5 59t-57.5 23q-34 0 -56.5 -23t-22.5 -60q0 -38 23.5 -59t54.5 -26l-33 -50q-48 8 -80 45.5t-32 89.5q0 61 43 102.5t103 41.5t103 -41t43 -103
q0 -24 -8.5 -47.5t-17.5 -38.5t-29 -45l-104 -148h-77zM309 304v-60h-262v60h262z" />
    <glyph glyph-name="uni2152" unicode="&#x2152;" horiz-adv-x="1354" 
d="M219 660v-320h-67v260h-100v60h167zM695 660l-378 -660h-69l378 660h69zM1237 23v188q0 151 -88 151q-28 0 -52 -13v64q25 10 55 10q75 0 113.5 -58.5t38.5 -154.5q0 -133 -67 -187zM810 416v-320h-67v260h-100v60h167zM1146 -7q-75 0 -114 58.5t-39 154.5q0 132 68 187
v-188q0 -151 88 -151q28 0 52 13v-63q-24 -11 -55 -11zM309 304v-60h-262v60h262zM900 60v-60h-262v60h262z" />
    <glyph glyph-name="uni2153" unicode="&#x2153;" horiz-adv-x="945" 
d="M219 660v-320h-67v260h-100v60h167zM695 660l-378 -660h-69l378 660h69zM701 207v18l97 131h-159v60h257v-19l-140 -190h-55zM309 304v-60h-262v60h262zM755 -7q-98 0 -145 90l46 33q38 -62 97 -62q38 0 61 21.5t23 58.5q0 45 -42 65l34 51q76 -31 76 -117
q0 -63 -43.5 -101.5t-106.5 -38.5z" />
    <glyph glyph-name="uni2154" unicode="&#x2154;" horiz-adv-x="960" 
d="M110 340l73 78q33 36 48.5 62t15.5 53q0 31 -19 52t-50 21q-32 0 -51.5 -21t-19.5 -55q0 -8 2 -32h-65q-4 16 -4 36q0 53 38 93t100 40q59 0 97.5 -36.5t38.5 -92.5q0 -42 -22 -77t-67 -82l-36 -39h-79zM710 660l-378 -660h-69l378 660h69zM716 207v18l97 131h-159v60
h257v-19l-140 -190h-55zM35 244v14l42 46h251v-60h-293zM770 -7q-98 0 -145 90l46 33q38 -62 97 -62q38 0 61 21.5t23 58.5q0 45 -42 65l34 51q76 -31 76 -117q0 -63 -43.5 -101.5t-106.5 -38.5z" />
    <glyph glyph-name="uni2155" unicode="&#x2155;" horiz-adv-x="949" 
d="M219 660v-320h-67v260h-100v60h167zM695 660l-378 -660h-69l378 660h69zM652 207v209h226v-60h-162v-149h-64zM309 304v-60h-262v60h262zM757 -7q-50 0 -87.5 25t-58.5 65l46 33q38 -62 99 -62q38 0 62 22t24 58q0 34 -22.5 53.5t-59.5 19.5h-8v58h10q64 0 106 -34
t42 -95q0 -64 -44.5 -103.5t-108.5 -39.5z" />
    <glyph glyph-name="uni2156" unicode="&#x2156;" horiz-adv-x="964" 
d="M110 340l73 78q33 36 48.5 62t15.5 53q0 31 -19 52t-50 21q-32 0 -51.5 -21t-19.5 -55q0 -8 2 -32h-65q-4 16 -4 36q0 53 38 93t100 40q59 0 97.5 -36.5t38.5 -92.5q0 -42 -22 -77t-67 -82l-36 -39h-79zM710 660l-378 -660h-69l378 660h69zM667 207v209h226v-60h-162
v-149h-64zM35 244v14l42 46h251v-60h-293zM772 -7q-50 0 -87.5 25t-58.5 65l46 33q38 -62 99 -62q38 0 62 22t24 58q0 34 -22.5 53.5t-59.5 19.5h-8v58h10q64 0 106 -34t42 -95q0 -64 -44.5 -103.5t-108.5 -39.5z" />
    <glyph glyph-name="uni2157" unicode="&#x2157;" horiz-adv-x="915" 
d="M110 451v18l97 131h-159v60h257v-19l-140 -190h-55zM661 660l-378 -660h-69l378 660h69zM164 237q-98 0 -145 90l46 33q38 -62 97 -62q38 0 61 21.5t23 58.5q0 45 -42 65l34 51q76 -31 76 -117q0 -63 -43.5 -101.5t-106.5 -38.5zM618 207v209h226v-60h-162v-149h-64z
M723 -7q-50 0 -87.5 25t-58.5 65l46 33q38 -62 99 -62q38 0 62 22t24 58q0 34 -22.5 53.5t-59.5 19.5h-8v58h10q64 0 106 -34t42 -95q0 -64 -44.5 -103.5t-108.5 -39.5z" />
    <glyph glyph-name="uni2158" unicode="&#x2158;" horiz-adv-x="962" 
d="M146 660h67l-116 -288h90v-55h-171v18zM639 660h69l-378 -660h-69zM284 317v-73h-61v258h61v-130h56v-55h-56zM665 207v209h226v-60h-162v-149h-64zM775 265q64 0 106 -34t42 -95q0 -64 -44.5 -103.5t-108.5 -39.5q-50 0 -87.5 25t-58.5 65l46 33q38 -62 99 -62
q38 0 62 22t24 58q0 34 -22.5 53.5t-59.5 19.5h-8v58h10z" />
    <glyph glyph-name="uni2159" unicode="&#x2159;" horiz-adv-x="884" 
d="M219 660v-320h-67v260h-100v60h167zM695 660l-378 -660h-69l378 660h69zM788 416l-131 -189q-39 -59 -39 -91q0 -36 22.5 -59t57.5 -23q34 0 56.5 23t22.5 60q0 39 -23.5 59.5t-53.5 25.5l32 50q48 -8 80 -45.5t32 -89.5q0 -61 -43 -102.5t-103 -41.5t-103 41t-43 103
q0 34 13 61t43 70l103 148h77zM309 304v-60h-262v60h262z" />
    <glyph glyph-name="uni215A" unicode="&#x215a;" horiz-adv-x="862" 
d="M69 451v209h226v-60h-162v-149h-64zM673 660l-378 -660h-69l378 660h69zM174 237q-50 0 -87.5 25t-58.5 65l46 33q38 -62 99 -62q38 0 62 22t24 58q0 34 -22.5 53.5t-59.5 19.5h-8v58h10q64 0 106 -34t42 -95q0 -64 -44.5 -103.5t-108.5 -39.5zM766 416l-131 -189
q-39 -59 -39 -91q0 -36 22.5 -59t57.5 -23q34 0 56.5 23t22.5 60q0 39 -23.5 59.5t-53.5 25.5l32 50q48 -8 80 -45.5t32 -89.5q0 -61 -43 -102.5t-103 -41.5t-103 41t-43 103q0 34 13 61t43 70l103 148h77z" />
    <glyph glyph-name="oneeighth" unicode="&#x215b;" horiz-adv-x="928" 
d="M219 660v-320h-67v260h-100v60h167zM695 660l-378 -660h-69l378 660h69zM737 -7q-67 0 -108 31.5t-41 83.5q0 49 51 84l50 -22q-36 -29 -36 -59q0 -29 22 -46.5t61 -17.5q40 0 62.5 17.5t22.5 46.5q0 26 -18.5 40.5t-63.5 35.5l-44 20q-44 21 -66 46.5t-22 62.5
q0 51 36 79t93 28q58 0 94.5 -28.5t36.5 -77.5q0 -42 -36 -73l-49 23q24 23 24 46q0 26 -20 41.5t-50 15.5t-49 -15t-19 -41q0 -24 17 -38t55 -30l50 -23q46 -21 71 -47.5t25 -66.5q0 -53 -41 -84.5t-108 -31.5zM309 304v-60h-262v60h262z" />
    <glyph glyph-name="threeeighths" unicode="&#x215c;" horiz-adv-x="894" 
d="M110 451v18l97 131h-159v60h257v-19l-140 -190h-55zM661 660l-378 -660h-69l378 660h69zM164 237q-98 0 -145 90l46 33q38 -62 97 -62q38 0 61 21.5t23 58.5q0 45 -42 65l34 51q76 -31 76 -117q0 -63 -43.5 -101.5t-106.5 -38.5zM703 -7q-67 0 -108 31.5t-41 83.5
q0 49 51 84l50 -22q-36 -29 -36 -59q0 -29 22 -46.5t61 -17.5q40 0 62.5 17.5t22.5 46.5q0 26 -18.5 40.5t-63.5 35.5l-44 20q-44 21 -66 46.5t-22 62.5q0 51 36 79t93 28q58 0 94.5 -28.5t36.5 -77.5q0 -42 -36 -73l-49 23q24 23 24 46q0 26 -20 41.5t-50 15.5t-49 -15
t-19 -41q0 -24 17 -38t55 -30l50 -23q46 -21 71 -47.5t25 -66.5q0 -53 -41 -84.5t-108 -31.5z" />
    <glyph glyph-name="fiveeighths" unicode="&#x215d;" horiz-adv-x="906" 
d="M69 451v209h226v-60h-162v-149h-64zM673 660l-378 -660h-69l378 660h69zM174 237q-50 0 -87.5 25t-58.5 65l46 33q38 -62 99 -62q38 0 62 22t24 58q0 34 -22.5 53.5t-59.5 19.5h-8v58h10q64 0 106 -34t42 -95q0 -64 -44.5 -103.5t-108.5 -39.5zM715 -7q-67 0 -108 31.5
t-41 83.5q0 49 51 84l50 -22q-36 -29 -36 -59q0 -29 22 -46.5t61 -17.5q40 0 62.5 17.5t22.5 46.5q0 26 -18.5 40.5t-63.5 35.5l-44 20q-44 21 -66 46.5t-22 62.5q0 51 36 79t93 28q58 0 94.5 -28.5t36.5 -77.5q0 -42 -36 -73l-49 23q24 23 24 46q0 26 -20 41.5t-50 15.5
t-49 -15t-19 -41q0 -24 17 -38t55 -30l50 -23q46 -21 71 -47.5t25 -66.5q0 -53 -41 -84.5t-108 -31.5z" />
    <glyph glyph-name="seveneighths" unicode="&#x215e;" horiz-adv-x="804" 
d="M308 660v-18l-20 -42h-260v60h280zM571 660l-378 -660h-69l378 660h69zM271 565l-161 -321h-71l163 321h69zM613 -7q-67 0 -108 31.5t-41 83.5q0 49 51 84l50 -22q-36 -29 -36 -59q0 -29 22 -46.5t61 -17.5q40 0 62.5 17.5t22.5 46.5q0 26 -18.5 40.5t-63.5 35.5l-44 20
q-44 21 -66 46.5t-22 62.5q0 51 36 79t93 28q58 0 94.5 -28.5t36.5 -77.5q0 -42 -36 -73l-49 23q24 23 24 46q0 26 -20 41.5t-50 15.5t-49 -15t-19 -41q0 -24 17 -38t55 -30l50 -23q46 -21 71 -47.5t25 -66.5q0 -53 -41 -84.5t-108 -31.5z" />
    <glyph glyph-name="arrowleft" unicode="&#x2190;" horiz-adv-x="650" 
d="M319 53l-253 253v19l253 253l46 -46l-216 -216l216 -218zM252 283v65h345v-65h-345z" />
    <glyph glyph-name="arrowup" unicode="&#x2191;" horiz-adv-x="650" 
d="M98 271l-46 46l264 263h18l264 -263l-46 -46l-227 225zM290 45v332h71v-332h-71z" />
    <glyph glyph-name="arrowright" unicode="&#x2192;" horiz-adv-x="650" 
d="M331 577l253 -253v-19l-253 -253l-46 46l216 217l-216 216zM398 347v-65h-345v65h345z" />
    <glyph glyph-name="arrowdown" unicode="&#x2193;" horiz-adv-x="650" 
d="M290 252v333h71v-333h-71zM316 49l-264 264l46 46l227 -226l227 226l46 -46l-264 -264h-18z" />
    <glyph glyph-name="arrowboth" unicode="&#x2194;" horiz-adv-x="966" 
d="M331 41l-265 264v19l265 264l46 -45l-228 -228l228 -228zM635 41l-46 46l228 228l-228 228l46 45l265 -264v-19zM252 281v69h461v-69h-461z" />
    <glyph glyph-name="arrowupdn" unicode="&#x2195;" horiz-adv-x="631" 
d="M324 723l254 -254l-45 -46l-218 217l-217 -217l-46 46l255 254h17zM352 521v-382h-72v382h72zM533 237l45 -46l-254 -254h-17l-255 254l46 46l217 -217z" />
    <glyph glyph-name="uni2196" unicode="&#x2196;" horiz-adv-x="650" 
d="M117 113v386l13 13h382v-67h-325v-332h-70zM508 72l-273 273l48 49l274 -274z" />
    <glyph glyph-name="uni2197" unicode="&#x2197;" horiz-adv-x="650" 
d="M463 113v332h-325v67h382l13 -13v-386h-70zM142 72l-49 48l274 274l48 -49z" />
    <glyph glyph-name="uni2198" unicode="&#x2198;" horiz-adv-x="650" 
d="M367 217l-274 274l49 48l273 -274zM138 99v66h325v332h70v-385l-13 -13h-382z" />
    <glyph glyph-name="uni2199" unicode="&#x2199;" horiz-adv-x="650" 
d="M283 217l-48 48l273 274l49 -48zM130 99l-13 13v385h70v-332h325v-66h-382z" />
    <glyph glyph-name="partialdiff" unicode="&#x2202;" horiz-adv-x="578" 
d="M251 -12q-86 0 -145.5 52.5t-59.5 145.5q0 96 65.5 155.5t182.5 59.5q51 0 103 -9v-66q-59 8 -98 8q-89 0 -131.5 -41.5t-42.5 -102.5q0 -60 37.5 -97t94.5 -37q86 0 138.5 86t52.5 225q0 120 -42 177t-116 57q-83 0 -142 -77l-52 42q29 49 80.5 77t116.5 28
q107 0 170.5 -77.5t63.5 -227.5q0 -165 -76 -271.5t-200 -106.5z" />
    <glyph glyph-name="uni2206" unicode="&#x2206;" horiz-adv-x="663" 
d="M346 671l286 -671h-83l-260 608l28 63h29zM263 545l41 -97l-161 -378h323l29 -70h-464z" />
    <glyph glyph-name="product" unicode="&#x220f;" horiz-adv-x="691" 
d="M600 660v-781h-78v711h-431v70h509zM169 541v-662h-78v662h78z" />
    <glyph glyph-name="summation" unicode="&#x2211;" horiz-adv-x="574" 
d="M142 660l242 -369v-21l-168 -272h-90l176 281l-237 360v21h77zM522 660v-70h-278l-42 70h320zM534 -51v-70h-469v21l31 49h438z" />
    <glyph glyph-name="minus" unicode="&#x2212;" 
d="M503 349v-68h-447v68h447z" />
    <glyph glyph-name="uni2219" unicode="&#x2219;" horiz-adv-x="270" 
d="M135 377q26 0 44.5 -18t18.5 -45t-18.5 -45t-44.5 -18t-44.5 18t-18.5 45t18.5 45t44.5 18z" />
    <glyph glyph-name="radical" unicode="&#x221a;" horiz-adv-x="733" 
d="M726 750l-513 -883h-29v95l458 788h84zM239 273l-48 -69h-164v69h212z" />
    <glyph glyph-name="infinity" unicode="&#x221e;" horiz-adv-x="822" 
d="M210 145q-79 0 -128 48.5t-49 119.5t49.5 120t127.5 49q55 0 103 -27.5t82 -66.5t66 -78t70 -66.5t78 -27.5q43 0 72.5 27t29.5 71q0 43 -30 70t-74 27q-59 0 -117 -61l-44 52q75 80 166 80q78 0 128 -49t50 -120t-49.5 -119.5t-127.5 -48.5q-55 0 -102.5 27.5
t-81.5 66.5t-65.5 78t-70 66.5t-79.5 27.5q-43 0 -73 -27t-30 -70q0 -44 29.5 -71t74.5 -27q60 0 117 60l44 -51q-75 -80 -166 -80z" />
    <glyph glyph-name="integral" unicode="&#x222b;" horiz-adv-x="327" 
d="M258 787q35 0 65 -7v-64q-40 2 -49 2q-106 0 -105 -123q0 -52 34 -266t34 -278q0 -90 -45 -134.5t-122 -44.5q-35 0 -65 7v64q40 -2 49 -2q105 0 105 122q0 56 -35 269.5t-35 275.5q0 89 45.5 134t123.5 45z" />
    <glyph glyph-name="approxequal" unicode="&#x2248;" 
d="M153 509q40 0 84 -27l94 -57q45 -25 62 -25q18 0 28 12.5t10 31.5v19h63q2 -8 2 -27q0 -45 -26.5 -75.5t-70.5 -30.5q-39 0 -83 26l-94 57q-42 26 -61 26q-18 0 -28.5 -12.5t-10.5 -32.5v-19h-63q0 1 -0.5 11t-0.5 16q0 44 26 75.5t69 31.5zM153 295q40 0 84 -27l94 -57
q45 -25 62 -25q18 0 28 12.5t10 31.5v19h63q2 -8 2 -27q0 -45 -26.5 -75.5t-70.5 -30.5q-39 0 -83 26l-94 57q-42 26 -61 26q-18 0 -28.5 -12.5t-10.5 -32.5v-19h-63q0 1 -0.5 11t-0.5 16q0 44 26 75.5t69 31.5z" />
    <glyph glyph-name="notequal" unicode="&#x2260;" 
d="M405 453h89v-69h-428v69h267l67 107h71zM66 177v68h428v-68h-263l-70 -111h-72l70 111h-93z" />
    <glyph glyph-name="lessequal" unicode="&#x2264;" 
d="M267 370l-91 34l314 123v-73zM490 161l-438 172v22l58 23l380 -144v-73zM62 0v68h428v-68h-428z" />
    <glyph glyph-name="greaterequal" unicode="&#x2265;" 
d="M450 310l-380 144v73l439 -172v-22zM70 161v73l223 84l91 -34zM70 0v68h428v-68h-428z" />
    <glyph glyph-name="uni24EA" unicode="&#x24ea;" horiz-adv-x="975" 
d="M683 16q74 49 120.5 131t46.5 184q0 155 -105 259t-269 104h-216q106 67 228 67q178 0 304 -126.5t126 -304.5q0 -189 -139 -314h-96zM487 -101q-178 0 -304 126.5t-126 304.5q0 189 139 314h96q-73 -49 -120 -131t-47 -184q0 -155 105.5 -259t268.5 -104h216
q-106 -67 -228 -67zM585 130v197q0 169 -98 169q-29 0 -55 -14v67q29 12 59 12q82 0 124.5 -62.5t42.5 -168.5q0 -145 -73 -200zM486 98q-83 0 -125.5 62t-42.5 168q0 145 73 200v-195q0 -171 98 -171q29 0 55 14v-66q-26 -12 -58 -12z" />
    <glyph glyph-name="uni24FF" unicode="&#x24ff;" horiz-adv-x="975" 
d="M488 -101q-179 0 -305 126t-126 305t126 305t305 126q178 0 304 -126.5t126 -304.5t-126 -304.5t-304 -126.5zM585 130q73 55 73 200q0 106 -42.5 168.5t-124.5 62.5q-30 0 -59 -12v-67q26 14 55 14q98 0 98 -169v-197zM486 98q32 0 58 12v66q-26 -14 -55 -14
q-98 0 -98 171v195q-73 -55 -73 -200q0 -106 42.5 -168t125.5 -62z" />
    <glyph glyph-name="filledbox" unicode="&#x25a0;" horiz-adv-x="730" 
d="M640 605v-550h-550v550h550z" />
    <glyph glyph-name="uni25A1" unicode="&#x25a1;" horiz-adv-x="730" 
d="M640 605v-430h-78v359h-472v71h550zM168 485v-359h472v-71h-550v430h78z" />
    <glyph glyph-name="uni25AA" unicode="&#x25aa;" horiz-adv-x="541" 
d="M461 434v-380h-381v380h381z" />
    <glyph glyph-name="uni25AB" unicode="&#x25ab;" horiz-adv-x="541" 
d="M461 433v-262h-74v195h-307v67h381zM154 316v-194h307v-69h-381v263h74z" />
    <glyph glyph-name="triagup" unicode="&#x25b2;" horiz-adv-x="730" 
d="M373 660l336 -592l-7 -13h-674l-7 13l337 592h15z" />
    <glyph glyph-name="uni25B3" unicode="&#x25b3;" horiz-adv-x="732" 
d="M559 182l-237 412l38 66h13l272 -478h-86zM27 55l-6 13l272 478l44 -76l-192 -337h527l39 -65l-6 -13h-678z" />
    <glyph glyph-name="uni25B4" unicode="&#x25b4;" horiz-adv-x="528" 
d="M272 473l231 -406l-7 -13h-464l-7 13l232 406h15z" />
    <glyph glyph-name="uni25B5" unicode="&#x25b5;" horiz-adv-x="528" 
d="M371 158l-147 256l33 58h14l180 -314h-80zM31 53l-6 13l177 310l40 -70l-106 -186h337l30 -54l-6 -13h-466z" />
    <glyph glyph-name="uni25B6" unicode="&#x25b6;" horiz-adv-x="645" 
d="M103 671l519 -334v-15l-519 -333l-13 7v668z" />
    <glyph glyph-name="uni25B7" unicode="&#x25b7;" horiz-adv-x="645" 
d="M447 359l-357 230v76l13 6l415 -267zM103 -11l-13 6v535l78 -51v-359l395 255l59 -38v-14z" />
    <glyph glyph-name="uni25B8" unicode="&#x25b8;" horiz-adv-x="480" 
d="M93 480l356 -228v-15l-356 -228l-13 7v457z" />
    <glyph glyph-name="uni25B9" unicode="&#x25b9;" horiz-adv-x="480" 
d="M288 274l-208 132v67l13 6l258 -165zM93 8l-13 6v335l71 -46v-174l245 157l53 -35v-13z" />
    <glyph glyph-name="triagrt" unicode="&#x25ba;" horiz-adv-x="961" 
d="M103 671l828 -334v-15l-828 -333l-13 7v668z" />
    <glyph glyph-name="uni25BB" unicode="&#x25bb;" horiz-adv-x="961" 
d="M684 356l-594 237v72l13 6l680 -275zM103 -11l-13 6v545l78 -31v-413l679 274l84 -33v-14z" />
    <glyph glyph-name="triagdn" unicode="&#x25bc;" horiz-adv-x="730" 
d="M373 0h-15l-337 592l7 13h674l7 -13z" />
    <glyph glyph-name="uni25BD" unicode="&#x25bd;" horiz-adv-x="732" 
d="M439 114l-44 76l192 337h-527l-39 65l6 13h678l6 -13zM359 0l-272 478h86l237 -412l-38 -66h-13z" />
    <glyph glyph-name="uni25BE" unicode="&#x25be;" horiz-adv-x="528" 
d="M496 434l7 -13l-231 -406h-15l-232 406l7 13h464z" />
    <glyph glyph-name="uni25BF" unicode="&#x25bf;" horiz-adv-x="528" 
d="M326 110l-40 71l106 186h-337l-30 54l6 13h466l6 -13zM257 15l-180 314h80l147 -257l-33 -57h-14z" />
    <glyph glyph-name="uni25C0" unicode="&#x25c0;" horiz-adv-x="645" 
d="M542 671l13 -7v-668l-13 -7l-519 333v15z" />
    <glyph glyph-name="uni25C1" unicode="&#x25c1;" horiz-adv-x="682" 
d="M579 671l13 -6v-535l-78 51v359l-395 -255l-59 38v14zM235 301l357 -230v-76l-13 -6l-414 267z" />
    <glyph glyph-name="uni25C2" unicode="&#x25c2;" horiz-adv-x="480" 
d="M387 480l13 -7v-457l-13 -7l-356 228v15z" />
    <glyph glyph-name="uni25C3" unicode="&#x25c3;" horiz-adv-x="480" 
d="M400 138l-71 46v174l-245 -157l-53 35v13l356 230l13 -6v-335zM387 8l-258 165l63 40l208 -132v-67z" />
    <glyph glyph-name="triaglf" unicode="&#x25c4;" horiz-adv-x="961" 
d="M858 671l13 -7v-668l-13 -7l-828 333v15z" />
    <glyph glyph-name="uni25C5" unicode="&#x25c5;" horiz-adv-x="961" 
d="M858 671l13 -6v-545l-78 31v413l-679 -274l-84 33v14zM277 304l594 -237v-72l-13 -6l-680 275z" />
    <glyph glyph-name="lozenge" unicode="&#x25ca;" horiz-adv-x="665" 
d="M405 83l-42 67l113 180l-185 297l28 44h28l213 -341zM318 -11l-213 342l157 250l42 -67l-114 -183l186 -294l-29 -48h-29z" />
    <glyph glyph-name="circle" unicode="&#x25cb;" horiz-adv-x="776" 
d="M556 121q38 36 61 90.5t23 117.5q0 109 -74.5 183.5t-187.5 74.5h-196q88 72 206 72q136 0 232 -96.5t96 -233.5q0 -118 -74 -208h-86zM387 -1q-136 0 -232 96.5t-96 233.5q0 117 74 209h86q-84 -81 -84 -209q0 -109 74.5 -183.5t187.5 -74.5h196q-88 -72 -206 -72z" />
    <glyph glyph-name="uni25CF" unicode="&#x25cf;" horiz-adv-x="776" 
d="M388 659q136 0 232 -96.5t96 -233.5q0 -136 -96 -232t-232 -96q-137 0 -233 96t-96 232q0 137 96.5 233.5t232.5 96.5z" />
    <glyph glyph-name="uni261C" unicode="&#x261c;" horiz-adv-x="1216" 
d="M522 524q-14 0 -22 -9l-71 14q18 55 79 55q39 0 76 -23l152 -93l-163 33l-20 12q-18 11 -31 11zM1178 275v-27l-85 -73l47 -175l-25 -17l-172 110l32 50l83 -53l-31 109l77 63l-77 61l32 109l-84 -53l-32 50l172 110l25 -16l-47 -176zM50 418q0 50 43.5 67.5t148.5 17.5
q328 0 691 -127v-226q-94 -57 -207 -93.5t-188 -36.5q-56 0 -82.5 23t-21.5 65h57q0 -31 41 -31q57 0 159 29.5t181 75.5v158q-119 47 -303 77t-351 30q-59 0 -80.5 -6t-21.5 -24q0 -17 18.5 -24t70.5 -9l135 -6q53 -3 129.5 -6t102.5 -4v-52l-359 11q-87 3 -125 24t-38 67z
M466 223q-82 0 -77 77h58q0 -26 29 -26h107v-51h-117zM528 123h-50q-38 0 -59 19.5t-18 60.5h58q0 -25 29 -25h105v-53q-36 -2 -65 -2z" />
    <glyph glyph-name="uni261E" unicode="&#x261e;" horiz-adv-x="1216" 
d="M675 513l-20 -12l-163 -33l152 93q37 23 76 23q61 0 79 -55l-71 -14q-8 9 -22 9q-13 0 -31 -11zM285 429l-32 -50l-84 53l32 -109l-77 -61l77 -63l-31 -109l83 53l32 -50l-172 -110l-25 17l47 175l-85 73v27l85 72l-47 176l25 16zM986 503q105 0 148.5 -17.5t43.5 -67.5
q0 -46 -38 -67t-125 -24l-359 -11v52q26 1 102.5 4t129.5 6l135 6q52 2 70.5 9t18.5 24q0 18 -21.5 24t-80.5 6q-167 0 -351 -30t-303 -77v-158q79 -46 181 -75.5t159 -29.5q21 0 31 6.5t10 24.5h57q5 -42 -21.5 -65t-82.5 -23q-75 0 -188 36.5t-207 93.5v226
q363 127 691 127zM781 300h58q5 -77 -77 -77h-117v51h107q29 0 29 26zM769 203h58q3 -41 -18 -60.5t-59 -19.5h-50q-29 0 -65 2v53h105q29 0 29 25z" />
    <glyph glyph-name="uni2661" unicode="&#x2661;" horiz-adv-x="860" 
d="M422 -11l-261 282q-60 65 -84 108t-24 95q0 88 56.5 142.5t141.5 54.5q142 0 219 -164l-28 -44h-26q-34 66 -72.5 101t-88.5 35q-51 0 -86 -33.5t-35 -86.5q0 -41 22.5 -77.5t68.5 -87.5l257 -277l-45 -48h-15zM515 72l-52 56l171 185q46 51 68.5 88t22.5 79q0 53 -35 86
t-86 33q-48 0 -100 -45l-36 50q64 67 145 67t137 -55.5t56 -142.5q0 -51 -24 -94.5t-84 -108.5z" />
    <glyph glyph-name="heart" unicode="&#x2665;" horiz-adv-x="860" 
d="M613 671q81 0 137 -55t56 -141q0 -50 -24 -95t-84 -109l-261 -282h-15l-261 282q-60 64 -84 109t-24 95q0 86 56 141t137 55q64 0 112.5 -35.5t70.5 -92.5q22 57 71 92.5t113 35.5z" />
    <glyph glyph-name="uni275B" unicode="&#x275b;" horiz-adv-x="655" 
d="M389 670q114 0 205 -70l-33 -51q-75 58 -169 58q-119 0 -196.5 -80.5t-77.5 -205.5q0 -73 37 -135v-105q-49 45 -78 110t-29 138q0 142 97 241.5t244 99.5zM396 413q87 0 148.5 -62.5t61.5 -150.5q0 -87 -61.5 -149t-148.5 -62q-86 0 -147.5 62t-61.5 149
q0 88 61.5 150.5t147.5 62.5z" />
    <glyph glyph-name="uni275C" unicode="&#x275c;" horiz-adv-x="655" 
d="M259 671q86 0 147.5 -62t61.5 -149q0 -88 -61.5 -150.5t-147.5 -62.5q-87 0 -149 62.5t-62 150.5q0 87 62 149t149 62zM500 579q49 -44 77.5 -109t28.5 -139q0 -142 -97 -241.5t-244 -99.5q-116 0 -205 70l33 51q75 -57 168 -57q119 0 197 80t78 205q0 72 -36 135v105z
" />
    <glyph glyph-name="uni275D" unicode="&#x275d;" horiz-adv-x="1275" 
d="M389 670q114 0 205 -70l-33 -51q-75 58 -169 58q-119 0 -196.5 -80.5t-77.5 -205.5q0 -73 37 -135v-105q-49 45 -78 110t-29 138q0 142 97 241.5t244 99.5zM1009 670q114 0 205 -70l-33 -51q-75 58 -169 58q-119 0 -196.5 -80.5t-77.5 -205.5q0 -73 37 -135v-105
q-49 45 -78 110t-29 138q0 142 97 241.5t244 99.5zM396 413q87 0 148.5 -62.5t61.5 -150.5q0 -87 -61.5 -149t-148.5 -62q-86 0 -147.5 62t-61.5 149q0 88 61.5 150.5t147.5 62.5zM1016 413q87 0 148.5 -62.5t61.5 -150.5q0 -87 -61.5 -149t-148.5 -62q-86 0 -147.5 62
t-61.5 149q0 88 61.5 150.5t147.5 62.5z" />
    <glyph glyph-name="uni275E" unicode="&#x275e;" horiz-adv-x="1282" 
d="M259 671q86 0 147.5 -62t61.5 -149q0 -88 -61.5 -150.5t-147.5 -62.5q-87 0 -149 62.5t-62 150.5q0 87 62 149t149 62zM886 671q86 0 147.5 -62t61.5 -149q0 -88 -61.5 -150.5t-147.5 -62.5q-87 0 -149 62.5t-62 150.5q0 87 62 149t149 62zM500 579q49 -44 77.5 -109
t28.5 -139q0 -142 -97 -241.5t-244 -99.5q-116 0 -205 70l33 51q75 -57 168 -57q119 0 197 80t78 205q0 72 -36 135v105zM1127 579q49 -44 77.5 -109t28.5 -139q0 -142 -97 -241.5t-244 -99.5q-116 0 -205 70l33 51q75 -57 168 -57q119 0 197 80t78 205q0 72 -36 135v105z
" />
    <glyph glyph-name="uni2776" unicode="&#x2776;" horiz-adv-x="975" 
d="M488 -101q-179 0 -305 126t-126 305t126 305t305 126q178 0 304 -126.5t126 -304.5t-126 -304.5t-304 -126.5zM457 206h70v348h-164v-60h94v-288zM357 105h264v61h-264v-61z" />
    <glyph glyph-name="uni2777" unicode="&#x2777;" horiz-adv-x="975" 
d="M488 -101q-179 0 -305 126t-126 305t126 305t305 126q178 0 304 -126.5t126 -304.5t-126 -304.5t-304 -126.5zM407 206h84l54 57q43 45 65 80.5t22 79.5q0 60 -41.5 99t-107.5 39q-68 0 -111 -42.5t-43 -100.5q0 -20 5 -43h65q-4 24 -4 38q0 35 23 59.5t62 24.5
q37 0 58 -22t21 -56q0 -32 -17.5 -59.5t-53.5 -66.5zM328 105h323v61h-285l-38 -46v-15z" />
    <glyph glyph-name="uni2778" unicode="&#x2778;" horiz-adv-x="975" 
d="M488 -101q-179 0 -305 126t-126 305t126 305t305 126q178 0 304 -126.5t126 -304.5t-126 -304.5t-304 -126.5zM411 328h61l157 207v19h-281v-63h171l-108 -143v-20zM474 98q68 0 116.5 42t48.5 110q0 44 -22.5 76.5t-59.5 46.5l-38 -53q45 -22 45 -69q0 -41 -25.5 -65
t-65.5 -24q-61 0 -107 68l-49 -36q23 -43 63.5 -69.5t93.5 -26.5z" />
    <glyph glyph-name="uni2779" unicode="&#x2779;" horiz-adv-x="975" 
d="M488 -101q-179 0 -305 126t-126 305t126 305t305 126q178 0 304 -126.5t126 -304.5t-126 -304.5t-304 -126.5zM299 183h186v63h-99l126 308h-75l-138 -351v-20zM525 105h70v78h61v63h-61v133h-70v-274z" />
    <glyph glyph-name="uni277A" unicode="&#x277a;" horiz-adv-x="975" 
d="M488 -101q-179 0 -305 126t-126 305t126 305t305 126q178 0 304 -126.5t126 -304.5t-126 -304.5t-304 -126.5zM370 332h62v162h178v60h-240v-222zM483 97q69 0 117.5 42.5t48.5 112.5q0 67 -46 102.5t-111 35.5h-20v-58l17 -1q43 -1 67.5 -22t24.5 -59q0 -41 -28.5 -66.5
t-71.5 -25.5q-64 0 -110 68l-46 -33q53 -96 158 -96z" />
    <glyph glyph-name="uni277B" unicode="&#x277b;" horiz-adv-x="975" 
d="M488 -101q-179 0 -305 126t-126 305t126 305t305 126q178 0 304 -126.5t126 -304.5t-126 -304.5t-304 -126.5zM477 98q66 0 113 44t47 110q0 57 -37 97t-87 46l-35 -52q35 -3 61 -25t26 -65q0 -38 -25 -64.5t-63 -26.5t-62.5 26t-24.5 63q0 36 35 88l152 215h-84
l-123 -174q-17 -24 -25.5 -38.5t-17 -39.5t-8.5 -50q0 -66 46.5 -110t111.5 -44z" />
    <glyph glyph-name="uni277C" unicode="&#x277c;" horiz-adv-x="975" 
d="M488 -101q-179 0 -305 126t-126 305t126 305t305 126q178 0 304 -126.5t126 -304.5t-126 -304.5t-304 -126.5zM345 490h283l24 46v19h-307v-65zM357 106h78l174 344h-72z" />
    <glyph glyph-name="uni277D" unicode="&#x277d;" horiz-adv-x="975" 
d="M488 -101q-179 0 -305 126t-126 305t126 305t305 126q178 0 304 -126.5t126 -304.5t-126 -304.5t-304 -126.5zM488 98q73 0 118 34t45 91q0 75 -103 121l-48 22q-27 12 -36 16.5t-24 14t-20 20t-5 25.5q0 29 20 45.5t52 16.5q33 0 53.5 -16.5t20.5 -45.5q0 -26 -27 -50
l59 -24q37 34 37 78q0 54 -40 84.5t-102 30.5t-102 -30.5t-40 -84.5q0 -39 22.5 -65.5t70.5 -47.5l45 -20q4 -2 18.5 -8t20 -8.5t16.5 -8.5t16.5 -11.5t12 -13t9 -17t2.5 -20.5q0 -32 -24 -51.5t-67 -19.5q-44 0 -68 19.5t-24 52.5q0 37 41 64l-60 24q-52 -36 -52 -92
q0 -57 45 -91t118 -34z" />
    <glyph glyph-name="uni277E" unicode="&#x277e;" horiz-adv-x="975" 
d="M488 -101q-179 0 -305 126.5t-126 304.5t126 304.5t305 126.5q178 0 304 -126t126 -305t-126 -305t-304 -126zM398 106h84l122 174q17 25 26 39t17.5 39t8.5 50q0 66 -47 110t-112 44q-66 0 -112.5 -44t-46.5 -110q0 -57 37 -97t86 -46l35 52q-35 3 -61 25t-26 65
q0 38 25 64.5t63 26.5t62.5 -26t24.5 -63q0 -36 -35 -88z" />
    <glyph glyph-name="uni2780" unicode="&#x2780;" horiz-adv-x="975" 
d="M683 16q74 49 120.5 131t46.5 184q0 155 -105 259t-269 104h-216q106 67 228 67q178 0 304 -126.5t126 -304.5q0 -189 -139 -314h-96zM487 -101q-178 0 -304 126.5t-126 304.5q0 189 139 314h96q-73 -49 -120 -131t-47 -184q0 -155 105.5 -259t268.5 -104h216
q-106 -67 -228 -67zM457 206v288h-94v60h164v-348h-70zM357 105v61h264v-61h-264z" />
    <glyph glyph-name="uni2781" unicode="&#x2781;" horiz-adv-x="975" 
d="M683 16q74 49 120.5 131t46.5 184q0 155 -105 259t-269 104h-216q106 67 228 67q178 0 304 -126.5t126 -304.5q0 -189 -139 -314h-96zM487 -101q-178 0 -304 126.5t-126 304.5q0 189 139 314h96q-73 -49 -120 -131t-47 -184q0 -155 105.5 -259t268.5 -104h216
q-106 -67 -228 -67zM407 206l81 87q36 39 53.5 66.5t17.5 59.5q0 34 -21 56t-58 22q-39 0 -62 -24.5t-23 -59.5q0 -14 4 -38h-65q-5 23 -5 43q0 58 43 100.5t111 42.5q66 0 107.5 -39t41.5 -99q0 -44 -22 -79.5t-65 -80.5l-54 -57h-84zM328 105v15l38 46h285v-61h-323z" />
    <glyph glyph-name="uni2782" unicode="&#x2782;" horiz-adv-x="975" 
d="M683 16q74 49 120.5 131t46.5 184q0 155 -105 259t-269 104h-216q106 67 231 67q176 0 301.5 -127t125.5 -306q0 -187 -139 -312h-96zM484 -101q-176 0 -301.5 127t-125.5 306q0 187 139 312h96q-73 -49 -120 -131t-47 -184q0 -155 105.5 -259t268.5 -104h216
q-106 -67 -231 -67zM411 328v20l108 143h-171v63h281v-19l-157 -207h-61zM474 98q-53 0 -93.5 26.5t-63.5 69.5l49 36q46 -68 107 -68q40 0 65.5 24t25.5 65q0 47 -45 69l38 53q37 -14 59.5 -46.5t22.5 -76.5q0 -68 -48.5 -110t-116.5 -42z" />
    <glyph glyph-name="uni2783" unicode="&#x2783;" horiz-adv-x="975" 
d="M683 16q74 49 120.5 131t46.5 184q0 155 -105 259t-269 104h-216q106 67 228 67q178 0 304 -126.5t126 -304.5q0 -189 -139 -314h-96zM487 -101q-178 0 -304 126.5t-126 304.5q0 189 139 314h96q-73 -49 -120 -131t-47 -184q0 -155 105.5 -259t268.5 -104h216
q-106 -67 -228 -67zM299 183v20l138 351h75l-126 -308h99v-63h-186zM525 105v274h70v-133h61v-63h-61v-78h-70z" />
    <glyph glyph-name="uni2784" unicode="&#x2784;" horiz-adv-x="975" 
d="M683 16q74 49 120.5 131t46.5 184q0 155 -105 259t-269 104h-216q106 67 228 67q178 0 304 -126.5t126 -304.5q0 -189 -139 -314h-96zM487 -101q-178 0 -304 126.5t-126 304.5q0 189 139 314h96q-73 -49 -120 -131t-47 -184q0 -155 105.5 -259t268.5 -104h216
q-106 -67 -228 -67zM370 332v222h240v-60h-178v-162h-62zM483 97q-105 0 -158 96l46 33q46 -68 110 -68q43 0 71.5 25.5t28.5 66.5q0 38 -24.5 59t-67.5 22l-17 1v58h20q65 0 111 -35.5t46 -102.5q0 -70 -48.5 -112.5t-117.5 -42.5z" />
    <glyph glyph-name="uni2785" unicode="&#x2785;" horiz-adv-x="975" 
d="M683 16q74 49 120.5 131t46.5 184q0 155 -105 259t-269 104h-216q106 67 228 67q178 0 304 -126.5t126 -304.5q0 -189 -139 -314h-96zM487 -101q-178 0 -304 126.5t-126 304.5q0 189 139 314h96q-73 -49 -120 -131t-47 -184q0 -155 105.5 -259t268.5 -104h216
q-106 -67 -228 -67zM477 98q-65 0 -111.5 44t-46.5 110q0 25 8.5 50t17 39.5t25.5 38.5l123 174h84l-152 -215q-35 -52 -35 -88q0 -37 24.5 -63t62.5 -26t63 26.5t25 64.5q0 43 -26 65t-61 25l35 52q50 -6 87 -46t37 -97q0 -66 -47 -110t-113 -44z" />
    <glyph glyph-name="uni2786" unicode="&#x2786;" horiz-adv-x="975" 
d="M683 16q74 49 120.5 131t46.5 184q0 155 -105 259t-269 104h-216q106 67 228 67q178 0 304 -126.5t126 -304.5q0 -189 -139 -314h-96zM487 -101q-178 0 -304 126.5t-126 304.5q0 189 139 314h96q-73 -49 -120 -131t-47 -184q0 -155 105.5 -259t268.5 -104h216
q-106 -67 -228 -67zM345 490v65h307v-19l-24 -46h-283zM357 106l180 344h72l-174 -344h-78z" />
    <glyph glyph-name="uni2787" unicode="&#x2787;" horiz-adv-x="975" 
d="M683 16q74 49 120.5 131t46.5 184q0 155 -105 259t-269 104h-216q106 67 228 67q178 0 304 -126.5t126 -304.5q0 -189 -139 -314h-96zM487 -101q-178 0 -304 126.5t-126 304.5q0 189 139 314h96q-73 -49 -120 -131t-47 -184q0 -155 105.5 -259t268.5 -104h216
q-106 -67 -228 -67zM488 98q-73 0 -118 34t-45 91q0 56 52 92l60 -24q-41 -27 -41 -64q0 -33 24 -52.5t68 -19.5q43 0 67 19.5t24 51.5q0 11 -2.5 20.5t-9 17t-12 13t-16.5 11.5t-16.5 8.5t-20 8.5t-18.5 8l-45 20q-48 21 -70.5 47.5t-22.5 65.5q0 54 40 84.5t102 30.5
t102 -30.5t40 -84.5q0 -44 -37 -78l-59 24q27 24 27 50q0 29 -20.5 45.5t-53.5 16.5q-32 0 -52 -16.5t-20 -45.5q0 -15 5 -25.5t20 -20t24 -14t36 -16.5l48 -22q103 -46 103 -121q0 -57 -45 -91t-118 -34z" />
    <glyph glyph-name="uni2788" unicode="&#x2788;" horiz-adv-x="975" 
d="M683 16q74 49 120.5 131t46.5 184q0 155 -105 259t-269 104h-216q106 67 228 67q178 0 304 -126.5t126 -304.5q0 -189 -139 -314h-96zM487 -101q-178 0 -304 126.5t-126 304.5q0 189 139 314h96q-73 -49 -120 -131t-47 -184q0 -155 105.5 -259t268.5 -104h216
q-106 -67 -228 -67zM398 106l151 215q35 52 35 88q0 37 -24.5 63t-62.5 26t-63 -26.5t-25 -64.5q0 -43 26 -65t61 -25l-35 -52q-49 6 -86 46t-37 97q0 66 46.5 110t112.5 44q65 0 112 -44t47 -110q0 -25 -8.5 -50t-17.5 -39t-26 -39l-122 -174h-84z" />
    <glyph glyph-name="uni27F5" unicode="&#x27f5;" horiz-adv-x="1216" 
d="M331 41l-265 264v19l265 264l46 -45l-228 -228l228 -228zM252 281v69l912 -1v-68h-912z" />
    <glyph glyph-name="uni27F6" unicode="&#x27f6;" horiz-adv-x="1216" 
d="M885 41l-45 46l227 228l-227 228l45 45l265 -264v-19zM52 281v68l912 1v-69h-912z" />
    <glyph glyph-name="uniF8FF" unicode="&#xf8ff;" horiz-adv-x="722" 
d="M99 0v660h524v-660h-524zM458 123q36 0 58 22.5t22 53.5q0 27 -17 55.5t-45 45.5l-24 -25q45 -43 45 -76q0 -17 -10 -28t-27 -11q-23 0 -43 27t-54 103q82 47 110.5 77.5t28.5 62.5q0 39 -27.5 60.5t-74.5 21.5q-11 0 -33 -2l26 55l-41 7l-33 -71q-46 -9 -103 -36
q-23 -64 -23 -161q0 -80 20 -158l42 -8q23 116 43 186.5t52 147.5q20 4 41 4q70 0 70 -50q0 -24 -26.5 -48t-113.5 -74l-1 -6q39 -99 67 -137t71 -38zM231 202q-2 35 -2 81q0 88 23 157q24 13 51 20q-51 -130 -65 -258h-7z" />
    <glyph glyph-name="Iacute_J.loclNLD" horiz-adv-x="632" 
d="M101 724l85 186h94v-14l-120 -172h-59zM464 724l85 186h94v-14l-120 -172h-59zM91 0v660h78v-660h-78zM542 660v-507q0 -83 -46.5 -123.5t-126.5 -40.5q-38 0 -86 11v67q41 -6 72 -6q53 0 81 21.5t28 77.5v500h78z" />
    <glyph glyph-name="Cacute.loclPLK" horiz-adv-x="715" 
d="M364 724l45 186h94v-14l-80 -172h-59zM607 483q-79 116 -216 116q-64 0 -119 -26.5t-93 -67.5v92q87 74 212 74q88 0 160 -38.5t114 -103.5zM391 -11q-144 0 -243.5 98.5t-99.5 245.5q0 129 81 215v-215q0 -116 75.5 -194t186.5 -78q137 0 216 116l58 -46
q-41 -65 -113.5 -103.5t-160.5 -38.5z" />
    <glyph glyph-name="Nacute.loclPLK" horiz-adv-x="708" 
d="M326 724l45 186h94v-14l-80 -172h-59zM589 -11l-498 601v81h28l498 -600v-82h-28zM617 150l-78 92v418h78v-510zM91 0v511l78 -94v-417h-78z" />
    <glyph glyph-name="Oacute.loclPLK" horiz-adv-x="781" 
d="M363 724l45 186h94v-14l-80 -172h-59zM390 671q144 0 243.5 -98.5t99.5 -245.5q0 -130 -80 -215v215q0 117 -75.5 194.5t-186.5 77.5q-64 0 -119 -26.5t-93 -67.5v92q87 74 211 74zM129 548v-215q0 -116 75 -194t186 -78q63 0 118.5 26.5t94.5 67.5v-92q-88 -74 -212 -74
q-144 0 -243.5 98.5t-99.5 245.5q0 129 81 215z" />
    <glyph glyph-name="Sacute.loclPLK" horiz-adv-x="558" 
d="M254 724l45 186h94v-14l-80 -172h-59zM432 516q-55 83 -149 83q-38 0 -70 -13v74q35 11 72 11q64 0 118.5 -31t85.5 -81zM416 26v135q0 26 -7 45t-24.5 33.5t-33 24t-45.5 23.5l-74 35q-70 34 -109.5 73.5t-39.5 102.5q0 90 81 139v-124q0 -25 7 -43.5t24.5 -33
t31.5 -22.5t43 -22l73 -35q78 -37 116 -79t38 -105q0 -95 -81 -147zM282 -11q-76 0 -139 38t-102 104l58 43q74 -113 184 -113q41 0 84 15v-73q-40 -14 -85 -14z" />
    <glyph glyph-name="Zacute.loclPLK" horiz-adv-x="589" 
d="M270 724l45 186h94v-14l-80 -172h-59zM32 0v23l449 637h73v-23l-449 -637h-73zM75 590v70h345l-46 -70h-299zM166 0l47 70h342v-70h-389z" />
    <glyph glyph-name="Idotaccent.loclTRK" horiz-adv-x="259" 
d="M130 754q-24 0 -41 16t-17 40q0 23 17 39.5t41 16.5q23 0 40 -16.5t17 -39.5q0 -24 -16.5 -40t-40.5 -16zM91 0v660h78v-660h-78z" />
    <glyph glyph-name="A.ordn" horiz-adv-x="434" 
d="M228 667l183 -423h-73l-156 364l24 59h22zM247 369l24 -54h-144l-30 -71h-73l139 322l36 -84l-48 -113h96z" />
    <glyph glyph-name="C.ordn" horiz-adv-x="467" 
d="M379 534q-46 70 -127 70q-63 0 -110 -38v69q54 32 113 32q55 0 101.5 -26t74.5 -72zM253 237q-92 0 -154.5 62t-62.5 153q0 93 70 158v-152q0 -71 41.5 -114.5t105.5 -43.5q80 0 126 70l52 -35q-28 -47 -74.5 -72.5t-103.5 -25.5z" />
    <glyph glyph-name="D.ordn" horiz-adv-x="459" 
d="M135 660v-416h-68v416h68zM200 660q101 0 162 -57.5t61 -149.5t-61 -150.5t-162 -58.5h-29v61h28q69 0 111.5 41t42.5 107t-42.5 105.5t-111.5 39.5h-28v62h29z" />
    <glyph glyph-name="E.ordn" horiz-adv-x="377" 
d="M338 660v-61h-201v-293h209v-62h-279v416h271zM294 493v-55h-121v55h121z" />
    <glyph glyph-name="Egrave.ordn" horiz-adv-x="377" 
d="M198 817l51 -117h-46l-79 106v11h74zM338 660v-61h-201v-293h209v-62h-279v416h271zM294 493v-55h-121v55h121z" />
    <glyph glyph-name="G.ordn" horiz-adv-x="487" 
d="M378 539q-47 65 -126 65q-62 0 -109 -38v69q50 32 112 32q110 0 171 -88zM255 237q-92 0 -155.5 61.5t-63.5 152.5q0 95 70 158v-158q0 -69 41 -111t108 -42q77 0 125 60v11h68v-24q-29 -49 -80 -78.5t-113 -29.5zM253 406v55h195v-55h-195z" />
    <glyph glyph-name="H.ordn" horiz-adv-x="476" 
d="M135 244h-68v416h68v-416zM171 495h169v165h69v-416h-69v190h-169v61z" />
    <glyph glyph-name="I.ordn" horiz-adv-x="201" 
d="M134 660v-416h-67v416h67z" />
    <glyph glyph-name="L.ordn" horiz-adv-x="337" 
d="M134 660v-319h-67v319h67zM327 305v-61h-260v61h260z" />
    <glyph glyph-name="M.ordn" horiz-adv-x="527" 
d="M459 667v-81l-185 -243h-21l-186 243v81h24l172 -232l173 232h23zM67 526l68 -86v-196h-68v282zM459 526v-282h-67l1 196z" />
    <glyph glyph-name="N.ordn" horiz-adv-x="476" 
d="M384 237l-317 354v76h25l317 -355v-75h-25zM409 367l-69 77v216h69v-293zM67 244v292l69 -76v-216h-69z" />
    <glyph glyph-name="O.ordn" horiz-adv-x="507" 
d="M401 294v158q0 66 -42 109t-105 43q-64 0 -112 -38v68q48 33 111 33q91 0 154.5 -62t63.5 -153q0 -95 -70 -158zM254 237q-91 0 -154.5 62t-63.5 153q0 95 70 158v-158q0 -66 42 -109t105 -43q65 0 112 38v-68q-48 -33 -111 -33z" />
    <glyph glyph-name="R.ordn" horiz-adv-x="414" 
d="M217 660q63 0 101.5 -34.5t38.5 -90.5t-38.5 -93.5t-101.5 -37.5h-46v59h46q35 0 53.5 19.5t18.5 50.5t-19.5 49t-52.5 18h-82v-356h-68v416h150zM302 383l99 -139h-77l-90 125z" />
    <glyph glyph-name="S.ordn" horiz-adv-x="359" 
d="M262 556q-36 48 -84 48q-16 0 -26 -2v62q12 3 27 3q88 0 131 -75zM248 251v95q0 28 -15 45t-46 29l-44 18q-97 40 -97 117q0 72 71 100l-1 -91q0 -27 13.5 -42t40.5 -26l47 -20q101 -38 101 -119q0 -74 -70 -106zM176 237q-47 0 -88.5 24t-64.5 67l47 37q46 -65 110 -65
q16 0 33 5v-63q-18 -5 -37 -5z" />
    <glyph glyph-name="T.ordn" horiz-adv-x="380" 
d="M363 660v-62h-346v62h346zM224 562v-318h-68v318h68z" />
    <glyph glyph-name="U.ordn" horiz-adv-x="460" 
d="M230 237q-73 0 -121 49t-48 127v247h68v-253q0 -49 28.5 -78t73.5 -29q38 0 65 16v-65q-28 -14 -66 -14zM331 268v392h68v-247q0 -95 -68 -145z" />
    <glyph glyph-name="Uacute.ordn" horiz-adv-x="460" 
d="M208 700l51 117h75v-11l-80 -106h-46zM230 237q-73 0 -121 49t-48 127v247h68v-253q0 -49 28.5 -78t73.5 -29q38 0 65 16v-65q-28 -14 -66 -14zM331 268v392h68v-247q0 -95 -68 -145z" />
    <glyph glyph-name="Y.ordn" horiz-adv-x="402" 
d="M102 660l133 -243v-173h-67v167l-140 249h74zM374 660l-124 -220l-35 64l86 156h73z" />
    <glyph glyph-name="Z.ordn" horiz-adv-x="383" 
d="M357 660v-19l-266 -397h-68v19l267 397h67zM256 660l-40 -62h-166l1 62h205zM357 306v-62h-232l42 62h190z" />
    <glyph glyph-name="iacute_j.loclNLD" horiz-adv-x="492" 
d="M94 566l55 214h94v-14l-90 -200h-59zM340 566l55 214h94v-14l-90 -200h-59zM162 487v-487h-77v487h77zM408 487v-520q0 -80 -43.5 -119t-116.5 -39q-33 0 -62 8v65q25 -3 45 -3q100 0 100 93v515h77z" />
    <glyph glyph-name="cacute.loclPLK" horiz-adv-x="551" 
d="M274 566l45 214h94v-14l-80 -200h-59zM451 348q-59 79 -145 79q-68 0 -127 -43v79q55 35 126 35q130 0 201 -106zM305 -11q-107 0 -181 74t-74 182q0 111 79 180v-180q0 -80 50.5 -132.5t126.5 -52.5q86 0 144 78l55 -43q-71 -106 -200 -106z" />
    <glyph glyph-name="nacute.loclPLK" horiz-adv-x="566" 
d="M251 566l45 214h94v-14l-80 -200h-59zM309 498q83 0 131 -53t48 -139v-306h-77v297q0 60 -32.5 95t-88.5 35q-41 0 -79 -20v66q42 25 98 25zM162 487v-487h-77v487h77z" />
    </font>
</defs>
</svg>
